<REAPER_PROJECT 0.1 "6.23/OSX64-clang" 1636228889
  RIPPLE 0
  GROUPOVERRIDE 0 0 0
  AUTOXFADE 1
  ENVATTACH 1
  POOLEDENVATTACH 0
  MIXERUIFLAGS 11 52
  PEAKGAIN 1.61051
  FEEDBACK 0
  PANLAW 1
  PROJOFFS 0 0 0
  MAXPROJLEN 0 600
  GRID 3199 8 1 8 1 0 0 0
  TIMEMODE 1 5 -1 30 0 0 -1
  VIDEO_CONFIG 0 0 256
  PANMODE 3
  CURSOR 0
  ZOOM 3.76369018035634 0 0
  VZOOMEX 0 0
  USE_REC_CFG 0
  RECMODE 1
  SMPTESYNC 0 30 100 40 1000 300 0 0 1 0 0
  LOOP 1
  LOOPGRAN 0 4
  RECORD_PATH "" ""
  <RECORD_CFG
  >
  <APPLYFX_CFG
  >
  RENDER_FILE ""
  RENDER_PATTERN ""
  RENDER_FMT 0 2 0
  RENDER_1X 0
  RENDER_RANGE 1 0 0 18 1000
  RENDER_RESAMPLE 3 0 1
  RENDER_ADDTOPROJ 0
  RENDER_STEMS 0
  RENDER_DITHER 0
  TIMELOCKMODE 1
  TEMPOENVLOCKMODE 1
  ITEMMIX 0
  DEFPITCHMODE 589824 0
  TAKELANE 1
  SAMPLERATE 44100 0 0
  <RENDER_CFG
  >
  LOCK 1
  <METRONOME 5 2
    VOL 1 1
    FREQ 800 1600 1
    BEATLEN 4
    SAMPLES "" ""
    PATTERN 2863311530 2863311529
  >
  GLOBAL_AUTO -1
  TEMPO 120 4 4
  PLAYRATE 1 0 0.25 4
  SELECTION 0 0
  SELECTION2 0 0
  MASTERAUTOMODE 0
  MASTERTRACKHEIGHT 0 0
  MASTERPEAKCOL 16576
  MASTERMUTESOLO 0
  MASTERTRACKVIEW 0 0.6667 0.5 0.5 0 0 0 0 0 0 -1 -1 0
  MASTERHWOUT 0 0 1 0 0 0 0 -1
  MASTER_NCH 2 2
  MASTER_VOLUME 1 0 -1 -1 1
  MASTER_FX 1
  MASTER_SEL 0
  <MASTERFXLIST
    WNDRECT 471 71 1199 716
    SHOW 0
    LASTSEL 0
    DOCKED 0
  >
  <MASTERPLAYSPEEDENV
    EGUID {8F2A3379-5F42-6F46-BE2D-3C6A785FD8AC}
    ACT 0 -1
    VIS 0 1 1
    LANEHEIGHT 0 0
    ARM 0
    DEFSHAPE 0 -1 -1
  >
  <TEMPOENVEX
    EGUID {456A793D-3BEC-0F45-84D3-A4E11143861C}
    ACT 0 -1
    VIS 1 0 1
    LANEHEIGHT 0 0
    ARM 0
    DEFSHAPE 1 -1 -1
    PT 0.000000000000 60.0000000000 1 524297 1 1
  >
  <PROJBAY
  >
  <TRACK {DB356EE0-C468-1742-9E77-CF04FF9FAD79}
    NAME "Triangle 1 Synth"
    PEAKCOL 16576
    BEAT -1
    AUTOMODE 0
    VOLPAN 1 0 -1 -1 1
    MUTESOLO 0 0 0
    IPHASE 0
    PLAYOFFS 0 1
    ISBUS 1 1
    BUSCOMP 0 0 0 0 0
    SHOWINMIX 1 0.6667 0.5 1 0.5 0 -1 0
    FREEMODE 0
    SEL 0
    REC 0 5088 1 0 0 0 0
    VU 2
    TRACKHEIGHT 0 0 0 0 0 0
    INQ 0 0 0 0.5 100 0 0 100
    NCHAN 6
    FX 1
    TRACKID {DB356EE0-C468-1742-9E77-CF04FF9FAD79}
    PERF 0
    AUXRECV 1 0 1 0 0 0 0 0 0 -1:U 0 -1 ''
    AUXRECV 2 0 1 0 0 0 0 0 0 -1:U 0 -1 ''
    AUXRECV 3 0 1 0 0 0 0 0 0 -1:U 0 -1 ''
    AUXRECV 4 0 1 0 0 0 0 0 0 -1:U 0 -1 ''
    AUXRECV 5 0 1 0 0 0 0 0 0 -1:U 0 -1 ''
    AUXRECV 6 0 1 0 0 0 0 0 0 -1:U 0 -1 ''
    AUXRECV 7 0 1 0 0 0 0 0 0 -1:U 0 -1 ''
    MIDIOUT -1
    MAINSEND 0 0
    <FXCHAIN
      WNDRECT 318 163 1105 598
      SHOW 0
      LASTSEL 0
      DOCKED 0
      BYPASS 0 0 0
      <VST "VST3i: Triangle1Synth   (CabbageAudio    ) (6 out)" Triangle1Synth.vst3 0 "" 97607883{ABCDEF019182FAEB4361626230303131} ""
        y2DRBe5e7f4AAAAABgAAAAEAAAAAAAAAAgAAAAAAAAAEAAAAAAAAAAgAAAAAAAAAEAAAAAAAAAAgAAAAAAAAABMCAAABAAAA//8QAA==
        AwIAAAEAAABWQzIhvgEAADw/eG1sIHZlcnNpb249IjEuMCIgZW5jb2Rpbmc9IlVURi04Ij8+IDxDQUJCQUdFX1BSRVNFVFM+PFBSRVNFVDAgUHJlc2V0TmFtZT0iQ0FC
        QkFHRV9QUkVTRVRTIDAiIGluc3RhbmNlTmFtZT0iIiB0cmFja0luZGV4PSIwIiBwbHVnaW5JbmRleD0iMCIgcGx1Z2luVXVpZD0iODU5YTEwNmE2MmJiNDFmMTg5NTRi
        ZTJlMjlmOThlYzkiIGZpcnN0X3RhYl9idWdfd29ya2Fyb3VuZF90YWI9IjAuMCIgczg4X3RhYj0iMS4wIiBsb2dfdGFiPSIwLjAiIFM4OF9rbm9iXzE9IjAuMCIgUzg4
        X2tub2JfMj0iMC4wIiBTODhfa25vYl8zPSIwLjAiIFM4OF9rbm9iXzQ9IjAuMCIgUzg4X2tub2JfNT0iMC4wIiBTODhfa25vYl82PSIwLjAiIFM4OF9rbm9iXzc9IjAu
        MCIgUzg4X2tub2JfOD0iMC4wIiBTODhfcGl0Y2hiZW5kPSIwLjAiIFM4OF9tb2R3aGVlbD0iMC4wIi8+PC9DQUJCQUdFX1BSRVNFVFM+AAAAAAAAAAAASlVDRVByaXZh
        dGVEYXRhAAEBQnlwYXNzAAEBAwAdAAAAAAAAAEpVQ0VQcml2YXRlRGF0YQAAAAAAAAAA
        AAAQAAAA
      >
      FLOATPOS 716 102 1000 570
      FXID {8BF06E97-C5C7-D946-8873-7F4D99F3C621}
      WAK 0 0
    >
  >
  <TRACK {B757BAB0-72DC-664F-98B0-60964F5A1453}
    NAME ""
    PEAKCOL 16576
    BEAT -1
    AUTOMODE 0
    VOLPAN 1 0 -1 -1 1
    MUTESOLO 0 0 0
    IPHASE 0
    PLAYOFFS 0 1
    ISBUS 0 0
    BUSCOMP 0 0 0 0 0
    SHOWINMIX 1 0.6667 0.5 1 0.5 0 -1 0
    FREEMODE 0
    SEL 0
    REC 0 5088 2 0 0 0 0
    VU 2
    TRACKHEIGHT 25 0 0 0 0 0
    INQ 0 0 0 0.5 100 0 0 100
    NCHAN 2
    FX 1
    TRACKID {B757BAB0-72DC-664F-98B0-60964F5A1453}
    PERF 0
    MIDIOUT -1
    MAINSEND 1 0
    <ITEM
      POSITION 0
      SNAPOFFS 0
      LENGTH 46.7914375
      LOOP 1
      ALLTAKES 0
      FADEIN 1 0 0 1 0 0 0
      FADEOUT 1 0 0 1 0 0 0
      MUTE 0 0
      SEL 1
      IGUID {9255BF92-9BA4-5340-AC0F-0CA78ACE5CB4}
      IID 35
      NAME "03-Recorded MIDI"
      VOLPAN 1 0 1 -1
      SOFFS 0 0
      PLAYRATE 1 1 0 -1 0 0.0025
      CHANMODE 0
      GUID {9BE6015A-A364-B742-A96E-05031E5B3094}
      RECPASS 13
      <SOURCE MIDI
        HASDATA 1 960 QN
        CCINTERP 32
        POOLEDEVTS {2BDB43B0-76EC-E44E-A28C-F51C0AA95FE2}
        E 4069 90 39 45
        E 147 90 42 42
        E 14 90 40 35
        E 7 90 3e 2b
        E 43 90 26 4d
        E 3 90 45 4b
        E 3 90 32 4b
        E 354 b0 40 7f
        E 3243 80 40 00
        E 4 80 3e 00
        E 37 80 45 00
        E 13 80 42 00
        E 44 80 39 00
        E 54 80 32 00
        E 52 80 26 00
        E 401 90 37 3f
        E 79 90 3c 40
        E 2 90 3e 45
        E 25 90 24 4c
        E 12 90 30 4b
        E 3 90 40 46
        E 6 90 43 55
        E 8 b0 40 00
        E 3332 b0 40 7f
        E 351 80 3e 00
        E 12 80 3c 00
        E 2 80 37 00
        E 29 80 40 00
        E 53 80 43 00
        E 22 80 24 00
        E 24 80 30 00
        E 363 90 39 41
        E 72 90 3e 3c
        E 5 90 40 44
        E 1 90 42 44
        E 19 b0 40 00
        E 6 90 26 54
        E 7 90 32 4d
        E 23 90 45 4e
        E 1471 b0 40 7f
        E 1526 80 39 00
        E 28 80 3e 00
        E 19 80 40 00
        E 24 80 45 00
        E 5 80 42 00
        E 614 80 26 00
        E 41 80 32 00
        E 343 90 3b 44
        E 120 90 43 3f
        E 10 90 3e 25
        E 47 90 45 4c
        E 15 90 2b 4e
        E 8 90 37 4c
        E 20 b0 40 00
        E 280 b0 40 7f
        E 2357 80 37 00
        E 124 80 2b 00
        E 1025 80 43 00
        E 64 80 3b 00
        E 14 80 45 00
        E 75 80 3e 00
        E 203 90 39 3e
        E 91 90 42 3c
        E 6 90 3e 3a
        E 54 90 40 32
        E 5 90 45 58
        E 14 90 26 4f
        E 5 90 32 4c
        E 50 b0 40 00
        E 575 b0 40 7f
        E 3343 80 39 00
        E 22 80 40 00
        E 1 80 3e 00
        E 2 80 32 00
        E 6 80 45 00
        E 20 80 42 00
        E 11 80 26 00
        E 229 90 37 3d
        E 91 90 3c 46
        E 4 90 24 4e
        E 9 90 30 4b
        E 4 90 3e 45
        E 15 90 40 48
        E 12 90 3f 24
        E 13 90 43 4d
        E 95 b0 40 00
        E 1225 80 3f 00
        E 1082 b0 40 7f
        E 582 80 3e 00
        E 20 80 3c 00
        E 22 80 37 00
        E 61 80 40 00
        E 86 80 43 00
        E 190 80 24 00
        E 21 80 30 00
        E 636 90 39 45
        E 141 90 3e 39
        E 10 90 40 44
        E 30 90 42 4e
        E 2 b0 40 00
        E 6 90 26 4c
        E 6 90 32 49
        E 31 90 45 4b
        E 983 b0 40 7f
        E 603 80 45 00
        E 167 80 40 00
        E 141 90 47 38
        E 862 80 39 00
        E 43 80 42 00
        E 96 80 26 00
        E 34 80 47 00
        E 60 80 32 00
        E 930 80 3e 00
        E 279 90 3b 38
        E 163 90 3e 36
        E 78 90 43 4b
        E 33 90 2b 59
        E 9 90 37 49
        E 27 90 45 4e
        E 9 b0 40 00
        E 3032 b0 40 7f
        E 427 80 37 00
        E 124 80 2b 00
        E 97 80 43 00
        E 411 80 3b 00
        E 74 80 3e 00
        E 345 80 45 00
        E 5371 b0 40 00
        E 317 b0 7b 00
        CCINTERP 32
        CHASE_CC_TAKEOFFS 1
        GUID {9AF19FE9-4A44-F649-A421-8B8E3616A2F7}
        IGNTEMPO 0 120 4 4
        SRCCOLOR 89
        VELLANE -1 100 0
        VELLANE 64 100 0
      >
    >
  >
  <TRACK {63C9B2FC-26A8-064C-912D-3B7381898E35}
    NAME ""
    PEAKCOL 16576
    BEAT -1
    AUTOMODE 0
    VOLPAN 1 0 -1 -1 1
    MUTESOLO 0 0 0
    IPHASE 0
    PLAYOFFS 0 1
    ISBUS 0 0
    BUSCOMP 0 0 0 0 0
    SHOWINMIX 1 0.6667 0.5 1 0.5 0 -1 0
    FREEMODE 0
    SEL 0
    REC 0 5088 2 0 0 0 0
    VU 2
    TRACKHEIGHT 25 0 0 0 0 0
    INQ 0 0 0 0.5 100 0 0 100
    NCHAN 2
    FX 1
    TRACKID {63C9B2FC-26A8-064C-912D-3B7381898E35}
    PERF 0
    MIDIOUT -1
    MAINSEND 1 0
    <ITEM
      POSITION 0
      SNAPOFFS 0
      LENGTH 18.6634375
      LOOP 1
      ALLTAKES 0
      FADEIN 1 0 0 1 0 0 0
      FADEOUT 1 0 0 1 0 0 0
      MUTE 0 0
      SEL 0
      IGUID {249B7CB1-1DF3-A04B-AF67-E3EDD1124ADF}
      IID 25
      NAME "02-Recorded MIDI"
      VOLPAN 1 0 1 -1
      SOFFS 0 0
      PLAYRATE 1 1 0 -1 0 0.0025
      CHANMODE 0
      GUID {9E53EDAE-DC53-1F49-9B49-C080D4D12F19}
      RECPASS 8
      <SOURCE MIDI
        HASDATA 1 960 QN
        CCINTERP 32
        POOLEDEVTS {D4E500D2-3619-0445-9EFF-B53AE15C4640}
        E 4299 90 43 3f
        E 217 90 45 3b
        E 12 80 43 00
        E 271 90 4a 40
        E 28 80 45 00
        E 189 80 4a 00
        E 3 90 4c 4a
        E 224 90 4a 3d
        E 7 80 4c 00
        E 231 80 4a 00
        E 19 90 45 3a
        E 241 80 45 00
        E 4 90 43 3c
        E 201 90 45 36
        E 43 80 43 00
        E 212 90 4a 42
        E 20 80 45 00
        E 176 80 4a 00
        E 16 90 4c 42
        E 251 80 4c 00
        E 1 90 4a 42
        E 223 80 4a 00
        E 25 90 45 39
        E 240 90 4a 44
        E 32 80 45 00
        E 131 80 4a 00
        E 21 90 4c 3f
        E 249 80 4c 00
        E 9 90 4a 3e
        E 254 90 45 39
        E 11 80 4a 00
        E 257 90 43 3f
        E 9 80 45 00
        E 216 90 45 3c
        E 29 80 43 00
        E 218 90 4a 42
        E 30 80 45 00
        E 158 80 4a 00
        E 29 90 4c 34
        E 239 90 4a 41
        E 21 80 4c 00
        E 256 90 45 3c
        E 6 80 4a 00
        E 227 90 43 40
        E 3 80 45 00
        E 215 90 45 3d
        E 50 80 43 00
        E 202 90 4a 45
        E 19 80 45 00
        E 176 80 4a 00
        E 23 90 4c 40
        E 239 90 4a 43
        E 12 80 4c 00
        E 239 80 4a 00
        E 7 90 45 3b
        E 238 80 45 00
        E 5 90 4a 43
        E 213 80 4a 00
        E 16 90 4c 3c
        E 244 90 4a 41
        E 13 80 4c 00
        E 235 90 45 3b
        E 8 80 4a 00
        E 256 80 45 00
        E 9 90 43 34
        E 212 90 45 39
        E 40 80 43 00
        E 237 90 4a 3f
        E 10 80 45 00
        E 161 80 4a 00
        E 30 90 4c 37
        E 247 80 4c 00
        E 48 90 43 49
        E 198 90 45 36
        E 29 80 43 00
        E 224 90 4a 45
        E 11 80 45 00
        E 206 80 4a 00
        E 14 90 4c 43
        E 232 90 4a 43
        E 2 80 4c 00
        E 223 80 4a 00
        E 3 90 45 3e
        E 223 80 45 00
        E 21 90 43 37
        E 218 90 45 32
        E 34 80 43 00
        E 227 90 4a 46
        E 17 80 45 00
        E 181 80 4a 00
        E 18 90 4c 3d
        E 244 90 4a 43
        E 2 80 4c 00
        E 236 80 4a 00
        E 1 90 45 3e
        E 263 90 43 3b
        E 4 80 45 00
        E 230 90 45 35
        E 4 80 43 00
        E 238 90 43 2f
        E 1 80 45 00
        E 275 80 43 00
        E 3 90 4a 3d
        E 220 80 4a 00
        E 26 90 43 3a
        E 222 90 45 39
        E 3 80 43 00
        E 451 80 45 00
        E 451 b0 7b 00
        CCINTERP 32
        CHASE_CC_TAKEOFFS 1
        GUID {0C45169E-0A76-204F-8714-A65A3BF8C9C6}
        IGNTEMPO 0 120 4 4
        SRCCOLOR 65
        VELLANE -1 100 0
        VELLANE 64 100 0
      >
      TAKE SEL
      NAME "02-Recorded MIDI"
      TAKEVOLPAN 0 1 -1
      SOFFS 0 0
      PLAYRATE 1 1 0 -1 0 0.0025
      CHANMODE 0
      TAKECOLOR 25022450 B
      GUID {1ACA6704-63E1-F146-BA22-CA94FD604EC9}
      RECPASS 9
      <SOURCE MIDI
        HASDATA 1 960 QN
        CCINTERP 32
        POOLEDEVTS {7DD9C3B4-114A-E64C-BE8A-42BEE16F9785}
        E 4285 90 43 3e
        E 207 90 45 45
        E 8 80 43 00
        E 275 90 4a 47
        E 13 80 45 00
        E 196 80 4a 00
        E 7 90 4c 47
        E 255 90 4a 4c
        E 3 80 4c 00
        E 228 90 45 44
        E 14 80 4a 00
        E 229 90 43 4a
        E 9 80 45 00
        E 209 90 45 42
        E 26 80 43 00
        E 242 90 4a 46
        E 3 80 45 00
        E 223 80 4a 00
        E 13 90 4c 3f
        E 243 90 4a 44
        E 7 80 4c 00
        E 217 90 45 3b
        E 9 80 4a 00
        E 262 80 45 00
        E 12 90 43 3e
        E 198 90 45 3a
        E 52 80 43 00
        E 212 90 4a 47
        E 6 80 45 00
        E 187 80 4a 00
        E 27 90 4c 41
        E 231 80 4c 00
        E 14 90 4a 44
        E 208 80 4a 00
        E 19 90 45 3e
        E 227 80 45 00
        E 8 90 43 41
        E 231 90 45 3e
        E 38 80 43 00
        E 211 90 4a 45
        E 5 80 45 00
        E 215 80 4a 00
        E 22 90 4c 48
        E 238 80 4c 00
        E 11 90 4a 42
        E 226 80 4a 00
        E 13 90 45 3e
        E 244 80 45 00
        E 1 90 43 46
        E 223 90 45 40
        E 14 80 43 00
        E 223 80 45 00
        E 16 90 4a 48
        E 203 80 4a 00
        E 17 90 4c 47
        E 233 80 4c 00
        E 9 90 4a 45
        E 245 80 4a 00
        E 16 90 45 46
        E 236 80 45 00
        E 5 90 43 41
        E 204 90 45 38
        E 67 80 43 00
        E 196 90 4a 47
        E 16 80 45 00
        E 200 80 4a 00
        E 5 90 4c 47
        E 246 80 4c 00
        E 10 90 4a 46
        E 212 80 4a 00
        E 24 90 45 3e
        E 250 90 43 46
        E 1 80 45 00
        E 221 90 45 3c
        E 18 80 43 00
        E 220 80 45 00
        E 11 90 4a 44
        E 212 80 4a 00
        E 15 90 4c 42
        E 262 80 4c 00
        E 11 90 4a 45
        E 225 80 4a 00
        E 4 90 45 42
        E 250 80 45 00
        E 5 90 43 44
        E 200 90 45 39
        E 41 80 43 00
        E 218 80 45 00
        E 8 90 4a 45
        E 211 80 4a 00
        E 25 90 4c 42
        E 253 80 4c 00
        E 14 90 4a 46
        E 227 80 4a 00
        E 13 90 45 42
        E 254 80 45 00
        E 5 90 43 45
        E 215 90 45 3c
        E 18 80 43 00
        E 240 80 45 00
        E 5 90 4a 46
        E 201 80 4a 00
        E 26 90 4c 3f
        E 216 80 4c 00
        E 20 90 4a 46
        E 220 80 4a 00
        E 9 90 45 3e
        E 240 80 45 00
        E 1 90 43 41
        E 229 90 45 3a
        E 24 80 43 00
        E 214 80 45 00
        E 7 90 4a 45
        E 207 80 4a 00
        E 17 90 4c 42
        E 240 80 4c 00
        E 9 90 4a 45
        E 223 80 4a 00
        E 7 90 45 42
        E 257 90 43 45
        E 2 80 45 00
        E 229 90 45 40
        E 32 80 43 00
        E 206 80 45 00
        E 4 90 4a 47
        E 213 80 4a 00
        E 14 90 4c 41
        E 238 80 4c 00
        E 17 90 4a 44
        E 234 80 4a 00
        E 10 90 45 42
        E 238 90 43 43
        E 7 80 45 00
        E 223 90 45 3f
        E 28 80 43 00
        E 230 80 45 00
        E 3 90 4a 47
        E 203 80 4a 00
        E 13 90 4c 42
        E 213 80 4c 00
        E 13 90 4a 40
        E 205 80 4a 00
        E 23 90 45 41
        E 241 80 45 00
        E 8 90 43 43
        E 302 80 43 00
        E 247 b0 7b 00
        CCINTERP 32
        CHASE_CC_TAKEOFFS 1
        GUID {22A681EF-0961-4E4D-8568-47182168DDDA}
        IGNTEMPO 0 120 4 4
        SRCCOLOR 68
        VELLANE -1 100 0
        VELLANE 64 100 0
      >
    >
    <ITEM
      POSITION 18.6634375
      SNAPOFFS 0
      LENGTH 4.33066666666667
      LOOP 1
      ALLTAKES 0
      FADEIN 1 0.01 0 1 0 0 0
      FADEOUT 1 0.01 0 1 0 0 0
      MUTE 0 0
      SEL 0
      IGUID {0FFEABC0-8EBE-F548-AD09-DCA58F29C249}
      IID 26
      VOLPAN 1
      TAKE SEL
      NAME "02-Recorded MIDI"
      TAKEVOLPAN 0 1 -1
      SOFFS 18.6634375 18.6634375
      PLAYRATE 1 1 0 -1 0 0.0025
      CHANMODE 0
      TAKECOLOR 25022450 B
      GUID {CC6294D4-0450-A54A-9405-E677C0EBBA5A}
      RECPASS 9
      <SOURCE MIDI
        HASDATA 1 960 QN
        CCINTERP 32
        POOLEDEVTS {47C86332-9F2F-F240-83BC-6FC618FDB67D}
        E 4285 90 43 3e
        E 207 90 45 45
        E 8 80 43 00
        E 275 90 4a 47
        E 13 80 45 00
        E 196 80 4a 00
        E 7 90 4c 47
        E 255 90 4a 4c
        E 3 80 4c 00
        E 228 90 45 44
        E 14 80 4a 00
        E 229 90 43 4a
        E 9 80 45 00
        E 209 90 45 42
        E 26 80 43 00
        E 242 90 4a 46
        E 3 80 45 00
        E 223 80 4a 00
        E 13 90 4c 3f
        E 243 90 4a 44
        E 7 80 4c 00
        E 217 90 45 3b
        E 9 80 4a 00
        E 262 80 45 00
        E 12 90 43 3e
        E 198 90 45 3a
        E 52 80 43 00
        E 212 90 4a 47
        E 6 80 45 00
        E 187 80 4a 00
        E 27 90 4c 41
        E 231 80 4c 00
        E 14 90 4a 44
        E 208 80 4a 00
        E 19 90 45 3e
        E 227 80 45 00
        E 8 90 43 41
        E 231 90 45 3e
        E 38 80 43 00
        E 211 90 4a 45
        E 5 80 45 00
        E 215 80 4a 00
        E 22 90 4c 48
        E 238 80 4c 00
        E 11 90 4a 42
        E 226 80 4a 00
        E 13 90 45 3e
        E 244 80 45 00
        E 1 90 43 46
        E 223 90 45 40
        E 14 80 43 00
        E 223 80 45 00
        E 16 90 4a 48
        E 203 80 4a 00
        E 17 90 4c 47
        E 233 80 4c 00
        E 9 90 4a 45
        E 245 80 4a 00
        E 16 90 45 46
        E 236 80 45 00
        E 5 90 43 41
        E 204 90 45 38
        E 67 80 43 00
        E 196 90 4a 47
        E 16 80 45 00
        E 200 80 4a 00
        E 5 90 4c 47
        E 246 80 4c 00
        E 10 90 4a 46
        E 212 80 4a 00
        E 24 90 45 3e
        E 250 90 43 46
        E 1 80 45 00
        E 221 90 45 3c
        E 18 80 43 00
        E 220 80 45 00
        E 11 90 4a 44
        E 212 80 4a 00
        E 15 90 4c 42
        E 262 80 4c 00
        E 11 90 4a 45
        E 225 80 4a 00
        E 4 90 45 42
        E 250 80 45 00
        E 5 90 43 44
        E 200 90 45 39
        E 41 80 43 00
        E 218 80 45 00
        E 8 90 4a 45
        E 211 80 4a 00
        E 25 90 4c 42
        E 253 80 4c 00
        E 14 90 4a 46
        E 227 80 4a 00
        E 13 90 45 42
        E 254 80 45 00
        E 5 90 43 45
        E 215 90 45 3c
        E 18 80 43 00
        E 240 80 45 00
        E 5 90 4a 46
        E 201 80 4a 00
        E 26 90 4c 3f
        E 216 80 4c 00
        E 20 90 4a 46
        E 220 80 4a 00
        E 9 90 45 3e
        E 240 80 45 00
        E 1 90 43 41
        E 229 90 45 3a
        E 24 80 43 00
        E 214 80 45 00
        E 7 90 4a 45
        E 207 80 4a 00
        E 17 90 4c 42
        E 240 80 4c 00
        E 9 90 4a 45
        E 223 80 4a 00
        E 7 90 45 42
        E 257 90 43 45
        E 2 80 45 00
        E 229 90 45 40
        E 32 80 43 00
        E 206 80 45 00
        E 4 90 4a 47
        E 213 80 4a 00
        E 14 90 4c 41
        E 238 80 4c 00
        E 17 90 4a 44
        E 234 80 4a 00
        E 10 90 45 42
        E 238 90 43 43
        E 7 80 45 00
        E 223 90 45 3f
        E 28 80 43 00
        E 230 80 45 00
        E 3 90 4a 47
        E 203 80 4a 00
        E 13 90 4c 42
        E 213 80 4c 00
        E 13 90 4a 40
        E 205 80 4a 00
        E 23 90 45 41
        E 241 80 45 00
        E 8 90 43 43
        E 302 80 43 00
        E 247 b0 7b 00
        CCINTERP 32
        CHASE_CC_TAKEOFFS 1
        GUID {19873A29-C257-CD4F-8F1B-3FFADB9FAC67}
        IGNTEMPO 0 120 4 4
        SRCCOLOR 69
        VELLANE -1 100 0
        VELLANE 64 100 0
      >
    >
    <ITEM
      POSITION 36
      SNAPOFFS 0
      LENGTH 43.60210416666666
      LOOP 1
      ALLTAKES 0
      FADEIN 1 0 0 1 0 0 0
      FADEOUT 1 0 0 1 0 0 0
      MUTE 0 0
      SEL 0
      IGUID {ED1ED458-32F4-174E-9AE8-231909269F67}
      IID 27
      NAME "02-Recorded MIDI"
      VOLPAN 1 0 1 -1
      SOFFS 0 0
      PLAYRATE 1 1 0 -1 0 0.0025
      CHANMODE 0
      GUID {500C006A-6EFE-C440-9F02-0263377118A2}
      RECPASS 10
      <SOURCE MIDI
        HASDATA 1 960 QN
        CCINTERP 32
        POOLEDEVTS {35C74856-5AF2-684B-95B3-4217F3099C71}
        E 3829 90 42 3f
        E 682 90 45 3c
        E 4 80 42 00
        E 708 90 43 45
        E 23 80 45 00
        E 667 90 47 3e
        E 32 80 43 00
        E 720 80 47 00
        E 7 90 45 48
        E 424 80 45 00
        E 32 90 43 42
        E 484 90 45 44
        E 20 80 43 00
        E 729 90 43 44
        E 8 80 45 00
        E 780 90 42 45
        E 48 80 43 00
        E 2823 80 42 00
        E 948 90 43 46
        E 449 90 45 45
        E 1 80 43 00
        E 184 80 45 00
        E 287 90 4a 4e
        E 215 80 4a 00
        E 233 90 45 45
        E 269 90 47 3b
        E 1 80 45 00
        E 228 80 47 00
        E 202 90 4a 40
        E 176 80 4a 00
        E 304 90 4c 3f
        E 418 80 4c 00
        E 35 90 4a 40
        E 244 80 4a 00
        E 21 90 45 41
        E 200 80 45 00
        E 10 90 43 36
        E 252 90 47 47
        E 15 80 43 00
        E 495 80 47 00
        E 5 90 45 46
        E 340 80 45 00
        E 167 90 45 42
        E 336 80 45 00
        E 116 90 45 3c
        E 340 80 45 00
        E 170 90 45 3b
        E 230 80 45 00
        E 11 90 43 37
        E 321 80 43 00
        E 131 90 45 43
        E 390 80 45 00
        E 127 90 47 41
        E 493 90 45 46
        E 8 80 47 00
        E 419 80 45 00
        E 27 90 43 33
        E 217 90 45 3d
        E 7 80 43 00
        E 207 80 45 00
        E 68 90 4c 09
        E 430 80 4c 00
        E 20 90 4a 35
        E 310 80 4a 00
        E 185 90 45 45
        E 791 80 45 00
        E 1379 90 4a 3d
        E 1 90 42 39
        E 92 80 42 00
        E 27 80 4a 00
        E 321 90 42 2a
        E 6 90 4a 33
        E 70 80 42 00
        E 3 80 4a 00
        E 420 90 42 2d
        E 1 90 4a 3f
        E 63 80 4a 00
        E 32 80 42 00
        E 376 90 42 2d
        E 6 90 4a 3b
        E 86 80 42 00
        E 3 80 4a 00
        E 369 90 42 2e
        E 18 90 4a 33
        E 84 80 4a 00
        E 15 80 42 00
        E 371 90 42 2b
        E 10 90 4a 37
        E 76 80 4a 00
        E 41 80 42 00
        E 376 90 42 2d
        E 7 90 4a 3b
        E 134 80 42 00
        E 13 80 4a 00
        E 315 90 42 2b
        E 17 90 4a 37
        E 96 80 4a 00
        E 15 80 42 00
        E 342 90 42 2d
        E 9 90 4a 34
        E 98 80 42 00
        E 17 80 4a 00
        E 372 90 42 34
        E 16 90 4a 39
        E 97 80 42 00
        E 24 80 4a 00
        E 340 90 42 2b
        E 2 90 4a 3b
        E 97 80 42 00
        E 21 80 4a 00
        E 348 90 42 28
        E 21 90 4a 35
        E 76 80 4a 00
        E 46 80 42 00
        E 342 90 42 34
        E 5 90 4a 3f
        E 156 80 42 00
        E 9 80 4a 00
        E 331 90 4a 34
        E 3 90 42 26
        E 84 80 42 00
        E 9 80 4a 00
        E 361 90 42 2b
        E 15 90 4a 2b
        E 63 80 4a 00
        E 10 80 42 00
        E 380 90 42 2e
        E 12 90 4a 32
        E 79 80 4a 00
        E 18 80 42 00
        E 368 90 42 2e
        E 10 90 4a 31
        E 91 80 4a 00
        E 12 80 42 00
        E 347 90 42 29
        E 12 90 4a 33
        E 118 80 4a 00
        E 5 80 42 00
        E 380 90 42 30
        E 4 90 4a 32
        E 110 80 4a 00
        E 1 80 42 00
        E 373 90 4a 3c
        E 5 90 42 34
        E 117 80 42 00
        E 1 80 4a 00
        E 347 90 4a 3b
        E 12 90 42 33
        E 64 80 4a 00
        E 43 80 42 00
        E 360 90 4c 48
        E 2 90 42 43
        E 357 80 42 00
        E 62 80 4c 00
        E 76 90 42 39
        E 10 90 4a 43
        E 106 80 42 00
        E 29 80 4a 00
        E 364 90 42 3a
        E 3 90 4a 43
        E 98 80 42 00
        E 14 80 4a 00
        E 357 90 42 34
        E 6 90 4a 3b
        E 51 80 4a 00
        E 13 80 42 00
        E 392 90 42 31
        E 4 90 4a 3c
        E 56 80 4a 00
        E 10 80 42 00
        E 383 90 42 38
        E 14 90 4a 3e
        E 93 80 42 00
        E 11 80 4a 00
        E 391 90 42 29
        E 14 90 4a 2b
        E 49 80 42 00
        E 9 80 4a 00
        E 398 90 42 3d
        E 10 90 4a 41
        E 82 80 4a 00
        E 5 80 42 00
        E 374 90 42 3a
        E 8 90 4a 41
        E 71 80 42 00
        E 36 80 4a 00
        E 370 90 4c 49
        E 1 90 42 40
        E 223 80 42 00
        E 3 80 4c 00
        E 290 90 4e 44
        E 29 90 45 40
        E 98 80 45 00
        E 27 80 4e 00
        E 336 90 4e 3e
        E 7 90 45 41
        E 117 80 45 00
        E 51 80 4e 00
        E 293 90 45 3d
        E 13 90 4e 3b
        E 114 80 45 00
        E 43 80 4e 00
        E 387 90 4e 3d
        E 21 90 45 3a
        E 77 80 45 00
        E 69 80 4e 00
        E 832 b0 7b 00
        CCINTERP 32
        CHASE_CC_TAKEOFFS 1
        GUID {A4D2DEA3-295C-9449-98A5-E3EEA085FFD8}
        IGNTEMPO 0 120 4 4
        SRCCOLOR 72
        VELLANE -1 100 0
        VELLANE 64 100 0
      >
    >
    <ITEM
      POSITION 90
      SNAPOFFS 0
      LENGTH 9.82077083333333
      LOOP 1
      ALLTAKES 0
      FADEIN 1 0 0 1 0 0 0
      FADEOUT 1 0 0 1 0 0 0
      MUTE 0 0
      SEL 0
      IGUID {C5977822-FD21-174A-BFC3-5FB4395DC922}
      IID 28
      NAME "02-Recorded MIDI"
      VOLPAN 1 0 1 -1
      SOFFS 0 0
      PLAYRATE 1 1 0 -1 0 0.0025
      CHANMODE 0
      GUID {BDD0EF3B-E3F5-CF4D-BA16-9E283426F256}
      RECPASS 11
      <SOURCE MIDI
        HASDATA 1 960 QN
        CCINTERP 32
        POOLEDEVTS {83AEA101-FA6A-C44B-8F21-5AFA23159958}
        E 4288 90 4a 48
        E 5 90 45 37
        E 95 80 45 00
        E 2 80 4a 00
        E 860 90 45 3c
        E 3 90 4a 45
        E 101 80 45 00
        E 18 80 4a 00
        E 863 90 45 3d
        E 3 90 4a 4b
        E 97 80 45 00
        E 3 80 4a 00
        E 873 90 45 31
        E 3 90 4a 4a
        E 114 80 45 00
        E 1 80 4a 00
        E 840 90 45 3b
        E 1 90 4a 4b
        E 115 80 4a 00
        E 7 80 45 00
        E 1136 b0 7b 00
        CCINTERP 32
        CHASE_CC_TAKEOFFS 1
        GUID {05AAE415-BEF2-E046-82E6-A888948D32B6}
        IGNTEMPO 0 120 4 4
        SRCCOLOR 75
        VELLANE -1 100 0
        VELLANE 64 100 0
      >
      TAKE SEL
      NAME "02-Recorded MIDI"
      TAKEVOLPAN 0 1 -1
      SOFFS 0 0
      PLAYRATE 1 1 0 -1 0 0.0025
      CHANMODE 0
      TAKECOLOR 18704820 B
      GUID {2A33519A-DAB8-F04B-B8CE-18FD82636C53}
      RECPASS 12
      <SOURCE MIDI
        HASDATA 1 960 QN
        CCINTERP 32
        POOLEDEVTS {DFF8F9DB-1907-9246-B787-B1E1D1A5EF1E}
        E 4313 90 4a 3e
        E 7 90 45 28
        E 98 80 4a 00
        E 15 80 45 00
        E 363 90 4a 41
        E 2 90 45 21
        E 69 80 4a 00
        E 41 80 45 00
        E 314 90 45 27
        E 10 90 4a 42
        E 83 80 4a 00
        E 32 80 45 00
        E 343 90 45 2f
        E 12 90 4a 41
        E 106 80 4a 00
        E 7 80 45 00
        E 353 90 45 2c
        E 11 90 4a 40
        E 122 80 45 00
        E 12 80 4a 00
        E 340 90 45 2a
        E 3 90 4a 40
        E 135 80 4a 00
        E 8 80 45 00
        E 345 90 4a 42
        E 1 90 45 29
        E 134 80 4a 00
        E 13 80 45 00
        E 325 90 45 2b
        E 12 90 4a 42
        E 147 80 4a 00
        E 3 80 45 00
        E 330 90 45 30
        E 3 90 4a 40
        E 134 80 4a 00
        E 3 80 45 00
        E 342 90 45 26
        E 6 90 4a 41
        E 135 80 4a 00
        E 12 80 45 00
        E 321 90 45 30
        E 5 90 4a 3f
        E 138 80 4a 00
        E 22 80 45 00
        E 338 90 45 2d
        E 1 90 4a 3f
        E 125 80 4a 00
        E 4 80 45 00
        E 327 90 45 31
        E 10 90 4c 36
        E 140 80 45 00
        E 22 80 4c 00
        E 306 90 45 2f
        E 9 90 4c 2e
        E 134 80 45 00
        E 22 80 4c 00
        E 311 90 4c 41
        E 14 90 45 35
        E 85 80 4c 00
        E 51 80 45 00
        E 331 90 45 3f
        E 4 90 4e 41
        E 112 80 45 00
        E 18 80 4e 00
        E 324 90 4e 40
        E 10 90 45 3a
        E 129 80 4e 00
        E 11 80 45 00
        E 343 90 4e 43
        E 5 90 45 41
        E 112 80 4e 00
        E 3 80 45 00
        E 391 90 45 31
        E 8 90 4a 48
        E 113 80 45 00
        E 2 80 4a 00
        E 342 90 45 34
        E 10 90 4a 46
        E 112 80 45 00
        E 3 80 4a 00
        E 356 90 45 36
        E 5 90 4a 48
        E 113 80 45 00
        E 17 80 4a 00
        E 340 90 45 3a
        E 16 90 4c 46
        E 128 80 45 00
        E 3 80 4c 00
        E 341 90 45 32
        E 4 90 4c 40
        E 130 80 4c 00
        E 2 80 45 00
        E 343 90 45 34
        E 3 90 4c 41
        E 120 80 45 00
        E 10 80 4c 00
        E 334 90 45 3b
        E 1 90 4e 42
        E 118 80 45 00
        E 3 80 4e 00
        E 357 90 45 3c
        E 7 90 4e 40
        E 108 80 45 00
        E 3 80 4e 00
        E 374 90 45 3b
        E 9 90 4e 3d
        E 116 80 4e 00
        E 4 80 45 00
        E 367 90 45 2f
        E 19 90 4a 43
        E 110 80 45 00
        E 8 80 4a 00
        E 348 90 4a 47
        E 2 90 45 37
        E 135 80 4a 00
        E 4 80 45 00
        E 333 90 45 38
        E 1 90 4a 49
        E 123 80 45 00
        E 37 80 4a 00
        E 291 90 45 3b
        E 21 90 4c 42
        E 117 80 45 00
        E 16 80 4c 00
        E 342 90 45 38
        E 5 90 4c 46
        E 123 80 45 00
        E 1 80 4c 00
        E 354 90 45 3e
        E 7 90 4c 47
        E 110 80 45 00
        E 1 80 4c 00
        E 349 90 4e 45
        E 4 90 45 3d
        E 105 80 45 00
        E 1 80 4e 00
        E 365 90 45 3f
        E 4 90 4e 43
        E 106 80 45 00
        E 5 80 4e 00
        E 364 90 4e 40
        E 1 90 45 3a
        E 110 80 45 00
        E 11 80 4e 00
        E 358 90 45 32
        E 0 90 4a 48
        E 120 80 4a 00
        E 12 80 45 00
        E 355 90 45 2e
        E 5 90 4a 48
        E 125 80 4a 00
        E 5 80 45 00
        E 349 90 4a 48
        E 1 90 45 36
        E 133 80 45 00
        E 15 80 4a 00
        E 332 90 45 3c
        E 5 90 4c 4a
        E 136 80 4c 00
        E 4 80 45 00
        E 333 90 45 39
        E 7 90 4c 46
        E 142 80 4c 00
        E 2 80 45 00
        E 337 90 45 3d
        E 3 90 4c 47
        E 120 80 4c 00
        E 11 80 45 00
        E 335 90 45 3d
        E 4 90 4e 45
        E 123 80 45 00
        E 9 80 4e 00
        E 351 90 45 3b
        E 7 90 4e 3f
        E 123 80 4e 00
        E 6 80 45 00
        E 335 90 45 39
        E 6 90 4e 3d
        E 127 80 45 00
        E 9 80 4e 00
        E 339 90 45 3d
        E 5 90 4f 43
        E 159 80 45 00
        E 14 80 4f 00
        E 317 90 45 35
        E 6 90 4f 31
        E 150 80 45 00
        E 7 80 4f 00
        E 309 90 45 39
        E 8 90 4f 3b
        E 134 80 45 00
        E 10 80 4f 00
        E 316 90 45 3b
        E 8 90 4e 3f
        E 147 80 45 00
        E 7 80 4e 00
        E 317 90 45 33
        E 2 90 4e 3a
        E 147 80 45 00
        E 9 80 4e 00
        E 336 90 45 38
        E 5 90 4e 3e
        E 121 80 45 00
        E 1 80 4e 00
        E 344 90 45 32
        E 10 90 4c 43
        E 153 80 45 00
        E 7 80 4c 00
        E 327 90 45 2d
        E 8 90 4c 42
        E 158 80 45 00
        E 18 80 4c 00
        E 291 90 45 2e
        E 2 90 4c 43
        E 126 80 45 00
        E 1 80 4c 00
        E 352 90 45 3c
        E 1 90 4e 44
        E 161 80 4e 00
        E 3 80 45 00
        E 318 90 45 33
        E 3 90 4e 3f
        E 122 80 4e 00
        E 23 80 45 00
        E 334 90 45 36
        E 7 90 4e 40
        E 126 80 4e 00
        E 10 80 45 00
        E 344 90 45 34
        E 3 90 4a 47
        E 140 80 45 00
        E 24 80 4a 00
        E 325 90 4a 43
        E 8 90 45 23
        E 119 80 45 00
        E 11 80 4a 00
        E 354 90 45 31
        E 5 90 4a 47
        E 129 80 4a 00
        E 10 80 45 00
        E 307 90 45 2c
        E 1 90 4a 48
        E 140 80 45 00
        E 4 80 4a 00
        E 340 90 4a 40
        E 2 90 45 28
        E 122 80 4a 00
        E 1 80 45 00
        E 359 90 4a 41
        E 1 90 45 23
        E 117 80 4a 00
        E 8 80 45 00
        E 340 90 45 2d
        E 1 90 4a 46
        E 125 80 4a 00
        E 6 80 45 00
        E 348 90 4a 45
        E 4 90 45 2b
        E 130 80 45 00
        E 4 80 4a 00
        E 336 90 45 32
        E 3 90 4a 4a
        E 110 80 45 00
        E 21 80 4a 00
        E 337 90 45 36
        E 15 90 4c 42
        E 134 80 45 00
        E 4 80 4c 00
        E 331 90 45 36
        E 14 90 4c 3f
        E 131 80 45 00
        E 6 80 4c 00
        E 333 90 45 37
        E 7 90 4c 46
        E 121 80 4c 00
        E 2 80 45 00
        E 342 90 45 3b
        E 1 90 4e 44
        E 111 80 4e 00
        E 26 80 45 00
        E 341 90 45 3a
        E 1 90 4e 40
        E 112 80 4e 00
        E 9 80 45 00
        E 370 90 45 3e
        E 7 90 4e 43
        E 103 80 45 00
        E 8 80 4e 00
        E 358 90 4a 49
        E 1 90 45 33
        E 132 80 45 00
        E 4 80 4a 00
        E 334 90 45 2f
        E 5 90 4a 47
        E 128 80 45 00
        E 3 80 4a 00
        E 352 90 45 2c
        E 7 90 4a 48
        E 126 80 45 00
        E 27 80 4a 00
        E 310 90 45 35
        E 10 90 4c 42
        E 125 80 45 00
        E 14 80 4c 00
        E 337 90 45 30
        E 2 90 4c 42
        E 140 80 45 00
        E 4 80 4c 00
        E 346 90 45 2f
        E 3 90 4c 45
        E 128 80 4c 00
        E 1 80 45 00
        E 349 90 45 37
        E 3 90 4e 43
        E 130 80 4e 00
        E 8 80 45 00
        E 314 90 45 2c
        E 2 90 4e 3c
        E 138 80 4e 00
        E 12 80 45 00
        E 330 90 4e 3c
        E 1 90 45 2c
        E 139 80 45 00
        E 39 80 4e 00
        E 314 90 51 3e
        E 5 90 45 3b
        E 124 80 45 00
        E 65 80 51 00
        E 285 90 51 3f
        E 6 90 45 39
        E 132 80 51 00
        E 15 80 45 00
        E 340 90 4e 40
        E 1 90 45 31
        E 125 80 45 00
        E 28 80 4e 00
        E 320 90 45 28
        E 1 90 4c 3d
        E 164 80 45 00
        E 35 80 4c 00
        E 266 90 4c 3d
        E 14 90 45 1f
        E 138 80 4c 00
        E 1 80 45 00
        E 354 90 4e 45
        E 12 90 45 34
        E 118 80 45 00
        E 24 80 4e 00
        E 312 90 4a 4a
        E 3 90 45 33
        E 140 80 45 00
        E 2 80 4a 00
        E 331 90 45 36
        E 2 90 4a 47
        E 132 80 45 00
        E 46 80 4a 00
        E 313 90 45 39
        E 9 90 4c 45
        E 129 80 45 00
        E 26 80 4c 00
        E 318 90 4a 4d
        E 2 90 45 33
        E 132 80 4a 00
        E 7 80 45 00
        E 331 90 4a 47
        E 1 90 45 31
        E 136 80 4a 00
        E 29 80 45 00
        E 306 90 45 34
        E 6 90 4a 4a
        E 130 80 45 00
        E 47 80 4a 00
        E 289 90 45 34
        E 11 90 4c 43
        E 161 80 45 00
        E 2 80 4c 00
        E 317 90 45 37
        E 8 90 4c 45
        E 150 80 45 00
        E 8 80 4c 00
        E 312 90 45 37
        E 1 90 4c 42
        E 136 80 45 00
        E 10 80 4c 00
        E 334 90 45 3c
        E 2 90 4e 44
        E 123 80 4e 00
        E 9 80 45 00
        E 334 90 45 33
        E 8 90 4e 3e
        E 148 80 4e 00
        E 22 80 45 00
        E 292 90 45 2b
        E 4 90 4e 39
        E 141 80 45 00
        E 12 80 4e 00
        E 341 90 51 46
        E 3 90 4a 4b
        E 115 80 4a 00
        E 11 80 51 00
        E 358 90 4a 3e
        E 6 90 51 34
        E 3 90 45 39
        E 74 80 45 00
        E 12 80 51 00
        E 20 80 4a 00
        E 367 90 51 31
        E 3 90 4a 41
        E 2 90 45 29
        E 67 80 4a 00
        E 14 80 45 00
        E 15 80 51 00
        E 369 90 51 39
        E 1 90 45 31
        E 7 90 4a 41
        E 89 80 45 00
        E 3 80 51 00
        E 1 80 4a 00
        E 369 90 45 26
        E 2 90 4a 42
        E 1 90 51 2a
        E 107 80 45 00
        E 3 80 4a 00
        E 2 80 51 00
        E 381 90 51 2f
        E 11 90 4a 3f
        E 5 90 45 2c
        E 65 80 4a 00
        E 27 80 51 00
        E 2 80 45 00
        E 367 90 51 32
        E 8 90 4a 45
        E 2 90 45 31
        E 98 80 4a 00
        E 4 80 51 00
        E 7 80 45 00
        E 345 90 51 3a
        E 23 90 4a 3d
        E 1 90 45 2a
        E 70 80 4a 00
        E 39 80 51 00
        E 1 80 45 00
        E 357 90 45 38
        E 7 90 51 3b
        E 11 90 4a 43
        E 64 80 4a 00
        E 27 80 45 00
        E 5 80 51 00
        E 391 90 51 33
        E 2 90 4a 43
        E 2 90 45 2b
        E 95 80 51 00
        E 8 80 45 00
        E 1 80 4a 00
        E 348 90 4f 42
        E 7 90 4a 42
        E 4 90 45 29
        E 114 80 4a 00
        E 5 80 4f 00
        E 4 80 45 00
        E 347 90 4a 45
        E 10 90 45 26
        E 3 90 4f 3c
        E 80 80 45 00
        E 12 80 4a 00
        E 22 80 4f 00
        E 353 90 4f 3d
        E 1 90 4a 43
        E 1 90 45 2e
        E 80 80 4a 00
        E 12 80 45 00
        E 31 80 4f 00
        E 356 90 4a 3f
        E 4 90 4f 36
        E 8 90 45 1c
        E 84 80 4a 00
        E 21 80 45 00
        E 14 80 4f 00
        E 356 90 45 26
        E 1 90 4a 42
        E 12 90 4f 36
        E 82 80 4a 00
        E 14 80 4f 00
        E 18 80 45 00
        E 352 90 45 27
        E 6 90 4a 45
        E 6 90 4f 38
        E 80 80 4a 00
        E 25 80 45 00
        E 25 80 4f 00
        E 335 90 45 25
        E 1 90 4a 40
        E 14 90 4f 33
        E 106 80 4a 00
        E 26 80 45 00
        E 14 80 4f 00
        E 319 90 4a 40
        E 1 90 45 22
        E 1 90 4f 37
        E 105 80 4a 00
        E 12 80 45 00
        E 45 80 4f 00
        E 320 90 4a 44
        E 3 90 45 33
        E 5 90 4f 3c
        E 111 80 4a 00
        E 2 80 45 00
        E 40 80 4f 00
        E 311 90 51 31
        E 3 90 45 26
        E 1 90 4a 42
        E 74 80 4a 00
        E 26 80 45 00
        E 21 80 51 00
        E 367 90 4a 42
        E 4 90 51 30
        E 2 90 45 31
        E 97 80 4a 00
        E 2 80 51 00
        E 6 80 45 00
        E 384 90 51 3e
        E 9 90 45 2f
        E 3 90 4a 42
        E 88 80 51 00
        E 23 80 45 00
        E 3 80 4a 00
        E 327 90 45 29
        E 3 90 4e 3b
        E 19 90 4a 38
        E 44 80 4a 00
        E 47 80 45 00
        E 1 80 4e 00
        E 365 90 4e 3d
        E 6 90 4a 3b
        E 17 90 45 20
        E 81 80 4a 00
        E 14 80 4e 00
        E 11 80 45 00
        E 351 90 4e 42
        E 6 90 4a 44
        E 4 90 45 25
        E 96 80 4a 00
        E 17 80 4e 00
        E 9 80 45 00
        E 349 90 4e 42
        E 3 90 45 23
        E 6 90 4a 43
        E 77 80 4a 00
        E 30 80 45 00
        E 2 80 4e 00
        E 363 90 4e 3e
        E 2 90 45 26
        E 3 90 4a 42
        E 122 80 4a 00
        E 7 80 4e 00
        E 3 80 45 00
        E 348 90 4e 41
        E 5 90 45 26
        E 11 90 4a 41
        E 93 80 45 00
        E 16 80 4a 00
        E 19 80 4e 00
        E 335 90 4e 3c
        E 2 90 4a 3d
        E 3 90 45 21
        E 108 80 4a 00
        E 14 80 45 00
        E 12 80 4e 00
        E 370 90 45 1d
        E 1 90 4e 3d
        E 4 90 4a 40
        E 77 80 4a 00
        E 31 80 4e 00
        E 4 80 45 00
        E 355 90 45 23
        E 9 90 4e 3c
        E 4 90 4a 42
        E 101 80 4a 00
        E 22 80 45 00
        E 2 80 4e 00
        E 348 90 45 21
        E 1 90 4e 3c
        E 2 90 4a 3e
        E 113 80 4a 00
        E 1 80 45 00
        E 11 80 4e 00
        E 346 90 4e 3c
        E 5 90 45 20
        E 7 90 4a 3c
        E 61 80 4a 00
        E 30 80 45 00
        E 9 80 4e 00
        E 360 90 45 24
        E 3 90 4e 3e
        E 2 90 4a 41
        E 113 80 4a 00
        E 2 80 45 00
        E 11 80 4e 00
        E 342 90 4a 3d
        E 1 90 4e 39
        E 3 90 45 1e
        E 127 80 4a 00
        E 5 80 45 00
        E 7 80 4e 00
        E 323 90 4e 3d
        E 8 90 45 23
        E 3 90 4a 45
        E 83 80 4e 00
        E 16 80 4a 00
        E 5 80 45 00
        E 361 90 4a 48
        E 1 90 4c 49
        E 3 90 45 36
        E 129 80 4a 00
        E 24 80 4c 00
        E 46 80 45 00
        E 277 90 4e 48
        E 4 90 4a 44
        E 1 90 45 37
        E 117 80 4a 00
        E 11 80 45 00
        E 1 80 4e 00
        E 343 90 4f 44
        E 3 90 45 3a
        E 5 90 4a 47
        E 113 80 4f 00
        E 11 80 4a 00
        E 15 80 45 00
        E 335 90 4e 4c
        E 9 90 4a 49
        E 1 90 45 35
        E 119 80 4a 00
        E 14 80 4e 00
        E 17 80 45 00
        E 323 90 4a 3e
        E 5 90 45 24
        E 1 90 4e 39
        E 94 80 4a 00
        E 18 80 4e 00
        E 24 80 45 00
        E 343 90 4a 41
        E 4 90 45 28
        E 6 90 4e 33
        E 93 80 4a 00
        E 28 80 4e 00
        E 1 80 45 00
        E 370 90 45 2b
        E 2 90 4e 3c
        E 1 90 4a 40
        E 96 80 4a 00
        E 13 80 45 00
        E 6 80 4e 00
        E 346 90 4e 35
        E 2 90 4a 3d
        E 3 90 45 21
        E 103 80 4a 00
        E 2 80 45 00
        E 8 80 4e 00
        E 357 90 45 2a
        E 3 90 4a 3f
        E 1 90 4e 3e
        E 117 80 4a 00
        E 16 80 45 00
        E 18 80 4e 00
        E 318 90 4c 43
        E 3 90 45 29
        E 11 90 4a 43
        E 117 80 4a 00
        E 7 80 45 00
        E 10 80 4c 00
        E 325 90 4e 41
        E 8 90 4a 42
        E 20 90 45 18
        E 78 80 45 00
        E 25 80 4a 00
        E 12 80 4e 00
        E 335 90 4f 3e
        E 6 90 45 34
        E 2 90 4a 42
        E 122 80 45 00
        E 20 80 4f 00
        E 6 80 4a 00
        E 337 90 51 47
        E 10 90 45 3c
        E 5 90 4a 45
        E 160 80 45 00
        E 2 80 4a 00
        E 8 80 51 00
        E 313 90 45 26
        E 7 90 4a 41
        E 1 90 4f 3e
        E 109 80 4a 00
        E 47 80 4f 00
        E 0 80 45 00
        E 287 90 4e 45
        E 15 90 45 23
        E 22 90 4a 3f
        E 55 80 4a 00
        E 8 80 4e 00
        E 50 80 45 00
        E 338 90 45 33
        E 3 90 4c 47
        E 6 90 4a 48
        E 151 80 4c 00
        E 2 80 4a 00
        E 66 80 45 00
        E 268 90 45 38
        E 9 90 4e 44
        E 1 90 4a 3f
        E 44 80 4a 00
        E 54 80 45 00
        E 33 80 4e 00
        E 334 90 45 3c
        E 1 90 4a 49
        E 154 80 45 00
        E 12 80 4a 00
        E 323 90 45 37
        E 2 90 4c 47
        E 1 90 4a 42
        E 137 80 4a 00
        E 23 80 4c 00
        E 10 80 45 00
        E 293 90 45 2e
        E 1 90 4e 40
        E 14 90 4a 3e
        E 113 80 4a 00
        E 14 80 45 00
        E 17 80 4e 00
        E 324 90 4a 3f
        E 0 90 45 28
        E 1 90 4e 39
        E 130 80 4a 00
        E 2 80 45 00
        E 8 80 4e 00
        E 343 90 45 24
        E 3 90 4a 40
        E 2 90 4e 36
        E 136 80 4a 00
        E 10 80 45 00
        E 10 80 4e 00
        E 332 90 45 1c
        E 1 90 4e 2e
        E 1 90 4a 3d
        E 136 80 4a 00
        E 14 80 4e 00
        E 8 80 45 00
        E 312 90 4e 36
        E 6 90 45 1f
        E 1 90 4a 3f
        E 119 80 4a 00
        E 14 80 45 00
        E 16 80 4e 00
        E 310 90 45 2f
        E 13 90 4c 48
        E 1 90 4a 47
        E 184 80 4a 00
        E 13 80 4c 00
        E 6 80 45 00
        E 281 90 4a 42
        E 2 90 45 32
        E 7 90 4e 3f
        E 109 80 4a 00
        E 14 80 45 00
        E 7 80 4e 00
        E 340 90 4e 3a
        E 0 90 45 28
        E 2 90 4a 43
        E 123 80 4a 00
        E 21 80 4e 00
        E 3 80 45 00
        E 325 90 4e 45
        E 1 90 45 3a
        E 3 90 4a 4a
        E 116 80 4a 00
        E 6 80 45 00
        E 41 80 4e 00
        E 296 90 4c 3f
        E 6 90 4a 3b
        E 15 90 45 1e
        E 128 80 4a 00
        E 27 80 4c 00
        E 24 80 45 00
        E 293 90 45 21
        E 1 90 4c 42
        E 1 90 4a 44
        E 143 80 4a 00
        E 12 80 4c 00
        E 45 80 45 00
        E 279 90 45 2b
        E 3 90 4c 46
        E 5 90 4a 45
        E 286 80 4c 00
        E 19 80 45 00
        E 8 80 4a 00
        E 149 90 4a 3e
        E 5 90 45 33
        E 1 90 4e 43
        E 112 80 4a 00
        E 21 80 45 00
        E 24 80 4e 00
        E 313 90 4e 3f
        E 10 90 45 2e
        E 3 90 4a 43
        E 138 80 4a 00
        E 32 80 4e 00
        E 1 80 45 00
        E 315 90 4e 37
        E 1 90 45 25
        E 3 90 4a 40
        E 129 80 4a 00
        E 23 80 45 00
        E 6 80 4e 00
        E 330 90 4e 3a
        E 5 90 4a 3c
        E 3 90 45 22
        E 157 80 4a 00
        E 10 80 4e 00
        E 3 80 45 00
        E 288 90 45 26
        E 4 90 4a 3f
        E 3 90 4e 3c
        E 131 80 4a 00
        E 8 80 45 00
        E 14 80 4e 00
        E 312 90 4f 47
        E 5 90 4a 48
        E 2 90 45 3b
        E 308 80 45 00
        E 60 80 4a 00
        E 2 80 4f 00
        E 107 90 4a 3b
        E 3 90 4e 46
        E 14 90 45 28
        E 210 80 45 00
        E 15 80 4e 00
        E 12 80 4a 00
        E 233 90 51 45
        E 4 90 45 3f
        E 3 90 4a 46
        E 137 80 51 00
        E 29 80 45 00
        E 32 80 4a 00
        E 254 90 4f 44
        E 11 90 4a 3a
        E 9 90 45 27
        E 162 80 4f 00
        E 23 80 45 00
        E 10 80 4a 00
        E 288 90 4e 3e
        E 1 90 4a 3e
        E 1 90 45 2e
        E 118 80 4a 00
        E 17 80 45 00
        E 50 80 4e 00
        E 269 90 45 2d
        E 8 90 4c 45
        E 6 90 4a 3d
        E 112 80 4a 00
        E 12 80 45 00
        E 54 80 4c 00
        E 298 90 4c 3e
        E 2 90 4a 47
        E 5 90 45 33
        E 239 80 45 00
        E 61 80 4a 00
        E 67 80 4c 00
        E 94 90 4a 3b
        E 4 90 45 36
        E 3 90 4e 48
        E 114 80 4a 00
        E 7 80 45 00
        E 33 80 4e 00
        E 310 90 4a 42
        E 7 90 4e 39
        E 4 90 45 2b
        E 99 80 4a 00
        E 18 80 4e 00
        E 5 80 45 00
        E 361 90 4a 43
        E 1 90 4e 39
        E 2 90 45 21
        E 117 80 4a 00
        E 41 80 45 00
        E 6 80 4e 00
        E 317 90 4e 36
        E 3 90 4a 3e
        E 5 90 45 1e
        E 108 80 4a 00
        E 27 80 4e 00
        E 2 80 45 00
        E 353 90 4e 36
        E 6 90 4a 3b
        E 12 90 45 20
        E 101 80 4a 00
        E 27 80 45 00
        E 14 80 4e 00
        E 316 90 4e 38
        E 9 90 4a 40
        E 6 90 45 22
        E 124 80 4a 00
        E 21 80 45 00
        E 9 80 4e 00
        E 311 90 4e 2a
        E 12 90 4a 39
        E 4 90 45 1b
        E 106 80 4a 00
        E 15 80 45 00
        E 24 80 4e 00
        E 323 90 4e 2d
        E 8 90 4a 3e
        E 6 90 45 1b
        E 127 80 4a 00
        E 23 80 45 00
        E 7 80 4e 00
        E 311 90 4e 35
        E 9 90 4a 3c
        E 4 90 45 1e
        E 119 80 4a 00
        E 14 80 45 00
        E 10 80 4e 00
        E 312 90 4e 31
        E 6 90 4a 3c
        E 3 90 45 1d
        E 143 80 4a 00
        E 18 80 45 00
        E 0 80 4e 00
        E 328 90 4e 34
        E 8 90 4a 3e
        E 2 90 45 21
        E 126 80 4a 00
        E 14 80 45 00
        E 12 80 4e 00
        E 320 90 4e 37
        E 3 90 45 22
        E 10 90 4a 3a
        E 166 80 4e 00
        E 64 90 4f 33
        E 2 80 4a 00
        E 4 80 45 00
        E 127 80 4f 00
        E 92 90 4e 3f
        E 37 90 4a 2c
        E 120 80 4e 00
        E 59 90 4f 31
        E 4 80 4a 00
        E 192 80 4f 00
        E 63 90 4e 49
        E 27 90 45 28
        E 8 90 4a 35
        E 100 80 45 00
        E 32 80 4a 00
        E 19 80 4e 00
        E 58 90 4f 40
        E 132 80 4f 00
        E 97 90 4e 48
        E 13 90 4a 41
        E 7 90 45 33
        E 113 80 45 00
        E 34 80 4e 00
        E 11 80 4a 00
        E 76 90 4f 41
        E 208 80 4f 00
        E 25 90 4e 47
        E 3 90 4a 41
        E 20 90 45 23
        E 116 80 4a 00
        E 6 80 45 00
        E 21 80 4e 00
        E 96 90 4f 3a
        E 200 80 4f 00
        E 23 90 4a 41
        E 3 90 4e 45
        E 7 90 45 29
        E 63 80 45 00
        E 70 80 4a 00
        E 25 80 4e 00
        E 82 90 4f 47
        E 188 80 4f 00
        E 50 90 4a 47
        E 11 90 4e 46
        E 0 90 45 2f
        E 91 80 45 00
        E 56 80 4a 00
        E 38 80 4e 00
        E 49 90 4f 48
        E 227 80 4f 00
        E 12 90 4a 48
        E 11 90 4e 44
        E 10 90 45 2b
        E 62 80 45 00
        E 95 80 4a 00
        E 10 80 4e 00
        E 41 90 4f 45
        E 246 80 4f 00
        E 5 90 4a 47
        E 8 90 4e 46
        E 11 90 45 31
        E 75 80 45 00
        E 62 80 4a 00
        E 31 80 4e 00
        E 43 90 4f 46
        E 172 80 4f 00
        E 80 90 4a 49
        E 2 90 4e 48
        E 4 90 45 3b
        E 95 80 45 00
        E 32 80 4a 00
        E 51 80 4e 00
        E 41 90 4f 43
        E 230 80 4f 00
        E 19 90 4a 45
        E 4 90 4e 47
        E 17 90 45 34
        E 83 80 45 00
        E 63 80 4e 00
        E 18 80 4a 00
        E 12 90 4f 49
        E 247 80 4f 00
        E 10 90 4e 48
        E 4 90 4a 44
        E 16 90 45 2d
        E 120 80 45 00
        E 26 80 4a 00
        E 12 80 4e 00
        E 24 90 4f 44
        E 270 90 4e 4c
        E 6 90 4a 47
        E 3 90 45 3b
        E 5 80 4f 00
        E 67 80 45 00
        E 110 80 4a 00
        E 4 80 4e 00
        E 42 90 4f 4a
        E 257 90 4e 49
        E 1 90 4a 44
        E 14 80 4f 00
        E 1 90 45 2b
        E 96 80 45 00
        E 72 80 4a 00
        E 20 80 4e 00
        E 28 90 4f 47
        E 266 90 4e 4a
        E 5 90 4a 44
        E 1 80 4f 00
        E 10 90 45 32
        E 127 80 45 00
        E 40 80 4e 00
        E 14 80 4a 00
        E 21 90 4f 45
        E 259 90 4a 46
        E 3 90 4e 48
        E 9 80 4f 00
        E 6 90 45 33
        E 117 80 45 00
        E 59 80 4a 00
        E 23 80 4e 00
        E 12 90 4f 47
        E 232 80 4f 00
        E 8 90 4e 48
        E 4 90 4a 40
        E 21 90 45 28
        E 93 80 45 00
        E 61 80 4a 00
        E 25 80 4e 00
        E 23 90 4f 4a
        E 256 90 4e 48
        E 5 90 4a 44
        E 7 80 4f 00
        E 12 90 45 2c
        E 95 80 45 00
        E 57 80 4a 00
        E 31 80 4e 00
        E 26 90 4f 48
        E 268 90 4e 4b
        E 8 90 45 3b
        E 1 90 4a 44
        E 9 80 4f 00
        E 119 80 45 00
        E 41 80 4a 00
        E 19 80 4e 00
        E 19 90 4f 46
        E 260 80 4f 00
        E 1 90 4e 48
        E 4 90 4a 42
        E 15 90 45 33
        E 134 80 45 00
        E 53 80 4a 00
        E 10 80 4e 00
        E 4 90 4f 4b
        E 252 90 4e 4a
        E 8 80 4f 00
        E 2 90 4a 3f
        E 20 90 45 23
        E 74 80 45 00
        E 120 80 4e 00
        E 24 90 4f 48
        E 36 80 4a 00
        E 80 80 4f 00
        E 157 90 45 36
        E 3 90 51 48
        E 2 90 53 40
        E 21 90 4a 1f
        E 20 80 45 00
        E 63 80 53 00
        E 31 80 51 00
        E 36 80 4a 00
        E 51 90 4f 3b
        E 199 80 4f 00
        E 51 90 45 35
        E 7 90 4e 47
        E 37 90 4a 08
        E 69 80 4a 00
        E 54 80 45 00
        E 66 80 4e 00
        E 18 90 4f 43
        E 172 80 4f 00
        E 56 90 4e 45
        E 2 90 45 44
        E 22 90 4a 43
        E 62 80 4a 00
        E 23 80 45 00
        E 69 80 4e 00
        E 80 90 4f 38
        E 190 80 4f 00
        E 24 90 4a 46
        E 2 90 4e 42
        E 1 90 45 39
        E 103 80 45 00
        E 44 80 4a 00
        E 10 80 4e 00
        E 20 90 4f 3a
        E 263 80 4f 00
        E 3 90 4a 47
        E 5 90 45 31
        E 3 90 4e 44
        E 113 80 45 00
        E 31 80 4a 00
        E 54 80 4e 00
        E 38 90 4f 3b
        E 233 80 4f 00
        E 2 90 4e 4b
        E 4 90 4a 45
        E 4 90 45 24
        E 48 80 4a 00
        E 32 80 45 00
        E 154 90 4f 47
        E 12 80 4e 00
        E 204 80 4f 00
        E 28 90 51 4c
        E 6 90 45 42
        E 22 90 4a 40
        E 126 80 51 00
        E 56 90 4f 3c
        E 71 80 4a 00
        E 4 80 45 00
        E 121 80 4f 00
        E 71 90 4e 44
        E 15 90 4a 31
        E 5 90 45 32
        E 120 80 45 00
        E 41 80 4a 00
        E 15 80 4e 00
        E 20 90 4f 3e
        E 258 80 4f 00
        E 6 90 4e 44
        E 7 90 4a 47
        E 10 90 45 33
        E 150 80 45 00
        E 6 80 4a 00
        E 29 80 4e 00
        E 27 90 4f 42
        E 244 80 4f 00
        E 3 90 4e 4b
        E 3 90 4a 4b
        E 2 90 45 3e
        E 186 80 45 00
        E 1 80 4a 00
        E 31 80 4e 00
        E 19 90 4f 42
        E 231 90 4e 49
        E 1 80 4f 00
        E 5 90 45 34
        E 14 90 4a 42
        E 149 80 45 00
        E 39 80 4a 00
        E 37 80 4e 00
        E 8 90 4f 42
        E 215 80 4f 00
        E 4 90 4e 46
        E 6 90 45 37
        E 7 90 4a 47
        E 135 80 45 00
        E 31 80 4a 00
        E 37 80 4e 00
        E 5 90 4f 41
        E 266 80 4f 00
        E 1 90 4a 47
        E 0 90 4e 45
        E 1 90 45 36
        E 147 80 45 00
        E 17 80 4a 00
        E 68 80 4e 00
        E 19 90 4f 3e
        E 241 80 4f 00
        E 1 90 4e 45
        E 18 90 4a 3e
        E 1 90 45 2e
        E 132 80 45 00
        E 32 80 4a 00
        E 44 80 4e 00
        E 19 90 4f 42
        E 241 80 4f 00
        E 7 90 4e 43
        E 6 90 4a 44
        E 9 90 45 32
        E 111 80 45 00
        E 51 80 4a 00
        E 37 80 4e 00
        E 19 90 4f 3f
        E 238 80 4f 00
        E 17 90 4e 46
        E 1 90 4a 49
        E 3 90 45 3d
        E 129 80 45 00
        E 57 80 4a 00
        E 41 90 4f 46
        E 1 80 4e 00
        E 197 80 4f 00
        E 47 90 4e 1f
        E 21 90 51 48
        E 26 80 4e 00
        E 132 80 51 00
        E 42 90 4f 41
        E 51 90 45 1b
        E 89 80 45 00
        E 117 80 4f 00
        E 8 90 4e 43
        E 20 90 4a 39
        E 22 90 45 23
        E 26 80 4a 00
        E 32 80 45 00
        E 72 80 4e 00
        E 99 90 4f 47
        E 211 80 4f 00
        E 1 90 4e 4b
        E 18 90 45 36
        E 45 90 4a 30
        E 163 80 4e 00
        E 14 90 4f 44
        E 1 80 4a 00
        E 30 80 45 00
        E 226 80 4f 00
        E 1 90 51 52
        E 72 80 51 00
        E 141 90 4f 3d
        E 228 80 4f 00
        E 4 90 4e 4b
        E 195 80 4e 00
        E 9 90 4f 45
        E 234 90 4e 4d
        E 2 80 4f 00
        E 228 90 4f 42
        E 14 80 4e 00
        E 228 80 4f 00
        E 7 90 51 4d
        E 240 90 4f 48
        E 2 80 51 00
        E 238 80 4f 00
        E 4 90 4e 4d
        E 235 90 4f 40
        E 7 80 4e 00
        E 242 80 4f 00
        E 8 90 4e 4a
        E 241 90 4f 42
        E 9 80 4e 00
        E 237 80 4f 00
        E 10 90 51 4b
        E 211 80 51 00
        E 15 90 4f 40
        E 240 90 4e 48
        E 22 80 4f 00
        E 217 80 4e 00
        E 6 90 4c 3c
        E 256 90 4a 4d
        E 6 80 4c 00
        E 200 80 4a 00
        E 4 90 4c 36
        E 249 90 4e 42
        E 67 80 4c 00
        E 166 80 4e 00
        E 17 90 4f 36
        E 236 90 4e 44
        E 26 80 4f 00
        E 209 80 4e 00
        E 12 90 4c 2b
        E 229 90 4a 49
        E 11 80 4c 00
        E 214 80 4a 00
        E 10 90 4c 25
        E 234 90 4e 3c
        E 44 80 4c 00
        E 193 80 4e 00
        E 26 90 4f 3b
        E 208 80 4f 00
        E 12 90 51 48
        E 234 80 51 00
        E 27 90 4f 3a
        E 236 90 4e 45
        E 17 80 4f 00
        E 242 90 4c 2f
        E 2 80 4e 00
        E 222 90 4e 3b
        E 22 80 4c 00
        E 208 90 4c 30
        E 22 80 4e 00
        E 205 90 4a 48
        E 13 80 4c 00
        E 214 80 4a 00
        E 13 90 4c 3a
        E 250 90 4a 4b
        E 3 80 4c 00
        E 210 90 48 41
        E 5 80 4a 00
        E 249 90 4a 42
        E 2 80 48 00
        E 247 90 49 42
        E 33 80 4a 00
        E 183 90 47 48
        E 12 80 49 00
        E 233 90 49 3c
        E 35 80 47 00
        E 227 90 4a 4b
        E 7 80 49 00
        E 215 80 4a 00
        E 14 90 4c 40
        E 235 90 4a 43
        E 4 80 4c 00
        E 188 90 49 3a
        E 14 80 4a 00
        E 231 80 49 00
        E 13 90 45 46
        E 221 90 47 3a
        E 10 80 45 00
        E 262 90 49 42
        E 38 80 47 00
        E 209 80 49 00
        E 9 90 4a 42
        E 238 90 49 3a
        E 1 80 4a 00
        E 247 90 47 3a
        E 5 80 49 00
        E 246 90 4c 42
        E 6 80 47 00
        E 218 80 4c 00
        E 11 90 4a 41
        E 249 80 4a 00
        E 3 90 49 47
        E 225 80 49 00
        E 24 90 4c 43
        E 227 80 4c 00
        E 6 90 4d 3c
        E 180 80 4d 00
        E 298 90 51 2e
        E 8 90 4f 2d
        E 55 80 4f 00
        E 87 80 51 00
        E 366 90 4e 4d
        E 97 80 4e 00
        E 357 90 4a 4e
        E 106 80 4a 00
        E 372 90 4c 4b
        E 500 90 4a 4e
        E 13 80 4c 00
        E 111 80 4a 00
        E 334 90 45 3e
        E 292 80 45 00
        E 227 90 4a 4b
        E 976 90 45 2c
        E 12 80 4a 00
        E 252 80 45 00
        E 199 90 4a 4f
        E 215 80 4a 00
        E 4 90 4c 3a
        E 258 80 4c 00
        E 9 90 4e 43
        E 203 90 4a 28
        E 6 80 4e 00
        E 218 80 4a 00
        E 2 90 4c 36
        E 221 80 4c 00
        E 8 90 4e 34
        E 229 80 4e 00
        E 30 90 4a 48
        E 293 80 4a 00
        E 206 90 45 43
        E 472 90 4a 4b
        E 4 80 45 00
        E 455 80 4a 00
        E 12 90 4c 4c
        E 479 80 4c 00
        E 6 90 4e 44
        E 478 90 4c 49
        E 32 80 4e 00
        E 448 80 4c 00
        E 3 90 4a 46
        E 209 80 4a 00
        E 252 90 4f 4e
        E 700 90 4e 31
        E 59 80 4f 00
        E 197 90 4c 3b
        E 13 80 4e 00
        E 447 90 4e 54
        E 12 80 4c 00
        E 466 80 4e 00
        E 13 90 4c 42
        E 499 90 4a 4b
        E 36 80 4c 00
        E 455 90 4c 4c
        E 28 80 4a 00
        E 417 90 4e 45
        E 22 80 4c 00
        E 469 90 4f 4b
        E 4 80 4e 00
        E 449 80 4f 00
        E 20 90 51 47
        E 485 80 51 00
        E 9 90 4f 41
        E 509 90 4e 3e
        E 13 80 4f 00
        E 420 90 4c 44
        E 6 80 4e 00
        E 517 90 4e 40
        E 12 80 4c 00
        E 419 80 4e 00
        E 24 90 4a 42
        E 493 90 4c 47
        E 6 80 4a 00
        E 467 90 4e 42
        E 38 80 4c 00
        E 424 80 4e 00
        E 9 90 4f 3f
        E 441 80 4f 00
        E 31 90 51 44
        E 447 80 51 00
        E 19 90 4f 38
        E 501 90 4e 3b
        E 2 80 4f 00
        E 453 80 4e 00
        E 41 90 4a 41
        E 504 90 4c 31
        E 195 80 4a 00
        E 241 90 51 48
        E 27 80 4c 00
        E 442 90 4a 46
        E 13 80 51 00
        E 461 80 4a 00
        E 8 90 4c 3d
        E 466 90 51 40
        E 22 80 4c 00
        E 461 80 51 00
        E 1 90 4a 42
        E 491 80 4a 00
        E 7 90 4c 41
        E 485 90 53 39
        E 38 80 4c 00
        E 427 80 53 00
        E 10 90 51 43
        E 471 90 4a 36
        E 109 80 51 00
        E 387 90 4c 3e
        E 23 80 4a 00
        E 454 90 51 41
        E 13 80 4c 00
        E 466 90 4a 3d
        E 8 80 51 00
        E 476 80 4a 00
        E 1 90 4c 38
        E 477 90 51 3c
        E 25 80 4c 00
        E 468 90 4a 3c
        E 30 80 51 00
        E 429 80 4a 00
        E 11 90 4c 3b
        E 426 80 4c 00
        E 6 90 4a 3b
        E 520 80 4a 00
        E 12 90 4c 3a
        E 488 90 51 3b
        E 16 80 4c 00
        E 456 80 51 00
        E 4 90 4a 39
        E 474 90 4c 3e
        E 6 80 4a 00
        E 463 90 51 3d
        E 7 80 4c 00
        E 465 90 4a 3b
        E 27 80 51 00
        E 430 90 4c 3d
        E 15 80 4a 00
        E 489 90 53 3a
        E 111 80 4c 00
        E 368 80 53 00
        E 5 90 51 44
        E 500 90 4a 3c
        E 53 80 51 00
        E 428 90 4c 45
        E 11 80 4a 00
        E 487 80 4c 00
        E 1 90 4f 40
        E 455 90 4a 41
        E 29 80 4f 00
        E 436 90 4c 42
        E 10 80 4a 00
        E 486 80 4c 00
        E 1 90 45 34
        E 463 90 4a 49
        E 20 80 45 00
        E 481 80 4a 00
        E 2 90 4c 42
        E 423 80 4c 00
        E 40 90 45 48
        E 471 80 45 00
        E 5 90 4a 47
        E 478 90 4c 4a
        E 11 80 4a 00
        E 484 90 4e 46
        E 4 80 4c 00
        E 472 80 4e 00
        E 5 90 51 44
        E 465 90 4e 47
        E 10 80 51 00
        E 484 90 4c 48
        E 21 80 4e 00
        E 429 90 4a 48
        E 6 80 4c 00
        E 493 90 45 44
        E 8 80 4a 00
        E 479 90 4a 3f
        E 29 80 45 00
        E 446 80 4a 00
        E 6 90 45 42
        E 474 90 4a 46
        E 15 80 45 00
        E 473 90 45 3b
        E 6 80 4a 00
        E 471 90 4a 43
        E 13 80 45 00
        E 463 90 45 2e
        E 13 80 4a 00
        E 453 90 4a 3e
        E 22 80 45 00
        E 474 90 45 39
        E 22 80 4a 00
        E 467 90 4a 3e
        E 7 80 45 00
        E 427 80 4a 00
        E 21 90 45 41
        E 481 90 4a 48
        E 13 80 45 00
        E 463 90 4c 48
        E 16 80 4a 00
        E 497 90 4e 44
        E 8 80 4c 00
        E 441 80 4e 00
        E 10 90 4f 47
        E 452 90 4e 3c
        E 11 80 4f 00
        E 493 90 4c 3e
        E 7 80 4e 00
        E 470 90 4e 42
        E 21 80 4c 00
        E 507 90 4c 3d
        E 17 80 4e 00
        E 3243 80 4c 00
        E 1603 b0 7b 00
        CCINTERP 32
        CHASE_CC_TAKEOFFS 1
        GUID {5019910B-5BDF-0E41-AC01-8391DD3E4640}
        IGNTEMPO 0 120 4 4
        SRCCOLOR 78
        VELLANE -1 100 0
        VELLANE 64 100 0
      >
    >
    <ITEM
      POSITION 99.82077083333333
      SNAPOFFS 0
      LENGTH 179.232
      LOOP 1
      ALLTAKES 0
      FADEIN 1 0.01 0 1 0 0 0
      FADEOUT 1 0.01 0 1 0 0 0
      MUTE 0 0
      SEL 0
      IGUID {7CF105CE-1A98-8E45-B327-A63968B827B3}
      IID 29
      VOLPAN 1
      TAKE SEL
      NAME "02-Recorded MIDI"
      TAKEVOLPAN 0 1 -1
      SOFFS 9.82077083333333 9.82077083333333
      PLAYRATE 1 1 0 -1 0 0.0025
      CHANMODE 0
      TAKECOLOR 18704820 B
      GUID {AC4026EA-0BB5-6247-9400-0FC40C2A947A}
      RECPASS 12
      <SOURCE MIDI
        HASDATA 1 960 QN
        CCINTERP 32
        POOLEDEVTS {056D30E9-A264-214C-A9BF-28876B6CB59F}
        E 4313 90 4a 3e
        E 7 90 45 28
        E 98 80 4a 00
        E 15 80 45 00
        E 363 90 4a 41
        E 2 90 45 21
        E 69 80 4a 00
        E 41 80 45 00
        E 314 90 45 27
        E 10 90 4a 42
        E 83 80 4a 00
        E 32 80 45 00
        E 343 90 45 2f
        E 12 90 4a 41
        E 106 80 4a 00
        E 7 80 45 00
        E 353 90 45 2c
        E 11 90 4a 40
        E 122 80 45 00
        E 12 80 4a 00
        E 340 90 45 2a
        E 3 90 4a 40
        E 135 80 4a 00
        E 8 80 45 00
        E 345 90 4a 42
        E 1 90 45 29
        E 134 80 4a 00
        E 13 80 45 00
        E 325 90 45 2b
        E 12 90 4a 42
        E 147 80 4a 00
        E 3 80 45 00
        E 330 90 45 30
        E 3 90 4a 40
        E 134 80 4a 00
        E 3 80 45 00
        E 342 90 45 26
        E 6 90 4a 41
        E 135 80 4a 00
        E 12 80 45 00
        E 321 90 45 30
        E 5 90 4a 3f
        E 138 80 4a 00
        E 22 80 45 00
        E 338 90 45 2d
        E 1 90 4a 3f
        E 125 80 4a 00
        E 4 80 45 00
        E 327 90 45 31
        E 10 90 4c 36
        E 140 80 45 00
        E 22 80 4c 00
        E 306 90 45 2f
        E 9 90 4c 2e
        E 134 80 45 00
        E 22 80 4c 00
        E 311 90 4c 41
        E 14 90 45 35
        E 85 80 4c 00
        E 51 80 45 00
        E 331 90 45 3f
        E 4 90 4e 41
        E 112 80 45 00
        E 18 80 4e 00
        E 324 90 4e 40
        E 10 90 45 3a
        E 129 80 4e 00
        E 11 80 45 00
        E 343 90 4e 43
        E 5 90 45 41
        E 112 80 4e 00
        E 3 80 45 00
        E 391 90 45 31
        E 8 90 4a 48
        E 113 80 45 00
        E 2 80 4a 00
        E 342 90 45 34
        E 10 90 4a 46
        E 112 80 45 00
        E 3 80 4a 00
        E 356 90 45 36
        E 5 90 4a 48
        E 113 80 45 00
        E 17 80 4a 00
        E 340 90 45 3a
        E 16 90 4c 46
        E 128 80 45 00
        E 3 80 4c 00
        E 341 90 45 32
        E 4 90 4c 40
        E 130 80 4c 00
        E 2 80 45 00
        E 343 90 45 34
        E 3 90 4c 41
        E 120 80 45 00
        E 10 80 4c 00
        E 334 90 45 3b
        E 1 90 4e 42
        E 118 80 45 00
        E 3 80 4e 00
        E 357 90 45 3c
        E 7 90 4e 40
        E 108 80 45 00
        E 3 80 4e 00
        E 374 90 45 3b
        E 9 90 4e 3d
        E 116 80 4e 00
        E 4 80 45 00
        E 367 90 45 2f
        E 19 90 4a 43
        E 110 80 45 00
        E 8 80 4a 00
        E 348 90 4a 47
        E 2 90 45 37
        E 135 80 4a 00
        E 4 80 45 00
        E 333 90 45 38
        E 1 90 4a 49
        E 123 80 45 00
        E 37 80 4a 00
        E 291 90 45 3b
        E 21 90 4c 42
        E 117 80 45 00
        E 16 80 4c 00
        E 342 90 45 38
        E 5 90 4c 46
        E 123 80 45 00
        E 1 80 4c 00
        E 354 90 45 3e
        E 7 90 4c 47
        E 110 80 45 00
        E 1 80 4c 00
        E 349 90 4e 45
        E 4 90 45 3d
        E 105 80 45 00
        E 1 80 4e 00
        E 365 90 45 3f
        E 4 90 4e 43
        E 106 80 45 00
        E 5 80 4e 00
        E 364 90 4e 40
        E 1 90 45 3a
        E 110 80 45 00
        E 11 80 4e 00
        E 358 90 45 32
        E 0 90 4a 48
        E 120 80 4a 00
        E 12 80 45 00
        E 355 90 45 2e
        E 5 90 4a 48
        E 125 80 4a 00
        E 5 80 45 00
        E 349 90 4a 48
        E 1 90 45 36
        E 133 80 45 00
        E 15 80 4a 00
        E 332 90 45 3c
        E 5 90 4c 4a
        E 136 80 4c 00
        E 4 80 45 00
        E 333 90 45 39
        E 7 90 4c 46
        E 142 80 4c 00
        E 2 80 45 00
        E 337 90 45 3d
        E 3 90 4c 47
        E 120 80 4c 00
        E 11 80 45 00
        E 335 90 45 3d
        E 4 90 4e 45
        E 123 80 45 00
        E 9 80 4e 00
        E 351 90 45 3b
        E 7 90 4e 3f
        E 123 80 4e 00
        E 6 80 45 00
        E 335 90 45 39
        E 6 90 4e 3d
        E 127 80 45 00
        E 9 80 4e 00
        E 339 90 45 3d
        E 5 90 4f 43
        E 159 80 45 00
        E 14 80 4f 00
        E 317 90 45 35
        E 6 90 4f 31
        E 150 80 45 00
        E 7 80 4f 00
        E 309 90 45 39
        E 8 90 4f 3b
        E 134 80 45 00
        E 10 80 4f 00
        E 316 90 45 3b
        E 8 90 4e 3f
        E 147 80 45 00
        E 7 80 4e 00
        E 317 90 45 33
        E 2 90 4e 3a
        E 147 80 45 00
        E 9 80 4e 00
        E 336 90 45 38
        E 5 90 4e 3e
        E 121 80 45 00
        E 1 80 4e 00
        E 344 90 45 32
        E 10 90 4c 43
        E 153 80 45 00
        E 7 80 4c 00
        E 327 90 45 2d
        E 8 90 4c 42
        E 158 80 45 00
        E 18 80 4c 00
        E 291 90 45 2e
        E 2 90 4c 43
        E 126 80 45 00
        E 1 80 4c 00
        E 352 90 45 3c
        E 1 90 4e 44
        E 161 80 4e 00
        E 3 80 45 00
        E 318 90 45 33
        E 3 90 4e 3f
        E 122 80 4e 00
        E 23 80 45 00
        E 334 90 45 36
        E 7 90 4e 40
        E 126 80 4e 00
        E 10 80 45 00
        E 344 90 45 34
        E 3 90 4a 47
        E 140 80 45 00
        E 24 80 4a 00
        E 325 90 4a 43
        E 8 90 45 23
        E 119 80 45 00
        E 11 80 4a 00
        E 354 90 45 31
        E 5 90 4a 47
        E 129 80 4a 00
        E 10 80 45 00
        E 307 90 45 2c
        E 1 90 4a 48
        E 140 80 45 00
        E 4 80 4a 00
        E 340 90 4a 40
        E 2 90 45 28
        E 122 80 4a 00
        E 1 80 45 00
        E 359 90 4a 41
        E 1 90 45 23
        E 117 80 4a 00
        E 8 80 45 00
        E 340 90 45 2d
        E 1 90 4a 46
        E 125 80 4a 00
        E 6 80 45 00
        E 348 90 4a 45
        E 4 90 45 2b
        E 130 80 45 00
        E 4 80 4a 00
        E 336 90 45 32
        E 3 90 4a 4a
        E 110 80 45 00
        E 21 80 4a 00
        E 337 90 45 36
        E 15 90 4c 42
        E 134 80 45 00
        E 4 80 4c 00
        E 331 90 45 36
        E 14 90 4c 3f
        E 131 80 45 00
        E 6 80 4c 00
        E 333 90 45 37
        E 7 90 4c 46
        E 121 80 4c 00
        E 2 80 45 00
        E 342 90 45 3b
        E 1 90 4e 44
        E 111 80 4e 00
        E 26 80 45 00
        E 341 90 45 3a
        E 1 90 4e 40
        E 112 80 4e 00
        E 9 80 45 00
        E 370 90 45 3e
        E 7 90 4e 43
        E 103 80 45 00
        E 8 80 4e 00
        E 358 90 4a 49
        E 1 90 45 33
        E 132 80 45 00
        E 4 80 4a 00
        E 334 90 45 2f
        E 5 90 4a 47
        E 128 80 45 00
        E 3 80 4a 00
        E 352 90 45 2c
        E 7 90 4a 48
        E 126 80 45 00
        E 27 80 4a 00
        E 310 90 45 35
        E 10 90 4c 42
        E 125 80 45 00
        E 14 80 4c 00
        E 337 90 45 30
        E 2 90 4c 42
        E 140 80 45 00
        E 4 80 4c 00
        E 346 90 45 2f
        E 3 90 4c 45
        E 128 80 4c 00
        E 1 80 45 00
        E 349 90 45 37
        E 3 90 4e 43
        E 130 80 4e 00
        E 8 80 45 00
        E 314 90 45 2c
        E 2 90 4e 3c
        E 138 80 4e 00
        E 12 80 45 00
        E 330 90 4e 3c
        E 1 90 45 2c
        E 139 80 45 00
        E 39 80 4e 00
        E 314 90 51 3e
        E 5 90 45 3b
        E 124 80 45 00
        E 65 80 51 00
        E 285 90 51 3f
        E 6 90 45 39
        E 132 80 51 00
        E 15 80 45 00
        E 340 90 4e 40
        E 1 90 45 31
        E 125 80 45 00
        E 28 80 4e 00
        E 320 90 45 28
        E 1 90 4c 3d
        E 164 80 45 00
        E 35 80 4c 00
        E 266 90 4c 3d
        E 14 90 45 1f
        E 138 80 4c 00
        E 1 80 45 00
        E 354 90 4e 45
        E 12 90 45 34
        E 118 80 45 00
        E 24 80 4e 00
        E 312 90 4a 4a
        E 3 90 45 33
        E 140 80 45 00
        E 2 80 4a 00
        E 331 90 45 36
        E 2 90 4a 47
        E 132 80 45 00
        E 46 80 4a 00
        E 313 90 45 39
        E 9 90 4c 45
        E 129 80 45 00
        E 26 80 4c 00
        E 318 90 4a 4d
        E 2 90 45 33
        E 132 80 4a 00
        E 7 80 45 00
        E 331 90 4a 47
        E 1 90 45 31
        E 136 80 4a 00
        E 29 80 45 00
        E 306 90 45 34
        E 6 90 4a 4a
        E 130 80 45 00
        E 47 80 4a 00
        E 289 90 45 34
        E 11 90 4c 43
        E 161 80 45 00
        E 2 80 4c 00
        E 317 90 45 37
        E 8 90 4c 45
        E 150 80 45 00
        E 8 80 4c 00
        E 312 90 45 37
        E 1 90 4c 42
        E 136 80 45 00
        E 10 80 4c 00
        E 334 90 45 3c
        E 2 90 4e 44
        E 123 80 4e 00
        E 9 80 45 00
        E 334 90 45 33
        E 8 90 4e 3e
        E 148 80 4e 00
        E 22 80 45 00
        E 292 90 45 2b
        E 4 90 4e 39
        E 141 80 45 00
        E 12 80 4e 00
        E 341 90 51 46
        E 3 90 4a 4b
        E 115 80 4a 00
        E 11 80 51 00
        E 358 90 4a 3e
        E 6 90 51 34
        E 3 90 45 39
        E 74 80 45 00
        E 12 80 51 00
        E 20 80 4a 00
        E 367 90 51 31
        E 3 90 4a 41
        E 2 90 45 29
        E 67 80 4a 00
        E 14 80 45 00
        E 15 80 51 00
        E 369 90 51 39
        E 1 90 45 31
        E 7 90 4a 41
        E 89 80 45 00
        E 3 80 51 00
        E 1 80 4a 00
        E 369 90 45 26
        E 2 90 4a 42
        E 1 90 51 2a
        E 107 80 45 00
        E 3 80 4a 00
        E 2 80 51 00
        E 381 90 51 2f
        E 11 90 4a 3f
        E 5 90 45 2c
        E 65 80 4a 00
        E 27 80 51 00
        E 2 80 45 00
        E 367 90 51 32
        E 8 90 4a 45
        E 2 90 45 31
        E 98 80 4a 00
        E 4 80 51 00
        E 7 80 45 00
        E 345 90 51 3a
        E 23 90 4a 3d
        E 1 90 45 2a
        E 70 80 4a 00
        E 39 80 51 00
        E 1 80 45 00
        E 357 90 45 38
        E 7 90 51 3b
        E 11 90 4a 43
        E 64 80 4a 00
        E 27 80 45 00
        E 5 80 51 00
        E 391 90 51 33
        E 2 90 4a 43
        E 2 90 45 2b
        E 95 80 51 00
        E 8 80 45 00
        E 1 80 4a 00
        E 348 90 4f 42
        E 7 90 4a 42
        E 4 90 45 29
        E 114 80 4a 00
        E 5 80 4f 00
        E 4 80 45 00
        E 347 90 4a 45
        E 10 90 45 26
        E 3 90 4f 3c
        E 80 80 45 00
        E 12 80 4a 00
        E 22 80 4f 00
        E 353 90 4f 3d
        E 1 90 4a 43
        E 1 90 45 2e
        E 80 80 4a 00
        E 12 80 45 00
        E 31 80 4f 00
        E 356 90 4a 3f
        E 4 90 4f 36
        E 8 90 45 1c
        E 84 80 4a 00
        E 21 80 45 00
        E 14 80 4f 00
        E 356 90 45 26
        E 1 90 4a 42
        E 12 90 4f 36
        E 82 80 4a 00
        E 14 80 4f 00
        E 18 80 45 00
        E 352 90 45 27
        E 6 90 4a 45
        E 6 90 4f 38
        E 80 80 4a 00
        E 25 80 45 00
        E 25 80 4f 00
        E 335 90 45 25
        E 1 90 4a 40
        E 14 90 4f 33
        E 106 80 4a 00
        E 26 80 45 00
        E 14 80 4f 00
        E 319 90 4a 40
        E 1 90 45 22
        E 1 90 4f 37
        E 105 80 4a 00
        E 12 80 45 00
        E 45 80 4f 00
        E 320 90 4a 44
        E 3 90 45 33
        E 5 90 4f 3c
        E 111 80 4a 00
        E 2 80 45 00
        E 40 80 4f 00
        E 311 90 51 31
        E 3 90 45 26
        E 1 90 4a 42
        E 74 80 4a 00
        E 26 80 45 00
        E 21 80 51 00
        E 367 90 4a 42
        E 4 90 51 30
        E 2 90 45 31
        E 97 80 4a 00
        E 2 80 51 00
        E 6 80 45 00
        E 384 90 51 3e
        E 9 90 45 2f
        E 3 90 4a 42
        E 88 80 51 00
        E 23 80 45 00
        E 3 80 4a 00
        E 327 90 45 29
        E 3 90 4e 3b
        E 19 90 4a 38
        E 44 80 4a 00
        E 47 80 45 00
        E 1 80 4e 00
        E 365 90 4e 3d
        E 6 90 4a 3b
        E 17 90 45 20
        E 81 80 4a 00
        E 14 80 4e 00
        E 11 80 45 00
        E 351 90 4e 42
        E 6 90 4a 44
        E 4 90 45 25
        E 96 80 4a 00
        E 17 80 4e 00
        E 9 80 45 00
        E 349 90 4e 42
        E 3 90 45 23
        E 6 90 4a 43
        E 77 80 4a 00
        E 30 80 45 00
        E 2 80 4e 00
        E 363 90 4e 3e
        E 2 90 45 26
        E 3 90 4a 42
        E 122 80 4a 00
        E 7 80 4e 00
        E 3 80 45 00
        E 348 90 4e 41
        E 5 90 45 26
        E 11 90 4a 41
        E 93 80 45 00
        E 16 80 4a 00
        E 19 80 4e 00
        E 335 90 4e 3c
        E 2 90 4a 3d
        E 3 90 45 21
        E 108 80 4a 00
        E 14 80 45 00
        E 12 80 4e 00
        E 370 90 45 1d
        E 1 90 4e 3d
        E 4 90 4a 40
        E 77 80 4a 00
        E 31 80 4e 00
        E 4 80 45 00
        E 355 90 45 23
        E 9 90 4e 3c
        E 4 90 4a 42
        E 101 80 4a 00
        E 22 80 45 00
        E 2 80 4e 00
        E 348 90 45 21
        E 1 90 4e 3c
        E 2 90 4a 3e
        E 113 80 4a 00
        E 1 80 45 00
        E 11 80 4e 00
        E 346 90 4e 3c
        E 5 90 45 20
        E 7 90 4a 3c
        E 61 80 4a 00
        E 30 80 45 00
        E 9 80 4e 00
        E 360 90 45 24
        E 3 90 4e 3e
        E 2 90 4a 41
        E 113 80 4a 00
        E 2 80 45 00
        E 11 80 4e 00
        E 342 90 4a 3d
        E 1 90 4e 39
        E 3 90 45 1e
        E 127 80 4a 00
        E 5 80 45 00
        E 7 80 4e 00
        E 323 90 4e 3d
        E 8 90 45 23
        E 3 90 4a 45
        E 83 80 4e 00
        E 16 80 4a 00
        E 5 80 45 00
        E 361 90 4a 48
        E 1 90 4c 49
        E 3 90 45 36
        E 129 80 4a 00
        E 24 80 4c 00
        E 46 80 45 00
        E 277 90 4e 48
        E 4 90 4a 44
        E 1 90 45 37
        E 117 80 4a 00
        E 11 80 45 00
        E 1 80 4e 00
        E 343 90 4f 44
        E 3 90 45 3a
        E 5 90 4a 47
        E 113 80 4f 00
        E 11 80 4a 00
        E 15 80 45 00
        E 335 90 4e 4c
        E 9 90 4a 49
        E 1 90 45 35
        E 119 80 4a 00
        E 14 80 4e 00
        E 17 80 45 00
        E 323 90 4a 3e
        E 5 90 45 24
        E 1 90 4e 39
        E 94 80 4a 00
        E 18 80 4e 00
        E 24 80 45 00
        E 343 90 4a 41
        E 4 90 45 28
        E 6 90 4e 33
        E 93 80 4a 00
        E 28 80 4e 00
        E 1 80 45 00
        E 370 90 45 2b
        E 2 90 4e 3c
        E 1 90 4a 40
        E 96 80 4a 00
        E 13 80 45 00
        E 6 80 4e 00
        E 346 90 4e 35
        E 2 90 4a 3d
        E 3 90 45 21
        E 103 80 4a 00
        E 2 80 45 00
        E 8 80 4e 00
        E 357 90 45 2a
        E 3 90 4a 3f
        E 1 90 4e 3e
        E 117 80 4a 00
        E 16 80 45 00
        E 18 80 4e 00
        E 318 90 4c 43
        E 3 90 45 29
        E 11 90 4a 43
        E 117 80 4a 00
        E 7 80 45 00
        E 10 80 4c 00
        E 325 90 4e 41
        E 8 90 4a 42
        E 20 90 45 18
        E 78 80 45 00
        E 25 80 4a 00
        E 12 80 4e 00
        E 335 90 4f 3e
        E 6 90 45 34
        E 2 90 4a 42
        E 122 80 45 00
        E 20 80 4f 00
        E 6 80 4a 00
        E 337 90 51 47
        E 10 90 45 3c
        E 5 90 4a 45
        E 160 80 45 00
        E 2 80 4a 00
        E 8 80 51 00
        E 313 90 45 26
        E 7 90 4a 41
        E 1 90 4f 3e
        E 109 80 4a 00
        E 47 80 4f 00
        E 0 80 45 00
        E 287 90 4e 45
        E 15 90 45 23
        E 22 90 4a 3f
        E 55 80 4a 00
        E 8 80 4e 00
        E 50 80 45 00
        E 338 90 45 33
        E 3 90 4c 47
        E 6 90 4a 48
        E 151 80 4c 00
        E 2 80 4a 00
        E 66 80 45 00
        E 268 90 45 38
        E 9 90 4e 44
        E 1 90 4a 3f
        E 44 80 4a 00
        E 54 80 45 00
        E 33 80 4e 00
        E 334 90 45 3c
        E 1 90 4a 49
        E 154 80 45 00
        E 12 80 4a 00
        E 323 90 45 37
        E 2 90 4c 47
        E 1 90 4a 42
        E 137 80 4a 00
        E 23 80 4c 00
        E 10 80 45 00
        E 293 90 45 2e
        E 1 90 4e 40
        E 14 90 4a 3e
        E 113 80 4a 00
        E 14 80 45 00
        E 17 80 4e 00
        E 324 90 4a 3f
        E 0 90 45 28
        E 1 90 4e 39
        E 130 80 4a 00
        E 2 80 45 00
        E 8 80 4e 00
        E 343 90 45 24
        E 3 90 4a 40
        E 2 90 4e 36
        E 136 80 4a 00
        E 10 80 45 00
        E 10 80 4e 00
        E 332 90 45 1c
        E 1 90 4e 2e
        E 1 90 4a 3d
        E 136 80 4a 00
        E 14 80 4e 00
        E 8 80 45 00
        E 312 90 4e 36
        E 6 90 45 1f
        E 1 90 4a 3f
        E 119 80 4a 00
        E 14 80 45 00
        E 16 80 4e 00
        E 310 90 45 2f
        E 13 90 4c 48
        E 1 90 4a 47
        E 184 80 4a 00
        E 13 80 4c 00
        E 6 80 45 00
        E 281 90 4a 42
        E 2 90 45 32
        E 7 90 4e 3f
        E 109 80 4a 00
        E 14 80 45 00
        E 7 80 4e 00
        E 340 90 4e 3a
        E 0 90 45 28
        E 2 90 4a 43
        E 123 80 4a 00
        E 21 80 4e 00
        E 3 80 45 00
        E 325 90 4e 45
        E 1 90 45 3a
        E 3 90 4a 4a
        E 116 80 4a 00
        E 6 80 45 00
        E 41 80 4e 00
        E 296 90 4c 3f
        E 6 90 4a 3b
        E 15 90 45 1e
        E 128 80 4a 00
        E 27 80 4c 00
        E 24 80 45 00
        E 293 90 45 21
        E 1 90 4c 42
        E 1 90 4a 44
        E 143 80 4a 00
        E 12 80 4c 00
        E 45 80 45 00
        E 279 90 45 2b
        E 3 90 4c 46
        E 5 90 4a 45
        E 286 80 4c 00
        E 19 80 45 00
        E 8 80 4a 00
        E 149 90 4a 3e
        E 5 90 45 33
        E 1 90 4e 43
        E 112 80 4a 00
        E 21 80 45 00
        E 24 80 4e 00
        E 313 90 4e 3f
        E 10 90 45 2e
        E 3 90 4a 43
        E 138 80 4a 00
        E 32 80 4e 00
        E 1 80 45 00
        E 315 90 4e 37
        E 1 90 45 25
        E 3 90 4a 40
        E 129 80 4a 00
        E 23 80 45 00
        E 6 80 4e 00
        E 330 90 4e 3a
        E 5 90 4a 3c
        E 3 90 45 22
        E 157 80 4a 00
        E 10 80 4e 00
        E 3 80 45 00
        E 288 90 45 26
        E 4 90 4a 3f
        E 3 90 4e 3c
        E 131 80 4a 00
        E 8 80 45 00
        E 14 80 4e 00
        E 312 90 4f 47
        E 5 90 4a 48
        E 2 90 45 3b
        E 308 80 45 00
        E 60 80 4a 00
        E 2 80 4f 00
        E 107 90 4a 3b
        E 3 90 4e 46
        E 14 90 45 28
        E 210 80 45 00
        E 15 80 4e 00
        E 12 80 4a 00
        E 233 90 51 45
        E 4 90 45 3f
        E 3 90 4a 46
        E 137 80 51 00
        E 29 80 45 00
        E 32 80 4a 00
        E 254 90 4f 44
        E 11 90 4a 3a
        E 9 90 45 27
        E 162 80 4f 00
        E 23 80 45 00
        E 10 80 4a 00
        E 288 90 4e 3e
        E 1 90 4a 3e
        E 1 90 45 2e
        E 118 80 4a 00
        E 17 80 45 00
        E 50 80 4e 00
        E 269 90 45 2d
        E 8 90 4c 45
        E 6 90 4a 3d
        E 112 80 4a 00
        E 12 80 45 00
        E 54 80 4c 00
        E 298 90 4c 3e
        E 2 90 4a 47
        E 5 90 45 33
        E 239 80 45 00
        E 61 80 4a 00
        E 67 80 4c 00
        E 94 90 4a 3b
        E 4 90 45 36
        E 3 90 4e 48
        E 114 80 4a 00
        E 7 80 45 00
        E 33 80 4e 00
        E 310 90 4a 42
        E 7 90 4e 39
        E 4 90 45 2b
        E 99 80 4a 00
        E 18 80 4e 00
        E 5 80 45 00
        E 361 90 4a 43
        E 1 90 4e 39
        E 2 90 45 21
        E 117 80 4a 00
        E 41 80 45 00
        E 6 80 4e 00
        E 317 90 4e 36
        E 3 90 4a 3e
        E 5 90 45 1e
        E 108 80 4a 00
        E 27 80 4e 00
        E 2 80 45 00
        E 353 90 4e 36
        E 6 90 4a 3b
        E 12 90 45 20
        E 101 80 4a 00
        E 27 80 45 00
        E 14 80 4e 00
        E 316 90 4e 38
        E 9 90 4a 40
        E 6 90 45 22
        E 124 80 4a 00
        E 21 80 45 00
        E 9 80 4e 00
        E 311 90 4e 2a
        E 12 90 4a 39
        E 4 90 45 1b
        E 106 80 4a 00
        E 15 80 45 00
        E 24 80 4e 00
        E 323 90 4e 2d
        E 8 90 4a 3e
        E 6 90 45 1b
        E 127 80 4a 00
        E 23 80 45 00
        E 7 80 4e 00
        E 311 90 4e 35
        E 9 90 4a 3c
        E 4 90 45 1e
        E 119 80 4a 00
        E 14 80 45 00
        E 10 80 4e 00
        E 312 90 4e 31
        E 6 90 4a 3c
        E 3 90 45 1d
        E 143 80 4a 00
        E 18 80 45 00
        E 0 80 4e 00
        E 328 90 4e 34
        E 8 90 4a 3e
        E 2 90 45 21
        E 126 80 4a 00
        E 14 80 45 00
        E 12 80 4e 00
        E 320 90 4e 37
        E 3 90 45 22
        E 10 90 4a 3a
        E 166 80 4e 00
        E 64 90 4f 33
        E 2 80 4a 00
        E 4 80 45 00
        E 127 80 4f 00
        E 92 90 4e 3f
        E 37 90 4a 2c
        E 120 80 4e 00
        E 59 90 4f 31
        E 4 80 4a 00
        E 192 80 4f 00
        E 63 90 4e 49
        E 27 90 45 28
        E 8 90 4a 35
        E 100 80 45 00
        E 32 80 4a 00
        E 19 80 4e 00
        E 58 90 4f 40
        E 132 80 4f 00
        E 97 90 4e 48
        E 13 90 4a 41
        E 7 90 45 33
        E 113 80 45 00
        E 34 80 4e 00
        E 11 80 4a 00
        E 76 90 4f 41
        E 208 80 4f 00
        E 25 90 4e 47
        E 3 90 4a 41
        E 20 90 45 23
        E 116 80 4a 00
        E 6 80 45 00
        E 21 80 4e 00
        E 96 90 4f 3a
        E 200 80 4f 00
        E 23 90 4a 41
        E 3 90 4e 45
        E 7 90 45 29
        E 63 80 45 00
        E 70 80 4a 00
        E 25 80 4e 00
        E 82 90 4f 47
        E 188 80 4f 00
        E 50 90 4a 47
        E 11 90 4e 46
        E 0 90 45 2f
        E 91 80 45 00
        E 56 80 4a 00
        E 38 80 4e 00
        E 49 90 4f 48
        E 227 80 4f 00
        E 12 90 4a 48
        E 11 90 4e 44
        E 10 90 45 2b
        E 62 80 45 00
        E 95 80 4a 00
        E 10 80 4e 00
        E 41 90 4f 45
        E 246 80 4f 00
        E 5 90 4a 47
        E 8 90 4e 46
        E 11 90 45 31
        E 75 80 45 00
        E 62 80 4a 00
        E 31 80 4e 00
        E 43 90 4f 46
        E 172 80 4f 00
        E 80 90 4a 49
        E 2 90 4e 48
        E 4 90 45 3b
        E 95 80 45 00
        E 32 80 4a 00
        E 51 80 4e 00
        E 41 90 4f 43
        E 230 80 4f 00
        E 19 90 4a 45
        E 4 90 4e 47
        E 17 90 45 34
        E 83 80 45 00
        E 63 80 4e 00
        E 18 80 4a 00
        E 12 90 4f 49
        E 247 80 4f 00
        E 10 90 4e 48
        E 4 90 4a 44
        E 16 90 45 2d
        E 120 80 45 00
        E 26 80 4a 00
        E 12 80 4e 00
        E 24 90 4f 44
        E 270 90 4e 4c
        E 6 90 4a 47
        E 3 90 45 3b
        E 5 80 4f 00
        E 67 80 45 00
        E 110 80 4a 00
        E 4 80 4e 00
        E 42 90 4f 4a
        E 257 90 4e 49
        E 1 90 4a 44
        E 14 80 4f 00
        E 1 90 45 2b
        E 96 80 45 00
        E 72 80 4a 00
        E 20 80 4e 00
        E 28 90 4f 47
        E 266 90 4e 4a
        E 5 90 4a 44
        E 1 80 4f 00
        E 10 90 45 32
        E 127 80 45 00
        E 40 80 4e 00
        E 14 80 4a 00
        E 21 90 4f 45
        E 259 90 4a 46
        E 3 90 4e 48
        E 9 80 4f 00
        E 6 90 45 33
        E 117 80 45 00
        E 59 80 4a 00
        E 23 80 4e 00
        E 12 90 4f 47
        E 232 80 4f 00
        E 8 90 4e 48
        E 4 90 4a 40
        E 21 90 45 28
        E 93 80 45 00
        E 61 80 4a 00
        E 25 80 4e 00
        E 23 90 4f 4a
        E 256 90 4e 48
        E 5 90 4a 44
        E 7 80 4f 00
        E 12 90 45 2c
        E 95 80 45 00
        E 57 80 4a 00
        E 31 80 4e 00
        E 26 90 4f 48
        E 268 90 4e 4b
        E 8 90 45 3b
        E 1 90 4a 44
        E 9 80 4f 00
        E 119 80 45 00
        E 41 80 4a 00
        E 19 80 4e 00
        E 19 90 4f 46
        E 260 80 4f 00
        E 1 90 4e 48
        E 4 90 4a 42
        E 15 90 45 33
        E 134 80 45 00
        E 53 80 4a 00
        E 10 80 4e 00
        E 4 90 4f 4b
        E 252 90 4e 4a
        E 8 80 4f 00
        E 2 90 4a 3f
        E 20 90 45 23
        E 74 80 45 00
        E 120 80 4e 00
        E 24 90 4f 48
        E 36 80 4a 00
        E 80 80 4f 00
        E 157 90 45 36
        E 3 90 51 48
        E 2 90 53 40
        E 21 90 4a 1f
        E 20 80 45 00
        E 63 80 53 00
        E 31 80 51 00
        E 36 80 4a 00
        E 51 90 4f 3b
        E 199 80 4f 00
        E 51 90 45 35
        E 7 90 4e 47
        E 37 90 4a 08
        E 69 80 4a 00
        E 54 80 45 00
        E 66 80 4e 00
        E 18 90 4f 43
        E 172 80 4f 00
        E 56 90 4e 45
        E 2 90 45 44
        E 22 90 4a 43
        E 62 80 4a 00
        E 23 80 45 00
        E 69 80 4e 00
        E 80 90 4f 38
        E 190 80 4f 00
        E 24 90 4a 46
        E 2 90 4e 42
        E 1 90 45 39
        E 103 80 45 00
        E 44 80 4a 00
        E 10 80 4e 00
        E 20 90 4f 3a
        E 263 80 4f 00
        E 3 90 4a 47
        E 5 90 45 31
        E 3 90 4e 44
        E 113 80 45 00
        E 31 80 4a 00
        E 54 80 4e 00
        E 38 90 4f 3b
        E 233 80 4f 00
        E 2 90 4e 4b
        E 4 90 4a 45
        E 4 90 45 24
        E 48 80 4a 00
        E 32 80 45 00
        E 154 90 4f 47
        E 12 80 4e 00
        E 204 80 4f 00
        E 28 90 51 4c
        E 6 90 45 42
        E 22 90 4a 40
        E 126 80 51 00
        E 56 90 4f 3c
        E 71 80 4a 00
        E 4 80 45 00
        E 121 80 4f 00
        E 71 90 4e 44
        E 15 90 4a 31
        E 5 90 45 32
        E 120 80 45 00
        E 41 80 4a 00
        E 15 80 4e 00
        E 20 90 4f 3e
        E 258 80 4f 00
        E 6 90 4e 44
        E 7 90 4a 47
        E 10 90 45 33
        E 150 80 45 00
        E 6 80 4a 00
        E 29 80 4e 00
        E 27 90 4f 42
        E 244 80 4f 00
        E 3 90 4e 4b
        E 3 90 4a 4b
        E 2 90 45 3e
        E 186 80 45 00
        E 1 80 4a 00
        E 31 80 4e 00
        E 19 90 4f 42
        E 231 90 4e 49
        E 1 80 4f 00
        E 5 90 45 34
        E 14 90 4a 42
        E 149 80 45 00
        E 39 80 4a 00
        E 37 80 4e 00
        E 8 90 4f 42
        E 215 80 4f 00
        E 4 90 4e 46
        E 6 90 45 37
        E 7 90 4a 47
        E 135 80 45 00
        E 31 80 4a 00
        E 37 80 4e 00
        E 5 90 4f 41
        E 266 80 4f 00
        E 1 90 4a 47
        E 0 90 4e 45
        E 1 90 45 36
        E 147 80 45 00
        E 17 80 4a 00
        E 68 80 4e 00
        E 19 90 4f 3e
        E 241 80 4f 00
        E 1 90 4e 45
        E 18 90 4a 3e
        E 1 90 45 2e
        E 132 80 45 00
        E 32 80 4a 00
        E 44 80 4e 00
        E 19 90 4f 42
        E 241 80 4f 00
        E 7 90 4e 43
        E 6 90 4a 44
        E 9 90 45 32
        E 111 80 45 00
        E 51 80 4a 00
        E 37 80 4e 00
        E 19 90 4f 3f
        E 238 80 4f 00
        E 17 90 4e 46
        E 1 90 4a 49
        E 3 90 45 3d
        E 129 80 45 00
        E 57 80 4a 00
        E 41 90 4f 46
        E 1 80 4e 00
        E 197 80 4f 00
        E 47 90 4e 1f
        E 21 90 51 48
        E 26 80 4e 00
        E 132 80 51 00
        E 42 90 4f 41
        E 51 90 45 1b
        E 89 80 45 00
        E 117 80 4f 00
        E 8 90 4e 43
        E 20 90 4a 39
        E 22 90 45 23
        E 26 80 4a 00
        E 32 80 45 00
        E 72 80 4e 00
        E 99 90 4f 47
        E 211 80 4f 00
        E 1 90 4e 4b
        E 18 90 45 36
        E 45 90 4a 30
        E 163 80 4e 00
        E 14 90 4f 44
        E 1 80 4a 00
        E 30 80 45 00
        E 226 80 4f 00
        E 1 90 51 52
        E 72 80 51 00
        E 141 90 4f 3d
        E 228 80 4f 00
        E 4 90 4e 4b
        E 195 80 4e 00
        E 9 90 4f 45
        E 234 90 4e 4d
        E 2 80 4f 00
        E 228 90 4f 42
        E 14 80 4e 00
        E 228 80 4f 00
        E 7 90 51 4d
        E 240 90 4f 48
        E 2 80 51 00
        E 238 80 4f 00
        E 4 90 4e 4d
        E 235 90 4f 40
        E 7 80 4e 00
        E 242 80 4f 00
        E 8 90 4e 4a
        E 241 90 4f 42
        E 9 80 4e 00
        E 237 80 4f 00
        E 10 90 51 4b
        E 211 80 51 00
        E 15 90 4f 40
        E 240 90 4e 48
        E 22 80 4f 00
        E 217 80 4e 00
        E 6 90 4c 3c
        E 256 90 4a 4d
        E 6 80 4c 00
        E 200 80 4a 00
        E 4 90 4c 36
        E 249 90 4e 42
        E 67 80 4c 00
        E 166 80 4e 00
        E 17 90 4f 36
        E 236 90 4e 44
        E 26 80 4f 00
        E 209 80 4e 00
        E 12 90 4c 2b
        E 229 90 4a 49
        E 11 80 4c 00
        E 214 80 4a 00
        E 10 90 4c 25
        E 234 90 4e 3c
        E 44 80 4c 00
        E 193 80 4e 00
        E 26 90 4f 3b
        E 208 80 4f 00
        E 12 90 51 48
        E 234 80 51 00
        E 27 90 4f 3a
        E 236 90 4e 45
        E 17 80 4f 00
        E 242 90 4c 2f
        E 2 80 4e 00
        E 222 90 4e 3b
        E 22 80 4c 00
        E 208 90 4c 30
        E 22 80 4e 00
        E 205 90 4a 48
        E 13 80 4c 00
        E 214 80 4a 00
        E 13 90 4c 3a
        E 250 90 4a 4b
        E 3 80 4c 00
        E 210 90 48 41
        E 5 80 4a 00
        E 249 90 4a 42
        E 2 80 48 00
        E 247 90 49 42
        E 33 80 4a 00
        E 183 90 47 48
        E 12 80 49 00
        E 233 90 49 3c
        E 35 80 47 00
        E 227 90 4a 4b
        E 7 80 49 00
        E 215 80 4a 00
        E 14 90 4c 40
        E 235 90 4a 43
        E 4 80 4c 00
        E 188 90 49 3a
        E 14 80 4a 00
        E 231 80 49 00
        E 13 90 45 46
        E 221 90 47 3a
        E 10 80 45 00
        E 262 90 49 42
        E 38 80 47 00
        E 209 80 49 00
        E 9 90 4a 42
        E 238 90 49 3a
        E 1 80 4a 00
        E 247 90 47 3a
        E 5 80 49 00
        E 246 90 4c 42
        E 6 80 47 00
        E 218 80 4c 00
        E 11 90 4a 41
        E 249 80 4a 00
        E 3 90 49 47
        E 225 80 49 00
        E 24 90 4c 43
        E 227 80 4c 00
        E 6 90 4d 3c
        E 180 80 4d 00
        E 298 90 51 2e
        E 8 90 4f 2d
        E 55 80 4f 00
        E 87 80 51 00
        E 366 90 4e 4d
        E 97 80 4e 00
        E 357 90 4a 4e
        E 106 80 4a 00
        E 372 90 4c 4b
        E 500 90 4a 4e
        E 13 80 4c 00
        E 111 80 4a 00
        E 334 90 45 3e
        E 292 80 45 00
        E 227 90 4a 4b
        E 976 90 45 2c
        E 12 80 4a 00
        E 252 80 45 00
        E 199 90 4a 4f
        E 215 80 4a 00
        E 4 90 4c 3a
        E 258 80 4c 00
        E 9 90 4e 43
        E 203 90 4a 28
        E 6 80 4e 00
        E 218 80 4a 00
        E 2 90 4c 36
        E 221 80 4c 00
        E 8 90 4e 34
        E 229 80 4e 00
        E 30 90 4a 48
        E 293 80 4a 00
        E 206 90 45 43
        E 472 90 4a 4b
        E 4 80 45 00
        E 455 80 4a 00
        E 12 90 4c 4c
        E 479 80 4c 00
        E 6 90 4e 44
        E 478 90 4c 49
        E 32 80 4e 00
        E 448 80 4c 00
        E 3 90 4a 46
        E 209 80 4a 00
        E 252 90 4f 4e
        E 700 90 4e 31
        E 59 80 4f 00
        E 197 90 4c 3b
        E 13 80 4e 00
        E 447 90 4e 54
        E 12 80 4c 00
        E 466 80 4e 00
        E 13 90 4c 42
        E 499 90 4a 4b
        E 36 80 4c 00
        E 455 90 4c 4c
        E 28 80 4a 00
        E 417 90 4e 45
        E 22 80 4c 00
        E 469 90 4f 4b
        E 4 80 4e 00
        E 449 80 4f 00
        E 20 90 51 47
        E 485 80 51 00
        E 9 90 4f 41
        E 509 90 4e 3e
        E 13 80 4f 00
        E 420 90 4c 44
        E 6 80 4e 00
        E 517 90 4e 40
        E 12 80 4c 00
        E 419 80 4e 00
        E 24 90 4a 42
        E 493 90 4c 47
        E 6 80 4a 00
        E 467 90 4e 42
        E 38 80 4c 00
        E 424 80 4e 00
        E 9 90 4f 3f
        E 441 80 4f 00
        E 31 90 51 44
        E 447 80 51 00
        E 19 90 4f 38
        E 501 90 4e 3b
        E 2 80 4f 00
        E 453 80 4e 00
        E 41 90 4a 41
        E 504 90 4c 31
        E 195 80 4a 00
        E 241 90 51 48
        E 27 80 4c 00
        E 442 90 4a 46
        E 13 80 51 00
        E 461 80 4a 00
        E 8 90 4c 3d
        E 466 90 51 40
        E 22 80 4c 00
        E 461 80 51 00
        E 1 90 4a 42
        E 491 80 4a 00
        E 7 90 4c 41
        E 485 90 53 39
        E 38 80 4c 00
        E 427 80 53 00
        E 10 90 51 43
        E 471 90 4a 36
        E 109 80 51 00
        E 387 90 4c 3e
        E 23 80 4a 00
        E 454 90 51 41
        E 13 80 4c 00
        E 466 90 4a 3d
        E 8 80 51 00
        E 476 80 4a 00
        E 1 90 4c 38
        E 477 90 51 3c
        E 25 80 4c 00
        E 468 90 4a 3c
        E 30 80 51 00
        E 429 80 4a 00
        E 11 90 4c 3b
        E 426 80 4c 00
        E 6 90 4a 3b
        E 520 80 4a 00
        E 12 90 4c 3a
        E 488 90 51 3b
        E 16 80 4c 00
        E 456 80 51 00
        E 4 90 4a 39
        E 474 90 4c 3e
        E 6 80 4a 00
        E 463 90 51 3d
        E 7 80 4c 00
        E 465 90 4a 3b
        E 27 80 51 00
        E 430 90 4c 3d
        E 15 80 4a 00
        E 489 90 53 3a
        E 111 80 4c 00
        E 368 80 53 00
        E 5 90 51 44
        E 500 90 4a 3c
        E 53 80 51 00
        E 428 90 4c 45
        E 11 80 4a 00
        E 487 80 4c 00
        E 1 90 4f 40
        E 455 90 4a 41
        E 29 80 4f 00
        E 436 90 4c 42
        E 10 80 4a 00
        E 486 80 4c 00
        E 1 90 45 34
        E 463 90 4a 49
        E 20 80 45 00
        E 481 80 4a 00
        E 2 90 4c 42
        E 423 80 4c 00
        E 40 90 45 48
        E 471 80 45 00
        E 5 90 4a 47
        E 478 90 4c 4a
        E 11 80 4a 00
        E 484 90 4e 46
        E 4 80 4c 00
        E 472 80 4e 00
        E 5 90 51 44
        E 465 90 4e 47
        E 10 80 51 00
        E 484 90 4c 48
        E 21 80 4e 00
        E 429 90 4a 48
        E 6 80 4c 00
        E 493 90 45 44
        E 8 80 4a 00
        E 479 90 4a 3f
        E 29 80 45 00
        E 446 80 4a 00
        E 6 90 45 42
        E 474 90 4a 46
        E 15 80 45 00
        E 473 90 45 3b
        E 6 80 4a 00
        E 471 90 4a 43
        E 13 80 45 00
        E 463 90 45 2e
        E 13 80 4a 00
        E 453 90 4a 3e
        E 22 80 45 00
        E 474 90 45 39
        E 22 80 4a 00
        E 467 90 4a 3e
        E 7 80 45 00
        E 427 80 4a 00
        E 21 90 45 41
        E 481 90 4a 48
        E 13 80 45 00
        E 463 90 4c 48
        E 16 80 4a 00
        E 497 90 4e 44
        E 8 80 4c 00
        E 441 80 4e 00
        E 10 90 4f 47
        E 452 90 4e 3c
        E 11 80 4f 00
        E 493 90 4c 3e
        E 7 80 4e 00
        E 470 90 4e 42
        E 21 80 4c 00
        E 507 90 4c 3d
        E 17 80 4e 00
        E 3243 80 4c 00
        E 1603 b0 7b 00
        CCINTERP 32
        CHASE_CC_TAKEOFFS 1
        GUID {A0156DA9-45F4-AE44-8AC6-B1827BC609CA}
        IGNTEMPO 0 120 4 4
        SRCCOLOR 79
        VELLANE -1 100 0
        VELLANE 64 100 0
      >
    >
  >
  <TRACK {840FDBA1-3EFB-5D4C-B627-10277704FE71}
    NAME ""
    PEAKCOL 16576
    BEAT -1
    AUTOMODE 0
    VOLPAN 1 0 -1 -1 1
    MUTESOLO 0 0 0
    IPHASE 0
    PLAYOFFS 0 1
    ISBUS 0 0
    BUSCOMP 0 0 0 0 0
    SHOWINMIX 1 0.6667 0.5 1 0.5 0 -1 0
    FREEMODE 0
    SEL 0
    REC 0 5088 2 0 0 0 0
    VU 2
    TRACKHEIGHT 25 0 0 0 0 0
    INQ 0 0 0 0.5 100 0 0 100
    NCHAN 2
    FX 1
    TRACKID {840FDBA1-3EFB-5D4C-B627-10277704FE71}
    PERF 0
    MIDIOUT -1
    MAINSEND 1 0
    <ITEM
      POSITION 0
      SNAPOFFS 0
      LENGTH 35.9434375
      LOOP 1
      ALLTAKES 0
      FADEIN 1 0 0 1 0 0 0
      FADEOUT 1 0 0 1 0 0 0
      MUTE 0 0
      SEL 0
      IGUID {066A0592-D2B2-C14A-99B7-4024F7BF44BC}
      IID 23
      NAME "02-Recorded MIDI"
      VOLPAN 1 0 1 -1
      SOFFS 0 0
      PLAYRATE 1 1 0 -1 0 0.0025
      CHANMODE 0
      GUID {759CB7DB-648C-F348-8B6C-251D6BBCBF70}
      RECPASS 7
      <SOURCE MIDI
        HASDATA 1 960 QN
        CCINTERP 32
        POOLEDEVTS {6E124138-CAB0-E944-B85D-81631AB7FC2D}
        E 4301 90 4a 36
        E 1912 90 4c 38
        E 22 80 4a 00
        E 1908 90 4e 3b
        E 35 80 4c 00
        E 420 90 4a 41
        E 5 80 4e 00
        E 1961 90 4c 41
        E 42 80 4a 00
        E 1821 90 4e 40
        E 42 80 4c 00
        E 407 80 4e 00
        E 5 90 4a 45
        E 2005 90 4c 47
        E 7 80 4a 00
        E 1884 90 4e 41
        E 29 80 4c 00
        E 416 80 4e 00
        E 8 90 4a 45
        E 1956 90 4c 41
        E 15 80 4a 00
        E 1869 90 4e 3a
        E 31 80 4c 00
        E 419 80 4e 00
        E 15 90 4a 41
        E 1965 90 4c 41
        E 1 80 4a 00
        E 1878 90 4e 3d
        E 31 80 4c 00
        E 468 90 4a 44
        E 1 80 4e 00
        E 1917 90 4c 42
        E 21 80 4a 00
        E 1906 90 4e 43
        E 36 80 4c 00
        E 417 80 4e 00
        E 14 90 4a 47
        E 4288 80 4a 00
        E 28 b0 7b 00
        CCINTERP 32
        CHASE_CC_TAKEOFFS 1
        GUID {41C9C0B2-6445-DD48-A362-75536674D6E0}
        IGNTEMPO 0 120 4 4
        SRCCOLOR 57
        VELLANE -1 100 0
        VELLANE 64 100 0
      >
    >
  >
  <TRACK {0C60D327-81F3-3141-BFFF-203387F9EF1B}
    NAME ""
    PEAKCOL 16576
    BEAT -1
    AUTOMODE 0
    VOLPAN 1 0 -1 -1 1
    MUTESOLO 0 0 0
    IPHASE 0
    PLAYOFFS 0 1
    ISBUS 0 0
    BUSCOMP 0 0 0 0 0
    SHOWINMIX 1 0.6667 0.5 1 0.5 0 -1 0
    FREEMODE 0
    SEL 0
    REC 0 5088 2 0 0 0 0
    VU 2
    TRACKHEIGHT 25 0 0 0 0 0
    INQ 0 0 0 0.5 100 0 0 100
    NCHAN 2
    FX 1
    TRACKID {0C60D327-81F3-3141-BFFF-203387F9EF1B}
    PERF 0
    MIDIOUT -1
    MAINSEND 1 0
    <ITEM
      POSITION 0
      SNAPOFFS 0
      LENGTH 37.9594375
      LOOP 1
      ALLTAKES 0
      FADEIN 1 0 0 1 0 0 0
      FADEOUT 1 0 0 1 0 0 0
      MUTE 0 0
      SEL 0
      IGUID {0E2464D1-44BF-E14B-A77D-A63057574A9D}
      IID 19
      NAME "02-Recorded MIDI"
      VOLPAN 1 0 1 -1
      SOFFS 0 0
      PLAYRATE 1 1 0 -1 0 0.0025
      CHANMODE 0
      GUID {B3EDF747-13DB-6F49-BAF6-52398C5C32DE}
      RECPASS 6
      <SOURCE MIDI
        HASDATA 1 960 QN
        CCINTERP 32
        POOLEDEVTS {A560E28C-F0EC-264C-89C2-701D1481CAE5}
        E 4279 90 39 41
        E 241 90 3e 38
        E 40 80 39 00
        E 234 90 40 3f
        E 12 80 3e 00
        E 225 80 40 00
        E 1 90 42 38
        E 254 80 42 00
        E 25 90 3e 3d
        E 257 80 3e 00
        E 246 90 40 3c
        E 194 80 40 00
        E 277 90 39 48
        E 175 80 39 00
        E 17 90 3e 43
        E 240 80 3e 00
        E 12 90 40 47
        E 218 80 40 00
        E 13 90 42 3d
        E 201 80 42 00
        E 39 90 43 44
        E 217 80 43 00
        E 239 90 42 48
        E 187 80 42 00
        E 290 90 39 4a
        E 192 80 39 00
        E 11 90 3e 43
        E 267 90 40 46
        E 3 80 3e 00
        E 246 90 42 35
        E 5 80 40 00
        E 235 80 42 00
        E 74 90 3e 3c
        E 320 80 3e 00
        E 125 90 40 46
        E 256 80 40 00
        E 3087 90 39 48
        E 189 80 39 00
        E 17 90 3e 41
        E 229 80 3e 00
        E 10 90 40 3f
        E 233 80 40 00
        E 15 90 42 30
        E 204 80 42 00
        E 260 90 45 43
        E 120 80 45 00
        E 379 90 42 47
        E 438 80 42 00
        E 25 90 43 35
        E 353 80 43 00
        E 114 90 3e 38
        E 226 80 3e 00
        E 28 90 40 38
        E 450 80 40 00
        E 16 90 42 3d
        E 459 80 42 00
        E 33 90 3e 44
        E 340 80 3e 00
        E 148 90 39 47
        E 217 80 39 00
        E 7 90 3e 3b
        E 216 80 3e 00
        E 6 90 40 3d
        E 300 90 42 44
        E 18 80 40 00
        E 140 80 42 00
        E 314 90 45 48
        E 182 80 45 00
        E 334 90 47 44
        E 459 80 47 00
        E 19 90 45 3c
        E 253 80 45 00
        E 202 90 40 3c
        E 264 80 40 00
        E 7 90 42 3c
        E 403 80 42 00
        E 29 90 3e 41
        E 380 80 3e 00
        E 98 90 42 3d
        E 309 80 42 00
        E 168 90 39 48
        E 213 90 3e 41
        E 4 80 39 00
        E 222 80 3e 00
        E 3 90 40 42
        E 286 90 42 4a
        E 7 80 40 00
        E 227 80 42 00
        E 233 90 45 4a
        E 268 80 45 00
        E 230 90 43 46
        E 463 80 43 00
        E 25 90 40 3e
        E 438 80 40 00
        E 91 90 42 3d
        E 400 80 42 00
        E 34 90 3e 3b
        E 465 80 3e 00
        E 4 90 40 46
        E 286 80 40 00
        E 127 90 39 48
        E 509 80 39 00
        E 272 90 3e 4b
        E 431 80 3e 00
        E 9638 b0 7b 00
        CCINTERP 32
        CHASE_CC_TAKEOFFS 1
        GUID {449E1158-48D5-764C-A765-6CC519558E4A}
        IGNTEMPO 0 120 4 4
        SRCCOLOR 47
        VELLANE -1 100 0
        VELLANE 64 100 0
      >
    >
  >
  <TRACK {38E96E84-E496-BA41-8DC1-FF23939B5892}
    NAME ""
    PEAKCOL 16576
    BEAT -1
    AUTOMODE 0
    VOLPAN 1 0 -1 -1 1
    MUTESOLO 0 0 0
    IPHASE 0
    PLAYOFFS 0 1
    ISBUS 0 0
    BUSCOMP 0 0 0 0 0
    SHOWINMIX 1 0.6667 0.5 1 0.5 0 -1 0
    FREEMODE 0
    SEL 0
    REC 0 5088 2 0 0 0 0
    VU 2
    TRACKHEIGHT 25 0 0 0 0 0
    INQ 0 0 0 0.5 100 0 0 100
    NCHAN 2
    FX 1
    TRACKID {38E96E84-E496-BA41-8DC1-FF23939B5892}
    PERF 0
    MIDIOUT -1
    MAINSEND 1 0
    <ITEM
      POSITION 0
      SNAPOFFS 0
      LENGTH 45.65010416666667
      LOOP 1
      ALLTAKES 0
      FADEIN 1 0 0 1 0 0 0
      FADEOUT 1 0 0 1 0 0 0
      MUTE 0 0
      SEL 0
      IGUID {BB7DBDF1-1842-0147-944E-A108A091966A}
      IID 16
      NAME "02-Recorded MIDI"
      VOLPAN 1 0 1 -1
      SOFFS 0 0
      PLAYRATE 1 1 0 -1 0 0.0025
      CHANMODE 0
      GUID {F309F3B2-3845-0244-8094-06FFC376D17C}
      RECPASS 5
      <SOURCE MIDI
        HASDATA 1 960 QN
        CCINTERP 32
        POOLEDEVTS {C5A752ED-CFE9-724A-808E-85CE489C550D}
        E 4304 90 3e 48
        E 230 80 3e 00
        E 3 90 40 3b
        E 246 90 42 47
        E 33 80 40 00
        E 156 80 42 00
        E 18 90 3e 41
        E 222 80 3e 00
        E 18 90 40 3c
        E 213 90 42 30
        E 1 80 40 00
        E 257 80 42 00
        E 11 90 3e 43
        E 198 80 3e 00
        E 14 90 40 33
        E 250 90 42 43
        E 15 80 40 00
        E 232 80 42 00
        E 11 90 3e 40
        E 219 80 3e 00
        E 20 90 40 37
        E 246 90 42 3e
        E 19 80 40 00
        E 236 90 3e 44
        E 1 80 42 00
        E 199 80 3e 00
        E 7 90 40 3b
        E 249 90 42 3d
        E 20 80 40 00
        E 186 80 42 00
        E 28 90 3e 39
        E 210 80 3e 00
        E 41 90 40 36
        E 246 80 40 00
        E 1 90 42 32
        E 248 80 42 00
        E 9 90 3e 47
        E 211 80 3e 00
        E 26 90 40 2f
        E 252 90 42 3e
        E 14 80 40 00
        E 215 80 42 00
        E 5 90 3e 3e
        E 197 80 3e 00
        E 14 90 40 39
        E 251 90 42 36
        E 19 80 40 00
        E 216 80 42 00
        E 7 90 3e 40
        E 198 80 3e 00
        E 13 90 40 36
        E 256 90 42 3e
        E 24 80 40 00
        E 204 80 42 00
        E 11 90 3e 3b
        E 212 80 3e 00
        E 19 90 40 37
        E 268 90 42 2d
        E 16 80 40 00
        E 238 80 42 00
        E 7 90 3e 43
        E 190 80 3e 00
        E 18 90 40 3c
        E 269 90 42 3d
        E 18 80 40 00
        E 192 80 42 00
        E 20 90 3e 40
        E 212 80 3e 00
        E 15 90 40 39
        E 219 90 42 37
        E 17 80 40 00
        E 229 80 42 00
        E 16 90 3e 41
        E 200 80 3e 00
        E 19 90 40 38
        E 263 90 42 3d
        E 14 80 40 00
        E 199 80 42 00
        E 7 90 3e 40
        E 216 80 3e 00
        E 14 90 40 42
        E 240 90 42 43
        E 25 80 40 00
        E 228 80 42 00
        E 23 90 3e 48
        E 203 80 3e 00
        E 23 90 40 39
        E 255 90 42 42
        E 22 80 40 00
        E 208 80 42 00
        E 11 90 3e 42
        E 200 80 3e 00
        E 12 90 40 3f
        E 238 90 42 45
        E 24 80 40 00
        E 206 80 42 00
        E 18 90 3e 48
        E 196 80 3e 00
        E 8 90 40 3c
        E 264 90 42 48
        E 26 80 40 00
        E 200 80 42 00
        E 14 90 3e 41
        E 228 80 3e 00
        E 15 90 40 3f
        E 248 90 42 42
        E 20 80 40 00
        E 208 80 42 00
        E 26 90 3e 48
        E 197 80 3e 00
        E 15 90 40 41
        E 249 90 42 42
        E 23 80 40 00
        E 198 80 42 00
        E 11 90 3e 43
        E 208 80 3e 00
        E 11 90 40 44
        E 259 90 42 3e
        E 15 80 40 00
        E 211 80 42 00
        E 24 90 3e 45
        E 210 80 3e 00
        E 13 90 40 39
        E 255 90 42 45
        E 18 80 40 00
        E 209 80 42 00
        E 13 90 3e 42
        E 225 80 3e 00
        E 11 90 40 44
        E 268 90 42 42
        E 22 80 40 00
        E 207 80 42 00
        E 16 90 3e 47
        E 208 80 3e 00
        E 8 90 40 3b
        E 262 90 42 44
        E 11 80 40 00
        E 184 80 42 00
        E 31 90 3e 42
        E 211 80 3e 00
        E 14 90 40 40
        E 234 90 42 3f
        E 9 80 40 00
        E 217 80 42 00
        E 33 90 3e 45
        E 206 80 3e 00
        E 7 90 40 3b
        E 262 90 42 44
        E 18 80 40 00
        E 193 80 42 00
        E 23 90 3e 43
        E 232 80 3e 00
        E 10 90 40 3e
        E 248 90 42 45
        E 18 80 40 00
        E 223 80 42 00
        E 18 90 3e 43
        E 216 80 3e 00
        E 13 90 40 38
        E 252 90 42 42
        E 15 80 40 00
        E 213 80 42 00
        E 20 90 3e 3f
        E 187 80 3e 00
        E 28 90 40 3c
        E 253 90 42 3c
        E 20 80 40 00
        E 211 80 42 00
        E 20 90 3e 47
        E 199 80 3e 00
        E 19 90 40 3b
        E 257 90 42 48
        E 22 80 40 00
        E 176 80 42 00
        E 23 90 3e 42
        E 228 80 3e 00
        E 5 90 40 42
        E 255 90 42 3f
        E 24 80 40 00
        E 213 80 42 00
        E 21 90 3e 43
        E 191 90 40 42
        E 1 80 3e 00
        E 259 90 42 44
        E 19 80 40 00
        E 190 80 42 00
        E 19 90 3e 44
        E 231 80 3e 00
        E 1 90 40 40
        E 251 90 42 45
        E 16 80 40 00
        E 221 80 42 00
        E 11 90 3e 45
        E 215 80 3e 00
        E 3 90 40 44
        E 264 90 42 48
        E 18 80 40 00
        E 196 80 42 00
        E 20 90 3e 46
        E 231 80 3e 00
        E 3 90 40 45
        E 257 90 42 44
        E 14 80 40 00
        E 217 80 42 00
        E 19 90 3e 47
        E 212 80 3e 00
        E 4 90 40 3f
        E 246 90 42 48
        E 22 80 40 00
        E 211 80 42 00
        E 14 90 3e 45
        E 227 80 3e 00
        E 4 90 40 3f
        E 243 90 42 42
        E 4 80 40 00
        E 217 80 42 00
        E 31 90 3e 48
        E 214 90 40 41
        E 3 80 3e 00
        E 244 90 42 45
        E 16 80 40 00
        E 191 80 42 00
        E 13 90 3e 41
        E 232 80 3e 00
        E 1 90 40 45
        E 236 90 42 40
        E 13 80 40 00
        E 249 80 42 00
        E 8 90 3e 44
        E 216 90 40 40
        E 2 80 3e 00
        E 260 90 42 41
        E 16 80 40 00
        E 195 80 42 00
        E 17 90 3e 46
        E 220 80 3e 00
        E 8 90 40 44
        E 234 90 42 44
        E 17 80 40 00
        E 230 80 42 00
        E 15 90 3e 48
        E 206 90 40 3f
        E 12 80 3e 00
        E 253 90 42 45
        E 18 80 40 00
        E 202 80 42 00
        E 12 90 3e 44
        E 221 80 3e 00
        E 3 90 40 44
        E 263 90 42 42
        E 12 80 40 00
        E 242 80 42 00
        E 18 90 3e 48
        E 208 80 3e 00
        E 1 90 40 40
        E 252 90 42 44
        E 17 80 40 00
        E 212 80 42 00
        E 11 90 3e 44
        E 225 90 40 44
        E 3 80 3e 00
        E 248 90 42 43
        E 17 80 40 00
        E 230 80 42 00
        E 19 90 3e 45
        E 211 80 3e 00
        E 5 90 40 39
        E 251 90 42 3f
        E 7 80 40 00
        E 206 80 42 00
        E 15 90 3e 3e
        E 221 80 3e 00
        E 2 90 40 3d
        E 255 90 42 3d
        E 12 80 40 00
        E 226 80 42 00
        E 16 90 3e 47
        E 212 80 3e 00
        E 1 90 40 3f
        E 269 90 42 41
        E 26 80 40 00
        E 194 80 42 00
        E 9 90 3e 41
        E 220 80 3e 00
        E 9 90 40 3f
        E 246 90 42 3f
        E 10 80 40 00
        E 223 80 42 00
        E 19 90 3e 44
        E 213 80 3e 00
        E 9 90 40 3b
        E 245 90 42 40
        E 16 80 40 00
        E 224 80 42 00
        E 13 90 3e 42
        E 223 80 3e 00
        E 5 90 40 3e
        E 242 90 42 3e
        E 11 80 40 00
        E 229 80 42 00
        E 13 90 3e 44
        E 200 80 3e 00
        E 20 90 40 3d
        E 252 90 42 45
        E 15 80 40 00
        E 216 80 42 00
        E 7 90 3e 41
        E 216 80 3e 00
        E 8 90 40 40
        E 255 90 42 3e
        E 23 80 40 00
        E 217 80 42 00
        E 9 90 3e 43
        E 206 80 3e 00
        E 8 90 40 40
        E 260 90 42 43
        E 25 80 40 00
        E 206 80 42 00
        E 6 90 3e 3d
        E 230 90 40 3d
        E 2 80 3e 00
        E 256 80 40 00
        E 4 90 42 3a
        E 154 80 42 00
        E 760 b0 7b 00
        CCINTERP 32
        CHASE_CC_TAKEOFFS 1
        GUID {D18674C9-8838-2446-BE93-5919473ED02C}
        IGNTEMPO 0 120 4 4
        SRCCOLOR 38
        VELLANE -1 100 0
        VELLANE 64 100 0
      >
    >
  >
  <TRACK {6747C6C0-5B5F-6745-BF40-4A9CDDFBF501}
    NAME ""
    PEAKCOL 16576
    BEAT -1
    AUTOMODE 0
    VOLPAN 1 0 -1 -1 1
    MUTESOLO 0 0 0
    IPHASE 0
    PLAYOFFS 0 1
    ISBUS 0 0
    BUSCOMP 0 0 0 0 0
    SHOWINMIX 1 0.6667 0.5 1 0.5 0 -1 0
    FREEMODE 0
    SEL 0
    REC 0 5088 2 0 0 0 0
    VU 2
    TRACKHEIGHT 25 0 0 0 0 0
    INQ 0 0 0 0.5 100 0 0 100
    NCHAN 2
    FX 1
    TRACKID {6747C6C0-5B5F-6745-BF40-4A9CDDFBF501}
    PERF 0
    MIDIOUT -1
    MAINSEND 1 0
    <ITEM
      POSITION 0
      SNAPOFFS 0
      LENGTH 40.53010416666667
      LOOP 1
      ALLTAKES 0
      FADEIN 1 0 0 1 0 0 0
      FADEOUT 1 0 0 1 0 0 0
      MUTE 0 0
      SEL 0
      IGUID {84311F4E-8BAD-6D4C-88D8-40D3B061B8AB}
      IID 14
      NAME "02-Recorded MIDI"
      VOLPAN 1 0 1 -1
      SOFFS 0 0
      PLAYRATE 1 1 0 -1 0 0.0025
      CHANMODE 0
      GUID {C0558DE4-0155-F447-9242-F8033995CC4A}
      RECPASS 4
      <SOURCE MIDI
        HASDATA 1 960 QN
        CCINTERP 32
        POOLEDEVTS {DE29E648-7575-DB43-B5DC-30208DCE6D01}
        E 4303 90 26 4a
        E 185 80 26 00
        E 265 90 26 4e
        E 200 80 26 00
        E 297 90 26 4f
        E 197 80 26 00
        E 288 90 26 5d
        E 181 80 26 00
        E 298 90 26 5a
        E 180 80 26 00
        E 289 90 26 5a
        E 202 80 26 00
        E 305 90 26 4f
        E 182 80 26 00
        E 287 90 26 59
        E 199 80 26 00
        E 270 90 2d 51
        E 502 80 2d 00
        E 5 90 26 61
        E 223 80 26 00
        E 244 90 26 51
        E 206 80 26 00
        E 263 90 26 5c
        E 173 80 26 00
        E 298 90 26 56
        E 214 80 26 00
        E 271 90 26 5a
        E 184 80 26 00
        E 289 90 26 59
        E 189 80 26 00
        E 311 90 26 5d
        E 216 80 26 00
        E 255 90 2d 58
        E 231 80 2d 00
        E 248 90 2d 4f
        E 396 80 2d 00
        E 82 90 26 5d
        E 216 80 26 00
        E 264 90 26 5d
        E 200 80 26 00
        E 292 90 26 60
        E 203 80 26 00
        E 266 90 26 55
        E 196 80 26 00
        E 282 90 26 5d
        E 193 80 26 00
        E 293 90 26 63
        E 211 80 26 00
        E 242 90 2d 54
        E 244 80 2d 00
        E 257 90 2d 52
        E 223 80 2d 00
        E 254 90 2d 59
        E 214 80 2d 00
        E 267 90 26 63
        E 212 80 26 00
        E 260 90 26 61
        E 196 80 26 00
        E 284 90 26 5e
        E 191 80 26 00
        E 288 90 26 62
        E 208 80 26 00
        E 280 90 26 61
        E 228 80 26 00
        E 263 90 2d 4e
        E 234 80 2d 00
        E 246 90 2d 4f
        E 220 80 2d 00
        E 259 90 2d 4f
        E 236 80 2d 00
        E 257 90 2d 51
        E 238 80 2d 00
        E 225 90 26 64
        E 217 80 26 00
        E 253 90 26 5a
        E 212 80 26 00
        E 270 90 26 58
        E 218 80 26 00
        E 262 90 26 5e
        E 223 80 26 00
        E 257 90 2d 4c
        E 204 80 2d 00
        E 269 90 2d 51
        E 185 80 2d 00
        E 297 90 2d 4f
        E 203 80 2d 00
        E 291 90 2d 4e
        E 198 80 2d 00
        E 288 90 2d 4e
        E 204 80 2d 00
        E 256 90 26 5e
        E 218 80 26 00
        E 271 90 26 56
        E 226 80 26 00
        E 262 90 26 62
        E 223 80 26 00
        E 230 90 2d 4f
        E 225 80 2d 00
        E 262 90 2d 4e
        E 197 80 2d 00
        E 272 90 2d 4f
        E 217 80 2d 00
        E 262 90 2d 51
        E 210 80 2d 00
        E 290 90 2d 4e
        E 188 80 2d 00
        E 287 90 2d 4e
        E 181 80 2d 00
        E 292 90 26 5a
        E 225 80 26 00
        E 277 90 26 62
        E 190 80 26 00
        E 287 90 2d 4d
        E 196 80 2d 00
        E 269 90 2d 4f
        E 180 80 2d 00
        E 302 90 2d 4f
        E 182 80 2d 00
        E 296 90 2d 4f
        E 204 80 2d 00
        E 284 90 2d 4f
        E 203 80 2d 00
        E 274 90 2d 4e
        E 202 80 2d 00
        E 278 90 2d 53
        E 211 80 2d 00
        E 274 90 26 59
        E 254 80 26 00
        E 230 90 2d 53
        E 227 80 2d 00
        E 261 90 2d 52
        E 192 80 2d 00
        E 289 90 2d 4e
        E 193 80 2d 00
        E 274 90 2d 4f
        E 200 80 2d 00
        E 278 90 2d 4c
        E 198 80 2d 00
        E 280 90 2d 4e
        E 202 80 2d 00
        E 277 90 2d 4c
        E 216 80 2d 00
        E 267 90 2d 52
        E 166 80 2d 00
        E 381 b0 7b 00
        CCINTERP 32
        CHASE_CC_TAKEOFFS 1
        GUID {B761C941-B2F7-4344-BDE6-C612C7B544CF}
        IGNTEMPO 0 120 4 4
        SRCCOLOR 34
        VELLANE -1 100 0
        VELLANE 64 100 0
      >
    >
  >
  <TRACK {88A4594C-C024-5246-BE57-5D1FE280C091}
    NAME ""
    PEAKCOL 16576
    BEAT -1
    AUTOMODE 0
    VOLPAN 1 0 -1 -1 1
    MUTESOLO 0 0 0
    IPHASE 0
    PLAYOFFS 0 1
    ISBUS 2 -1
    BUSCOMP 0 0 0 0 0
    SHOWINMIX 1 0.6667 0.5 1 0.5 0 -1 0
    FREEMODE 0
    SEL 0
    REC 0 5088 2 0 0 0 0
    VU 2
    TRACKHEIGHT 25 0 0 0 0 0
    INQ 0 0 0 0.5 100 0 0 100
    NCHAN 2
    FX 1
    TRACKID {88A4594C-C024-5246-BE57-5D1FE280C091}
    PERF 0
    MIDIOUT -1
    MAINSEND 1 0
    <ITEM
      POSITION 0
      SNAPOFFS 0
      LENGTH 59.16477083333334
      LOOP 1
      ALLTAKES 0
      FADEIN 1 0 0 1 0 0 0
      FADEOUT 1 0 0 1 0 0 0
      MUTE 0 0
      SEL 0
      IGUID {979F2237-CE79-FF46-A133-589A3C2742F3}
      IID 12
      NAME "01-Recorded MIDI"
      VOLPAN 1 0 1 -1
      SOFFS 0 0
      PLAYRATE 1 1 0 -1 0 0.0025
      CHANMODE 0
      GUID {0056DE02-72C4-B848-B20E-7624B182F001}
      RECPASS 3
      <SOURCE MIDI
        HASDATA 1 960 QN
        CCINTERP 32
        POOLEDEVTS {81141851-3EF3-BA45-B44B-A5FFB06C048F}
        E 8591 90 26 47
        E 1443 90 2d 45
        E 25 80 26 00
        E 1416 90 32 4b
        E 11 80 2d 00
        E 1443 80 32 00
        E 5 90 34 4a
        E 1412 90 32 4a
        E 9 80 34 00
        E 1427 90 39 4b
        E 2 80 32 00
        E 1451 90 37 45
        E 14 80 39 00
        E 1424 90 36 42
        E 9 80 37 00
        E 1429 80 36 00
        E 2 90 32 4b
        E 1418 90 26 4f
        E 16 80 32 00
        E 1452 90 2d 49
        E 9 80 26 00
        E 1445 90 32 4b
        E 15 80 2d 00
        E 1398 90 34 4c
        E 5 80 32 00
        E 1440 90 3b 59
        E 6 80 34 00
        E 6 d0 10 00
        E 9 d0 00 00
        E 1407 90 39 4b
        E 18 80 3b 00
        E 1471 90 36 47
        E 1 80 39 00
        E 1393 90 37 46
        E 24 80 36 00
        E 1303 80 37 00
        E 98 90 26 4e
        E 1486 90 2a 4d
        E 1 80 26 00
        E 1396 80 2a 00
        E 7 90 2b 4b
        E 1485 90 2d 4c
        E 59 80 2b 00
        E 1331 90 34 54
        E 12 d0 0e 00
        E 7 80 2d 00
        E 2 d0 00 00
        E 1427 90 32 42
        E 1 80 34 00
        E 1469 80 32 00
        E 4 90 2d 42
        E 10122 80 2d 00
        E 4942 b0 7b 00
        CCINTERP 32
        CHASE_CC_TAKEOFFS 1
        GUID {7DF3E2C6-5291-4D43-AEF9-36D837A6CB41}
        IGNTEMPO 0 120 4 4
        SRCCOLOR 26
        VELLANE -1 100 0
        VELLANE 64 100 0
      >
    >
  >
  <TRACK {287E23CA-2C08-A949-BE0F-DF9C5A810CA0}
    NAME Aux
    PEAKCOL 16576
    BEAT -1
    AUTOMODE 0
    VOLPAN 1 0 -1 -1 1
    MUTESOLO 0 0 0
    IPHASE 0
    PLAYOFFS 0 1
    ISBUS 0 0
    BUSCOMP 0 0 0 0 0
    SHOWINMIX 1 0.6667 0.5 0 0.5 0 0 0
    FREEMODE 0
    SEL 0
    REC 0 0 0 0 0 0 0
    VU 2
    TRACKHEIGHT 0 0 0 0 0 0
    INQ 0 0 0 0.5 100 0 0 100
    NCHAN 6
    FX 1
    TRACKID {287E23CA-2C08-A949-BE0F-DF9C5A810CA0}
    PERF 0
    AUXRECV 0 0 1 0 0 0 0 2048 0 -1:U 4177951 -1 ''
    AUXRECV 0 0 0.50118723362727 0 0 0 0 4 4 -1:U 4177951 -1 ''
    MIDIOUT -1
    MAINSEND 0 0
    <FXCHAIN
      WNDRECT 327 65 1065 722
      SHOW 0
      LASTSEL 0
      DOCKED 0
      BYPASS 0 0 0
      <VST "VST3: BusHead          (CabbageAudio    ) (6ch)" BusHead.vst3 0 "" 131310216{ABCDEF019182FAEB4361626230303033} ""
        iKLTB+5e7f4GAAAAAQAAAAAAAAACAAAAAAAAAAQAAAAAAAAACAAAAAAAAAAQAAAAAAAAACAAAAAAAAAABgAAAAEAAAAAAAAAAgAAAAAAAAAEAAAAAAAAAAgAAAAAAAAA
        EAAAAAAAAAAgAAAAAAAAACYBAAABAAAA//8QAA==
        FgEAAAEAAABWQzIh0QAAADw/eG1sIHZlcnNpb249IjEuMCIgZW5jb2Rpbmc9IlVURi04Ij8+IDxDQUJCQUdFX1BSRVNFVFM+PFBSRVNFVDAgUHJlc2V0TmFtZT0iQ0FC
        QkFHRV9QUkVTRVRTIDAiIGluc3RhbmNlTmFtZT0iMiIgdHJhY2tJbmRleD0iMSIgcGx1Z2luSW5kZXg9IjAiIHBsdWdpblV1aWQ9IjRjM2M2MzdiYjk2NDQ1MzRiNDA2
        YWU2M2NmZDI3ZDlkIi8+PC9DQUJCQUdFX1BSRVNFVFM+AAAAAAAAAAAASlVDRVByaXZhdGVEYXRhAAEBQnlwYXNzAAEBAwAdAAAAAAAAAEpVQ0VQcml2YXRlRGF0YQAA
        AAAAAAAA
        AEZhY3RvcnkgUHJlc2V0cwAQAAAA
      >
      PRESETNAME "Factory Presets"
      FLOATPOS 451 87 960 694
      FXID {2818DC07-E9BA-D443-8A07-CADA1467F447}
      WAK 1 0
      BYPASS 0 0 0
      <VST "VST3: Reverb           (CabbageAudio    ) (6ch)" Reverb.vst3 0 "" 205275414{ABCDEF019182FAEB4361626230313030} ""
        FkE8DO5e7f4GAAAAAQAAAAAAAAACAAAAAAAAAAQAAAAAAAAACAAAAAAAAAAQAAAAAAAAACAAAAAAAAAABgAAAAEAAAAAAAAAAgAAAAAAAAAEAAAAAAAAAAgAAAAAAAAA
        EAAAAAAAAAAgAAAAAAAAAOQBAAABAAAA//8QAA==
        1AEAAAEAAABWQzIhjwEAADw/eG1sIHZlcnNpb249IjEuMCIgZW5jb2Rpbmc9IlVURi04Ij8+IDxDQUJCQUdFX1BSRVNFVFM+PFBSRVNFVDAgUHJlc2V0TmFtZT0iQ0FC
        QkFHRV9QUkVTRVRTIDAiIGluc3RhbmNlTmFtZT0iIiB0cmFja0luZGV4PSIiIHBsdWdpbkluZGV4PSIiIHBsdWdpblV1aWQ9IjhkMjcxYWExNmM0MDRlMTg5ZmE1OTg1
        Y2U3NDg0NzY3IiBmaXJzdF90YWJfYnVnX3dvcmthcm91bmRfdGFiPSIwLjAiIHJldmVyYl90YWI9IjEuMCIgbG9nX3RhYj0iMC4wIiBlbmFibGVkPSIxLjAiIHNpemU9
        IjAuOTQ5OTk5OTg4MDc5MDcxIiBjdXRvZmZGcmVxdWVuY3k9IjIwMDAwLjAiIHZhcmlhdGlvbkRlcHRoPSIwLjEwMDAwMDAwMTQ5MDExNjEiIGRyeVdldD0iMS4wIiB2
        b2x1bWU9IjEuMCIvPjwvQ0FCQkFHRV9QUkVTRVRTPgAAAAAAAAAAAEpVQ0VQcml2YXRlRGF0YQABAUJ5cGFzcwABAQMAHQAAAAAAAABKVUNFUHJpdmF0ZURhdGEAAAAA
        AAAAAA==
        AAAQAAAA
      >
      FLOATPOS 705 53 1000 570
      FXID {BCD799E2-BD8C-1740-8E41-AFBFB9305844}
      WAK 0 0
    >
  >
  <TRACK {63E5B392-0533-4446-AD46-E347E98D1B2B}
    NAME Master
    PEAKCOL 16576
    BEAT -1
    AUTOMODE 0
    VOLPAN 1 0 -1 -1 1
    MUTESOLO 0 0 0
    IPHASE 0
    PLAYOFFS 0 1
    ISBUS 0 0
    BUSCOMP 0 0 0 0 0
    SHOWINMIX 1 0.6667 0.5 0 0.5 0 0 0
    FREEMODE 0
    SEL 0
    REC 0 0 0 0 0 0 0
    VU 2
    TRACKHEIGHT 0 0 0 0 0 0
    INQ 0 0 0 0.5 100 0 0 100
    NCHAN 6
    FX 1
    TRACKID {63E5B392-0533-4446-AD46-E347E98D1B2B}
    PERF 0
    AUXRECV 8 0 1 0 0 0 0 2048 0 -1:U 4177951 -1 ''
    AUXRECV 8 0 1 0 0 0 0 4 4 -1:U 4177951 -1 ''
    MIDIOUT -1
    MAINSEND 0 0
    <FXCHAIN
      WNDRECT 241 153 1065 722
      SHOW 0
      LASTSEL 0
      DOCKED 0
      BYPASS 0 0 0
      <VST "VST3: MasterHead       (CabbageAudio    ) (6ch)" MasterHead.vst3 0 "" 248753549{ABCDEF019182FAEB4361626230303034} ""
        ja3TDu5e7f4GAAAAAQAAAAAAAAACAAAAAAAAAAQAAAAAAAAACAAAAAAAAAAQAAAAAAAAACAAAAAAAAAABgAAAAEAAAAAAAAAAgAAAAAAAAAEAAAAAAAAAAgAAAAAAAAA
        EAAAAAAAAAAgAAAAAAAAACUBAAABAAAA//8QAA==
        FQEAAAEAAABWQzIh0AAAADw/eG1sIHZlcnNpb249IjEuMCIgZW5jb2Rpbmc9IlVURi04Ij8+IDxDQUJCQUdFX1BSRVNFVFM+PFBSRVNFVDAgUHJlc2V0TmFtZT0iQ0FC
        QkFHRV9QUkVTRVRTIDAiIGluc3RhbmNlTmFtZT0iIiB0cmFja0luZGV4PSIyIiBwbHVnaW5JbmRleD0iMCIgcGx1Z2luVXVpZD0iZDI1NTEwNzQ0YTc2NGY2ZWI1MTVk
        NzlkODQ5ZDVmMGQiLz48L0NBQkJBR0VfUFJFU0VUUz4AAAAAAAAAAABKVUNFUHJpdmF0ZURhdGEAAQFCeXBhc3MAAQEDAB0AAAAAAAAASlVDRVByaXZhdGVEYXRhAAAA
        AAAAAAA=
        AEZhY3RvcnkgUHJlc2V0cwAQAAAA
      >
      PRESETNAME "Factory Presets"
      FLOATPOS 443 110 960 694
      FXID {C76EC94D-35FB-B742-82EA-931E33EDE5A9}
      WAK 0 0
    >
  >
  <TRACK {ED3BBFC5-F01A-7943-A293-98C96281065A}
    NAME "Output Routing"
    PEAKCOL 16576
    BEAT -1
    AUTOMODE 0
    VOLPAN 1 0 -1 -1 1
    MUTESOLO 0 0 0
    IPHASE 0
    PLAYOFFS 0 1
    ISBUS 0 0
    BUSCOMP 0 0 0 0 0
    SHOWINMIX 1 0.6667 0.5 0 0.5 0 -1 0
    FREEMODE 0
    SEL 0
    REC 0 0 1 0 0 0 0
    VU 2
    TRACKHEIGHT 0 0 0 0 0 0
    INQ 0 0 0 0.5 100 0 0 100
    NCHAN 6
    FX 1
    TRACKID {ED3BBFC5-F01A-7943-A293-98C96281065A}
    PERF 0
    AUXRECV 9 0 1 0 0 0 0 2048 0 -1:U 4177951 -1 ''
    AUXRECV 9 0 1 0 0 0 0 4 0 -1:U 4177951 -1 ''
    MIDIOUT -1
    MAINSEND 1 0
  >
>
