<REAPER_PROJECT 0.1 "6.21/OSX64-clang" 1616976894
  RIPPLE 0
  GROUPOVERRIDE 0 0 0
  AUTOXFADE 1
  ENVATTACH 1
  POOLEDENVATTACH 0
  MIXERUIFLAGS 11 52
  PEAKGAIN 1.61051
  FEEDBACK 0
  PANLAW 1
  PROJOFFS 0 0 0
  MAXPROJLEN 0 600
  GRID 3199 8 1 8 1 0 0 0
  TIMEMODE 1 5 -1 30 0 0 -1
  VIDEO_CONFIG 0 0 256
  PANMODE 3
  CURSOR 0
  ZOOM 5.54464842733784 0 0
  VZOOMEX 0 0
  USE_REC_CFG 0
  RECMODE 1
  SMPTESYNC 0 30 100 40 1000 300 0 0 1 0 0
  LOOP 0
  LOOPGRAN 0 4
  RECORD_PATH "" ""
  <RECORD_CFG
  >
  <APPLYFX_CFG
  >
  RENDER_FILE ""
  RENDER_PATTERN ""
  RENDER_FMT 0 2 0
  RENDER_1X 0
  RENDER_RANGE 1 0 0 18 1000
  RENDER_RESAMPLE 3 0 1
  RENDER_ADDTOPROJ 0
  RENDER_STEMS 0
  RENDER_DITHER 0
  TIMELOCKMODE 1
  TEMPOENVLOCKMODE 1
  ITEMMIX 0
  DEFPITCHMODE 589824 0
  TAKELANE 1
  SAMPLERATE 44100 0 0
  <RENDER_CFG
  >
  LOCK 1
  <METRONOME 5 2
    VOL 1 1
    FREQ 800 1600 1
    BEATLEN 4
    SAMPLES "" ""
    PATTERN 2863311530 2863311529
  >
  GLOBAL_AUTO -1
  TEMPO 120 4 4
  PLAYRATE 1 0 0.25 4
  SELECTION 145 145
  SELECTION2 145 145
  MASTERAUTOMODE 0
  MASTERTRACKHEIGHT 0 0
  MASTERPEAKCOL 16576
  MASTERMUTESOLO 0
  MASTERTRACKVIEW 0 0.6667 0.5 0.5 0 0 0 0 0 0 -1 -1 0
  MASTERHWOUT 0 0 1 0 0 0 0 -1
  MASTER_NCH 2 2
  MASTER_VOLUME 1 0 -1 -1 1
  MASTER_FX 1
  MASTER_SEL 0
  <MASTERFXLIST
    WNDRECT 471 71 1199 716
    SHOW 0
    LASTSEL 0
    DOCKED 0
  >
  <MASTERPLAYSPEEDENV
    EGUID {8F2A3379-5F42-6F46-BE2D-3C6A785FD8AC}
    ACT 0 -1
    VIS 0 1 1
    LANEHEIGHT 0 0
    ARM 0
    DEFSHAPE 0 -1 -1
  >
  <TEMPOENVEX
    EGUID {456A793D-3BEC-0F45-84D3-A4E11143861C}
    ACT 0 -1
    VIS 1 0 1
    LANEHEIGHT 0 0
    ARM 0
    DEFSHAPE 1 -1 -1
    PT 0.000000000000 120.0000000000 1 262148 1 1
  >
  MARKER 1 3.965 Start 0 0 1 B {847941AF-6167-CB4C-BE27-5AAC95420B58}
  MARKER 3 9.965 "Piano - high in" 0 0 1 B {1F2C02DE-D3C1-8C49-8ECE-D8E7437C8F6B}
  MARKER 2 92.48052692131662 "Piano - low 8vb in" 0 0 1 B {14FAE4FF-C25F-3843-A848-C950CA088D17}
  MARKER 4 121.89809070140387 "Piano - last note" 0 0 1 B {D2ED2616-76BB-0249-9F61-32C7AF4795FA}
  <PROJBAY
  >
  <TRACK {ECE93F0E-D8F2-AD42-ACEF-384CE44A3BD2}
    NAME Piano
    PEAKCOL 16576
    BEAT -1
    AUTOMODE 0
    VOLPAN 1 0 -1 -1 1
    MUTESOLO 1 0 0
    IPHASE 0
    PLAYOFFS 0 1
    ISBUS 0 0
    BUSCOMP 0 0 0 0 0
    SHOWINMIX 0 0.6667 0.5 0 0.5 0 -1 0
    FREEMODE 0
    SEL 0
    REC 0 4096 1 0 0 0 0
    VU 2
    TRACKHEIGHT 0 0 0 0 0 0
    INQ 0 0 0 0.5 100 0 0 100
    NCHAN 2
    FX 1
    TRACKID {ECE93F0E-D8F2-AD42-ACEF-384CE44A3BD2}
    PERF 0
    MIDIOUT -1
    MAINSEND 1 0
    <FXCHAIN
      WNDRECT 32 530 831 493
      SHOW 0
      LASTSEL 1
      DOCKED 0
      BYPASS 0 0 0
      <VST "VST: ReaControlMIDI (Cockos)" reacontrolMIDI.vst.dylib 0 "" 1919118692<56535472636D64726561636F6E74726F> ""
        ZG1jcu5e7f4AAAAAAAAAAO8AAAABAAAAAAAQAA==
        /////wAAAAAAAAAAAAAAAAkAAAAMAAAAAQAAAP8/AAAAIAAAACAAAAAAAAA+AAAAL1VzZXJzL2FuZHkvTGlicmFyeS9BcHBsaWNhdGlvbiBTdXBwb3J0L1JFQVBFUi9E
        YXRhL0dNLnJlYWJhbmsAAAAAAAAAAAAAAAAAAAAAAAAAAAAAAAAAAAAAAAAAAAAAAAABAAAAAAAAAAAAAAAAAAAAAAAAAAAAAAAAAAAAAAYAAABNYWpvcgANAAAAMTAy
        MDM0MDUwNjA3AAEAAAAAAAAAAAAAAAAKAAAADQAAAAEAAAAAAAAAAAAAAAAAAAA=
        AAAQAAAA
      >
      FLOATPOS 0 0 0 0
      FXID {F25F8742-8813-BF4B-BD2D-8732A6628805}
      WAK 0 0
      BYPASS 0 0 0
      <AU "AUi: Pianoteq 5 STAGE (Modartt)" "Modartt: Pianoteq 5 STAGE" "" 1635085685 1349793133 1298428532
        6QMAAAAAAAAAAAAAAgAAAAEAAAAAAAAAAgAAAAAAAAC2KwAAPD94bWwgdmVyc2lvbj0iMS4wIiBlbmNvZGluZz0iVVRGLTgiPz4KPCFET0NUWVBFIHBsaXN0IFBVQkxJ
        QyAiLS8vQXBwbGUvL0RURCBQTElTVCAxLjAvL0VOIiAiaHR0cDovL3d3dy5hcHBsZS5jb20vRFREcy9Qcm9wZXJ0eUxpc3QtMS4wLmR0ZCI+CjxwbGlzdCB2ZXJzaW9u
        PSIxLjAiPgo8ZGljdD4KCTxrZXk+ZGF0YTwva2V5PgoJPGRhdGE+CglBQUFBQUFBQUFBQUFBQUJMQUFBQUFBQUFBQUFBQUFBQkFBQUFBQUFBQUFJQUFBQUFBQUFBQXdB
        QUFBQUFBQUFFQUFBQQoJQUFBQUFBVUFBQUFBQUFBQUJnQUFBQUFBQUFBSEFBQUFBQUFBQUFnQUFBQUFBQUFBQ1FBQUFBQUFBQUFLQUFBQUFBQUEKCUFBc0FBQUFBQUFB
        QURBQUFBQUFBQUFBTkFBQUFBQUFBQUE0QUFBQUFBQUFBRHdBQUFBQUFBQUFRQUFBQUFBQUFBQkVBCglBQUFBQUFBQUVnQUFBQUFBQUFBVEFBQUFBQUFBQUJRQUFBQUFB
        QUFBRlFBQUFBQUFBQUFXQUFBQUFBQUFBQmNBQUFBQQoJQUFBQUdBQUFBQUFBQUFBWkFBQUFBQUFBQUJvQUFBQUFBQUFBR3dBQUFBQUFBQUFjQUFBQUFBQUFBQjBBQUFB
        QUFBQUEKCUhnQUFBQUFBQUFBZkFBQUFBQUFBQUNBQUFBQUFBQUFBSVFBQUFBQUFBQUFpQUFBQUFBQUFBQ01BQUFBQUFBQUFKQUFBCglBQUFBQUFBbEFBQUFBQUFBQUNZ
        QUFBQUFBQUFBSndBQUFBQUFBQUFvQUFBQUFBQUFBQ2tBQUFBQUFBQUFLZ0FBQUFBQQoJQUFBckFBQUFBQUFBQUN3QUFBQUFBQUFBTFFBQUFBQUFBQUF1QUFBQUFBQUFB
        QzhBQUFBQUFBQUFNQUFBQUFBQUFBQXgKCUFBQUFBQUFBQURJQUFBQUFBQUFBTXdBQUFBQUFBQUEwQUFBQUFBQUFBRFVBQUFBQUFBQUFOZ0FBQUFBQUFBQTNBQUFBCglB
        QUFBQURnQUFBQUFBQUFBT1FBQUFBQUFBQUE2QUFBQUFBQUFBRHNBQUFBQUFBQUFQQUFBQUFBQUFBQTlBQUFBQUFBQQoJQUQ0QUFBQUFBQUFBUHdBQUFBQUFBQUJBQUFB
        QUFBQUFBRUVBQUFBQUFBQUFRZ0FBQUFBQUFBQkRBQUFBQUFBQUFFUUEKCUFBQUFBQUFBUlFBQUFBQUFBQUJHQUFBQUFBQUFBRWNBQUFBQUFBQUFTQUFBQUFBQUFBQkpB
        QUFBQUFBQUFFb0FBQUFBCgk8L2RhdGE+Cgk8a2V5Pmp1Y2VQbHVnaW5TdGF0ZTwva2V5PgoJPGRhdGE+CglVSEpXU3hZQUFBSllSbFJROGhzQUFBb0FBQUF5TURJeEx6
        QXlMekkxSFFBQUFGQnBZVzV2ZEdWeElGTlVRVWRGSURVdQoJT0M0eEx6SXdNVFl4TVRJMVNKaG1IZ0dEN2tCZVBpc2kwb3l1SldSc2JHR3JHd0FBZEdSMFRYSUdBQUFS
        QUFBQVJEUWcKCVJHRnBiSGtnVUhKaFkzUnBZMlVBQUFBQUdnQUFBRU52Y0hseWFXZG9kQ0FvWXlrZ01qQXhOaUJOYjJSaGNuUjBod0FBCglBRlJvYVhNZ2NISmxjMlYw
        SUc5bVptVnljeUJoSUdOc1pXRnVJSE52ZFc1a0xDQjViM1VnYldGNUlHeHBhMlVnZEc4ZwoJZFhObElHbDBJR1p2Y2lCNWIzVnlJR1JoYVd4NUlIQnlZV04wYVdObExp
        QkJiSE52SUdFZ1oyOXZaQ0J6ZEdGeWRHbHUKCVp5QndiMmx1ZENCbWIzSWdjSEpsY0dGeWFXNW5JRzVsZHlCd2NtVnpaWFJ6TGdBQUFBQkdBQUFBRVFBQUFFUTBJRVJo
        CglhV3g1SUZCeVlXTjBhV05sQUFBQUFJc0ZBQUJIVWxWVkFBQUFCZ0FBQUFFRHdFMVVjbXNBQUFWMUFQOENEeUJRYVdWMAoJSUVSbElGSnBaR1JsY2dDUUtpbDRnQ3BW
        QnBBckpJTXhnQ3NOYUpBa0tvSUhnQ1FjTXBBM0xZRUpnRGRQZ21hUVBER0IKCVRvQThSVmFRS3lvRlB6dUJUSUEvYkZhUVF5OHFOeUNCR0lCRFVnUTNLMG9ySllFUmtE
        ODBDQ1VsY29BL1d6MGxUVktRCglRaXNJSmlLQk9vQkNTb0Vza0RraGdoU0FPVXFCSUNZYk5KQStNSU5NTFVLQklvQXRTb0pDa0RJOWdWZUFNanRDa0NzeQoJUW9BK2JJ
        TWxrREl0Z2h3dlBDQ0FLMmtLTWkxOUwwOUZrRHBQQ2pWS2dWV0FPbU1ia0RzK0NZQTFJb0ltTzBBRWtEdzQKCWdTdUFQR2xIa0VGQkZESTVnU0tBTW1aWWtEaFFnazBr
        U29KWGdEaGdnU2FRTno0R1AwODNnRUZGZ3hZa0NTaVFNRUdCCgljb0EzUUI2UUswRXFnREEyWno5ZGZKQXdPRktBS3dVY01GS0JBSkFrVUlFZ2dDUmpiWkE4UllGd2dE
        eG1CNUEvTVlJSgoJUVZrR2dEOXlGSkF3UW9GZ2dFRnZlVEFGZnBCQ1pvRTVnRUpTTHBCRFZGSXdMWGVBUTJrNmtFUlBnUjZBTUU4MVJHazUKCWtFVkdCQ1l4aEJJd0xp
        aUFKbStCYVpCRFZTK0FSVnVDUWpBMFlaQkVXZ3lBUTAwQWtDMUJCVEEyZ1IyQU1GMEFSR3hWCglrRVZlRWpBZGdSYUFNR0F0UldrdGtFWmJDU28zVUlBdE5CeEdZelFx
        WUZTUVIwd05LekdCZUlCSExRbVFRU0NCY0lCQgoJV3gyUVFpcUJTSUJDV3drckdVeVFRMVVJTWthQk1ZQXlZQ1ZEYklGMmtFdHRnUXlBUzJPQ1paQXZQUTFLWG9FemdF
        cEYKCVd5OXBCcEJJUEFRd09ZRnVnRWhwTURBOWdUYVFKQytCUTRBa0oyZVFRMk9CU0lCRFJZSXBrRUpWQ2pCVmNvQkNab0VFCglrRU5GYW9Bd0lZRUVrQ3N0RWtaRklZ
        QkRZNEVtUm1rQ0swVTNrQ2hLQlVoYmdnbUFTR01aa0VaQ0hZQW9Tb0VMUmppQwoJUHBBMFRRQTZSd0JBVHpraU5JRlpnRHBzV2pSc1JVQnNQU0l5R0pBb1JvRjdMbEJQ
        Z0Noc2dTT1FQVitCTklBOVd3a3UKCVprV1FQa1VMS1VXQllZQStZQ1NRUEM2QlY0QThWWUZrS1VkSWtEaExIREEyZ3grQU9Hd2hrRGRaZ1JxQU1Ha3lOMXN1CglrRFZR
        Q3l4VWdTeUFMRmd2TldBTmtEZEdFREE5Z1UrQU4yQUlNRW9va0NaUEFqaEZnUytBT0c5WGtEa3ZnZ1E4TENDQQoJT1J4SkpsV0JKNUEvU3dpQVBHa1BrREJRZ1N1QU1F
        VXVrRUpnRWpBSkQ0QS9hV3hDYnpzd1NqcVFSV2d0TUJKamdFVnMKCUVqQm1WNUJFVmlZcVJvRllRMUF6Z0VSTklFTmpIeXBtZ1FXUVFrb1RLMEtCSG9CQ2FWQ1FRem1C
        TllCRFlFYVFSRTkvCglnRVJwUml0WVRwQkZhQVl2VTRGL2dFVnNTQzgyZ1JtUU1sb0FSbWVCTzRCR2JDdVFSMHc4Z0RJWWdVS1FMMHFCTDRBdgoJWFFSSFl6MlFTRnNI
        TUdhQlg0QkliQTB3V3hLUVMyOGJNMmhRZ0V0c2dRY3pXNEZTa0VoVkFEQmtnUUdBU0dCbE1FSW8KCWtFTnBFU3RNZ1NDQVEyQTdLMlpRa0NjNEJEOUZnVGVBSnowTlAy
        YUJOWkJEVmdBcmE0RWdnRU5qYnBBblN3SS9QQldBCglLMVY5UDBjZUoyWk9rQ1pOQWo0OGdUT0FQaTA3a0NvNEFFSkFib0FtVWhSQ1BTVXFXMVNRUldRVExWVUFMeFNC
        QjRCRgoJYVVZdmJCUXRab0Yva0N4cUJFUnFnVU9BUkdrdExHbUJYSkFxWVFkQ1o0RXhnRUpzSVNwdk01QXJXZ0pEVm9FeGdDdHYKCUUwTm1naHFRUm1FRVFWOEVLMWc1
        UjE4YWdFWnljMEZtUFN0VkgwZGdnVk9RTW1jSlNtb0NRV21DRDRCQkowZ3lRaFZLCglZNFFia0RBNmdYQXpQaVdBTUFDQmNKQTNLNEVjZ0RjQUx6TUFIWkE4VTRGL2dE
        d0FDcEEvVTRGc1ExSVFnRDhBZ1VKRAoJQUI2UVNFcUJFWUJJQUhxUVN6dUNISUJMQUFPUVQxQ0JWSUJQQUlKUGtGQmpDQ3RjQjBwaUFqZGtCRk5nZ1ZDQVNnQVIKCVVB
        QUFVd0JqTndBQ0t3Q0NWWkFrWndJd1pBaFBZZ05JVndSVVl4SkxYd0FyWUFWUlhJRUxnQ3NBRTFRQUJDUUFDMUVBCglKMHNBTVRBQUVVOEFnUTBrUUFBclFBQXdRQUF6
        UUFBM1FBQThRQUEvUUFCRFFBQklRQUJLUUFCTFFBQlBRQUJRUUFCUgoJUUFCVFFBQlVRQUQvTHdCUWNuTlZLUlVBQUMwQUFBQUNBQUFBWkRRQUFBQUFDQUFBQUVkeVlX
        NWtJRVEwQUFBQUFBTUEKCUFBQURBQUFBQUFDb1FRQUFjRUlBQU5oQ0F3QUFBQUFBQUFBQUFBQUFBQUFBQUFBQUFBQURBQUFBQVFBQUFBQUFBQUFBCglBQUFBQXdBQUFB
        QUFBQUFBQUFBQUFBQUFBQU1BQUFBQUFBQUFBQUFBQUFBQUFBQURBQUFBQVFBQUFBRUFBQUFCQUFBQQoJQUFBQVFBQUFBQUFCQUFBQUFBQUFBTngvSWo0REFBQUFDZ0FB
        QUFBQXFFRUFBT2hCQUFBWVFnQUFJRUlBQUNSQ0FBQXMKCVFnQUFZRUlBQUpKQ0FBQ1VRZ0FBdGtJS0FBQUFZYVpKUHdqU1RqOEp6R2svZVB4Y1AxbERWRDh6RG1BL0hR
        aUFQNDgrCglzeitQUHJNL2p6NnpQd0FBQUFBQUFMWkNBQUFBQUFNQUFBQUJBQUFBQUFCd1FnRUFBQUFBQUFBQUFBQUFBQUFBQUFBQQoJQU1qQ0FBQUFBQUVBQUFBQUFB
        QUFBQUFBQUFBQW9NQUFBS0JBQUFBQUFBTUFBQUFDQUFBQUFBQ29RUUFBMkVJQ0FBQUEKCUFBQUFBQUFBQUFBQUFBQUFBd0FBQUFJQUFBQUFBS2hCQUFEWVFnSUFBQUFB
        QUlBL0FBQ0FQd0FBQUFDQUFBQUFBQUFBCglBTklFQUFBQUFJQS9Bd0FBQUFFQUFBQUFBSEJDQVFBQUFBQUFBQUFBQUFBQUF3QUFBR2tBQUFBQUFCQkJBQUFnUVFBQQoJ
        TUVFQUFFQkJBQUJRUVFBQVlFRUFBSEJCQUFDQVFRQUFpRUVBQUpCQkFBQ1lRUUFBb0VFQUFLaEJBQUN3UVFBQXVFRUEKCUFNQkJBQURJUVFBQTBFRUFBTmhCQUFEZ1FR
        QUE2RUVBQVBCQkFBRDRRUUFBQUVJQUFBUkNBQUFJUWdBQURFSUFBQkJDCglBQUFVUWdBQUdFSUFBQnhDQUFBZ1FnQUFKRUlBQUNoQ0FBQXNRZ0FBTUVJQUFEUkNBQUE0
        UWdBQVBFSUFBRUJDQUFCRQoJUWdBQVNFSUFBRXhDQUFCUVFnQUFWRUlBQUZoQ0FBQmNRZ0FBWUVJQUFHUkNBQUJvUWdBQWJFSUFBSEJDQUFCMFFnQUEKCWVFSUFBSHhD
        QUFDQVFnQUFna0lBQUlSQ0FBQ0dRZ0FBaUVJQUFJcENBQUNNUWdBQWprSUFBSkJDQUFDU1FnQUFsRUlBCglBSlpDQUFDWVFnQUFta0lBQUp4Q0FBQ2VRZ0FBb0VJQUFL
        SkNBQUNrUWdBQXBrSUFBS2hDQUFDcVFnQUFyRUlBQUs1QwoJQUFDd1FnQUFza0lBQUxSQ0FBQzJRZ0FBdUVJQUFMcENBQUM4UWdBQXZrSUFBTUJDQUFEQ1FnQUF4RUlB
        QU1aQ0FBREkKCVFnQUF5a0lBQU14Q0FBRE9RZ0FBMEVJQUFOSkNBQURVUWdBQTFrSUFBTmhDQUFEYVFnQUEzRUlBQU41Q0FBRGdRZ0FBCgk0a0pwQUFBQUFBQUF3QUFB
        Z0w4QUFFREFBQUJBd0FBQVFFQUFBQUJBQUFEQVFBQUFnRDhBQUlBL0FBREFRQUFBUUVBQQoJQUlCQUFBQUF3QUFBUU1BQUFJQkFBQUNBUUFBQW9FQUFBTUJBQUFDQVFB
        QUFBSUFBQUlBL0FBQUF3QUFBZ0Q4QUFFREEKCUFBQkF3QUFBUUVBQUFJQkFBQUNnUUFBQW9FQUFBRURBQUFDZ1FBQUFBSUFBQUFCQUFBQkF3QUFBb0VBQUFLQkFBQUJB
        CglRQUFBZ0VBQUFBQkFBQUFBd0FBQWdEOEFBSUJBQUFBQVFBQUFvRUFBQUVCQUFBQkF3QUFBQUlBQUFJQkFBQUJBd0FBQQoJQUlBQUFJQS9BQUNBdndBQVFNQUFBS0JB
        QUFCQXdBQUFBTUFBQUFDQUFBQUFnQUFBb0VBQUFFREFBQUFBd0FBQWdMOEEKCUFFREFBQUJBd0FBQW9FQUFBQURBQUFCQXdBQUFRTUFBQUlCQUFBQ0FQd0FBUU1BQUFJ
        QkFBQUFBQUFBQWdFQUFBSUMvCglBQUFBUUFBQW9FQUFBRURBQUFDQXZ3QUFBTUFBQU1CQUFBQ2dRQUFBUU1BQUFFREFBQUFBd0FBQWdEOEFBRURBQUFCQQoJd0FBQWdM
        OEFBSUMvQUFEQVFBQUFnRUFBQUVEQUFBQUFBQUFBQUFBQUFJQS9BQUJBd0FBQUFNQUFBTUJBQUFCQXdBQUEKCXdFQUFBRURBQUFCQXdBQUFRTUFBQUFCQUFBQUFBQU1B
        QUFBQ0FBQUFBQUNvUVFBQTJFSUNBQUFBQUFDQVB3QUFnRDhBCglBQUFBQUFEY1F3QUFBQUFCQUFBQUFBQUFBQWNBQUFCRVpXWmhkV3gwREFBQUFBQUF5RUlBQUVoREFB
        Q1dRd0FBeUVNQQoJQVBwREFBQVdSQUFBTDBRQUFFaEVBQUJoUkFBQWVrUUFnSWxFQUFDV1JBSUFBQUFBQU54RFBBQUFBRVVBQUFBQUFBQUEKCUFBQUFBQWNBQUFCRVpX
        WmhkV3gwQUFBQUFBQUFBQUFEQUFBQUJBQUFBQUFBd0VFQUFCQkNBQUJBUWdBQTJFSUVBQUFBCglBQUNnd0FBQWdMOEFBQUFBQUFBQUFBQUFBQUFBQUFBQUFBQUFBQUFB
        Z0Q4QUFJQS9Bd0FBQUFJQUFBQUFBS2hCQUFEWQoJUWdJQUFBQUFBSUEvQUFDQVB3QUFBQUFEQUFBQUFnQUFBQUFBcUVFQUFOaENBZ0FBQUFBQWdEOEFBSUEvQUFBQUFB
        QUEKCUFBQURBQUFBQVFBQUFBQUFjRUlCQUFBQUFBQUFBQUFBQUFBQUFJQS9Bd0FBQUFFQUFBQUFBSEJDQVFBQUFBQUFBQUFBCglBQUFBQVFBQUFBQUFBQUFBQUFBQXpj
        ek12YzNNekQwQkFBQUFBQUFBQUFBQUFBQUFBQUMvQUFBQVB3QUFnRDhEQUFBQQoJQXdBQUFBQUFxRUVBQUhCQ0FBRFlRZ01BQUFBQUFJQS9BQUNBUHdBQWdEOEFBQUFB
        QUFBQUFBTUFBQUFDQUFBQUFBQ28KCVFRQUEyRUlDQUFBQUFBQUFBQUFBQUFBQUFBQUFBQUNBUHdNQUFBQUNBQUFBQUFDb1FRQUEyRUlDQUFBQUFBQ0FQd0FBCglnRDhB
        QUFBQUFBQWdRZ01BQUFBSEFBQUFBQUNvUVFBQWtFSUFBS2hDQUFDMFFnQUF3RUlBQU1oQ0FBRFlRZ2NBQUFBQQoJQUFBQUFBQUFBQUFBUUVBQUFNQkFBQUFRUVFBQUlF
        RUFBREJCQUFBQUFBQUFnRDhEQUFBQUF3QUFBQUFBcUVFQUFIQkMKCUFBRFlRZ01BQUFBQUFJQS9BQUNBUHdBQWdEOEFBQUFBQXdBQUFBQUFBQUFCQUFBQUFBQUFBQUFB
        QUFBQkFBQUFBd0FBCglBQUlBQUFBQUFBQUFBQUNBUHdJQUFBQUFBQUFBQUFDQVB3QUFBQUFEQUFBQUFnQUFBQUFBQUFBQUFJQS9BZ0FBQUFBQQoJZ0Q4QUFJQS9BQUFB
        QUFNQUFBQUVBQUFBQUFBQUFDYVRTVDcrZmo4L0FBQ0FQd1FBQUFBQUFBQUFBQUFBQUFBQWdEOEEKCUFJQS9BQUFBQUFNQUFBQUNBQUFBQUFBQUFBQUFnRDhDQUFBQUFB
        QUFBQUFBQUFBQUFBQUF6Y3dzUUFNQUFBQUNBQUFBCglBQUNvUVFBQTJFSUNBQUFBQUFDQVB3QUFnRDhBQUFBQUFBQ0F2d0FBQUQ4REFBQUFBZ0FBQUFBQXdFRUFBTUJD
        QWdBQQoJQUFBQWdEOEFBSUEvQUFBQUFBRUFBQUFBQUFBQUFRQUFBQW9BQUFCVGJXRnNiQ0JJWVd4c0N3QUFBRzFsWkdsMWJXaGgKCWJHd3hBQUFBQUFBQW9FRUFBSUEv
        Wm1abVB3QUFBQUJDWUdVOUFBQUFBQUFBQUFBQUFBQUFBQUNxUXdBQWdEOEFBSUEvCglCUUFBQUFBQWdEOEFBSUEvQXdBQUFGMEFBQUFBQUtoQkFBQ3dRUUFBdUVFQUFN
        QkJBQURJUVFBQTBFRUFBTmhCQUFEZwoJUVFBQTZFRUFBUEJCQUFENFFRQUFBRUlBQUFSQ0FBQUlRZ0FBREVJQUFCQkNBQUFVUWdBQUdFSUFBQnhDQUFBZ1FnQUEKCUpF
        SUFBQ2hDQUFBc1FnQUFNRUlBQURSQ0FBQTRRZ0FBUEVJQUFFQkNBQUJFUWdBQVNFSUFBRXhDQUFCUVFnQUFWRUlBCglBRmhDQUFCY1FnQUFZRUlBQUdSQ0FBQm9RZ0FB
        YkVJQUFIQkNBQUIwUWdBQWVFSUFBSHhDQUFDQVFnQUFna0lBQUlSQwoJQUFDR1FnQUFpRUlBQUlwQ0FBQ01RZ0FBamtJQUFKQkNBQUNTUWdBQWxFSUFBSlpDQUFDWVFn
        QUFta0lBQUp4Q0FBQ2UKCVFnQUFvRUlBQUtKQ0FBQ2tRZ0FBcGtJQUFLaENBQUNxUWdBQXJFSUFBSzVDQUFDd1FnQUFza0lBQUxSQ0FBQzJRZ0FBCgl1RUlBQUxwQ0FB
        QzhRZ0FBdmtJQUFNQkNBQURDUWdBQXhFSUFBTVpDQUFESVFnQUF5a0lBQU14Q0FBRE9RZ0FBMEVJQQoJQU5KQ0FBRFVRZ0FBMWtJQUFOaENBQURhUWdBQTNFSUFBTjVD
        QUFEZ1FnQUE0a0pkQUFBQUFBQ0FQd0FBZ0Q4QUFJQS8KCUFBQ0FQd0FBZ0Q4QUFJQS9BQUNBUHdBQWdEOXhQWW8vaGV1UlAvWW9uRC9zVVpnL2o4S1ZQM0U5aWorYW1a
        ay9qOEtWCglQM3NVamorUHdwVS9tcG1aUDdnZXBUL056SXcvQ3RlalAxSzRuaithbVprLzE2T1FQOWVqa0QrNEhxVS9LVnlQUCtGNgoJbEQ4OUNwYy9leFNPUDQvQ2xU
        OUk0Wm8vZXhTdVA2NUhvVDhBQUlBL0tWeVBQMUs0bmo4QUFJQS80WHFVUDF5UG9qL3MKCVVaZy9YSStpUHgrRnF6K2tjSjAvTXpPelAzc1Vyait1UjZFL1NPR2FQM0U5
        aWo5Y2o2SS93L1dJUCt4Um1EL056SXcvCglGSzZIUHgrRml6L3NVWmcvVXJpZVAzc1Vqait1UjZFL0tWeVBQNXFabVQ5Y2o2SS9DdGVqUDJabXBqK2tjSjAvTXpPVAoJ
        UDQvQ3RUOVN1SjQvbXBtWlA1cVp1VCs0SHFVL0FBQ2dQODNNckQrYW1iay9wSENkUDBqaG1qL056S3cvUFFxWFB5bGMKCWp6L0Q5YWcvUFFxWFA2UnduVCthbVprL2NU
        MnFQMGpobWo5U3VKNC9VcmllUDBqaG1qOTdGSzQvNFhxVVAvWW9uRCtrCgljSjAvQUFBQUFBTUFBQUFEQUFBQUFBQ29RUUFBY0VJQUFOaENBd0FBQUFBQWdEOEFBSUEv
        QUFDQVB3QUFBQUFBQUFBQQoJQXdBQUFGMEFBQUFBQUtoQkFBQ3dRUUFBdUVFQUFNQkJBQURJUVFBQTBFRUFBTmhCQUFEZ1FRQUE2RUVBQVBCQkFBRDQKCVFRQUFBRUlB
        QUFSQ0FBQUlRZ0FBREVJQUFCQkNBQUFVUWdBQUdFSUFBQnhDQUFBZ1FnQUFKRUlBQUNoQ0FBQXNRZ0FBCglNRUlBQURSQ0FBQTRRZ0FBUEVJQUFFQkNBQUJFUWdBQVNF
        SUFBRXhDQUFCUVFnQUFWRUlBQUZoQ0FBQmNRZ0FBWUVJQQoJQUdSQ0FBQm9RZ0FBYkVJQUFIQkNBQUIwUWdBQWVFSUFBSHhDQUFDQVFnQUFna0lBQUlSQ0FBQ0dRZ0FB
        aUVJQUFJcEMKCUFBQ01RZ0FBamtJQUFKQkNBQUNTUWdBQWxFSUFBSlpDQUFDWVFnQUFta0lBQUp4Q0FBQ2VRZ0FBb0VJQUFLSkNBQUNrCglRZ0FBcGtJQUFLaENBQUNx
        UWdBQXJFSUFBSzVDQUFDd1FnQUFza0lBQUxSQ0FBQzJRZ0FBdUVJQUFMcENBQUM4UWdBQQoJdmtJQUFNQkNBQURDUWdBQXhFSUFBTVpDQUFESVFnQUF5a0lBQU14Q0FB
        RE9RZ0FBMEVJQUFOSkNBQURVUWdBQTFrSUEKCUFOaENBQURhUWdBQTNFSUFBTjVDQUFEZ1FnQUE0a0pkQUFBQUFBQUFBQUFBQUFBQUFBQUFBQUFBQUFBQUFBQUFBQUFB
        CglBQUFBQUFBQUFBQXhtdVc4U09GSXZSZFZCNzFBR1dFODBFSjR2Vi9ZU1Qyd05rbTkzam5pdWRoVnFyMHV1R3U5T0NFVAoJT3RkamdMd1cyNFM5UkZJRlBhaUpqenlD
        bDdDNjdyeXFQWkxpdGIyMThibzkybXhKUFVNdm9UM2tGcXU3dlFodnZRUi8KCW9MM1gzSzI5MnhXZFBZZURRejI4QlpXOU1qWEdQTmw3c2IxUjRhNjhqSXp5UEhUL3dU
        MWI1amE3Wm1LUHVoQXB1ajNjCglaN005SUM2YVBhVzBFcjNPMzRXOGpjbTJQRkpIcUR4S05MbzljdVJudmJrYWdEMy9OYTI5MUdXZFBZa2RYVHcyamxzOQoJcmx5UXZU
        cnBYYjFnWUtFOGZJZEdQUkZuQ2oyT1dRTTlHL3pXTzhiVXNieFhHSHM5QVJobHZSMTh3and6bWlTOVR6QlMKCXZVbHZPcjMzVGs0OWJOTzJQY20ySjcwVlM2VTlQVjZk
        UFVVdGVyMCtwSGc5bGVYZnZCM2hsN3dsd1l3OWZrclpPV2IzCgl4ejFhV1NFOWxVdk9QQU1QbkwzYW1tdTliTUdTUFNnejhEd2x2N085N2FOZlBVYjhqajJ3K1VDOUFB
        QUFBQU1BQUFBQQoJQUlBL0FBQ0FQd0FBZ0Q4REFBQUFBd0FBQUFBQXFFRUFBSEJDQUFEWVFnTUFBQUFBQUlBL0FBQ0FQd0FBZ0Q4QUFBQUEKCUF3QUFBQU1BQUFBQUFL
        aEJBQUJ3UWdBQTJFSURBQUFBQUFDQVB3QUFnRDhBQUlBL0FBQUFBQU1BQUFBREFBQUFBQUNvCglRUUFBY0VJQUFOaENBd0FBQUFBQWdEOEFBSUEvQUFDQVB3QUFBQUFB
        QUlBL0FBQ0FQd1lBQUFBQUFJQS9tcG1aUHMzTQoJVEQvTnpNdy9tcG1aUGdnQUFBQUFBQUFBQUFBQUFBQUFBQUFBQUFBQUFBQUFBQUFBQUFBQUFBQUFBQUFBQUFNQUFB
        QUQKCUFBQUFBQUNvUVFBQWNFSUFBTmhDQXdBQUFBQUFnRDhBQUlBL0FBQ0FQd0FBQUFBREFBQUFBd0FBQUFBQXFFRUFBSEJDCglBQURZUWdNQUFBQUFBSUEvQUFDQVB3
        QUFnRDhBQUFBQUF3QUFBQU1BQUFBQUFLaEJBQUJ3UWdBQTJFSURBQUFBQUFDQQoJUHdBQWdEOEFBSUEvQUFBQUFBTUFBQUFEQUFBQUFBQ29RUUFBY0VJQUFOaENBd0FB
        QUFBQWdEOEFBSUEvQUFDQVB3QUEKCUFBQUJBQUFBQVFBQUFBQUFjRUlEQUFBQUFRQUFBQUFBQUFBQkFBQUFBQUFBQUFBQUFBQk9JOWc5QXdBQUFCWUFBQUFBCglBQkJC
        QUFDb1FRQUF3RUVBQU9CQkFBRG9RUUFBQUVJQUFBaENBQUFZUWdBQUpFSUFBREJDQUFCQVFnQUFURUlBQUdCQwoJQUFCd1FnQUFnRUlBQUloQ0FBQ1FRZ0FBbUVJQUFL
        QkNBQUNvUWdBQXdFSUFBTmhDRmdBQUFIaDBKRC9wNVk4L0RHR1MKCVAzanlsRDlOZzVRL1RZT1VQMDJEbEQ5Tmc1US82b3FSUDAyRGxEOU5nNVEvNm9xUlAxbXdqai9x
        aXBFL1diQ09QMW13Cglqajlac0k0LzU0UmNQK2VFWEQ5K0pFby8ya010UHpHUzhqNEFBQUFBQVFBQUFBQUFBQUFCQUFBQU16TXpQMlptcGo4QgoJQUFBQUFRQUFBQUVB
        QUFCbVptWS96Y3lNUHdFQUFBQUFBQUFBQUFEd1FnQUFBQUFPQUFBQUFBQUFQODNNekQzTnpFdysKCUFBQUFQd1FBQUFBQ0FBQUFBd0FBQUFRQUFBQUJBQUFBQWdBQUFB
        Y0FBQUFBQUFBQUFBQUFBQTRBQUFBUUFBQUFBQUFBCglBTTNNekQwQUFJQS9BQUFBQUFBQUFMOEFBSEJDQUFBQUFBQUFBQUFBQUFBQUFBQUFBQUFBQUFBQUFBQUFBQUFB
        QUFBQQoJQUFBQUFBQUFBQUFBQUFJQUFBQUFBQUFBQUFBQUFBQUFBQUFPQUFBQUVBQUFBQUFBQUFBQUFBQUFBQUFBQUFBQUFBQUEKCUFBQUFBQUFBQUFBQUFBQUFBQUFB
        QUFBQUFBQUFBQUFBQUFBQUFBQUFBQUFBQUFBQUFBQUFBQUFBQUFBQUFBQUNBQUFBCglBQUFBQUFBQUFBQUFBQUFBRGdBQUFCQUFBQUFBQUFBQUFBQUFBQUFBQUFBQUFB
        QUFBQUFBQUFBQUFBQUFBQUFBQUFBQQoJQUFBQUFBQUFBQUFBQUFBQUFBQUFBQUFBQUFBQUFBQUFBQUFBQUFBQUFBQUFBUUFBQUFFQUFBQUFBSUEvQUFCQXdRQUEKCUFB
        QUNBQUFBQXdBQUFBRUFBQUFGQUFBQUJBQUFBQUVBQUFBREFBQUFBQURBUHdBQW9EOEFBTUEvQUFCaHd4eHVnY0FBCglBQUFBQlFBQUFBQUFBQUFBQUJEQkFBREF3Z0FB
        d01JQUFNRENCUUFBQUFBQUFBQ1B3dlU4QUFBQUFBQUFBQUFBQUFBQQoJQlFBQUFBQUFBQUFBQUFBQUFBQUFBQUFBQUFBQUFBQUFBUUFBQUFBQUFBQUVBQUFBQVFBQUFB
        TUFBQUFBQU1BL0FBQkEKCVB3QUF3RDhBQURSQ0hHNkJ3QUFBQUFBRkFBQUFBQUFRd1FBQUFBQUFBTURDQUFEQXdnQUF3TUlGQUFBQUN0Y2pQYWFiCgl4RG9BQUFBQUFB
        QUFBQUFBQUFBRkFBQUFBQUFBQUFBQUFBQUFBQUFBQUFBQUFBQUFBQUFCQUFBQUFBQUFBQVFBQUFBQQoJQUFBQUF3QUFBSS9DOVQ4OUNsZS9INFZyUHdBQXRFSUFBQUFB
        QUFBQUFBVUFBQUFBQUVEQkFBQkF3UUFBY01JQUFIREMKCUFBQnd3Z1VBQUFBQUFBQUFBQUFBQUFBQUFBQUFBQUFBQUFBQUFBVUFBQUFBQUFBQUFBQUFBQUFBQUFBQUFB
        QUFBQUFBCglBQUVBQUFBQUFBQUFCQUFBQUFBQUFBQURBQUFBTXpNenYxeVB3ajZ1UjJFL0FBQUFBQUFBQUFBQUFBQUFCUUFBQUFBQQoJUU1FQUFFREJBQUJ3d2dBQWNN
        SUFBSERDQlFBQUFBQUFBQUFBQUFBQUFBQUFBQUFBQUFBQUFBQUFCUUFBQUFBQUFBQUEKCUFBQUFBQUFBQUFBQUFBQUFBQUFBQVFBQUFBQUFBQUFFQUFBQUFBQUFBQU1B
        QUFDNEhzVS9QUXBYUDY1SDRUOEFBQUFBCglBQUFBQUFBQUFBQUZBQUFBQUFCQXdRQUFRTUVBQUhEQ0FBQnd3Z0FBY01JRkFBQUFBQUFBQUFBQUFBQUFBQUFBQUFBQQoJ
        QUFBQUFBQUZBQUFBQUFBQUFBQUFBQUFBQUFBQUFBQUFBQUFBQUFBQkFBQUFBQUFBQUFFQUFBQUFBQUFBQVFBQUFBTUEKCUFBQXpNek0vQUFBQUFHWm1wajhBQUpCQkFB
        QUFBQUFBQUFBQUFBQUEKCTwvZGF0YT4KCTxrZXk+bWFudWZhY3R1cmVyPC9rZXk+Cgk8aW50ZWdlcj4xMjk4NDI4NTMyPC9pbnRlZ2VyPgoJPGtleT5uYW1lPC9rZXk+
        Cgk8c3RyaW5nPlVudGl0bGVkPC9zdHJpbmc+Cgk8a2V5PnN1YnR5cGU8L2tleT4KCTxpbnRlZ2VyPjEzNDk3OTMxMzM8L2ludGVnZXI+Cgk8a2V5PnR5cGU8L2tleT4K
        CTxpbnRlZ2VyPjE2MzUwODU2ODU8L2ludGVnZXI+Cgk8a2V5PnZlcnNpb248L2tleT4KCTxpbnRlZ2VyPjA8L2ludGVnZXI+CjwvZGljdD4KPC9wbGlzdD4KAQAAAAAA
        AAAAAA==
      >
      FLOATPOS 0 0 0 0
      FXID {1EBA6354-F268-3F4D-B909-EFD074D705A5}
      WAK 0 0
      BYPASS 0 0 0
      <VST "VST: ReaEQ (Cockos)" reaeq.vst.dylib 0 "" 1919247729<56535472656571726561657100000000> ""
        cWVlcu5e7f4CAAAAAQAAAAAAAAACAAAAAAAAAAIAAAABAAAAAAAAAAIAAAAAAAAAqAAAAAEAAAAAABAA
        IQAAAAQAAAAAAAAAAQAAAAAn4P3uJlVA5olNFo363j8AAAAAAAAAQAEIAAAAAQAAAAAAAAAAwHJAAAAAAAAA8D8AAAAAAAAAQAEIAAAAAQAAAEos3gIjQIlA/v//////
        7z8AAAAAAAAAQAEBAAAAAQAAAFJ/W4DmvZtA58x5kMDFzj8Af2q8dJP4PwEBAAAAAQAAAAAAAAAAAPA/AAAAAFQCAABwAQAA
        AAAQAAAA
      >
      FLOATPOS 605 103 596 422
      FXID {EE64060C-25AC-104B-A08F-EF43EEC0C7EA}
      WAK 0 0
    >
    <ITEM
      POSITION 0
      SNAPOFFS 0
      LENGTH 65.2234375
      LOOP 1
      ALLTAKES 0
      FADEIN 1 0 0 1 0 0 0
      FADEOUT 1 0 0 1 0 0 0
      MUTE 0 0
      SEL 0
      IGUID {F92931C2-C08D-7A41-9DCA-F6F3D5F5E96A}
      IID 17
      NAME "01-Piano-Recorded MIDI"
      VOLPAN 1 0 1 -1
      SOFFS 0 0
      PLAYRATE 1 1 0 -1 0 0.0025
      CHANMODE 0
      GUID {4CAD1470-5F7D-AE4A-9649-B2754BFD5EFF}
      RECPASS 6
      <SOURCE MIDI
        HASDATA 1 960 QN
        CCINTERP 32
        POOLEDEVTS {D32D30ED-C534-CF4C-8928-A0F75A70274B}
        E 5678 b0 40 7f
        E 2046 90 26 48
        E 129 80 26 00
        E 157 90 32 38
        E 97 80 32 00
        E 131 90 26 34
        E 102 80 26 00
        E 131 90 32 3b
        E 114 80 32 00
        E 128 90 26 3a
        E 95 80 26 00
        E 124 90 32 3e
        E 105 80 32 00
        E 133 90 26 3e
        E 88 80 26 00
        E 137 90 32 37
        E 105 80 32 00
        E 120 90 26 40
        E 90 80 26 00
        E 147 90 32 39
        E 96 80 32 00
        E 113 90 26 3a
        E 87 80 26 00
        E 155 90 32 31
        E 98 80 32 00
        E 91 90 26 41
        E 86 80 26 00
        E 154 90 32 30
        E 99 80 32 00
        E 112 90 26 3c
        E 83 80 26 00
        E 104 90 32 35
        E 108 80 32 00
        E 134 90 26 3e
        E 86 80 26 00
        E 137 90 32 3a
        E 91 80 32 00
        E 83 90 26 3f
        E 100 80 26 00
        E 139 90 32 36
        E 108 80 32 00
        E 134 90 26 36
        E 109 80 26 00
        E 136 90 32 3a
        E 116 80 32 00
        E 155 90 26 3f
        E 157 80 26 00
        E 125 90 32 43
        E 164 80 32 00
        E 130 90 26 44
        E 155 80 26 00
        E 148 90 32 40
        E 118 80 32 00
        E 108 90 26 44
        E 147 80 26 00
        E 167 90 32 38
        E 97 80 32 00
        E 96 90 26 45
        E 209 80 26 00
        E 133 90 32 3e
        E 90 80 32 00
        E 99 90 26 42
        E 96 80 26 00
        E 154 90 32 3b
        E 92 80 32 00
        E 98 90 26 45
        E 131 80 26 00
        E 149 90 32 3f
        E 104 80 32 00
        E 124 90 26 42
        E 99 80 26 00
        E 162 90 32 3f
        E 92 80 32 00
        E 107 90 26 43
        E 194 80 26 00
        E 116 90 32 3c
        E 99 80 32 00
        E 109 90 26 43
        E 111 80 26 00
        E 159 90 32 3e
        E 104 80 32 00
        E 113 90 26 42
        E 164 80 26 00
        E 131 90 32 44
        E 110 80 32 00
        E 111 90 26 48
        E 210 80 26 00
        E 97 90 32 42
        E 104 80 32 00
        E 109 90 26 45
        E 183 80 26 00
        E 113 90 32 44
        E 104 80 32 00
        E 133 90 26 45
        E 134 80 26 00
        E 134 90 32 45
        E 104 80 32 00
        E 119 90 26 47
        E 169 80 26 00
        E 120 90 32 42
        E 101 80 32 00
        E 103 90 26 45
        E 221 80 26 00
        E 73 90 32 43
        E 105 80 32 00
        E 98 90 26 41
        E 232 80 26 00
        E 74 90 32 3f
        E 92 80 32 00
        E 75 90 26 3a
        E 235 80 26 00
        E 66 90 32 41
        E 95 80 32 00
        E 77 90 26 37
        E 229 80 26 00
        E 42 90 32 41
        E 108 80 32 00
        E 106 90 26 36
        E 229 80 26 00
        E 62 90 32 41
        E 97 80 32 00
        E 118 90 26 3f
        E 238 80 26 00
        E 51 90 32 42
        E 101 80 32 00
        E 131 90 26 41
        E 221 80 26 00
        E 11 90 3e 45
        E 35 90 32 3e
        E 87 80 32 00
        E 59 90 26 44
        E 2 80 3e 00
        E 69 90 40 3e
        E 127 80 40 00
        E 33 80 26 00
        E 34 90 3e 37
        E 28 90 32 3e
        E 96 80 32 00
        E 13 80 3e 00
        E 61 90 26 3c
        E 28 90 40 37
        E 165 80 40 00
        E 36 80 26 00
        E 39 90 3e 3d
        E 27 90 32 40
        E 91 80 32 00
        E 13 80 3e 00
        E 71 90 26 3c
        E 7 90 40 3c
        E 184 80 40 00
        E 40 80 26 00
        E 29 90 3e 3d
        E 30 90 32 38
        E 73 80 3e 00
        E 24 80 32 00
        E 53 90 40 38
        E 14 90 26 41
        E 207 80 40 00
        E 35 80 26 00
        E 16 90 3e 42
        E 37 90 32 3f
        E 95 80 32 00
        E 5 80 3e 00
        E 52 90 26 39
        E 39 90 40 42
        E 179 80 40 00
        E 19 80 26 00
        E 50 90 32 3e
        E 2 90 3e 3f
        E 96 80 32 00
        E 23 80 3e 00
        E 57 90 26 3f
        E 53 90 40 3e
        E 190 80 26 00
        E 25 80 40 00
        E 23 90 3e 43
        E 25 90 32 3d
        E 97 80 32 00
        E 76 90 26 3f
        E 3 80 3e 00
        E 54 90 40 3b
        E 210 80 26 00
        E 20 80 40 00
        E 26 90 32 42
        E 26 90 3e 42
        E 86 80 32 00
        E 104 90 26 42
        E 38 80 3e 00
        E 73 90 40 27
        E 112 80 40 00
        E 30 80 26 00
        E 47 90 32 46
        E 86 90 40 3d
        E 39 80 32 00
        E 40 90 26 39
        E 145 80 40 00
        E 10 90 42 47
        E 156 80 42 00
        E 11 80 26 00
        E 15 90 32 3e
        E 28 90 40 3b
        E 84 80 32 00
        E 80 90 26 40
        E 56 90 42 44
        E 3 80 40 00
        E 158 80 42 00
        E 30 80 26 00
        E 10 90 40 3f
        E 43 90 32 3e
        E 93 80 32 00
        E 70 90 26 41
        E 37 90 42 43
        E 16 80 40 00
        E 175 80 42 00
        E 15 80 26 00
        E 22 90 40 3b
        E 22 90 32 3b
        E 106 80 32 00
        E 75 90 26 3d
        E 70 80 40 00
        E 10 90 42 41
        E 166 80 26 00
        E 8 80 42 00
        E 34 90 40 39
        E 33 90 32 3d
        E 87 80 32 00
        E 49 90 26 42
        E 57 80 40 00
        E 2 90 42 41
        E 170 80 26 00
        E 24 80 42 00
        E 59 90 40 35
        E 15 90 32 39
        E 93 80 32 00
        E 92 90 26 41
        E 34 80 40 00
        E 3 90 42 43
        E 172 80 42 00
        E 34 80 26 00
        E 20 90 40 3a
        E 19 90 32 39
        E 104 80 32 00
        E 83 90 26 42
        E 16 90 42 46
        E 11 80 40 00
        E 228 80 42 00
        E 3 80 26 00
        E 35 90 40 38
        E 48 90 32 3b
        E 120 80 32 00
        E 18 90 42 42
        E 46 80 40 00
        E 15 90 26 3f
        E 100 80 42 00
        E 130 80 26 00
        E 32 90 42 4c
        E 18 90 32 40
        E 109 80 32 00
        E 80 90 26 3e
        E 39 80 42 00
        E 38 90 43 3d
        E 149 80 43 00
        E 15 80 26 00
        E 34 90 42 45
        E 44 90 32 38
        E 102 80 32 00
        E 97 90 26 42
        E 34 80 42 00
        E 46 90 43 3b
        E 166 80 26 00
        E 36 90 42 42
        E 7 80 43 00
        E 15 90 32 34
        E 99 80 32 00
        E 75 90 26 42
        E 30 90 43 3b
        E 27 80 42 00
        E 178 80 26 00
        E 48 90 32 3d
        E 3 80 43 00
        E 19 90 42 44
        E 84 80 32 00
        E 110 90 26 3c
        E 29 90 43 35
        E 24 80 42 00
        E 175 80 26 00
        E 45 80 43 00
        E 19 90 32 39
        E 5 90 42 47
        E 96 80 32 00
        E 92 90 26 3c
        E 58 80 42 00
        E 14 90 43 34
        E 165 80 26 00
        E 38 90 32 38
        E 29 80 43 00
        E 17 90 42 46
        E 81 80 32 00
        E 104 90 26 3e
        E 79 80 42 00
        E 9 90 43 39
        E 151 80 26 00
        E 51 90 32 3d
        E 45 80 43 00
        E 15 90 42 46
        E 38 80 32 00
        E 94 90 26 3c
        E 95 90 43 3a
        E 13 80 42 00
        E 130 80 26 00
        E 52 90 32 36
        E 28 80 43 00
        E 9 90 42 44
        E 89 80 32 00
        E 111 90 26 41
        E 9 90 43 3e
        E 13 80 42 00
        E 196 80 26 00
        E 35 80 43 00
        E 18 90 32 32
        E 2 90 42 42
        E 103 80 32 00
        E 82 90 26 41
        E 13 90 43 3e
        E 37 80 42 00
        E 187 80 26 00
        E 34 80 43 00
        E 6 90 42 42
        E 19 90 32 30
        E 108 80 32 00
        E 95 90 26 42
        E 16 90 43 31
        E 15 80 42 00
        E 201 80 26 00
        E 36 90 32 39
        E 6 80 43 00
        E 15 90 42 45
        E 94 80 32 00
        E 107 90 26 41
        E 45 90 43 3b
        E 2 80 42 00
        E 194 80 26 00
        E 48 80 43 00
        E 18 90 42 47
        E 12 90 32 2d
        E 105 80 32 00
        E 60 90 26 43
        E 41 90 43 32
        E 8 80 42 00
        E 187 80 26 00
        E 75 80 43 00
        E 5 90 32 37
        E 12 90 42 4a
        E 87 80 32 00
        E 106 90 26 3f
        E 113 80 42 00
        E 6 90 43 3d
        E 115 80 26 00
        E 60 90 32 39
        E 101 80 43 00
        E 3 80 32 00
        E 2 90 42 49
        E 114 90 26 3c
        E 164 90 43 33
        E 5 80 42 00
        E 48 80 26 00
        E 77 90 32 3f
        E 162 90 42 4b
        E 21 80 43 00
        E 6 80 32 00
        E 94 90 26 41
        E 55 90 43 4b
        E 24 80 42 00
        E 186 80 43 00
        E 52 80 26 00
        E 55 90 32 40
        E 61 90 3c 42
        E 29 80 32 00
        E 83 90 26 3c
        E 56 80 3c 00
        E 82 90 3e 43
        E 95 80 26 00
        E 87 90 32 39
        E 22 80 3e 00
        E 64 90 3c 41
        E 3 80 32 00
        E 82 90 26 40
        E 23 80 3c 00
        E 94 90 3e 40
        E 137 80 26 00
        E 67 90 32 3e
        E 8 80 3e 00
        E 40 90 3c 44
        E 50 80 32 00
        E 68 80 3c 00
        E 9 90 26 3f
        E 82 90 3e 43
        E 179 80 26 00
        E 17 80 3e 00
        E 56 90 3c 45
        E 19 90 32 3b
        E 94 80 32 00
        E 26 80 3c 00
        E 70 90 26 3a
        E 33 90 3e 40
        E 135 80 3e 00
        E 42 80 26 00
        E 46 90 3c 45
        E 8 90 32 3c
        E 89 80 32 00
        E 15 80 3c 00
        E 67 90 26 42
        E 34 90 3e 40
        E 169 80 3e 00
        E 28 80 26 00
        E 48 90 3c 46
        E 14 90 32 3b
        E 88 80 32 00
        E 2 80 3c 00
        E 78 90 26 38
        E 37 90 3e 3c
        E 121 80 3e 00
        E 41 80 26 00
        E 51 90 32 44
        E 12 90 3c 43
        E 84 80 32 00
        E 23 80 3c 00
        E 62 90 26 3e
        E 38 90 3e 40
        E 164 80 3e 00
        E 17 80 26 00
        E 59 90 32 3c
        E 14 90 3c 42
        E 95 80 32 00
        E 106 90 26 44
        E 12 80 3c 00
        E 43 90 3e 3a
        E 100 80 3e 00
        E 62 80 26 00
        E 24 90 3c 45
        E 42 90 32 45
        E 83 80 32 00
        E 28 80 3c 00
        E 45 90 26 45
        E 41 90 3e 38
        E 144 80 3e 00
        E 31 80 26 00
        E 37 90 40 3c
        E 21 90 32 40
        E 74 80 40 00
        E 25 80 32 00
        E 72 90 3e 3c
        E 78 90 26 49
        E 114 80 3e 00
        E 46 90 40 3c
        E 47 80 26 00
        E 59 80 40 00
        E 21 90 32 3a
        E 90 90 3e 37
        E 18 80 32 00
        E 101 90 26 45
        E 106 80 3e 00
        E 17 90 40 3f
        E 114 80 26 00
        E 20 80 40 00
        E 16 90 32 41
        E 88 90 3e 3b
        E 29 80 32 00
        E 110 90 26 3f
        E 70 80 3e 00
        E 28 90 40 3d
        E 140 80 26 00
        E 42 80 40 00
        E 7 90 32 40
        E 60 90 3e 3d
        E 53 80 32 00
        E 101 90 26 41
        E 86 80 3e 00
        E 25 90 40 3c
        E 125 80 26 00
        E 46 90 32 40
        E 7 80 40 00
        E 47 90 3e 3d
        E 44 80 32 00
        E 96 90 26 3f
        E 78 80 3e 00
        E 7 90 40 39
        E 159 80 26 00
        E 51 80 40 00
        E 8 90 32 3d
        E 17 90 3e 3e
        E 88 80 32 00
        E 123 90 40 3f
        E 2 90 26 3f
        E 27 80 3e 00
        E 217 80 26 00
        E 29 80 40 00
        E 15 90 32 42
        E 31 90 3e 45
        E 150 80 32 00
        E 13 90 40 45
        E 42 80 3e 00
        E 6 90 26 44
        E 131 80 40 00
        E 117 80 26 00
        E 46 90 32 41
        E 16 90 40 42
        E 85 80 32 00
        E 57 90 26 3a
        E 11 80 40 00
        E 34 90 42 3f
        E 114 80 42 00
        E 100 80 26 00
        E 2 90 40 3a
        E 55 90 32 39
        E 103 80 32 00
        E 68 90 42 41
        E 2 80 40 00
        E 16 90 26 42
        E 189 80 42 00
        E 40 90 40 35
        E 16 80 26 00
        E 25 90 32 3c
        E 108 80 32 00
        E 82 90 26 41
        E 8 90 42 44
        E 21 80 40 00
        E 179 80 42 00
        E 35 80 26 00
        E 13 90 40 30
        E 13 90 32 3c
        E 110 80 32 00
        E 80 90 26 3c
        E 39 80 40 00
        E 9 90 42 40
        E 181 80 42 00
        E 8 80 26 00
        E 16 90 32 43
        E 6 90 40 37
        E 132 80 32 00
        E 49 90 26 3d
        E 23 80 40 00
        E 54 90 42 40
        E 146 80 42 00
        E 16 80 26 00
        E 74 90 32 36
        E 5 90 40 2e
        E 86 80 32 00
        E 69 90 26 40
        E 49 80 40 00
        E 8 90 42 40
        E 163 80 26 00
        E 33 80 42 00
        E 54 90 32 3e
        E 4 90 40 35
        E 83 80 32 00
        E 83 90 26 3d
        E 32 80 40 00
        E 15 90 42 42
        E 184 80 26 00
        E 22 80 42 00
        E 37 90 32 3d
        E 24 90 40 31
        E 79 80 32 00
        E 89 90 26 3e
        E 59 90 42 45
        E 7 80 40 00
        E 167 80 26 00
        E 15 80 42 00
        E 59 90 40 36
        E 2 90 32 3b
        E 93 80 32 00
        E 72 90 26 3c
        E 41 80 40 00
        E 17 90 42 45
        E 184 80 26 00
        E 24 80 42 00
        E 28 90 32 3a
        E 19 90 40 36
        E 76 80 32 00
        E 78 90 26 3d
        E 65 80 40 00
        E 27 90 42 43
        E 142 80 26 00
        E 19 80 42 00
        E 50 90 40 39
        E 2 90 32 38
        E 88 80 32 00
        E 75 90 26 45
        E 56 80 40 00
        E 14 90 42 45
        E 177 80 26 00
        E 10 80 42 00
        E 40 90 40 38
        E 14 90 32 34
        E 97 80 32 00
        E 72 90 26 43
        E 41 80 40 00
        E 17 90 42 44
        E 175 80 42 00
        E 12 80 26 00
        E 47 90 40 37
        E 18 90 32 34
        E 95 80 32 00
        E 63 90 26 45
        E 52 80 40 00
        E 2 90 42 44
        E 208 80 26 00
        E 31 80 42 00
        E 13 90 32 3b
        E 30 90 40 3a
        E 71 80 32 00
        E 124 90 26 40
        E 40 90 42 43
        E 5 80 40 00
        E 171 80 26 00
        E 43 90 32 3e
        E 1 80 42 00
        E 35 90 40 3b
        E 65 80 32 00
        E 152 90 26 41
        E 10 90 42 44
        E 8 80 40 00
        E 187 80 26 00
        E 19 80 42 00
        E 36 90 32 3d
        E 8 90 40 36
        E 119 80 32 00
        E 25 90 42 42
        E 44 80 40 00
        E 74 90 26 48
        E 117 80 42 00
        E 4 90 40 2c
        E 63 80 26 00
        E 31 80 40 00
        E 21 90 3e 44
        E 2 90 32 40
        E 86 80 32 00
        E 68 80 3e 00
        E 37 90 26 3f
        E 6 90 40 36
        E 226 80 26 00
        E 1 80 40 00
        E 30 90 3e 41
        E 7 90 32 40
        E 97 80 32 00
        E 70 80 3e 00
        E 38 90 26 41
        E 16 90 40 39
        E 221 80 26 00
        E 17 80 40 00
        E 17 90 32 3e
        E 18 90 3e 41
        E 81 80 32 00
        E 70 80 3e 00
        E 42 90 40 43
        E 6 90 26 39
        E 225 80 26 00
        E 17 80 40 00
        E 29 90 32 3f
        E 13 90 3e 41
        E 78 80 32 00
        E 61 80 3e 00
        E 45 90 26 42
        E 16 90 40 41
        E 217 80 26 00
        E 12 80 40 00
        E 34 90 32 3e
        E 5 90 3e 41
        E 84 80 32 00
        E 61 80 3e 00
        E 38 90 26 3a
        E 36 90 40 3c
        E 166 80 26 00
        E 41 80 40 00
        E 3 90 32 45
        E 38 90 3e 42
        E 53 80 32 00
        E 103 80 3e 00
        E 5 90 26 3b
        E 73 90 40 3e
        E 141 80 26 00
        E 23 80 40 00
        E 10 90 32 44
        E 54 90 3e 3f
        E 32 80 32 00
        E 86 90 26 3f
        E 27 80 3e 00
        E 81 90 40 3b
        E 119 80 26 00
        E 12 80 40 00
        E 20 90 32 46
        E 47 90 3e 3c
        E 46 80 32 00
        E 143 90 26 3f
        E 27 80 3e 00
        E 59 90 40 44
        E 156 80 26 00
        E 19 80 40 00
        E 20 90 32 45
        E 58 90 42 41
        E 71 80 42 00
        E 15 80 32 00
        E 75 90 40 3f
        E 13 90 26 3c
        E 243 80 26 00
        E 5 90 42 45
        E 8 80 40 00
        E 39 90 32 43
        E 102 80 32 00
        E 14 80 42 00
        E 72 90 40 3c
        E 15 90 26 3d
        E 230 80 40 00
        E 6 90 42 44
        E 6 80 26 00
        E 46 90 32 3d
        E 61 80 42 00
        E 26 80 32 00
        E 66 90 26 47
        E 2 90 40 35
        E 222 80 40 00
        E 13 80 26 00
        E 3 90 42 40
        E 63 90 32 3b
        E 85 80 32 00
        E 8 80 42 00
        E 64 90 26 47
        E 2 90 40 38
        E 226 90 42 45
        E 3 80 40 00
        E 21 80 26 00
        E 44 90 32 3c
        E 86 80 32 00
        E 17 80 42 00
        E 54 90 40 39
        E 14 90 26 44
        E 204 80 26 00
        E 9 90 42 48
        E 6 80 40 00
        E 37 90 32 39
        E 83 80 32 00
        E 98 80 42 00
        E 14 90 26 39
        E 47 90 40 33
        E 136 80 26 00
        E 65 90 32 43
        E 40 90 42 40
        E 37 80 40 00
        E 4 80 32 00
        E 104 90 26 40
        E 136 80 42 00
        E 13 90 40 32
        E 76 80 26 00
        E 31 90 32 41
        E 99 80 32 00
        E 69 90 42 45
        E 41 80 40 00
        E 9 90 26 3d
        E 185 80 42 00
        E 7 90 40 3c
        E 15 80 26 00
        E 36 90 32 44
        E 97 80 32 00
        E 65 80 40 00
        E 37 90 42 39
        E 46 90 26 3a
        E 46 80 42 00
        E 114 90 42 41
        E 30 80 26 00
        E 75 90 32 3c
        E 85 80 32 00
        E 68 90 26 3d
        E 2 80 42 00
        E 56 90 43 34
        E 142 80 43 00
        E 10 80 26 00
        E 29 90 42 48
        E 77 90 32 2e
        E 116 80 32 00
        E 28 90 26 42
        E 20 80 42 00
        E 43 90 43 31
        E 151 80 26 00
        E 56 90 42 47
        E 2 90 32 39
        E 6 80 43 00
        E 94 80 32 00
        E 145 90 26 33
        E 16 80 42 00
        E 7 90 43 3a
        E 103 80 26 00
        E 93 90 32 3f
        E 20 80 43 00
        E 10 90 42 46
        E 79 80 32 00
        E 134 90 26 40
        E 40 90 43 37
        E 3 80 42 00
        E 104 80 26 00
        E 73 90 32 3d
        E 55 80 43 00
        E 2 90 42 46
        E 45 80 32 00
        E 134 90 26 44
        E 60 90 43 33
        E 10 80 42 00
        E 82 80 26 00
        E 74 90 32 3d
        E 81 80 43 00
        E 10 90 42 45
        E 14 80 32 00
        E 135 90 26 3c
        E 83 90 43 32
        E 12 80 42 00
        E 16 80 26 00
        E 120 90 32 3c
        E 84 80 43 00
        E 8 90 42 45
        E 2 80 32 00
        E 140 90 26 42
        E 92 90 43 32
        E 25 80 42 00
        E 20 80 26 00
        E 119 90 32 3c
        E 84 80 43 00
        E 2 90 42 45
        E 10 80 32 00
        E 127 90 26 47
        E 100 90 43 33
        E 26 80 42 00
        E 62 80 26 00
        E 96 90 32 3d
        E 56 80 43 00
        E 8 90 42 44
        E 28 80 32 00
        E 105 90 26 40
        E 92 90 43 33
        E 40 80 42 00
        E 35 80 26 00
        E 89 90 32 40
        E 94 80 32 00
        E 2 90 42 45
        E 10 80 43 00
        E 117 90 26 42
        E 110 90 43 2b
        E 47 80 42 00
        E 38 80 26 00
        E 62 90 32 3b
        E 92 80 32 00
        E 27 80 43 00
        E 11 90 42 40
        E 74 90 26 3c
        E 168 90 43 30
        E 24 80 42 00
        E 21 80 26 00
        E 42 90 32 41
        E 97 80 32 00
        E 85 80 43 00
        E 2 90 42 45
        E 48 90 26 37
        E 150 80 26 00
        E 34 90 43 2f
        E 25 80 42 00
        E 7 90 32 3f
        E 109 80 32 00
        E 110 90 26 3f
        E 6 90 42 44
        E 4 80 43 00
        E 153 80 26 00
        E 88 90 32 39
        E 32 90 43 2f
        E 25 80 42 00
        E 41 80 32 00
        E 136 90 26 3e
        E 68 90 42 46
        E 24 80 43 00
        E 56 80 26 00
        E 81 90 32 3b
        E 89 80 32 00
        E 35 90 43 2f
        E 27 80 42 00
        E 26 90 26 40
        E 129 80 26 00
        E 38 90 42 42
        E 12 80 43 00
        E 53 90 32 36
        E 109 80 32 00
        E 44 90 43 39
        E 46 80 42 00
        E 56 90 26 45
        E 172 80 43 00
        E 9 90 42 29
        E 23 80 26 00
        E 47 90 32 44
        E 14 80 42 00
        E 17 90 3e 41
        E 77 80 32 00
        E 104 80 3e 00
        E 2 90 26 34
        E 88 90 40 3d
        E 143 80 26 00
        E 37 80 40 00
        E 28 90 32 40
        E 45 90 3e 3d
        E 61 80 32 00
        E 84 80 3e 00
        E 35 90 26 38
        E 54 90 40 3e
        E 162 80 26 00
        E 22 80 40 00
        E 59 90 32 3b
        E 20 90 3e 3f
        E 71 80 32 00
        E 41 80 3e 00
        E 19 90 26 41
        E 50 90 40 3b
        E 174 80 26 00
        E 36 80 40 00
        E 62 90 32 38
        E 6 90 3e 3e
        E 88 80 32 00
        E 21 80 3e 00
        E 24 90 26 44
        E 43 90 40 35
        E 195 80 26 00
        E 27 80 40 00
        E 46 90 32 3a
        E 2 90 3e 3e
        E 93 80 32 00
        E 51 80 3e 00
        E 55 90 26 41
        E 9 90 40 36
        E 201 80 26 00
        E 15 80 40 00
        E 32 90 3e 3d
        E 6 90 32 3e
        E 109 80 32 00
        E 92 80 3e 00
        E 32 90 40 3a
        E 14 90 26 41
        E 176 80 26 00
        E 56 80 40 00
        E 14 90 32 3e
        E 16 90 3e 39
        E 79 80 32 00
        E 61 80 3e 00
        E 26 90 26 45
        E 11 90 40 3d
        E 214 80 26 00
        E 16 80 40 00
        E 26 90 3e 3b
        E 16 90 32 3a
        E 114 80 32 00
        E 19 90 40 40
        E 20 80 3e 00
        E 64 90 26 42
        E 94 80 40 00
        E 28 80 26 00
        E 56 90 3c 4c
        E 92 90 32 37
        E 80 80 3c 00
        E 10 80 32 00
        E 35 90 3e 3c
        E 37 90 26 43
        E 115 80 26 00
        E 45 80 3e 00
        E 30 90 3c 48
        E 77 90 32 38
        E 95 80 32 00
        E 38 80 3c 00
        E 54 90 3e 3e
        E 34 90 26 44
        E 154 80 3e 00
        E 15 80 26 00
        E 18 90 3c 3f
        E 80 90 32 39
        E 84 80 3c 00
        E 9 80 32 00
        E 47 90 3e 3c
        E 37 90 26 3a
        E 113 80 3e 00
        E 30 80 26 00
        E 35 90 3c 41
        E 91 90 32 2d
        E 102 80 32 00
        E 2 80 3c 00
        E 48 90 3e 3d
        E 59 90 26 3a
        E 116 80 26 00
        E 21 80 3e 00
        E 35 90 3c 46
        E 109 90 32 2b
        E 106 80 3c 00
        E 11 80 32 00
        E 38 90 3e 39
        E 32 90 26 3c
        E 99 80 26 00
        E 20 80 3e 00
        E 45 90 3c 41
        E 32 90 32 33
        E 112 80 32 00
        E 71 80 3c 00
        E 48 90 3e 41
        E 32 90 26 3f
        E 121 80 26 00
        E 20 80 3e 00
        E 37 90 3c 3f
        E 43 90 32 37
        E 116 80 32 00
        E 51 80 3c 00
        E 25 90 3e 42
        E 68 90 26 45
        E 107 80 26 00
        E 31 80 3e 00
        E 71 90 3c 36
        E 22 90 32 35
        E 135 80 32 00
        E 38 90 3e 3e
        E 6 80 3c 00
        E 99 90 26 41
        E 111 80 3e 00
        E 48 90 3c 44
        E 55 90 32 41
        E 26 80 26 00
        E 76 80 3c 00
        E 40 80 32 00
        E 23 90 3e 3e
        E 52 90 26 46
        E 77 80 3e 00
        E 60 90 40 47
        E 66 80 26 00
        E 22 80 40 00
        E 51 90 32 39
        E 69 90 3e 42
        E 44 80 32 00
        E 167 90 26 43
        E 13 80 3e 00
        E 5 90 40 40
        E 90 80 26 00
        E 61 80 40 00
        E 66 90 32 3f
        E 22 90 3e 38
        E 77 80 32 00
        E 98 90 26 44
        E 52 80 3e 00
        E 16 90 40 3f
        E 115 80 40 00
        E 2 80 26 00
        E 78 90 32 3a
        E 62 90 3e 31
        E 55 80 32 00
        E 124 90 26 41
        E 55 80 3e 00
        E 21 90 40 39
        E 119 80 40 00
        E 2 80 26 00
        E 51 90 32 3c
        E 25 90 3e 3c
        E 80 80 32 00
        E 85 90 26 3f
        E 50 80 3e 00
        E 53 90 40 39
        E 113 80 26 00
        E 7 80 40 00
        E 45 90 32 39
        E 38 90 3e 39
        E 62 80 32 00
        E 94 90 26 3d
        E 45 80 3e 00
        E 45 90 40 3e
        E 107 80 26 00
        E 15 80 40 00
        E 50 90 32 3c
        E 47 90 3e 3a
        E 51 80 32 00
        E 110 90 26 38
        E 15 80 3e 00
        E 43 90 40 41
        E 114 80 26 00
        E 11 80 40 00
        E 71 90 32 3a
        E 48 90 3e 37
        E 63 80 32 00
        E 112 80 3e 00
        E 24 90 40 42
        E 22 90 26 3c
        E 91 80 40 00
        E 11 80 26 00
        E 96 90 32 3c
        E 2 90 3e 39
        E 100 80 32 00
        E 117 90 26 42
        E 2 80 3e 00
        E 20 90 40 43
        E 125 80 40 00
        E 2 80 26 00
        E 112 90 32 37
        E 6 90 3e 38
        E 88 80 32 00
        E 117 90 26 42
        E 6 80 3e 00
        E 22 90 40 44
        E 115 80 26 00
        E 1 80 40 00
        E 117 90 32 37
        E 15 90 3e 3a
        E 81 80 32 00
        E 105 90 26 42
        E 22 80 3e 00
        E 20 90 40 45
        E 143 80 40 00
        E 2 80 26 00
        E 78 90 32 3e
        E 39 90 3e 3c
        E 56 80 32 00
        E 138 90 26 3b
        E 10 80 3e 00
        E 11 90 40 41
        E 152 80 26 00
        E 67 80 40 00
        E 1 90 32 3b
        E 50 90 3e 3a
        E 63 80 32 00
        E 139 90 26 3f
        E 12 80 3e 00
        E 5 90 40 40
        E 104 80 26 00
        E 77 80 40 00
        E 65 90 32 33
        E 51 90 3e 39
        E 43 80 32 00
        E 123 90 26 45
        E 23 80 3e 00
        E 35 90 40 42
        E 59 80 26 00
        E 65 80 40 00
        E 74 90 32 37
        E 90 80 32 00
        E 9 90 3e 39
        E 103 90 26 4b
        E 57 80 3e 00
        E 32 90 40 46
        E 108 80 26 00
        E 67 80 40 00
        E 12 90 32 3a
        E 99 80 32 00
        E 23 90 3e 3c
        E 122 90 26 44
        E 20 90 40 47
        E 42 80 3e 00
        E 59 80 40 00
        E 79 80 26 00
        E 96 90 32 47
        E 91 80 32 00
        E 22 90 45 49
        E 78 90 26 44
        E 8 80 45 00
        E 151 90 47 41
        E 82 80 26 00
        E 14 80 47 00
        E 65 90 32 3b
        E 85 80 32 00
        E 6 90 45 34
        E 85 90 26 3c
        E 65 80 45 00
        E 39 90 47 43
        E 122 80 26 00
        E 16 80 47 00
        E 44 90 32 3f
        E 68 90 45 37
        E 21 80 32 00
        E 121 90 26 3c
        E 54 80 45 00
        E 36 90 47 40
        E 107 80 47 00
        E 19 80 26 00
        E 67 90 32 3f
        E 53 90 45 32
        E 36 80 32 00
        E 118 90 26 3c
        E 30 80 45 00
        E 36 90 47 41
        E 133 80 47 00
        E 37 80 26 00
        E 68 90 32 37
        E 4 90 45 2f
        E 91 80 32 00
        E 124 90 26 3c
        E 22 80 45 00
        E 22 90 47 40
        E 147 80 47 00
        E 2 80 26 00
        E 49 90 32 3e
        E 42 90 45 2f
        E 74 80 32 00
        E 148 80 45 00
        E 16 90 26 3e
        E 9 90 47 42
        E 131 80 47 00
        E 7 80 26 00
        E 80 90 32 37
        E 29 90 45 30
        E 77 80 32 00
        E 140 80 45 00
        E 25 90 47 3e
        E 2 90 26 40
        E 137 80 26 00
        E 10 80 47 00
        E 99 90 45 38
        E 2 90 32 36
        E 117 80 32 00
        E 68 90 47 41
        E 13 80 45 00
        E 55 90 26 41
        E 108 80 47 00
        E 15 80 26 00
        E 91 90 43 3e
        E 14 90 32 3c
        E 99 80 32 00
        E 22 80 43 00
        E 70 90 45 3c
        E 43 90 26 41
        E 119 80 45 00
        E 23 80 26 00
        E 72 90 43 39
        E 27 90 32 32
        E 99 80 32 00
        E 22 80 43 00
        E 80 90 45 36
        E 29 90 26 3e
        E 107 80 45 00
        E 49 80 26 00
        E 40 90 43 3b
        E 53 90 32 3c
        E 90 80 32 00
        E 64 80 43 00
        E 52 90 45 44
        E 9 90 26 3e
        E 127 80 26 00
        E 4 80 45 00
        E 120 90 43 39
        E 4 90 32 33
        E 97 80 32 00
        E 94 80 43 00
        E 24 90 45 3f
        E 11 90 26 41
        E 126 80 26 00
        E 14 80 45 00
        E 89 90 43 31
        E 29 90 32 33
        E 96 80 32 00
        E 52 80 43 00
        E 33 90 45 40
        E 22 90 26 44
        E 122 80 26 00
        E 22 80 45 00
        E 81 90 43 36
        E 69 90 32 27
        E 112 80 32 00
        E 14 80 43 00
        E 14 90 45 3f
        E 87 90 26 3c
        E 89 80 26 00
        E 22 80 45 00
        E 58 90 43 36
        E 22 90 32 38
        E 99 80 32 00
        E 96 80 43 00
        E 13 90 45 3f
        E 38 90 26 41
        E 93 80 26 00
        E 47 80 45 00
        E 51 90 43 34
        E 22 90 32 3a
        E 94 80 32 00
        E 166 90 45 34
        E 12 90 26 49
        E 11 80 43 00
        E 178 90 32 3e
        E 29 80 26 00
        E 14 80 45 00
        E 82 90 42 48
        E 74 80 32 00
        E 113 90 26 3c
        E 30 80 42 00
        E 32 90 43 3d
        E 72 80 26 00
        E 72 80 43 00
        E 23 90 32 3a
        E 31 90 42 42
        E 71 80 32 00
        E 156 80 42 00
        E 13 90 26 3b
        E 10 90 43 3c
        E 109 80 26 00
        E 97 80 43 00
        E 23 90 32 34
        E 13 90 42 47
        E 87 80 32 00
        E 127 90 26 48
        E 36 80 42 00
        E 2 90 43 34
        E 83 80 26 00
        E 72 80 43 00
        E 72 90 32 31
        E 11 90 42 41
        E 93 80 32 00
        E 141 80 42 00
        E 33 90 26 3a
        E 30 90 43 30
        E 72 80 26 00
        E 50 80 43 00
        E 67 90 42 44
        E 8 90 32 38
        E 97 80 32 00
        E 118 90 26 42
        E 15 80 42 00
        E 26 90 43 35
        E 101 80 26 00
        E 24 80 43 00
        E 94 90 42 41
        E 9 90 32 33
        E 105 80 32 00
        E 103 80 42 00
        E 19 90 26 40
        E 3 90 43 3d
        E 135 80 26 00
        E 4 80 43 00
        E 101 90 42 47
        E 26 90 32 2f
        E 101 80 32 00
        E 114 90 43 3a
        E 2 90 26 37
        E 2 80 42 00
        E 110 80 26 00
        E 52 80 43 00
        E 48 90 42 3f
        E 55 90 32 2e
        E 106 80 32 00
        E 70 80 42 00
        E 5 90 43 3a
        E 40 90 26 38
        E 110 80 26 00
        E 46 80 43 00
        E 63 90 42 42
        E 23 90 32 2f
        E 99 80 32 00
        E 100 90 43 37
        E 14 90 26 43
        E 2 80 42 00
        E 113 80 26 00
        E 36 80 43 00
        E 74 90 42 42
        E 49 90 32 2f
        E 103 80 32 00
        E 73 80 42 00
        E 18 90 26 44
        E 3 90 43 3b
        E 99 80 26 00
        E 66 80 43 00
        E 89 90 42 43
        E 9 90 32 3b
        E 88 80 32 00
        E 109 90 26 42
        E 45 80 42 00
        E 1 90 43 39
        E 115 80 26 00
        E 61 80 43 00
        E 58 90 32 33
        E 10 90 42 42
        E 88 80 32 00
        E 75 90 26 44
        E 64 80 42 00
        E 15 90 43 3d
        E 70 80 26 00
        E 82 80 43 00
        E 48 90 32 36
        E 39 90 42 44
        E 60 80 32 00
        E 111 90 26 45
        E 61 80 42 00
        E 45 80 26 00
        E 2 90 43 38
        E 145 80 43 00
        E 5 90 32 3a
        E 53 90 42 45
        E 54 80 32 00
        E 129 90 26 40
        E 81 80 42 00
        E 37 90 43 3a
        E 27 80 26 00
        E 114 90 32 35
        E 2 80 43 00
        E 56 90 42 45
        E 45 80 32 00
        E 155 90 26 3c
        E 20 80 42 00
        E 16 90 43 3b
        E 61 80 26 00
        E 125 90 32 3a
        E 45 80 43 00
        E 41 90 42 48
        E 9 80 32 00
        E 139 90 26 3d
        E 54 90 43 3c
        E 74 80 42 00
        E 45 80 43 00
        E 6 80 26 00
        E 50 90 32 42
        E 200 80 32 00
        E 73 90 26 45
        E 13 90 45 47
        E 188 80 26 00
        E 65 90 32 21
        E 2 90 47 40
        E 6 80 45 00
        E 93 90 26 3e
        E 2 80 32 00
        E 37 80 47 00
        E 69 80 26 00
        E 10 90 45 33
        E 98 90 32 2b
        E 108 80 32 00
        E 31 80 45 00
        E 38 90 47 2a
        E 2 90 26 3d
        E 93 80 26 00
        E 49 80 47 00
        E 52 90 45 2e
        E 75 90 32 2b
        E 107 80 32 00
        E 53 80 45 00
        E 6 90 26 29
        E 38 90 47 33
        E 69 80 26 00
        E 63 80 47 00
        E 3 90 32 2d
        E 64 90 45 32
        E 101 80 32 00
        E 103 90 26 41
        E 24 80 45 00
        E 54 90 47 2e
        E 25 80 26 00
        E 97 80 47 00
        E 57 90 45 34
        E 2 90 32 39
        E 91 80 32 00
        E 96 90 26 46
        E 32 80 45 00
        E 9 90 47 3a
        E 43 80 26 00
        E 109 80 47 00
        E 46 90 32 3a
        E 27 90 45 34
        E 65 80 32 00
        E 92 90 26 46
        E 44 80 45 00
        E 21 90 47 3c
        E 25 80 26 00
        E 112 80 47 00
        E 35 90 32 3f
        E 39 90 45 33
        E 59 80 32 00
        E 105 90 26 44
        E 43 80 45 00
        E 13 90 47 3b
        E 85 80 26 00
        E 72 80 47 00
        E 34 90 32 40
        E 16 90 45 39
        E 97 80 32 00
        E 131 90 47 3e
        E 7 90 26 42
        E 7 80 45 00
        E 104 80 26 00
        E 69 90 45 3f
        E 20 80 47 00
        E 31 90 32 3c
        E 107 80 45 00
        E 11 80 32 00
        E 111 90 45 2a
        E 8 90 26 46
        E 101 80 45 00
        E 27 90 43 44
        E 20 80 26 00
        E 138 90 32 33
        E 92 80 32 00
        E 9 90 45 33
        E 11 80 43 00
        E 61 90 26 43
        E 132 80 45 00
        E 27 90 43 33
        E 17 80 26 00
        E 92 90 32 40
        E 85 80 32 00
        E 46 80 43 00
        E 13 90 45 3a
        E 39 90 26 3f
        E 139 80 45 00
        E 7 80 26 00
        E 57 90 43 33
        E 60 90 32 39
        E 92 80 32 00
        E 68 80 43 00
        E 11 90 26 41
        E 8 90 45 3f
        E 115 80 26 00
        E 57 80 45 00
        E 64 90 32 3c
        E 2 90 43 33
        E 96 80 32 00
        E 105 80 43 00
        E 11 90 45 3d
        E 7 90 26 44
        E 94 80 26 00
        E 88 80 45 00
        E 37 90 32 3f
        E 28 90 43 2f
        E 78 80 32 00
        E 111 80 43 00
        E 10 90 26 40
        E 20 90 45 36
        E 85 80 26 00
        E 103 80 45 00
        E 33 90 32 3e
        E 23 90 43 30
        E 85 80 32 00
        E 105 90 26 44
        E 14 80 43 00
        E 33 90 45 34
        E 143 80 26 00
        E 23 80 45 00
        E 63 90 32 40
        E 3 90 43 30
        E 98 80 32 00
        E 78 80 43 00
        E 32 90 26 3f
        E 2 90 45 38
        E 165 80 26 00
        E 9 80 45 00
        E 42 90 43 32
        E 41 90 32 39
        E 97 80 32 00
        E 95 90 45 35
        E 6 80 43 00
        E 2 90 26 41
        E 190 90 43 3b
        E 16 80 26 00
        E 2 80 45 00
        E 47 90 32 43
        E 103 80 32 00
        E 12 80 43 00
        E 116 90 26 40
        E 165 90 42 42
        E 24 80 26 00
        E 129 90 32 26
        E 78 80 42 00
        E 27 90 43 37
        E 8 80 32 00
        E 11 90 26 41
        E 99 80 43 00
        E 119 80 26 00
        E 26 90 42 42
        E 79 90 32 32
        E 98 80 32 00
        E 82 80 42 00
        E 1 90 26 3a
        E 136 90 43 1b
        E 21 80 26 00
        E 107 80 43 00
        E 17 90 32 34
        E 1 90 42 41
        E 94 80 32 00
        E 100 90 26 40
        E 56 90 43 32
        E 9 80 42 00
        E 43 80 26 00
        E 133 90 32 33
        E 10 80 43 00
        E 58 90 42 3f
        E 53 80 32 00
        E 132 90 26 3e
        E 50 80 42 00
        E 15 90 43 34
        E 78 80 26 00
        E 69 80 43 00
        E 62 90 32 38
        E 12 90 42 40
        E 91 80 32 00
        E 135 90 26 3f
        E 13 80 42 00
        E 3 90 43 31
        E 114 80 26 00
        E 32 80 43 00
        E 81 90 42 3d
        E 30 90 32 36
        E 98 80 32 00
        E 103 80 42 00
        E 18 90 43 36
        E 3 90 26 41
        E 124 80 26 00
        E 55 80 43 00
        E 69 90 32 39
        E 17 90 42 42
        E 86 80 32 00
        E 132 90 26 3e
        E 5 80 42 00
        E 8 90 43 34
        E 89 80 26 00
        E 80 80 43 00
        E 47 90 32 33
        E 18 90 42 3e
        E 91 80 32 00
        E 122 90 26 3e
        E 32 80 42 00
        E 10 90 43 34
        E 94 80 26 00
        E 97 80 43 00
        E 27 90 42 3c
        E 2 90 32 2e
        E 112 80 32 00
        E 99 90 26 3b
        E 16 80 42 00
        E 14 90 43 38
        E 119 80 26 00
        E 76 80 43 00
        E 42 90 42 41
        E 8 90 32 30
        E 111 80 32 00
        E 112 90 26 3d
        E 2 80 42 00
        E 7 90 43 37
        E 122 80 26 00
        E 32 80 43 00
        E 68 90 42 3e
        E 24 90 32 34
        E 101 80 32 00
        E 89 90 26 41
        E 14 80 42 00
        E 2 90 43 3b
        E 151 80 26 00
        E 28 80 43 00
        E 57 90 42 3f
        E 28 90 32 34
        E 98 80 32 00
        E 60 90 26 3f
        E 51 90 43 35
        E 2 80 42 00
        E 137 80 43 00
        E 34 80 26 00
        E 35 90 42 3e
        E 39 90 32 34
        E 106 80 32 00
        E 88 80 42 00
        E 3 90 26 3b
        E 23 90 43 35
        E 185 80 43 00
        E 23 80 26 00
        E 30 90 42 45
        E 33 90 32 2f
        E 106 80 32 00
        E 90 80 42 00
        E 2 90 26 3b
        E 15 90 43 3e
        E 198 80 26 00
        E 15 80 43 00
        E 32 90 42 45
        E 24 90 32 31
        E 98 80 32 00
        E 85 90 26 3b
        E 20 80 42 00
        E 12 90 43 3c
        E 137 80 26 00
        E 64 80 43 00
        E 36 90 42 42
        E 2 90 32 30
        E 103 80 32 00
        E 79 90 26 42
        E 44 80 42 00
        E 3 90 43 3c
        E 158 80 26 00
        E 43 80 43 00
        E 32 90 42 41
        E 14 90 32 34
        E 99 80 32 00
        E 93 90 26 39
        E 15 90 43 3c
        E 10 80 42 00
        E 114 80 26 00
        E 131 90 32 35
        E 2 80 43 00
        E 31 90 42 44
        E 81 80 32 00
        E 48 90 43 47
        E 50 80 42 00
        E 13 90 26 42
        E 109 80 26 00
        E 43 80 43 00
        E 84 90 32 3d
        E 6 90 3e 4b
        E 94 80 32 00
        E 120 80 3e 00
        E 2 90 26 43
        E 61 90 40 41
        E 38 80 26 00
        E 123 80 40 00
        E 30 90 32 33
        E 26 90 3e 3f
        E 74 80 32 00
        E 32 80 3e 00
        E 72 90 26 40
        E 9 90 40 40
        E 102 80 26 00
        E 98 80 40 00
        E 62 90 3e 40
        E 24 90 32 27
        E 96 80 3e 00
        E 21 80 32 00
        E 66 90 40 3e
        E 2 90 26 3f
        E 97 80 26 00
        E 43 80 40 00
        E 87 90 32 34
        E 6 90 3e 3e
        E 100 80 32 00
        E 29 80 3e 00
        E 108 90 40 38
        E 3 90 26 3b
        E 93 80 26 00
        E 23 80 40 00
        E 89 90 3e 3b
        E 10 90 32 39
        E 99 80 32 00
        E 32 80 3e 00
        E 86 90 26 3b
        E 28 90 40 3c
        E 79 80 26 00
        E 34 80 40 00
        E 95 90 3e 3c
        E 24 90 32 31
        E 106 80 32 00
        E 57 80 3e 00
        E 42 90 26 41
        E 29 90 40 3d
        E 70 80 26 00
        E 89 80 40 00
        E 71 90 32 38
        E 4 90 3e 37
        E 102 80 32 00
        E 41 80 3e 00
        E 48 90 26 43
        E 35 90 40 3b
        E 124 80 26 00
        E 41 80 40 00
        E 85 90 3e 3b
        E 13 90 32 2f
        E 102 80 32 00
        E 34 80 3e 00
        E 30 90 26 43
        E 73 90 40 34
        E 138 80 40 00
        E 48 80 26 00
        E 19 90 3e 35
        E 57 90 32 2a
        E 107 80 32 00
        E 39 80 3e 00
        E 28 90 26 3c
        E 30 90 40 38
        E 182 80 40 00
        E 7 80 26 00
        E 26 90 3e 41
        E 107 90 32 1f
        E 94 80 32 00
        E 18 90 26 3a
        E 2 80 3e 00
        E 49 90 40 3b
        E 177 80 26 00
        E 12 80 40 00
        E 18 90 3e 35
        E 79 90 32 29
        E 116 80 32 00
        E 31 80 3e 00
        E 41 90 26 3f
        E 30 90 40 3c
        E 185 80 26 00
        E 82 80 40 00
        E 22 90 3e 41
        E 2 90 32 38
        E 97 80 32 00
        E 62 90 26 3e
        E 36 80 3e 00
        E 88 90 40 3b
        E 82 80 26 00
        E 45 80 40 00
        E 51 90 3e 38
        E 36 90 32 24
        E 106 80 32 00
        E 16 80 3e 00
        E 9 90 26 3e
        E 79 90 40 35
        E 147 80 26 00
        E 4 80 40 00
        E 60 90 3e 3e
        E 147 80 3e 00
        E 58 90 26 3a
        E 50 90 40 31
        E 151 80 40 00
        E 23 80 26 00
        E 25 90 3e 42
        E 89 90 32 1e
        E 69 80 3e 00
        E 26 80 32 00
        E 87 90 40 38
        E 8 90 26 38
        E 93 80 40 00
        E 4 80 26 00
        E 570 b0 40 00
        E 609 b0 7b 00
        CCINTERP 32
        CHASE_CC_TAKEOFFS 1
        GUID {181B3871-3069-6F44-AF5E-BA2245A61F09}
        IGNTEMPO 0 120 4 4
        SRCCOLOR 56
        VELLANE -1 100 0
      >
    >
  >
  <TRACK {C2CE8DB4-C88C-A241-AA81-43D959E0A0C1}
    NAME Piano
    PEAKCOL 16576
    BEAT -1
    AUTOMODE 0
    VOLPAN 1 0 -1 -1 1
    MUTESOLO 1 0 0
    IPHASE 0
    PLAYOFFS 0 1
    ISBUS 0 0
    BUSCOMP 0 0 0 0 0
    SHOWINMIX 0 0.6667 0.5 0 0.5 0 -1 0
    FREEMODE 0
    SEL 0
    REC 0 4096 1 0 0 0 0
    VU 2
    TRACKHEIGHT 0 0 0 0 0 0
    INQ 0 0 0 0.5 100 0 0 100
    NCHAN 2
    FX 1
    TRACKID {C2CE8DB4-C88C-A241-AA81-43D959E0A0C1}
    PERF 0
    MIDIOUT -1
    MAINSEND 1 0
    <FXCHAIN
      WNDRECT 32 530 831 493
      SHOW 0
      LASTSEL 1
      DOCKED 0
      BYPASS 0 0 0
      <VST "VST: ReaControlMIDI (Cockos)" reacontrolMIDI.vst.dylib 0 "" 1919118692<56535472636D64726561636F6E74726F> ""
        ZG1jcu5e7f4AAAAAAAAAAO8AAAABAAAAAAAQAA==
        /////wAAAAAAAAAAAAAAAAkAAAAMAAAAAQAAAP8/AAAAIAAAACAAAAAAAAA+AAAAL1VzZXJzL2FuZHkvTGlicmFyeS9BcHBsaWNhdGlvbiBTdXBwb3J0L1JFQVBFUi9E
        YXRhL0dNLnJlYWJhbmsAAAAAAAAAAAAAAAAAAAAAAAAAAAAAAAAAAAAAAAAAAAAAAAABAAAAAAAAAAAAAAAAAAAAAAAAAAAAAAAAAAAAAAYAAABNYWpvcgANAAAAMTAy
        MDM0MDUwNjA3AAEAAAAAAAAAAAAAAAAKAAAADQAAAAEAAAAAAAAAAAAAAAAAAAA=
        AAAQAAAA
      >
      FLOATPOS 0 0 0 0
      FXID {52D09F05-39F6-A448-A8D5-4A5B11F78662}
      WAK 0 0
      BYPASS 0 0 0
      <AU "AUi: Pianoteq 5 STAGE (Modartt)" "Modartt: Pianoteq 5 STAGE" "" 1635085685 1349793133 1298428532
        6QMAAAAAAAAAAAAAAgAAAAEAAAAAAAAAAgAAAAAAAAC2KwAAPD94bWwgdmVyc2lvbj0iMS4wIiBlbmNvZGluZz0iVVRGLTgiPz4KPCFET0NUWVBFIHBsaXN0IFBVQkxJ
        QyAiLS8vQXBwbGUvL0RURCBQTElTVCAxLjAvL0VOIiAiaHR0cDovL3d3dy5hcHBsZS5jb20vRFREcy9Qcm9wZXJ0eUxpc3QtMS4wLmR0ZCI+CjxwbGlzdCB2ZXJzaW9u
        PSIxLjAiPgo8ZGljdD4KCTxrZXk+ZGF0YTwva2V5PgoJPGRhdGE+CglBQUFBQUFBQUFBQUFBQUJMQUFBQUFBQUFBQUFBQUFBQkFBQUFBQUFBQUFJQUFBQUFBQUFBQXdB
        QUFBQUFBQUFFQUFBQQoJQUFBQUFBVUFBQUFBQUFBQUJnQUFBQUFBQUFBSEFBQUFBQUFBQUFnQUFBQUFBQUFBQ1FBQUFBQUFBQUFLQUFBQUFBQUEKCUFBc0FBQUFBQUFB
        QURBQUFBQUFBQUFBTkFBQUFBQUFBQUE0QUFBQUFBQUFBRHdBQUFBQUFBQUFRQUFBQUFBQUFBQkVBCglBQUFBQUFBQUVnQUFBQUFBQUFBVEFBQUFBQUFBQUJRQUFBQUFB
        QUFBRlFBQUFBQUFBQUFXQUFBQUFBQUFBQmNBQUFBQQoJQUFBQUdBQUFBQUFBQUFBWkFBQUFBQUFBQUJvQUFBQUFBQUFBR3dBQUFBQUFBQUFjQUFBQUFBQUFBQjBBQUFB
        QUFBQUEKCUhnQUFBQUFBQUFBZkFBQUFBQUFBQUNBQUFBQUFBQUFBSVFBQUFBQUFBQUFpQUFBQUFBQUFBQ01BQUFBQUFBQUFKQUFBCglBQUFBQUFBbEFBQUFBQUFBQUNZ
        QUFBQUFBQUFBSndBQUFBQUFBQUFvQUFBQUFBQUFBQ2tBQUFBQUFBQUFLZ0FBQUFBQQoJQUFBckFBQUFBQUFBQUN3QUFBQUFBQUFBTFFBQUFBQUFBQUF1QUFBQUFBQUFB
        QzhBQUFBQUFBQUFNQUFBQUFBQUFBQXgKCUFBQUFBQUFBQURJQUFBQUFBQUFBTXdBQUFBQUFBQUEwQUFBQUFBQUFBRFVBQUFBQUFBQUFOZ0FBQUFBQUFBQTNBQUFBCglB
        QUFBQURnQUFBQUFBQUFBT1FBQUFBQUFBQUE2QUFBQUFBQUFBRHNBQUFBQUFBQUFQQUFBQUFBQUFBQTlBQUFBQUFBQQoJQUQ0QUFBQUFBQUFBUHdBQUFBQUFBQUJBQUFB
        QUFBQUFBRUVBQUFBQUFBQUFRZ0FBQUFBQUFBQkRBQUFBQUFBQUFFUUEKCUFBQUFBQUFBUlFBQUFBQUFBQUJHQUFBQUFBQUFBRWNBQUFBQUFBQUFTQUFBQUFBQUFBQkpB
        QUFBQUFBQUFFb0FBQUFBCgk8L2RhdGE+Cgk8a2V5Pmp1Y2VQbHVnaW5TdGF0ZTwva2V5PgoJPGRhdGE+CglVSEpXU3hZQUFBSllSbFJROGhzQUFBb0FBQUF5TURJeEx6
        QXlMekkxSFFBQUFGQnBZVzV2ZEdWeElGTlVRVWRGSURVdQoJT0M0eEx6SXdNVFl4TVRJMVNKaG1IZ0dEN2tCZVBpc2kwb3l1SldSc2JHR3JHd0FBZEdSMFRYSUdBQUFS
        QUFBQVJEUWcKCVJHRnBiSGtnVUhKaFkzUnBZMlVBQUFBQUdnQUFBRU52Y0hseWFXZG9kQ0FvWXlrZ01qQXhOaUJOYjJSaGNuUjBod0FBCglBRlJvYVhNZ2NISmxjMlYw
        SUc5bVptVnljeUJoSUdOc1pXRnVJSE52ZFc1a0xDQjViM1VnYldGNUlHeHBhMlVnZEc4ZwoJZFhObElHbDBJR1p2Y2lCNWIzVnlJR1JoYVd4NUlIQnlZV04wYVdObExp
        QkJiSE52SUdFZ1oyOXZaQ0J6ZEdGeWRHbHUKCVp5QndiMmx1ZENCbWIzSWdjSEpsY0dGeWFXNW5JRzVsZHlCd2NtVnpaWFJ6TGdBQUFBQkdBQUFBRVFBQUFFUTBJRVJo
        CglhV3g1SUZCeVlXTjBhV05sQUFBQUFJc0ZBQUJIVWxWVkFBQUFCZ0FBQUFFRHdFMVVjbXNBQUFWMUFQOENEeUJRYVdWMAoJSUVSbElGSnBaR1JsY2dDUUtpbDRnQ3BW
        QnBBckpJTXhnQ3NOYUpBa0tvSUhnQ1FjTXBBM0xZRUpnRGRQZ21hUVBER0IKCVRvQThSVmFRS3lvRlB6dUJUSUEvYkZhUVF5OHFOeUNCR0lCRFVnUTNLMG9ySllFUmtE
        ODBDQ1VsY29BL1d6MGxUVktRCglRaXNJSmlLQk9vQkNTb0Vza0RraGdoU0FPVXFCSUNZYk5KQStNSU5NTFVLQklvQXRTb0pDa0RJOWdWZUFNanRDa0NzeQoJUW9BK2JJ
        TWxrREl0Z2h3dlBDQ0FLMmtLTWkxOUwwOUZrRHBQQ2pWS2dWV0FPbU1ia0RzK0NZQTFJb0ltTzBBRWtEdzQKCWdTdUFQR2xIa0VGQkZESTVnU0tBTW1aWWtEaFFnazBr
        U29KWGdEaGdnU2FRTno0R1AwODNnRUZGZ3hZa0NTaVFNRUdCCgljb0EzUUI2UUswRXFnREEyWno5ZGZKQXdPRktBS3dVY01GS0JBSkFrVUlFZ2dDUmpiWkE4UllGd2dE
        eG1CNUEvTVlJSgoJUVZrR2dEOXlGSkF3UW9GZ2dFRnZlVEFGZnBCQ1pvRTVnRUpTTHBCRFZGSXdMWGVBUTJrNmtFUlBnUjZBTUU4MVJHazUKCWtFVkdCQ1l4aEJJd0xp
        aUFKbStCYVpCRFZTK0FSVnVDUWpBMFlaQkVXZ3lBUTAwQWtDMUJCVEEyZ1IyQU1GMEFSR3hWCglrRVZlRWpBZGdSYUFNR0F0UldrdGtFWmJDU28zVUlBdE5CeEdZelFx
        WUZTUVIwd05LekdCZUlCSExRbVFRU0NCY0lCQgoJV3gyUVFpcUJTSUJDV3drckdVeVFRMVVJTWthQk1ZQXlZQ1ZEYklGMmtFdHRnUXlBUzJPQ1paQXZQUTFLWG9FemdF
        cEYKCVd5OXBCcEJJUEFRd09ZRnVnRWhwTURBOWdUYVFKQytCUTRBa0oyZVFRMk9CU0lCRFJZSXBrRUpWQ2pCVmNvQkNab0VFCglrRU5GYW9Bd0lZRUVrQ3N0RWtaRklZ
        QkRZNEVtUm1rQ0swVTNrQ2hLQlVoYmdnbUFTR01aa0VaQ0hZQW9Tb0VMUmppQwoJUHBBMFRRQTZSd0JBVHpraU5JRlpnRHBzV2pSc1JVQnNQU0l5R0pBb1JvRjdMbEJQ
        Z0Noc2dTT1FQVitCTklBOVd3a3UKCVprV1FQa1VMS1VXQllZQStZQ1NRUEM2QlY0QThWWUZrS1VkSWtEaExIREEyZ3grQU9Hd2hrRGRaZ1JxQU1Ha3lOMXN1CglrRFZR
        Q3l4VWdTeUFMRmd2TldBTmtEZEdFREE5Z1UrQU4yQUlNRW9va0NaUEFqaEZnUytBT0c5WGtEa3ZnZ1E4TENDQQoJT1J4SkpsV0JKNUEvU3dpQVBHa1BrREJRZ1N1QU1F
        VXVrRUpnRWpBSkQ0QS9hV3hDYnpzd1NqcVFSV2d0TUJKamdFVnMKCUVqQm1WNUJFVmlZcVJvRllRMUF6Z0VSTklFTmpIeXBtZ1FXUVFrb1RLMEtCSG9CQ2FWQ1FRem1C
        TllCRFlFYVFSRTkvCglnRVJwUml0WVRwQkZhQVl2VTRGL2dFVnNTQzgyZ1JtUU1sb0FSbWVCTzRCR2JDdVFSMHc4Z0RJWWdVS1FMMHFCTDRBdgoJWFFSSFl6MlFTRnNI
        TUdhQlg0QkliQTB3V3hLUVMyOGJNMmhRZ0V0c2dRY3pXNEZTa0VoVkFEQmtnUUdBU0dCbE1FSW8KCWtFTnBFU3RNZ1NDQVEyQTdLMlpRa0NjNEJEOUZnVGVBSnowTlAy
        YUJOWkJEVmdBcmE0RWdnRU5qYnBBblN3SS9QQldBCglLMVY5UDBjZUoyWk9rQ1pOQWo0OGdUT0FQaTA3a0NvNEFFSkFib0FtVWhSQ1BTVXFXMVNRUldRVExWVUFMeFNC
        QjRCRgoJYVVZdmJCUXRab0Yva0N4cUJFUnFnVU9BUkdrdExHbUJYSkFxWVFkQ1o0RXhnRUpzSVNwdk01QXJXZ0pEVm9FeGdDdHYKCUUwTm1naHFRUm1FRVFWOEVLMWc1
        UjE4YWdFWnljMEZtUFN0VkgwZGdnVk9RTW1jSlNtb0NRV21DRDRCQkowZ3lRaFZLCglZNFFia0RBNmdYQXpQaVdBTUFDQmNKQTNLNEVjZ0RjQUx6TUFIWkE4VTRGL2dE
        d0FDcEEvVTRGc1ExSVFnRDhBZ1VKRAoJQUI2UVNFcUJFWUJJQUhxUVN6dUNISUJMQUFPUVQxQ0JWSUJQQUlKUGtGQmpDQ3RjQjBwaUFqZGtCRk5nZ1ZDQVNnQVIKCVVB
        QUFVd0JqTndBQ0t3Q0NWWkFrWndJd1pBaFBZZ05JVndSVVl4SkxYd0FyWUFWUlhJRUxnQ3NBRTFRQUJDUUFDMUVBCglKMHNBTVRBQUVVOEFnUTBrUUFBclFBQXdRQUF6
        UUFBM1FBQThRQUEvUUFCRFFBQklRQUJLUUFCTFFBQlBRQUJRUUFCUgoJUUFCVFFBQlVRQUQvTHdCUWNuTlZLUlVBQUMwQUFBQUNBQUFBWkRRQUFBQUFDQUFBQUVkeVlX
        NWtJRVEwQUFBQUFBTUEKCUFBQURBQUFBQUFDb1FRQUFjRUlBQU5oQ0F3QUFBQUFBQUFBQUFBQUFBQUFBQUFBQUFBQURBQUFBQVFBQUFBQUFBQUFBCglBQUFBQXdBQUFB
        QUFBQUFBQUFBQUFBQUFBQU1BQUFBQUFBQUFBQUFBQUFBQUFBQURBQUFBQVFBQUFBRUFBQUFCQUFBQQoJQUFBQVFBQUFBQUFCQUFBQUFBQUFBTngvSWo0REFBQUFDZ0FB
        QUFBQXFFRUFBT2hCQUFBWVFnQUFJRUlBQUNSQ0FBQXMKCVFnQUFZRUlBQUpKQ0FBQ1VRZ0FBdGtJS0FBQUFZYVpKUHdqU1RqOEp6R2svZVB4Y1AxbERWRDh6RG1BL0hR
        aUFQNDgrCglzeitQUHJNL2p6NnpQd0FBQUFBQUFMWkNBQUFBQUFNQUFBQUJBQUFBQUFCd1FnRUFBQUFBQUFBQUFBQUFBQUFBQUFBQQoJQU1qQ0FBQUFBQUVBQUFBQUFB
        QUFBQUFBQUFBQW9NQUFBS0JBQUFBQUFBTUFBQUFDQUFBQUFBQ29RUUFBMkVJQ0FBQUEKCUFBQUFBQUFBQUFBQUFBQUFBd0FBQUFJQUFBQUFBS2hCQUFEWVFnSUFBQUFB
        QUlBL0FBQ0FQd0FBQUFDQUFBQUFBQUFBCglBTklFQUFBQUFJQS9Bd0FBQUFFQUFBQUFBSEJDQVFBQUFBQUFBQUFBQUFBQUF3QUFBR2tBQUFBQUFCQkJBQUFnUVFBQQoJ
        TUVFQUFFQkJBQUJRUVFBQVlFRUFBSEJCQUFDQVFRQUFpRUVBQUpCQkFBQ1lRUUFBb0VFQUFLaEJBQUN3UVFBQXVFRUEKCUFNQkJBQURJUVFBQTBFRUFBTmhCQUFEZ1FR
        QUE2RUVBQVBCQkFBRDRRUUFBQUVJQUFBUkNBQUFJUWdBQURFSUFBQkJDCglBQUFVUWdBQUdFSUFBQnhDQUFBZ1FnQUFKRUlBQUNoQ0FBQXNRZ0FBTUVJQUFEUkNBQUE0
        UWdBQVBFSUFBRUJDQUFCRQoJUWdBQVNFSUFBRXhDQUFCUVFnQUFWRUlBQUZoQ0FBQmNRZ0FBWUVJQUFHUkNBQUJvUWdBQWJFSUFBSEJDQUFCMFFnQUEKCWVFSUFBSHhD
        QUFDQVFnQUFna0lBQUlSQ0FBQ0dRZ0FBaUVJQUFJcENBQUNNUWdBQWprSUFBSkJDQUFDU1FnQUFsRUlBCglBSlpDQUFDWVFnQUFta0lBQUp4Q0FBQ2VRZ0FBb0VJQUFL
        SkNBQUNrUWdBQXBrSUFBS2hDQUFDcVFnQUFyRUlBQUs1QwoJQUFDd1FnQUFza0lBQUxSQ0FBQzJRZ0FBdUVJQUFMcENBQUM4UWdBQXZrSUFBTUJDQUFEQ1FnQUF4RUlB
        QU1aQ0FBREkKCVFnQUF5a0lBQU14Q0FBRE9RZ0FBMEVJQUFOSkNBQURVUWdBQTFrSUFBTmhDQUFEYVFnQUEzRUlBQU41Q0FBRGdRZ0FBCgk0a0pwQUFBQUFBQUF3QUFB
        Z0w4QUFFREFBQUJBd0FBQVFFQUFBQUJBQUFEQVFBQUFnRDhBQUlBL0FBREFRQUFBUUVBQQoJQUlCQUFBQUF3QUFBUU1BQUFJQkFBQUNBUUFBQW9FQUFBTUJBQUFDQVFB
        QUFBSUFBQUlBL0FBQUF3QUFBZ0Q4QUFFREEKCUFBQkF3QUFBUUVBQUFJQkFBQUNnUUFBQW9FQUFBRURBQUFDZ1FBQUFBSUFBQUFCQUFBQkF3QUFBb0VBQUFLQkFBQUJB
        CglRQUFBZ0VBQUFBQkFBQUFBd0FBQWdEOEFBSUJBQUFBQVFBQUFvRUFBQUVCQUFBQkF3QUFBQUlBQUFJQkFBQUJBd0FBQQoJQUlBQUFJQS9BQUNBdndBQVFNQUFBS0JB
        QUFCQXdBQUFBTUFBQUFDQUFBQUFnQUFBb0VBQUFFREFBQUFBd0FBQWdMOEEKCUFFREFBQUJBd0FBQW9FQUFBQURBQUFCQXdBQUFRTUFBQUlCQUFBQ0FQd0FBUU1BQUFJ
        QkFBQUFBQUFBQWdFQUFBSUMvCglBQUFBUUFBQW9FQUFBRURBQUFDQXZ3QUFBTUFBQU1CQUFBQ2dRQUFBUU1BQUFFREFBQUFBd0FBQWdEOEFBRURBQUFCQQoJd0FBQWdM
        OEFBSUMvQUFEQVFBQUFnRUFBQUVEQUFBQUFBQUFBQUFBQUFJQS9BQUJBd0FBQUFNQUFBTUJBQUFCQXdBQUEKCXdFQUFBRURBQUFCQXdBQUFRTUFBQUFCQUFBQUFBQU1B
        QUFBQ0FBQUFBQUNvUVFBQTJFSUNBQUFBQUFDQVB3QUFnRDhBCglBQUFBQUFEY1F3QUFBQUFCQUFBQUFBQUFBQWNBQUFCRVpXWmhkV3gwREFBQUFBQUF5RUlBQUVoREFB
        Q1dRd0FBeUVNQQoJQVBwREFBQVdSQUFBTDBRQUFFaEVBQUJoUkFBQWVrUUFnSWxFQUFDV1JBSUFBQUFBQU54RFBBQUFBRVVBQUFBQUFBQUEKCUFBQUFBQWNBQUFCRVpX
        WmhkV3gwQUFBQUFBQUFBQUFEQUFBQUJBQUFBQUFBd0VFQUFCQkNBQUJBUWdBQTJFSUVBQUFBCglBQUNnd0FBQWdMOEFBQUFBQUFBQUFBQUFBQUFBQUFBQUFBQUFBQUFB
        Z0Q4QUFJQS9Bd0FBQUFJQUFBQUFBS2hCQUFEWQoJUWdJQUFBQUFBSUEvQUFDQVB3QUFBQUFEQUFBQUFnQUFBQUFBcUVFQUFOaENBZ0FBQUFBQWdEOEFBSUEvQUFBQUFB
        QUEKCUFBQURBQUFBQVFBQUFBQUFjRUlCQUFBQUFBQUFBQUFBQUFBQUFJQS9Bd0FBQUFFQUFBQUFBSEJDQVFBQUFBQUFBQUFBCglBQUFBQVFBQUFBQUFBQUFBQUFBQXpj
        ek12YzNNekQwQkFBQUFBQUFBQUFBQUFBQUFBQUMvQUFBQVB3QUFnRDhEQUFBQQoJQXdBQUFBQUFxRUVBQUhCQ0FBRFlRZ01BQUFBQUFJQS9BQUNBUHdBQWdEOEFBQUFB
        QUFBQUFBTUFBQUFDQUFBQUFBQ28KCVFRQUEyRUlDQUFBQUFBQUFBQUFBQUFBQUFBQUFBQUNBUHdNQUFBQUNBQUFBQUFDb1FRQUEyRUlDQUFBQUFBQ0FQd0FBCglnRDhB
        QUFBQUFBQWdRZ01BQUFBSEFBQUFBQUNvUVFBQWtFSUFBS2hDQUFDMFFnQUF3RUlBQU1oQ0FBRFlRZ2NBQUFBQQoJQUFBQUFBQUFBQUFBUUVBQUFNQkFBQUFRUVFBQUlF
        RUFBREJCQUFBQUFBQUFnRDhEQUFBQUF3QUFBQUFBcUVFQUFIQkMKCUFBRFlRZ01BQUFBQUFJQS9BQUNBUHdBQWdEOEFBQUFBQXdBQUFBQUFBQUFCQUFBQUFBQUFBQUFB
        QUFBQkFBQUFBd0FBCglBQUlBQUFBQUFBQUFBQUNBUHdJQUFBQUFBQUFBQUFDQVB3QUFBQUFEQUFBQUFnQUFBQUFBQUFBQUFJQS9BZ0FBQUFBQQoJZ0Q4QUFJQS9BQUFB
        QUFNQUFBQUVBQUFBQUFBQUFDYVRTVDcrZmo4L0FBQ0FQd1FBQUFBQUFBQUFBQUFBQUFBQWdEOEEKCUFJQS9BQUFBQUFNQUFBQUNBQUFBQUFBQUFBQUFnRDhDQUFBQUFB
        QUFBQUFBQUFBQUFBQUF6Y3dzUUFNQUFBQUNBQUFBCglBQUNvUVFBQTJFSUNBQUFBQUFDQVB3QUFnRDhBQUFBQUFBQ0F2d0FBQUQ4REFBQUFBZ0FBQUFBQXdFRUFBTUJD
        QWdBQQoJQUFBQWdEOEFBSUEvQUFBQUFBRUFBQUFBQUFBQUFRQUFBQW9BQUFCVGJXRnNiQ0JJWVd4c0N3QUFBRzFsWkdsMWJXaGgKCWJHd3hBQUFBQUFBQW9FRUFBSUEv
        Wm1abVB3QUFBQUJDWUdVOUFBQUFBQUFBQUFBQUFBQUFBQUNxUXdBQWdEOEFBSUEvCglCUUFBQUFBQWdEOEFBSUEvQXdBQUFGMEFBQUFBQUtoQkFBQ3dRUUFBdUVFQUFN
        QkJBQURJUVFBQTBFRUFBTmhCQUFEZwoJUVFBQTZFRUFBUEJCQUFENFFRQUFBRUlBQUFSQ0FBQUlRZ0FBREVJQUFCQkNBQUFVUWdBQUdFSUFBQnhDQUFBZ1FnQUEKCUpF
        SUFBQ2hDQUFBc1FnQUFNRUlBQURSQ0FBQTRRZ0FBUEVJQUFFQkNBQUJFUWdBQVNFSUFBRXhDQUFCUVFnQUFWRUlBCglBRmhDQUFCY1FnQUFZRUlBQUdSQ0FBQm9RZ0FB
        YkVJQUFIQkNBQUIwUWdBQWVFSUFBSHhDQUFDQVFnQUFna0lBQUlSQwoJQUFDR1FnQUFpRUlBQUlwQ0FBQ01RZ0FBamtJQUFKQkNBQUNTUWdBQWxFSUFBSlpDQUFDWVFn
        QUFta0lBQUp4Q0FBQ2UKCVFnQUFvRUlBQUtKQ0FBQ2tRZ0FBcGtJQUFLaENBQUNxUWdBQXJFSUFBSzVDQUFDd1FnQUFza0lBQUxSQ0FBQzJRZ0FBCgl1RUlBQUxwQ0FB
        QzhRZ0FBdmtJQUFNQkNBQURDUWdBQXhFSUFBTVpDQUFESVFnQUF5a0lBQU14Q0FBRE9RZ0FBMEVJQQoJQU5KQ0FBRFVRZ0FBMWtJQUFOaENBQURhUWdBQTNFSUFBTjVD
        QUFEZ1FnQUE0a0pkQUFBQUFBQ0FQd0FBZ0Q4QUFJQS8KCUFBQ0FQd0FBZ0Q4QUFJQS9BQUNBUHdBQWdEOXhQWW8vaGV1UlAvWW9uRC9zVVpnL2o4S1ZQM0U5aWorYW1a
        ay9qOEtWCglQM3NVamorUHdwVS9tcG1aUDdnZXBUL056SXcvQ3RlalAxSzRuaithbVprLzE2T1FQOWVqa0QrNEhxVS9LVnlQUCtGNgoJbEQ4OUNwYy9leFNPUDQvQ2xU
        OUk0Wm8vZXhTdVA2NUhvVDhBQUlBL0tWeVBQMUs0bmo4QUFJQS80WHFVUDF5UG9qL3MKCVVaZy9YSStpUHgrRnF6K2tjSjAvTXpPelAzc1Vyait1UjZFL1NPR2FQM0U5
        aWo5Y2o2SS93L1dJUCt4Um1EL056SXcvCglGSzZIUHgrRml6L3NVWmcvVXJpZVAzc1Vqait1UjZFL0tWeVBQNXFabVQ5Y2o2SS9DdGVqUDJabXBqK2tjSjAvTXpPVAoJ
        UDQvQ3RUOVN1SjQvbXBtWlA1cVp1VCs0SHFVL0FBQ2dQODNNckQrYW1iay9wSENkUDBqaG1qL056S3cvUFFxWFB5bGMKCWp6L0Q5YWcvUFFxWFA2UnduVCthbVprL2NU
        MnFQMGpobWo5U3VKNC9VcmllUDBqaG1qOTdGSzQvNFhxVVAvWW9uRCtrCgljSjAvQUFBQUFBTUFBQUFEQUFBQUFBQ29RUUFBY0VJQUFOaENBd0FBQUFBQWdEOEFBSUEv
        QUFDQVB3QUFBQUFBQUFBQQoJQXdBQUFGMEFBQUFBQUtoQkFBQ3dRUUFBdUVFQUFNQkJBQURJUVFBQTBFRUFBTmhCQUFEZ1FRQUE2RUVBQVBCQkFBRDQKCVFRQUFBRUlB
        QUFSQ0FBQUlRZ0FBREVJQUFCQkNBQUFVUWdBQUdFSUFBQnhDQUFBZ1FnQUFKRUlBQUNoQ0FBQXNRZ0FBCglNRUlBQURSQ0FBQTRRZ0FBUEVJQUFFQkNBQUJFUWdBQVNF
        SUFBRXhDQUFCUVFnQUFWRUlBQUZoQ0FBQmNRZ0FBWUVJQQoJQUdSQ0FBQm9RZ0FBYkVJQUFIQkNBQUIwUWdBQWVFSUFBSHhDQUFDQVFnQUFna0lBQUlSQ0FBQ0dRZ0FB
        aUVJQUFJcEMKCUFBQ01RZ0FBamtJQUFKQkNBQUNTUWdBQWxFSUFBSlpDQUFDWVFnQUFta0lBQUp4Q0FBQ2VRZ0FBb0VJQUFLSkNBQUNrCglRZ0FBcGtJQUFLaENBQUNx
        UWdBQXJFSUFBSzVDQUFDd1FnQUFza0lBQUxSQ0FBQzJRZ0FBdUVJQUFMcENBQUM4UWdBQQoJdmtJQUFNQkNBQURDUWdBQXhFSUFBTVpDQUFESVFnQUF5a0lBQU14Q0FB
        RE9RZ0FBMEVJQUFOSkNBQURVUWdBQTFrSUEKCUFOaENBQURhUWdBQTNFSUFBTjVDQUFEZ1FnQUE0a0pkQUFBQUFBQUFBQUFBQUFBQUFBQUFBQUFBQUFBQUFBQUFBQUFB
        CglBQUFBQUFBQUFBQXhtdVc4U09GSXZSZFZCNzFBR1dFODBFSjR2Vi9ZU1Qyd05rbTkzam5pdWRoVnFyMHV1R3U5T0NFVAoJT3RkamdMd1cyNFM5UkZJRlBhaUpqenlD
        bDdDNjdyeXFQWkxpdGIyMThibzkybXhKUFVNdm9UM2tGcXU3dlFodnZRUi8KCW9MM1gzSzI5MnhXZFBZZURRejI4QlpXOU1qWEdQTmw3c2IxUjRhNjhqSXp5UEhUL3dU
        MWI1amE3Wm1LUHVoQXB1ajNjCglaN005SUM2YVBhVzBFcjNPMzRXOGpjbTJQRkpIcUR4S05MbzljdVJudmJrYWdEMy9OYTI5MUdXZFBZa2RYVHcyamxzOQoJcmx5UXZU
        cnBYYjFnWUtFOGZJZEdQUkZuQ2oyT1dRTTlHL3pXTzhiVXNieFhHSHM5QVJobHZSMTh3and6bWlTOVR6QlMKCXZVbHZPcjMzVGs0OWJOTzJQY20ySjcwVlM2VTlQVjZk
        UFVVdGVyMCtwSGc5bGVYZnZCM2hsN3dsd1l3OWZrclpPV2IzCgl4ejFhV1NFOWxVdk9QQU1QbkwzYW1tdTliTUdTUFNnejhEd2x2N085N2FOZlBVYjhqajJ3K1VDOUFB
        QUFBQU1BQUFBQQoJQUlBL0FBQ0FQd0FBZ0Q4REFBQUFBd0FBQUFBQXFFRUFBSEJDQUFEWVFnTUFBQUFBQUlBL0FBQ0FQd0FBZ0Q4QUFBQUEKCUF3QUFBQU1BQUFBQUFL
        aEJBQUJ3UWdBQTJFSURBQUFBQUFDQVB3QUFnRDhBQUlBL0FBQUFBQU1BQUFBREFBQUFBQUNvCglRUUFBY0VJQUFOaENBd0FBQUFBQWdEOEFBSUEvQUFDQVB3QUFBQUFB
        QUlBL0FBQ0FQd1lBQUFBQUFJQS9tcG1aUHMzTQoJVEQvTnpNdy9tcG1aUGdnQUFBQUFBQUFBQUFBQUFBQUFBQUFBQUFBQUFBQUFBQUFBQUFBQUFBQUFBQUFBQUFNQUFB
        QUQKCUFBQUFBQUNvUVFBQWNFSUFBTmhDQXdBQUFBQUFnRDhBQUlBL0FBQ0FQd0FBQUFBREFBQUFBd0FBQUFBQXFFRUFBSEJDCglBQURZUWdNQUFBQUFBSUEvQUFDQVB3
        QUFnRDhBQUFBQUF3QUFBQU1BQUFBQUFLaEJBQUJ3UWdBQTJFSURBQUFBQUFDQQoJUHdBQWdEOEFBSUEvQUFBQUFBTUFBQUFEQUFBQUFBQ29RUUFBY0VJQUFOaENBd0FB
        QUFBQWdEOEFBSUEvQUFDQVB3QUEKCUFBQUJBQUFBQVFBQUFBQUFjRUlEQUFBQUFRQUFBQUFBQUFBQkFBQUFBQUFBQUFBQUFBQk9JOWc5QXdBQUFCWUFBQUFBCglBQkJC
        QUFDb1FRQUF3RUVBQU9CQkFBRG9RUUFBQUVJQUFBaENBQUFZUWdBQUpFSUFBREJDQUFCQVFnQUFURUlBQUdCQwoJQUFCd1FnQUFnRUlBQUloQ0FBQ1FRZ0FBbUVJQUFL
        QkNBQUNvUWdBQXdFSUFBTmhDRmdBQUFIaDBKRC9wNVk4L0RHR1MKCVAzanlsRDlOZzVRL1RZT1VQMDJEbEQ5Tmc1US82b3FSUDAyRGxEOU5nNVEvNm9xUlAxbXdqai9x
        aXBFL1diQ09QMW13Cglqajlac0k0LzU0UmNQK2VFWEQ5K0pFby8ya010UHpHUzhqNEFBQUFBQVFBQUFBQUFBQUFCQUFBQU16TXpQMlptcGo4QgoJQUFBQUFRQUFBQUVB
        QUFCbVptWS96Y3lNUHdFQUFBQUFBQUFBQUFEd1FnQUFBQUFPQUFBQUFBQUFQODNNekQzTnpFdysKCUFBQUFQd1FBQUFBQ0FBQUFBd0FBQUFRQUFBQUJBQUFBQWdBQUFB
        Y0FBQUFBQUFBQUFBQUFBQTRBQUFBUUFBQUFBQUFBCglBTTNNekQwQUFJQS9BQUFBQUFBQUFMOEFBSEJDQUFBQUFBQUFBQUFBQUFBQUFBQUFBQUFBQUFBQUFBQUFBQUFB
        QUFBQQoJQUFBQUFBQUFBQUFBQUFJQUFBQUFBQUFBQUFBQUFBQUFBQUFPQUFBQUVBQUFBQUFBQUFBQUFBQUFBQUFBQUFBQUFBQUEKCUFBQUFBQUFBQUFBQUFBQUFBQUFB
        QUFBQUFBQUFBQUFBQUFBQUFBQUFBQUFBQUFBQUFBQUFBQUFBQUFBQUFBQUNBQUFBCglBQUFBQUFBQUFBQUFBQUFBRGdBQUFCQUFBQUFBQUFBQUFBQUFBQUFBQUFBQUFB
        QUFBQUFBQUFBQUFBQUFBQUFBQUFBQQoJQUFBQUFBQUFBQUFBQUFBQUFBQUFBQUFBQUFBQUFBQUFBQUFBQUFBQUFBQUFBUUFBQUFFQUFBQUFBSUEvQUFCQXdRQUEKCUFB
        QUNBQUFBQXdBQUFBRUFBQUFGQUFBQUJBQUFBQUVBQUFBREFBQUFBQURBUHdBQW9EOEFBTUEvQUFCaHd4eHVnY0FBCglBQUFBQlFBQUFBQUFBQUFBQUJEQkFBREF3Z0FB
        d01JQUFNRENCUUFBQUFBQUFBQ1B3dlU4QUFBQUFBQUFBQUFBQUFBQQoJQlFBQUFBQUFBQUFBQUFBQUFBQUFBQUFBQUFBQUFBQUFBUUFBQUFBQUFBQUVBQUFBQVFBQUFB
        TUFBQUFBQU1BL0FBQkEKCVB3QUF3RDhBQURSQ0hHNkJ3QUFBQUFBRkFBQUFBQUFRd1FBQUFBQUFBTURDQUFEQXdnQUF3TUlGQUFBQUN0Y2pQYWFiCgl4RG9BQUFBQUFB
        QUFBQUFBQUFBRkFBQUFBQUFBQUFBQUFBQUFBQUFBQUFBQUFBQUFBQUFCQUFBQUFBQUFBQVFBQUFBQQoJQUFBQUF3QUFBSS9DOVQ4OUNsZS9INFZyUHdBQXRFSUFBQUFB
        QUFBQUFBVUFBQUFBQUVEQkFBQkF3UUFBY01JQUFIREMKCUFBQnd3Z1VBQUFBQUFBQUFBQUFBQUFBQUFBQUFBQUFBQUFBQUFBVUFBQUFBQUFBQUFBQUFBQUFBQUFBQUFB
        QUFBQUFBCglBQUVBQUFBQUFBQUFCQUFBQUFBQUFBQURBQUFBTXpNenYxeVB3ajZ1UjJFL0FBQUFBQUFBQUFBQUFBQUFCUUFBQUFBQQoJUU1FQUFFREJBQUJ3d2dBQWNN
        SUFBSERDQlFBQUFBQUFBQUFBQUFBQUFBQUFBQUFBQUFBQUFBQUFCUUFBQUFBQUFBQUEKCUFBQUFBQUFBQUFBQUFBQUFBQUFBQVFBQUFBQUFBQUFFQUFBQUFBQUFBQU1B
        QUFDNEhzVS9QUXBYUDY1SDRUOEFBQUFBCglBQUFBQUFBQUFBQUZBQUFBQUFCQXdRQUFRTUVBQUhEQ0FBQnd3Z0FBY01JRkFBQUFBQUFBQUFBQUFBQUFBQUFBQUFBQQoJ
        QUFBQUFBQUZBQUFBQUFBQUFBQUFBQUFBQUFBQUFBQUFBQUFBQUFBQkFBQUFBQUFBQUFFQUFBQUFBQUFBQVFBQUFBTUEKCUFBQXpNek0vQUFBQUFHWm1wajhBQUpCQkFB
        QUFBQUFBQUFBQUFBQUEKCTwvZGF0YT4KCTxrZXk+bWFudWZhY3R1cmVyPC9rZXk+Cgk8aW50ZWdlcj4xMjk4NDI4NTMyPC9pbnRlZ2VyPgoJPGtleT5uYW1lPC9rZXk+
        Cgk8c3RyaW5nPlVudGl0bGVkPC9zdHJpbmc+Cgk8a2V5PnN1YnR5cGU8L2tleT4KCTxpbnRlZ2VyPjEzNDk3OTMxMzM8L2ludGVnZXI+Cgk8a2V5PnR5cGU8L2tleT4K
        CTxpbnRlZ2VyPjE2MzUwODU2ODU8L2ludGVnZXI+Cgk8a2V5PnZlcnNpb248L2tleT4KCTxpbnRlZ2VyPjA8L2ludGVnZXI+CjwvZGljdD4KPC9wbGlzdD4KAQAAAAAA
        AAAAAA==
      >
      FLOATPOS 0 0 0 0
      FXID {5A3BC799-EFFD-2746-AD52-A052C52B5D24}
      WAK 0 0
      BYPASS 0 0 0
      <VST "VST: ReaEQ (Cockos)" reaeq.vst.dylib 0 "" 1919247729<56535472656571726561657100000000> ""
        cWVlcu5e7f4CAAAAAQAAAAAAAAACAAAAAAAAAAIAAAABAAAAAAAAAAIAAAAAAAAAqAAAAAEAAAAAABAA
        IQAAAAQAAAAAAAAAAQAAAAAn4P3uJlVA8IlNFo363j8AAAAAAAAAQAEIAAAAAQAAAAAAAAAAwHJAAAAAAAAA8D8AAAAAAAAAQAEIAAAAAQAAAEos3gIjQIlA/v//////
        7z8AAAAAAAAAQAEBAAAAAQAAAE5/W4DmvZtA8Mx5kMDFzj8Af2q8dJP4PwEBAAAAAQAAAAAAAAAAAPA/AAAAAFQCAABwAQAA
        AAAQAAAA
      >
      FLOATPOS 605 103 596 422
      FXID {C4B49ACF-067A-E348-94A0-5F616804924C}
      WAK 0 0
    >
    <ITEM
      POSITION 0
      SNAPOFFS 0
      LENGTH 51.809484375
      LOOP 1
      ALLTAKES 0
      FADEIN 1 0 0 1 0 0 0
      FADEOUT 1 0 0 1 0 0 0
      MUTE 0 0
      SEL 0
      IGUID {8AECF895-555C-5F4F-A3BF-685BF739AACF}
      IID 19
      NAME "02-Piano-Recorded MIDI"
      VOLPAN 1 0 1 -1
      SOFFS 0 0
      PLAYRATE 1 1 0 -1 0 0.0025
      CHANMODE 0
      GUID {07D181CF-A986-D246-9CD9-41041B364987}
      RECPASS 7
      <SOURCE MIDI
        HASDATA 1 960 QN
        CCINTERP 32
        POOLEDEVTS {5625E4B7-F154-494A-8539-E187F0CE3164}
        E 4123 b0 40 7f
        E 3485 90 26 4d
        E 87 80 26 00
        E 145 90 32 45
        E 93 80 32 00
        E 131 90 26 45
        E 117 80 26 00
        E 148 90 32 44
        E 81 80 32 00
        E 108 90 26 47
        E 123 80 26 00
        E 151 90 32 41
        E 91 80 32 00
        E 129 90 26 47
        E 107 80 26 00
        E 163 90 32 3c
        E 89 80 32 00
        E 104 90 26 48
        E 181 80 26 00
        E 104 90 32 44
        E 94 80 32 00
        E 123 90 26 44
        E 131 80 26 00
        E 133 90 32 3f
        E 83 80 32 00
        E 105 90 26 46
        E 191 80 26 00
        E 95 90 32 44
        E 94 80 32 00
        E 132 90 26 44
        E 189 80 26 00
        E 96 90 32 42
        E 99 80 32 00
        E 122 90 26 46
        E 230 80 26 00
        E 81 90 32 42
        E 102 80 32 00
        E 125 90 26 47
        E 111 80 26 00
        E 134 90 32 44
        E 85 80 32 00
        E 114 90 26 48
        E 188 80 26 00
        E 85 90 32 3f
        E 84 80 32 00
        E 83 90 26 42
        E 174 80 26 00
        E 84 90 32 3f
        E 96 80 32 00
        E 101 90 26 4a
        E 191 80 26 00
        E 79 90 32 46
        E 101 80 32 00
        E 133 90 26 49
        E 221 80 26 00
        E 55 90 32 49
        E 129 80 32 00
        E 95 90 26 48
        E 195 80 26 00
        E 70 90 32 47
        E 84 80 32 00
        E 87 90 26 47
        E 184 80 26 00
        E 66 90 32 45
        E 106 80 32 00
        E 135 90 32 37
        E 97 80 32 00
        E 40 90 26 4f
        E 183 80 26 00
        E 109 90 32 40
        E 74 80 32 00
        E 39 90 26 4a
        E 191 80 26 00
        E 82 90 32 3f
        E 82 80 32 00
        E 90 90 26 48
        E 177 80 26 00
        E 71 90 32 45
        E 100 80 32 00
        E 95 90 26 4b
        E 200 80 26 00
        E 59 90 32 48
        E 91 80 32 00
        E 96 90 26 45
        E 201 80 26 00
        E 71 90 32 47
        E 93 80 32 00
        E 84 90 26 46
        E 201 80 26 00
        E 84 90 32 45
        E 90 80 32 00
        E 104 90 26 4a
        E 215 80 26 00
        E 76 90 32 47
        E 102 80 32 00
        E 99 90 26 4c
        E 175 80 26 00
        E 67 90 32 47
        E 89 80 32 00
        E 134 90 26 58
        E 169 80 26 00
        E 107 90 32 43
        E 70 80 32 00
        E 45 90 26 48
        E 227 80 26 00
        E 129 90 32 48
        E 97 80 32 00
        E 116 90 26 4d
        E 206 80 26 00
        E 65 90 32 44
        E 87 80 32 00
        E 117 90 26 46
        E 215 80 26 00
        E 63 90 32 48
        E 88 80 32 00
        E 104 90 26 45
        E 220 80 26 00
        E 91 90 32 41
        E 88 80 32 00
        E 89 90 26 43
        E 212 80 26 00
        E 68 90 32 45
        E 80 80 32 00
        E 101 90 26 47
        E 200 80 26 00
        E 92 90 32 40
        E 84 80 32 00
        E 129 90 26 4b
        E 201 80 26 00
        E 55 90 32 46
        E 98 80 32 00
        E 140 90 26 4e
        E 78 90 3e 47
        E 102 80 26 00
        E 60 90 32 4b
        E 74 80 3e 00
        E 10 80 32 00
        E 14 90 40 47
        E 120 90 26 4b
        E 139 80 40 00
        E 31 90 3e 45
        E 38 80 26 00
        E 52 90 32 48
        E 80 80 32 00
        E 60 80 3e 00
        E 41 90 40 3e
        E 2 90 26 4a
        E 191 80 26 00
        E 41 80 40 00
        E 7 90 3e 41
        E 29 90 32 47
        E 79 80 32 00
        E 85 80 3e 00
        E 28 90 26 47
        E 14 90 40 38
        E 187 80 26 00
        E 75 80 40 00
        E 6 90 3e 42
        E 18 90 32 42
        E 78 80 32 00
        E 90 80 3e 00
        E 9 90 26 4c
        E 49 90 40 34
        E 161 80 26 00
        E 67 80 40 00
        E 6 90 32 44
        E 15 90 3e 43
        E 60 80 32 00
        E 77 90 26 44
        E 41 80 3e 00
        E 85 90 40 38
        E 97 80 26 00
        E 98 90 32 45
        E 16 80 40 00
        E 14 90 3e 45
        E 46 80 32 00
        E 105 90 26 48
        E 20 80 3e 00
        E 66 90 40 3a
        E 116 80 26 00
        E 64 90 32 46
        E 25 80 40 00
        E 6 90 3e 42
        E 47 80 32 00
        E 116 90 26 45
        E 4 80 3e 00
        E 65 90 40 3d
        E 146 80 26 00
        E 64 90 32 47
        E 18 80 40 00
        E 15 90 3e 45
        E 53 80 32 00
        E 124 90 26 4e
        E 2 80 3e 00
        E 96 90 40 44
        E 111 80 26 00
        E 53 80 40 00
        E 29 90 32 49
        E 82 80 32 00
        E 52 90 40 44
        E 50 90 26 4b
        E 175 80 40 00
        E 17 90 42 46
        E 21 80 26 00
        E 83 90 32 43
        E 49 80 42 00
        E 39 80 32 00
        E 3 90 40 3f
        E 137 90 26 4c
        E 68 90 42 4a
        E 37 80 40 00
        E 84 80 26 00
        E 62 80 42 00
        E 13 90 32 45
        E 31 90 40 37
        E 61 80 32 00
        E 114 90 26 46
        E 50 90 42 46
        E 21 80 40 00
        E 135 80 26 00
        E 39 90 40 3c
        E 7 80 42 00
        E 23 90 32 45
        E 87 80 32 00
        E 116 90 26 44
        E 28 90 42 4a
        E 12 80 40 00
        E 153 80 26 00
        E 37 80 42 00
        E 10 90 40 3e
        E 17 90 32 47
        E 84 80 32 00
        E 93 90 26 43
        E 36 90 42 46
        E 11 80 40 00
        E 160 80 26 00
        E 39 90 40 39
        E 3 80 42 00
        E 26 90 32 45
        E 86 80 32 00
        E 109 90 26 44
        E 30 90 42 48
        E 26 80 40 00
        E 154 80 26 00
        E 20 80 42 00
        E 22 90 40 3b
        E 37 90 32 40
        E 82 80 32 00
        E 116 90 26 46
        E 2 90 42 44
        E 38 80 40 00
        E 175 90 40 3e
        E 9 80 42 00
        E 6 80 26 00
        E 56 90 32 46
        E 123 80 32 00
        E 52 90 42 48
        E 40 80 40 00
        E 8 90 26 47
        E 115 80 42 00
        E 82 90 42 45
        E 4 80 26 00
        E 51 90 32 48
        E 80 80 32 00
        E 91 90 26 3f
        E 24 80 42 00
        E 29 90 43 45
        E 152 80 43 00
        E 7 80 26 00
        E 28 90 42 43
        E 61 90 32 3e
        E 90 80 32 00
        E 100 90 26 45
        E 18 90 43 40
        E 11 80 42 00
        E 186 80 26 00
        E 71 90 32 43
        E 1 90 42 4c
        E 2 80 43 00
        E 85 80 32 00
        E 99 90 26 3f
        E 61 90 43 3c
        E 3 80 42 00
        E 141 80 26 00
        E 82 90 32 3f
        E 4 80 43 00
        E 30 90 42 48
        E 48 80 32 00
        E 105 90 26 41
        E 59 80 42 00
        E 7 90 43 3a
        E 118 80 26 00
        E 103 80 43 00
        E 2 90 32 3b
        E 6 90 42 49
        E 78 80 32 00
        E 84 90 26 45
        E 48 90 43 3c
        E 17 80 42 00
        E 108 80 26 00
        E 78 90 32 41
        E 25 80 43 00
        E 7 90 42 48
        E 61 80 32 00
        E 134 90 26 4b
        E 64 90 43 41
        E 6 80 42 00
        E 119 80 26 00
        E 86 90 32 41
        E 10 80 43 00
        E 23 90 42 48
        E 46 80 32 00
        E 82 90 26 47
        E 52 90 43 3f
        E 17 80 42 00
        E 103 80 26 00
        E 78 90 32 44
        E 30 80 43 00
        E 26 90 42 48
        E 33 80 32 00
        E 146 90 26 4a
        E 51 90 43 3b
        E 5 80 42 00
        E 135 80 26 00
        E 82 90 32 42
        E 2 90 42 47
        E 2 80 43 00
        E 71 80 32 00
        E 77 90 26 49
        E 57 90 43 39
        E 22 80 42 00
        E 124 80 26 00
        E 109 80 43 00
        E 3 90 32 43
        E 13 90 42 49
        E 67 80 32 00
        E 98 90 26 4a
        E 61 90 43 3d
        E 27 80 42 00
        E 104 80 26 00
        E 105 90 32 41
        E 5 80 43 00
        E 19 90 42 48
        E 56 80 32 00
        E 101 90 26 4b
        E 93 80 42 00
        E 3 90 43 39
        E 109 80 26 00
        E 94 90 32 42
        E 38 80 43 00
        E 11 90 42 48
        E 36 80 32 00
        E 100 90 26 49
        E 129 80 42 00
        E 4 90 43 37
        E 75 80 26 00
        E 82 90 32 45
        E 58 80 43 00
        E 16 90 42 45
        E 14 80 32 00
        E 96 90 26 49
        E 109 90 43 32
        E 12 80 42 00
        E 94 80 26 00
        E 104 90 32 40
        E 32 80 43 00
        E 21 90 42 48
        E 29 80 32 00
        E 79 90 26 4a
        E 98 90 43 3f
        E 12 80 42 00
        E 102 80 26 00
        E 87 90 32 41
        E 27 80 43 00
        E 16 90 42 47
        E 45 80 32 00
        E 112 90 26 4b
        E 66 90 43 40
        E 26 80 42 00
        E 100 80 26 00
        E 82 80 43 00
        E 25 90 32 40
        E 23 90 42 49
        E 68 80 32 00
        E 110 90 26 4d
        E 3 90 43 38
        E 43 80 42 00
        E 162 80 43 00
        E 2 80 26 00
        E 99 90 32 46
        E 2 90 3e 4a
        E 75 80 32 00
        E 52 90 26 45
        E 66 80 3e 00
        E 70 90 40 46
        E 76 80 26 00
        E 107 90 32 44
        E 62 80 40 00
        E 19 80 32 00
        E 14 90 3e 3f
        E 74 90 26 4b
        E 105 80 3e 00
        E 68 90 40 42
        E 47 80 26 00
        E 111 90 32 43
        E 63 80 40 00
        E 14 80 32 00
        E 11 90 3e 3f
        E 67 90 26 47
        E 101 80 3e 00
        E 101 90 40 40
        E 11 80 26 00
        E 105 90 32 43
        E 71 80 40 00
        E 17 80 32 00
        E 26 90 3e 3e
        E 61 90 26 49
        E 100 80 3e 00
        E 78 90 40 3f
        E 36 80 26 00
        E 103 90 32 40
        E 37 80 40 00
        E 51 80 32 00
        E 2 90 3e 42
        E 80 90 26 47
        E 73 80 3e 00
        E 99 90 40 41
        E 58 80 26 00
        E 77 90 32 45
        E 39 80 40 00
        E 51 90 3e 3f
        E 18 80 32 00
        E 90 90 26 45
        E 60 80 3e 00
        E 50 90 40 40
        E 106 80 26 00
        E 75 90 32 45
        E 14 80 40 00
        E 48 90 3e 40
        E 65 80 32 00
        E 91 90 26 4a
        E 23 80 3e 00
        E 68 90 40 3e
        E 132 80 26 00
        E 55 80 40 00
        E 1 90 32 46
        E 32 90 3e 3e
        E 67 80 32 00
        E 76 80 3e 00
        E 27 90 40 41
        E 8 90 26 48
        E 226 80 40 00
        E 4 80 26 00
        E 24 90 3e 48
        E 28 90 32 47
        E 99 80 32 00
        E 45 80 3e 00
        E 45 90 26 47
        E 52 90 40 47
        E 212 80 26 00
        E 79 90 32 44
        E 85 80 32 00
        E 34 90 26 46
        E 44 80 40 00
        E 11 90 42 45
        E 61 80 42 00
        E 81 90 40 40
        E 51 80 26 00
        E 93 90 32 39
        E 81 80 32 00
        E 13 80 40 00
        E 7 90 42 45
        E 2 90 26 3f
        E 158 80 42 00
        E 53 80 26 00
        E 11 90 40 36
        E 92 90 32 3c
        E 80 80 32 00
        E 48 90 42 42
        E 3 90 26 3b
        E 3 80 40 00
        E 173 80 26 00
        E 3 80 42 00
        E 48 90 40 35
        E 67 90 32 3d
        E 81 80 32 00
        E 75 90 26 43
        E 38 90 42 44
        E 15 80 40 00
        E 171 80 26 00
        E 21 80 42 00
        E 22 90 40 33
        E 30 90 32 3e
        E 91 80 32 00
        E 87 90 26 40
        E 42 90 42 42
        E 17 80 40 00
        E 158 80 26 00
        E 27 80 42 00
        E 21 90 40 32
        E 8 90 32 42
        E 87 80 32 00
        E 85 90 26 3f
        E 62 90 42 43
        E 22 80 40 00
        E 128 80 26 00
        E 78 90 32 43
        E 5 80 42 00
        E 15 90 40 35
        E 63 80 32 00
        E 94 90 26 42
        E 74 90 42 47
        E 15 80 40 00
        E 128 80 26 00
        E 68 90 40 3c
        E 2 80 42 00
        E 2 90 32 43
        E 102 80 32 00
        E 88 80 40 00
        E 32 90 26 45
        E 3 90 42 3b
        E 113 80 42 00
        E 100 90 42 36
        E 13 80 26 00
        E 59 90 32 3a
        E 83 80 32 00
        E 46 90 26 40
        E 29 80 42 00
        E 66 90 43 1f
        E 127 80 43 00
        E 13 80 26 00
        E 23 90 42 42
        E 59 90 32 36
        E 92 80 32 00
        E 80 80 42 00
        E 17 90 26 43
        E 5 90 43 3b
        E 200 80 26 00
        E 45 90 32 3f
        E 20 90 42 46
        E 1 80 43 00
        E 68 80 32 00
        E 87 90 26 41
        E 71 90 43 37
        E 13 80 42 00
        E 121 80 26 00
        E 59 90 32 39
        E 49 80 43 00
        E 26 90 42 48
        E 10 80 32 00
        E 66 90 26 3f
        E 132 90 43 39
        E 2 80 42 00
        E 82 80 26 00
        E 56 90 32 41
        E 80 80 32 00
        E 5 80 43 00
        E 14 90 42 4b
        E 53 90 26 3e
        E 158 80 42 00
        E 1 90 43 3a
        E 50 80 26 00
        E 58 90 32 38
        E 93 80 32 00
        E 11 80 43 00
        E 22 90 42 46
        E 27 90 26 3f
        E 179 90 43 39
        E 11 80 42 00
        E 14 80 26 00
        E 60 90 32 42
        E 96 80 32 00
        E 66 80 43 00
        E 15 90 42 49
        E 4 90 26 3f
        E 196 80 26 00
        E 23 90 43 30
        E 10 80 42 00
        E 16 90 32 3e
        E 94 80 32 00
        E 69 90 26 36
        E 109 90 42 46
        E 12 80 43 00
        E 35 80 26 00
        E 80 90 32 42
        E 81 80 32 00
        E 47 90 43 3c
        E 28 80 42 00
        E 21 90 26 3f
        E 173 80 26 00
        E 63 80 43 00
        E 2 90 42 4a
        E 24 90 32 3c
        E 81 80 32 00
        E 74 90 26 41
        E 45 90 43 39
        E 27 80 42 00
        E 119 80 26 00
        E 58 90 32 43
        E 27 80 43 00
        E 4 90 42 44
        E 52 80 32 00
        E 86 90 26 45
        E 67 90 43 36
        E 37 80 42 00
        E 102 80 26 00
        E 81 90 32 3b
        E 37 80 43 00
        E 13 90 42 46
        E 35 80 32 00
        E 82 90 26 43
        E 110 90 43 3b
        E 23 80 42 00
        E 89 80 26 00
        E 54 90 32 3d
        E 74 80 43 00
        E 13 90 42 46
        E 7 80 32 00
        E 99 90 26 3d
        E 115 90 43 3b
        E 33 80 42 00
        E 49 80 26 00
        E 56 90 32 3b
        E 76 80 43 00
        E 11 80 32 00
        E 19 90 42 44
        E 64 90 26 41
        E 132 90 43 3d
        E 16 80 42 00
        E 59 80 26 00
        E 34 90 32 3f
        E 120 80 32 00
        E 5 80 43 00
        E 18 90 42 47
        E 83 90 26 3f
        E 106 90 43 3d
        E 14 80 42 00
        E 97 80 26 00
        E 46 90 32 41
        E 83 80 43 00
        E 8 80 32 00
        E 15 90 42 4a
        E 120 90 26 3d
        E 99 80 42 00
        E 2 90 43 3e
        E 83 80 26 00
        E 50 90 32 44
        E 68 90 42 46
        E 36 80 43 00
        E 31 80 32 00
        E 92 90 26 4c
        E 26 80 42 00
        E 125 90 3c 3a
        E 44 80 26 00
        E 59 90 32 40
        E 48 80 3c 00
        E 29 80 32 00
        E 21 90 3e 12
        E 48 90 26 3f
        E 172 80 3e 00
        E 36 90 3c 4a
        E 8 80 26 00
        E 46 90 32 42
        E 94 80 32 00
        E 46 80 3c 00
        E 64 90 26 3c
        E 2 90 3e 44
        E 194 80 26 00
        E 27 80 3e 00
        E 12 90 3c 4a
        E 23 90 32 3d
        E 79 80 32 00
        E 73 80 3c 00
        E 6 90 26 45
        E 57 90 3e 42
        E 138 80 26 00
        E 55 90 32 42
        E 18 90 3c 46
        E 2 80 3e 00
        E 64 80 32 00
        E 68 90 26 3b
        E 54 80 3c 00
        E 37 90 3e 42
        E 118 80 26 00
        E 49 90 32 44
        E 66 90 3c 49
        E 3 80 3e 00
        E 27 80 32 00
        E 107 90 26 3b
        E 65 80 3c 00
        E 14 90 3e 41
        E 140 80 26 00
        E 46 90 32 45
        E 37 80 3e 00
        E 4 90 3c 48
        E 54 80 32 00
        E 100 90 26 40
        E 45 80 3c 00
        E 48 90 3e 45
        E 126 80 26 00
        E 46 90 32 43
        E 44 90 3c 49
        E 10 80 3e 00
        E 37 80 32 00
        E 94 90 26 3b
        E 54 80 3c 00
        E 26 90 3e 3e
        E 173 80 26 00
        E 38 90 32 43
        E 22 80 3e 00
        E 12 90 3c 48
        E 83 80 32 00
        E 88 90 26 40
        E 66 80 3c 00
        E 48 90 3e 48
        E 75 80 3e 00
        E 52 80 26 00
        E 1 90 3c 41
        E 14 90 32 46
        E 168 80 32 00
        E 51 90 26 47
        E 14 80 3c 00
        E 9 90 3e 49
        E 193 80 26 00
        E 21 80 3e 00
        E 25 90 32 41
        E 34 90 40 3e
        E 60 80 32 00
        E 19 80 40 00
        E 57 90 3e 3d
        E 11 90 26 45
        E 222 80 26 00
        E 14 80 3e 00
        E 19 90 40 40
        E 2 90 32 3e
        E 94 80 32 00
        E 10 80 40 00
        E 76 90 26 40
        E 12 90 3e 40
        E 204 80 26 00
        E 10 90 32 42
        E 14 90 40 46
        E 3 80 3e 00
        E 95 80 32 00
        E 96 80 40 00
        E 6 90 26 3e
        E 35 90 3e 3a
        E 187 80 26 00
        E 4 90 32 3e
        E 65 80 3e 00
        E 10 90 40 43
        E 27 80 32 00
        E 77 90 26 41
        E 162 80 40 00
        E 14 90 3e 44
        E 35 80 26 00
        E 30 90 32 42
        E 90 80 32 00
        E 77 90 26 43
        E 29 80 3e 00
        E 1 90 40 46
        E 181 80 26 00
        E 58 80 40 00
        E 11 90 3e 3e
        E 8 90 32 41
        E 78 80 32 00
        E 64 90 26 40
        E 65 90 40 3f
        E 10 80 3e 00
        E 131 80 26 00
        E 57 90 32 45
        E 7 80 40 00
        E 13 90 3e 3b
        E 73 80 32 00
        E 92 90 26 3d
        E 36 90 40 44
        E 33 80 3e 00
        E 154 80 26 00
        E 62 90 32 43
        E 4 80 40 00
        E 27 90 3e 3c
        E 62 80 32 00
        E 116 90 40 42
        E 6 90 26 46
        E 28 80 3e 00
        E 132 80 40 00
        E 49 80 26 00
        E 53 90 32 43
        E 63 90 40 39
        E 14 80 32 00
        E 77 90 26 3b
        E 87 90 42 42
        E 18 80 40 00
        E 137 80 26 00
        E 46 80 42 00
        E 13 90 32 43
        E 20 90 40 3b
        E 71 80 32 00
        E 85 90 26 3c
        E 58 90 42 49
        E 17 80 40 00
        E 138 80 26 00
        E 49 80 42 00
        E 21 90 32 41
        E 16 90 40 36
        E 77 80 32 00
        E 78 90 26 3f
        E 60 90 42 47
        E 17 80 40 00
        E 172 80 26 00
        E 16 80 42 00
        E 23 90 40 36
        E 25 90 32 3d
        E 82 80 32 00
        E 52 90 26 3f
        E 84 90 42 47
        E 17 80 40 00
        E 131 80 26 00
        E 57 80 42 00
        E 27 90 40 35
        E 4 90 32 2f
        E 91 80 32 00
        E 29 90 26 41
        E 111 90 42 47
        E 11 80 40 00
        E 90 80 26 00
        E 93 90 32 40
        E 9 90 40 37
        E 1 80 42 00
        E 69 80 32 00
        E 88 90 26 3f
        E 75 90 42 47
        E 19 80 40 00
        E 123 80 26 00
        E 64 80 42 00
        E 1 90 32 39
        E 11 90 40 36
        E 79 80 32 00
        E 94 90 26 41
        E 65 90 42 4a
        E 14 80 40 00
        E 147 80 26 00
        E 46 80 42 00
        E 13 90 32 40
        E 32 90 40 36
        E 53 80 32 00
        E 122 90 26 47
        E 36 90 42 49
        E 11 80 40 00
        E 160 80 26 00
        E 36 80 42 00
        E 26 90 40 36
        E 12 90 32 42
        E 76 80 32 00
        E 84 90 26 3c
        E 55 90 42 47
        E 16 80 40 00
        E 141 80 26 00
        E 55 90 40 3a
        E 4 90 32 3c
        E 5 80 42 00
        E 75 80 32 00
        E 66 90 26 3e
        E 119 80 40 00
        E 2 90 42 47
        E 120 80 26 00
        E 45 90 32 42
        E 31 80 42 00
        E 21 90 40 34
        E 38 80 32 00
        E 124 90 26 3f
        E 75 90 42 46
        E 9 80 40 00
        E 139 80 26 00
        E 35 90 32 44
        E 16 80 42 00
        E 17 90 40 37
        E 42 80 32 00
        E 96 90 26 3a
        E 80 80 40 00
        E 1 90 42 46
        E 134 80 26 00
        E 57 90 32 43
        E 26 80 42 00
        E 18 90 40 39
        E 34 80 32 00
        E 98 90 26 42
        E 113 90 42 43
        E 7 80 40 00
        E 99 80 26 00
        E 88 90 32 39
        E 15 80 42 00
        E 12 90 40 38
        E 55 80 32 00
        E 88 90 26 3e
        E 93 80 40 00
        E 20 90 42 43
        E 108 80 26 00
        E 58 90 32 40
        E 37 80 42 00
        E 29 90 40 3c
        E 24 80 32 00
        E 129 90 26 41
        E 69 90 42 48
        E 19 80 40 00
        E 134 80 26 00
        E 31 90 32 44
        E 29 80 42 00
        E 44 90 40 3f
        E 8 80 32 00
        E 99 90 26 3a
        E 113 90 42 46
        E 26 80 40 00
        E 71 80 26 00
        E 60 90 32 43
        E 92 80 32 00
        E 24 90 40 43
        E 64 80 42 00
        E 19 80 40 00
        E 9 90 26 46
        E 203 80 26 00
        E 55 90 45 4a
        E 3 90 32 48
        E 73 80 45 00
        E 9 80 32 00
        E 90 90 26 3f
        E 111 90 47 3a
        E 97 80 26 00
        E 26 80 47 00
        E 75 90 32 3c
        E 15 90 45 3a
        E 64 80 32 00
        E 81 90 26 44
        E 62 80 45 00
        E 32 90 47 43
        E 135 80 26 00
        E 39 80 47 00
        E 52 90 45 37
        E 9 90 32 42
        E 78 80 32 00
        E 82 90 26 42
        E 33 80 45 00
        E 29 90 47 40
        E 153 80 26 00
        E 6 80 47 00
        E 76 90 45 36
        E 26 90 32 37
        E 83 80 32 00
        E 56 90 26 3f
        E 33 80 45 00
        E 22 90 47 3f
        E 158 80 26 00
        E 13 80 47 00
        E 51 90 32 41
        E 2 90 45 35
        E 84 80 32 00
        E 81 80 45 00
        E 11 90 26 3c
        E 18 90 47 40
        E 200 80 47 00
        E 3 80 26 00
        E 48 90 45 35
        E 22 90 32 3e
        E 88 80 32 00
        E 91 90 26 3f
        E 8 80 45 00
        E 10 90 47 40
        E 200 80 26 00
        E 6 80 47 00
        E 45 90 45 36
        E 41 90 32 3b
        E 84 80 32 00
        E 72 90 26 40
        E 17 80 45 00
        E 8 90 47 3f
        E 181 80 47 00
        E 3 80 26 00
        E 38 90 45 36
        E 8 90 32 44
        E 91 80 32 00
        E 96 90 47 44
        E 6 80 45 00
        E 12 90 26 3b
        E 201 80 26 00
        E 14 90 45 33
        E 6 80 47 00
        E 14 90 32 44
        E 81 80 45 00
        E 23 80 32 00
        E 113 90 26 41
        E 101 90 43 48
        E 123 80 26 00
        E 59 90 32 2b
        E 42 90 45 3a
        E 26 80 43 00
        E 38 80 32 00
        E 10 90 26 42
        E 160 80 45 00
        E 16 90 43 37
        E 41 80 26 00
        E 59 90 32 40
        E 90 80 32 00
        E 84 80 43 00
        E 7 90 45 3d
        E 3 90 26 3f
        E 219 80 26 00
        E 30 80 45 00
        E 26 90 43 3b
        E 2 90 32 41
        E 87 80 32 00
        E 86 90 26 41
        E 7 90 45 3d
        E 12 80 43 00
        E 212 80 26 00
        E 23 80 45 00
        E 23 90 32 44
        E 5 90 43 3c
        E 91 80 32 00
        E 86 80 43 00
        E 15 90 45 3c
        E 11 90 26 3f
        E 211 80 45 00
        E 4 80 26 00
        E 16 90 32 3d
        E 12 90 43 3b
        E 106 80 32 00
        E 88 80 43 00
        E 2 90 45 40
        E 2 90 26 3f
        E 222 80 45 00
        E 1 80 26 00
        E 37 90 43 38
        E 13 90 32 3d
        E 84 80 32 00
        E 99 80 43 00
        E 3 90 45 3f
        E 3 90 26 3c
        E 208 80 45 00
        E 2 80 26 00
        E 18 90 43 3b
        E 25 90 32 3c
        E 85 80 32 00
        E 113 90 26 42
        E 44 90 45 3a
        E 5 80 43 00
        E 175 80 26 00
        E 26 80 45 00
        E 2 90 43 3f
        E 9 90 32 45
        E 98 80 32 00
        E 103 90 45 3d
        E 29 80 43 00
        E 4 90 26 46
        E 111 80 45 00
        E 86 80 26 00
        E 4 90 42 4b
        E 26 90 32 48
        E 83 80 32 00
        E 90 80 42 00
        E 31 90 43 3b
        E 20 90 26 39
        E 205 80 26 00
        E 11 80 43 00
        E 14 90 42 47
        E 2 90 32 43
        E 88 80 32 00
        E 118 90 26 38
        E 10 80 42 00
        E 23 90 43 3c
        E 183 80 26 00
        E 62 90 32 38
        E 23 80 43 00
        E 29 90 42 47
        E 33 80 32 00
        E 81 90 26 40
        E 96 80 42 00
        E 15 90 43 38
        E 97 80 26 00
        E 93 90 32 2d
        E 42 80 43 00
        E 15 90 42 45
        E 51 80 32 00
        E 84 90 26 42
        E 85 80 42 00
        E 10 90 43 38
        E 99 80 26 00
        E 65 90 32 3a
        E 78 80 32 00
        E 5 80 43 00
        E 5 90 42 48
        E 119 90 26 43
        E 115 80 42 00
        E 4 90 43 34
        E 97 80 26 00
        E 42 90 32 40
        E 80 80 32 00
        E 31 80 43 00
        E 13 90 42 43
        E 70 90 26 3b
        E 152 80 42 00
        E 13 90 43 33
        E 44 80 26 00
        E 31 90 32 45
        E 87 80 32 00
        E 34 80 43 00
        E 38 90 42 45
        E 65 90 26 44
        E 148 80 42 00
        E 10 90 43 3c
        E 52 80 26 00
        E 81 90 32 40
        E 78 80 32 00
        E 33 80 43 00
        E 2 90 42 46
        E 71 90 26 44
        E 146 90 43 35
        E 7 80 42 00
        E 62 80 26 00
        E 58 90 32 44
        E 90 80 43 00
        E 4 80 32 00
        E 28 90 42 46
        E 97 90 26 48
        E 102 80 42 00
        E 13 90 43 38
        E 94 80 26 00
        E 69 90 32 40
        E 39 80 43 00
        E 43 90 42 47
        E 2 80 32 00
        E 105 90 26 42
        E 97 90 43 3d
        E 2 80 42 00
        E 119 80 26 00
        E 50 90 32 43
        E 67 80 43 00
        E 18 90 42 47
        E 6 80 32 00
        E 103 90 26 3f
        E 100 90 43 3b
        E 2 80 42 00
        E 116 80 26 00
        E 56 90 32 3f
        E 57 80 43 00
        E 25 80 32 00
        E 1 90 42 48
        E 110 90 26 40
        E 108 80 42 00
        E 17 90 43 3d
        E 90 80 26 00
        E 46 90 32 3f
        E 98 80 32 00
        E 31 80 43 00
        E 17 90 42 45
        E 69 90 26 42
        E 151 80 42 00
        E 5 90 43 3d
        E 59 80 26 00
        E 75 90 32 31
        E 95 80 32 00
        E 62 80 43 00
        E 1 90 26 3f
        E 2 90 42 47
        E 200 90 43 3c
        E 9 80 42 00
        E 5 80 26 00
        E 63 90 32 3d
        E 95 80 32 00
        E 60 90 26 3f
        E 68 90 42 48
        E 4 80 43 00
        E 138 80 26 00
        E 62 90 32 3b
        E 41 90 43 39
        E 19 80 42 00
        E 29 80 32 00
        E 86 90 26 3f
        E 73 80 43 00
        E 60 90 42 4b
        E 80 80 26 00
        E 41 90 43 3b
        E 90 80 42 00
        E 126 80 43 00
        E 11 90 26 48
        E 67 90 3e 4c
        E 136 80 26 00
        E 98 80 3e 00
        E 50 90 40 43
        E 60 90 26 40
        E 164 80 40 00
        E 20 90 3e 45
        E 29 80 26 00
        E 92 90 32 38
        E 78 80 3e 00
        E 7 80 32 00
        E 59 90 26 46
        E 7 90 40 41
        E 197 80 26 00
        E 1 80 40 00
        E 35 90 3e 45
        E 34 90 32 42
        E 89 80 32 00
        E 82 80 3e 00
        E 53 90 40 42
        E 9 90 26 43
        E 142 80 26 00
        E 37 80 40 00
        E 3 90 32 41
        E 53 90 3e 42
        E 93 80 32 00
        E 69 80 3e 00
        E 54 90 26 3d
        E 21 90 40 3f
        E 119 80 26 00
        E 52 80 40 00
        E 22 90 32 39
        E 20 90 3e 40
        E 84 80 32 00
        E 97 80 3e 00
        E 5 90 26 41
        E 81 90 40 3e
        E 92 80 26 00
        E 48 80 40 00
        E 24 90 32 44
        E 40 90 3e 43
        E 46 80 32 00
        E 93 80 3e 00
        E 2 90 26 41
        E 73 90 40 40
        E 131 80 26 00
        E 68 90 32 45
        E 1 80 40 00
        E 29 90 3e 44
        E 63 80 32 00
        E 91 80 3e 00
        E 46 90 26 48
        E 6 90 40 41
        E 197 80 26 00
        E 22 80 40 00
        E 2 90 3e 42
        E 39 90 32 48
        E 169 80 32 00
        E 57 80 3e 00
        E 23 90 26 4e
        E 16 90 40 47
        E 97 80 40 00
        E 88 80 26 00
        E 19 90 32 49
        E 133 90 40 3e
        E 9 80 32 00
        E 44 90 26 3c
        E 166 80 40 00
        E 14 90 42 45
        E 70 80 26 00
        E 39 80 42 00
        E 2 90 32 41
        E 97 90 40 34
        E 8 80 32 00
        E 105 90 26 3c
        E 97 80 40 00
        E 8 90 42 44
        E 113 80 26 00
        E 42 90 32 42
        E 25 80 42 00
        E 46 90 40 39
        E 36 80 32 00
        E 88 90 26 3d
        E 49 80 40 00
        E 30 90 42 48
        E 138 80 26 00
        E 31 80 42 00
        E 12 90 32 41
        E 47 90 40 38
        E 54 80 32 00
        E 87 80 40 00
        E 7 90 26 3f
        E 33 90 42 47
        E 191 80 42 00
        E 7 80 26 00
        E 33 90 40 3d
        E 8 90 32 41
        E 94 80 32 00
        E 88 90 26 3c
        E 9 80 40 00
        E 3 90 42 45
        E 209 80 26 00
        E 5 80 42 00
        E 29 90 40 3d
        E 22 90 32 42
        E 92 80 32 00
        E 86 90 26 3c
        E 15 90 42 48
        E 24 80 40 00
        E 176 80 42 00
        E 8 80 26 00
        E 32 90 40 36
        E 15 90 32 3f
        E 91 80 32 00
        E 93 90 26 3d
        E 20 90 42 45
        E 5 80 40 00
        E 197 80 42 00
        E 3 80 26 00
        E 12 90 40 3b
        E 10 90 32 41
        E 192 80 32 00
        E 24 90 42 46
        E 24 90 26 44
        E 18 80 40 00
        E 154 80 42 00
        E 43 80 26 00
        E 41 90 32 44
        E 7 90 42 41
        E 100 80 32 00
        E 81 80 42 00
        E 1 90 26 36
        E 27 90 43 3a
        E 190 80 26 00
        E 14 80 43 00
        E 16 90 42 49
        E 12 90 32 41
        E 113 80 32 00
        E 62 90 43 3c
        E 12 80 42 00
        E 12 90 26 3c
        E 208 80 43 00
        E 13 80 26 00
        E 25 90 42 47
        E 17 90 32 3c
        E 92 80 32 00
        E 66 90 26 3e
        E 9 90 43 3c
        E 15 80 42 00
        E 188 80 26 00
        E 39 90 32 42
        E 4 80 43 00
        E 30 90 42 48
        E 77 80 32 00
        E 65 90 26 3d
        E 51 90 43 3e
        E 8 80 42 00
        E 141 80 26 00
        E 61 90 32 40
        E 33 80 43 00
        E 20 90 42 48
        E 48 80 32 00
        E 80 90 26 41
        E 54 90 43 3d
        E 18 80 42 00
        E 140 80 26 00
        E 76 80 43 00
        E 27 90 32 33
        E 4 90 42 45
        E 86 80 32 00
        E 69 90 26 44
        E 42 90 43 3c
        E 15 80 42 00
        E 155 80 26 00
        E 61 90 32 3d
        E 4 80 43 00
        E 19 90 42 46
        E 91 80 32 00
        E 75 90 26 3f
        E 42 80 42 00
        E 3 90 43 3b
        E 174 80 26 00
        E 82 90 42 4a
        E 1 80 43 00
        E 5 90 32 37
        E 90 80 32 00
        E 61 90 26 42
        E 91 80 42 00
        E 2 90 43 32
        E 119 80 26 00
        E 61 90 32 3d
        E 56 80 43 00
        E 28 90 42 45
        E 21 80 32 00
        E 97 90 26 3e
        E 72 90 43 38
        E 16 80 42 00
        E 122 80 26 00
        E 53 90 32 41
        E 66 80 43 00
        E 22 90 42 47
        E 12 80 32 00
        E 113 90 26 3e
        E 88 80 42 00
        E 9 90 43 34
        E 113 80 26 00
        E 65 90 32 3d
        E 51 80 43 00
        E 32 90 42 44
        E 8 80 32 00
        E 67 90 26 41
        E 117 90 43 3b
        E 5 80 42 00
        E 87 80 26 00
        E 54 90 32 38
        E 86 80 32 00
        E 4 80 43 00
        E 29 90 42 46
        E 16 90 26 42
        E 193 80 42 00
        E 4 80 26 00
        E 5 90 43 30
        E 81 90 32 3e
        E 93 80 32 00
        E 73 90 26 46
        E 9 80 43 00
        E 24 90 42 3a
        E 172 80 26 00
        E 71 90 32 3c
        E 11 90 43 3a
        E 3 80 42 00
        E 68 80 32 00
        E 19 90 26 44
        E 122 80 43 00
        E 58 90 42 41
        E 29 80 26 00
        E 81 90 32 37
        E 86 80 32 00
        E 34 90 26 41
        E 2 80 42 00
        E 26 90 43 3d
        E 178 80 26 00
        E 3 80 43 00
        E 779 b0 40 00
        E 28 b0 7b 00
        CCINTERP 32
        CHASE_CC_TAKEOFFS 1
        GUID {C426FBA0-429D-FD40-A0F2-3CDD380E6830}
        IGNTEMPO 0 120 4 4
        SRCCOLOR 60
        VELLANE -1 100 0
      >
    >
  >
  <TRACK {3A26C01A-0EC6-FB41-AD84-01D909B525BF}
    NAME Piano
    PEAKCOL 16576
    BEAT -1
    AUTOMODE 0
    VOLPAN 1 0 -1 -1 1
    MUTESOLO 1 0 0
    IPHASE 0
    PLAYOFFS 0 1
    ISBUS 0 0
    BUSCOMP 0 0 0 0 0
    SHOWINMIX 0 0.6667 0.5 0 0.5 0 -1 0
    FREEMODE 0
    SEL 0
    REC 0 4096 1 0 0 0 0
    VU 2
    TRACKHEIGHT 0 0 0 0 0 0
    INQ 0 0 0 0.5 100 0 0 100
    NCHAN 2
    FX 1
    TRACKID {3A26C01A-0EC6-FB41-AD84-01D909B525BF}
    PERF 0
    MIDIOUT -1
    MAINSEND 1 0
    <FXCHAIN
      WNDRECT 32 530 831 493
      SHOW 0
      LASTSEL 1
      DOCKED 0
      BYPASS 0 0 0
      <VST "VST: ReaControlMIDI (Cockos)" reacontrolMIDI.vst.dylib 0 "" 1919118692<56535472636D64726561636F6E74726F> ""
        ZG1jcu5e7f4AAAAAAAAAAO8AAAABAAAAAAAQAA==
        /////wAAAAAAAAAAAAAAAAkAAAAMAAAAAQAAAP8/AAAAIAAAACAAAAAAAAA+AAAAL1VzZXJzL2FuZHkvTGlicmFyeS9BcHBsaWNhdGlvbiBTdXBwb3J0L1JFQVBFUi9E
        YXRhL0dNLnJlYWJhbmsAAAAAAAAAAAAAAAAAAAAAAAAAAAAAAAAAAAAAAAAAAAAAAAABAAAAAAAAAAAAAAAAAAAAAAAAAAAAAAAAAAAAAAYAAABNYWpvcgANAAAAMTAy
        MDM0MDUwNjA3AAEAAAAAAAAAAAAAAAAKAAAADQAAAAEAAAAAAAAAAAAAAAAAAAA=
        AAAQAAAA
      >
      FLOATPOS 0 0 0 0
      FXID {E097F82E-D32D-0744-A375-CE29915CD9B6}
      WAK 0 0
      BYPASS 0 0 0
      <AU "AUi: Pianoteq 5 STAGE (Modartt)" "Modartt: Pianoteq 5 STAGE" "" 1635085685 1349793133 1298428532
        6QMAAAAAAAAAAAAAAgAAAAEAAAAAAAAAAgAAAAAAAAC2KwAAPD94bWwgdmVyc2lvbj0iMS4wIiBlbmNvZGluZz0iVVRGLTgiPz4KPCFET0NUWVBFIHBsaXN0IFBVQkxJ
        QyAiLS8vQXBwbGUvL0RURCBQTElTVCAxLjAvL0VOIiAiaHR0cDovL3d3dy5hcHBsZS5jb20vRFREcy9Qcm9wZXJ0eUxpc3QtMS4wLmR0ZCI+CjxwbGlzdCB2ZXJzaW9u
        PSIxLjAiPgo8ZGljdD4KCTxrZXk+ZGF0YTwva2V5PgoJPGRhdGE+CglBQUFBQUFBQUFBQUFBQUJMQUFBQUFBQUFBQUFBQUFBQkFBQUFBQUFBQUFJQUFBQUFBQUFBQXdB
        QUFBQUFBQUFFQUFBQQoJQUFBQUFBVUFBQUFBQUFBQUJnQUFBQUFBQUFBSEFBQUFBQUFBQUFnQUFBQUFBQUFBQ1FBQUFBQUFBQUFLQUFBQUFBQUEKCUFBc0FBQUFBQUFB
        QURBQUFBQUFBQUFBTkFBQUFBQUFBQUE0QUFBQUFBQUFBRHdBQUFBQUFBQUFRQUFBQUFBQUFBQkVBCglBQUFBQUFBQUVnQUFBQUFBQUFBVEFBQUFBQUFBQUJRQUFBQUFB
        QUFBRlFBQUFBQUFBQUFXQUFBQUFBQUFBQmNBQUFBQQoJQUFBQUdBQUFBQUFBQUFBWkFBQUFBQUFBQUJvQUFBQUFBQUFBR3dBQUFBQUFBQUFjQUFBQUFBQUFBQjBBQUFB
        QUFBQUEKCUhnQUFBQUFBQUFBZkFBQUFBQUFBQUNBQUFBQUFBQUFBSVFBQUFBQUFBQUFpQUFBQUFBQUFBQ01BQUFBQUFBQUFKQUFBCglBQUFBQUFBbEFBQUFBQUFBQUNZ
        QUFBQUFBQUFBSndBQUFBQUFBQUFvQUFBQUFBQUFBQ2tBQUFBQUFBQUFLZ0FBQUFBQQoJQUFBckFBQUFBQUFBQUN3QUFBQUFBQUFBTFFBQUFBQUFBQUF1QUFBQUFBQUFB
        QzhBQUFBQUFBQUFNQUFBQUFBQUFBQXgKCUFBQUFBQUFBQURJQUFBQUFBQUFBTXdBQUFBQUFBQUEwQUFBQUFBQUFBRFVBQUFBQUFBQUFOZ0FBQUFBQUFBQTNBQUFBCglB
        QUFBQURnQUFBQUFBQUFBT1FBQUFBQUFBQUE2QUFBQUFBQUFBRHNBQUFBQUFBQUFQQUFBQUFBQUFBQTlBQUFBQUFBQQoJQUQ0QUFBQUFBQUFBUHdBQUFBQUFBQUJBQUFB
        QUFBQUFBRUVBQUFBQUFBQUFRZ0FBQUFBQUFBQkRBQUFBQUFBQUFFUUEKCUFBQUFBQUFBUlFBQUFBQUFBQUJHQUFBQUFBQUFBRWNBQUFBQUFBQUFTQUFBQUFBQUFBQkpB
        QUFBQUFBQUFFb0FBQUFBCgk8L2RhdGE+Cgk8a2V5Pmp1Y2VQbHVnaW5TdGF0ZTwva2V5PgoJPGRhdGE+CglVSEpXU3hZQUFBSllSbFJROGhzQUFBb0FBQUF5TURJeEx6
        QXlMekkxSFFBQUFGQnBZVzV2ZEdWeElGTlVRVWRGSURVdQoJT0M0eEx6SXdNVFl4TVRJMVNKaG1IZ0dEN2tCZVBpc2kwb3l1SldSc2JHR3JHd0FBZEdSMFRYSUdBQUFS
        QUFBQVJEUWcKCVJHRnBiSGtnVUhKaFkzUnBZMlVBQUFBQUdnQUFBRU52Y0hseWFXZG9kQ0FvWXlrZ01qQXhOaUJOYjJSaGNuUjBod0FBCglBRlJvYVhNZ2NISmxjMlYw
        SUc5bVptVnljeUJoSUdOc1pXRnVJSE52ZFc1a0xDQjViM1VnYldGNUlHeHBhMlVnZEc4ZwoJZFhObElHbDBJR1p2Y2lCNWIzVnlJR1JoYVd4NUlIQnlZV04wYVdObExp
        QkJiSE52SUdFZ1oyOXZaQ0J6ZEdGeWRHbHUKCVp5QndiMmx1ZENCbWIzSWdjSEpsY0dGeWFXNW5JRzVsZHlCd2NtVnpaWFJ6TGdBQUFBQkdBQUFBRVFBQUFFUTBJRVJo
        CglhV3g1SUZCeVlXTjBhV05sQUFBQUFJc0ZBQUJIVWxWVkFBQUFCZ0FBQUFFRHdFMVVjbXNBQUFWMUFQOENEeUJRYVdWMAoJSUVSbElGSnBaR1JsY2dDUUtpbDRnQ3BW
        QnBBckpJTXhnQ3NOYUpBa0tvSUhnQ1FjTXBBM0xZRUpnRGRQZ21hUVBER0IKCVRvQThSVmFRS3lvRlB6dUJUSUEvYkZhUVF5OHFOeUNCR0lCRFVnUTNLMG9ySllFUmtE
        ODBDQ1VsY29BL1d6MGxUVktRCglRaXNJSmlLQk9vQkNTb0Vza0RraGdoU0FPVXFCSUNZYk5KQStNSU5NTFVLQklvQXRTb0pDa0RJOWdWZUFNanRDa0NzeQoJUW9BK2JJ
        TWxrREl0Z2h3dlBDQ0FLMmtLTWkxOUwwOUZrRHBQQ2pWS2dWV0FPbU1ia0RzK0NZQTFJb0ltTzBBRWtEdzQKCWdTdUFQR2xIa0VGQkZESTVnU0tBTW1aWWtEaFFnazBr
        U29KWGdEaGdnU2FRTno0R1AwODNnRUZGZ3hZa0NTaVFNRUdCCgljb0EzUUI2UUswRXFnREEyWno5ZGZKQXdPRktBS3dVY01GS0JBSkFrVUlFZ2dDUmpiWkE4UllGd2dE
        eG1CNUEvTVlJSgoJUVZrR2dEOXlGSkF3UW9GZ2dFRnZlVEFGZnBCQ1pvRTVnRUpTTHBCRFZGSXdMWGVBUTJrNmtFUlBnUjZBTUU4MVJHazUKCWtFVkdCQ1l4aEJJd0xp
        aUFKbStCYVpCRFZTK0FSVnVDUWpBMFlaQkVXZ3lBUTAwQWtDMUJCVEEyZ1IyQU1GMEFSR3hWCglrRVZlRWpBZGdSYUFNR0F0UldrdGtFWmJDU28zVUlBdE5CeEdZelFx
        WUZTUVIwd05LekdCZUlCSExRbVFRU0NCY0lCQgoJV3gyUVFpcUJTSUJDV3drckdVeVFRMVVJTWthQk1ZQXlZQ1ZEYklGMmtFdHRnUXlBUzJPQ1paQXZQUTFLWG9FemdF
        cEYKCVd5OXBCcEJJUEFRd09ZRnVnRWhwTURBOWdUYVFKQytCUTRBa0oyZVFRMk9CU0lCRFJZSXBrRUpWQ2pCVmNvQkNab0VFCglrRU5GYW9Bd0lZRUVrQ3N0RWtaRklZ
        QkRZNEVtUm1rQ0swVTNrQ2hLQlVoYmdnbUFTR01aa0VaQ0hZQW9Tb0VMUmppQwoJUHBBMFRRQTZSd0JBVHpraU5JRlpnRHBzV2pSc1JVQnNQU0l5R0pBb1JvRjdMbEJQ
        Z0Noc2dTT1FQVitCTklBOVd3a3UKCVprV1FQa1VMS1VXQllZQStZQ1NRUEM2QlY0QThWWUZrS1VkSWtEaExIREEyZ3grQU9Hd2hrRGRaZ1JxQU1Ha3lOMXN1CglrRFZR
        Q3l4VWdTeUFMRmd2TldBTmtEZEdFREE5Z1UrQU4yQUlNRW9va0NaUEFqaEZnUytBT0c5WGtEa3ZnZ1E4TENDQQoJT1J4SkpsV0JKNUEvU3dpQVBHa1BrREJRZ1N1QU1F
        VXVrRUpnRWpBSkQ0QS9hV3hDYnpzd1NqcVFSV2d0TUJKamdFVnMKCUVqQm1WNUJFVmlZcVJvRllRMUF6Z0VSTklFTmpIeXBtZ1FXUVFrb1RLMEtCSG9CQ2FWQ1FRem1C
        TllCRFlFYVFSRTkvCglnRVJwUml0WVRwQkZhQVl2VTRGL2dFVnNTQzgyZ1JtUU1sb0FSbWVCTzRCR2JDdVFSMHc4Z0RJWWdVS1FMMHFCTDRBdgoJWFFSSFl6MlFTRnNI
        TUdhQlg0QkliQTB3V3hLUVMyOGJNMmhRZ0V0c2dRY3pXNEZTa0VoVkFEQmtnUUdBU0dCbE1FSW8KCWtFTnBFU3RNZ1NDQVEyQTdLMlpRa0NjNEJEOUZnVGVBSnowTlAy
        YUJOWkJEVmdBcmE0RWdnRU5qYnBBblN3SS9QQldBCglLMVY5UDBjZUoyWk9rQ1pOQWo0OGdUT0FQaTA3a0NvNEFFSkFib0FtVWhSQ1BTVXFXMVNRUldRVExWVUFMeFNC
        QjRCRgoJYVVZdmJCUXRab0Yva0N4cUJFUnFnVU9BUkdrdExHbUJYSkFxWVFkQ1o0RXhnRUpzSVNwdk01QXJXZ0pEVm9FeGdDdHYKCUUwTm1naHFRUm1FRVFWOEVLMWc1
        UjE4YWdFWnljMEZtUFN0VkgwZGdnVk9RTW1jSlNtb0NRV21DRDRCQkowZ3lRaFZLCglZNFFia0RBNmdYQXpQaVdBTUFDQmNKQTNLNEVjZ0RjQUx6TUFIWkE4VTRGL2dE
        d0FDcEEvVTRGc1ExSVFnRDhBZ1VKRAoJQUI2UVNFcUJFWUJJQUhxUVN6dUNISUJMQUFPUVQxQ0JWSUJQQUlKUGtGQmpDQ3RjQjBwaUFqZGtCRk5nZ1ZDQVNnQVIKCVVB
        QUFVd0JqTndBQ0t3Q0NWWkFrWndJd1pBaFBZZ05JVndSVVl4SkxYd0FyWUFWUlhJRUxnQ3NBRTFRQUJDUUFDMUVBCglKMHNBTVRBQUVVOEFnUTBrUUFBclFBQXdRQUF6
        UUFBM1FBQThRQUEvUUFCRFFBQklRQUJLUUFCTFFBQlBRQUJRUUFCUgoJUUFCVFFBQlVRQUQvTHdCUWNuTlZLUlVBQUMwQUFBQUNBQUFBWkRRQUFBQUFDQUFBQUVkeVlX
        NWtJRVEwQUFBQUFBTUEKCUFBQURBQUFBQUFDb1FRQUFjRUlBQU5oQ0F3QUFBQUFBQUFBQUFBQUFBQUFBQUFBQUFBQURBQUFBQVFBQUFBQUFBQUFBCglBQUFBQXdBQUFB
        QUFBQUFBQUFBQUFBQUFBQU1BQUFBQUFBQUFBQUFBQUFBQUFBQURBQUFBQVFBQUFBRUFBQUFCQUFBQQoJQUFBQVFBQUFBQUFCQUFBQUFBQUFBTngvSWo0REFBQUFDZ0FB
        QUFBQXFFRUFBT2hCQUFBWVFnQUFJRUlBQUNSQ0FBQXMKCVFnQUFZRUlBQUpKQ0FBQ1VRZ0FBdGtJS0FBQUFZYVpKUHdqU1RqOEp6R2svZVB4Y1AxbERWRDh6RG1BL0hR
        aUFQNDgrCglzeitQUHJNL2p6NnpQd0FBQUFBQUFMWkNBQUFBQUFNQUFBQUJBQUFBQUFCd1FnRUFBQUFBQUFBQUFBQUFBQUFBQUFBQQoJQU1qQ0FBQUFBQUVBQUFBQUFB
        QUFBQUFBQUFBQW9NQUFBS0JBQUFBQUFBTUFBQUFDQUFBQUFBQ29RUUFBMkVJQ0FBQUEKCUFBQUFBQUFBQUFBQUFBQUFBd0FBQUFJQUFBQUFBS2hCQUFEWVFnSUFBQUFB
        QUlBL0FBQ0FQd0FBQUFDQUFBQUFBQUFBCglBTklFQUFBQUFJQS9Bd0FBQUFFQUFBQUFBSEJDQVFBQUFBQUFBQUFBQUFBQUF3QUFBR2tBQUFBQUFCQkJBQUFnUVFBQQoJ
        TUVFQUFFQkJBQUJRUVFBQVlFRUFBSEJCQUFDQVFRQUFpRUVBQUpCQkFBQ1lRUUFBb0VFQUFLaEJBQUN3UVFBQXVFRUEKCUFNQkJBQURJUVFBQTBFRUFBTmhCQUFEZ1FR
        QUE2RUVBQVBCQkFBRDRRUUFBQUVJQUFBUkNBQUFJUWdBQURFSUFBQkJDCglBQUFVUWdBQUdFSUFBQnhDQUFBZ1FnQUFKRUlBQUNoQ0FBQXNRZ0FBTUVJQUFEUkNBQUE0
        UWdBQVBFSUFBRUJDQUFCRQoJUWdBQVNFSUFBRXhDQUFCUVFnQUFWRUlBQUZoQ0FBQmNRZ0FBWUVJQUFHUkNBQUJvUWdBQWJFSUFBSEJDQUFCMFFnQUEKCWVFSUFBSHhD
        QUFDQVFnQUFna0lBQUlSQ0FBQ0dRZ0FBaUVJQUFJcENBQUNNUWdBQWprSUFBSkJDQUFDU1FnQUFsRUlBCglBSlpDQUFDWVFnQUFta0lBQUp4Q0FBQ2VRZ0FBb0VJQUFL
        SkNBQUNrUWdBQXBrSUFBS2hDQUFDcVFnQUFyRUlBQUs1QwoJQUFDd1FnQUFza0lBQUxSQ0FBQzJRZ0FBdUVJQUFMcENBQUM4UWdBQXZrSUFBTUJDQUFEQ1FnQUF4RUlB
        QU1aQ0FBREkKCVFnQUF5a0lBQU14Q0FBRE9RZ0FBMEVJQUFOSkNBQURVUWdBQTFrSUFBTmhDQUFEYVFnQUEzRUlBQU41Q0FBRGdRZ0FBCgk0a0pwQUFBQUFBQUF3QUFB
        Z0w4QUFFREFBQUJBd0FBQVFFQUFBQUJBQUFEQVFBQUFnRDhBQUlBL0FBREFRQUFBUUVBQQoJQUlCQUFBQUF3QUFBUU1BQUFJQkFBQUNBUUFBQW9FQUFBTUJBQUFDQVFB
        QUFBSUFBQUlBL0FBQUF3QUFBZ0Q4QUFFREEKCUFBQkF3QUFBUUVBQUFJQkFBQUNnUUFBQW9FQUFBRURBQUFDZ1FBQUFBSUFBQUFCQUFBQkF3QUFBb0VBQUFLQkFBQUJB
        CglRQUFBZ0VBQUFBQkFBQUFBd0FBQWdEOEFBSUJBQUFBQVFBQUFvRUFBQUVCQUFBQkF3QUFBQUlBQUFJQkFBQUJBd0FBQQoJQUlBQUFJQS9BQUNBdndBQVFNQUFBS0JB
        QUFCQXdBQUFBTUFBQUFDQUFBQUFnQUFBb0VBQUFFREFBQUFBd0FBQWdMOEEKCUFFREFBQUJBd0FBQW9FQUFBQURBQUFCQXdBQUFRTUFBQUlCQUFBQ0FQd0FBUU1BQUFJ
        QkFBQUFBQUFBQWdFQUFBSUMvCglBQUFBUUFBQW9FQUFBRURBQUFDQXZ3QUFBTUFBQU1CQUFBQ2dRQUFBUU1BQUFFREFBQUFBd0FBQWdEOEFBRURBQUFCQQoJd0FBQWdM
        OEFBSUMvQUFEQVFBQUFnRUFBQUVEQUFBQUFBQUFBQUFBQUFJQS9BQUJBd0FBQUFNQUFBTUJBQUFCQXdBQUEKCXdFQUFBRURBQUFCQXdBQUFRTUFBQUFCQUFBQUFBQU1B
        QUFBQ0FBQUFBQUNvUVFBQTJFSUNBQUFBQUFDQVB3QUFnRDhBCglBQUFBQUFEY1F3QUFBQUFCQUFBQUFBQUFBQWNBQUFCRVpXWmhkV3gwREFBQUFBQUF5RUlBQUVoREFB
        Q1dRd0FBeUVNQQoJQVBwREFBQVdSQUFBTDBRQUFFaEVBQUJoUkFBQWVrUUFnSWxFQUFDV1JBSUFBQUFBQU54RFBBQUFBRVVBQUFBQUFBQUEKCUFBQUFBQWNBQUFCRVpX
        WmhkV3gwQUFBQUFBQUFBQUFEQUFBQUJBQUFBQUFBd0VFQUFCQkNBQUJBUWdBQTJFSUVBQUFBCglBQUNnd0FBQWdMOEFBQUFBQUFBQUFBQUFBQUFBQUFBQUFBQUFBQUFB
        Z0Q4QUFJQS9Bd0FBQUFJQUFBQUFBS2hCQUFEWQoJUWdJQUFBQUFBSUEvQUFDQVB3QUFBQUFEQUFBQUFnQUFBQUFBcUVFQUFOaENBZ0FBQUFBQWdEOEFBSUEvQUFBQUFB
        QUEKCUFBQURBQUFBQVFBQUFBQUFjRUlCQUFBQUFBQUFBQUFBQUFBQUFJQS9Bd0FBQUFFQUFBQUFBSEJDQVFBQUFBQUFBQUFBCglBQUFBQVFBQUFBQUFBQUFBQUFBQXpj
        ek12YzNNekQwQkFBQUFBQUFBQUFBQUFBQUFBQUMvQUFBQVB3QUFnRDhEQUFBQQoJQXdBQUFBQUFxRUVBQUhCQ0FBRFlRZ01BQUFBQUFJQS9BQUNBUHdBQWdEOEFBQUFB
        QUFBQUFBTUFBQUFDQUFBQUFBQ28KCVFRQUEyRUlDQUFBQUFBQUFBQUFBQUFBQUFBQUFBQUNBUHdNQUFBQUNBQUFBQUFDb1FRQUEyRUlDQUFBQUFBQ0FQd0FBCglnRDhB
        QUFBQUFBQWdRZ01BQUFBSEFBQUFBQUNvUVFBQWtFSUFBS2hDQUFDMFFnQUF3RUlBQU1oQ0FBRFlRZ2NBQUFBQQoJQUFBQUFBQUFBQUFBUUVBQUFNQkFBQUFRUVFBQUlF
        RUFBREJCQUFBQUFBQUFnRDhEQUFBQUF3QUFBQUFBcUVFQUFIQkMKCUFBRFlRZ01BQUFBQUFJQS9BQUNBUHdBQWdEOEFBQUFBQXdBQUFBQUFBQUFCQUFBQUFBQUFBQUFB
        QUFBQkFBQUFBd0FBCglBQUlBQUFBQUFBQUFBQUNBUHdJQUFBQUFBQUFBQUFDQVB3QUFBQUFEQUFBQUFnQUFBQUFBQUFBQUFJQS9BZ0FBQUFBQQoJZ0Q4QUFJQS9BQUFB
        QUFNQUFBQUVBQUFBQUFBQUFDYVRTVDcrZmo4L0FBQ0FQd1FBQUFBQUFBQUFBQUFBQUFBQWdEOEEKCUFJQS9BQUFBQUFNQUFBQUNBQUFBQUFBQUFBQUFnRDhDQUFBQUFB
        QUFBQUFBQUFBQUFBQUF6Y3dzUUFNQUFBQUNBQUFBCglBQUNvUVFBQTJFSUNBQUFBQUFDQVB3QUFnRDhBQUFBQUFBQ0F2d0FBQUQ4REFBQUFBZ0FBQUFBQXdFRUFBTUJD
        QWdBQQoJQUFBQWdEOEFBSUEvQUFBQUFBRUFBQUFBQUFBQUFRQUFBQW9BQUFCVGJXRnNiQ0JJWVd4c0N3QUFBRzFsWkdsMWJXaGgKCWJHd3hBQUFBQUFBQW9FRUFBSUEv
        Wm1abVB3QUFBQUJDWUdVOUFBQUFBQUFBQUFBQUFBQUFBQUNxUXdBQWdEOEFBSUEvCglCUUFBQUFBQWdEOEFBSUEvQXdBQUFGMEFBQUFBQUtoQkFBQ3dRUUFBdUVFQUFN
        QkJBQURJUVFBQTBFRUFBTmhCQUFEZwoJUVFBQTZFRUFBUEJCQUFENFFRQUFBRUlBQUFSQ0FBQUlRZ0FBREVJQUFCQkNBQUFVUWdBQUdFSUFBQnhDQUFBZ1FnQUEKCUpF
        SUFBQ2hDQUFBc1FnQUFNRUlBQURSQ0FBQTRRZ0FBUEVJQUFFQkNBQUJFUWdBQVNFSUFBRXhDQUFCUVFnQUFWRUlBCglBRmhDQUFCY1FnQUFZRUlBQUdSQ0FBQm9RZ0FB
        YkVJQUFIQkNBQUIwUWdBQWVFSUFBSHhDQUFDQVFnQUFna0lBQUlSQwoJQUFDR1FnQUFpRUlBQUlwQ0FBQ01RZ0FBamtJQUFKQkNBQUNTUWdBQWxFSUFBSlpDQUFDWVFn
        QUFta0lBQUp4Q0FBQ2UKCVFnQUFvRUlBQUtKQ0FBQ2tRZ0FBcGtJQUFLaENBQUNxUWdBQXJFSUFBSzVDQUFDd1FnQUFza0lBQUxSQ0FBQzJRZ0FBCgl1RUlBQUxwQ0FB
        QzhRZ0FBdmtJQUFNQkNBQURDUWdBQXhFSUFBTVpDQUFESVFnQUF5a0lBQU14Q0FBRE9RZ0FBMEVJQQoJQU5KQ0FBRFVRZ0FBMWtJQUFOaENBQURhUWdBQTNFSUFBTjVD
        QUFEZ1FnQUE0a0pkQUFBQUFBQ0FQd0FBZ0Q4QUFJQS8KCUFBQ0FQd0FBZ0Q4QUFJQS9BQUNBUHdBQWdEOXhQWW8vaGV1UlAvWW9uRC9zVVpnL2o4S1ZQM0U5aWorYW1a
        ay9qOEtWCglQM3NVamorUHdwVS9tcG1aUDdnZXBUL056SXcvQ3RlalAxSzRuaithbVprLzE2T1FQOWVqa0QrNEhxVS9LVnlQUCtGNgoJbEQ4OUNwYy9leFNPUDQvQ2xU
        OUk0Wm8vZXhTdVA2NUhvVDhBQUlBL0tWeVBQMUs0bmo4QUFJQS80WHFVUDF5UG9qL3MKCVVaZy9YSStpUHgrRnF6K2tjSjAvTXpPelAzc1Vyait1UjZFL1NPR2FQM0U5
        aWo5Y2o2SS93L1dJUCt4Um1EL056SXcvCglGSzZIUHgrRml6L3NVWmcvVXJpZVAzc1Vqait1UjZFL0tWeVBQNXFabVQ5Y2o2SS9DdGVqUDJabXBqK2tjSjAvTXpPVAoJ
        UDQvQ3RUOVN1SjQvbXBtWlA1cVp1VCs0SHFVL0FBQ2dQODNNckQrYW1iay9wSENkUDBqaG1qL056S3cvUFFxWFB5bGMKCWp6L0Q5YWcvUFFxWFA2UnduVCthbVprL2NU
        MnFQMGpobWo5U3VKNC9VcmllUDBqaG1qOTdGSzQvNFhxVVAvWW9uRCtrCgljSjAvQUFBQUFBTUFBQUFEQUFBQUFBQ29RUUFBY0VJQUFOaENBd0FBQUFBQWdEOEFBSUEv
        QUFDQVB3QUFBQUFBQUFBQQoJQXdBQUFGMEFBQUFBQUtoQkFBQ3dRUUFBdUVFQUFNQkJBQURJUVFBQTBFRUFBTmhCQUFEZ1FRQUE2RUVBQVBCQkFBRDQKCVFRQUFBRUlB
        QUFSQ0FBQUlRZ0FBREVJQUFCQkNBQUFVUWdBQUdFSUFBQnhDQUFBZ1FnQUFKRUlBQUNoQ0FBQXNRZ0FBCglNRUlBQURSQ0FBQTRRZ0FBUEVJQUFFQkNBQUJFUWdBQVNF
        SUFBRXhDQUFCUVFnQUFWRUlBQUZoQ0FBQmNRZ0FBWUVJQQoJQUdSQ0FBQm9RZ0FBYkVJQUFIQkNBQUIwUWdBQWVFSUFBSHhDQUFDQVFnQUFna0lBQUlSQ0FBQ0dRZ0FB
        aUVJQUFJcEMKCUFBQ01RZ0FBamtJQUFKQkNBQUNTUWdBQWxFSUFBSlpDQUFDWVFnQUFta0lBQUp4Q0FBQ2VRZ0FBb0VJQUFLSkNBQUNrCglRZ0FBcGtJQUFLaENBQUNx
        UWdBQXJFSUFBSzVDQUFDd1FnQUFza0lBQUxSQ0FBQzJRZ0FBdUVJQUFMcENBQUM4UWdBQQoJdmtJQUFNQkNBQURDUWdBQXhFSUFBTVpDQUFESVFnQUF5a0lBQU14Q0FB
        RE9RZ0FBMEVJQUFOSkNBQURVUWdBQTFrSUEKCUFOaENBQURhUWdBQTNFSUFBTjVDQUFEZ1FnQUE0a0pkQUFBQUFBQUFBQUFBQUFBQUFBQUFBQUFBQUFBQUFBQUFBQUFB
        CglBQUFBQUFBQUFBQXhtdVc4U09GSXZSZFZCNzFBR1dFODBFSjR2Vi9ZU1Qyd05rbTkzam5pdWRoVnFyMHV1R3U5T0NFVAoJT3RkamdMd1cyNFM5UkZJRlBhaUpqenlD
        bDdDNjdyeXFQWkxpdGIyMThibzkybXhKUFVNdm9UM2tGcXU3dlFodnZRUi8KCW9MM1gzSzI5MnhXZFBZZURRejI4QlpXOU1qWEdQTmw3c2IxUjRhNjhqSXp5UEhUL3dU
        MWI1amE3Wm1LUHVoQXB1ajNjCglaN005SUM2YVBhVzBFcjNPMzRXOGpjbTJQRkpIcUR4S05MbzljdVJudmJrYWdEMy9OYTI5MUdXZFBZa2RYVHcyamxzOQoJcmx5UXZU
        cnBYYjFnWUtFOGZJZEdQUkZuQ2oyT1dRTTlHL3pXTzhiVXNieFhHSHM5QVJobHZSMTh3and6bWlTOVR6QlMKCXZVbHZPcjMzVGs0OWJOTzJQY20ySjcwVlM2VTlQVjZk
        UFVVdGVyMCtwSGc5bGVYZnZCM2hsN3dsd1l3OWZrclpPV2IzCgl4ejFhV1NFOWxVdk9QQU1QbkwzYW1tdTliTUdTUFNnejhEd2x2N085N2FOZlBVYjhqajJ3K1VDOUFB
        QUFBQU1BQUFBQQoJQUlBL0FBQ0FQd0FBZ0Q4REFBQUFBd0FBQUFBQXFFRUFBSEJDQUFEWVFnTUFBQUFBQUlBL0FBQ0FQd0FBZ0Q4QUFBQUEKCUF3QUFBQU1BQUFBQUFL
        aEJBQUJ3UWdBQTJFSURBQUFBQUFDQVB3QUFnRDhBQUlBL0FBQUFBQU1BQUFBREFBQUFBQUNvCglRUUFBY0VJQUFOaENBd0FBQUFBQWdEOEFBSUEvQUFDQVB3QUFBQUFB
        QUlBL0FBQ0FQd1lBQUFBQUFJQS9tcG1aUHMzTQoJVEQvTnpNdy9tcG1aUGdnQUFBQUFBQUFBQUFBQUFBQUFBQUFBQUFBQUFBQUFBQUFBQUFBQUFBQUFBQUFBQUFNQUFB
        QUQKCUFBQUFBQUNvUVFBQWNFSUFBTmhDQXdBQUFBQUFnRDhBQUlBL0FBQ0FQd0FBQUFBREFBQUFBd0FBQUFBQXFFRUFBSEJDCglBQURZUWdNQUFBQUFBSUEvQUFDQVB3
        QUFnRDhBQUFBQUF3QUFBQU1BQUFBQUFLaEJBQUJ3UWdBQTJFSURBQUFBQUFDQQoJUHdBQWdEOEFBSUEvQUFBQUFBTUFBQUFEQUFBQUFBQ29RUUFBY0VJQUFOaENBd0FB
        QUFBQWdEOEFBSUEvQUFDQVB3QUEKCUFBQUJBQUFBQVFBQUFBQUFjRUlEQUFBQUFRQUFBQUFBQUFBQkFBQUFBQUFBQUFBQUFBQk9JOWc5QXdBQUFCWUFBQUFBCglBQkJC
        QUFDb1FRQUF3RUVBQU9CQkFBRG9RUUFBQUVJQUFBaENBQUFZUWdBQUpFSUFBREJDQUFCQVFnQUFURUlBQUdCQwoJQUFCd1FnQUFnRUlBQUloQ0FBQ1FRZ0FBbUVJQUFL
        QkNBQUNvUWdBQXdFSUFBTmhDRmdBQUFIaDBKRC9wNVk4L0RHR1MKCVAzanlsRDlOZzVRL1RZT1VQMDJEbEQ5Tmc1US82b3FSUDAyRGxEOU5nNVEvNm9xUlAxbXdqai9x
        aXBFL1diQ09QMW13Cglqajlac0k0LzU0UmNQK2VFWEQ5K0pFby8ya010UHpHUzhqNEFBQUFBQVFBQUFBQUFBQUFCQUFBQU16TXpQMlptcGo4QgoJQUFBQUFRQUFBQUVB
        QUFCbVptWS96Y3lNUHdFQUFBQUFBQUFBQUFEd1FnQUFBQUFPQUFBQUFBQUFQODNNekQzTnpFdysKCUFBQUFQd1FBQUFBQ0FBQUFBd0FBQUFRQUFBQUJBQUFBQWdBQUFB
        Y0FBQUFBQUFBQUFBQUFBQTRBQUFBUUFBQUFBQUFBCglBTTNNekQwQUFJQS9BQUFBQUFBQUFMOEFBSEJDQUFBQUFBQUFBQUFBQUFBQUFBQUFBQUFBQUFBQUFBQUFBQUFB
        QUFBQQoJQUFBQUFBQUFBQUFBQUFJQUFBQUFBQUFBQUFBQUFBQUFBQUFPQUFBQUVBQUFBQUFBQUFBQUFBQUFBQUFBQUFBQUFBQUEKCUFBQUFBQUFBQUFBQUFBQUFBQUFB
        QUFBQUFBQUFBQUFBQUFBQUFBQUFBQUFBQUFBQUFBQUFBQUFBQUFBQUFBQUNBQUFBCglBQUFBQUFBQUFBQUFBQUFBRGdBQUFCQUFBQUFBQUFBQUFBQUFBQUFBQUFBQUFB
        QUFBQUFBQUFBQUFBQUFBQUFBQUFBQQoJQUFBQUFBQUFBQUFBQUFBQUFBQUFBQUFBQUFBQUFBQUFBQUFBQUFBQUFBQUFBUUFBQUFFQUFBQUFBSUEvQUFCQXdRQUEKCUFB
        QUNBQUFBQXdBQUFBRUFBQUFGQUFBQUJBQUFBQUVBQUFBREFBQUFBQURBUHdBQW9EOEFBTUEvQUFCaHd4eHVnY0FBCglBQUFBQlFBQUFBQUFBQUFBQUJEQkFBREF3Z0FB
        d01JQUFNRENCUUFBQUFBQUFBQ1B3dlU4QUFBQUFBQUFBQUFBQUFBQQoJQlFBQUFBQUFBQUFBQUFBQUFBQUFBQUFBQUFBQUFBQUFBUUFBQUFBQUFBQUVBQUFBQVFBQUFB
        TUFBQUFBQU1BL0FBQkEKCVB3QUF3RDhBQURSQ0hHNkJ3QUFBQUFBRkFBQUFBQUFRd1FBQUFBQUFBTURDQUFEQXdnQUF3TUlGQUFBQUN0Y2pQYWFiCgl4RG9BQUFBQUFB
        QUFBQUFBQUFBRkFBQUFBQUFBQUFBQUFBQUFBQUFBQUFBQUFBQUFBQUFCQUFBQUFBQUFBQVFBQUFBQQoJQUFBQUF3QUFBSS9DOVQ4OUNsZS9INFZyUHdBQXRFSUFBQUFB
        QUFBQUFBVUFBQUFBQUVEQkFBQkF3UUFBY01JQUFIREMKCUFBQnd3Z1VBQUFBQUFBQUFBQUFBQUFBQUFBQUFBQUFBQUFBQUFBVUFBQUFBQUFBQUFBQUFBQUFBQUFBQUFB
        QUFBQUFBCglBQUVBQUFBQUFBQUFCQUFBQUFBQUFBQURBQUFBTXpNenYxeVB3ajZ1UjJFL0FBQUFBQUFBQUFBQUFBQUFCUUFBQUFBQQoJUU1FQUFFREJBQUJ3d2dBQWNN
        SUFBSERDQlFBQUFBQUFBQUFBQUFBQUFBQUFBQUFBQUFBQUFBQUFCUUFBQUFBQUFBQUEKCUFBQUFBQUFBQUFBQUFBQUFBQUFBQVFBQUFBQUFBQUFFQUFBQUFBQUFBQU1B
        QUFDNEhzVS9QUXBYUDY1SDRUOEFBQUFBCglBQUFBQUFBQUFBQUZBQUFBQUFCQXdRQUFRTUVBQUhEQ0FBQnd3Z0FBY01JRkFBQUFBQUFBQUFBQUFBQUFBQUFBQUFBQQoJ
        QUFBQUFBQUZBQUFBQUFBQUFBQUFBQUFBQUFBQUFBQUFBQUFBQUFBQkFBQUFBQUFBQUFFQUFBQUFBQUFBQVFBQUFBTUEKCUFBQXpNek0vQUFBQUFHWm1wajhBQUpCQkFB
        QUFBQUFBQUFBQUFBQUEKCTwvZGF0YT4KCTxrZXk+bWFudWZhY3R1cmVyPC9rZXk+Cgk8aW50ZWdlcj4xMjk4NDI4NTMyPC9pbnRlZ2VyPgoJPGtleT5uYW1lPC9rZXk+
        Cgk8c3RyaW5nPlVudGl0bGVkPC9zdHJpbmc+Cgk8a2V5PnN1YnR5cGU8L2tleT4KCTxpbnRlZ2VyPjEzNDk3OTMxMzM8L2ludGVnZXI+Cgk8a2V5PnR5cGU8L2tleT4K
        CTxpbnRlZ2VyPjE2MzUwODU2ODU8L2ludGVnZXI+Cgk8a2V5PnZlcnNpb248L2tleT4KCTxpbnRlZ2VyPjA8L2ludGVnZXI+CjwvZGljdD4KPC9wbGlzdD4KAQAAAAAA
        AAAAAA==
      >
      FLOATPOS 0 0 0 0
      FXID {E2B4A2EF-BBAD-5947-B44B-8595E880257E}
      WAK 0 0
      BYPASS 0 0 0
      <VST "VST: ReaEQ (Cockos)" reaeq.vst.dylib 0 "" 1919247729<56535472656571726561657100000000> ""
        cWVlcu5e7f4CAAAAAQAAAAAAAAACAAAAAAAAAAIAAAABAAAAAAAAAAIAAAAAAAAAqAAAAAEAAAAAABAA
        IQAAAAQAAAAAAAAAAQAAAAAn4P3uJlVA/IlNFo363j8AAAAAAAAAQAEIAAAAAQAAAAAAAAAAwHJAAAAAAAAA8D8AAAAAAAAAQAEIAAAAAQAAAEos3gIjQIlA/v//////
        7z8AAAAAAAAAQAEBAAAAAQAAAEV/W4DmvZtA/Mx5kMDFzj8Af2q8dJP4PwEBAAAAAQAAAAAAAAAAAPA/AAAAAFQCAABwAQAA
        AAAQAAAA
      >
      FLOATPOS 605 103 596 422
      FXID {FDCE2547-C946-9C4A-B624-979EFF3B8944}
      WAK 0 0
    >
    <ITEM
      POSITION 0
      SNAPOFFS 0
      LENGTH 63.645578125
      LOOP 1
      ALLTAKES 0
      FADEIN 1 0 0 1 0 0 0
      FADEOUT 1 0 0 1 0 0 0
      MUTE 0 0
      SEL 0
      IGUID {8913B272-F7E0-364D-AD0A-70FDC89F6F12}
      IID 23
      NAME "03-Piano-Recorded MIDI"
      VOLPAN 1 0 1 -1
      SOFFS 0 0
      PLAYRATE 1 1 0 -1 0 0.0025
      CHANMODE 0
      GUID {1D053E48-0FAD-194F-A813-02C00B0CBD0E}
      RECPASS 8
      <SOURCE MIDI
        HASDATA 1 960 QN
        CCINTERP 32
        POOLEDEVTS {B983593A-8E8E-2F43-8549-719967098DB6}
        E 3262 b0 40 7f
        E 536 b0 40 00
        E 2 90 26 4e
        E 188 80 26 00
        E 74 90 32 41
        E 186 80 32 00
        E 17 90 26 47
        E 1 b0 40 7f
        E 198 80 26 00
        E 48 90 32 45
        E 156 80 32 00
        E 39 90 26 46
        E 163 80 26 00
        E 87 90 32 40
        E 131 80 32 00
        E 69 90 26 45
        E 221 80 26 00
        E 74 90 32 41
        E 177 80 32 00
        E 54 90 26 48
        E 195 80 26 00
        E 62 90 32 45
        E 156 80 32 00
        E 67 90 26 42
        E 197 80 26 00
        E 62 90 32 42
        E 161 80 32 00
        E 46 90 26 46
        E 222 80 26 00
        E 40 90 32 46
        E 199 80 32 00
        E 32 90 26 47
        E 187 80 26 00
        E 72 90 32 41
        E 207 80 32 00
        E 31 90 26 4a
        E 175 80 26 00
        E 53 90 32 46
        E 183 80 32 00
        E 53 90 26 43
        E 194 80 26 00
        E 61 90 32 45
        E 181 80 32 00
        E 35 90 26 44
        E 197 80 26 00
        E 68 90 32 42
        E 172 80 32 00
        E 42 90 26 45
        E 204 80 26 00
        E 59 90 32 46
        E 168 80 32 00
        E 40 90 26 49
        E 222 80 26 00
        E 59 90 32 41
        E 151 80 32 00
        E 48 90 26 4d
        E 198 80 26 00
        E 60 90 32 45
        E 168 80 32 00
        E 50 90 26 46
        E 227 80 26 00
        E 33 90 32 46
        E 230 80 32 00
        E 18 90 26 4a
        E 216 80 26 00
        E 21 90 32 45
        E 213 80 32 00
        E 28 90 26 4b
        E 38 90 3e 46
        E 167 80 26 00
        E 46 90 32 48
        E 61 90 40 46
        E 5 80 3e 00
        E 133 80 32 00
        E 37 90 26 49
        E 31 80 40 00
        E 30 90 3e 46
        E 169 80 26 00
        E 37 80 3e 00
        E 12 90 32 49
        E 7 90 40 47
        E 149 80 32 00
        E 59 90 26 4c
        E 24 80 40 00
        E 15 90 3e 48
        E 183 80 26 00
        E 28 80 3e 00
        E 30 90 32 45
        E 1 90 40 42
        E 114 80 32 00
        E 69 80 40 00
        E 31 90 26 4c
        E 9 90 3e 46
        E 201 80 26 00
        E 28 80 3e 00
        E 33 90 40 3f
        E 8 90 32 45
        E 98 80 32 00
        E 80 80 40 00
        E 20 90 26 4c
        E 44 90 3e 44
        E 141 80 26 00
        E 65 90 32 48
        E 5 80 3e 00
        E 22 90 40 3e
        E 61 80 32 00
        E 113 80 40 00
        E 0 90 26 4a
        E 57 90 3e 46
        E 123 80 26 00
        E 65 90 32 48
        E 33 80 3e 00
        E 30 90 40 41
        E 49 80 32 00
        E 126 90 26 48
        E 42 80 40 00
        E 27 90 3e 49
        E 120 80 26 00
        E 40 90 32 48
        E 28 80 3e 00
        E 34 90 40 42
        E 118 80 32 00
        E 75 90 26 4c
        E 19 80 40 00
        E 8 90 3e 4b
        E 179 80 26 00
        E 38 90 32 4b
        E 24 80 3e 00
        E 4 90 40 45
        E 127 80 40 00
        E 48 80 32 00
        E 55 90 26 52
        E 31 90 40 49
        E 192 80 40 00
        E 11 80 26 00
        E 12 90 42 49
        E 4 90 32 48
        E 137 80 42 00
        E 60 90 40 3f
        E 3 80 32 00
        E 40 90 26 4c
        E 175 80 40 00
        E 4 90 42 45
        E 24 80 26 00
        E 38 90 32 45
        E 186 80 32 00
        E 5 80 42 00
        E 22 90 40 48
        E 9 90 26 4d
        E 178 80 26 00
        E 63 90 32 43
        E 7 90 42 46
        E 22 80 40 00
        E 144 80 32 00
        E 40 80 42 00
        E 9 90 26 4c
        E 41 90 40 42
        E 132 80 26 00
        E 76 90 32 47
        E 52 90 42 46
        E 8 80 40 00
        E 39 80 32 00
        E 90 90 26 4a
        E 105 80 42 00
        E 31 90 40 46
        E 73 80 26 00
        E 40 90 32 4d
        E 91 80 32 00
        E 47 90 42 46
        E 11 80 40 00
        E 39 90 26 49
        E 171 80 26 00
        E 5 80 42 00
        E 19 90 32 4b
        E 30 90 40 44
        E 58 80 32 00
        E 93 90 26 49
        E 75 80 40 00
        E 22 90 42 43
        E 78 80 26 00
        E 59 90 32 49
        E 52 80 42 00
        E 39 90 40 42
        E 55 80 32 00
        E 48 90 26 4d
        E 85 80 40 00
        E 13 90 42 43
        E 73 80 26 00
        E 84 90 32 46
        E 20 80 42 00
        E 52 90 40 3b
        E 65 80 32 00
        E 79 90 42 39
        E 1 90 26 4a
        E 23 80 40 00
        E 113 80 42 00
        E 63 80 26 00
        E 55 90 32 48
        E 2 90 42 4a
        E 62 80 32 00
        E 54 90 26 49
        E 146 80 42 00
        E 20 90 43 42
        E 10 80 26 00
        E 79 90 32 4a
        E 70 80 43 00
        E 13 80 32 00
        E 21 90 42 47
        E 88 90 26 4a
        E 145 90 43 43
        E 13 80 42 00
        E 22 80 26 00
        E 53 90 32 4c
        E 95 80 32 00
        E 57 80 43 00
        E 32 90 26 54
        E 8 90 42 4a
        E 151 80 26 00
        E 28 90 32 4a
        E 71 80 32 00
        E 93 90 26 49
        E 1 90 43 42
        E 21 80 42 00
        E 153 80 26 00
        E 14 80 43 00
        E 22 90 32 47
        E 8 90 42 44
        E 61 80 32 00
        E 99 90 26 48
        E 47 80 42 00
        E 27 90 43 42
        E 91 80 26 00
        E 59 90 32 47
        E 36 80 43 00
        E 49 90 42 48
        E 13 80 32 00
        E 91 90 26 4c
        E 118 80 42 00
        E 11 90 43 46
        E 29 80 26 00
        E 73 90 32 4a
        E 55 80 43 00
        E 70 90 42 45
        E 18 80 32 00
        E 59 90 26 4b
        E 136 80 42 00
        E 14 90 43 3c
        E 18 80 26 00
        E 57 90 32 49
        E 81 80 32 00
        E 47 80 43 00
        E 33 90 42 45
        E 14 90 26 4c
        E 161 80 26 00
        E 72 90 32 4a
        E 36 80 42 00
        E 66 80 32 00
        E 106 90 26 4f
        E 181 80 26 00
        E 78 90 32 41
        E 90 80 32 00
        E 108 90 26 4a
        E 193 80 26 00
        E 70 90 32 49
        E 180 80 32 00
        E 70 90 26 4b
        E 180 80 26 00
        E 69 90 32 44
        E 144 80 32 00
        E 80 90 26 4e
        E 167 80 26 00
        E 49 90 32 46
        E 96 80 32 00
        E 118 90 26 4d
        E 194 80 26 00
        E 41 90 32 49
        E 132 80 32 00
        E 90 90 26 4b
        E 172 80 26 00
        E 47 90 32 49
        E 123 80 32 00
        E 105 90 26 47
        E 189 80 26 00
        E 27 90 32 46
        E 180 80 32 00
        E 75 90 26 49
        E 199 80 26 00
        E 32 90 32 48
        E 204 80 32 00
        E 80 90 26 4a
        E 234 80 26 00
        E 48 90 32 45
        E 206 80 32 00
        E 54 90 26 4e
        E 201 80 26 00
        E 57 90 32 47
        E 159 80 32 00
        E 57 90 26 48
        E 239 80 26 00
        E 44 90 32 48
        E 192 80 32 00
        E 38 90 26 49
        E 194 80 26 00
        E 51 90 32 45
        E 160 80 32 00
        E 48 90 26 4c
        E 242 80 26 00
        E 29 90 32 49
        E 184 80 32 00
        E 50 90 26 4c
        E 195 80 26 00
        E 50 90 32 46
        E 92 80 32 00
        E 110 90 26 4a
        E 194 80 26 00
        E 54 90 32 47
        E 195 80 32 00
        E 35 90 26 49
        E 210 80 26 00
        E 32 90 32 47
        E 146 80 32 00
        E 71 90 26 4a
        E 189 80 26 00
        E 47 90 32 48
        E 171 80 32 00
        E 62 90 26 47
        E 199 80 26 00
        E 45 90 32 48
        E 151 80 32 00
        E 61 90 26 4c
        E 181 80 26 00
        E 66 90 32 43
        E 105 80 32 00
        E 98 90 26 48
        E 205 80 26 00
        E 65 90 32 44
        E 104 80 32 00
        E 100 90 26 48
        E 226 80 26 00
        E 49 90 32 44
        E 119 80 32 00
        E 96 90 26 4b
        E 255 80 26 00
        E 41 90 32 46
        E 151 80 32 00
        E 73 90 26 4b
        E 194 80 26 00
        E 52 90 32 46
        E 164 80 32 00
        E 50 90 26 49
        E 222 80 26 00
        E 45 90 32 48
        E 141 80 32 00
        E 72 90 26 4a
        E 192 80 26 00
        E 52 90 32 42
        E 212 80 32 00
        E 38 90 26 49
        E 188 80 26 00
        E 42 90 32 47
        E 168 80 32 00
        E 50 90 26 4d
        E 200 80 26 00
        E 62 90 32 45
        E 80 80 32 00
        E 103 90 26 46
        E 241 80 26 00
        E 51 90 32 46
        E 85 80 32 00
        E 131 90 26 4c
        E 222 80 26 00
        E 57 90 32 48
        E 140 80 32 00
        E 81 90 26 48
        E 228 80 26 00
        E 52 90 32 49
        E 152 80 32 00
        E 64 90 26 4a
        E 234 80 26 00
        E 49 90 32 48
        E 189 80 32 00
        E 37 90 26 49
        E 228 80 26 00
        E 55 90 32 45
        E 105 80 32 00
        E 98 90 26 4d
        E 194 80 26 00
        E 76 90 32 47
        E 170 80 32 00
        E 33 90 26 49
        E 200 80 26 00
        E 52 90 32 47
        E 84 80 32 00
        E 98 90 26 46
        E 242 80 26 00
        E 45 90 32 48
        E 148 80 32 00
        E 57 90 26 4c
        E 195 80 26 00
        E 53 90 32 48
        E 168 80 32 00
        E 50 90 26 47
        E 232 80 26 00
        E 40 90 32 47
        E 161 80 32 00
        E 48 90 26 4c
        E 208 80 26 00
        E 35 90 32 4a
        E 175 80 32 00
        E 37 90 26 4a
        E 198 80 26 00
        E 79 90 32 46
        E 149 80 32 00
        E 69 90 26 49
        E 194 80 26 00
        E 63 90 32 47
        E 106 80 32 00
        E 101 90 26 47
        E 205 80 26 00
        E 55 90 32 48
        E 171 80 32 00
        E 56 90 26 4a
        E 204 80 26 00
        E 55 90 32 43
        E 125 80 32 00
        E 91 90 26 48
        E 203 80 26 00
        E 65 90 32 42
        E 177 80 32 00
        E 53 90 26 4b
        E 209 80 26 00
        E 53 90 32 45
        E 145 80 32 00
        E 71 90 26 47
        E 207 80 26 00
        E 56 90 32 46
        E 170 80 32 00
        E 52 90 26 48
        E 196 80 26 00
        E 65 90 32 41
        E 125 80 32 00
        E 82 90 26 46
        E 228 80 26 00
        E 71 90 32 42
        E 98 80 32 00
        E 93 90 26 4c
        E 207 80 26 00
        E 89 90 32 42
        E 90 80 32 00
        E 102 90 26 45
        E 211 80 26 00
        E 84 90 32 41
        E 82 80 32 00
        E 142 90 26 46
        E 192 80 26 00
        E 77 90 32 3f
        E 79 80 32 00
        E 113 90 26 47
        E 204 80 26 00
        E 88 90 32 42
        E 90 80 32 00
        E 115 90 26 46
        E 182 80 26 00
        E 71 90 32 43
        E 81 80 32 00
        E 137 90 26 43
        E 187 80 26 00
        E 69 90 32 40
        E 81 80 32 00
        E 114 90 26 4f
        E 205 80 26 00
        E 65 90 32 44
        E 76 80 32 00
        E 164 90 26 44
        E 172 80 26 00
        E 101 90 32 3e
        E 77 80 32 00
        E 175 90 26 3c
        E 85 80 26 00
        E 172 90 32 2d
        E 79 80 32 00
        E 90 90 26 44
        E 205 80 26 00
        E 94 90 32 3b
        E 78 80 32 00
        E 222 90 26 49
        E 134 80 26 00
        E 154 90 32 1a
        E 68 80 32 00
        E 1470 90 26 46
        E 69 80 26 00
        E 101 90 32 48
        E 82 80 32 00
        E 205 90 26 4e
        E 133 80 26 00
        E 116 90 32 45
        E 83 80 32 00
        E 153 90 26 47
        E 134 80 26 00
        E 121 90 32 38
        E 80 80 32 00
        E 139 90 26 40
        E 174 80 26 00
        E 95 90 32 41
        E 85 80 32 00
        E 116 90 26 49
        E 162 80 26 00
        E 112 90 32 39
        E 79 80 32 00
        E 99 90 26 41
        E 105 80 26 00
        E 155 90 32 3e
        E 73 80 32 00
        E 113 90 26 47
        E 197 80 26 00
        E 95 90 32 46
        E 68 80 32 00
        E 187 90 26 3e
        E 94 80 26 00
        E 152 90 32 43
        E 78 80 32 00
        E 169 90 26 45
        E 196 80 26 00
        E 90 90 32 43
        E 83 80 32 00
        E 195 90 26 3f
        E 84 80 26 00
        E 152 90 32 45
        E 80 80 32 00
        E 164 90 26 4c
        E 169 80 26 00
        E 97 90 32 43
        E 85 80 32 00
        E 142 90 26 45
        E 168 80 26 00
        E 70 90 32 43
        E 126 80 32 00
        E 111 90 26 4d
        E 194 80 26 00
        E 65 90 32 43
        E 96 80 32 00
        E 120 90 26 45
        E 199 80 26 00
        E 57 90 32 43
        E 124 80 32 00
        E 91 90 26 49
        E 183 80 26 00
        E 72 90 32 41
        E 85 80 32 00
        E 168 90 26 26
        E 87 80 26 00
        E 6029 b0 40 00
        E 62 90 26 54
        E 123 b0 40 7f
        E 39 80 26 00
        E 73 90 32 42
        E 167 80 32 00
        E 37 90 26 49
        E 206 80 26 00
        E 73 90 32 45
        E 111 80 32 00
        E 78 90 26 48
        E 217 80 26 00
        E 64 90 32 46
        E 92 80 32 00
        E 104 90 26 49
        E 185 80 26 00
        E 73 90 32 48
        E 125 80 32 00
        E 75 90 26 48
        E 199 80 26 00
        E 63 90 32 47
        E 100 80 32 00
        E 104 90 26 48
        E 199 80 26 00
        E 80 90 32 40
        E 83 80 32 00
        E 99 90 26 48
        E 204 80 26 00
        E 62 90 32 45
        E 138 80 32 00
        E 86 90 26 48
        E 202 80 26 00
        E 79 90 32 44
        E 97 80 32 00
        E 133 90 26 4a
        E 202 80 26 00
        E 53 90 32 47
        E 144 80 32 00
        E 77 90 26 4b
        E 188 80 26 00
        E 54 90 32 47
        E 100 80 32 00
        E 118 90 26 4a
        E 197 80 26 00
        E 76 90 32 45
        E 170 80 32 00
        E 77 90 26 4d
        E 189 80 26 00
        E 59 90 32 49
        E 114 80 32 00
        E 88 90 26 4b
        E 212 80 26 00
        E 57 90 32 4c
        E 166 80 32 00
        E 76 90 26 4b
        E 200 80 26 00
        E 57 90 32 4c
        E 144 80 32 00
        E 74 90 26 4d
        E 192 80 26 00
        E 70 90 32 47
        E 73 80 32 00
        E 139 90 26 50
        E 198 80 26 00
        E 80 90 32 4a
        E 73 80 32 00
        E 121 90 26 4d
        E 226 80 26 00
        E 61 90 32 4b
        E 138 80 32 00
        E 85 90 26 50
        E 227 80 26 00
        E 56 90 32 4d
        E 158 80 32 00
        E 66 90 26 4d
        E 217 80 26 00
        E 67 90 32 49
        E 75 80 32 00
        E 136 90 26 4b
        E 201 80 26 00
        E 61 90 32 47
        E 75 80 32 00
        E 129 90 26 4b
        E 205 80 26 00
        E 66 90 32 48
        E 70 80 32 00
        E 123 90 26 4a
        E 192 80 26 00
        E 77 90 32 47
        E 88 80 32 00
        E 114 90 26 4f
        E 184 80 26 00
        E 69 90 32 49
        E 81 80 32 00
        E 119 90 26 4a
        E 200 80 26 00
        E 83 90 32 47
        E 114 80 32 00
        E 82 90 26 4f
        E 192 80 26 00
        E 63 90 32 4c
        E 129 80 32 00
        E 80 90 26 4b
        E 202 80 26 00
        E 52 90 32 49
        E 82 80 32 00
        E 121 90 26 4e
        E 209 80 26 00
        E 65 90 32 4b
        E 111 80 32 00
        E 113 90 26 4d
        E 214 80 26 00
        E 50 90 32 4d
        E 152 80 32 00
        E 80 90 26 4e
        E 210 80 26 00
        E 61 90 32 4a
        E 144 80 32 00
        E 71 90 26 4e
        E 210 80 26 00
        E 65 90 32 4b
        E 143 80 32 00
        E 65 90 26 4f
        E 203 80 26 00
        E 54 90 32 49
        E 126 80 32 00
        E 84 90 26 4d
        E 228 80 26 00
        E 44 90 32 4a
        E 155 80 32 00
        E 64 90 26 54
        E 202 80 26 00
        E 52 90 32 4a
        E 138 80 32 00
        E 62 90 26 56
        E 221 80 26 00
        E 58 90 32 49
        E 112 80 32 00
        E 107 90 26 51
        E 224 80 26 00
        E 36 90 32 4d
        E 167 80 32 00
        E 53 90 26 54
        E 218 80 26 00
        E 48 90 32 4c
        E 173 80 32 00
        E 40 90 26 4e
        E 188 80 26 00
        E 60 90 32 4b
        E 173 80 32 00
        E 72 90 26 55
        E 205 80 26 00
        E 56 90 32 4a
        E 173 80 32 00
        E 57 90 26 4e
        E 213 80 26 00
        E 38 90 32 4d
        E 192 80 32 00
        E 50 90 26 4f
        E 178 80 26 00
        E 47 90 32 4d
        E 194 80 32 00
        E 48 90 26 4d
        E 192 80 26 00
        E 38 90 32 49
        E 194 80 32 00
        E 61 90 26 51
        E 181 80 26 00
        E 47 90 32 47
        E 126 80 32 00
        E 105 90 26 4c
        E 184 80 26 00
        E 27 90 32 47
        E 80 80 32 00
        E 140 90 26 4f
        E 193 80 26 00
        E 56 90 32 4a
        E 163 80 32 00
        E 86 90 26 4f
        E 191 80 26 00
        E 60 90 32 49
        E 163 80 32 00
        E 84 90 26 4f
        E 207 80 26 00
        E 57 90 32 4a
        E 168 80 32 00
        E 75 90 26 4d
        E 200 80 26 00
        E 44 90 32 4a
        E 143 80 32 00
        E 109 90 26 4d
        E 201 80 26 00
        E 43 90 32 47
        E 155 80 32 00
        E 63 90 26 4d
        E 222 80 26 00
        E 60 90 32 49
        E 107 80 32 00
        E 99 90 26 49
        E 205 80 26 00
        E 57 90 32 48
        E 93 80 32 00
        E 121 90 26 4b
        E 213 80 26 00
        E 52 90 32 48
        E 120 80 32 00
        E 113 90 26 4d
        E 192 80 26 00
        E 56 90 32 44
        E 87 80 32 00
        E 111 90 26 4f
        E 204 80 26 00
        E 69 90 32 48
        E 137 80 32 00
        E 62 90 26 4d
        E 203 80 26 00
        E 58 90 32 49
        E 118 80 32 00
        E 89 90 26 4b
        E 203 80 26 00
        E 51 90 32 49
        E 135 80 32 00
        E 76 90 26 4d
        E 192 80 26 00
        E 64 90 32 45
        E 88 80 32 00
        E 110 90 26 4d
        E 213 80 26 00
        E 64 90 32 48
        E 84 80 32 00
        E 131 90 26 4d
        E 237 80 26 00
        E 44 90 32 48
        E 153 80 32 00
        E 66 90 26 4d
        E 227 80 26 00
        E 46 90 32 49
        E 169 80 32 00
        E 54 90 26 4b
        E 228 80 26 00
        E 43 90 32 49
        E 111 80 32 00
        E 99 90 26 4e
        E 199 80 26 00
        E 50 90 32 49
        E 152 80 32 00
        E 77 90 26 4a
        E 218 80 26 00
        E 44 90 32 47
        E 131 80 32 00
        E 83 90 26 4d
        E 208 80 26 00
        E 80 90 32 44
        E 93 80 32 00
        E 101 90 26 4b
        E 232 80 26 00
        E 50 90 32 4b
        E 170 80 32 00
        E 52 90 26 4f
        E 76 90 3e 48
        E 141 80 26 00
        E 36 90 32 47
        E 57 90 40 4b
        E 27 80 3e 00
        E 120 80 32 00
        E 23 90 26 4f
        E 40 80 40 00
        E 49 90 3e 3f
        E 134 80 26 00
        E 23 90 32 49
        E 59 90 40 49
        E 19 80 3e 00
        E 73 80 32 00
        E 29 90 26 4c
        E 114 80 40 00
        E 35 90 3e 43
        E 62 80 26 00
        E 65 90 32 47
        E 82 80 32 00
        E 5 90 40 48
        E 19 80 3e 00
        E 88 90 26 4e
        E 144 80 40 00
        E 27 90 3e 3e
        E 80 80 26 00
        E 44 90 32 49
        E 96 80 3e 00
        E 1 90 40 45
        E 35 80 32 00
        E 41 90 26 4c
        E 104 80 40 00
        E 63 90 3e 3f
        E 2 80 26 00
        E 55 90 32 47
        E 116 80 32 00
        E 33 80 3e 00
        E 24 90 40 48
        E 20 90 26 51
        E 106 80 40 00
        E 81 80 26 00
        E 6 90 3e 45
        E 43 90 32 4b
        E 88 80 3e 00
        E 73 80 32 00
        E 18 90 40 3c
        E 16 90 26 52
        E 196 80 40 00
        E 17 80 26 00
        E 31 90 3e 3a
        E 10 90 32 4b
        E 142 80 32 00
        E 28 90 26 4d
        E 1 80 3e 00
        E 9 90 40 43
        E 190 80 40 00
        E 3 80 26 00
        E 49 90 3e 41
        E 2 90 32 4c
        E 125 80 32 00
        E 45 90 26 4e
        E 40 90 40 4a
        E 10 80 3e 00
        E 148 80 40 00
        E 6 80 26 00
        E 48 90 32 4b
        E 185 80 32 00
        E 29 90 40 35
        E 2 90 26 56
        E 155 80 40 00
        E 9 90 42 45
        E 85 80 26 00
        E 25 90 32 4a
        E 68 80 42 00
        E 63 90 40 42
        E 27 80 32 00
        E 55 90 26 4c
        E 152 80 40 00
        E 4 90 42 48
        E 30 80 26 00
        E 64 80 42 00
        E 19 90 32 46
        E 70 90 40 37
        E 33 80 32 00
        E 57 90 26 4e
        E 105 80 40 00
        E 25 90 42 45
        E 109 80 26 00
        E 54 90 32 47
        E 28 80 42 00
        E 37 90 40 43
        E 38 80 32 00
        E 73 90 26 4b
        E 105 80 40 00
        E 1 90 42 4a
        E 74 80 26 00
        E 93 90 32 41
        E 65 80 42 00
        E 17 80 32 00
        E 42 90 40 41
        E 46 90 26 4c
        E 177 90 42 4b
        E 17 80 40 00
        E 33 80 26 00
        E 40 90 32 4a
        E 109 80 42 00
        E 50 80 32 00
        E 25 90 40 44
        E 35 90 26 4f
        E 204 80 26 00
        E 31 90 42 43
        E 1 80 40 00
        E 21 90 32 47
        E 142 80 32 00
        E 67 80 42 00
        E 3 90 26 4f
        E 25 90 40 49
        E 163 80 26 00
        E 55 90 32 43
        E 29 90 42 49
        E 12 80 40 00
        E 50 80 32 00
        E 82 90 26 4a
        E 59 80 42 00
        E 39 90 40 44
        E 118 80 26 00
        E 46 90 32 48
        E 19 90 42 43
        E 26 80 40 00
        E 81 80 42 00
        E 63 80 32 00
        E 33 90 26 4c
        E 41 90 42 4c
        E 133 80 26 00
        E 50 90 32 44
        E 94 80 42 00
        E 6 90 43 40
        E 13 80 32 00
        E 83 90 26 4d
        E 106 80 43 00
        E 21 90 42 47
        E 60 80 26 00
        E 51 90 32 48
        E 112 80 32 00
        E 18 80 42 00
        E 3 90 43 46
        E 47 90 26 48
        E 174 80 26 00
        E 6 80 43 00
        E 20 90 42 4e
        E 39 90 32 47
        E 79 80 32 00
        E 79 90 26 42
        E 25 80 42 00
        E 22 90 43 46
        E 178 80 26 00
        E 32 80 43 00
        E 12 90 32 45
        E 2 90 42 4b
        E 80 80 32 00
        E 100 90 26 49
        E 32 80 42 00
        E 1 90 43 3b
        E 184 80 26 00
        E 46 80 43 00
        E 8 90 32 45
        E 2 90 42 4d
        E 79 80 32 00
        E 66 90 26 46
        E 60 90 43 44
        E 7 80 42 00
        E 132 80 26 00
        E 76 90 32 46
        E 14 90 42 4c
        E 2 80 43 00
        E 98 80 32 00
        E 75 90 26 46
        E 62 90 43 46
        E 3 80 42 00
        E 166 80 26 00
        E 61 90 32 44
        E 2 80 43 00
        E 18 90 42 4d
        E 56 80 32 00
        E 77 90 26 4a
        E 103 90 43 4a
        E 5 80 42 00
        E 123 80 26 00
        E 68 90 32 47
        E 58 80 43 00
        E 7 90 42 4a
        E 43 80 32 00
        E 88 90 26 4c
        E 145 90 43 40
        E 14 80 42 00
        E 53 80 26 00
        E 74 90 32 45
        E 81 80 32 00
        E 16 80 43 00
        E 10 90 42 4a
        E 95 90 26 4c
        E 163 80 42 00
        E 4 90 43 45
        E 64 80 26 00
        E 38 90 32 47
        E 78 80 32 00
        E 54 80 43 00
        E 6 90 42 4a
        E 35 90 26 48
        E 213 80 26 00
        E 9 90 43 4b
        E 28 80 42 00
        E 26 90 32 41
        E 65 80 32 00
        E 51 90 26 47
        E 67 80 43 00
        E 3 90 42 4b
        E 88 80 26 00
        E 47 90 32 48
        E 74 80 32 00
        E 57 90 43 49
        E 1 80 42 00
        E 40 90 26 4d
        E 191 90 42 4b
        E 5 80 43 00
        E 17 80 26 00
        E 62 90 32 43
        E 71 80 32 00
        E 107 90 43 4d
        E 6 80 42 00
        E 4 90 26 4d
        E 170 80 26 00
        E 25 90 42 4c
        E 1 80 43 00
        E 28 90 32 47
        E 72 80 32 00
        E 76 90 43 3c
        E 11 90 26 45
        E 1 80 42 00
        E 158 80 26 00
        E 41 80 43 00
        E 8 90 42 48
        E 23 90 32 41
        E 68 80 32 00
        E 85 90 26 48
        E 30 80 42 00
        E 13 90 43 3a
        E 139 80 26 00
        E 35 80 43 00
        E 45 90 42 47
        E 3 90 32 3e
        E 78 80 32 00
        E 89 90 26 49
        E 25 80 42 00
        E 2 90 43 48
        E 154 80 26 00
        E 54 80 43 00
        E 23 90 42 49
        E 16 90 32 41
        E 119 80 32 00
        E 73 90 43 44
        E 9 80 42 00
        E 4 90 26 4b
        E 173 80 43 00
        E 15 80 26 00
        E 58 90 32 47
        E 15 90 3e 45
        E 64 80 32 00
        E 79 90 26 49
        E 33 80 3e 00
        E 68 90 40 42
        E 125 80 26 00
        E 53 90 32 49
        E 39 80 40 00
        E 50 90 3e 3f
        E 73 80 32 00
        E 56 90 26 46
        E 68 80 3e 00
        E 69 90 40 3d
        E 86 80 26 00
        E 68 90 32 42
        E 40 80 40 00
        E 37 80 32 00
        E 10 90 3e 42
        E 82 90 26 4f
        E 32 80 3e 00
        E 157 80 26 00
        E 3 90 40 40
        E 61 90 32 42
        E 79 80 32 00
        E 37 80 40 00
        E 57 90 3e 45
        E 2 90 26 4d
        E 148 80 3e 00
        E 37 80 26 00
        E 64 90 32 46
        E 10 90 40 33
        E 85 80 32 00
        E 109 90 26 48
        E 1 80 40 00
        E 48 90 3e 47
        E 125 80 26 00
        E 54 90 32 44
        E 35 80 3e 00
        E 50 90 40 3e
        E 2 80 32 00
        E 116 90 26 4d
        E 89 80 40 00
        E 37 90 3e 48
        E 49 80 26 00
        E 55 90 32 42
        E 65 80 3e 00
        E 15 80 32 00
        E 70 90 40 41
        E 47 90 26 50
        E 165 80 26 00
        E 7 80 40 00
        E 26 90 3e 48
        E 28 90 32 44
        E 82 80 32 00
        E 51 80 3e 00
        E 61 90 40 43
        E 9 90 26 4b
        E 175 80 26 00
        E 3 80 40 00
        E 31 90 3e 47
        E 12 90 32 49
        E 91 80 32 00
        E 66 80 3e 00
        E 41 90 26 4a
        E 11 90 40 42
        E 76 80 40 00
        E 103 80 26 00
        E 62 90 32 47
        E 18 90 40 42
        E 64 80 32 00
        E 15 80 40 00
        E 63 90 26 45
        E 62 90 42 42
        E 132 80 26 00
        E 11 80 42 00
        E 53 90 40 3f
        E 3 90 32 46
        E 96 80 32 00
        E 95 90 26 4a
        E 30 80 40 00
        E 1 90 42 45
        E 167 80 26 00
        E 26 80 42 00
        E 44 90 32 44
        E 20 90 40 3c
        E 59 80 32 00
        E 101 90 26 4a
        E 15 80 40 00
        E 25 90 42 46
        E 145 80 26 00
        E 79 90 32 46
        E 7 80 42 00
        E 43 90 40 3c
        E 36 80 32 00
        E 113 90 26 49
        E 87 80 40 00
        E 3 90 42 46
        E 107 80 26 00
        E 80 90 32 3f
        E 23 80 42 00
        E 43 90 40 40
        E 13 80 32 00
        E 133 90 26 4b
        E 102 80 40 00
        E 8 90 42 45
        E 102 80 26 00
        E 83 90 32 3e
        E 4 80 42 00
        E 63 90 40 3b
        E 23 80 32 00
        E 132 90 26 4f
        E 61 90 42 43
        E 7 80 40 00
        E 127 80 26 00
        E 63 80 42 00
        E 24 90 32 43
        E 23 90 40 3c
        E 53 80 32 00
        E 91 90 26 4d
        E 119 90 42 44
        E 18 80 40 00
        E 55 80 26 00
        E 118 90 32 3f
        E 72 80 42 00
        E 14 90 40 45
        E 109 80 32 00
        E 53 90 26 46
        E 49 90 42 46
        E 33 80 40 00
        E 170 80 26 00
        E 18 80 42 00
        E 31 90 32 44
        E 67 90 42 4f
        E 17 80 32 00
        E 32 80 42 00
        E 59 90 26 48
        E 185 90 43 3f
        E 27 80 26 00
        E 62 90 32 40
        E 91 80 32 00
        E 43 80 43 00
        E 16 90 42 44
        E 19 90 26 46
        E 182 80 26 00
        E 51 90 43 48
        E 11 80 42 00
        E 18 90 32 3f
        E 71 80 32 00
        E 103 90 26 4c
        E 44 80 43 00
        E 9 90 42 4c
        E 86 80 26 00
        E 78 90 32 41
        E 70 80 42 00
        E 16 90 43 42
        E 15 80 32 00
        E 76 90 26 4a
        E 121 80 43 00
        E 19 90 42 49
        E 55 80 26 00
        E 51 90 32 43
        E 125 80 32 00
        E 17 80 42 00
        E 11 90 43 46
        E 58 90 26 45
        E 119 80 26 00
        E 29 80 43 00
        E 21 90 42 48
        E 32 90 32 47
        E 102 80 32 00
        E 72 80 42 00
        E 24 90 43 39
        E 1 90 26 41
        E 217 80 26 00
        E 1 80 43 00
        E 14 90 42 49
        E 47 90 32 3d
        E 18 80 42 00
        E 47 80 32 00
        E 573 b0 7b 00
        CCINTERP 32
        CHASE_CC_TAKEOFFS 1
        GUID {E89366EE-D288-6947-A9CE-3FD7B10F4B64}
        IGNTEMPO 0 120 4 4
        SRCCOLOR 66
        VELLANE -1 100 0
      >
    >
  >
  <TRACK {2C6549CB-6AA0-1B4E-AF93-18DDC626F0DE}
    NAME Piano
    PEAKCOL 16576
    BEAT -1
    AUTOMODE 0
    VOLPAN 1 0 -1 -1 1
    MUTESOLO 1 0 0
    IPHASE 0
    PLAYOFFS 0 1
    ISBUS 0 0
    BUSCOMP 0 0 0 0 0
    SHOWINMIX 0 0.6667 0.5 0 0.5 0 -1 0
    FREEMODE 0
    SEL 0
    REC 0 4096 1 0 0 0 0
    VU 2
    TRACKHEIGHT 0 0 0 0 0 0
    INQ 0 0 0 0.5 100 0 0 100
    NCHAN 2
    FX 1
    TRACKID {2C6549CB-6AA0-1B4E-AF93-18DDC626F0DE}
    PERF 0
    MIDIOUT -1
    MAINSEND 1 0
    <FXCHAIN
      WNDRECT 32 530 831 493
      SHOW 0
      LASTSEL 2
      DOCKED 0
      BYPASS 0 0 0
      <VST "VST: ReaControlMIDI (Cockos)" reacontrolMIDI.vst.dylib 0 "" 1919118692<56535472636D64726561636F6E74726F> ""
        ZG1jcu5e7f4AAAAAAAAAAO8AAAABAAAAAAAQAA==
        /////wAAAAAAAAAAAAAAAAkAAAAMAAAAAQAAAP8/AAAAIAAAACAAAAAAAAA+AAAAL1VzZXJzL2FuZHkvTGlicmFyeS9BcHBsaWNhdGlvbiBTdXBwb3J0L1JFQVBFUi9E
        YXRhL0dNLnJlYWJhbmsAAAAAAAAAAAAAAAAAAAAAAAAAAAAAAAAAAAAAAAAAAAAAAAABAAAAAAAAAAAAAAAAAAAAAAAAAAAAAAAAAAAAAAYAAABNYWpvcgANAAAAMTAy
        MDM0MDUwNjA3AAEAAAAAAAAAAAAAAAAKAAAADQAAAAEAAAAAAAAAAAAAAAAAAAA=
        AAAQAAAA
      >
      FLOATPOS 0 0 0 0
      FXID {ED2C4E45-097C-5B49-AF37-1744C2057BB7}
      WAK 0 0
      BYPASS 0 0 0
      <AU "AUi: Pianoteq 5 STAGE (Modartt)" "Modartt: Pianoteq 5 STAGE" "" 1635085685 1349793133 1298428532
        6QMAAAAAAAAAAAAAAgAAAAEAAAAAAAAAAgAAAAAAAAC2KwAAPD94bWwgdmVyc2lvbj0iMS4wIiBlbmNvZGluZz0iVVRGLTgiPz4KPCFET0NUWVBFIHBsaXN0IFBVQkxJ
        QyAiLS8vQXBwbGUvL0RURCBQTElTVCAxLjAvL0VOIiAiaHR0cDovL3d3dy5hcHBsZS5jb20vRFREcy9Qcm9wZXJ0eUxpc3QtMS4wLmR0ZCI+CjxwbGlzdCB2ZXJzaW9u
        PSIxLjAiPgo8ZGljdD4KCTxrZXk+ZGF0YTwva2V5PgoJPGRhdGE+CglBQUFBQUFBQUFBQUFBQUJMQUFBQUFBQUFBQUFBQUFBQkFBQUFBQUFBQUFJQUFBQUFBQUFBQXdB
        QUFBQUFBQUFFQUFBQQoJQUFBQUFBVUFBQUFBQUFBQUJnQUFBQUFBQUFBSEFBQUFBQUFBQUFnQUFBQUFBQUFBQ1FBQUFBQUFBQUFLQUFBQUFBQUEKCUFBc0FBQUFBQUFB
        QURBQUFBQUFBQUFBTkFBQUFBQUFBQUE0QUFBQUFBQUFBRHdBQUFBQUFBQUFRQUFBQUFBQUFBQkVBCglBQUFBQUFBQUVnQUFBQUFBQUFBVEFBQUFBQUFBQUJRQUFBQUFB
        QUFBRlFBQUFBQUFBQUFXQUFBQUFBQUFBQmNBQUFBQQoJQUFBQUdBQUFBQUFBQUFBWkFBQUFBQUFBQUJvQUFBQUFBQUFBR3dBQUFBQUFBQUFjQUFBQUFBQUFBQjBBQUFB
        QUFBQUEKCUhnQUFBQUFBQUFBZkFBQUFBQUFBQUNBQUFBQUFBQUFBSVFBQUFBQUFBQUFpQUFBQUFBQUFBQ01BQUFBQUFBQUFKQUFBCglBQUFBQUFBbEFBQUFBQUFBQUNZ
        QUFBQUFBQUFBSndBQUFBQUFBQUFvQUFBQUFBQUFBQ2tBQUFBQUFBQUFLZ0FBQUFBQQoJQUFBckFBQUFBQUFBQUN3QUFBQUFBQUFBTFFBQUFBQUFBQUF1QUFBQUFBQUFB
        QzhBQUFBQUFBQUFNQUFBQUFBQUFBQXgKCUFBQUFBQUFBQURJQUFBQUFBQUFBTXdBQUFBQUFBQUEwQUFBQUFBQUFBRFVBQUFBQUFBQUFOZ0FBQUFBQUFBQTNBQUFBCglB
        QUFBQURnQUFBQUFBQUFBT1FBQUFBQUFBQUE2QUFBQUFBQUFBRHNBQUFBQUFBQUFQQUFBQUFBQUFBQTlBQUFBQUFBQQoJQUQ0QUFBQUFBQUFBUHdBQUFBQUFBQUJBQUFB
        QUFBQUFBRUVBQUFBQUFBQUFRZ0FBQUFBQUFBQkRBQUFBQUFBQUFFUUEKCUFBQUFBQUFBUlFBQUFBQUFBQUJHQUFBQUFBQUFBRWNBQUFBQUFBQUFTQUFBQUFBQUFBQkpB
        QUFBQUFBQUFFb0FBQUFBCgk8L2RhdGE+Cgk8a2V5Pmp1Y2VQbHVnaW5TdGF0ZTwva2V5PgoJPGRhdGE+CglVSEpXU3hZQUFBSllSbFJROGhzQUFBb0FBQUF5TURJeEx6
        QXlMekkxSFFBQUFGQnBZVzV2ZEdWeElGTlVRVWRGSURVdQoJT0M0eEx6SXdNVFl4TVRJMVNKaG1IZ0dEN2tCZVBpc2kwb3l1SldSc2JHR3JHd0FBZEdSMFRYSUdBQUFS
        QUFBQVJEUWcKCVJHRnBiSGtnVUhKaFkzUnBZMlVBQUFBQUdnQUFBRU52Y0hseWFXZG9kQ0FvWXlrZ01qQXhOaUJOYjJSaGNuUjBod0FBCglBRlJvYVhNZ2NISmxjMlYw
        SUc5bVptVnljeUJoSUdOc1pXRnVJSE52ZFc1a0xDQjViM1VnYldGNUlHeHBhMlVnZEc4ZwoJZFhObElHbDBJR1p2Y2lCNWIzVnlJR1JoYVd4NUlIQnlZV04wYVdObExp
        QkJiSE52SUdFZ1oyOXZaQ0J6ZEdGeWRHbHUKCVp5QndiMmx1ZENCbWIzSWdjSEpsY0dGeWFXNW5JRzVsZHlCd2NtVnpaWFJ6TGdBQUFBQkdBQUFBRVFBQUFFUTBJRVJo
        CglhV3g1SUZCeVlXTjBhV05sQUFBQUFJc0ZBQUJIVWxWVkFBQUFCZ0FBQUFFRHdFMVVjbXNBQUFWMUFQOENEeUJRYVdWMAoJSUVSbElGSnBaR1JsY2dDUUtpbDRnQ3BW
        QnBBckpJTXhnQ3NOYUpBa0tvSUhnQ1FjTXBBM0xZRUpnRGRQZ21hUVBER0IKCVRvQThSVmFRS3lvRlB6dUJUSUEvYkZhUVF5OHFOeUNCR0lCRFVnUTNLMG9ySllFUmtE
        ODBDQ1VsY29BL1d6MGxUVktRCglRaXNJSmlLQk9vQkNTb0Vza0RraGdoU0FPVXFCSUNZYk5KQStNSU5NTFVLQklvQXRTb0pDa0RJOWdWZUFNanRDa0NzeQoJUW9BK2JJ
        TWxrREl0Z2h3dlBDQ0FLMmtLTWkxOUwwOUZrRHBQQ2pWS2dWV0FPbU1ia0RzK0NZQTFJb0ltTzBBRWtEdzQKCWdTdUFQR2xIa0VGQkZESTVnU0tBTW1aWWtEaFFnazBr
        U29KWGdEaGdnU2FRTno0R1AwODNnRUZGZ3hZa0NTaVFNRUdCCgljb0EzUUI2UUswRXFnREEyWno5ZGZKQXdPRktBS3dVY01GS0JBSkFrVUlFZ2dDUmpiWkE4UllGd2dE
        eG1CNUEvTVlJSgoJUVZrR2dEOXlGSkF3UW9GZ2dFRnZlVEFGZnBCQ1pvRTVnRUpTTHBCRFZGSXdMWGVBUTJrNmtFUlBnUjZBTUU4MVJHazUKCWtFVkdCQ1l4aEJJd0xp
        aUFKbStCYVpCRFZTK0FSVnVDUWpBMFlaQkVXZ3lBUTAwQWtDMUJCVEEyZ1IyQU1GMEFSR3hWCglrRVZlRWpBZGdSYUFNR0F0UldrdGtFWmJDU28zVUlBdE5CeEdZelFx
        WUZTUVIwd05LekdCZUlCSExRbVFRU0NCY0lCQgoJV3gyUVFpcUJTSUJDV3drckdVeVFRMVVJTWthQk1ZQXlZQ1ZEYklGMmtFdHRnUXlBUzJPQ1paQXZQUTFLWG9FemdF
        cEYKCVd5OXBCcEJJUEFRd09ZRnVnRWhwTURBOWdUYVFKQytCUTRBa0oyZVFRMk9CU0lCRFJZSXBrRUpWQ2pCVmNvQkNab0VFCglrRU5GYW9Bd0lZRUVrQ3N0RWtaRklZ
        QkRZNEVtUm1rQ0swVTNrQ2hLQlVoYmdnbUFTR01aa0VaQ0hZQW9Tb0VMUmppQwoJUHBBMFRRQTZSd0JBVHpraU5JRlpnRHBzV2pSc1JVQnNQU0l5R0pBb1JvRjdMbEJQ
        Z0Noc2dTT1FQVitCTklBOVd3a3UKCVprV1FQa1VMS1VXQllZQStZQ1NRUEM2QlY0QThWWUZrS1VkSWtEaExIREEyZ3grQU9Hd2hrRGRaZ1JxQU1Ha3lOMXN1CglrRFZR
        Q3l4VWdTeUFMRmd2TldBTmtEZEdFREE5Z1UrQU4yQUlNRW9va0NaUEFqaEZnUytBT0c5WGtEa3ZnZ1E4TENDQQoJT1J4SkpsV0JKNUEvU3dpQVBHa1BrREJRZ1N1QU1F
        VXVrRUpnRWpBSkQ0QS9hV3hDYnpzd1NqcVFSV2d0TUJKamdFVnMKCUVqQm1WNUJFVmlZcVJvRllRMUF6Z0VSTklFTmpIeXBtZ1FXUVFrb1RLMEtCSG9CQ2FWQ1FRem1C
        TllCRFlFYVFSRTkvCglnRVJwUml0WVRwQkZhQVl2VTRGL2dFVnNTQzgyZ1JtUU1sb0FSbWVCTzRCR2JDdVFSMHc4Z0RJWWdVS1FMMHFCTDRBdgoJWFFSSFl6MlFTRnNI
        TUdhQlg0QkliQTB3V3hLUVMyOGJNMmhRZ0V0c2dRY3pXNEZTa0VoVkFEQmtnUUdBU0dCbE1FSW8KCWtFTnBFU3RNZ1NDQVEyQTdLMlpRa0NjNEJEOUZnVGVBSnowTlAy
        YUJOWkJEVmdBcmE0RWdnRU5qYnBBblN3SS9QQldBCglLMVY5UDBjZUoyWk9rQ1pOQWo0OGdUT0FQaTA3a0NvNEFFSkFib0FtVWhSQ1BTVXFXMVNRUldRVExWVUFMeFNC
        QjRCRgoJYVVZdmJCUXRab0Yva0N4cUJFUnFnVU9BUkdrdExHbUJYSkFxWVFkQ1o0RXhnRUpzSVNwdk01QXJXZ0pEVm9FeGdDdHYKCUUwTm1naHFRUm1FRVFWOEVLMWc1
        UjE4YWdFWnljMEZtUFN0VkgwZGdnVk9RTW1jSlNtb0NRV21DRDRCQkowZ3lRaFZLCglZNFFia0RBNmdYQXpQaVdBTUFDQmNKQTNLNEVjZ0RjQUx6TUFIWkE4VTRGL2dE
        d0FDcEEvVTRGc1ExSVFnRDhBZ1VKRAoJQUI2UVNFcUJFWUJJQUhxUVN6dUNISUJMQUFPUVQxQ0JWSUJQQUlKUGtGQmpDQ3RjQjBwaUFqZGtCRk5nZ1ZDQVNnQVIKCVVB
        QUFVd0JqTndBQ0t3Q0NWWkFrWndJd1pBaFBZZ05JVndSVVl4SkxYd0FyWUFWUlhJRUxnQ3NBRTFRQUJDUUFDMUVBCglKMHNBTVRBQUVVOEFnUTBrUUFBclFBQXdRQUF6
        UUFBM1FBQThRQUEvUUFCRFFBQklRQUJLUUFCTFFBQlBRQUJRUUFCUgoJUUFCVFFBQlVRQUQvTHdCUWNuTlZLUlVBQUMwQUFBQUNBQUFBWkRRQUFBQUFDQUFBQUVkeVlX
        NWtJRVEwQUFBQUFBTUEKCUFBQURBQUFBQUFDb1FRQUFjRUlBQU5oQ0F3QUFBQUFBQUFBQUFBQUFBQUFBQUFBQUFBQURBQUFBQVFBQUFBQUFBQUFBCglBQUFBQXdBQUFB
        QUFBQUFBQUFBQUFBQUFBQU1BQUFBQUFBQUFBQUFBQUFBQUFBQURBQUFBQVFBQUFBRUFBQUFCQUFBQQoJQUFBQVFBQUFBQUFCQUFBQUFBQUFBTngvSWo0REFBQUFDZ0FB
        QUFBQXFFRUFBT2hCQUFBWVFnQUFJRUlBQUNSQ0FBQXMKCVFnQUFZRUlBQUpKQ0FBQ1VRZ0FBdGtJS0FBQUFZYVpKUHdqU1RqOEp6R2svZVB4Y1AxbERWRDh6RG1BL0hR
        aUFQNDgrCglzeitQUHJNL2p6NnpQd0FBQUFBQUFMWkNBQUFBQUFNQUFBQUJBQUFBQUFCd1FnRUFBQUFBQUFBQUFBQUFBQUFBQUFBQQoJQU1qQ0FBQUFBQUVBQUFBQUFB
        QUFBQUFBQUFBQW9NQUFBS0JBQUFBQUFBTUFBQUFDQUFBQUFBQ29RUUFBMkVJQ0FBQUEKCUFBQUFBQUFBQUFBQUFBQUFBd0FBQUFJQUFBQUFBS2hCQUFEWVFnSUFBQUFB
        QUlBL0FBQ0FQd0FBQUFDQUFBQUFBQUFBCglBTklFQUFBQUFJQS9Bd0FBQUFFQUFBQUFBSEJDQVFBQUFBQUFBQUFBQUFBQUF3QUFBR2tBQUFBQUFCQkJBQUFnUVFBQQoJ
        TUVFQUFFQkJBQUJRUVFBQVlFRUFBSEJCQUFDQVFRQUFpRUVBQUpCQkFBQ1lRUUFBb0VFQUFLaEJBQUN3UVFBQXVFRUEKCUFNQkJBQURJUVFBQTBFRUFBTmhCQUFEZ1FR
        QUE2RUVBQVBCQkFBRDRRUUFBQUVJQUFBUkNBQUFJUWdBQURFSUFBQkJDCglBQUFVUWdBQUdFSUFBQnhDQUFBZ1FnQUFKRUlBQUNoQ0FBQXNRZ0FBTUVJQUFEUkNBQUE0
        UWdBQVBFSUFBRUJDQUFCRQoJUWdBQVNFSUFBRXhDQUFCUVFnQUFWRUlBQUZoQ0FBQmNRZ0FBWUVJQUFHUkNBQUJvUWdBQWJFSUFBSEJDQUFCMFFnQUEKCWVFSUFBSHhD
        QUFDQVFnQUFna0lBQUlSQ0FBQ0dRZ0FBaUVJQUFJcENBQUNNUWdBQWprSUFBSkJDQUFDU1FnQUFsRUlBCglBSlpDQUFDWVFnQUFta0lBQUp4Q0FBQ2VRZ0FBb0VJQUFL
        SkNBQUNrUWdBQXBrSUFBS2hDQUFDcVFnQUFyRUlBQUs1QwoJQUFDd1FnQUFza0lBQUxSQ0FBQzJRZ0FBdUVJQUFMcENBQUM4UWdBQXZrSUFBTUJDQUFEQ1FnQUF4RUlB
        QU1aQ0FBREkKCVFnQUF5a0lBQU14Q0FBRE9RZ0FBMEVJQUFOSkNBQURVUWdBQTFrSUFBTmhDQUFEYVFnQUEzRUlBQU41Q0FBRGdRZ0FBCgk0a0pwQUFBQUFBQUF3QUFB
        Z0w4QUFFREFBQUJBd0FBQVFFQUFBQUJBQUFEQVFBQUFnRDhBQUlBL0FBREFRQUFBUUVBQQoJQUlCQUFBQUF3QUFBUU1BQUFJQkFBQUNBUUFBQW9FQUFBTUJBQUFDQVFB
        QUFBSUFBQUlBL0FBQUF3QUFBZ0Q4QUFFREEKCUFBQkF3QUFBUUVBQUFJQkFBQUNnUUFBQW9FQUFBRURBQUFDZ1FBQUFBSUFBQUFCQUFBQkF3QUFBb0VBQUFLQkFBQUJB
        CglRQUFBZ0VBQUFBQkFBQUFBd0FBQWdEOEFBSUJBQUFBQVFBQUFvRUFBQUVCQUFBQkF3QUFBQUlBQUFJQkFBQUJBd0FBQQoJQUlBQUFJQS9BQUNBdndBQVFNQUFBS0JB
        QUFCQXdBQUFBTUFBQUFDQUFBQUFnQUFBb0VBQUFFREFBQUFBd0FBQWdMOEEKCUFFREFBQUJBd0FBQW9FQUFBQURBQUFCQXdBQUFRTUFBQUlCQUFBQ0FQd0FBUU1BQUFJ
        QkFBQUFBQUFBQWdFQUFBSUMvCglBQUFBUUFBQW9FQUFBRURBQUFDQXZ3QUFBTUFBQU1CQUFBQ2dRQUFBUU1BQUFFREFBQUFBd0FBQWdEOEFBRURBQUFCQQoJd0FBQWdM
        OEFBSUMvQUFEQVFBQUFnRUFBQUVEQUFBQUFBQUFBQUFBQUFJQS9BQUJBd0FBQUFNQUFBTUJBQUFCQXdBQUEKCXdFQUFBRURBQUFCQXdBQUFRTUFBQUFCQUFBQUFBQU1B
        QUFBQ0FBQUFBQUNvUVFBQTJFSUNBQUFBQUFDQVB3QUFnRDhBCglBQUFBQUFEY1F3QUFBQUFCQUFBQUFBQUFBQWNBQUFCRVpXWmhkV3gwREFBQUFBQUF5RUlBQUVoREFB
        Q1dRd0FBeUVNQQoJQVBwREFBQVdSQUFBTDBRQUFFaEVBQUJoUkFBQWVrUUFnSWxFQUFDV1JBSUFBQUFBQU54RFBBQUFBRVVBQUFBQUFBQUEKCUFBQUFBQWNBQUFCRVpX
        WmhkV3gwQUFBQUFBQUFBQUFEQUFBQUJBQUFBQUFBd0VFQUFCQkNBQUJBUWdBQTJFSUVBQUFBCglBQUNnd0FBQWdMOEFBQUFBQUFBQUFBQUFBQUFBQUFBQUFBQUFBQUFB
        Z0Q4QUFJQS9Bd0FBQUFJQUFBQUFBS2hCQUFEWQoJUWdJQUFBQUFBSUEvQUFDQVB3QUFBQUFEQUFBQUFnQUFBQUFBcUVFQUFOaENBZ0FBQUFBQWdEOEFBSUEvQUFBQUFB
        QUEKCUFBQURBQUFBQVFBQUFBQUFjRUlCQUFBQUFBQUFBQUFBQUFBQUFJQS9Bd0FBQUFFQUFBQUFBSEJDQVFBQUFBQUFBQUFBCglBQUFBQVFBQUFBQUFBQUFBQUFBQXpj
        ek12YzNNekQwQkFBQUFBQUFBQUFBQUFBQUFBQUMvQUFBQVB3QUFnRDhEQUFBQQoJQXdBQUFBQUFxRUVBQUhCQ0FBRFlRZ01BQUFBQUFJQS9BQUNBUHdBQWdEOEFBQUFB
        QUFBQUFBTUFBQUFDQUFBQUFBQ28KCVFRQUEyRUlDQUFBQUFBQUFBQUFBQUFBQUFBQUFBQUNBUHdNQUFBQUNBQUFBQUFDb1FRQUEyRUlDQUFBQUFBQ0FQd0FBCglnRDhB
        QUFBQUFBQWdRZ01BQUFBSEFBQUFBQUNvUVFBQWtFSUFBS2hDQUFDMFFnQUF3RUlBQU1oQ0FBRFlRZ2NBQUFBQQoJQUFBQUFBQUFBQUFBUUVBQUFNQkFBQUFRUVFBQUlF
        RUFBREJCQUFBQUFBQUFnRDhEQUFBQUF3QUFBQUFBcUVFQUFIQkMKCUFBRFlRZ01BQUFBQUFJQS9BQUNBUHdBQWdEOEFBQUFBQXdBQUFBQUFBQUFCQUFBQUFBQUFBQUFB
        QUFBQkFBQUFBd0FBCglBQUlBQUFBQUFBQUFBQUNBUHdJQUFBQUFBQUFBQUFDQVB3QUFBQUFEQUFBQUFnQUFBQUFBQUFBQUFJQS9BZ0FBQUFBQQoJZ0Q4QUFJQS9BQUFB
        QUFNQUFBQUVBQUFBQUFBQUFDYVRTVDcrZmo4L0FBQ0FQd1FBQUFBQUFBQUFBQUFBQUFBQWdEOEEKCUFJQS9BQUFBQUFNQUFBQUNBQUFBQUFBQUFBQUFnRDhDQUFBQUFB
        QUFBQUFBQUFBQUFBQUF6Y3dzUUFNQUFBQUNBQUFBCglBQUNvUVFBQTJFSUNBQUFBQUFDQVB3QUFnRDhBQUFBQUFBQ0F2d0FBQUQ4REFBQUFBZ0FBQUFBQXdFRUFBTUJD
        QWdBQQoJQUFBQWdEOEFBSUEvQUFBQUFBRUFBQUFBQUFBQUFRQUFBQW9BQUFCVGJXRnNiQ0JJWVd4c0N3QUFBRzFsWkdsMWJXaGgKCWJHd3hBQUFBQUFBQW9FRUFBSUEv
        Wm1abVB3QUFBQUJDWUdVOUFBQUFBQUFBQUFBQUFBQUFBQUNxUXdBQWdEOEFBSUEvCglCUUFBQUFBQWdEOEFBSUEvQXdBQUFGMEFBQUFBQUtoQkFBQ3dRUUFBdUVFQUFN
        QkJBQURJUVFBQTBFRUFBTmhCQUFEZwoJUVFBQTZFRUFBUEJCQUFENFFRQUFBRUlBQUFSQ0FBQUlRZ0FBREVJQUFCQkNBQUFVUWdBQUdFSUFBQnhDQUFBZ1FnQUEKCUpF
        SUFBQ2hDQUFBc1FnQUFNRUlBQURSQ0FBQTRRZ0FBUEVJQUFFQkNBQUJFUWdBQVNFSUFBRXhDQUFCUVFnQUFWRUlBCglBRmhDQUFCY1FnQUFZRUlBQUdSQ0FBQm9RZ0FB
        YkVJQUFIQkNBQUIwUWdBQWVFSUFBSHhDQUFDQVFnQUFna0lBQUlSQwoJQUFDR1FnQUFpRUlBQUlwQ0FBQ01RZ0FBamtJQUFKQkNBQUNTUWdBQWxFSUFBSlpDQUFDWVFn
        QUFta0lBQUp4Q0FBQ2UKCVFnQUFvRUlBQUtKQ0FBQ2tRZ0FBcGtJQUFLaENBQUNxUWdBQXJFSUFBSzVDQUFDd1FnQUFza0lBQUxSQ0FBQzJRZ0FBCgl1RUlBQUxwQ0FB
        QzhRZ0FBdmtJQUFNQkNBQURDUWdBQXhFSUFBTVpDQUFESVFnQUF5a0lBQU14Q0FBRE9RZ0FBMEVJQQoJQU5KQ0FBRFVRZ0FBMWtJQUFOaENBQURhUWdBQTNFSUFBTjVD
        QUFEZ1FnQUE0a0pkQUFBQUFBQ0FQd0FBZ0Q4QUFJQS8KCUFBQ0FQd0FBZ0Q4QUFJQS9BQUNBUHdBQWdEOXhQWW8vaGV1UlAvWW9uRC9zVVpnL2o4S1ZQM0U5aWorYW1a
        ay9qOEtWCglQM3NVamorUHdwVS9tcG1aUDdnZXBUL056SXcvQ3RlalAxSzRuaithbVprLzE2T1FQOWVqa0QrNEhxVS9LVnlQUCtGNgoJbEQ4OUNwYy9leFNPUDQvQ2xU
        OUk0Wm8vZXhTdVA2NUhvVDhBQUlBL0tWeVBQMUs0bmo4QUFJQS80WHFVUDF5UG9qL3MKCVVaZy9YSStpUHgrRnF6K2tjSjAvTXpPelAzc1Vyait1UjZFL1NPR2FQM0U5
        aWo5Y2o2SS93L1dJUCt4Um1EL056SXcvCglGSzZIUHgrRml6L3NVWmcvVXJpZVAzc1Vqait1UjZFL0tWeVBQNXFabVQ5Y2o2SS9DdGVqUDJabXBqK2tjSjAvTXpPVAoJ
        UDQvQ3RUOVN1SjQvbXBtWlA1cVp1VCs0SHFVL0FBQ2dQODNNckQrYW1iay9wSENkUDBqaG1qL056S3cvUFFxWFB5bGMKCWp6L0Q5YWcvUFFxWFA2UnduVCthbVprL2NU
        MnFQMGpobWo5U3VKNC9VcmllUDBqaG1qOTdGSzQvNFhxVVAvWW9uRCtrCgljSjAvQUFBQUFBTUFBQUFEQUFBQUFBQ29RUUFBY0VJQUFOaENBd0FBQUFBQWdEOEFBSUEv
        QUFDQVB3QUFBQUFBQUFBQQoJQXdBQUFGMEFBQUFBQUtoQkFBQ3dRUUFBdUVFQUFNQkJBQURJUVFBQTBFRUFBTmhCQUFEZ1FRQUE2RUVBQVBCQkFBRDQKCVFRQUFBRUlB
        QUFSQ0FBQUlRZ0FBREVJQUFCQkNBQUFVUWdBQUdFSUFBQnhDQUFBZ1FnQUFKRUlBQUNoQ0FBQXNRZ0FBCglNRUlBQURSQ0FBQTRRZ0FBUEVJQUFFQkNBQUJFUWdBQVNF
        SUFBRXhDQUFCUVFnQUFWRUlBQUZoQ0FBQmNRZ0FBWUVJQQoJQUdSQ0FBQm9RZ0FBYkVJQUFIQkNBQUIwUWdBQWVFSUFBSHhDQUFDQVFnQUFna0lBQUlSQ0FBQ0dRZ0FB
        aUVJQUFJcEMKCUFBQ01RZ0FBamtJQUFKQkNBQUNTUWdBQWxFSUFBSlpDQUFDWVFnQUFta0lBQUp4Q0FBQ2VRZ0FBb0VJQUFLSkNBQUNrCglRZ0FBcGtJQUFLaENBQUNx
        UWdBQXJFSUFBSzVDQUFDd1FnQUFza0lBQUxSQ0FBQzJRZ0FBdUVJQUFMcENBQUM4UWdBQQoJdmtJQUFNQkNBQURDUWdBQXhFSUFBTVpDQUFESVFnQUF5a0lBQU14Q0FB
        RE9RZ0FBMEVJQUFOSkNBQURVUWdBQTFrSUEKCUFOaENBQURhUWdBQTNFSUFBTjVDQUFEZ1FnQUE0a0pkQUFBQUFBQUFBQUFBQUFBQUFBQUFBQUFBQUFBQUFBQUFBQUFB
        CglBQUFBQUFBQUFBQXhtdVc4U09GSXZSZFZCNzFBR1dFODBFSjR2Vi9ZU1Qyd05rbTkzam5pdWRoVnFyMHV1R3U5T0NFVAoJT3RkamdMd1cyNFM5UkZJRlBhaUpqenlD
        bDdDNjdyeXFQWkxpdGIyMThibzkybXhKUFVNdm9UM2tGcXU3dlFodnZRUi8KCW9MM1gzSzI5MnhXZFBZZURRejI4QlpXOU1qWEdQTmw3c2IxUjRhNjhqSXp5UEhUL3dU
        MWI1amE3Wm1LUHVoQXB1ajNjCglaN005SUM2YVBhVzBFcjNPMzRXOGpjbTJQRkpIcUR4S05MbzljdVJudmJrYWdEMy9OYTI5MUdXZFBZa2RYVHcyamxzOQoJcmx5UXZU
        cnBYYjFnWUtFOGZJZEdQUkZuQ2oyT1dRTTlHL3pXTzhiVXNieFhHSHM5QVJobHZSMTh3and6bWlTOVR6QlMKCXZVbHZPcjMzVGs0OWJOTzJQY20ySjcwVlM2VTlQVjZk
        UFVVdGVyMCtwSGc5bGVYZnZCM2hsN3dsd1l3OWZrclpPV2IzCgl4ejFhV1NFOWxVdk9QQU1QbkwzYW1tdTliTUdTUFNnejhEd2x2N085N2FOZlBVYjhqajJ3K1VDOUFB
        QUFBQU1BQUFBQQoJQUlBL0FBQ0FQd0FBZ0Q4REFBQUFBd0FBQUFBQXFFRUFBSEJDQUFEWVFnTUFBQUFBQUlBL0FBQ0FQd0FBZ0Q4QUFBQUEKCUF3QUFBQU1BQUFBQUFL
        aEJBQUJ3UWdBQTJFSURBQUFBQUFDQVB3QUFnRDhBQUlBL0FBQUFBQU1BQUFBREFBQUFBQUNvCglRUUFBY0VJQUFOaENBd0FBQUFBQWdEOEFBSUEvQUFDQVB3QUFBQUFB
        QUlBL0FBQ0FQd1lBQUFBQUFJQS9tcG1aUHMzTQoJVEQvTnpNdy9tcG1aUGdnQUFBQUFBQUFBQUFBQUFBQUFBQUFBQUFBQUFBQUFBQUFBQUFBQUFBQUFBQUFBQUFNQUFB
        QUQKCUFBQUFBQUNvUVFBQWNFSUFBTmhDQXdBQUFBQUFnRDhBQUlBL0FBQ0FQd0FBQUFBREFBQUFBd0FBQUFBQXFFRUFBSEJDCglBQURZUWdNQUFBQUFBSUEvQUFDQVB3
        QUFnRDhBQUFBQUF3QUFBQU1BQUFBQUFLaEJBQUJ3UWdBQTJFSURBQUFBQUFDQQoJUHdBQWdEOEFBSUEvQUFBQUFBTUFBQUFEQUFBQUFBQ29RUUFBY0VJQUFOaENBd0FB
        QUFBQWdEOEFBSUEvQUFDQVB3QUEKCUFBQUJBQUFBQVFBQUFBQUFjRUlEQUFBQUFRQUFBQUFBQUFBQkFBQUFBQUFBQUFBQUFBQk9JOWc5QXdBQUFCWUFBQUFBCglBQkJC
        QUFDb1FRQUF3RUVBQU9CQkFBRG9RUUFBQUVJQUFBaENBQUFZUWdBQUpFSUFBREJDQUFCQVFnQUFURUlBQUdCQwoJQUFCd1FnQUFnRUlBQUloQ0FBQ1FRZ0FBbUVJQUFL
        QkNBQUNvUWdBQXdFSUFBTmhDRmdBQUFIaDBKRC9wNVk4L0RHR1MKCVAzanlsRDlOZzVRL1RZT1VQMDJEbEQ5Tmc1US82b3FSUDAyRGxEOU5nNVEvNm9xUlAxbXdqai9x
        aXBFL1diQ09QMW13Cglqajlac0k0LzU0UmNQK2VFWEQ5K0pFby8ya010UHpHUzhqNEFBQUFBQVFBQUFBQUFBQUFCQUFBQU16TXpQMlptcGo4QgoJQUFBQUFRQUFBQUVB
        QUFCbVptWS96Y3lNUHdFQUFBQUFBQUFBQUFEd1FnQUFBQUFPQUFBQUFBQUFQODNNekQzTnpFdysKCUFBQUFQd1FBQUFBQ0FBQUFBd0FBQUFRQUFBQUJBQUFBQWdBQUFB
        Y0FBQUFBQUFBQUFBQUFBQTRBQUFBUUFBQUFBQUFBCglBTTNNekQwQUFJQS9BQUFBQUFBQUFMOEFBSEJDQUFBQUFBQUFBQUFBQUFBQUFBQUFBQUFBQUFBQUFBQUFBQUFB
        QUFBQQoJQUFBQUFBQUFBQUFBQUFJQUFBQUFBQUFBQUFBQUFBQUFBQUFPQUFBQUVBQUFBQUFBQUFBQUFBQUFBQUFBQUFBQUFBQUEKCUFBQUFBQUFBQUFBQUFBQUFBQUFB
        QUFBQUFBQUFBQUFBQUFBQUFBQUFBQUFBQUFBQUFBQUFBQUFBQUFBQUFBQUNBQUFBCglBQUFBQUFBQUFBQUFBQUFBRGdBQUFCQUFBQUFBQUFBQUFBQUFBQUFBQUFBQUFB
        QUFBQUFBQUFBQUFBQUFBQUFBQUFBQQoJQUFBQUFBQUFBQUFBQUFBQUFBQUFBQUFBQUFBQUFBQUFBQUFBQUFBQUFBQUFBUUFBQUFFQUFBQUFBSUEvQUFCQXdRQUEKCUFB
        QUNBQUFBQXdBQUFBRUFBQUFGQUFBQUJBQUFBQUVBQUFBREFBQUFBQURBUHdBQW9EOEFBTUEvQUFCaHd4eHVnY0FBCglBQUFBQlFBQUFBQUFBQUFBQUJEQkFBREF3Z0FB
        d01JQUFNRENCUUFBQUFBQUFBQ1B3dlU4QUFBQUFBQUFBQUFBQUFBQQoJQlFBQUFBQUFBQUFBQUFBQUFBQUFBQUFBQUFBQUFBQUFBUUFBQUFBQUFBQUVBQUFBQVFBQUFB
        TUFBQUFBQU1BL0FBQkEKCVB3QUF3RDhBQURSQ0hHNkJ3QUFBQUFBRkFBQUFBQUFRd1FBQUFBQUFBTURDQUFEQXdnQUF3TUlGQUFBQUN0Y2pQYWFiCgl4RG9BQUFBQUFB
        QUFBQUFBQUFBRkFBQUFBQUFBQUFBQUFBQUFBQUFBQUFBQUFBQUFBQUFCQUFBQUFBQUFBQVFBQUFBQQoJQUFBQUF3QUFBSS9DOVQ4OUNsZS9INFZyUHdBQXRFSUFBQUFB
        QUFBQUFBVUFBQUFBQUVEQkFBQkF3UUFBY01JQUFIREMKCUFBQnd3Z1VBQUFBQUFBQUFBQUFBQUFBQUFBQUFBQUFBQUFBQUFBVUFBQUFBQUFBQUFBQUFBQUFBQUFBQUFB
        QUFBQUFBCglBQUVBQUFBQUFBQUFCQUFBQUFBQUFBQURBQUFBTXpNenYxeVB3ajZ1UjJFL0FBQUFBQUFBQUFBQUFBQUFCUUFBQUFBQQoJUU1FQUFFREJBQUJ3d2dBQWNN
        SUFBSERDQlFBQUFBQUFBQUFBQUFBQUFBQUFBQUFBQUFBQUFBQUFCUUFBQUFBQUFBQUEKCUFBQUFBQUFBQUFBQUFBQUFBQUFBQVFBQUFBQUFBQUFFQUFBQUFBQUFBQU1B
        QUFDNEhzVS9QUXBYUDY1SDRUOEFBQUFBCglBQUFBQUFBQUFBQUZBQUFBQUFCQXdRQUFRTUVBQUhEQ0FBQnd3Z0FBY01JRkFBQUFBQUFBQUFBQUFBQUFBQUFBQUFBQQoJ
        QUFBQUFBQUZBQUFBQUFBQUFBQUFBQUFBQUFBQUFBQUFBQUFBQUFBQkFBQUFBQUFBQUFFQUFBQUFBQUFBQVFBQUFBTUEKCUFBQXpNek0vQUFBQUFHWm1wajhBQUpCQkFB
        QUFBQUFBQUFBQUFBQUEKCTwvZGF0YT4KCTxrZXk+bWFudWZhY3R1cmVyPC9rZXk+Cgk8aW50ZWdlcj4xMjk4NDI4NTMyPC9pbnRlZ2VyPgoJPGtleT5uYW1lPC9rZXk+
        Cgk8c3RyaW5nPlVudGl0bGVkPC9zdHJpbmc+Cgk8a2V5PnN1YnR5cGU8L2tleT4KCTxpbnRlZ2VyPjEzNDk3OTMxMzM8L2ludGVnZXI+Cgk8a2V5PnR5cGU8L2tleT4K
        CTxpbnRlZ2VyPjE2MzUwODU2ODU8L2ludGVnZXI+Cgk8a2V5PnZlcnNpb248L2tleT4KCTxpbnRlZ2VyPjA8L2ludGVnZXI+CjwvZGljdD4KPC9wbGlzdD4KAQAAAAAA
        AAAAAA==
      >
      FLOATPOS 0 0 0 0
      FXID {D822AD00-6225-764F-AEF7-C61391C9D38C}
      WAK 0 0
      BYPASS 0 0 0
      <VST "VST: ReaEQ (Cockos)" reaeq.vst.dylib 0 "" 1919247729<56535472656571726561657100000000> ""
        cWVlcu5e7f4CAAAAAQAAAAAAAAACAAAAAAAAAAIAAAABAAAAAAAAAAIAAAAAAAAAqAAAAAEAAAAAABAA
        IQAAAAQAAAAAAAAAAQAAAAAn4P3uJlVA/4lNFo363j8AAAAAAAAAQAEIAAAAAQAAAAAAAAAAwHJAAAAAAAAA8D8AAAAAAAAAQAEIAAAAAQAAAEos3gIjQIlA/v//////
        7z8AAAAAAAAAQAEBAAAAAQAAAEF/W4DmvZtA/8x5kMDFzj8Af2q8dJP4PwEBAAAAAQAAAAAAAAAAAPA/AAAAAFQCAABwAQAA
        AAAQAAAA
      >
      FLOATPOS 1259 633 596 422
      FXID {58944DC0-AD1F-5C45-AF2C-CA5D5A6F2F91}
      WAK 0 0
    >
    <ITEM
      POSITION 0
      SNAPOFFS 0
      LENGTH 127.83305208333333
      LOOP 1
      ALLTAKES 0
      FADEIN 1 0 0 1 0 0 0
      FADEOUT 1 0 0 1 0 0 0
      MUTE 0 0
      SEL 0
      IGUID {2D569628-C3A1-C34E-8F1C-1AA57FE8BF18}
      IID 25
      NAME "04-Piano-Recorded MIDI"
      VOLPAN 1 0 1 -1
      SOFFS 0 0
      PLAYRATE 1 1 0 -1 0 0.0025
      CHANMODE 0
      GUID {08394EAD-EE12-4A4A-AC7D-F22270921BD9}
      RECPASS 9
      <SOURCE MIDI
        HASDATA 1 960 QN
        CCINTERP 32
        POOLEDEVTS {E19A3A2C-1FCA-F54E-B81D-9B3468309966}
        E 2920 b0 40 7f
        E 855 90 26 42
        E 153 80 26 00
        E 93 90 32 3f
        E 170 80 32 00
        E 51 90 26 40
        E 173 80 26 00
        E 79 90 32 3f
        E 184 80 32 00
        E 46 90 26 47
        E 179 80 26 00
        E 52 90 32 3c
        E 213 80 32 00
        E 42 90 26 45
        E 188 80 26 00
        E 60 90 32 42
        E 216 80 32 00
        E 32 90 26 47
        E 190 80 26 00
        E 54 90 32 44
        E 196 80 32 00
        E 29 90 26 47
        E 186 80 26 00
        E 52 90 32 41
        E 210 80 32 00
        E 25 90 26 46
        E 198 80 26 00
        E 48 90 32 45
        E 211 80 32 00
        E 26 90 26 44
        E 196 80 26 00
        E 74 90 32 3f
        E 201 80 32 00
        E 20 90 26 48
        E 196 80 26 00
        E 50 90 32 42
        E 199 80 32 00
        E 31 90 26 45
        E 194 80 26 00
        E 40 90 32 40
        E 221 80 32 00
        E 17 90 26 48
        E 190 80 26 00
        E 60 90 32 3e
        E 225 80 32 00
        E 14 90 26 45
        E 211 80 26 00
        E 43 90 32 44
        E 199 80 32 00
        E 36 90 26 48
        E 199 80 26 00
        E 50 90 32 44
        E 214 80 32 00
        E 22 90 26 48
        E 225 80 26 00
        E 36 90 32 47
        E 218 80 32 00
        E 12 90 26 4c
        E 191 80 26 00
        E 40 90 32 45
        E 221 80 32 00
        E 8 90 26 4a
        E 189 80 26 00
        E 51 90 32 46
        E 225 80 32 00
        E 12 90 26 4c
        E 26 90 3e 47
        E 171 80 26 00
        E 39 80 3e 00
        E 3 90 32 42
        E 12 90 40 40
        E 207 80 32 00
        E 15 90 26 4b
        E 12 90 3e 40
        E 10 80 40 00
        E 173 80 26 00
        E 31 80 3e 00
        E 8 90 32 40
        E 2 90 40 42
        E 186 80 32 00
        E 32 90 26 4b
        E 21 80 40 00
        E 13 90 3e 43
        E 180 80 26 00
        E 27 80 3e 00
        E 20 90 40 2f
        E 18 90 32 39
        E 208 80 32 00
        E 18 80 40 00
        E 1 90 26 4c
        E 3 90 3e 42
        E 182 80 26 00
        E 32 80 3e 00
        E 15 90 32 3f
        E 5 90 40 39
        E 215 80 32 00
        E 31 90 26 49
        E 1 80 40 00
        E 1 90 3e 43
        E 188 80 26 00
        E 22 80 3e 00
        E 25 90 40 33
        E 9 90 32 3e
        E 213 80 32 00
        E 20 90 26 4b
        E 1 80 40 00
        E 9 90 3e 40
        E 177 80 26 00
        E 40 80 3e 00
        E 14 90 32 41
        E 9 90 40 38
        E 199 80 32 00
        E 24 90 26 4b
        E 20 90 3e 41
        E 4 80 40 00
        E 161 80 26 00
        E 28 80 3e 00
        E 30 90 40 2f
        E 18 90 32 39
        E 206 80 40 00
        E 6 80 32 00
        E 1 90 3e 40
        E 6 90 26 4b
        E 198 80 26 00
        E 18 80 3e 00
        E 20 90 40 40
        E 13 90 32 40
        E 114 80 40 00
        E 102 80 32 00
        E 9 90 40 3e
        E 2 90 26 49
        E 221 80 26 00
        E 1 90 42 41
        E 9 80 40 00
        E 36 90 32 41
        E 195 80 32 00
        E 4 80 42 00
        E 14 90 26 46
        E 12 90 40 3a
        E 185 80 26 00
        E 49 90 42 3f
        E 3 90 32 41
        E 5 80 40 00
        E 200 80 32 00
        E 21 90 26 45
        E 10 80 42 00
        E 6 90 40 35
        E 182 80 26 00
        E 50 90 32 44
        E 20 90 42 3d
        E 8 80 40 00
        E 189 80 32 00
        E 25 90 26 43
        E 5 80 42 00
        E 15 90 40 3b
        E 201 80 26 00
        E 30 90 42 41
        E 2 90 32 42
        E 1 80 40 00
        E 189 80 32 00
        E 38 90 26 47
        E 23 80 42 00
        E 4 90 40 3e
        E 170 80 26 00
        E 60 90 32 3a
        E 1 90 42 40
        E 10 80 40 00
        E 183 80 32 00
        E 26 90 26 49
        E 5 80 42 00
        E 25 90 40 33
        E 165 80 26 00
        E 44 90 42 42
        E 7 80 40 00
        E 13 90 32 3f
        E 177 80 42 00
        E 13 80 32 00
        E 23 90 26 49
        E 0 90 40 32
        E 166 80 26 00
        E 65 90 32 3e
        E 22 90 42 41
        E 4 80 40 00
        E 190 80 32 00
        E 31 80 42 00
        E 7 90 26 4a
        E 21 90 40 2d
        E 165 80 26 00
        E 68 90 32 41
        E 2 90 42 38
        E 14 80 40 00
        E 89 80 42 00
        E 61 80 32 00
        E 61 90 26 4a
        E 12 90 42 41
        E 187 80 26 00
        E 46 90 43 40
        E 6 90 32 3e
        E 1 80 42 00
        E 47 80 43 00
        E 124 90 43 01
        E 43 80 32 00
        E 26 90 26 49
        E 10 80 43 00
        E 13 90 42 42
        E 171 80 26 00
        E 58 90 32 41
        E 8 90 43 3d
        E 13 80 42 00
        E 165 80 32 00
        E 38 90 26 49
        E 23 80 43 00
        E 6 90 42 43
        E 166 80 26 00
        E 46 90 32 3f
        E 20 80 42 00
        E 2 90 43 37
        E 192 80 32 00
        E 29 90 26 47
        E 5 80 43 00
        E 15 90 42 42
        E 171 80 26 00
        E 60 90 32 3e
        E 8 90 43 3f
        E 9 80 42 00
        E 189 80 32 00
        E 29 90 26 44
        E 19 80 43 00
        E 11 90 42 43
        E 173 80 26 00
        E 47 90 43 45
        E 5 80 42 00
        E 3 90 32 40
        E 189 80 32 00
        E 23 90 26 47
        E 8 80 43 00
        E 18 90 42 3e
        E 167 80 26 00
        E 60 90 43 3e
        E 1 90 32 3a
        E 7 80 42 00
        E 201 80 32 00
        E 27 90 26 47
        E 16 80 43 00
        E 2 90 42 41
        E 165 80 26 00
        E 67 90 32 39
        E 11 90 43 3e
        E 1 80 42 00
        E 190 80 32 00
        E 27 90 26 48
        E 32 90 42 3e
        E 1 80 43 00
        E 144 80 26 00
        E 73 90 32 38
        E 2 90 43 42
        E 9 80 42 00
        E 196 80 32 00
        E 22 90 26 47
        E 25 90 42 41
        E 2 80 43 00
        E 160 80 26 00
        E 56 90 43 3e
        E 7 80 42 00
        E 18 90 32 3e
        E 184 80 32 00
        E 20 90 26 47
        E 26 80 43 00
        E 1 90 42 44
        E 149 80 26 00
        E 69 90 32 3e
        E 13 90 43 47
        E 12 80 42 00
        E 142 80 32 00
        E 56 90 26 43
        E 35 90 42 47
        E 1 80 43 00
        E 186 80 26 00
        E 47 90 32 40
        E 3 90 43 46
        E 3 80 42 00
        E 198 80 32 00
        E 37 90 26 45
        E 14 90 42 47
        E 4 80 43 00
        E 183 80 26 00
        E 51 90 43 49
        E 9 90 32 42
        E 7 80 42 00
        E 181 80 32 00
        E 32 90 26 48
        E 2 90 42 4a
        E 1 80 43 00
        E 202 80 26 00
        E 20 90 43 49
        E 16 80 42 00
        E 3 90 32 44
        E 194 80 32 00
        E 30 90 26 48
        E 8 90 42 4f
        E 14 80 43 00
        E 173 80 26 00
        E 48 90 43 4f
        E 6 90 32 48
        E 20 80 42 00
        E 150 80 32 00
        E 48 90 26 49
        E 26 90 42 54
        E 15 80 43 00
        E 172 80 26 00
        E 50 90 43 4e
        E 30 90 32 48
        E 3 80 42 00
        E 156 80 43 00
        E 14 90 42 4a
        E 37 80 32 00
        E 21 90 26 4b
        E 178 80 26 00
        E 15 90 43 4d
        E 20 80 42 00
        E 8 90 32 45
        E 184 80 32 00
        E 6 80 43 00
        E 43 90 26 4e
        E 8 90 3e 4a
        E 217 80 3e 00
        E 4 80 26 00
        E 11 90 40 42
        E 16 90 32 3c
        E 205 80 40 00
        E 2 80 32 00
        E 20 90 3e 40
        E 21 90 26 45
        E 190 80 3e 00
        E 10 80 26 00
        E 13 90 40 3a
        E 29 90 32 3d
        E 179 80 32 00
        E 22 80 40 00
        E 21 90 26 45
        E 8 90 3e 3a
        E 181 80 26 00
        E 17 80 3e 00
        E 25 90 40 3d
        E 30 90 32 39
        E 163 80 32 00
        E 41 90 26 42
        E 13 80 40 00
        E 10 90 3e 43
        E 183 80 26 00
        E 6 80 3e 00
        E 22 90 40 40
        E 34 90 32 37
        E 143 80 40 00
        E 20 80 32 00
        E 64 90 26 4a
        E 2 90 40 47
        E 210 80 40 00
        E 7 90 42 3f
        E 14 80 26 00
        E 20 90 32 3c
        E 177 80 42 00
        E 40 80 32 00
        E 19 90 26 48
        E 2 90 40 37
        E 185 80 26 00
        E 37 80 40 00
        E 10 90 42 41
        E 7 90 32 41
        E 200 80 32 00
        E 33 80 42 00
        E 4 90 26 4b
        E 21 90 40 3c
        E 199 80 26 00
        E 26 90 42 43
        E 14 80 40 00
        E 9 90 32 3f
        E 162 80 42 00
        E 34 80 32 00
        E 26 90 40 3d
        E 6 90 26 49
        E 191 80 26 00
        E 34 90 42 45
        E 25 80 40 00
        E 5 90 32 42
        E 82 80 42 00
        E 78 80 32 00
        E 39 90 42 46
        E 11 90 26 49
        E 181 80 26 00
        E 30 80 42 00
        E 16 90 43 40
        E 1 90 32 3c
        E 194 80 32 00
        E 12 80 43 00
        E 15 90 26 46
        E 18 90 42 47
        E 203 80 26 00
        E 18 90 43 47
        E 14 80 42 00
        E 5 90 32 44
        E 194 80 32 00
        E 35 90 26 48
        E 1 80 43 00
        E 5 90 42 48
        E 196 80 26 00
        E 23 90 43 4a
        E 13 80 42 00
        E 11 90 32 45
        E 188 80 32 00
        E 34 90 26 46
        E 13 90 42 4c
        E 1 80 43 00
        E 172 80 26 00
        E 55 90 32 45
        E 7 90 43 4a
        E 22 80 42 00
        E 187 80 32 00
        E 19 90 26 46
        E 5 90 42 49
        E 11 80 43 00
        E 172 80 26 00
        E 60 90 32 45
        E 2 90 43 46
        E 8 80 42 00
        E 187 80 32 00
        E 28 90 26 4a
        E 22 80 43 00
        E 1 90 42 49
        E 204 80 26 00
        E 28 90 43 4a
        E 13 90 32 49
        E 7 80 42 00
        E 184 80 32 00
        E 20 90 26 4e
        E 25 90 42 4f
        E 8 80 43 00
        E 170 80 26 00
        E 59 90 43 4d
        E 10 90 32 45
        E 15 80 42 00
        E 202 80 32 00
        E 19 90 26 4d
        E 1 90 42 48
        E 2 80 43 00
        E 202 80 26 00
        E 25 90 43 50
        E 21 80 42 00
        E 4 90 32 4b
        E 179 80 43 00
        E 12 80 32 00
        E 29 90 26 48
        E 20 90 3c 49
        E 198 80 3c 00
        E 3 80 26 00
        E 25 90 3e 3b
        E 18 90 32 3b
        E 178 80 32 00
        E 22 80 3e 00
        E 11 90 26 42
        E 7 90 3c 44
        E 187 80 3c 00
        E 27 80 26 00
        E 11 90 3e 37
        E 42 90 32 36
        E 168 80 3e 00
        E 1 80 32 00
        E 29 90 3c 45
        E 21 90 26 45
        E 186 80 3c 00
        E 36 90 3e 3b
        E 2 80 26 00
        E 31 90 32 3d
        E 170 80 32 00
        E 43 80 3e 00
        E 4 90 3c 49
        E 5 90 26 45
        E 192 80 3c 00
        E 2 80 26 00
        E 26 90 3e 3e
        E 28 90 32 3c
        E 198 80 3e 00
        E 15 80 32 00
        E 7 90 26 43
        E 5 90 3c 47
        E 191 80 3c 00
        E 8 80 26 00
        E 35 90 3e 3b
        E 3 90 32 38
        E 187 80 32 00
        E 44 80 3e 00
        E 2 90 26 42
        E 14 90 3c 45
        E 179 80 26 00
        E 3 80 3c 00
        E 29 90 3e 3b
        E 26 90 32 3a
        E 191 80 32 00
        E 28 80 3e 00
        E 9 90 26 45
        E 7 90 3c 47
        E 170 80 26 00
        E 6 80 3c 00
        E 59 90 3e 30
        E 9 90 32 2c
        E 186 80 32 00
        E 42 90 26 42
        E 3 80 3e 00
        E 8 90 3c 48
        E 175 80 26 00
        E 16 80 3c 00
        E 35 90 3e 34
        E 15 90 32 3b
        E 48 80 3e 00
        E 98 80 32 00
        E 77 90 26 43
        E 5 90 3e 3e
        E 202 80 26 00
        E 18 80 3e 00
        E 12 90 40 3a
        E 26 90 32 33
        E 175 80 32 00
        E 37 90 26 48
        E 3 80 40 00
        E 32 90 3e 3d
        E 171 80 26 00
        E 49 90 32 3c
        E 11 80 3e 00
        E 6 90 40 39
        E 167 80 32 00
        E 32 90 26 42
        E 26 80 40 00
        E 17 90 3e 3b
        E 159 80 26 00
        E 55 90 32 3b
        E 26 90 40 40
        E 1 80 3e 00
        E 178 80 32 00
        E 25 90 26 46
        E 28 80 40 00
        E 10 90 3e 3c
        E 158 80 26 00
        E 70 90 32 3a
        E 13 90 40 42
        E 9 80 3e 00
        E 156 80 32 00
        E 38 90 26 44
        E 18 80 40 00
        E 13 90 3e 3a
        E 181 80 26 00
        E 19 80 3e 00
        E 6 90 40 3e
        E 35 90 32 36
        E 190 80 32 00
        E 34 90 26 49
        E 5 80 40 00
        E 16 90 3e 3a
        E 172 80 26 00
        E 55 90 32 3e
        E 2 80 3e 00
        E 1 90 40 42
        E 183 80 32 00
        E 40 90 26 43
        E 10 80 40 00
        E 13 90 3e 3b
        E 168 80 26 00
        E 57 90 32 3e
        E 18 90 40 41
        E 12 80 3e 00
        E 181 80 32 00
        E 29 90 26 45
        E 21 80 40 00
        E 18 90 3e 34
        E 134 80 26 00
        E 95 90 32 38
        E 2 80 3e 00
        E 1 90 40 3a
        E 192 80 40 00
        E 8 80 32 00
        E 39 90 26 45
        E 2 90 3c 49
        E 187 80 26 00
        E 30 80 3c 00
        E 25 90 32 34
        E 10 90 3e 37
        E 168 80 32 00
        E 12 80 3e 00
        E 46 90 3c 45
        E 3 90 26 3f
        E 186 80 26 00
        E 5 80 3c 00
        E 44 90 3e 38
        E 21 90 32 2e
        E 169 80 32 00
        E 32 80 3e 00
        E 19 90 26 45
        E 8 90 3c 42
        E 164 80 3c 00
        E 13 80 26 00
        E 35 90 3e 3a
        E 18 90 32 36
        E 182 80 32 00
        E 16 80 3e 00
        E 32 90 26 42
        E 11 90 3c 42
        E 181 80 26 00
        E 9 80 3c 00
        E 36 90 3e 3c
        E 14 90 32 37
        E 171 80 32 00
        E 44 80 3e 00
        E 9 90 26 43
        E 14 90 3c 49
        E 188 80 26 00
        E 24 80 3c 00
        E 15 90 3e 41
        E 1 90 32 3c
        E 188 80 32 00
        E 47 90 26 45
        E 10 90 3c 49
        E 3 80 3e 00
        E 180 80 26 00
        E 18 80 3c 00
        E 17 90 3e 43
        E 10 90 32 42
        E 196 80 32 00
        E 33 90 26 44
        E 5 90 3c 4e
        E 8 80 3e 00
        E 201 80 26 00
        E 1 80 3c 00
        E 18 90 3e 44
        E 19 90 32 43
        E 199 80 32 00
        E 21 90 26 47
        E 4 90 3c 4f
        E 12 80 3e 00
        E 192 80 26 00
        E 10 80 3c 00
        E 18 90 3e 4c
        E 12 90 32 48
        E 111 80 3e 00
        E 82 80 32 00
        E 23 90 3e 43
        E 8 90 26 44
        E 223 80 3e 00
        E 3 90 40 38
        E 25 80 26 00
        E 25 90 32 3b
        E 184 80 32 00
        E 13 80 40 00
        E 19 90 26 3c
        E 16 90 3e 39
        E 193 80 26 00
        E 63 90 32 33
        E 1 80 3e 00
        E 1 90 40 39
        E 160 80 32 00
        E 50 90 26 37
        E 1 80 40 00
        E 26 90 3e 33
        E 161 80 26 00
        E 54 80 3e 00
        E 7 90 40 3c
        E 28 90 32 38
        E 135 80 32 00
        E 58 90 26 3e
        E 35 80 40 00
        E 18 90 3e 3b
        E 171 80 26 00
        E 59 80 3e 00
        E 4 90 40 3b
        E 8 90 32 31
        E 176 80 32 00
        E 46 90 26 42
        E 2 80 40 00
        E 17 90 3e 3a
        E 180 80 26 00
        E 48 80 3e 00
        E 5 90 40 3e
        E 19 90 32 37
        E 128 80 32 00
        E 76 90 26 3d
        E 14 80 40 00
        E 19 90 3e 2e
        E 158 80 26 00
        E 53 90 40 3e
        E 7 80 3e 00
        E 1 90 32 35
        E 184 80 32 00
        E 27 90 26 41
        E 23 80 40 00
        E 20 90 3e 32
        E 144 80 26 00
        E 61 90 40 38
        E 6 80 3e 00
        E 6 90 32 36
        E 162 80 32 00
        E 59 90 26 3f
        E 0 80 40 00
        E 42 90 3e 26
        E 153 80 26 00
        E 51 80 3e 00
        E 6 90 40 2d
        E 6 90 32 34
        E 70 80 40 00
        E 11 80 32 00
        E 120 90 26 40
        E 38 90 3e 3c
        E 188 80 26 00
        E 23 80 3e 00
        E 10 90 32 3a
        E 10 90 40 3c
        E 183 80 32 00
        E 36 90 26 41
        E 11 80 40 00
        E 23 90 3e 3f
        E 171 80 26 00
        E 49 80 3e 00
        E 6 90 32 40
        E 3 90 40 42
        E 155 80 32 00
        E 64 90 26 45
        E 9 80 40 00
        E 18 90 3e 42
        E 180 80 26 00
        E 51 90 40 4a
        E 5 90 32 42
        E 4 80 3e 00
        E 187 80 32 00
        E 40 90 26 49
        E 9 80 40 00
        E 3 90 3e 47
        E 200 80 26 00
        E 30 90 40 48
        E 13 80 3e 00
        E 4 90 32 48
        E 175 80 32 00
        E 44 90 26 48
        E 28 80 40 00
        E 1 90 3e 48
        E 175 80 26 00
        E 44 90 32 48
        E 3 90 40 47
        E 15 80 3e 00
        E 170 80 32 00
        E 40 90 26 47
        E 8 90 3e 47
        E 1 80 40 00
        E 192 80 26 00
        E 36 90 32 49
        E 3 90 40 53
        E 15 80 3e 00
        E 162 80 32 00
        E 37 90 26 45
        E 16 90 3e 4a
        E 12 80 40 00
        E 188 80 26 00
        E 28 90 40 4d
        E 5 90 32 4a
        E 14 80 3e 00
        E 177 80 32 00
        E 32 90 26 4d
        E 25 90 3e 4b
        E 5 80 40 00
        E 204 80 26 00
        E 25 90 40 5a
        E 17 90 32 4b
        E 29 80 3e 00
        E 99 80 40 00
        E 71 80 32 00
        E 27 90 26 4c
        E 2 90 40 3e
        E 21 90 41 3e
        E 47 80 41 00
        E 152 90 42 49
        E 11 80 40 00
        E 13 80 26 00
        E 35 90 32 3c
        E 177 80 32 00
        E 29 90 26 48
        E 4 80 42 00
        E 10 90 40 44
        E 209 80 26 00
        E 48 90 42 43
        E 2 90 32 3a
        E 6 80 40 00
        E 184 80 32 00
        E 29 90 26 45
        E 5 80 42 00
        E 9 90 40 42
        E 193 80 26 00
        E 55 90 32 3a
        E 3 90 42 42
        E 2 80 40 00
        E 194 80 32 00
        E 28 90 26 45
        E 11 80 42 00
        E 6 90 40 3f
        E 192 80 26 00
        E 50 90 42 44
        E 4 80 40 00
        E 1 90 32 3c
        E 181 80 32 00
        E 44 90 26 41
        E 14 80 42 00
        E 3 90 40 44
        E 215 80 26 00
        E 32 90 42 46
        E 2 90 32 41
        E 10 80 40 00
        E 162 80 32 00
        E 48 90 26 48
        E 16 80 42 00
        E 3 90 40 44
        E 221 80 26 00
        E 23 90 42 49
        E 7 90 32 45
        E 5 80 40 00
        E 186 80 32 00
        E 36 90 40 4b
        E 5 90 26 4c
        E 4 80 42 00
        E 201 80 26 00
        E 30 90 42 4d
        E 14 90 32 47
        E 9 80 40 00
        E 182 80 42 00
        E 12 90 40 4b
        E 5 80 32 00
        E 21 90 26 4d
        E 212 80 26 00
        E 12 90 42 4e
        E 16 90 32 4a
        E 22 80 40 00
        E 98 80 42 00
        E 62 80 32 00
        E 21 90 42 4d
        E 33 90 26 4d
        E 223 80 26 00
        E 19 90 43 44
        E 7 80 42 00
        E 4 90 32 41
        E 187 80 32 00
        E 20 80 43 00
        E 15 90 42 44
        E 11 90 26 44
        E 202 80 26 00
        E 25 90 43 45
        E 1 90 32 41
        E 14 80 42 00
        E 168 80 32 00
        E 52 90 26 42
        E 7 80 43 00
        E 12 90 42 45
        E 198 80 26 00
        E 15 80 42 00
        E 2 90 43 3e
        E 20 90 32 3b
        E 192 80 32 00
        E 26 90 26 41
        E 2 80 43 00
        E 12 90 42 43
        E 173 80 26 00
        E 52 90 43 3f
        E 4 80 42 00
        E 6 90 32 38
        E 133 80 32 00
        E 65 90 26 42
        E 21 80 43 00
        E 8 90 42 43
        E 171 80 26 00
        E 59 90 43 43
        E 2 80 42 00
        E 2 90 32 38
        E 172 80 32 00
        E 47 90 26 42
        E 5 80 43 00
        E 11 90 42 40
        E 193 80 26 00
        E 43 90 32 38
        E 6 90 43 3e
        E 12 80 42 00
        E 165 80 32 00
        E 56 90 26 40
        E 1 80 43 00
        E 10 90 42 3e
        E 171 80 26 00
        E 51 90 32 39
        E 13 80 42 00
        E 7 90 43 3a
        E 153 80 32 00
        E 51 90 26 3d
        E 14 80 43 00
        E 15 90 42 3b
        E 176 80 26 00
        E 55 90 32 36
        E 3 80 42 00
        E 4 90 43 38
        E 162 80 32 00
        E 59 90 26 40
        E 10 80 43 00
        E 9 90 42 3d
        E 142 80 26 00
        E 72 80 42 00
        E 19 90 43 3c
        E 10 90 32 36
        E 121 80 32 00
        E 86 80 43 00
        E 7 90 26 39
        E 27 90 42 38
        E 174 80 26 00
        E 42 80 42 00
        E 18 90 43 38
        E 12 90 32 2b
        E 83 80 32 00
        E 113 80 43 00
        E 5 90 26 3b
        E 22 90 42 36
        E 179 80 26 00
        E 48 80 42 00
        E 27 90 43 35
        E 5 90 32 27
        E 113 80 32 00
        E 70 80 43 00
        E 16 90 26 37
        E 21 90 42 33
        E 175 80 26 00
        E 58 80 42 00
        E 18 90 32 2a
        E 4 90 43 32
        E 86 80 32 00
        E 125 80 43 00
        E 5 90 26 38
        E 23 90 42 33
        E 164 80 26 00
        E 76 90 32 2a
        E 1 80 42 00
        E 17 90 43 3a
        E 118 80 32 00
        E 78 90 26 35
        E 20 80 43 00
        E 24 90 42 2d
        E 171 80 26 00
        E 44 80 42 00
        E 23 90 32 28
        E 3 90 43 31
        E 155 80 32 00
        E 60 90 26 36
        E 6 80 43 00
        E 27 90 42 35
        E 129 80 26 00
        E 103 90 32 33
        E 7 80 42 00
        E 5 90 43 3c
        E 173 80 32 00
        E 44 80 43 00
        E 4 90 26 3a
        E 16 90 42 3b
        E 157 80 26 00
        E 102 90 32 38
        E 3 90 43 3e
        E 10 80 42 00
        E 150 80 43 00
        E 15 80 32 00
        E 38 90 3e 46
        E 6 90 26 44
        E 202 80 26 00
        E 15 80 3e 00
        E 17 90 40 3e
        E 7 90 32 36
        E 189 80 32 00
        E 5 80 40 00
        E 23 90 3e 42
        E 18 90 26 47
        E 177 80 26 00
        E 26 80 3e 00
        E 10 90 40 41
        E 19 90 32 3d
        E 154 80 32 00
        E 68 80 40 00
        E 1 90 3e 49
        E 3 90 26 48
        E 186 80 26 00
        E 25 80 3e 00
        E 13 90 40 47
        E 12 90 32 40
        E 216 80 32 00
        E 14 90 3e 47
        E 3 80 40 00
        E 18 90 26 4a
        E 199 80 26 00
        E 12 90 40 47
        E 9 80 3e 00
        E 5 90 32 48
        E 188 80 32 00
        E 8 80 40 00
        E 5 90 3e 45
        E 39 90 26 41
        E 199 80 26 00
        E 11 80 3e 00
        E 10 90 32 3e
        E 0 90 40 45
        E 212 80 32 00
        E 16 90 26 49
        E 11 90 3e 4b
        E 12 80 40 00
        E 202 80 3e 00
        E 9 80 26 00
        E 5 90 40 45
        E 22 90 32 48
        E 221 80 32 00
        E 9 90 3e 4a
        E 1 90 26 4b
        E 12 80 40 00
        E 221 80 3e 00
        E 2 80 26 00
        E 1 90 40 47
        E 18 90 32 4a
        E 215 80 32 00
        E 14 90 26 4d
        E 6 90 3e 4d
        E 17 80 40 00
        E 211 80 3e 00
        E 8 80 26 00
        E 0 90 40 49
        E 21 90 32 4b
        E 129 80 40 00
        E 75 80 32 00
        E 17 90 40 46
        E 5 90 26 4f
        E 241 90 42 45
        E 1 80 26 00
        E 7 80 40 00
        E 16 90 32 44
        E 199 80 42 00
        E 13 80 32 00
        E 4 90 26 4e
        E 0 90 40 46
        E 230 80 26 00
        E 13 90 42 44
        E 15 90 32 44
        E 8 80 40 00
        E 198 80 32 00
        E 13 90 26 4c
        E 25 80 42 00
        E 7 90 40 46
        E 189 80 26 00
        E 42 90 32 45
        E 9 90 42 3e
        E 7 80 40 00
        E 183 80 32 00
        E 21 90 26 4a
        E 22 80 42 00
        E 10 90 40 41
        E 185 80 26 00
        E 35 90 32 47
        E 13 90 42 3e
        E 10 80 40 00
        E 172 80 32 00
        E 30 90 26 4e
        E 24 80 42 00
        E 4 90 40 46
        E 198 80 26 00
        E 39 90 32 44
        E 5 90 42 45
        E 10 80 40 00
        E 185 80 32 00
        E 19 90 26 4f
        E 28 90 40 45
        E 1 80 42 00
        E 196 80 26 00
        E 32 90 32 48
        E 13 90 42 3f
        E 4 80 40 00
        E 194 80 32 00
        E 21 90 26 4e
        E 7 80 42 00
        E 1 90 40 47
        E 230 80 26 00
        E 21 90 42 47
        E 3 90 32 4a
        E 18 80 40 00
        E 180 80 32 00
        E 22 90 26 53
        E 2 80 42 00
        E 11 90 40 4a
        E 233 90 42 4e
        E 5 80 26 00
        E 18 90 32 48
        E 21 80 40 00
        E 85 80 42 00
        E 76 80 32 00
        E 35 90 42 4a
        E 13 90 26 4c
        E 212 80 26 00
        E 32 90 32 42
        E 1 90 43 45
        E 13 80 42 00
        E 176 80 32 00
        E 26 90 26 49
        E 9 90 42 4e
        E 7 80 43 00
        E 216 80 26 00
        E 22 90 43 49
        E 3 90 32 41
        E 37 80 42 00
        E 159 80 32 00
        E 26 90 26 48
        E 20 90 42 4e
        E 15 80 43 00
        E 172 80 26 00
        E 53 90 43 48
        E 30 90 32 3b
        E 2 80 42 00
        E 159 80 32 00
        E 39 90 26 43
        E 16 90 42 45
        E 6 80 43 00
        E 170 80 26 00
        E 61 90 43 3e
        E 5 80 42 00
        E 4 90 32 36
        E 169 80 32 00
        E 42 90 26 44
        E 13 80 43 00
        E 1 90 42 42
        E 159 80 26 00
        E 86 80 42 00
        E 1 90 32 3d
        E 1 90 43 3e
        E 174 80 32 00
        E 54 90 26 40
        E 3 80 43 00
        E 13 90 42 40
        E 173 80 26 00
        E 60 80 42 00
        E 5 90 43 3c
        E 12 90 32 33
        E 159 80 32 00
        E 39 80 43 00
        E 9 90 26 41
        E 10 90 42 3e
        E 154 80 26 00
        E 67 80 42 00
        E 9 90 43 38
        E 7 90 32 32
        E 164 80 32 00
        E 42 90 26 41
        E 18 80 43 00
        E 17 90 42 3c
        E 167 80 26 00
        E 74 90 32 35
        E 1 80 42 00
        E 4 90 43 39
        E 172 80 32 00
        E 48 90 26 47
        E 8 80 43 00
        E 11 90 42 3d
        E 172 80 26 00
        E 62 90 32 37
        E 9 80 42 00
        E 8 90 43 35
        E 172 80 32 00
        E 32 90 26 41
        E 11 80 43 00
        E 19 90 42 41
        E 187 80 26 00
        E 60 90 32 39
        E 8 80 42 00
        E 13 90 43 34
        E 175 80 32 00
        E 28 80 43 00
        E 9 90 26 47
        E 7 90 42 3e
        E 191 80 26 00
        E 60 90 32 37
        E 3 80 42 00
        E 9 90 43 36
        E 169 80 32 00
        E 42 90 26 44
        E 17 80 43 00
        E 20 90 42 37
        E 159 80 26 00
        E 71 90 32 38
        E 6 90 43 39
        E 2 80 42 00
        E 171 80 32 00
        E 39 80 43 00
        E 2 90 26 43
        E 5 90 42 41
        E 180 80 26 00
        E 48 80 42 00
        E 13 90 43 37
        E 2 90 32 33
        E 172 80 32 00
        E 45 90 26 40
        E 2 80 43 00
        E 24 90 42 36
        E 153 80 26 00
        E 60 90 32 34
        E 34 80 42 00
        E 10 90 43 39
        E 133 80 32 00
        E 58 90 26 43
        E 3 80 43 00
        E 29 90 42 38
        E 169 80 26 00
        E 54 80 42 00
        E 4 90 43 38
        E 14 90 32 34
        E 193 80 32 00
        E 17 80 43 00
        E 4 90 26 48
        E 11 90 42 43
        E 193 80 26 00
        E 31 90 43 33
        E 4 80 42 00
        E 23 90 32 34
        E 19 80 43 00
        E 146 80 32 00
        E 40 90 26 48
        E 6 90 45 46
        E 201 80 26 00
        E 10 80 45 00
        E 34 90 47 21
        E 5 90 32 36
        E 171 80 47 00
        E 27 80 32 00
        E 18 90 26 47
        E 13 90 45 30
        E 188 80 26 00
        E 42 80 45 00
        E 8 90 32 37
        E 1 90 47 31
        E 189 80 32 00
        E 29 90 26 3e
        E 7 80 47 00
        E 20 90 45 36
        E 194 80 26 00
        E 42 90 32 34
        E 5 80 45 00
        E 11 90 47 36
        E 191 80 32 00
        E 20 90 26 48
        E 14 80 47 00
        E 14 90 45 39
        E 172 80 26 00
        E 66 90 32 3d
        E 13 90 47 38
        E 12 80 45 00
        E 163 80 47 00
        E 39 80 32 00
        E 4 90 26 49
        E 17 90 43 3f
        E 207 80 26 00
        E 24 80 43 00
        E 22 90 45 32
        E 15 90 32 35
        E 171 80 32 00
        E 27 90 26 49
        E 8 80 45 00
        E 11 90 43 3e
        E 176 80 26 00
        E 57 80 43 00
        E 2 90 32 3d
        E 1 90 45 3f
        E 192 80 32 00
        E 30 90 26 48
        E 18 90 43 46
        E 9 80 45 00
        E 175 80 26 00
        E 42 90 45 45
        E 14 80 43 00
        E 1 90 32 3c
        E 191 80 32 00
        E 26 90 26 4b
        E 8 80 45 00
        E 8 90 43 46
        E 195 80 26 00
        E 42 90 45 44
        E 8 90 32 41
        E 12 80 43 00
        E 135 80 45 00
        E 47 80 32 00
        E 14 90 42 43
        E 16 90 26 45
        E 189 80 26 00
        E 36 90 43 3e
        E 6 80 42 00
        E 2 90 32 38
        E 211 80 32 00
        E 10 80 43 00
        E 6 90 42 43
        E 6 90 26 42
        E 193 80 26 00
        E 41 90 32 3c
        E 6 90 43 41
        E 12 80 42 00
        E 173 80 32 00
        E 46 90 26 41
        E 13 80 43 00
        E 2 90 42 46
        E 178 80 26 00
        E 38 90 32 3b
        E 11 90 43 36
        E 3 80 42 00
        E 190 80 32 00
        E 29 90 26 40
        E 15 80 43 00
        E 4 90 42 43
        E 198 80 26 00
        E 31 90 32 3c
        E 20 90 43 39
        E 13 80 42 00
        E 157 80 32 00
        E 51 80 43 00
        E 2 90 26 41
        E 7 90 42 3d
        E 196 80 26 00
        E 46 80 42 00
        E 1 90 32 31
        E 3 90 43 37
        E 178 80 32 00
        E 46 90 26 3b
        E 18 80 43 00
        E 12 90 42 39
        E 179 80 26 00
        E 53 90 32 36
        E 6 80 42 00
        E 11 90 43 31
        E 184 80 32 00
        E 35 90 26 41
        E 8 80 43 00
        E 2 90 42 3d
        E 183 80 26 00
        E 50 80 42 00
        E 7 90 43 39
        E 1 90 32 34
        E 176 80 32 00
        E 14 80 43 00
        E 28 90 42 39
        E 7 90 26 3f
        E 192 80 26 00
        E 56 80 42 00
        E 4 90 43 34
        E 12 90 32 34
        E 38 80 43 00
        E 71 80 32 00
        E 104 90 26 41
        E 18 90 45 44
        E 171 80 26 00
        E 59 90 32 33
        E 4 80 45 00
        E 5 90 47 38
        E 186 80 32 00
        E 32 90 26 48
        E 10 80 47 00
        E 8 90 45 42
        E 162 80 26 00
        E 70 90 32 42
        E 8 90 47 46
        E 8 80 45 00
        E 164 80 32 00
        E 41 90 26 45
        E 16 90 45 49
        E 4 80 47 00
        E 175 80 26 00
        E 56 90 47 49
        E 9 80 45 00
        E 1 90 32 41
        E 179 80 32 00
        E 48 90 26 45
        E 3 90 45 48
        E 2 80 47 00
        E 213 80 26 00
        E 41 90 47 58
        E 5 90 32 48
        E 11 80 45 00
        E 187 80 32 00
        E 7 80 47 00
        E 22 90 43 48
        E 15 90 26 42
        E 204 80 26 00
        E 22 90 45 45
        E 11 80 43 00
        E 15 90 32 3f
        E 182 80 32 00
        E 30 80 45 00
        E 6 90 43 48
        E 3 90 26 47
        E 178 80 26 00
        E 55 90 45 43
        E 1 80 43 00
        E 10 90 32 3b
        E 158 80 32 00
        E 57 90 26 42
        E 21 90 43 47
        E 10 80 45 00
        E 160 80 26 00
        E 38 90 32 3d
        E 30 80 43 00
        E 7 90 45 3b
        E 145 80 32 00
        E 78 80 45 00
        E 4 90 26 43
        E 7 90 43 40
        E 186 80 26 00
        E 53 90 45 41
        E 1 90 32 3c
        E 2 80 43 00
        E 195 80 32 00
        E 1 80 45 00
        E 31 90 42 4a
        E 10 90 26 3d
        E 166 80 26 00
        E 58 80 42 00
        E 4 90 43 42
        E 14 90 32 37
        E 168 80 32 00
        E 58 80 43 00
        E 1 90 26 41
        E 6 90 42 47
        E 174 80 26 00
        E 60 90 43 44
        E 7 90 32 38
        E 4 80 42 00
        E 164 80 32 00
        E 59 90 26 41
        E 6 90 42 47
        E 4 80 43 00
        E 170 80 26 00
        E 66 90 32 31
        E 9 90 43 41
        E 15 80 42 00
        E 161 80 32 00
        E 46 90 26 42
        E 20 90 42 41
        E 7 80 43 00
        E 166 80 26 00
        E 51 80 42 00
        E 3 90 43 3e
        E 15 90 32 2e
        E 153 80 32 00
        E 59 90 26 3f
        E 6 80 43 00
        E 6 90 42 40
        E 202 80 26 00
        E 37 80 42 00
        E 5 90 43 3b
        E 5 90 32 38
        E 146 80 32 00
        E 68 90 26 39
        E 16 80 43 00
        E 5 90 42 3c
        E 170 80 26 00
        E 53 80 42 00
        E 12 90 32 33
        E 13 90 43 35
        E 156 80 32 00
        E 40 90 26 41
        E 9 80 43 00
        E 13 90 42 3e
        E 190 80 26 00
        E 44 90 43 3b
        E 1 80 42 00
        E 19 90 32 36
        E 200 80 32 00
        E 5 80 43 00
        E 5 90 42 45
        E 23 90 26 42
        E 194 80 26 00
        E 25 90 43 3c
        E 2 80 42 00
        E 45 90 32 2b
        E 51 80 43 00
        E 137 80 32 00
        E 13 90 26 49
        E 47 90 40 26
        E 1 90 3e 24
        E 91 80 40 00
        E 5 80 3e 00
        E 68 80 26 00
        E 47 90 40 34
        E 19 90 32 28
        E 64 80 32 00
        E 98 90 32 33
        E 6 80 40 00
        E 55 90 3e 43
        E 10 80 32 00
        E 67 90 26 42
        E 156 80 3e 00
        E 14 90 40 35
        E 13 80 26 00
        E 52 90 32 28
        E 84 80 32 00
        E 63 80 40 00
        E 19 90 26 48
        E 14 90 3e 3f
        E 179 80 26 00
        E 40 90 32 37
        E 17 80 3e 00
        E 9 90 40 3b
        E 165 80 32 00
        E 35 90 26 47
        E 16 80 40 00
        E 27 90 3e 39
        E 156 80 26 00
        E 65 90 32 36
        E 2 80 3e 00
        E 19 90 40 34
        E 123 80 40 00
        E 24 80 32 00
        E 32 90 26 49
        E 17 90 40 46
        E 209 80 26 00
        E 30 90 32 3b
        E 36 90 42 40
        E 1 80 40 00
        E 178 80 32 00
        E 26 90 26 46
        E 2 80 42 00
        E 28 90 40 3c
        E 179 80 26 00
        E 53 90 32 3d
        E 7 80 40 00
        E 3 90 42 3d
        E 173 80 32 00
        E 41 90 26 45
        E 11 80 42 00
        E 19 90 40 3e
        E 179 80 26 00
        E 52 90 32 39
        E 12 90 42 3d
        E 4 80 40 00
        E 169 80 32 00
        E 29 80 42 00
        E 8 90 26 46
        E 24 90 40 3c
        E 205 80 26 00
        E 35 90 42 43
        E 19 90 32 3a
        E 4 80 40 00
        E 74 80 42 00
        E 77 80 32 00
        E 54 90 42 4e
        E 4 90 26 4b
        E 206 80 26 00
        E 50 90 32 37
        E 9 90 43 40
        E 6 80 42 00
        E 138 80 32 00
        E 67 90 26 41
        E 29 80 43 00
        E 4 90 42 47
        E 173 80 26 00
        E 53 90 32 39
        E 17 80 42 00
        E 4 90 43 36
        E 128 80 32 00
        E 75 90 26 40
        E 26 80 43 00
        E 2 90 42 43
        E 176 80 26 00
        E 65 90 32 2f
        E 0 80 42 00
        E 6 90 43 39
        E 174 80 32 00
        E 42 90 26 3e
        E 3 80 43 00
        E 1 90 42 42
        E 179 80 26 00
        E 71 90 43 3d
        E 1 90 32 38
        E 9 80 42 00
        E 150 80 32 00
        E 65 90 26 42
        E 7 80 43 00
        E 3 90 42 40
        E 170 80 26 00
        E 61 80 42 00
        E 8 90 43 35
        E 22 90 32 27
        E 130 80 32 00
        E 70 90 26 40
        E 12 80 43 00
        E 12 90 42 38
        E 155 80 26 00
        E 59 80 42 00
        E 20 90 43 34
        E 11 90 32 2f
        E 156 80 32 00
        E 38 80 43 00
        E 6 90 26 41
        E 12 90 42 3c
        E 187 80 26 00
        E 32 80 42 00
        E 7 90 43 38
        E 29 90 32 39
        E 198 80 32 00
        E 23 90 26 44
        E 11 80 43 00
        E 11 90 42 41
        E 173 80 26 00
        E 59 80 42 00
        E 4 90 43 38
        E 10 90 32 3d
        E 36 80 43 00
        E 146 80 32 00
        E 27 90 26 49
        E 32 90 45 37
        E 6 90 47 39
        E 46 80 47 00
        E 118 80 26 00
        E 34 90 47 38
        E 9 90 32 3c
        E 1 80 45 00
        E 205 80 32 00
        E 28 90 26 48
        E 12 80 47 00
        E 10 90 45 48
        E 182 80 26 00
        E 55 90 32 41
        E 20 90 47 42
        E 5 80 45 00
        E 162 80 32 00
        E 27 90 26 49
        E 10 80 47 00
        E 15 90 45 45
        E 198 80 26 00
        E 43 90 32 44
        E 14 90 47 49
        E 10 80 45 00
        E 169 80 32 00
        E 33 80 47 00
        E 3 90 45 45
        E 2 90 26 4b
        E 233 80 26 00
        E 4 90 47 4b
        E 32 80 45 00
        E 1 90 32 47
        E 79 80 47 00
        E 91 80 32 00
        E 32 90 26 4b
        E 14 90 47 38
        E 198 80 26 00
        E 42 90 32 39
        E 17 90 48 3d
        E 3 80 47 00
        E 184 80 32 00
        E 10 80 48 00
        E 2 90 26 48
        E 22 90 47 45
        E 204 80 26 00
        E 33 90 32 47
        E 10 90 48 47
        E 13 80 47 00
        E 179 80 32 00
        E 18 90 26 4a
        E 27 90 47 4a
        E 5 80 48 00
        E 203 80 26 00
        E 28 90 32 46
        E 1 90 48 4a
        E 19 80 47 00
        E 190 80 32 00
        E 4 90 47 48
        E 6 90 26 4d
        E 11 80 48 00
        E 217 80 26 00
        E 6 90 48 4d
        E 18 90 32 49
        E 6 80 47 00
        E 65 80 48 00
        E 109 80 32 00
        E 40 90 26 4d
        E 3 90 48 4c
        E 209 80 26 00
        E 36 90 4a 3e
        E 6 90 32 3a
        E 2 80 48 00
        E 197 80 32 00
        E 12 90 26 46
        E 28 80 4a 00
        E 7 90 48 3f
        E 170 80 26 00
        E 51 90 32 3c
        E 34 80 48 00
        E 9 90 4a 37
        E 140 80 32 00
        E 39 90 26 44
        E 29 80 4a 00
        E 14 90 48 3b
        E 169 80 26 00
        E 53 90 32 3b
        E 17 90 4a 38
        E 3 80 48 00
        E 166 80 32 00
        E 32 90 26 48
        E 48 80 4a 00
        E 13 90 48 32
        E 148 80 26 00
        E 52 90 32 3d
        E 26 80 48 00
        E 12 90 4a 32
        E 149 80 32 00
        E 27 90 26 44
        E 43 80 4a 00
        E 19 90 48 36
        E 144 80 26 00
        E 57 90 32 3b
        E 4 80 48 00
        E 21 90 4a 30
        E 140 80 32 00
        E 76 90 26 42
        E 4 80 4a 00
        E 28 90 48 2d
        E 177 80 26 00
        E 55 90 32 3b
        E 8 80 48 00
        E 4 90 4a 3a
        E 174 80 32 00
        E 22 80 4a 00
        E 21 90 26 46
        E 14 90 48 30
        E 168 80 26 00
        E 64 90 32 37
        E 21 80 48 00
        E 4 90 4a 3a
        E 157 80 32 00
        E 24 80 4a 00
        E 16 90 48 37
        E 11 90 26 43
        E 206 80 26 00
        E 20 90 4a 3d
        E 8 80 48 00
        E 22 90 32 3f
        E 9 80 4a 00
        E 54 80 32 00
        E 140 90 26 4c
        E 19 90 3e 4d
        E 13 90 4a 32
        E 16 90 48 34
        E 5 80 3e 00
        E 26 80 4a 00
        E 12 80 48 00
        E 78 80 26 00
        E 77 90 40 49
        E 4 90 32 3e
        E 34 80 40 00
        E 104 80 32 00
        E 52 90 26 4a
        E 37 90 4a 4f
        E 3 90 3e 4a
        E 34 80 4a 00
        E 1 80 3e 00
        E 102 80 26 00
        E 88 90 32 3a
        E 7 90 40 4b
        E 35 80 40 00
        E 107 80 32 00
        E 72 90 26 4b
        E 11 90 4a 58
        E 1 90 3e 4d
        E 32 80 3e 00
        E 2 80 4a 00
        E 153 80 26 00
        E 60 90 40 47
        E 12 90 32 3d
        E 7 90 4c 33
        E 18 80 40 00
        E 28 80 4c 00
        E 133 80 32 00
        E 44 90 26 4c
        E 5 90 4a 58
        E 1 90 3e 4f
        E 30 80 4a 00
        E 3 80 3e 00
        E 165 80 26 00
        E 55 90 4c 52
        E 1 90 40 4e
        E 14 90 32 45
        E 19 80 4c 00
        E 2 80 40 00
        E 106 80 32 00
        E 90 90 26 4d
        E 16 90 4c 69
        E 2 90 40 61
        E 38 80 40 00
        E 14 80 4c 00
        E 133 80 26 00
        E 41 90 32 41
        E 11 90 42 48
        E 3 90 4e 46
        E 24 80 42 00
        E 2 80 4e 00
        E 105 80 32 00
        E 92 90 26 4c
        E 26 90 4d 42
        E 3 90 40 3d
        E 4 90 4c 48
        E 19 90 41 29
        E 12 80 4d 00
        E 1 80 4c 00
        E 7 80 40 00
        E 36 80 41 00
        E 65 80 26 00
        E 66 90 4e 4a
        E 4 90 42 47
        E 21 80 4e 00
        E 3 90 32 40
        E 8 80 42 00
        E 147 80 32 00
        E 56 90 26 4c
        E 4 90 4d 43
        E 6 90 40 39
        E 3 90 4c 47
        E 31 80 4d 00
        E 2 80 4c 00
        E 12 80 40 00
        E 108 80 26 00
        E 63 90 4e 59
        E 6 90 42 4c
        E 20 80 4e 00
        E 10 80 42 00
        E 5 90 32 3a
        E 76 80 32 00
        E 123 90 26 4d
        E 4 90 40 4a
        E 19 90 4d 33
        E 14 80 40 00
        E 32 80 4d 00
        E 127 80 26 00
        E 20 90 4e 4c
        E 11 90 42 48
        E 17 80 4e 00
        E 13 80 42 00
        E 9 90 32 3e
        E 57 80 32 00
        E 150 90 26 4d
        E 17 90 4e 5c
        E 1 90 42 55
        E 27 80 42 00
        E 10 80 4e 00
        E 129 80 26 00
        E 81 90 32 3d
        E 4 90 43 4a
        E 30 90 4f 24
        E 3 80 43 00
        E 48 80 4f 00
        E 90 80 32 00
        E 58 90 4e 4d
        E 5 90 42 4b
        E 5 90 26 4b
        E 18 80 4e 00
        E 5 80 42 00
        E 168 80 26 00
        E 47 90 4f 4e
        E 5 90 43 46
        E 1 90 32 39
        E 25 80 4f 00
        E 10 80 43 00
        E 99 80 32 00
        E 82 90 4e 4f
        E 4 90 42 4b
        E 9 90 26 48
        E 12 80 4e 00
        E 7 80 42 00
        E 176 80 26 00
        E 42 90 4f 4c
        E 2 90 43 49
        E 29 90 32 38
        E 3 80 4f 00
        E 5 80 43 00
        E 157 80 32 00
        E 39 90 4e 4f
        E 4 90 42 4d
        E 11 90 26 4a
        E 13 80 4e 00
        E 5 80 42 00
        E 170 80 26 00
        E 50 90 43 46
        E 10 90 4f 40
        E 7 90 32 3b
        E 19 80 43 00
        E 14 80 4f 00
        E 128 80 32 00
        E 45 90 4e 4a
        E 5 90 42 47
        E 22 90 26 48
        E 2 80 4e 00
        E 8 80 42 00
        E 188 80 26 00
        E 27 90 43 46
        E 1 90 4f 46
        E 28 90 32 39
        E 6 80 4f 00
        E 1 80 43 00
        E 149 80 32 00
        E 23 90 4e 4b
        E 7 90 42 49
        E 15 90 26 4a
        E 10 80 4e 00
        E 4 80 42 00
        E 187 80 26 00
        E 44 90 4f 4b
        E 2 90 43 48
        E 23 90 32 3b
        E 7 80 4f 00
        E 5 80 43 00
        E 144 80 32 00
        E 43 90 4e 4d
        E 6 90 42 47
        E 15 90 26 47
        E 6 80 4e 00
        E 10 80 42 00
        E 183 80 26 00
        E 36 90 43 47
        E 4 90 4f 46
        E 30 80 43 00
        E 6 90 32 32
        E 1 80 4f 00
        E 72 80 32 00
        E 119 90 4e 4d
        E 4 90 42 4b
        E 14 90 26 47
        E 8 80 4e 00
        E 7 80 42 00
        E 149 80 26 00
        E 78 90 43 44
        E 31 90 32 3d
        E 6 80 43 00
        E 116 80 32 00
        E 82 90 4a 47
        E 8 90 26 4a
        E 29 80 4a 00
        E 11 90 48 19
        E 43 80 48 00
        E 76 80 26 00
        E 92 90 40 4d
        E 1 90 32 3e
        E 3 90 4c 4c
        E 30 80 4c 00
        E 1 80 40 00
        E 133 80 32 00
        E 62 90 26 4b
        E 3 90 4a 50
        E 30 80 4a 00
        E 1 90 3e 21
        E 48 80 3e 00
        E 107 80 26 00
        E 54 90 40 53
        E 0 90 4c 55
        E 21 90 32 39
        E 9 80 4c 00
        E 5 80 40 00
        E 127 80 32 00
        E 68 90 4a 54
        E 3 90 26 4b
        E 1 90 3e 4c
        E 23 80 4a 00
        E 9 80 3e 00
        E 137 80 26 00
        E 67 90 40 54
        E 5 90 4c 4d
        E 12 90 32 3d
        E 15 80 40 00
        E 3 80 4c 00
        E 112 80 32 00
        E 82 90 4a 5d
        E 1 90 3e 51
        E 4 90 26 49
        E 24 80 4a 00
        E 2 80 3e 00
        E 157 80 26 00
        E 54 90 4c 52
        E 7 90 40 4e
        E 18 90 32 40
        E 4 80 4c 00
        E 8 80 40 00
        E 118 80 32 00
        E 95 90 26 46
        E 128 90 4e 51
        E 2 90 42 4e
        E 21 80 4e 00
        E 5 80 42 00
        E 24 80 26 00
        E 129 90 32 3b
        E 22 90 43 47
        E 1 90 4f 4e
        E 36 80 4f 00
        E 18 80 43 00
        E 10 80 32 00
        E 156 90 4e 48
        E 1 90 26 42
        E 1 90 42 4c
        E 25 80 4e 00
        E 5 80 42 00
        E 140 80 26 00
        E 48 90 4f 4a
        E 4 90 43 4a
        E 32 80 4f 00
        E 13 80 43 00
        E 3 90 32 30
        E 68 80 32 00
        E 126 90 4e 48
        E 1 90 42 48
        E 6 90 26 4a
        E 19 80 4e 00
        E 9 80 42 00
        E 136 80 26 00
        E 68 90 32 36
        E 23 90 41 2a
        E 45 80 32 00
        E 11 80 41 00
        E 128 90 26 48
        E 40 90 4a 53
        E 5 90 3e 49
        E 30 80 4a 00
        E 4 80 3e 00
        E 89 80 26 00
        E 108 90 32 33
        E 56 80 32 00
        E 184 90 26 4d
        E 4 90 4a 5e
        E 2 90 3e 53
        E 36 80 3e 00
        E 21 80 4a 00
        E 108 80 26 00
        E 62 90 32 33
        E 17 90 40 4d
        E 7 90 4c 46
        E 27 80 40 00
        E 5 80 4c 00
        E 41 80 32 00
        E 126 90 26 48
        E 18 90 4a 50
        E 3 90 3e 4b
        E 26 80 4a 00
        E 6 80 3e 00
        E 103 80 26 00
        E 84 90 40 51
        E 11 90 4c 44
        E 4 90 32 32
        E 17 80 40 00
        E 14 80 4c 00
        E 39 80 32 00
        E 138 90 26 4a
        E 5 90 4a 61
        E 2 90 3e 52
        E 28 80 4a 00
        E 4 80 3e 00
        E 136 80 26 00
        E 70 90 4c 4e
        E 1 90 40 4d
        E 18 90 32 34
        E 12 80 4c 00
        E 4 80 40 00
        E 49 80 32 00
        E 147 90 26 4b
        E 1 90 4a 59
        E 18 90 3e 34
        E 3 90 3c 3c
        E 8 80 4a 00
        E 36 80 3c 00
        E 1 80 3e 00
        E 115 80 26 00
        E 50 90 40 53
        E 1 90 4c 56
        E 29 80 4c 00
        E 1 90 32 38
        E 5 80 40 00
        E 98 80 32 00
        E 109 90 4c 62
        E 1 90 40 53
        E 3 90 26 4d
        E 33 80 40 00
        E 8 80 4c 00
        E 142 80 26 00
        E 54 90 32 40
        E 21 90 42 4c
        E 5 90 4e 4f
        E 20 80 42 00
        E 1 80 4e 00
        E 19 80 32 00
        E 133 90 26 4a
        E 59 90 4c 48
        E 59 80 4c 00
        E 81 80 26 00
        E 79 90 32 31
        E 12 90 4e 2b
        E 2 90 4d 3d
        E 37 80 4d 00
        E 6 80 4e 00
        E 15 80 32 00
        E 114 90 26 4a
        E 61 90 40 47
        E 36 80 40 00
        E 58 80 26 00
        E 141 90 4e 48
        E 13 90 42 3d
        E 11 80 4e 00
        E 23 80 42 00
        E 124 90 26 4b
        E 25 90 4c 54
        E 8 90 40 4d
        E 34 80 40 00
        E 31 80 4c 00
        E 88 80 26 00
        E 69 90 4e 45
        E 11 90 42 3b
        E 15 80 4e 00
        E 20 80 42 00
        E 6 90 32 3c
        E 62 80 32 00
        E 129 90 26 4d
        E 2 90 4e 56
        E 1 90 42 4e
        E 22 80 4e 00
        E 4 80 42 00
        E 191 80 26 00
        E 24 90 43 4a
        E 1 90 4f 48
        E 32 90 32 3b
        E 1 80 43 00
        E 1 80 4f 00
        E 58 80 32 00
        E 162 90 4e 56
        E 2 90 42 4e
        E 20 90 26 46
        E 1 80 4e 00
        E 5 80 42 00
        E 176 80 26 00
        E 40 90 43 4d
        E 4 90 4f 4a
        E 19 90 32 3b
        E 10 80 43 00
        E 5 80 4f 00
        E 47 80 32 00
        E 139 90 4e 55
        E 2 90 42 4f
        E 23 90 26 46
        E 1 80 4e 00
        E 3 80 42 00
        E 171 80 26 00
        E 50 90 4f 4b
        E 13 90 43 3e
        E 19 90 32 35
        E 1 80 4f 00
        E 21 80 43 00
        E 50 80 32 00
        E 144 90 4e 58
        E 4 90 42 4f
        E 8 90 26 47
        E 16 80 4e 00
        E 5 80 42 00
        E 157 80 26 00
        E 63 90 4f 51
        E 4 90 43 49
        E 11 90 32 37
        E 18 80 4f 00
        E 6 80 43 00
        E 43 80 32 00
        E 158 90 4e 56
        E 3 90 42 4f
        E 5 90 26 4b
        E 19 80 4e 00
        E 6 80 42 00
        E 151 80 26 00
        E 78 90 4f 53
        E 13 90 43 46
        E 1 90 32 39
        E 34 80 4f 00
        E 1 80 43 00
        E 47 80 32 00
        E 142 90 4e 4e
        E 6 90 26 49
        E 5 90 42 48
        E 16 80 4e 00
        E 13 80 42 00
        E 159 80 26 00
        E 46 90 43 4d
        E 1 90 4f 4e
        E 10 90 32 38
        E 24 80 43 00
        E 6 80 4f 00
        E 37 80 32 00
        E 159 90 4e 4c
        E 6 90 42 49
        E 7 90 26 45
        E 16 80 4e 00
        E 8 80 42 00
        E 170 80 26 00
        E 51 90 4f 4c
        E 3 90 43 4a
        E 7 90 32 3e
        E 22 80 4f 00
        E 6 80 43 00
        E 83 80 32 00
        E 105 90 4e 4c
        E 8 90 42 45
        E 18 80 4e 00
        E 4 90 26 44
        E 10 80 42 00
        E 178 80 26 00
        E 33 90 43 4a
        E 2 90 4f 48
        E 26 90 32 3c
        E 6 80 43 00
        E 2 80 4f 00
        E 59 80 32 00
        E 142 90 26 48
        E 8 90 4a 42
        E 8 90 3c 2b
        E 9 90 48 3e
        E 19 80 4a 00
        E 18 80 48 00
        E 8 80 3c 00
        E 105 80 26 00
        E 71 90 40 56
        E 1 90 32 3d
        E 8 90 4c 4e
        E 31 80 4c 00
        E 1 80 40 00
        E 107 80 32 00
        E 62 90 26 49
        E 18 90 4a 5c
        E 6 90 3e 4d
        E 26 80 4a 00
        E 5 80 3e 00
        E 124 80 26 00
        E 80 90 32 3d
        E 1 90 40 42
        E 40 80 40 00
        E 139 80 32 00
        E 32 90 4a 61
        E 3 90 3e 4e
        E 16 90 26 49
        E 11 80 4a 00
        E 5 80 3e 00
        E 183 80 26 00
        E 30 90 40 59
        E 8 90 4c 47
        E 17 90 32 42
        E 8 80 40 00
        E 9 80 4c 00
        E 148 80 32 00
        E 36 90 4a 5a
        E 9 90 3e 4a
        E 2 90 26 48
        E 21 80 4a 00
        E 10 80 3e 00
        E 154 80 26 00
        E 52 90 40 53
        E 7 90 4c 4b
        E 26 90 32 3c
        E 2 80 40 00
        E 6 80 4c 00
        E 140 80 32 00
        E 50 90 48 61
        E 3 90 26 4c
        E 1 90 3c 5b
        E 31 80 3c 00
        E 26 80 48 00
        E 116 80 26 00
        E 75 90 4a 6a
        E 1 90 3e 5b
        E 2 90 32 40
        E 27 80 4a 00
        E 7 80 3e 00
        E 140 80 32 00
        E 45 90 26 4b
        E 6 90 3c 55
        E 1 90 48 4f
        E 30 80 3c 00
        E 2 80 48 00
        E 134 80 26 00
        E 74 90 32 39
        E 1 90 3e 4e
        E 21 90 4a 3c
        E 11 90 4c 23
        E 3 80 3e 00
        E 23 80 4a 00
        E 26 80 4c 00
        E 90 80 32 00
        E 46 90 26 4a
        E 13 90 48 54
        E 6 90 3c 56
        E 37 80 3c 00
        E 30 80 48 00
        E 89 80 26 00
        E 88 90 32 3a
        E 5 90 3e 4f
        E 26 90 4a 3d
        E 2 90 4c 32
        E 17 80 3e 00
        E 18 80 4a 00
        E 13 80 4c 00
        E 83 80 32 00
        E 70 90 26 47
        E 3 90 48 4d
        E 13 90 3c 4a
        E 31 80 48 00
        E 3 80 3c 00
        E 126 80 26 00
        E 70 90 3e 47
        E 8 90 32 3c
        E 3 90 4a 41
        E 9 90 4c 3b
        E 19 80 3e 00
        E 8 80 4a 00
        E 14 80 4c 00
        E 132 80 32 00
        E 40 90 26 49
        E 5 90 47 5b
        E 3 90 3b 59
        E 34 80 3b 00
        E 26 80 47 00
        E 103 80 26 00
        E 83 90 32 38
        E 14 90 3c 49
        E 5 90 48 43
        E 30 80 3c 00
        E 4 80 48 00
        E 118 80 32 00
        E 47 90 26 49
        E 14 90 47 4a
        E 1 90 3b 4c
        E 37 80 3b 00
        E 4 80 47 00
        E 123 80 26 00
        E 76 90 32 3c
        E 28 90 4a 40
        E 4 90 3c 3e
        E 9 90 3e 3e
        E 24 80 4a 00
        E 7 80 3c 00
        E 10 80 3e 00
        E 92 80 32 00
        E 50 90 26 4b
        E 31 90 3b 4b
        E 4 90 47 4a
        E 30 80 3b 00
        E 5 80 47 00
        E 98 80 26 00
        E 67 90 32 3d
        E 46 90 4a 45
        E 13 90 3c 40
        E 4 90 48 43
        E 1 90 3e 34
        E 17 80 4a 00
        E 17 80 3c 00
        E 1 80 48 00
        E 14 80 3e 00
        E 35 80 32 00
        E 76 90 26 48
        E 56 90 47 4e
        E 15 90 3b 4a
        E 26 80 47 00
        E 7 80 3b 00
        E 81 80 26 00
        E 72 90 32 3f
        E 42 90 48 58
        E 1 90 3c 54
        E 32 80 48 00
        E 9 80 3c 00
        E 73 80 32 00
        E 107 90 26 49
        E 17 90 47 4b
        E 1 90 3b 4d
        E 32 80 3b 00
        E 1 80 47 00
        E 156 80 26 00
        E 30 90 3c 4f
        E 33 90 32 3a
        E 1 80 3c 00
        E 128 80 32 00
        E 68 90 47 52
        E 4 90 3b 4f
        E 7 90 26 4c
        E 22 80 47 00
        E 4 80 3b 00
        E 152 80 26 00
        E 57 90 3c 4e
        E 12 90 32 3c
        E 6 90 48 39
        E 14 80 3c 00
        E 26 80 48 00
        E 134 80 32 00
        E 28 90 47 51
        E 11 90 3b 4a
        E 9 90 26 4b
        E 17 80 47 00
        E 8 80 3b 00
        E 138 80 26 00
        E 68 90 3c 4e
        E 2 90 32 3b
        E 2 90 48 4a
        E 28 80 3c 00
        E 3 80 48 00
        E 159 80 32 00
        E 33 90 47 53
        E 13 90 26 4b
        E 5 90 3b 4b
        E 34 80 3b 00
        E 12 80 47 00
        E 126 80 26 00
        E 55 90 47 5a
        E 12 90 3b 4e
        E 10 90 32 3d
        E 21 80 3b 00
        E 7 80 47 00
        E 28 80 32 00
        E 149 90 26 4b
        E 18 90 3e 55
        E 5 90 4a 65
        E 28 80 3e 00
        E 4 80 4a 00
        E 154 80 26 00
        E 52 90 40 53
        E 16 90 4c 48
        E 19 80 40 00
        E 14 80 4c 00
        E 30 90 32 22
        E 67 80 32 00
        E 84 90 4a 51
        E 4 90 3e 4b
        E 14 90 26 48
        E 11 80 4a 00
        E 7 80 3e 00
        E 169 80 26 00
        E 35 90 40 56
        E 4 90 4c 4f
        E 16 90 32 41
        E 17 80 40 00
        E 1 80 4c 00
        E 101 80 32 00
        E 100 90 26 4b
        E 7 90 4a 65
        E 3 90 3e 55
        E 33 80 3e 00
        E 0 80 4a 00
        E 140 80 26 00
        E 69 90 40 50
        E 3 90 32 41
        E 26 90 4c 31
        E 6 80 40 00
        E 8 90 4d 16
        E 32 80 4c 00
        E 7 80 4d 00
        E 76 80 32 00
        E 79 90 4a 59
        E 4 90 26 4c
        E 9 90 3e 46
        E 18 80 4a 00
        E 18 80 3e 00
        E 130 80 26 00
        E 73 90 40 5a
        E 4 90 4c 54
        E 17 90 32 3f
        E 12 80 4c 00
        E 0 80 40 00
        E 170 80 32 00
        E 50 90 3c 5d
        E 1 90 48 58
        E 2 90 26 4c
        E 27 80 3c 00
        E 1 80 48 00
        E 153 80 26 00
        E 62 90 32 41
        E 2 90 3e 5e
        E 6 90 4a 65
        E 25 80 3e 00
        E 5 80 4a 00
        E 129 80 32 00
        E 78 90 26 4b
        E 6 90 48 59
        E 2 90 3c 61
        E 28 80 48 00
        E 3 80 3c 00
        E 150 80 26 00
        E 59 90 3e 54
        E 2 90 32 3e
        E 2 90 4a 53
        E 27 80 3e 00
        E 2 80 4a 00
        E 143 80 32 00
        E 60 90 48 5b
        E 1 90 26 4c
        E 1 90 3c 62
        E 30 80 3c 00
        E 3 80 48 00
        E 154 80 26 00
        E 46 90 32 3f
        E 11 90 3e 52
        E 8 90 4a 4f
        E 25 80 3e 00
        E 4 80 4a 00
        E 117 80 32 00
        E 64 90 26 4d
        E 22 90 3c 5c
        E 7 90 48 40
        E 11 90 4a 3c
        E 12 80 3c 00
        E 15 80 48 00
        E 12 80 4a 00
        E 110 80 26 00
        E 68 90 3e 53
        E 1 90 4a 5a
        E 14 90 32 3d
        E 16 80 4a 00
        E 18 80 3e 00
        E 124 80 32 00
        E 65 90 26 49
        E 15 90 45 46
        E 1 90 39 4e
        E 31 80 39 00
        E 11 80 45 00
        E 126 80 26 00
        E 66 90 32 39
        E 11 90 3b 53
        E 5 90 47 4a
        E 28 80 3b 00
        E 4 80 47 00
        E 112 80 32 00
        E 67 90 26 4b
        E 22 90 45 47
        E 1 90 39 49
        E 33 80 45 00
        E 1 80 39 00
        E 137 80 26 00
        E 63 90 32 3f
        E 6 90 3b 4e
        E 16 90 47 33
        E 20 80 3b 00
        E 23 80 47 00
        E 103 80 32 00
        E 68 90 26 4b
        E 8 90 45 49
        E 6 90 39 45
        E 31 80 45 00
        E 6 80 39 00
        E 127 80 26 00
        E 65 90 32 3f
        E 21 90 47 5b
        E 2 90 3b 52
        E 29 80 47 00
        E 2 80 3b 00
        E 66 80 32 00
        E 93 90 26 49
        E 57 90 39 4c
        E 2 90 45 44
        E 31 80 39 00
        E 5 80 45 00
        E 85 80 26 00
        E 75 90 32 41
        E 45 90 3b 3e
        E 8 90 48 38
        E 36 80 3b 00
        E 6 80 48 00
        E 81 80 32 00
        E 77 90 26 4c
        E 29 90 43 4d
        E 6 90 37 4a
        E 27 80 43 00
        E 7 80 37 00
        E 115 80 26 00
        E 72 90 32 3b
        E 14 90 39 4d
        E 5 90 45 45
        E 28 80 39 00
        E 7 80 45 00
        E 84 80 32 00
        E 76 90 26 4a
        E 21 90 43 4e
        E 9 90 37 4c
        E 28 80 43 00
        E 7 80 37 00
        E 111 80 26 00
        E 83 90 32 3f
        E 8 90 45 4e
        E 4 90 39 4d
        E 28 80 45 00
        E 9 80 39 00
        E 126 80 32 00
        E 59 90 26 4b
        E 14 90 43 4d
        E 13 90 37 48
        E 29 80 43 00
        E 6 80 37 00
        E 133 80 26 00
        E 61 90 32 3c
        E 7 90 39 54
        E 2 90 45 4d
        E 32 80 45 00
        E 1 80 39 00
        E 118 80 32 00
        E 69 90 26 4c
        E 5 90 43 4b
        E 7 90 37 4a
        E 27 80 43 00
        E 8 80 37 00
        E 158 80 26 00
        E 29 90 43 4e
        E 30 90 37 26
        E 6 80 43 00
        E 15 90 32 3a
        E 30 80 37 00
        E 57 80 32 00
        E 122 90 26 4b
        E 2 90 42 4c
        E 4 90 36 4c
        E 23 80 42 00
        E 8 80 36 00
        E 148 80 26 00
        E 50 90 37 4e
        E 1 90 43 60
        E 3 90 32 42
        E 35 80 37 00
        E 40 80 43 00
        E 28 80 32 00
        E 124 90 26 47
        E 8 90 42 48
        E 1 90 36 47
        E 26 80 42 00
        E 6 80 36 00
        E 150 80 26 00
        E 39 90 43 4d
        E 5 90 37 4a
        E 21 90 32 3f
        E 4 80 43 00
        E 10 80 37 00
        E 127 80 32 00
        E 75 90 42 47
        E 1 90 26 4b
        E 19 90 36 2a
        E 8 80 42 00
        E 43 80 36 00
        E 108 80 26 00
        E 53 90 43 58
        E 12 90 37 48
        E 5 90 32 3e
        E 16 80 43 00
        E 17 80 37 00
        E 83 80 32 00
        E 108 90 42 58
        E 7 90 26 42
        E 3 90 36 45
        E 16 80 42 00
        E 19 80 36 00
        E 131 80 26 00
        E 63 90 43 4d
        E 12 90 37 39
        E 17 90 32 36
        E 4 80 43 00
        E 31 80 37 00
        E 81 80 32 00
        E 96 90 42 4e
        E 1 90 26 47
        E 10 90 36 43
        E 16 80 42 00
        E 19 80 36 00
        E 139 80 26 00
        E 53 90 43 4c
        E 6 90 37 46
        E 13 90 32 35
        E 13 80 43 00
        E 13 80 37 00
        E 98 80 32 00
        E 84 90 42 49
        E 12 90 36 37
        E 2 90 26 4b
        E 14 80 42 00
        E 26 80 36 00
        E 148 80 26 00
        E 27 90 43 4b
        E 18 90 37 3e
        E 15 80 43 00
        E 13 90 32 42
        E 16 80 37 00
        E 123 80 32 00
        E 59 90 42 4e
        E 7 90 36 48
        E 3 90 26 4b
        E 20 80 42 00
        E 14 80 36 00
        E 148 80 26 00
        E 52 90 43 58
        E 14 90 32 3d
        E 1 90 37 49
        E 35 80 43 00
        E 1 80 37 00
        E 134 80 32 00
        E 66 90 42 4c
        E 2 90 36 49
        E 10 90 26 49
        E 14 80 42 00
        E 8 80 36 00
        E 157 80 26 00
        E 30 90 43 4e
        E 2 90 37 51
        E 31 90 32 3f
        E 0 80 37 00
        E 1 80 43 00
        E 69 80 32 00
        E 159 90 26 4d
        E 22 90 3e 5d
        E 0 90 4a 5d
        E 30 80 4a 00
        E 1 80 3e 00
        E 128 80 26 00
        E 63 90 40 5e
        E 2 90 4c 5e
        E 6 90 32 42
        E 28 80 4c 00
        E 1 80 40 00
        E 127 80 32 00
        E 65 90 26 4d
        E 5 90 3e 63
        E 1 90 4a 6c
        E 31 80 3e 00
        E 20 80 4a 00
        E 125 80 26 00
        E 61 90 40 61
        E 3 90 4c 5a
        E 6 90 32 3f
        E 26 80 40 00
        E 2 80 4c 00
        E 51 80 32 00
        E 137 90 26 4e
        E 6 90 4a 6a
        E 4 90 3e 5d
        E 31 80 3e 00
        E 26 80 4a 00
        E 122 80 26 00
        E 58 90 40 5b
        E 5 90 4c 53
        E 2 90 32 41
        E 26 80 40 00
        E 1 80 4c 00
        E 108 80 32 00
        E 71 90 26 4a
        E 19 90 4a 67
        E 1 90 3e 5d
        E 29 80 3e 00
        E 2 80 4a 00
        E 147 80 26 00
        E 59 90 40 5c
        E 1 90 4c 61
        E 14 90 32 42
        E 13 80 4c 00
        E 7 80 40 00
        E 86 80 32 00
        E 104 90 4a 5d
        E 5 90 3e 4c
        E 3 90 26 4a
        E 18 80 4a 00
        E 10 80 3e 00
        E 176 90 40 53
        E 7 90 4c 4c
        E 23 80 40 00
        E 2 80 26 00
        E 5 80 4c 00
        E 160 90 32 32
        E 52 80 32 00
        E 66 90 3e 4a
        E 13 90 4a 43
        E 20 80 3e 00
        E 18 80 4a 00
        E 102 90 26 51
        E 137 80 26 00
        E 146 90 32 4a
        E 6 90 3e 53
        E 47 80 32 00
        E 4 80 3e 00
        E 275 90 26 3e
        E 74 80 26 00
        E 128 90 32 3e
        E 52 80 32 00
        E 166 90 26 48
        E 116 80 26 00
        E 144 90 32 48
        E 4 90 3e 4f
        E 10 90 4a 4a
        E 21 80 3e 00
        E 6 80 32 00
        E 5 80 4a 00
        E 138 90 26 39
        E 90 90 40 4c
        E 10 90 4c 3c
        E 18 90 4d 1e
        E 5 80 40 00
        E 16 80 4c 00
        E 17 80 26 00
        E 8 80 4d 00
        E 123 90 32 46
        E 44 90 3e 4a
        E 7 80 32 00
        E 10 90 4a 36
        E 16 80 3e 00
        E 28 80 4a 00
        E 118 90 26 4d
        E 118 80 26 00
        E 131 90 32 47
        E 48 80 32 00
        E 190 90 26 4a
        E 168 80 26 00
        E 79 90 32 48
        E 132 80 32 00
        E 84 90 26 4f
        E 117 80 26 00
        E 152 90 3e 51
        E 10 90 4a 4d
        E 22 90 32 45
        E 3 80 3e 00
        E 7 80 4a 00
        E 37 80 32 00
        E 160 90 26 4b
        E 12 90 40 4a
        E 5 90 4c 40
        E 30 80 40 00
        E 8 80 4c 00
        E 88 80 26 00
        E 94 90 3e 4c
        E 3 90 4a 4b
        E 16 90 32 40
        E 14 80 3e 00
        E 4 80 4a 00
        E 32 80 32 00
        E 149 90 26 47
        E 138 80 26 00
        E 111 90 32 4b
        E 110 80 32 00
        E 113 90 26 4b
        E 172 80 26 00
        E 71 90 32 42
        E 108 80 32 00
        E 137 90 26 4a
        E 147 80 26 00
        E 109 90 32 46
        E 5 90 4a 5c
        E 1 90 3e 4d
        E 52 80 3e 00
        E 7 80 32 00
        E 15 80 4a 00
        E 132 90 26 4a
        E 178 80 26 00
        E 82 90 40 4c
        E 5 90 4c 48
        E 5 90 32 40
        E 32 80 40 00
        E 20 80 32 00
        E 18 80 4c 00
        E 186 90 26 49
        E 148 80 26 00
        E 83 90 3e 4a
        E 8 90 4a 47
        E 14 90 32 3e
        E 15 80 3e 00
        E 6 80 4a 00
        E 23 80 32 00
        E 182 90 26 49
        E 149 80 26 00
        E 89 90 4c 3f
        E 10 90 40 42
        E 1 90 3e 3e
        E 4 90 4a 46
        E 4 90 32 3d
        E 29 80 4c 00
        E 1 80 4a 00
        E 2 80 40 00
        E 0 80 3e 00
        E 24 80 32 00
        E 168 90 26 4a
        E 177 80 26 00
        E 63 90 3e 4b
        E 4 90 4a 4a
        E 16 90 32 3f
        E 16 80 3e 00
        E 3 80 4a 00
        E 29 80 32 00
        E 159 90 26 4a
        E 159 80 26 00
        E 90 90 40 4d
        E 9 90 4c 4a
        E 1 90 32 3b
        E 32 80 40 00
        E 14 80 4c 00
        E 5 80 32 00
        E 169 90 26 4c
        E 165 80 26 00
        E 82 90 3e 4e
        E 6 90 4a 4e
        E 8 90 32 38
        E 19 80 3e 00
        E 7 80 4a 00
        E 41 80 32 00
        E 146 90 26 4d
        E 176 80 26 00
        E 73 90 40 4f
        E 4 90 4c 4c
        E 3 90 32 42
        E 36 80 40 00
        E 10 80 4c 00
        E 7 80 32 00
        E 170 90 26 4a
        E 218 80 26 00
        E 34 90 3e 4e
        E 3 90 4a 54
        E 12 90 32 48
        E 17 80 3e 00
        E 2 80 4a 00
        E 130 80 32 00
        E 65 90 26 4b
        E 5 90 40 50
        E 4 90 4c 4e
        E 29 80 4c 00
        E 1 80 40 00
        E 122 80 26 00
        E 69 90 4a 56
        E 1 90 32 3f
        E 1 90 3e 4e
        E 27 80 4a 00
        E 5 80 3e 00
        E 20 80 32 00
        E 152 90 26 4a
        E 26 90 40 4f
        E 6 90 4c 4b
        E 27 80 40 00
        E 4 80 4c 00
        E 90 80 26 00
        E 106 90 32 42
        E 6 90 3e 56
        E 1 90 4a 59
        E 32 80 3e 00
        E 3 80 4a 00
        E 56 80 32 00
        E 118 90 26 41
        E 16 90 40 58
        E 2 90 4c 54
        E 37 80 4c 00
        E 6 80 40 00
        E 130 80 26 00
        E 67 90 4a 56
        E 2 90 3e 51
        E 20 90 32 41
        E 10 80 4a 00
        E 3 80 3e 00
        E 39 80 32 00
        E 177 90 26 47
        E 4 90 4c 5b
        E 1 90 40 58
        E 32 80 4c 00
        E 7 80 40 00
        E 128 80 26 00
        E 69 90 3e 59
        E 3 90 4a 59
        E 5 90 32 43
        E 31 80 3e 00
        E 9 80 4a 00
        E 15 80 32 00
        E 186 90 40 5e
        E 1 90 4c 62
        E 5 90 26 45
        E 33 80 4c 00
        E 16 80 40 00
        E 114 80 26 00
        E 79 90 3e 56
        E 2 90 4a 56
        E 2 90 32 42
        E 26 80 3e 00
        E 4 80 4a 00
        E 24 80 32 00
        E 177 90 4c 4a
        E 5 90 40 40
        E 16 90 26 40
        E 12 80 4c 00
        E 12 80 40 00
        E 155 80 26 00
        E 29 90 4a 58
        E 1 90 3e 50
        E 24 90 32 46
        E 5 80 4a 00
        E 2 80 3e 00
        E 108 80 32 00
        E 98 90 40 59
        E 5 90 4c 51
        E 16 90 26 48
        E 15 80 4c 00
        E 2 80 40 00
        E 164 80 26 00
        E 34 90 4a 5a
        E 5 90 3e 4f
        E 28 80 4a 00
        E 3 80 3e 00
        E 9 90 32 40
        E 63 80 32 00
        E 141 90 4c 5e
        E 3 90 40 4e
        E 6 90 26 4a
        E 22 80 4c 00
        E 8 80 40 00
        E 72 80 26 00
        E 127 90 4c 68
        E 1 90 40 64
        E 2 90 26 49
        E 51 80 40 00
        E 30 80 4c 00
        E 84 80 26 00
        E 63 90 4e 4d
        E 7 90 32 38
        E 3 90 42 44
        E 12 80 4e 00
        E 18 80 42 00
        E 24 80 32 00
        E 186 90 26 4b
        E 14 90 4c 61
        E 4 90 40 59
        E 30 80 40 00
        E 37 80 4c 00
        E 103 80 26 00
        E 70 90 42 45
        E 2 90 4e 44
        E 18 90 32 2e
        E 8 80 4e 00
        E 1 80 42 00
        E 61 80 32 00
        E 115 90 4c 5b
        E 8 90 40 4c
        E 30 90 26 4c
        E 9 80 40 00
        E 33 80 4c 00
        E 117 80 26 00
        E 54 90 4e 4f
        E 2 90 42 4e
        E 24 80 4e 00
        E 8 90 32 3d
        E 1 80 42 00
        E 50 80 32 00
        E 160 90 4c 5b
        E 1 90 40 54
        E 12 90 26 4c
        E 22 80 40 00
        E 19 80 4c 00
        E 86 80 26 00
        E 97 90 42 51
        E 3 90 4e 4f
        E 22 90 32 44
        E 4 80 4e 00
        E 15 80 42 00
        E 27 80 32 00
        E 167 90 4c 61
        E 6 90 40 4e
        E 12 90 26 4b
        E 21 80 40 00
        E 35 80 4c 00
        E 67 80 26 00
        E 108 90 42 4d
        E 4 90 4e 4a
        E 14 90 32 3f
        E 11 80 4e 00
        E 2 80 42 00
        E 37 80 32 00
        E 170 90 4c 61
        E 4 90 40 53
        E 15 90 26 4c
        E 21 80 40 00
        E 33 80 4c 00
        E 72 80 26 00
        E 104 90 42 4e
        E 2 90 4e 4d
        E 20 90 32 3f
        E 6 80 4e 00
        E 10 80 42 00
        E 34 80 32 00
        E 166 90 40 4c
        E 11 90 4c 3f
        E 1 90 26 4e
        E 7 90 4d 39
        E 22 80 40 00
        E 12 80 4c 00
        E 8 80 4d 00
        E 79 80 26 00
        E 96 90 4e 4e
        E 1 90 42 4d
        E 25 80 4e 00
        E 1 90 32 43
        E 15 80 42 00
        E 40 80 32 00
        E 146 90 4c 62
        E 7 90 40 51
        E 25 90 26 4e
        E 14 80 40 00
        E 50 80 4c 00
        E 98 80 26 00
        E 48 90 4e 4c
        E 3 90 42 4a
        E 22 80 4e 00
        E 6 90 32 44
        E 2 80 42 00
        E 68 80 32 00
        E 153 90 26 4f
        E 2 90 4e 69
        E 4 90 42 56
        E 23 80 4e 00
        E 4 80 42 00
        E 145 80 26 00
        E 60 90 4f 59
        E 3 90 43 4f
        E 1 90 32 47
        E 42 80 43 00
        E 20 80 4f 00
        E 75 80 32 00
        E 99 90 42 54
        E 1 90 4e 54
        E 17 90 26 4e
        E 8 80 4e 00
        E 1 80 42 00
        E 157 80 26 00
        E 58 90 4f 5c
        E 5 90 43 54
        E 29 90 32 42
        E 8 80 43 00
        E 47 80 4f 00
        E 72 80 32 00
        E 85 90 42 5b
        E 2 90 4e 5b
        E 12 90 26 50
        E 15 80 4e 00
        E 0 80 42 00
        E 166 80 26 00
        E 57 90 4f 58
        E 6 90 43 4d
        E 11 90 32 3f
        E 21 80 4f 00
        E 3 80 43 00
        E 112 80 32 00
        E 76 90 4e 4e
        E 4 90 42 4c
        E 11 90 26 4e
        E 12 80 4e 00
        E 9 80 42 00
        E 162 80 26 00
        E 47 90 43 59
        E 0 90 4f 5e
        E 27 90 32 40
        E 16 80 43 00
        E 21 80 4f 00
        E 24 80 32 00
        E 147 90 4e 54
        E 3 90 42 4e
        E 10 90 26 4c
        E 16 80 4e 00
        E 6 80 42 00
        E 130 80 26 00
        E 86 90 4f 5d
        E 0 90 43 5a
        E 33 90 32 3f
        E 7 80 43 00
        E 18 80 4f 00
        E 41 80 32 00
        E 126 90 42 4e
        E 2 90 4e 4d
        E 23 90 26 4a
        E 4 80 4e 00
        E 3 80 42 00
        E 176 80 26 00
        E 37 90 43 50
        E 1 90 4f 4f
        E 37 80 43 00
        E 1 90 32 3f
        E 12 80 4f 00
        E 41 80 32 00
        E 133 90 4e 4d
        E 2 90 42 4d
        E 20 90 26 4b
        E 10 80 4e 00
        E 4 80 42 00
        E 159 80 26 00
        E 54 90 4f 5c
        E 4 90 43 4e
        E 11 90 32 3f
        E 25 80 43 00
        E 24 80 4f 00
        E 6 80 32 00
        E 167 90 42 50
        E 1 90 4e 50
        E 4 90 26 48
        E 21 80 4e 00
        E 4 80 42 00
        E 140 80 26 00
        E 71 90 4f 56
        E 1 90 43 52
        E 17 90 32 3e
        E 21 80 43 00
        E 8 80 4f 00
        E 28 80 32 00
        E 157 90 4e 49
        E 3 90 42 49
        E 3 90 26 4d
        E 23 80 4e 00
        E 5 80 42 00
        E 140 80 26 00
        E 51 90 43 50
        E 6 90 4f 4d
        E 27 90 32 3f
        E 17 80 4f 00
        E 14 80 43 00
        E 81 80 32 00
        E 93 90 4e 49
        E 3 90 42 47
        E 5 90 26 49
        E 21 80 4e 00
        E 9 80 42 00
        E 144 80 26 00
        E 70 90 43 4e
        E 1 90 4f 4e
        E 13 90 32 3c
        E 22 80 43 00
        E 12 80 4f 00
        E 22 80 32 00
        E 170 90 42 49
        E 3 90 4e 48
        E 3 90 26 44
        E 24 80 4e 00
        E 1 80 42 00
        E 141 80 26 00
        E 67 90 43 4f
        E 1 90 4f 50
        E 20 90 32 39
        E 19 80 43 00
        E 4 80 4f 00
        E 66 80 32 00
        E 124 90 4e 4a
        E 3 90 42 47
        E 1 90 26 45
        E 24 80 4e 00
        E 8 80 42 00
        E 127 80 26 00
        E 86 90 4f 4b
        E 2 90 43 48
        E 2 90 32 3e
        E 35 80 4f 00
        E 2 80 43 00
        E 24 80 32 00
        E 170 90 42 46
        E 2 90 26 42
        E 4 90 4e 44
        E 27 80 42 00
        E 1 80 4e 00
        E 161 80 26 00
        E 57 90 43 46
        E 2 90 4f 42
        E 16 90 32 3b
        E 19 80 43 00
        E 6 80 4f 00
        E 59 80 32 00
        E 132 90 26 43
        E 2 90 4e 45
        E 2 90 42 43
        E 29 80 4e 00
        E 6 80 42 00
        E 135 80 26 00
        E 75 90 4f 49
        E 1 90 43 47
        E 12 90 32 3d
        E 23 80 4f 00
        E 2 80 43 00
        E 42 80 32 00
        E 154 90 26 45
        E 14 90 4e 3f
        E 1 90 42 40
        E 30 80 4e 00
        E 3 80 42 00
        E 132 80 26 00
        E 68 90 4f 44
        E 3 90 43 42
        E 17 90 32 37
        E 15 80 4f 00
        E 6 80 43 00
        E 42 80 32 00
        E 153 90 42 45
        E 1 90 4e 46
        E 16 90 26 45
        E 12 80 4e 00
        E 6 80 42 00
        E 158 80 26 00
        E 53 90 4f 43
        E 5 90 43 44
        E 27 90 32 38
        E 4 80 4f 00
        E 9 80 43 00
        E 50 80 32 00
        E 143 90 4a 51
        E 2 90 3e 4a
        E 12 90 26 49
        E 20 80 4a 00
        E 2 80 3e 00
        E 119 80 26 00
        E 90 90 40 4f
        E 4 90 4c 4e
        E 17 90 32 2e
        E 15 80 40 00
        E 1 80 4c 00
        E 50 80 32 00
        E 147 90 4a 53
        E 4 90 3e 4c
        E 1 90 26 43
        E 25 80 4a 00
        E 6 80 3e 00
        E 130 80 26 00
        E 72 90 40 59
        E 6 90 4c 4e
        E 18 90 32 30
        E 15 80 4c 00
        E 5 80 40 00
        E 48 80 32 00
        E 140 90 26 48
        E 6 90 4a 5d
        E 2 90 3e 55
        E 30 80 4a 00
        E 2 80 3e 00
        E 139 80 26 00
        E 71 90 4c 5c
        E 1 90 40 55
        E 8 90 32 37
        E 21 80 4c 00
        E 8 80 40 00
        E 55 80 32 00
        E 131 90 4a 68
        E 5 90 3e 56
        E 6 90 26 4a
        E 27 80 3e 00
        E 22 80 4a 00
        E 121 80 26 00
        E 68 90 40 62
        E 0 90 4c 65
        E 21 90 32 3d
        E 34 80 40 00
        E 3 80 4c 00
        E 16 80 32 00
        E 160 90 4c 6c
        E 3 90 26 4b
        E 1 90 40 67
        E 55 80 40 00
        E 21 80 4c 00
        E 137 80 26 00
        E 31 90 42 45
        E 10 90 32 43
        E 5 90 4d 33
        E 17 80 42 00
        E 29 80 4d 00
        E 10 80 32 00
        E 165 90 4c 5d
        E 1 90 40 5e
        E 9 90 26 4f
        E 35 80 40 00
        E 30 80 4c 00
        E 113 80 26 00
        E 64 90 4e 47
        E 3 90 42 45
        E 5 90 32 3a
        E 17 80 4e 00
        E 9 80 42 00
        E 38 80 32 00
        E 156 90 4c 54
        E 2 90 40 4d
        E 3 90 26 4d
        E 37 80 40 00
        E 15 80 4c 00
        E 122 80 26 00
        E 72 90 4e 4c
        E 1 90 42 4b
        E 4 90 32 38
        E 21 80 4e 00
        E 8 80 42 00
        E 44 80 32 00
        E 154 90 4c 61
        E 7 90 40 4f
        E 9 90 26 4c
        E 29 80 40 00
        E 37 80 4c 00
        E 106 80 26 00
        E 73 90 4e 49
        E 1 90 42 47
        E 18 90 32 2f
        E 5 80 4e 00
        E 4 80 42 00
        E 53 80 32 00
        E 134 90 4e 50
        E 5 90 42 4e
        E 11 90 26 4c
        E 21 80 42 00
        E 9 80 4e 00
        E 147 80 26 00
        E 62 90 4f 5d
        E 2 90 43 4e
        E 20 90 32 3e
        E 28 80 43 00
        E 20 80 4f 00
        E 11 80 32 00
        E 161 90 4e 4e
        E 2 90 26 47
        E 5 90 42 4b
        E 19 80 4e 00
        E 10 80 42 00
        E 141 80 26 00
        E 67 90 4f 5a
        E 1 90 43 4f
        E 19 90 32 3e
        E 22 80 43 00
        E 30 80 4f 00
        E 9 80 32 00
        E 150 90 4e 4c
        E 10 90 42 45
        E 15 90 26 45
        E 6 80 4e 00
        E 11 80 42 00
        E 154 80 26 00
        E 51 90 4f 4b
        E 1 90 43 4e
        E 31 90 32 36
        E 0 80 4f 00
        E 8 80 43 00
        E 53 80 32 00
        E 161 90 26 48
        E 206 80 26 00
        E 86 90 32 32
        E 59 80 32 00
        E 157 90 26 4b
        E 16 90 42 4e
        E 30 80 42 00
        E 115 80 26 00
        E 98 90 32 2c
        E 6 90 4f 47
        E 5 90 43 49
        E 34 80 43 00
        E 5 80 4f 00
        E 29 80 32 00
        E 108 90 26 46
        E 52 90 4e 47
        E 0 90 42 45
        E 26 80 4e 00
        E 6 80 42 00
        E 69 80 26 00
        E 121 90 32 3f
        E 5 90 43 50
        E 3 90 4f 4d
        E 33 80 43 00
        E 10 80 4f 00
        E 28 80 32 00
        E 150 90 26 45
        E 13 90 4e 4a
        E 2 90 42 49
        E 23 80 4e 00
        E 6 80 42 00
        E 109 80 26 00
        E 94 90 4f 4e
        E 1 90 43 4c
        E 7 90 32 3b
        E 29 80 43 00
        E 5 80 4f 00
        E 24 80 32 00
        E 168 90 4e 4c
        E 1 90 42 4c
        E 6 90 26 42
        E 19 80 4e 00
        E 3 80 42 00
        E 157 80 26 00
        E 35 90 4f 54
        E 5 90 43 4a
        E 26 80 4f 00
        E 15 90 32 39
        E 4 80 43 00
        E 51 80 32 00
        E 133 90 3e 55
        E 2 90 4a 5b
        E 18 90 26 48
        E 9 80 3e 00
        E 1 80 4a 00
        E 136 80 26 00
        E 73 90 40 4d
        E 10 90 32 36
        E 18 90 4d 25
        E 8 80 40 00
        E 8 90 4c 21
        E 32 80 32 00
        E 4 80 4d 00
        E 13 80 4c 00
        E 125 90 4a 67
        E 4 90 3e 5a
        E 3 90 26 4b
        E 34 80 3e 00
        E 23 80 4a 00
        E 120 80 26 00
        E 64 90 40 5a
        E 2 90 4c 58
        E 21 90 32 34
        E 10 80 4c 00
        E 4 80 40 00
        E 44 80 32 00
        E 149 90 4a 64
        E 3 90 26 4d
        E 2 90 3e 58
        E 37 80 3e 00
        E 2 80 4a 00
        E 127 80 26 00
        E 76 90 40 55
        E 1 90 4c 53
        E 4 90 32 3f
        E 30 80 4c 00
        E 8 80 40 00
        E 37 80 32 00
        E 145 90 26 4d
        E 7 90 4a 59
        E 5 90 3e 4e
        E 36 80 4a 00
        E 1 80 3e 00
        E 127 80 26 00
        E 63 90 4c 5a
        E 7 90 40 4d
        E 27 90 32 42
        E 2 80 4c 00
        E 10 80 40 00
        E 37 80 32 00
        E 161 90 26 4b
        E 34 90 4c 43
        E 8 90 40 35
        E 1 90 3e 3b
        E 31 80 4c 00
        E 15 80 3e 00
        E 1 80 40 00
        E 106 80 26 00
        E 56 90 32 43
        E 6 90 42 4b
        E 5 90 4e 48
        E 23 80 42 00
        E 2 80 4e 00
        E 16 80 32 00
        E 178 90 4c 61
        E 2 90 40 5d
        E 6 90 26 4a
        E 39 80 40 00
        E 35 80 4c 00
        E 99 80 26 00
        E 73 90 32 38
        E 9 90 42 44
        E 3 90 4e 42
        E 27 80 42 00
        E 1 80 4e 00
        E 19 80 32 00
        E 154 90 4c 59
        E 1 90 40 56
        E 11 90 26 4d
        E 30 80 40 00
        E 35 80 4c 00
        E 88 80 26 00
        E 89 90 42 48
        E 5 90 4e 45
        E 1 90 32 2a
        E 23 80 42 00
        E 2 80 4e 00
        E 38 80 32 00
        E 150 90 26 4a
        E 3 90 4c 59
        E 7 90 40 4b
        E 32 80 4c 00
        E 5 80 40 00
        E 102 80 26 00
        E 102 90 4e 48
        E 1 90 42 48
        E 16 90 32 39
        E 9 80 4e 00
        E 4 80 42 00
        E 39 80 32 00
        E 156 90 4e 55
        E 2 90 42 56
        E 10 90 26 4e
        E 32 80 42 00
        E 22 80 4e 00
        E 120 80 26 00
        E 66 90 4f 58
        E 1 90 43 4e
        E 23 90 32 3e
        E 13 80 4f 00
        E 1 80 43 00
        E 37 80 32 00
        E 175 90 42 4c
        E 1 90 4e 4f
        E 5 90 26 4a
        E 20 80 4e 00
        E 1 80 42 00
        E 127 80 26 00
        E 103 90 4f 46
        E 7 90 32 3e
        E 14 90 43 2b
        E 6 90 41 22
        E 9 80 4f 00
        E 31 80 32 00
        E 8 80 41 00
        E 4 80 43 00
        E 144 90 4e 49
        E 2 90 42 49
        E 20 90 26 47
        E 4 80 4e 00
        E 8 80 42 00
        E 138 80 26 00
        E 67 90 4f 4e
        E 7 90 43 49
        E 28 90 32 38
        E 3 80 4f 00
        E 8 80 43 00
        E 40 80 32 00
        E 157 90 42 48
        E 2 90 26 47
        E 1 90 4e 49
        E 26 80 4e 00
        E 1 80 42 00
        E 125 80 26 00
        E 92 90 4f 4b
        E 4 90 43 47
        E 10 90 32 36
        E 23 80 4f 00
        E 7 80 43 00
        E 32 80 32 00
        E 155 90 42 48
        E 3 90 4e 49
        E 7 90 26 43
        E 21 80 4e 00
        E 1 80 42 00
        E 127 80 26 00
        E 85 90 4f 4c
        E 2 90 43 4b
        E 10 90 32 3b
        E 27 80 4f 00
        E 1 80 43 00
        E 31 80 32 00
        E 172 90 4e 44
        E 3 90 42 43
        E 7 90 26 44
        E 18 80 4e 00
        E 6 80 42 00
        E 135 80 26 00
        E 69 90 4f 4a
        E 5 90 43 46
        E 25 90 32 31
        E 7 80 4f 00
        E 7 80 43 00
        E 55 80 32 00
        E 147 90 4e 45
        E 2 90 42 43
        E 9 90 26 48
        E 17 80 4e 00
        E 7 80 42 00
        E 121 80 26 00
        E 86 90 43 4d
        E 5 90 4f 49
        E 22 90 32 39
        E 13 80 43 00
        E 15 80 4f 00
        E 38 80 32 00
        E 166 90 42 43
        E 1 90 4e 43
        E 12 90 26 45
        E 15 80 4e 00
        E 3 80 42 00
        E 141 80 26 00
        E 53 90 4f 34
        E 10 90 43 33
        E 7 90 41 2d
        E 17 90 4d 13
        E 9 80 4f 00
        E 2 90 32 33
        E 16 80 43 00
        E 11 80 4d 00
        E 3 80 41 00
        E 30 80 32 00
        E 134 90 45 53
        E 4 90 26 4b
        E 2 90 51 46
        E 30 80 45 00
        E 16 80 51 00
        E 139 80 26 00
        E 62 90 47 45
        E 14 90 53 38
        E 11 90 32 3c
        E 2 90 54 24
        E 11 90 48 22
        E 5 80 47 00
        E 13 80 53 00
        E 19 80 54 00
        E 12 80 32 00
        E 1 80 48 00
        E 131 90 45 54
        E 2 90 51 53
        E 2 90 26 4d
        E 34 80 45 00
        E 11 80 51 00
        E 126 80 26 00
        E 63 90 47 58
        E 5 90 53 50
        E 21 90 32 33
        E 16 80 53 00
        E 28 80 47 00
        E 17 80 32 00
        E 145 90 26 4b
        E 7 90 51 56
        E 1 90 45 56
        E 53 80 45 00
        E 17 80 51 00
        E 97 80 26 00
        E 81 90 47 54
        E 2 90 32 3f
        E 6 90 53 4e
        E 30 80 47 00
        E 4 80 53 00
        E 38 80 32 00
        E 147 90 26 47
        E 9 90 51 58
        E 3 90 45 4f
        E 36 80 45 00
        E 12 80 51 00
        E 108 80 26 00
        E 87 90 53 4d
        E 10 90 32 39
        E 2 90 45 47
        E 2 90 47 45
        E 33 80 45 00
        E 1 80 47 00
        E 24 80 32 00
        E 5 80 53 00
        E 152 90 26 4d
        E 25 90 48 60
        E 5 90 54 5c
        E 27 80 48 00
        E 2 80 54 00
        E 132 80 26 00
        E 53 90 26 46
        E 9 90 54 6a
        E 24 90 48 39
        E 17 80 54 00
        E 23 80 48 00
        E 48 80 26 00
        E 133 90 47 52
        E 12 90 53 49
        E 22 80 47 00
        E 14 80 53 00
        E 165 90 26 4a
        E 31 90 47 4c
        E 44 80 47 00
        E 57 80 26 00
        E 135 90 54 6a
        E 1 90 48 65
        E 13 90 26 47
        E 62 80 48 00
        E 3 80 54 00
        E 10 80 26 00
        E 395 90 26 50
        E 4 90 48 62
        E 2 90 54 5e
        E 73 80 54 00
        E 9 80 48 00
        E 23 80 26 00
        E 2376 90 45 58
        E 1 90 51 61
        E 8 90 26 50
        E 39 80 45 00
        E 33 80 51 00
        E 87 80 26 00
        E 45 90 47 5e
        E 3 90 53 5a
        E 13 90 32 38
        E 43 80 53 00
        E 30 80 47 00
        E 50 80 32 00
        E 84 90 26 47
        E 26 90 45 4e
        E 10 90 51 48
        E 22 80 45 00
        E 14 80 51 00
        E 79 80 26 00
        E 78 90 47 4e
        E 2 90 53 4e
        E 1 90 32 34
        E 33 80 53 00
        E 1 80 47 00
        E 27 80 32 00
        E 156 90 51 5a
        E 3 90 45 58
        E 12 90 26 48
        E 29 80 45 00
        E 15 80 51 00
        E 98 80 26 00
        E 78 90 47 55
        E 4 90 53 4e
        E 10 90 32 34
        E 25 80 53 00
        E 5 80 47 00
        E 30 80 32 00
        E 170 90 45 4e
        E 7 90 26 3e
        E 3 90 51 42
        E 26 80 45 00
        E 16 80 51 00
        E 8 80 26 00
        E 358 90 26 4a
        E 3 90 45 5d
        E 1 90 51 60
        E 76 80 45 00
        E 10 80 51 00
        E 43 80 26 00
        E 112 90 32 2f
        E 3 90 53 4c
        E 1 90 47 4a
        E 34 80 53 00
        E 13 80 47 00
        E 21 80 32 00
        E 156 90 26 4a
        E 19 90 51 55
        E 3 90 45 54
        E 35 80 45 00
        E 3 80 51 00
        E 86 80 26 00
        E 113 90 47 50
        E 3 90 32 3c
        E 7 90 53 42
        E 20 90 54 2d
        E 15 80 47 00
        E 4 80 53 00
        E 13 80 32 00
        E 22 80 54 00
        E 145 90 26 4d
        E 7 90 45 5a
        E 2 90 51 58
        E 42 80 45 00
        E 8 80 51 00
        E 75 80 26 00
        E 108 90 32 3f
        E 7 90 47 56
        E 3 90 53 53
        E 43 80 53 00
        E 17 80 47 00
        E 18 80 32 00
        E 160 90 26 4b
        E 8 90 51 4e
        E 15 90 45 46
        E 25 80 51 00
        E 8 80 45 00
        E 86 80 26 00
        E 110 90 47 60
        E 3 90 53 59
        E 13 90 32 34
        E 33 80 47 00
        E 21 80 32 00
        E 6 80 53 00
        E 147 90 26 4c
        E 51 90 54 5d
        E 1 90 56 4b
        E 1 90 48 4a
        E 6 90 4a 49
        E 23 80 54 00
        E 1 80 56 00
        E 7 80 4a 00
        E 2 80 48 00
        E 99 80 26 00
        E 95 90 32 38
        E 5 90 47 54
        E 4 90 53 52
        E 29 80 47 00
        E 8 80 53 00
        E 20 80 32 00
        E 143 90 26 4a
        E 31 90 48 68
        E 6 90 54 5a
        E 41 80 54 00
        E 18 80 48 00
        E 67 80 26 00
        E 106 90 47 54
        E 2 90 32 3a
        E 1 90 53 4e
        E 32 80 47 00
        E 6 80 53 00
        E 28 80 32 00
        E 154 90 26 4c
        E 21 90 48 56
        E 3 90 54 54
        E 30 80 54 00
        E 1 80 48 00
        E 120 80 26 00
        E 70 90 53 54
        E 4 90 47 53
        E 27 90 32 39
        E 10 80 47 00
        E 1 80 53 00
        E 46 80 32 00
        E 148 90 26 4a
        E 20 90 48 5d
        E 3 90 54 5e
        E 30 80 54 00
        E 7 80 48 00
        E 83 80 26 00
        E 116 90 53 48
        E 6 90 32 33
        E 12 90 47 34
        E 15 80 53 00
        E 29 80 47 00
        E 2 80 32 00
        E 138 90 26 4b
        E 20 90 48 5e
        E 2 90 54 61
        E 37 80 48 00
        E 14 80 54 00
        E 110 80 26 00
        E 72 90 4a 5d
        E 1 90 56 60
        E 7 90 32 33
        E 27 80 56 00
        E 3 80 4a 00
        E 37 80 32 00
        E 139 90 26 4a
        E 26 90 48 5b
        E 3 90 54 5a
        E 29 80 48 00
        E 2 80 54 00
        E 97 80 26 00
        E 107 90 32 3a
        E 23 90 4a 43
        E 6 90 4c 49
        E 1 90 58 36
        E 5 90 56 47
        E 24 80 4a 00
        E 1 80 4c 00
        E 4 80 32 00
        E 7 80 56 00
        E 4 80 58 00
        E 151 90 26 4a
        E 27 90 48 5c
        E 1 90 54 65
        E 50 80 48 00
        E 21 80 54 00
        E 89 80 26 00
        E 55 90 32 41
        E 41 90 4a 51
        E 21 90 56 45
        E 12 90 58 1b
        E 2 80 4a 00
        E 21 80 56 00
        E 15 80 32 00
        E 3 80 58 00
        E 123 90 26 48
        E 32 90 48 50
        E 1 90 54 56
        E 31 80 48 00
        E 1 80 54 00
        E 102 80 26 00
        E 99 90 32 36
        E 13 90 4a 60
        E 2 90 56 62
        E 37 80 56 00
        E 1 80 4a 00
        E 5 80 32 00
        E 179 90 26 4d
        E 17 90 4a 60
        E 1 90 56 63
        E 29 80 4a 00
        E 6 80 56 00
        E 127 80 26 00
        E 56 90 4c 55
        E 5 90 58 51
        E 5 90 32 39
        E 27 80 4c 00
        E 1 80 58 00
        E 42 80 32 00
        E 145 90 26 49
        E 18 90 4a 5b
        E 10 90 56 4d
        E 21 80 4a 00
        E 12 80 56 00
        E 105 80 26 00
        E 77 90 32 38
        E 25 90 4c 52
        E 15 90 58 42
        E 11 90 59 39
        E 16 80 4c 00
        E 5 80 32 00
        E 6 80 58 00
        E 15 80 59 00
        E 126 90 26 49
        E 44 90 56 53
        E 4 90 4a 4d
        E 30 80 56 00
        E 2 80 4a 00
        E 91 80 26 00
        E 89 90 32 35
        E 13 90 4c 4e
        E 5 90 58 4d
        E 31 80 4c 00
        E 2 80 58 00
        E 15 80 32 00
        E 152 90 26 48
        E 30 90 56 4b
        E 4 90 4a 4a
        E 31 80 56 00
        E 2 80 4a 00
        E 91 80 26 00
        E 100 90 32 38
        E 25 90 4c 47
        E 1 90 58 4a
        E 32 80 58 00
        E 1 80 4c 00
        E 5 80 32 00
        E 141 90 26 45
        E 44 90 56 4d
        E 5 90 4a 4b
        E 33 80 56 00
        E 5 80 4a 00
        E 73 80 26 00
        E 109 90 32 3b
        E 26 90 4c 4e
        E 9 90 58 4b
        E 26 80 4c 00
        E 6 80 32 00
        E 2 80 58 00
        E 143 90 26 45
        E 55 90 56 46
        E 1 90 4a 45
        E 33 80 4a 00
        E 2 80 56 00
        E 99 80 26 00
        E 70 90 32 2b
        E 22 90 4c 4e
        E 9 90 58 4b
        E 29 80 4c 00
        E 6 80 58 00
        E 7 80 32 00
        E 170 90 26 45
        E 31 90 4a 4c
        E 1 90 56 4c
        E 30 80 4a 00
        E 2 80 56 00
        E 119 80 26 00
        E 76 90 4c 4f
        E 9 90 32 38
        E 7 90 58 40
        E 19 80 4c 00
        E 19 80 58 00
        E 12 80 32 00
        E 159 90 26 4a
        E 22 90 4a 4f
        E 1 90 56 4e
        E 30 80 4a 00
        E 3 80 56 00
        E 95 80 26 00
        E 111 90 4c 43
        E 1 90 32 36
        E 41 80 4c 00
        E 14 80 32 00
        E 172 90 26 4b
        E 13 90 45 5d
        E 1 90 51 5c
        E 38 80 51 00
        E 1 80 45 00
        E 106 80 26 00
        E 64 90 32 34
        E 42 90 47 49
        E 13 90 53 40
        E 11 80 32 00
        E 15 80 47 00
        E 11 80 53 00
        E 141 90 26 48
        E 42 90 51 52
        E 2 90 45 4f
        E 38 80 45 00
        E 1 80 51 00
        E 105 80 26 00
        E 64 90 32 34
        E 29 90 47 4e
        E 4 90 53 4c
        E 37 80 53 00
        E 15 80 47 00
        E 3 80 32 00
        E 179 90 45 4e
        E 1 90 51 4d
        E 1 90 26 4a
        E 35 80 45 00
        E 3 80 51 00
        E 122 80 26 00
        E 68 90 32 39
        E 4 90 47 4d
        E 3 90 53 4e
        E 41 80 53 00
        E 7 80 47 00
        E 8 80 32 00
        E 171 90 26 49
        E 21 90 45 4d
        E 2 90 51 4b
        E 33 80 45 00
        E 3 80 51 00
        E 98 80 26 00
        E 100 90 53 4a
        E 13 90 32 33
        E 8 90 45 37
        E 0 90 47 2e
        E 20 80 53 00
        E 24 80 45 00
        E 1 80 32 00
        E 3 80 47 00
        E 153 90 26 4d
        E 23 90 48 5e
        E 1 90 54 62
        E 51 80 48 00
        E 17 80 54 00
        E 98 80 26 00
        E 76 90 32 38
        E 6 90 53 4b
        E 6 90 47 48
        E 30 80 53 00
        E 3 80 47 00
        E 19 80 32 00
        E 152 90 26 4a
        E 28 90 54 63
        E 1 90 48 59
        E 42 80 48 00
        E 5 80 54 00
        E 81 80 26 00
        E 115 90 32 36
        E 4 90 47 4b
        E 3 90 53 48
        E 30 80 47 00
        E 7 80 53 00
        E 20 80 32 00
        E 156 90 26 48
        E 9 90 48 55
        E 1 90 54 5c
        E 49 80 48 00
        E 6 80 54 00
        E 80 80 26 00
        E 107 90 53 45
        E 2 90 47 47
        E 21 90 32 2f
        E 12 80 47 00
        E 2 80 53 00
        E 44 80 32 00
        E 146 90 26 49
        E 9 90 54 52
        E 2 90 48 4d
        E 41 80 48 00
        E 3 80 54 00
        E 102 80 26 00
        E 115 90 32 33
        E 14 90 47 21
        E 40 80 32 00
        E 9 80 47 00
        E 141 90 26 4b
        E 19 90 4a 63
        E 2 90 56 6c
        E 39 80 4a 00
        E 32 80 56 00
        E 87 80 26 00
        E 88 90 32 3f
        E 4 90 4c 4f
        E 5 90 58 53
        E 28 80 4c 00
        E 8 80 58 00
        E 8 80 32 00
        E 166 90 26 4a
        E 23 90 56 50
        E 1 90 4a 50
        E 43 80 56 00
        E 11 80 4a 00
        E 86 80 26 00
        E 94 90 4c 54
        E 4 90 58 59
        E 1 90 32 32
        E 46 80 58 00
        E 7 80 4c 00
        E 5 80 32 00
        E 151 90 26 4a
        E 27 90 4a 56
        E 3 90 56 4e
        E 34 80 4a 00
        E 6 80 56 00
        E 104 80 26 00
        E 78 90 4c 53
        E 1 90 58 58
        E 22 90 32 2e
        E 33 80 58 00
        E 5 80 4c 00
        E 31 80 32 00
        E 143 90 26 47
        E 8 90 4a 51
        E 1 90 56 4e
        E 32 80 4a 00
        E 6 80 56 00
        E 100 80 26 00
        E 98 90 32 38
        E 2 90 4c 4d
        E 6 90 58 4d
        E 34 80 4c 00
        E 1 80 58 00
        E 21 80 32 00
        E 179 90 26 47
        E 1 90 4a 4d
        E 1 90 56 4c
        E 30 80 4a 00
        E 7 80 56 00
        E 136 80 26 00
        E 60 90 4c 4d
        E 4 90 32 35
        E 2 90 58 4b
        E 30 80 4c 00
        E 3 80 58 00
        E 29 80 32 00
        E 152 90 26 49
        E 19 90 56 4d
        E 4 90 4a 4b
        E 32 80 56 00
        E 0 80 4a 00
        E 94 80 26 00
        E 106 90 4c 4b
        E 1 90 32 34
        E 8 90 58 49
        E 30 80 4c 00
        E 6 80 58 00
        E 33 80 32 00
        E 154 90 26 47
        E 4 90 56 4b
        E 5 90 4a 48
        E 33 80 56 00
        E 1 80 4a 00
        E 113 80 26 00
        E 81 90 4c 4e
        E 6 90 58 4d
        E 12 90 32 29
        E 20 80 4c 00
        E 2 80 58 00
        E 44 80 32 00
        E 157 90 56 4c
        E 0 90 26 47
        E 1 90 4a 4c
        E 32 80 4a 00
        E 0 80 56 00
        E 111 80 26 00
        E 91 90 4c 4c
        E 1 90 58 4d
        E 22 90 32 37
        E 7 80 58 00
        E 7 80 4c 00
        E 47 80 32 00
        E 165 90 26 49
        E 6 90 45 54
        E 1 90 51 5e
        E 36 80 51 00
        E 15 80 45 00
        E 126 80 26 00
        E 63 90 43 4e
        E 14 90 32 2f
        E 12 90 4f 2c
        E 12 80 43 00
        E 34 80 32 00
        E 5 80 4f 00
        E 135 90 26 4b
        E 22 90 51 60
        E 10 90 45 47
        E 69 80 45 00
        E 1 80 51 00
        E 95 80 26 00
        E 68 90 32 38
        E 5 90 43 4e
        E 3 90 4f 4c
        E 34 80 43 00
        E 5 80 4f 00
        E 15 80 32 00
        E 151 90 26 4b
        E 15 90 51 63
        E 2 90 45 5b
        E 46 80 45 00
        E 12 80 51 00
        E 78 80 26 00
        E 99 90 43 4e
        E 7 90 32 34
        E 1 90 4f 47
        E 26 80 43 00
        E 12 80 4f 00
        E 21 80 32 00
        E 163 90 26 4b
        E 8 90 51 53
        E 1 90 45 4f
        E 41 80 51 00
        E 8 80 45 00
        E 119 80 26 00
        E 68 90 4f 4d
        E 1 90 43 4c
        E 20 90 32 2d
        E 15 80 43 00
        E 9 80 4f 00
        E 32 80 32 00
        E 139 90 26 4c
        E 25 90 51 50
        E 2 90 45 4e
        E 38 80 45 00
        E 10 80 51 00
        E 95 80 26 00
        E 91 90 53 4e
        E 3 90 47 4d
        E 7 90 32 2c
        E 27 80 53 00
        E 5 80 47 00
        E 34 80 32 00
        E 147 90 26 49
        E 18 90 51 4d
        E 6 90 45 49
        E 34 80 51 00
        E 7 80 45 00
        E 92 80 26 00
        E 94 90 32 3b
        E 15 90 47 53
        E 3 90 53 4d
        E 42 80 53 00
        E 6 80 32 00
        E 2 80 47 00
        E 188 90 51 4e
        E 2 90 45 4f
        E 2 90 26 49
        E 32 80 45 00
        E 16 80 51 00
        E 112 80 26 00
        E 71 90 47 53
        E 3 90 53 50
        E 15 90 32 30
        E 24 80 47 00
        E 5 80 53 00
        E 28 80 32 00
        E 158 90 26 49
        E 12 90 51 4e
        E 9 90 45 4d
        E 40 80 45 00
        E 14 80 51 00
        E 81 80 26 00
        E 115 90 47 45
        E 2 90 53 48
        E 28 90 32 36
        E 6 80 53 00
        E 2 80 47 00
        E 48 80 32 00
        E 146 90 26 49
        E 5 90 4e 50
        E 11 90 42 4a
        E 31 80 42 00
        E 36 80 4e 00
        E 97 80 26 00
        E 85 90 32 38
        E 2 90 4f 47
        E 3 90 43 3f
        E 31 80 4f 00
        E 10 80 43 00
        E 13 80 32 00
        E 175 90 4e 48
        E 7 90 26 47
        E 3 90 42 3f
        E 17 80 4e 00
        E 16 80 42 00
        E 116 80 26 00
        E 95 90 43 40
        E 1 90 4f 38
        E 5 90 32 36
        E 34 80 43 00
        E 7 80 4f 00
        E 13 80 32 00
        E 157 90 4e 4d
        E 5 90 42 4b
        E 23 80 4e 00
        E 8 90 26 43
        E 2 80 42 00
        E 157 80 26 00
        E 59 90 4f 46
        E 6 90 43 41
        E 30 80 4f 00
        E 8 90 32 26
        E 1 80 43 00
        E 73 80 32 00
        E 108 90 4e 4b
        E 5 90 42 48
        E 15 90 26 48
        E 13 80 4e 00
        E 6 80 42 00
        E 91 80 26 00
        E 112 90 4f 52
        E 4 90 43 4e
        E 21 90 32 3b
        E 18 80 43 00
        E 2 80 4f 00
        E 31 80 32 00
        E 167 90 4e 4b
        E 1 90 42 4c
        E 17 90 26 49
        E 10 80 4e 00
        E 2 80 42 00
        E 123 80 26 00
        E 83 90 4f 53
        E 4 90 43 4d
        E 37 80 43 00
        E 10 80 4f 00
        E 11 90 32 29
        E 66 80 32 00
        E 115 90 4e 4c
        E 2 90 42 4b
        E 27 80 4e 00
        E 5 90 26 45
        E 1 80 42 00
        E 164 80 26 00
        E 31 90 4f 53
        E 12 90 43 44
        E 26 80 4f 00
        E 11 80 43 00
        E 15 90 32 2d
        E 61 80 32 00
        E 122 90 4e 4b
        E 1 90 42 49
        E 8 90 26 4a
        E 18 80 4e 00
        E 7 80 42 00
        E 145 80 26 00
        E 55 90 4f 4c
        E 3 90 43 47
        E 12 90 32 37
        E 17 80 4f 00
        E 10 80 43 00
        E 29 80 32 00
        E 161 90 4e 4c
        E 1 90 26 49
        E 1 90 42 4b
        E 26 80 4e 00
        E 8 80 42 00
        E 115 80 26 00
        E 85 90 4f 4a
        E 4 90 43 47
        E 28 80 4f 00
        E 9 90 32 33
        E 1 80 43 00
        E 58 80 32 00
        E 127 90 3e 53
        E 1 90 4a 5a
        E 15 90 26 47
        E 20 80 3e 00
        E 3 80 4a 00
        E 120 80 26 00
        E 88 90 4c 4f
        E 6 90 40 4b
        E 2 90 32 2e
        E 26 80 4c 00
        E 10 80 40 00
        E 23 80 32 00
        E 164 90 4a 53
        E 4 90 3e 4c
        E 15 90 26 45
        E 16 80 4a 00
        E 4 80 3e 00
        E 137 80 26 00
        E 62 90 40 4d
        E 0 90 4c 4d
        E 11 90 32 34
        E 27 80 4c 00
        E 5 80 40 00
        E 29 80 32 00
        E 150 90 26 49
        E 5 90 4a 54
        E 9 90 3e 4d
        E 39 80 3e 00
        E 20 80 4a 00
        E 67 80 26 00
        E 110 90 4c 4d
        E 1 90 40 4a
        E 14 90 32 34
        E 19 80 4c 00
        E 7 80 40 00
        E 27 80 32 00
        E 159 90 4a 5c
        E 8 90 3e 4d
        E 3 90 26 4a
        E 37 80 3e 00
        E 26 80 4a 00
        E 85 80 26 00
        E 93 90 4c 5b
        E 3 90 40 51
        E 21 90 32 2b
        E 26 80 40 00
        E 1 80 4c 00
        E 29 80 32 00
        E 156 90 26 4c
        E 16 90 40 5e
        E 1 90 4c 60
        E 69 80 40 00
        E 9 80 4c 00
        E 83 80 26 00
        E 77 90 42 48
        E 4 90 4d 4c
        E 20 90 32 20
        E 6 80 42 00
        E 3 80 4d 00
        E 51 80 32 00
        E 175 90 26 48
        E 4 90 40 5b
        E 1 90 4c 5b
        E 34 80 40 00
        E 9 80 4c 00
        E 100 80 26 00
        E 93 90 4e 4c
        E 4 90 42 49
        E 21 80 4e 00
        E 10 80 42 00
        E 4 90 32 1f
        E 57 80 32 00
        E 151 90 4c 61
        E 5 90 40 4e
        E 9 90 26 4b
        E 21 80 4c 00
        E 4 80 40 00
        E 112 80 26 00
        E 86 90 4e 4c
        E 2 90 42 4b
        E 23 80 4e 00
        E 7 80 42 00
        E 16 90 32 2b
        E 62 80 32 00
        E 135 90 4c 55
        E 2 90 40 4e
        E 12 90 26 4b
        E 22 80 40 00
        E 2 80 4c 00
        E 97 80 26 00
        E 101 90 4e 4d
        E 2 90 42 4b
        E 22 90 32 3b
        E 1 80 4e 00
        E 8 80 42 00
        E 41 80 32 00
        E 168 90 26 4d
        E 7 90 4e 62
        E 5 90 42 51
        E 32 80 42 00
        E 17 80 4e 00
        E 75 80 26 00
        E 110 90 43 55
        E 14 90 4f 47
        E 9 90 32 38
        E 23 80 43 00
        E 9 80 4f 00
        E 18 80 32 00
        E 161 90 26 4c
        E 6 90 4e 55
        E 1 90 42 54
        E 40 80 42 00
        E 26 80 4e 00
        E 70 80 26 00
        E 118 90 4f 52
        E 0 90 43 53
        E 9 90 32 3e
        E 31 80 43 00
        E 18 80 32 00
        E 4 80 4f 00
        E 170 90 4e 4c
        E 4 90 42 4a
        E 2 90 26 4e
        E 21 80 4e 00
        E 9 80 42 00
        E 109 80 26 00
        E 106 90 4f 4e
        E 2 90 32 40
        E 2 90 43 4e
        E 42 80 43 00
        E 11 80 32 00
        E 9 80 4f 00
        E 163 90 4e 4c
        E 7 90 42 4a
        E 2 90 26 4b
        E 22 80 4e 00
        E 8 80 42 00
        E 79 80 26 00
        E 138 90 4f 4b
        E 3 90 43 4b
        E 2 90 32 42
        E 34 80 43 00
        E 12 80 4f 00
        E 3 80 32 00
        E 185 90 4e 4a
        E 5 90 42 46
        E 4 90 26 47
        E 21 80 4e 00
        E 9 80 42 00
        E 25 80 26 00
        E 195 90 4f 4c
        E 1 90 32 3f
        E 4 90 43 48
        E 33 80 4f 00
        E 3 80 43 00
        E 10 80 32 00
        E 167 90 4e 4b
        E 5 90 42 4a
        E 17 90 26 4a
        E 12 80 4e 00
        E 7 80 42 00
        E 28 80 26 00
        E 189 90 4f 4e
        E 1 90 43 4e
        E 4 90 32 43
        E 32 80 43 00
        E 4 80 4f 00
        E 11 80 32 00
        E 189 90 4e 4c
        E 2 90 42 4a
        E 7 90 26 4a
        E 19 80 4e 00
        E 8 80 42 00
        E 15 80 26 00
        E 197 90 32 43
        E 15 90 4f 46
        E 2 90 43 45
        E 31 80 32 00
        E 3 80 4f 00
        E 1 80 43 00
        E 176 90 42 4c
        E 1 90 4e 4b
        E 29 90 26 4a
        E 2 80 4e 00
        E 3 80 42 00
        E 38 80 26 00
        E 190 90 4f 4a
        E 3 90 43 47
        E 3 90 32 3f
        E 27 80 4f 00
        E 7 80 43 00
        E 14 80 32 00
        E 184 90 4e 4b
        E 2 90 26 4d
        E 4 90 42 47
        E 19 80 4e 00
        E 8 80 26 00
        E 2 80 42 00
        E 3716 90 26 4d
        E 2 90 1a 45
        E 29 80 26 00
        E 5 80 1a 00
        E 185 90 26 4e
        E 7 90 32 50
        E 31 80 32 00
        E 34 80 26 00
        E 199 90 26 3e
        E 0 90 1a 3d
        E 40 80 26 00
        E 1 80 1a 00
        E 209 90 32 46
        E 7 90 26 49
        E 29 80 32 00
        E 5 80 26 00
        E 214 90 1a 4d
        E 7 90 26 46
        E 22 80 1a 00
        E 12 80 26 00
        E 479 90 1a 53
        E 3 90 26 44
        E 24 80 1a 00
        E 10 80 26 00
        E 213 90 32 4e
        E 22 90 26 38
        E 9 80 32 00
        E 37 80 26 00
        E 172 90 26 4b
        E 0 90 1a 53
        E 28 80 1a 00
        E 3 80 26 00
        E 217 90 32 4b
        E 11 90 26 48
        E 21 80 32 00
        E 13 80 26 00
        E 209 90 18 2f
        E 55 80 18 00
        E 182 90 32 4b
        E 12 90 26 44
        E 20 80 32 00
        E 16 80 26 00
        E 194 90 26 46
        E 1 90 1a 53
        E 26 80 1a 00
        E 7 80 26 00
        E 232 90 32 4a
        E 18 90 26 3c
        E 15 80 32 00
        E 30 80 26 00
        E 165 90 1a 50
        E 10 90 26 3f
        E 17 80 1a 00
        E 24 80 26 00
        E 205 90 32 44
        E 11 90 26 3d
        E 26 80 32 00
        E 16 80 26 00
        E 175 90 26 4d
        E 4 90 1a 5b
        E 26 80 1a 00
        E 1 80 26 00
        E 222 90 32 48
        E 13 90 26 44
        E 22 80 32 00
        E 15 80 26 00
        E 181 90 26 4e
        E 3 90 1a 59
        E 26 80 1a 00
        E 3 80 26 00
        E 218 90 32 4c
        E 18 90 26 40
        E 13 80 32 00
        E 27 80 26 00
        E 201 90 18 4f
        E 3 90 24 41
        E 26 80 18 00
        E 11 80 24 00
        E 219 90 26 3f
        E 41 80 26 00
        E 180 90 26 4b
        E 4 90 1a 4e
        E 28 80 1a 00
        E 1 80 26 00
        E 232 90 32 4d
        E 16 90 26 46
        E 15 80 32 00
        E 18 80 26 00
        E 183 90 1a 63
        E 6 90 26 4d
        E 20 80 1a 00
        E 10 80 26 00
        E 215 90 32 50
        E 9 90 26 48
        E 20 80 32 00
        E 13 80 26 00
        E 189 90 26 4f
        E 6 90 1a 4b
        E 25 80 26 00
        E 7 80 1a 00
        E 224 90 32 4b
        E 3 90 26 4e
        E 30 80 26 00
        E 0 80 32 00
        E 186 90 26 53
        E 22 90 1a 37
        E 7 80 26 00
        E 3 90 1c 3c
        E 37 80 1a 00
        E 8 80 1c 00
        E 169 90 32 5d
        E 7 90 26 60
        E 20 80 32 00
        E 7 80 26 00
        E 215 90 1a 61
        E 4 90 26 49
        E 20 80 1a 00
        E 13 80 26 00
        E 218 90 32 4d
        E 6 90 26 4c
        E 24 80 32 00
        E 6 80 26 00
        E 247 b0 40 00
        E 1440 b0 7b 00
        CCINTERP 32
        CHASE_CC_TAKEOFFS 1
        GUID {5BF1B24C-876F-6046-94C3-166C1A7B14E4}
        IGNTEMPO 0 120 4 4
        SRCCOLOR 70
        VELLANE -1 100 0
        VELLANE 64 100 0
        CFGEDITVIEW -24089.578412 0.001653 38 12 0 -1 0 0 0 0.5
        KEYSNAP 0
        TRACKSEL 0
        EVTFILTER 0 -1 -1 -1 -1 0 0 0 0 -1 -1 -1 -1 0 -1 0 -1 -1
        CFGEDIT 1 1 0 1 0 0 1 1 1 1 1 0.125 303 395 1246 921 0 0 0 0 0 0 0 0 0 0.5 0 0 1 64
      >
    >
  >
  <TRACK {8385F0AC-78C1-AB4A-AE65-E7B4ABF8723A}
    NAME "Piano - wip"
    PEAKCOL 16576
    BEAT -1
    AUTOMODE 0
    VOLPAN 1 0 -1 -1 1
    MUTESOLO 1 0 0
    IPHASE 0
    PLAYOFFS 0 1
    ISBUS 0 0
    BUSCOMP 0 0 0 0 0
    SHOWINMIX 0 0.6667 0.5 0 0.5 0 -1 0
    FREEMODE 0
    SEL 0
    REC 0 4096 1 0 0 0 0
    VU 2
    TRACKHEIGHT 0 0 0 0 0 0
    INQ 0 0 0 0.5 100 0 0 100
    NCHAN 2
    FX 1
    TRACKID {8385F0AC-78C1-AB4A-AE65-E7B4ABF8723A}
    PERF 0
    MIDIOUT -1
    MAINSEND 1 0
    <FXCHAIN
      WNDRECT 32 351 649 672
      SHOW 0
      LASTSEL 0
      DOCKED 0
      BYPASS 0 0 0
      <VST "VST: ReaControlMIDI (Cockos)" reacontrolMIDI.vst.dylib 0 "" 1919118692<56535472636D64726561636F6E74726F> ""
        ZG1jcu5e7f4AAAAAAAAAAO8AAAABAAAAAAAQAA==
        /////wAAAAAAAAAAAAAAAAkAAAAMAAAAAQAAAP8/AAAAIAAAACAAAAAAAAA+AAAAL1VzZXJzL2FuZHkvTGlicmFyeS9BcHBsaWNhdGlvbiBTdXBwb3J0L1JFQVBFUi9E
        YXRhL0dNLnJlYWJhbmsAAAAAAAAAAAAAAAAAAAAAAAAAAAAAAAAAAAAAAAAAAAAAAAABAAAAAAAAAAAAAAAAAAAAAAAAAAAAAAAAAAAAAAYAAABNYWpvcgANAAAAMTAy
        MDM0MDUwNjA3AAEAAAAAAAAAAAAAAAAKAAAADQAAAAEAAAAAAAAAAAAAAAAAAAA=
        AAAQAAAA
      >
      FLOATPOS 0 0 0 0
      FXID {D01EA9ED-AB25-4148-BDE7-4147DDA71A65}
      WAK 0 0
    >
  >
  <TRACK {EC963B8D-D93B-554E-BF42-1565B233A0D6}
    NAME "Piano - high"
    PEAKCOL 16576
    BEAT -1
    AUTOMODE 0
    VOLPAN 1 0 -1 -1 1
    MUTESOLO 1 0 0
    IPHASE 0
    PLAYOFFS 0 1
    ISBUS 0 0
    BUSCOMP 0 0 0 0 0
    SHOWINMIX 0 0.6667 0.5 0 0.5 0 -1 0
    FREEMODE 0
    SEL 0
    REC 0 4096 1 0 0 0 0
    VU 2
    TRACKHEIGHT 0 0 0 0 0 0
    INQ 0 0 0 0.5 100 0 0 100
    NCHAN 2
    FX 1
    TRACKID {EC963B8D-D93B-554E-BF42-1565B233A0D6}
    PERF 0
    MIDIOUT -1
    MAINSEND 1 0
    <FXCHAIN
      WNDRECT 32 351 649 672
      SHOW 0
      LASTSEL 0
      DOCKED 0
      BYPASS 0 0 0
      <VST "VST: ReaControlMIDI (Cockos)" reacontrolMIDI.vst.dylib 0 "" 1919118692<56535472636D64726561636F6E74726F> ""
        ZG1jcu5e7f4AAAAAAAAAAO8AAAABAAAAAAAQAA==
        /////wAAAAAAAAAAAAAAAAkAAAAMAAAAAQAAAP8/AAAAIAAAACAAAAAAAAA+AAAAL1VzZXJzL2FuZHkvTGlicmFyeS9BcHBsaWNhdGlvbiBTdXBwb3J0L1JFQVBFUi9E
        YXRhL0dNLnJlYWJhbmsAAAAAAAAAAAAAAAAAAAAAAAAAAAAAAAAAAAAAAAAAAAAAAAABAAAAAAAAAAAAAAAAAAAAAAAAAAAAAAAAAAAAAAYAAABNYWpvcgANAAAAMTAy
        MDM0MDUwNjA3AAEAAAAAAAAAAAAAAAAKAAAADQAAAAEAAAAAAAAAAAAAAAAAAAA=
        AAAQAAAA
      >
      FLOATPOS 0 0 0 0
      FXID {55A2327E-83F4-704E-AA4C-59E1CEFEBC38}
      WAK 0 0
    >
  >
  <TRACK {22DA44E9-5040-8541-B33F-92C5EA5214D0}
    NAME "Piano - high [1]"
    PEAKCOL 16576
    BEAT -1
    AUTOMODE 0
    VOLPAN 1 0 -1 -1 1
    MUTESOLO 1 0 0
    IPHASE 0
    PLAYOFFS 0 1
    ISBUS 0 0
    BUSCOMP 0 0 0 0 0
    SHOWINMIX 0 0.6667 0.5 0 0.5 0 -1 0
    FREEMODE 0
    SEL 0
    REC 0 4096 1 0 0 0 0
    VU 2
    TRACKHEIGHT 0 0 0 0 0 0
    INQ 0 0 0 0.5 100 0 0 100
    NCHAN 2
    FX 1
    TRACKID {22DA44E9-5040-8541-B33F-92C5EA5214D0}
    PERF 0
    MIDIOUT -1
    MAINSEND 1 0
    <FXCHAIN
      WNDRECT 32 351 649 672
      SHOW 0
      LASTSEL 0
      DOCKED 0
      BYPASS 0 0 0
      <VST "VST: ReaControlMIDI (Cockos)" reacontrolMIDI.vst.dylib 0 "" 1919118692<56535472636D64726561636F6E74726F> ""
        ZG1jcu5e7f4AAAAAAAAAAO8AAAABAAAAAAAQAA==
        /////wAAAAAAAAAAAAAAAAkAAAAMAAAAAQAAAP8/AAAAIAAAACAAAAAAAAA+AAAAL1VzZXJzL2FuZHkvTGlicmFyeS9BcHBsaWNhdGlvbiBTdXBwb3J0L1JFQVBFUi9E
        YXRhL0dNLnJlYWJhbmsAAAAAAAAAAAAAAAAAAAAAAAAAAAAAAAAAAAAAAAAAAAAAAAABAAAAAAAAAAAAAAAAAAAAAAAAAAAAAAAAAAAAAAYAAABNYWpvcgANAAAAMTAy
        MDM0MDUwNjA3AAEAAAAAAAAAAAAAAAAKAAAADQAAAAEAAAAAAAAAAAAAAAAAAAA=
        AAAQAAAA
      >
      FLOATPOS 0 0 0 0
      FXID {CF75485A-399C-6B43-A0B2-D2D8F7439316}
      WAK 0 0
    >
    <ITEM
      POSITION 10
      SNAPOFFS 0
      LENGTH 112.01458333333333
      LOOP 1
      ALLTAKES 0
      FADEIN 1 0 0 1 0 0 0
      FADEOUT 1 0 0 1 0 0 0
      MUTE 0 0
      SEL 0
      IGUID {0CD1686C-4476-0540-A1A4-7935C6E04675}
      IID 49
      NAME "07-Piano - high [1]-Recorded MIDI-glued"
      VOLPAN 1 0 1 -1
      SOFFS 0 0
      PLAYRATE 1 1 0 -1 0 0.0025
      CHANMODE 0
      GUID {CF64D611-96C5-254A-B23F-E84F688353ED}
      <SOURCE MIDI
        HASDATA 1 960 QN
        CCINTERP 32
        POOLEDEVTS {8B74F864-862A-554E-BCD1-2AD7C2528925}
        E 2 90 3e 4b
        E 219 80 3e 00
        E 12 90 40 43
        E 156 80 40 00
        E 74 90 3e 45
        E 187 80 3e 00
        E 43 90 40 47
        E 197 80 40 00
        E 74 90 3e 48
        E 207 80 3e 00
        E 39 90 40 46
        E 201 80 40 00
        E 75 90 3e 46
        E 189 80 3e 00
        E 61 90 40 3f
        E 130 80 40 00
        E 121 90 3e 48
        E 183 80 3e 00
        E 52 90 40 48
        E 210 80 40 00
        E 60 90 3e 46
        E 163 80 3e 00
        E 58 90 40 45
        E 113 80 40 00
        E 137 90 3e 43
        E 103 80 3e 00
        E 72 90 40 48
        E 148 80 40 00
        E 128 90 3e 3d
        E 163 90 40 43
        E 34 80 3e 00
        E 151 80 40 00
        E 164 90 40 4a
        E 92 80 40 00
        E 90 90 42 4a
        E 162 80 42 00
        E 118 90 40 3b
        E 113 80 40 00
        E 44 90 42 4b
        E 220 80 42 00
        E 61 90 40 45
        E 112 80 40 00
        E 121 90 42 42
        E 119 80 42 00
        E 135 90 40 3c
        E 113 80 40 00
        E 107 90 42 42
        E 119 80 42 00
        E 128 90 40 3c
        E 160 80 40 00
        E 74 90 42 41
        E 131 80 42 00
        E 170 90 40 2e
        E 111 80 40 00
        E 36 90 42 46
        E 179 80 42 00
        E 94 90 40 3d
        E 131 80 40 00
        E 49 90 42 48
        E 217 80 42 00
        E 71 90 40 3f
        E 160 90 42 42
        E 47 80 40 00
        E 59 80 42 00
        E 173 90 42 49
        E 209 80 42 00
        E 18 90 43 38
        E 107 80 43 00
        E 89 90 42 47
        E 208 80 42 00
        E 45 90 43 43
        E 137 80 43 00
        E 139 90 42 48
        E 198 80 42 00
        E 19 90 43 44
        E 236 80 43 00
        E 49 90 42 48
        E 100 80 42 00
        E 80 90 43 41
        E 228 80 43 00
        E 42 90 42 47
        E 183 80 42 00
        E 30 90 43 3c
        E 220 80 43 00
        E 34 90 42 4b
        E 223 80 42 00
        E 15 90 43 3e
        E 201 80 43 00
        E 50 90 42 48
        E 145 80 42 00
        E 53 90 43 41
        E 247 80 43 00
        E 35 90 42 4a
        E 231 80 42 00
        E 51 90 43 3d
        E 235 80 43 00
        E 14 90 42 49
        E 213 80 42 00
        E 20 90 43 42
        E 255 80 43 00
        E 22 90 42 4a
        E 215 80 42 00
        E 9 90 43 3b
        E 209 80 43 00
        E 29 90 42 49
        E 216 80 42 00
        E 24 90 43 3c
        E 214 80 43 00
        E 33 90 42 4a
        E 210 80 42 00
        E 39 90 43 3e
        E 182 80 43 00
        E 41 90 42 4b
        E 211 80 42 00
        E 17 90 43 42
        E 212 80 43 00
        E 48 90 42 49
        E 160 80 42 00
        E 33 90 43 44
        E 219 80 43 00
        E 75 90 42 47
        E 168 80 42 00
        E 42 90 43 3d
        E 140 80 43 00
        E 91 90 42 48
        E 186 80 42 00
        E 49 90 43 47
        E 127 80 43 00
        E 59 90 42 3d
        E 65 80 42 00
        E 16 b0 7b 00
        CCINTERP 32
        CHASE_CC_TAKEOFFS 1
        GUID {CF01ED1E-2F7C-0B42-BE66-FCBB6CEC1B43}
        IGNTEMPO 0 120 4 4
        SRCCOLOR 113
        VELLANE -1 100 0
        VELLANE 64 100 0
      >
    >
  >
  <TRACK {F9AC1DAE-1E42-224B-AB6E-53AC44C18326}
    NAME "Piano - high [0]"
    PEAKCOL 16576
    BEAT -1
    AUTOMODE 0
    VOLPAN 1 0 -1 -1 1
    MUTESOLO 1 0 0
    IPHASE 0
    PLAYOFFS 0 1
    ISBUS 0 0
    BUSCOMP 0 0 0 0 0
    SHOWINMIX 0 0.6667 0.5 0 0.5 0 -1 0
    FREEMODE 0
    SEL 0
    REC 0 4096 1 0 0 0 0
    VU 2
    TRACKHEIGHT 0 0 0 0 0 0
    INQ 0 0 0 0.5 100 0 0 100
    NCHAN 2
    FX 1
    TRACKID {F9AC1DAE-1E42-224B-AB6E-53AC44C18326}
    PERF 0
    MIDIOUT -1
    MAINSEND 1 0
    <FXCHAIN
      WNDRECT 32 351 649 672
      SHOW 0
      LASTSEL 0
      DOCKED 0
      BYPASS 0 0 0
      <VST "VST: ReaControlMIDI (Cockos)" reacontrolMIDI.vst.dylib 0 "" 1919118692<56535472636D64726561636F6E74726F> ""
        ZG1jcu5e7f4AAAAAAAAAAO8AAAABAAAAAAAQAA==
        /////wAAAAAAAAAAAAAAAAkAAAAMAAAAAQAAAP8/AAAAIAAAACAAAAAAAAA+AAAAL1VzZXJzL2FuZHkvTGlicmFyeS9BcHBsaWNhdGlvbiBTdXBwb3J0L1JFQVBFUi9E
        YXRhL0dNLnJlYWJhbmsAAAAAAAAAAAAAAAAAAAAAAAAAAAAAAAAAAAAAAAAAAAAAAAABAAAAAAAAAAAAAAAAAAAAAAAAAAAAAAAAAAAAAAYAAABNYWpvcgANAAAAMTAy
        MDM0MDUwNjA3AAEAAAAAAAAAAAAAAAAKAAAADQAAAAEAAAAAAAAAAAAAAAAAAAA=
        AAAQAAAA
      >
      FLOATPOS 0 0 0 0
      FXID {D515B442-E403-564D-BECE-B2FA0CF87BBB}
      WAK 0 0
    >
    <ITEM
      POSITION 0
      SNAPOFFS 0
      LENGTH 125.21302083333333
      LOOP 1
      ALLTAKES 0
      FADEIN 1 0 0 1 0 0 0
      FADEOUT 1 0 0 1 0 0 0
      MUTE 0 0
      SEL 0
      IGUID {9761A60E-FB14-9F47-BEEC-B3EAE4E6A43B}
      IID 45
      NAME "06-Piano - high-Recorded MIDI"
      VOLPAN 1 0 1 -1
      SOFFS 0 0
      PLAYRATE 1 1 0 -1 0 0.0025
      CHANMODE 0
      GUID {D098BCF4-662E-6A47-9127-43C6DEC5DD17}
      RECPASS 12
      <SOURCE MIDI
        HASDATA 1 960 QN
        CCINTERP 32
        POOLEDEVTS {16B89317-4379-5D49-AD6E-CC12386E9E46}
        E 23000 90 3e 4f
        E 157 80 3e 00
        E 40 90 40 49
        E 83 80 40 00
        E 99 90 3e 46
        E 139 80 3e 00
        E 65 90 40 45
        E 102 80 40 00
        E 137 90 3e 3a
        E 214 80 3e 00
        E 12 90 40 38
        E 266 80 40 00
        E 57 90 3e 3e
        E 177 80 3e 00
        E 6 90 40 42
        E 155 80 40 00
        E 161 90 3e 3a
        E 244 90 40 42
        E 4 80 3e 00
        E 231 80 40 00
        E 60 90 3e 3b
        E 188 80 3e 00
        E 7 90 40 44
        E 181 80 40 00
        E 96 90 3e 3d
        E 185 90 40 49
        E 10 80 3e 00
        E 217 80 40 00
        E 82 90 3e 3b
        E 140 90 40 48
        E 23 80 3e 00
        E 111 80 40 00
        E 173 90 40 42
        E 123 80 40 00
        E 97 90 41 36
        E 90 80 41 00
        E 15 90 40 45
        E 303 90 42 4d
        E 31 80 40 00
        E 163 80 42 00
        E 20 90 40 3f
        E 218 80 40 00
        E 36 90 42 46
        E 96 80 42 00
        E 144 90 40 39
        E 233 80 40 00
        E 17 90 42 4a
        E 211 80 42 00
        E 53 90 40 3b
        E 200 80 40 00
        E 28 90 42 45
        E 102 80 42 00
        E 119 90 40 3a
        E 162 80 40 00
        E 59 90 42 4a
        E 184 80 42 00
        E 71 90 40 39
        E 218 90 42 42
        E 31 80 40 00
        E 188 80 42 00
        E 16 90 40 34
        E 267 90 42 46
        E 33 80 40 00
        E 118 80 42 00
        E 104 90 42 40
        E 246 80 42 00
        E 82 90 43 35
        E 109 80 43 00
        E 56 90 42 45
        E 217 90 43 40
        E 4 80 42 00
        E 238 80 43 00
        E 39 90 42 47
        E 175 90 43 42
        E 45 80 42 00
        E 220 80 43 00
        E 36 90 42 45
        E 223 90 43 3f
        E 20 80 42 00
        E 214 80 43 00
        E 21 90 42 46
        E 223 90 43 44
        E 20 80 42 00
        E 237 80 43 00
        E 31 90 42 4a
        E 201 90 43 43
        E 23 80 42 00
        E 203 80 43 00
        E 47 90 42 4b
        E 255 80 42 00
        E 29 90 43 4b
        E 272 80 43 00
        E 19 90 42 4b
        E 236 80 42 00
        E 9 90 43 42
        E 140 80 43 00
        E 106 90 42 47
        E 227 80 42 00
        E 7 90 43 4a
        E 123 80 43 00
        E 143 90 42 47
        E 218 80 42 00
        E 7 90 43 45
        E 159 80 43 00
        E 99 90 42 4a
        E 228 90 43 46
        E 15 80 42 00
        E 191 80 43 00
        E 57 90 42 48
        E 214 80 42 00
        E 17 90 43 45
        E 132 80 43 00
        E 86 90 42 47
        E 236 80 42 00
        E 13 90 43 46
        E 98 80 43 00
        E 115 90 42 46
        E 233 80 42 00
        E 11 90 43 45
        E 91 80 43 00
        E 103 90 42 47
        E 251 80 42 00
        E 7 90 43 44
        E 155 80 43 00
        E 47 90 42 48
        E 236 90 43 47
        E 4 80 42 00
        E 71 80 43 00
        E 218 90 3e 45
        E 208 90 40 47
        E 23 80 3e 00
        E 77 80 40 00
        E 116 90 3e 3f
        E 209 80 3e 00
        E 9 90 40 4a
        E 172 80 40 00
        E 103 90 3e 39
        E 242 90 40 45
        E 18 80 3e 00
        E 239 80 40 00
        E 32 90 3e 41
        E 229 80 3e 00
        E 4 90 40 44
        E 195 80 40 00
        E 58 90 3e 3b
        E 173 80 3e 00
        E 6 90 40 46
        E 227 80 40 00
        E 85 90 3e 39
        E 218 90 40 47
        E 4 80 3e 00
        E 152 80 40 00
        E 113 90 3e 3b
        E 185 90 40 48
        E 6 80 3e 00
        E 274 80 40 00
        E 57 90 3e 48
        E 268 80 3e 00
        E 76 90 41 43
        E 81 80 41 00
        E 88 90 40 4a
        E 69 80 40 00
        E 242 90 42 28
        E 92 80 42 00
        E 19 90 40 48
        E 106 80 40 00
        E 141 90 42 3f
        E 94 80 42 00
        E 139 90 40 38
        E 188 80 40 00
        E 38 90 42 49
        E 181 80 42 00
        E 88 90 40 34
        E 182 80 40 00
        E 26 90 42 49
        E 227 80 42 00
        E 86 90 40 42
        E 139 80 40 00
        E 105 90 42 3f
        E 105 80 42 00
        E 144 90 40 36
        E 119 80 40 00
        E 96 90 42 44
        E 214 80 42 00
        E 72 90 40 41
        E 289 80 40 00
        E 8 90 42 3e
        E 205 80 42 00
        E 7 90 40 41
        E 113 80 40 00
        E 208 90 42 59
        E 265 80 42 00
        E 33 90 43 44
        E 211 80 43 00
        E 31 90 42 45
        E 228 90 43 43
        E 10 80 42 00
        E 195 80 43 00
        E 55 90 42 44
        E 242 80 42 00
        E 13 90 43 45
        E 106 80 43 00
        E 135 90 42 44
        E 242 80 42 00
        E 8 90 43 45
        E 119 80 43 00
        E 140 90 42 44
        E 193 80 42 00
        E 44 90 43 45
        E 87 80 43 00
        E 144 90 42 46
        E 162 80 42 00
        E 63 90 43 44
        E 98 80 43 00
        E 130 90 42 46
        E 190 80 42 00
        E 29 90 43 45
        E 98 80 43 00
        E 146 90 42 46
        E 166 80 42 00
        E 42 90 43 46
        E 96 80 43 00
        E 141 90 42 42
        E 185 80 42 00
        E 39 90 43 46
        E 120 80 43 00
        E 125 90 42 44
        E 202 80 42 00
        E 66 90 43 42
        E 85 80 43 00
        E 125 90 42 45
        E 192 80 42 00
        E 37 90 43 43
        E 104 80 43 00
        E 148 90 42 42
        E 171 80 42 00
        E 43 90 43 47
        E 93 80 43 00
        E 147 90 42 43
        E 163 80 42 00
        E 42 90 43 46
        E 93 80 43 00
        E 142 90 42 44
        E 236 80 42 00
        E 21 90 43 41
        E 104 80 43 00
        E 152 90 42 44
        E 201 80 42 00
        E 27 90 43 42
        E 96 80 43 00
        E 152 90 42 42
        E 117 80 42 00
        E 24 90 43 44
        E 75 80 43 00
        E 271 90 3e 44
        E 116 80 3e 00
        E 75 90 40 45
        E 121 80 40 00
        E 148 90 3e 3f
        E 151 80 3e 00
        E 69 90 40 42
        E 198 80 40 00
        E 79 90 3e 44
        E 215 80 3e 00
        E 37 90 40 44
        E 101 80 40 00
        E 145 90 3e 38
        E 137 80 3e 00
        E 45 90 40 47
        E 102 80 40 00
        E 203 90 3e 35
        E 141 80 3e 00
        E 37 90 40 46
        E 99 80 40 00
        E 203 90 3e 34
        E 125 80 3e 00
        E 32 90 40 47
        E 123 80 40 00
        E 184 90 3e 34
        E 143 80 3e 00
        E 37 90 40 42
        E 146 80 40 00
        E 109 90 3e 3f
        E 182 80 3e 00
        E 127 90 42 45
        E 67 80 42 00
        E 164 90 40 1f
        E 107 80 40 00
        E 43 90 42 45
        E 95 80 42 00
        E 147 90 40 33
        E 169 80 40 00
        E 103 90 42 36
        E 102 80 42 00
        E 139 90 40 34
        E 207 80 40 00
        E 26 90 42 46
        E 108 80 42 00
        E 153 90 40 2c
        E 139 80 40 00
        E 40 90 42 47
        E 176 80 42 00
        E 93 90 40 35
        E 143 80 40 00
        E 50 90 42 43
        E 212 80 42 00
        E 111 90 40 31
        E 188 80 40 00
        E 11 90 42 43
        E 187 80 42 00
        E 66 90 40 34
        E 200 80 40 00
        E 19 90 42 45
        E 184 80 42 00
        E 104 90 40 2f
        E 152 90 42 44
        E 48 80 40 00
        E 25 80 42 00
        E 237 90 42 49
        E 224 80 42 00
        E 13 90 43 3c
        E 112 80 43 00
        E 121 90 42 42
        E 194 80 42 00
        E 34 90 43 45
        E 92 80 43 00
        E 162 90 42 42
        E 246 80 42 00
        E 32 90 43 42
        E 92 80 43 00
        E 178 90 42 40
        E 207 80 42 00
        E 30 90 43 42
        E 99 80 43 00
        E 185 90 42 3c
        E 140 80 42 00
        E 80 90 43 3f
        E 104 80 43 00
        E 143 90 42 45
        E 229 80 42 00
        E 69 90 43 3c
        E 147 80 43 00
        E 71 90 42 46
        E 152 80 42 00
        E 83 90 43 3a
        E 201 90 42 45
        E 71 80 43 00
        E 172 80 42 00
        E 282 90 3e 42
        E 227 80 3e 00
        E 45 90 40 3f
        E 102 80 40 00
        E 171 90 3e 38
        E 96 80 3e 00
        E 63 90 40 43
        E 101 80 40 00
        E 224 90 3e 21
        E 111 90 40 38
        E 9 80 3e 00
        E 183 80 40 00
        E 110 90 3e 2f
        E 124 80 3e 00
        E 75 90 40 39
        E 134 80 40 00
        E 133 90 3e 31
        E 106 80 3e 00
        E 82 90 40 42
        E 113 80 40 00
        E 179 90 3e 38
        E 104 80 3e 00
        E 86 90 40 44
        E 103 80 40 00
        E 188 90 3e 38
        E 103 80 3e 00
        E 79 90 40 42
        E 129 80 40 00
        E 151 90 3e 3c
        E 204 80 3e 00
        E 44 90 40 3d
        E 57 90 3e 2d
        E 43 80 40 00
        E 49 80 3e 00
        E 112 90 3c 46
        E 102 80 3c 00
        E 87 90 3e 3e
        E 120 80 3e 00
        E 130 90 3c 43
        E 109 80 3c 00
        E 92 90 3e 46
        E 92 80 3e 00
        E 195 90 3c 40
        E 109 80 3c 00
        E 77 90 3e 48
        E 101 80 3e 00
        E 184 90 3c 3f
        E 127 80 3c 00
        E 100 90 3e 3b
        E 146 80 3e 00
        E 102 90 3c 44
        E 125 80 3c 00
        E 123 90 3e 3d
        E 111 80 3e 00
        E 112 90 3c 42
        E 94 80 3c 00
        E 113 90 3e 3c
        E 131 80 3e 00
        E 105 90 3c 44
        E 114 80 3c 00
        E 117 90 3e 41
        E 112 80 3e 00
        E 118 90 3c 44
        E 100 80 3c 00
        E 126 90 3e 41
        E 165 80 3e 00
        E 87 90 3c 45
        E 132 80 3c 00
        E 101 90 3e 41
        E 122 80 3e 00
        E 122 90 3c 46
        E 111 80 3c 00
        E 125 90 3e 3f
        E 181 80 3e 00
        E 68 90 3c 46
        E 105 80 3c 00
        E 120 90 3e 3f
        E 145 80 3e 00
        E 86 90 3c 44
        E 125 80 3c 00
        E 102 90 3e 40
        E 119 80 3e 00
        E 128 90 3c 42
        E 91 80 3c 00
        E 127 90 3e 42
        E 124 80 3e 00
        E 117 90 3c 46
        E 123 80 3c 00
        E 117 90 3e 42
        E 119 80 3e 00
        E 101 90 3c 49
        E 150 80 3c 00
        E 85 90 3e 42
        E 145 80 3e 00
        E 108 90 3c 49
        E 138 80 3c 00
        E 73 90 3e 47
        E 100 80 3e 00
        E 218 90 3e 40
        E 88 80 3e 00
        E 108 90 40 46
        E 162 80 40 00
        E 106 90 3e 45
        E 131 80 3e 00
        E 104 90 40 46
        E 117 80 40 00
        E 147 90 3e 44
        E 117 80 3e 00
        E 117 90 40 44
        E 185 80 40 00
        E 98 90 3e 44
        E 99 80 3e 00
        E 138 90 40 3d
        E 120 80 40 00
        E 115 90 3e 45
        E 125 80 3e 00
        E 109 90 40 42
        E 173 80 40 00
        E 82 90 3e 43
        E 99 80 3e 00
        E 104 90 40 3f
        E 127 80 40 00
        E 110 90 3e 45
        E 100 80 3e 00
        E 135 90 40 3e
        E 169 80 40 00
        E 80 90 3e 42
        E 98 80 3e 00
        E 98 90 40 41
        E 163 80 40 00
        E 96 90 3e 41
        E 92 80 3e 00
        E 101 90 40 43
        E 199 80 40 00
        E 75 90 3e 46
        E 101 80 3e 00
        E 113 90 40 3f
        E 140 80 40 00
        E 110 90 3e 45
        E 97 80 3e 00
        E 116 90 40 41
        E 137 80 40 00
        E 117 90 3e 45
        E 96 80 3e 00
        E 122 90 40 40
        E 152 80 40 00
        E 102 90 3e 41
        E 91 80 3e 00
        E 119 90 40 3e
        E 127 80 40 00
        E 101 90 3e 43
        E 138 80 3e 00
        E 131 90 40 3f
        E 138 80 40 00
        E 110 90 3e 3f
        E 90 80 3e 00
        E 109 90 40 43
        E 117 80 40 00
        E 156 90 3e 3e
        E 92 80 3e 00
        E 89 90 40 44
        E 135 80 40 00
        E 135 90 3e 45
        E 135 80 3e 00
        E 107 90 40 44
        E 129 80 40 00
        E 116 90 3e 45
        E 108 80 3e 00
        E 130 90 40 44
        E 127 80 40 00
        E 135 90 3e 47
        E 132 80 3e 00
        E 103 90 40 42
        E 226 80 40 00
        E 69 90 3e 47
        E 119 80 3e 00
        E 110 90 40 3c
        E 221 80 40 00
        E 63 90 3e 48
        E 169 80 3e 00
        E 87 90 40 3c
        E 178 80 40 00
        E 57 90 3e 47
        E 107 80 3e 00
        E 122 90 40 3b
        E 176 80 40 00
        E 37 90 3e 48
        E 201 80 3e 00
        E 58 90 40 42
        E 206 80 40 00
        E 63 90 3e 49
        E 127 80 3e 00
        E 91 90 40 43
        E 131 80 40 00
        E 105 90 3e 47
        E 85 80 3e 00
        E 97 90 40 3d
        E 128 80 40 00
        E 82 90 42 44
        E 109 80 42 00
        E 104 90 40 3b
        E 110 80 40 00
        E 55 90 42 4c
        E 211 80 42 00
        E 89 90 40 32
        E 167 80 40 00
        E 12 90 42 45
        E 171 80 42 00
        E 88 90 40 31
        E 146 80 40 00
        E 63 90 42 46
        E 181 80 42 00
        E 115 90 40 34
        E 184 80 40 00
        E 2 90 42 48
        E 196 80 42 00
        E 84 90 40 2d
        E 158 80 40 00
        E 26 90 42 49
        E 203 80 42 00
        E 71 90 40 35
        E 203 90 42 47
        E 35 80 40 00
        E 159 80 42 00
        E 65 90 40 38
        E 228 90 42 41
        E 47 80 40 00
        E 83 80 42 00
        E 175 90 40 1a
        E 85 90 42 47
        E 3 80 40 00
        E 245 80 42 00
        E 34 90 43 35
        E 132 80 43 00
        E 66 90 42 41
        E 212 90 43 3c
        E 22 80 42 00
        E 106 80 43 00
        E 111 90 42 3f
        E 213 80 42 00
        E 3 90 43 47
        E 97 80 43 00
        E 158 90 42 42
        E 214 90 43 42
        E 2 80 42 00
        E 112 80 43 00
        E 130 90 42 40
        E 219 80 42 00
        E 6 90 43 47
        E 112 80 43 00
        E 158 90 42 42
        E 195 80 42 00
        E 5 90 43 42
        E 103 80 43 00
        E 153 90 42 40
        E 206 90 43 43
        E 17 80 42 00
        E 198 80 43 00
        E 73 90 42 47
        E 229 90 43 40
        E 9 80 42 00
        E 130 80 43 00
        E 103 90 42 42
        E 208 90 43 40
        E 11 80 42 00
        E 121 80 43 00
        E 100 90 42 43
        E 213 80 42 00
        E 29 90 43 3c
        E 109 80 43 00
        E 107 90 42 45
        E 228 80 42 00
        E 28 90 43 42
        E 101 80 43 00
        E 150 90 42 47
        E 215 90 43 44
        E 10 80 42 00
        E 92 80 43 00
        E 122 90 42 42
        E 233 80 42 00
        E 18 90 43 43
        E 99 80 43 00
        E 113 90 42 44
        E 227 80 42 00
        E 21 90 43 45
        E 101 80 43 00
        E 122 90 42 43
        E 219 90 43 49
        E 14 80 42 00
        E 136 80 43 00
        E 111 90 42 43
        E 215 80 42 00
        E 3 90 43 45
        E 197 80 43 00
        E 18 90 42 43
        E 76 80 42 00
        E 87 90 3e 46
        E 172 80 3e 00
        E 101 90 40 42
        E 170 80 40 00
        E 75 90 3e 45
        E 121 80 3e 00
        E 128 90 40 40
        E 113 80 40 00
        E 99 90 3e 43
        E 108 80 3e 00
        E 135 90 40 3e
        E 124 80 40 00
        E 91 90 3e 44
        E 170 80 3e 00
        E 104 90 40 3c
        E 177 80 40 00
        E 46 90 3e 46
        E 125 80 3e 00
        E 118 90 40 3b
        E 161 80 40 00
        E 51 90 3e 45
        E 103 80 3e 00
        E 131 90 40 3b
        E 143 80 40 00
        E 52 90 3e 46
        E 148 80 3e 00
        E 88 90 40 3f
        E 161 80 40 00
        E 54 90 3e 41
        E 105 80 3e 00
        E 109 90 40 3b
        E 157 80 40 00
        E 63 90 3e 43
        E 95 80 3e 00
        E 130 90 40 2b
        E 116 80 40 00
        E 174 90 40 41
        E 152 80 40 00
        E 48 90 42 46
        E 87 80 42 00
        E 143 90 40 31
        E 142 80 40 00
        E 20 90 42 47
        E 106 80 42 00
        E 123 90 40 33
        E 177 80 40 00
        E 60 90 42 40
        E 118 80 42 00
        E 119 90 40 37
        E 166 80 40 00
        E 42 90 42 46
        E 144 80 42 00
        E 125 90 40 2b
        E 169 80 40 00
        E 10 90 42 46
        E 208 80 42 00
        E 89 90 40 35
        E 166 80 40 00
        E 22 90 42 47
        E 182 80 42 00
        E 72 90 40 33
        E 186 80 40 00
        E 12 90 42 4a
        E 236 80 42 00
        E 36 90 40 3e
        E 90 80 40 00
        E 192 90 42 41
        E 246 80 42 00
        E 72 90 43 27
        E 116 80 43 00
        E 60 90 42 47
        E 181 90 43 3e
        E 39 80 42 00
        E 81 80 43 00
        E 200 90 42 41
        E 193 90 43 40
        E 4 80 42 00
        E 140 80 43 00
        E 139 90 42 46
        E 223 90 43 47
        E 1 80 42 00
        E 183 80 43 00
        E 102 90 42 43
        E 216 80 42 00
        E 3 90 43 3e
        E 116 80 43 00
        E 132 90 42 3f
        E 212 80 42 00
        E 31 90 43 3f
        E 117 80 43 00
        E 147 90 42 40
        E 240 80 42 00
        E 6 90 43 41
        E 115 80 43 00
        E 139 90 42 41
        E 221 80 42 00
        E 34 90 43 3d
        E 109 80 43 00
        E 119 90 42 42
        E 234 80 42 00
        E 7 90 43 3f
        E 158 80 43 00
        E 92 90 42 40
        E 235 90 43 3d
        E 6 80 42 00
        E 158 80 43 00
        E 100 90 42 43
        E 235 90 43 3d
        E 11 80 42 00
        E 137 80 43 00
        E 93 90 42 40
        E 225 80 42 00
        E 4 90 43 3f
        E 172 80 43 00
        E 86 90 42 45
        E 245 80 42 00
        E 12 90 43 3c
        E 183 80 43 00
        E 74 90 42 4a
        E 239 80 42 00
        E 28 90 43 3e
        E 159 80 43 00
        E 94 90 42 46
        E 185 90 43 47
        E 23 80 42 00
        E 153 80 43 00
        E 226 90 45 48
        E 227 80 45 00
        E 3 90 47 42
        E 103 80 47 00
        E 133 90 45 2d
        E 191 80 45 00
        E 2 90 47 45
        E 190 80 47 00
        E 124 90 45 31
        E 181 80 45 00
        E 48 90 47 38
        E 154 80 47 00
        E 108 90 45 33
        E 257 80 45 00
        E 21 90 47 3a
        E 198 80 47 00
        E 68 90 45 34
        E 214 80 45 00
        E 50 90 47 39
        E 137 80 47 00
        E 92 90 45 37
        E 185 80 45 00
        E 53 90 47 40
        E 119 80 47 00
        E 136 90 45 30
        E 167 80 45 00
        E 35 90 47 44
        E 115 80 47 00
        E 156 90 45 2d
        E 155 90 47 43
        E 4 80 45 00
        E 160 80 47 00
        E 119 90 43 45
        E 139 80 43 00
        E 48 90 45 43
        E 184 80 45 00
        E 95 90 43 3a
        E 207 80 43 00
        E 44 90 45 3a
        E 170 80 45 00
        E 101 90 43 36
        E 169 80 43 00
        E 57 90 45 3e
        E 134 80 45 00
        E 172 90 43 2f
        E 156 80 43 00
        E 58 90 45 3f
        E 114 80 45 00
        E 132 90 43 30
        E 173 80 43 00
        E 66 90 45 3f
        E 109 80 45 00
        E 173 90 43 31
        E 144 80 43 00
        E 43 90 45 46
        E 116 80 45 00
        E 162 90 43 2f
        E 152 80 43 00
        E 44 90 45 42
        E 101 80 45 00
        E 150 90 43 29
        E 203 80 43 00
        E 30 90 45 38
        E 223 80 45 00
        E 341 90 43 3e
        E 100 80 43 00
        E 138 90 42 45
        E 194 80 42 00
        E 14 90 43 44
        E 116 80 43 00
        E 151 90 42 41
        E 215 80 42 00
        E 43 90 43 3d
        E 100 80 43 00
        E 117 90 42 45
        E 198 80 42 00
        E 59 90 43 38
        E 107 80 43 00
        E 93 90 42 48
        E 220 80 42 00
        E 47 90 43 41
        E 91 80 43 00
        E 94 90 42 41
        E 217 80 42 00
        E 31 90 43 45
        E 94 80 43 00
        E 151 90 42 44
        E 170 80 42 00
        E 37 90 43 43
        E 97 80 43 00
        E 133 90 42 42
        E 215 80 42 00
        E 11 90 43 41
        E 113 80 43 00
        E 136 90 42 42
        E 222 80 42 00
        E 31 90 43 3b
        E 111 80 43 00
        E 127 90 42 44
        E 224 80 42 00
        E 44 90 43 3b
        E 108 80 43 00
        E 109 90 42 47
        E 262 80 42 00
        E 15 90 43 3d
        E 141 80 43 00
        E 103 90 42 45
        E 237 80 42 00
        E 41 90 43 3f
        E 95 80 43 00
        E 116 90 42 44
        E 221 80 42 00
        E 33 90 43 3a
        E 101 80 43 00
        E 95 90 42 42
        E 215 80 42 00
        E 54 90 43 3e
        E 90 80 43 00
        E 103 90 42 43
        E 254 80 42 00
        E 16 90 43 3d
        E 97 80 43 00
        E 114 90 42 3f
        E 195 90 43 43
        E 16 80 42 00
        E 63 80 43 00
        E 287 90 45 24
        E 113 80 45 00
        E 53 90 47 38
        E 97 80 47 00
        E 47 90 45 3b
        E 232 90 47 44
        E 21 80 45 00
        E 194 80 47 00
        E 81 90 45 32
        E 264 80 45 00
        E 8 90 47 3b
        E 181 80 47 00
        E 47 90 45 36
        E 221 80 45 00
        E 7 90 47 3c
        E 199 80 47 00
        E 83 90 45 34
        E 197 80 45 00
        E 24 90 47 3f
        E 156 80 47 00
        E 136 90 45 2f
        E 157 80 45 00
        E 68 90 47 40
        E 105 80 47 00
        E 130 90 45 31
        E 155 80 45 00
        E 70 90 47 42
        E 114 80 47 00
        E 134 90 45 2e
        E 167 90 47 44
        E 37 80 45 00
        E 109 80 47 00
        E 133 90 43 48
        E 95 80 43 00
        E 107 90 45 43
        E 113 80 45 00
        E 118 90 43 41
        E 119 80 43 00
        E 126 90 45 42
        E 106 80 45 00
        E 165 90 43 35
        E 147 80 43 00
        E 60 90 45 44
        E 98 80 45 00
        E 163 90 43 32
        E 176 80 43 00
        E 51 90 45 3f
        E 118 80 45 00
        E 152 90 43 3c
        E 171 80 43 00
        E 56 90 45 41
        E 110 80 45 00
        E 126 90 43 3d
        E 187 80 43 00
        E 62 90 45 40
        E 104 80 45 00
        E 123 90 43 36
        E 169 80 43 00
        E 79 90 45 3d
        E 99 80 45 00
        E 119 90 43 2e
        E 274 90 45 41
        E 11 80 43 00
        E 125 80 45 00
        E 131 90 42 4c
        E 212 80 42 00
        E 34 90 43 40
        E 89 80 43 00
        E 102 90 42 42
        E 235 80 42 00
        E 15 90 43 44
        E 179 80 43 00
        E 86 90 42 45
        E 208 90 43 44
        E 4 80 42 00
        E 134 80 43 00
        E 105 90 42 41
        E 232 80 42 00
        E 5 90 43 40
        E 97 80 43 00
        E 119 90 42 41
        E 223 90 43 45
        E 11 80 42 00
        E 87 80 43 00
        E 151 90 42 45
        E 232 90 43 45
        E 17 80 42 00
        E 98 80 43 00
        E 129 90 42 40
        E 239 80 42 00
        E 11 90 43 41
        E 102 80 43 00
        E 141 90 42 45
        E 246 90 43 3f
        E 4 80 42 00
        E 108 80 43 00
        E 112 90 42 43
        E 234 80 42 00
        E 26 90 43 45
        E 100 80 43 00
        E 149 90 42 47
        E 229 90 43 45
        E 10 80 42 00
        E 141 80 43 00
        E 91 90 42 43
        E 232 90 43 46
        E 11 80 42 00
        E 142 80 43 00
        E 97 90 42 42
        E 229 80 42 00
        E 37 90 43 40
        E 106 80 43 00
        E 118 90 42 45
        E 254 80 42 00
        E 4 90 43 41
        E 205 80 43 00
        E 42 90 42 44
        E 227 80 42 00
        E 5 90 43 3f
        E 149 80 43 00
        E 68 90 42 44
        E 252 80 42 00
        E 23 90 43 3a
        E 274 90 42 40
        E 14 80 43 00
        E 195 80 42 00
        E 278 90 3e 4a
        E 129 80 3e 00
        E 77 90 40 41
        E 99 80 40 00
        E 101 90 3e 42
        E 143 80 3e 00
        E 87 90 40 44
        E 130 80 40 00
        E 130 90 3e 42
        E 235 90 40 46
        E 12 80 3e 00
        E 200 80 40 00
        E 105 90 3e 3b
        E 135 80 3e 00
        E 27 90 40 49
        E 204 80 40 00
        E 108 90 3e 3c
        E 129 80 3e 00
        E 12 90 40 48
        E 244 80 40 00
        E 77 90 3e 3f
        E 163 80 3e 00
        E 10 90 40 44
        E 207 80 40 00
        E 104 90 3e 3b
        E 153 80 3e 00
        E 18 90 40 43
        E 219 80 40 00
        E 107 90 3e 3a
        E 144 80 3e 00
        E 8 90 40 43
        E 191 80 40 00
        E 86 90 3e 3c
        E 119 80 3e 00
        E 57 90 40 43
        E 169 80 40 00
        E 106 90 3e 3f
        E 147 80 3e 00
        E 37 90 40 40
        E 224 80 40 00
        E 89 90 3e 36
        E 111 80 3e 00
        E 41 90 40 42
        E 157 80 40 00
        E 177 90 3e 2c
        E 110 80 3e 00
        E 49 90 40 45
        E 101 80 40 00
        E 197 90 3e 30
        E 107 80 3e 00
        E 42 90 40 47
        E 110 80 40 00
        E 196 90 3e 2b
        E 119 80 3e 00
        E 40 90 40 48
        E 95 80 40 00
        E 166 90 3e 32
        E 176 80 3e 00
        E 18 90 40 45
        E 237 80 40 00
        E 92 90 3e 3b
        E 197 80 3e 00
        E 8 90 40 42
        E 209 80 40 00
        E 13 90 3e 3b
        E 113 80 3e 00
        E 166 90 42 3d
        E 74 80 42 00
        E 141 90 40 23
        E 154 80 40 00
        E 124 90 42 25
        E 113 80 42 00
        E 47 90 40 3c
        E 255 80 40 00
        E 33 90 42 42
        E 147 80 42 00
        E 119 90 40 31
        E 181 80 40 00
        E 29 90 42 44
        E 159 80 42 00
        E 101 90 40 31
        E 140 80 40 00
        E 53 90 42 46
        E 189 80 42 00
        E 113 90 40 36
        E 149 80 40 00
        E 44 90 42 41
        E 167 80 42 00
        E 129 90 40 28
        E 171 80 40 00
        E 19 90 42 43
        E 202 80 42 00
        E 87 90 40 3c
        E 196 80 40 00
        E 35 90 42 3f
        E 158 80 42 00
        E 69 90 40 38
        E 217 80 40 00
        E 24 90 42 45
        E 202 80 42 00
        E 92 90 40 2e
        E 166 80 40 00
        E 32 90 42 42
        E 174 80 42 00
        E 101 90 40 31
        E 145 80 40 00
        E 51 90 42 44
        E 183 80 42 00
        E 103 90 40 33
        E 149 80 40 00
        E 29 90 42 46
        E 224 80 42 00
        E 65 90 40 35
        E 173 80 40 00
        E 13 90 42 42
        E 211 80 42 00
        E 82 90 40 36
        E 207 80 40 00
        E 13 90 42 42
        E 200 80 42 00
        E 57 90 40 32
        E 194 80 40 00
        E 34 90 42 46
        E 201 80 42 00
        E 62 90 40 40
        E 198 80 40 00
        E 25 90 42 47
        E 211 80 42 00
        E 44 90 40 3e
        E 246 80 40 00
        E 60 90 43 3d
        E 281 80 43 00
        E 51 90 42 48
        E 195 80 42 00
        E 13 90 43 34
        E 210 80 43 00
        E 58 90 42 45
        E 210 90 43 37
        E 19 80 42 00
        E 171 80 43 00
        E 45 90 42 3e
        E 179 80 42 00
        E 43 90 43 38
        E 132 80 43 00
        E 118 90 42 40
        E 188 80 42 00
        E 46 90 43 3f
        E 101 80 43 00
        E 144 90 42 40
        E 175 80 42 00
        E 41 90 43 41
        E 108 80 43 00
        E 146 90 42 41
        E 194 80 42 00
        E 29 90 43 42
        E 119 80 43 00
        E 141 90 42 42
        E 192 80 42 00
        E 51 90 43 3b
        E 102 80 43 00
        E 125 90 42 45
        E 183 80 42 00
        E 40 90 43 41
        E 104 80 43 00
        E 138 90 42 46
        E 203 80 42 00
        E 26 90 43 42
        E 97 80 43 00
        E 138 90 42 3f
        E 176 80 42 00
        E 45 90 43 40
        E 101 80 43 00
        E 142 90 42 42
        E 147 80 42 00
        E 85 90 43 3d
        E 109 80 43 00
        E 115 90 42 44
        E 233 80 42 00
        E 10 90 43 44
        E 124 80 43 00
        E 140 90 42 43
        E 241 80 42 00
        E 2 90 43 44
        E 125 80 43 00
        E 118 90 42 41
        E 245 80 42 00
        E 14 90 43 43
        E 134 80 43 00
        E 119 90 42 3f
        E 204 90 43 45
        E 10 80 42 00
        E 218 80 43 00
        E 145 90 40 48
        E 200 90 42 4b
        E 7 80 40 00
        E 197 80 42 00
        E 46 90 40 33
        E 132 80 40 00
        E 28 90 42 42
        E 237 80 42 00
        E 34 90 40 39
        E 236 80 40 00
        E 15 90 42 47
        E 166 80 42 00
        E 85 90 40 2b
        E 170 80 40 00
        E 71 90 42 3d
        E 101 80 42 00
        E 145 90 40 32
        E 137 80 40 00
        E 92 90 42 3e
        E 99 80 42 00
        E 146 90 40 2c
        E 129 80 40 00
        E 75 90 42 41
        E 123 80 42 00
        E 125 90 40 31
        E 216 80 40 00
        E 17 90 42 47
        E 201 80 42 00
        E 99 90 40 23
        E 153 80 40 00
        E 43 90 42 43
        E 174 80 42 00
        E 85 90 40 2a
        E 160 80 40 00
        E 58 90 42 42
        E 160 80 42 00
        E 95 90 40 30
        E 156 80 40 00
        E 68 90 42 41
        E 161 80 42 00
        E 95 90 40 36
        E 181 80 40 00
        E 44 90 42 43
        E 148 80 42 00
        E 87 90 40 32
        E 163 80 40 00
        E 69 90 42 42
        E 169 80 42 00
        E 77 90 40 35
        E 182 80 40 00
        E 29 90 42 45
        E 185 80 42 00
        E 73 90 40 32
        E 152 80 40 00
        E 59 90 42 44
        E 152 80 42 00
        E 75 90 40 2c
        E 204 80 40 00
        E 5 90 42 48
        E 171 80 42 00
        E 116 90 40 20
        E 153 80 40 00
        E 2 90 42 41
        E 177 80 42 00
        E 86 90 3e 43
        E 134 80 3e 00
        E 200 90 40 21
        E 74 90 3e 3c
        E 45 80 40 00
        E 222 90 40 36
        E 3 80 3e 00
        E 180 80 40 00
        E 50 90 3e 3d
        E 196 80 3e 00
        E 28 90 40 44
        E 187 80 40 00
        E 101 90 3e 3b
        E 114 80 3e 00
        E 49 90 40 44
        E 202 80 40 00
        E 91 90 3e 3e
        E 142 80 3e 00
        E 61 90 40 44
        E 174 80 40 00
        E 110 90 3e 36
        E 132 80 3e 00
        E 31 90 40 42
        E 220 80 40 00
        E 107 90 3e 30
        E 136 80 3e 00
        E 18 90 40 3f
        E 318 80 40 00
        E 47 90 3e 40
        E 167 90 40 41
        E 6 80 3e 00
        E 211 90 3e 43
        E 6 80 40 00
        E 72 80 3e 00
        E 168 90 42 48
        E 70 80 42 00
        E 80 90 40 44
        E 238 80 40 00
        E 76 90 42 3a
        E 92 80 42 00
        E 54 90 40 40
        E 232 80 40 00
        E 58 90 42 41
        E 179 80 42 00
        E 73 90 40 3b
        E 215 80 40 00
        E 38 90 42 43
        E 172 80 42 00
        E 77 90 40 35
        E 195 80 40 00
        E 61 90 42 42
        E 174 80 42 00
        E 112 90 40 3f
        E 114 80 40 00
        E 108 90 42 41
        E 170 80 42 00
        E 80 90 40 3e
        E 220 80 40 00
        E 27 90 42 3e
        E 162 80 42 00
        E 48 90 40 38
        E 264 80 40 00
        E 2 90 42 40
        E 182 90 40 42
        E 16 80 42 00
        E 109 80 40 00
        E 200 90 42 4c
        E 200 80 42 00
        E 87 90 43 33
        E 120 80 43 00
        E 81 90 42 46
        E 220 80 42 00
        E 10 90 43 42
        E 203 80 43 00
        E 78 90 42 43
        E 240 80 42 00
        E 12 90 43 3a
        E 186 80 43 00
        E 69 90 42 43
        E 193 80 42 00
        E 65 90 43 37
        E 111 80 43 00
        E 102 90 42 44
        E 200 80 42 00
        E 47 90 43 39
        E 114 80 43 00
        E 119 90 42 45
        E 204 80 42 00
        E 50 90 43 3e
        E 110 80 43 00
        E 111 90 42 44
        E 234 80 42 00
        E 32 90 43 3f
        E 109 80 43 00
        E 122 90 42 42
        E 236 80 42 00
        E 14 90 43 40
        E 120 80 43 00
        E 114 90 42 42
        E 221 80 42 00
        E 42 90 43 3a
        E 107 80 43 00
        E 98 90 42 43
        E 223 80 42 00
        E 32 90 43 3f
        E 112 80 43 00
        E 88 90 42 42
        E 222 80 42 00
        E 74 90 43 32
        E 112 80 43 00
        E 54 90 42 41
        E 215 80 42 00
        E 43 90 43 38
        E 188 80 43 00
        E 50 90 42 48
        E 239 80 42 00
        E 6 90 43 3d
        E 157 80 43 00
        E 68 90 42 41
        E 230 80 42 00
        E 20 90 43 3e
        E 126 80 43 00
        E 91 90 42 3f
        E 236 80 42 00
        E 27 90 43 3b
        E 236 90 42 47
        E 69 80 43 00
        E 160 80 42 00
        E 66 90 3e 4b
        E 121 80 3e 00
        E 108 90 40 40
        E 172 80 40 00
        E 51 90 3e 43
        E 109 80 3e 00
        E 113 90 40 3f
        E 159 80 40 00
        E 88 90 3e 42
        E 114 80 3e 00
        E 124 90 40 42
        E 126 80 40 00
        E 129 90 3e 45
        E 125 80 3e 00
        E 121 90 40 3e
        E 122 80 40 00
        E 100 90 3e 44
        E 141 80 3e 00
        E 120 90 40 41
        E 226 80 40 00
        E 50 90 3e 42
        E 107 80 3e 00
        E 106 90 40 3f
        E 160 80 40 00
        E 73 90 3e 45
        E 132 80 3e 00
        E 112 90 40 40
        E 143 80 40 00
        E 72 90 3e 45
        E 191 80 3e 00
        E 72 90 40 44
        E 76 80 40 00
        E 199 90 40 3f
        E 120 80 40 00
        E 71 90 42 4b
        E 76 80 42 00
        E 229 90 40 1d
        E 91 80 40 00
        E 8 90 42 42
        E 89 80 42 00
        E 126 90 40 2f
        E 178 80 40 00
        E 59 90 42 42
        E 90 80 42 00
        E 195 90 40 33
        E 115 80 40 00
        E 48 90 42 48
        E 178 80 42 00
        E 184 90 40 22
        E 109 80 40 00
        E 8 90 42 42
        E 147 80 42 00
        E 146 90 40 25
        E 133 80 40 00
        E 30 90 42 43
        E 181 80 42 00
        E 138 90 40 27
        E 133 80 40 00
        E 30 90 42 42
        E 148 80 42 00
        E 141 90 40 2e
        E 135 80 40 00
        E 22 90 42 45
        E 235 80 42 00
        E 7 90 40 3d
        E 76 80 40 00
        E 212 90 42 4b
        E 187 80 42 00
        E 32 90 43 44
        E 80 80 43 00
        E 112 90 42 3c
        E 93 80 42 00
        E 55 90 43 43
        E 192 80 43 00
        E 91 90 42 44
        E 166 80 42 00
        E 36 90 43 3b
        E 106 80 43 00
        E 126 90 42 43
        E 163 80 42 00
        E 85 90 43 38
        E 110 80 43 00
        E 105 90 42 44
        E 187 80 42 00
        E 78 90 43 3d
        E 96 80 43 00
        E 125 90 42 45
        E 177 80 42 00
        E 69 90 43 3d
        E 106 80 43 00
        E 117 90 42 45
        E 192 80 42 00
        E 84 90 43 36
        E 106 80 43 00
        E 104 90 42 45
        E 204 80 42 00
        E 65 90 43 3e
        E 100 80 43 00
        E 113 90 42 47
        E 167 80 42 00
        E 81 90 43 3f
        E 102 80 43 00
        E 107 90 42 45
        E 192 80 42 00
        E 66 90 43 3f
        E 100 80 43 00
        E 123 90 42 46
        E 190 80 42 00
        E 43 90 43 42
        E 106 80 43 00
        E 139 90 42 45
        E 188 80 42 00
        E 55 90 43 41
        E 100 80 43 00
        E 134 90 42 43
        E 200 80 42 00
        E 28 90 43 42
        E 187 80 43 00
        E 70 90 42 45
        E 210 90 43 42
        E 3 80 42 00
        E 213 80 43 00
        E 67 90 42 45
        E 184 90 43 3e
        E 7 80 42 00
        E 177 80 43 00
        E 54 90 42 46
        E 183 90 43 44
        E 20 80 42 00
        E 170 90 42 45
        E 58 80 43 00
        E 113 80 42 00
        E 54 90 3e 4a
        E 138 80 3e 00
        E 112 90 40 42
        E 211 80 40 00
        E 36 90 3e 49
        E 136 80 3e 00
        E 107 90 40 47
        E 203 80 40 00
        E 65 90 3e 46
        E 159 80 3e 00
        E 86 90 40 43
        E 230 80 40 00
        E 11 90 3e 4b
        E 155 80 3e 00
        E 95 90 40 44
        E 190 80 40 00
        E 34 90 3e 4a
        E 172 80 3e 00
        E 85 90 40 42
        E 199 80 40 00
        E 25 90 3e 48
        E 157 80 3e 00
        E 94 90 40 42
        E 211 80 40 00
        E 18 90 3e 4a
        E 215 80 3e 00
        E 64 90 40 40
        E 128 80 40 00
        E 43 90 3e 42
        E 229 80 3e 00
        E 63 90 40 44
        E 79 80 40 00
        E 215 90 40 3e
        E 176 80 40 00
        E 68 90 42 45
        E 77 80 42 00
        E 131 90 40 37
        E 97 80 40 00
        E 54 90 42 4a
        E 198 80 42 00
        E 118 90 40 35
        E 115 80 40 00
        E 43 90 42 49
        E 169 80 42 00
        E 94 90 40 39
        E 106 80 40 00
        E 74 90 42 49
        E 208 80 42 00
        E 70 90 40 3f
        E 117 80 40 00
        E 86 90 42 47
        E 180 80 42 00
        E 90 90 40 3d
        E 127 80 40 00
        E 61 90 42 47
        E 222 80 42 00
        E 71 90 40 3e
        E 158 80 40 00
        E 16 90 42 46
        E 214 80 42 00
        E 66 90 40 3c
        E 163 90 42 45
        E 49 80 40 00
        E 169 80 42 00
        E 90 90 42 45
        E 181 80 42 00
        E 55 90 43 3d
        E 100 80 43 00
        E 90 90 42 45
        E 209 80 42 00
        E 21 90 43 3b
        E 213 80 43 00
        E 64 90 42 45
        E 191 80 42 00
        E 9 90 43 38
        E 183 80 43 00
        E 83 90 42 46
        E 211 80 42 00
        E 6 90 43 3e
        E 208 80 43 00
        E 59 90 42 4a
        E 210 90 43 3c
        E 2 80 42 00
        E 178 80 43 00
        E 65 90 42 41
        E 234 90 43 3b
        E 4 80 42 00
        E 208 80 43 00
        E 34 90 42 45
        E 208 90 43 3b
        E 18 80 42 00
        E 210 80 43 00
        E 32 90 42 46
        E 216 80 42 00
        E 16 90 43 3a
        E 218 80 43 00
        E 22 90 42 49
        E 227 80 42 00
        E 19 90 43 3d
        E 234 80 43 00
        E 22 90 42 4a
        E 225 80 42 00
        E 4 90 43 3b
        E 269 80 43 00
        E 21 90 42 48
        E 227 80 42 00
        E 11 90 43 36
        E 262 80 43 00
        E 4 90 42 4b
        E 221 80 42 00
        E 30 90 43 38
        E 218 80 43 00
        E 24 90 42 48
        E 200 90 43 3f
        E 28 80 42 00
        E 222 80 43 00
        E 27 90 42 45
        E 199 90 43 3e
        E 20 80 42 00
        E 234 80 43 00
        E 34 90 42 4b
        E 222 80 42 00
        E 37 90 43 3b
        E 115 80 43 00
        E 106 90 42 48
        E 164 90 43 47
        E 57 80 42 00
        E 131 80 43 00
        E 99 90 3e 4e
        E 159 80 3e 00
        E 96 90 40 45
        E 238 80 40 00
        E 17 90 3e 49
        E 164 80 3e 00
        E 74 90 40 3e
        E 304 90 3e 4b
        E 2 80 40 00
        E 202 80 3e 00
        E 41 90 40 41
        E 231 80 40 00
        E 33 90 3e 49
        E 106 80 3e 00
        E 112 90 40 3e
        E 161 80 40 00
        E 52 90 3e 4a
        E 218 80 3e 00
        E 68 90 40 47
        E 186 80 40 00
        E 54 90 3e 48
        E 147 80 3e 00
        E 109 90 40 3f
        E 142 80 40 00
        E 68 90 3e 4a
        E 163 80 3e 00
        E 94 90 40 44
        E 174 80 40 00
        E 41 90 3e 49
        E 144 80 3e 00
        E 72 90 40 46
        E 103 80 40 00
        E 208 90 40 46
        E 177 80 40 00
        E 46 90 42 49
        E 125 80 42 00
        E 123 90 40 36
        E 103 80 40 00
        E 38 90 42 4a
        E 194 80 42 00
        E 123 90 40 38
        E 119 80 40 00
        E 36 90 42 48
        E 201 80 42 00
        E 94 90 40 38
        E 108 80 40 00
        E 55 90 42 47
        E 186 80 42 00
        E 107 90 40 30
        E 152 80 40 00
        E 10 90 42 4c
        E 216 80 42 00
        E 89 90 40 3c
        E 158 80 40 00
        E 36 90 42 49
        E 192 80 42 00
        E 74 90 40 3d
        E 150 80 40 00
        E 45 90 42 4a
        E 229 80 42 00
        E 85 90 40 3b
        E 170 90 42 44
        E 20 80 40 00
        E 445 80 42 00
        E 37 90 43 3e
        E 90 80 43 00
        E 78 90 42 46
        E 211 80 42 00
        E 46 90 43 36
        E 221 80 43 00
        E 44 90 42 47
        E 201 90 43 3f
        E 30 80 42 00
        E 234 80 43 00
        E 40 90 42 4b
        E 229 90 43 38
        E 2 80 42 00
        E 193 80 43 00
        E 61 90 42 45
        E 239 80 42 00
        E 2 90 43 3f
        E 228 80 43 00
        E 45 90 42 49
        E 195 80 42 00
        E 21 90 43 3c
        E 173 80 43 00
        E 72 90 42 45
        E 206 90 43 3f
        E 11 80 42 00
        E 216 80 43 00
        E 37 90 42 48
        E 207 90 43 3b
        E 15 80 42 00
        E 199 80 43 00
        E 29 90 42 43
        E 199 90 43 41
        E 6 80 42 00
        E 251 80 43 00
        E 25 90 42 48
        E 224 90 43 36
        E 2 80 42 00
        E 234 80 43 00
        E 14 90 42 42
        E 205 90 43 3c
        E 24 80 42 00
        E 233 80 43 00
        E 32 90 42 48
        E 229 90 43 39
        E 17 80 42 00
        E 249 80 43 00
        E 13 90 42 48
        E 230 80 42 00
        E 9 90 43 34
        E 245 80 43 00
        E 28 90 42 43
        E 206 90 43 37
        E 20 80 42 00
        E 220 80 43 00
        E 32 90 42 3f
        E 206 90 43 38
        E 32 80 42 00
        E 166 80 43 00
        E 87 90 42 3b
        E 118 90 43 3e
        E 32 80 42 00
        E 215 80 43 00
        E 2505 b0 7b 00
        CCINTERP 32
        CHASE_CC_TAKEOFFS 1
        GUID {2269EE85-7A15-9F42-AE82-9D89167CEEDD}
        IGNTEMPO 0 120 4 4
        SRCCOLOR 106
        VELLANE -1 100 0
        VELLANE 64 100 0
      >
    >
  >
  <TRACK {04205483-9D78-5A48-A9B8-ED1890232273}
    NAME Piano
    PEAKCOL 16576
    BEAT -1
    AUTOMODE 0
    VOLPAN 0.70858445955218 0 -1 -1 1
    MUTESOLO 1 0 0
    IPHASE 0
    PLAYOFFS 0 1
    ISBUS 1 1
    BUSCOMP 2 0 0 0 0
    SHOWINMIX 1 0.6667 0.5 1 0.5 0 -1 0
    FREEMODE 0
    SEL 0
    REC 0 4096 1 0 0 0 0
    VU 2
    TRACKHEIGHT 0 0 0 0 0 0
    INQ 0 0 0 0.5 100 0 0 100
    NCHAN 2
    FX 1
    TRACKID {04205483-9D78-5A48-A9B8-ED1890232273}
    PERF 0
    AUXRECV 4 0 1 0 0 0 0 -1 0 -1:U 0 -1 ''
    AUXRECV 5 0 1 0 0 0 0 -1 0 -1:U 0 -1 ''
    AUXRECV 6 0 1 0 0 0 0 -1 0 -1:U 0 -1 ''
    AUXRECV 7 0 1 0 0 0 0 -1 0 -1:U 0 -1 ''
    AUXRECV 9 0 1 0 0 0 0 -1 0 -1:U 4177951 -1 ''
    AUXRECV 10 0 1 0 0 0 0 -1 0 -1:U 4177951 -1 ''
    AUXRECV 11 0 1 0 0 0 0 -1 0 -1:U 4177951 -1 ''
    AUXRECV 12 0 1 0 0 0 0 -1 0 -1:U 4177951 -1 ''
    MIDIOUT -1
    MAINSEND 1 0
    <VOLENV2
      EGUID {A42E2340-B61C-724D-90A3-46B6B9C04E22}
      ACT 1 -1
      VIS 1 1 1
      LANEHEIGHT 0 0
      ARM 0
      DEFSHAPE 0 -1 -1
      VOLTYPE 1
      PT 0 1 0
      PT 122 1.04712855 0 0 1
      PT 128 0 0
    >
    <FXCHAIN
      WNDRECT 32 530 831 493
      SHOW 0
      LASTSEL 1
      DOCKED 0
      BYPASS 0 0 0
      <VST "VST: ReaControlMIDI (Cockos)" reacontrolMIDI.vst.dylib 0 "" 1919118692<56535472636D64726561636F6E74726F> ""
        ZG1jcu5e7f4AAAAAAAAAAO8AAAABAAAAAAAQAA==
        /////wAAAAAAAAAAAAAAAAkAAAAMAAAAAQAAAP8/AAAAIAAAACAAAAAAAAA+AAAAL1VzZXJzL2FuZHkvTGlicmFyeS9BcHBsaWNhdGlvbiBTdXBwb3J0L1JFQVBFUi9E
        YXRhL0dNLnJlYWJhbmsAAAAAAAAAAAAAAAAAAAAAAAAAAAAAAAAAAAAAAAAAAAAAAAABAAAAAAAAAAAAAAAAAAAAAAAAAAAAAAAAAAAAAAYAAABNYWpvcgANAAAAMTAy
        MDM0MDUwNjA3AAEAAAAAAAAAAAAAAAAKAAAADQAAAAEAAAAAAAAAAAAAAAAAAAA=
        AAAQAAAA
      >
      FLOATPOS 0 0 0 0
      FXID {70D0BFDC-02EA-0A44-88CF-C7CB7C5DB28C}
      WAK 0 0
      BYPASS 0 0 0
      <AU "AUi: Pianoteq 5 STAGE (Modartt)" "Modartt: Pianoteq 5 STAGE" "" 1635085685 1349793133 1298428532
        6QMAAAAAAAAAAAAAAgAAAAEAAAAAAAAAAgAAAAAAAAC2KwAAPD94bWwgdmVyc2lvbj0iMS4wIiBlbmNvZGluZz0iVVRGLTgiPz4KPCFET0NUWVBFIHBsaXN0IFBVQkxJ
        QyAiLS8vQXBwbGUvL0RURCBQTElTVCAxLjAvL0VOIiAiaHR0cDovL3d3dy5hcHBsZS5jb20vRFREcy9Qcm9wZXJ0eUxpc3QtMS4wLmR0ZCI+CjxwbGlzdCB2ZXJzaW9u
        PSIxLjAiPgo8ZGljdD4KCTxrZXk+ZGF0YTwva2V5PgoJPGRhdGE+CglBQUFBQUFBQUFBQUFBQUJMQUFBQUFBQUFBQUFBQUFBQkFBQUFBQUFBQUFJQUFBQUFBQUFBQXdB
        QUFBQUFBQUFFQUFBQQoJQUFBQUFBVUFBQUFBQUFBQUJnQUFBQUFBQUFBSEFBQUFBQUFBQUFnQUFBQUFBQUFBQ1FBQUFBQUFBQUFLQUFBQUFBQUEKCUFBc0FBQUFBQUFB
        QURBQUFBQUFBQUFBTkFBQUFBQUFBQUE0QUFBQUFBQUFBRHdBQUFBQUFBQUFRQUFBQUFBQUFBQkVBCglBQUFBQUFBQUVnQUFBQUFBQUFBVEFBQUFBQUFBQUJRQUFBQUFB
        QUFBRlFBQUFBQUFBQUFXQUFBQUFBQUFBQmNBQUFBQQoJQUFBQUdBQUFBQUFBQUFBWkFBQUFBQUFBQUJvQUFBQUFBQUFBR3dBQUFBQUFBQUFjQUFBQUFBQUFBQjBBQUFB
        QUFBQUEKCUhnQUFBQUFBQUFBZkFBQUFBQUFBQUNBQUFBQUFBQUFBSVFBQUFBQUFBQUFpQUFBQUFBQUFBQ01BQUFBQUFBQUFKQUFBCglBQUFBQUFBbEFBQUFBQUFBQUNZ
        QUFBQUFBQUFBSndBQUFBQUFBQUFvQUFBQUFBQUFBQ2tBQUFBQUFBQUFLZ0FBQUFBQQoJQUFBckFBQUFBQUFBQUN3QUFBQUFBQUFBTFFBQUFBQUFBQUF1QUFBQUFBQUFB
        QzhBQUFBQUFBQUFNQUFBQUFBQUFBQXgKCUFBQUFBQUFBQURJQUFBQUFBQUFBTXdBQUFBQUFBQUEwQUFBQUFBQUFBRFVBQUFBQUFBQUFOZ0FBQUFBQUFBQTNBQUFBCglB
        QUFBQURnQUFBQUFBQUFBT1FBQUFBQUFBQUE2QUFBQUFBQUFBRHNBQUFBQUFBQUFQQUFBQUFBQUFBQTlBQUFBQUFBQQoJQUQ0QUFBQUFBQUFBUHdBQUFBQUFBQUJBQUFB
        QUFBQUFBRUVBQUFBQUFBQUFRZ0FBQUFBQUFBQkRBQUFBQUFBQUFFUUEKCUFBQUFBQUFBUlFBQUFBQUFBQUJHQUFBQUFBQUFBRWNBQUFBQUFBQUFTQUFBQUFBQUFBQkpB
        QUFBQUFBQUFFb0FBQUFBCgk8L2RhdGE+Cgk8a2V5Pmp1Y2VQbHVnaW5TdGF0ZTwva2V5PgoJPGRhdGE+CglVSEpXU3hZQUFBSllSbFJROGhzQUFBb0FBQUF5TURJeEx6
        QXlMekkxSFFBQUFGQnBZVzV2ZEdWeElGTlVRVWRGSURVdQoJT0M0eEx6SXdNVFl4TVRJMVNKaG1IZ0dEN2tCZVBpc2kwb3l1SldSc2JHR3JHd0FBZEdSMFRYSUdBQUFS
        QUFBQVJEUWcKCVJHRnBiSGtnVUhKaFkzUnBZMlVBQUFBQUdnQUFBRU52Y0hseWFXZG9kQ0FvWXlrZ01qQXhOaUJOYjJSaGNuUjBod0FBCglBRlJvYVhNZ2NISmxjMlYw
        SUc5bVptVnljeUJoSUdOc1pXRnVJSE52ZFc1a0xDQjViM1VnYldGNUlHeHBhMlVnZEc4ZwoJZFhObElHbDBJR1p2Y2lCNWIzVnlJR1JoYVd4NUlIQnlZV04wYVdObExp
        QkJiSE52SUdFZ1oyOXZaQ0J6ZEdGeWRHbHUKCVp5QndiMmx1ZENCbWIzSWdjSEpsY0dGeWFXNW5JRzVsZHlCd2NtVnpaWFJ6TGdBQUFBQkdBQUFBRVFBQUFFUTBJRVJo
        CglhV3g1SUZCeVlXTjBhV05sQUFBQUFJc0ZBQUJIVWxWVkFBQUFCZ0FBQUFFRHdFMVVjbXNBQUFWMUFQOENEeUJRYVdWMAoJSUVSbElGSnBaR1JsY2dDUUtpbDRnQ3BW
        QnBBckpJTXhnQ3NOYUpBa0tvSUhnQ1FjTXBBM0xZRUpnRGRQZ21hUVBER0IKCVRvQThSVmFRS3lvRlB6dUJUSUEvYkZhUVF5OHFOeUNCR0lCRFVnUTNLMG9ySllFUmtE
        ODBDQ1VsY29BL1d6MGxUVktRCglRaXNJSmlLQk9vQkNTb0Vza0RraGdoU0FPVXFCSUNZYk5KQStNSU5NTFVLQklvQXRTb0pDa0RJOWdWZUFNanRDa0NzeQoJUW9BK2JJ
        TWxrREl0Z2h3dlBDQ0FLMmtLTWkxOUwwOUZrRHBQQ2pWS2dWV0FPbU1ia0RzK0NZQTFJb0ltTzBBRWtEdzQKCWdTdUFQR2xIa0VGQkZESTVnU0tBTW1aWWtEaFFnazBr
        U29KWGdEaGdnU2FRTno0R1AwODNnRUZGZ3hZa0NTaVFNRUdCCgljb0EzUUI2UUswRXFnREEyWno5ZGZKQXdPRktBS3dVY01GS0JBSkFrVUlFZ2dDUmpiWkE4UllGd2dE
        eG1CNUEvTVlJSgoJUVZrR2dEOXlGSkF3UW9GZ2dFRnZlVEFGZnBCQ1pvRTVnRUpTTHBCRFZGSXdMWGVBUTJrNmtFUlBnUjZBTUU4MVJHazUKCWtFVkdCQ1l4aEJJd0xp
        aUFKbStCYVpCRFZTK0FSVnVDUWpBMFlaQkVXZ3lBUTAwQWtDMUJCVEEyZ1IyQU1GMEFSR3hWCglrRVZlRWpBZGdSYUFNR0F0UldrdGtFWmJDU28zVUlBdE5CeEdZelFx
        WUZTUVIwd05LekdCZUlCSExRbVFRU0NCY0lCQgoJV3gyUVFpcUJTSUJDV3drckdVeVFRMVVJTWthQk1ZQXlZQ1ZEYklGMmtFdHRnUXlBUzJPQ1paQXZQUTFLWG9FemdF
        cEYKCVd5OXBCcEJJUEFRd09ZRnVnRWhwTURBOWdUYVFKQytCUTRBa0oyZVFRMk9CU0lCRFJZSXBrRUpWQ2pCVmNvQkNab0VFCglrRU5GYW9Bd0lZRUVrQ3N0RWtaRklZ
        QkRZNEVtUm1rQ0swVTNrQ2hLQlVoYmdnbUFTR01aa0VaQ0hZQW9Tb0VMUmppQwoJUHBBMFRRQTZSd0JBVHpraU5JRlpnRHBzV2pSc1JVQnNQU0l5R0pBb1JvRjdMbEJQ
        Z0Noc2dTT1FQVitCTklBOVd3a3UKCVprV1FQa1VMS1VXQllZQStZQ1NRUEM2QlY0QThWWUZrS1VkSWtEaExIREEyZ3grQU9Hd2hrRGRaZ1JxQU1Ha3lOMXN1CglrRFZR
        Q3l4VWdTeUFMRmd2TldBTmtEZEdFREE5Z1UrQU4yQUlNRW9va0NaUEFqaEZnUytBT0c5WGtEa3ZnZ1E4TENDQQoJT1J4SkpsV0JKNUEvU3dpQVBHa1BrREJRZ1N1QU1F
        VXVrRUpnRWpBSkQ0QS9hV3hDYnpzd1NqcVFSV2d0TUJKamdFVnMKCUVqQm1WNUJFVmlZcVJvRllRMUF6Z0VSTklFTmpIeXBtZ1FXUVFrb1RLMEtCSG9CQ2FWQ1FRem1C
        TllCRFlFYVFSRTkvCglnRVJwUml0WVRwQkZhQVl2VTRGL2dFVnNTQzgyZ1JtUU1sb0FSbWVCTzRCR2JDdVFSMHc4Z0RJWWdVS1FMMHFCTDRBdgoJWFFSSFl6MlFTRnNI
        TUdhQlg0QkliQTB3V3hLUVMyOGJNMmhRZ0V0c2dRY3pXNEZTa0VoVkFEQmtnUUdBU0dCbE1FSW8KCWtFTnBFU3RNZ1NDQVEyQTdLMlpRa0NjNEJEOUZnVGVBSnowTlAy
        YUJOWkJEVmdBcmE0RWdnRU5qYnBBblN3SS9QQldBCglLMVY5UDBjZUoyWk9rQ1pOQWo0OGdUT0FQaTA3a0NvNEFFSkFib0FtVWhSQ1BTVXFXMVNRUldRVExWVUFMeFNC
        QjRCRgoJYVVZdmJCUXRab0Yva0N4cUJFUnFnVU9BUkdrdExHbUJYSkFxWVFkQ1o0RXhnRUpzSVNwdk01QXJXZ0pEVm9FeGdDdHYKCUUwTm1naHFRUm1FRVFWOEVLMWc1
        UjE4YWdFWnljMEZtUFN0VkgwZGdnVk9RTW1jSlNtb0NRV21DRDRCQkowZ3lRaFZLCglZNFFia0RBNmdYQXpQaVdBTUFDQmNKQTNLNEVjZ0RjQUx6TUFIWkE4VTRGL2dE
        d0FDcEEvVTRGc1ExSVFnRDhBZ1VKRAoJQUI2UVNFcUJFWUJJQUhxUVN6dUNISUJMQUFPUVQxQ0JWSUJQQUlKUGtGQmpDQ3RjQjBwaUFqZGtCRk5nZ1ZDQVNnQVIKCVVB
        QUFVd0JqTndBQ0t3Q0NWWkFrWndJd1pBaFBZZ05JVndSVVl4SkxYd0FyWUFWUlhJRUxnQ3NBRTFRQUJDUUFDMUVBCglKMHNBTVRBQUVVOEFnUTBrUUFBclFBQXdRQUF6
        UUFBM1FBQThRQUEvUUFCRFFBQklRQUJLUUFCTFFBQlBRQUJRUUFCUgoJUUFCVFFBQlVRQUQvTHdCUWNuTlZLUlVBQUMwQUFBQUNBQUFBWkRRQUFBQUFDQUFBQUVkeVlX
        NWtJRVEwQUFBQUFBTUEKCUFBQURBQUFBQUFDb1FRQUFjRUlBQU5oQ0F3QUFBQUFBQUFBQUFBQUFBQUFBQUFBQUFBQURBQUFBQVFBQUFBQUFBQUFBCglBQUFBQXdBQUFB
        QUFBQUFBQUFBQUFBQUFBQU1BQUFBQUFBQUFBQUFBQUFBQUFBQURBQUFBQVFBQUFBRUFBQUFCQUFBQQoJQUFBQVFBQUFBQUFCQUFBQUFBQUFBTngvSWo0REFBQUFDZ0FB
        QUFBQXFFRUFBT2hCQUFBWVFnQUFJRUlBQUNSQ0FBQXMKCVFnQUFZRUlBQUpKQ0FBQ1VRZ0FBdGtJS0FBQUFZYVpKUHdqU1RqOEp6R2svZVB4Y1AxbERWRDh6RG1BL0hR
        aUFQNDgrCglzeitQUHJNL2p6NnpQd0FBQUFBQUFMWkNBQUFBQUFNQUFBQUJBQUFBQUFCd1FnRUFBQUFBQUFBQUFBQUFBQUFBQUFBQQoJQU1qQ0FBQUFBQUVBQUFBQUFB
        QUFBQUFBQUFBQW9NQUFBS0JBQUFBQUFBTUFBQUFDQUFBQUFBQ29RUUFBMkVJQ0FBQUEKCUFBQUFBQUFBQUFBQUFBQUFBd0FBQUFJQUFBQUFBS2hCQUFEWVFnSUFBQUFB
        QUlBL0FBQ0FQd0FBQUFDQUFBQUFBQUFBCglBTklFQUFBQUFJQS9Bd0FBQUFFQUFBQUFBSEJDQVFBQUFBQUFBQUFBQUFBQUF3QUFBR2tBQUFBQUFCQkJBQUFnUVFBQQoJ
        TUVFQUFFQkJBQUJRUVFBQVlFRUFBSEJCQUFDQVFRQUFpRUVBQUpCQkFBQ1lRUUFBb0VFQUFLaEJBQUN3UVFBQXVFRUEKCUFNQkJBQURJUVFBQTBFRUFBTmhCQUFEZ1FR
        QUE2RUVBQVBCQkFBRDRRUUFBQUVJQUFBUkNBQUFJUWdBQURFSUFBQkJDCglBQUFVUWdBQUdFSUFBQnhDQUFBZ1FnQUFKRUlBQUNoQ0FBQXNRZ0FBTUVJQUFEUkNBQUE0
        UWdBQVBFSUFBRUJDQUFCRQoJUWdBQVNFSUFBRXhDQUFCUVFnQUFWRUlBQUZoQ0FBQmNRZ0FBWUVJQUFHUkNBQUJvUWdBQWJFSUFBSEJDQUFCMFFnQUEKCWVFSUFBSHhD
        QUFDQVFnQUFna0lBQUlSQ0FBQ0dRZ0FBaUVJQUFJcENBQUNNUWdBQWprSUFBSkJDQUFDU1FnQUFsRUlBCglBSlpDQUFDWVFnQUFta0lBQUp4Q0FBQ2VRZ0FBb0VJQUFL
        SkNBQUNrUWdBQXBrSUFBS2hDQUFDcVFnQUFyRUlBQUs1QwoJQUFDd1FnQUFza0lBQUxSQ0FBQzJRZ0FBdUVJQUFMcENBQUM4UWdBQXZrSUFBTUJDQUFEQ1FnQUF4RUlB
        QU1aQ0FBREkKCVFnQUF5a0lBQU14Q0FBRE9RZ0FBMEVJQUFOSkNBQURVUWdBQTFrSUFBTmhDQUFEYVFnQUEzRUlBQU41Q0FBRGdRZ0FBCgk0a0pwQUFBQUFBQUF3QUFB
        Z0w4QUFFREFBQUJBd0FBQVFFQUFBQUJBQUFEQVFBQUFnRDhBQUlBL0FBREFRQUFBUUVBQQoJQUlCQUFBQUF3QUFBUU1BQUFJQkFBQUNBUUFBQW9FQUFBTUJBQUFDQVFB
        QUFBSUFBQUlBL0FBQUF3QUFBZ0Q4QUFFREEKCUFBQkF3QUFBUUVBQUFJQkFBQUNnUUFBQW9FQUFBRURBQUFDZ1FBQUFBSUFBQUFCQUFBQkF3QUFBb0VBQUFLQkFBQUJB
        CglRQUFBZ0VBQUFBQkFBQUFBd0FBQWdEOEFBSUJBQUFBQVFBQUFvRUFBQUVCQUFBQkF3QUFBQUlBQUFJQkFBQUJBd0FBQQoJQUlBQUFJQS9BQUNBdndBQVFNQUFBS0JB
        QUFCQXdBQUFBTUFBQUFDQUFBQUFnQUFBb0VBQUFFREFBQUFBd0FBQWdMOEEKCUFFREFBQUJBd0FBQW9FQUFBQURBQUFCQXdBQUFRTUFBQUlCQUFBQ0FQd0FBUU1BQUFJ
        QkFBQUFBQUFBQWdFQUFBSUMvCglBQUFBUUFBQW9FQUFBRURBQUFDQXZ3QUFBTUFBQU1CQUFBQ2dRQUFBUU1BQUFFREFBQUFBd0FBQWdEOEFBRURBQUFCQQoJd0FBQWdM
        OEFBSUMvQUFEQVFBQUFnRUFBQUVEQUFBQUFBQUFBQUFBQUFJQS9BQUJBd0FBQUFNQUFBTUJBQUFCQXdBQUEKCXdFQUFBRURBQUFCQXdBQUFRTUFBQUFCQUFBQUFBQU1B
        QUFBQ0FBQUFBQUNvUVFBQTJFSUNBQUFBQUFDQVB3QUFnRDhBCglBQUFBQUFEY1F3QUFBQUFCQUFBQUFBQUFBQWNBQUFCRVpXWmhkV3gwREFBQUFBQUF5RUlBQUVoREFB
        Q1dRd0FBeUVNQQoJQVBwREFBQVdSQUFBTDBRQUFFaEVBQUJoUkFBQWVrUUFnSWxFQUFDV1JBSUFBQUFBQU54RFBBQUFBRVVBQUFBQUFBQUEKCUFBQUFBQWNBQUFCRVpX
        WmhkV3gwQUFBQUFBQUFBQUFEQUFBQUJBQUFBQUFBd0VFQUFCQkNBQUJBUWdBQTJFSUVBQUFBCglBQUNnd0FBQWdMOEFBQUFBQUFBQUFBQUFBQUFBQUFBQUFBQUFBQUFB
        Z0Q4QUFJQS9Bd0FBQUFJQUFBQUFBS2hCQUFEWQoJUWdJQUFBQUFBSUEvQUFDQVB3QUFBQUFEQUFBQUFnQUFBQUFBcUVFQUFOaENBZ0FBQUFBQWdEOEFBSUEvQUFBQUFB
        QUEKCUFBQURBQUFBQVFBQUFBQUFjRUlCQUFBQUFBQUFBQUFBQUFBQUFJQS9Bd0FBQUFFQUFBQUFBSEJDQVFBQUFBQUFBQUFBCglBQUFBQVFBQUFBQUFBQUFBQUFBQXpj
        ek12YzNNekQwQkFBQUFBQUFBQUFBQUFBQUFBQUMvQUFBQVB3QUFnRDhEQUFBQQoJQXdBQUFBQUFxRUVBQUhCQ0FBRFlRZ01BQUFBQUFJQS9BQUNBUHdBQWdEOEFBQUFB
        QUFBQUFBTUFBQUFDQUFBQUFBQ28KCVFRQUEyRUlDQUFBQUFBQUFBQUFBQUFBQUFBQUFBQUNBUHdNQUFBQUNBQUFBQUFDb1FRQUEyRUlDQUFBQUFBQ0FQd0FBCglnRDhB
        QUFBQUFBQWdRZ01BQUFBSEFBQUFBQUNvUVFBQWtFSUFBS2hDQUFDMFFnQUF3RUlBQU1oQ0FBRFlRZ2NBQUFBQQoJQUFBQUFBQUFBQUFBUUVBQUFNQkFBQUFRUVFBQUlF
        RUFBREJCQUFBQUFBQUFnRDhEQUFBQUF3QUFBQUFBcUVFQUFIQkMKCUFBRFlRZ01BQUFBQUFJQS9BQUNBUHdBQWdEOEFBQUFBQXdBQUFBQUFBQUFCQUFBQUFBQUFBQUFB
        QUFBQkFBQUFBd0FBCglBQUlBQUFBQUFBQUFBQUNBUHdJQUFBQUFBQUFBQUFDQVB3QUFBQUFEQUFBQUFnQUFBQUFBQUFBQUFJQS9BZ0FBQUFBQQoJZ0Q4QUFJQS9BQUFB
        QUFNQUFBQUVBQUFBQUFBQUFDYVRTVDcrZmo4L0FBQ0FQd1FBQUFBQUFBQUFBQUFBQUFBQWdEOEEKCUFJQS9BQUFBQUFNQUFBQUNBQUFBQUFBQUFBQUFnRDhDQUFBQUFB
        QUFBQUFBQUFBQUFBQUF6Y3dzUUFNQUFBQUNBQUFBCglBQUNvUVFBQTJFSUNBQUFBQUFDQVB3QUFnRDhBQUFBQUFBQ0F2d0FBQUQ4REFBQUFBZ0FBQUFBQXdFRUFBTUJD
        QWdBQQoJQUFBQWdEOEFBSUEvQUFBQUFBRUFBQUFBQUFBQUFRQUFBQW9BQUFCVGJXRnNiQ0JJWVd4c0N3QUFBRzFsWkdsMWJXaGgKCWJHd3hBQUFBQUFBQW9FRUFBSUEv
        Wm1abVB3QUFBQUJDWUdVOUFBQUFBQUFBQUFBQUFBQUFBQUNxUXdBQWdEOEFBSUEvCglCUUFBQUFBQWdEOEFBSUEvQXdBQUFGMEFBQUFBQUtoQkFBQ3dRUUFBdUVFQUFN
        QkJBQURJUVFBQTBFRUFBTmhCQUFEZwoJUVFBQTZFRUFBUEJCQUFENFFRQUFBRUlBQUFSQ0FBQUlRZ0FBREVJQUFCQkNBQUFVUWdBQUdFSUFBQnhDQUFBZ1FnQUEKCUpF
        SUFBQ2hDQUFBc1FnQUFNRUlBQURSQ0FBQTRRZ0FBUEVJQUFFQkNBQUJFUWdBQVNFSUFBRXhDQUFCUVFnQUFWRUlBCglBRmhDQUFCY1FnQUFZRUlBQUdSQ0FBQm9RZ0FB
        YkVJQUFIQkNBQUIwUWdBQWVFSUFBSHhDQUFDQVFnQUFna0lBQUlSQwoJQUFDR1FnQUFpRUlBQUlwQ0FBQ01RZ0FBamtJQUFKQkNBQUNTUWdBQWxFSUFBSlpDQUFDWVFn
        QUFta0lBQUp4Q0FBQ2UKCVFnQUFvRUlBQUtKQ0FBQ2tRZ0FBcGtJQUFLaENBQUNxUWdBQXJFSUFBSzVDQUFDd1FnQUFza0lBQUxSQ0FBQzJRZ0FBCgl1RUlBQUxwQ0FB
        QzhRZ0FBdmtJQUFNQkNBQURDUWdBQXhFSUFBTVpDQUFESVFnQUF5a0lBQU14Q0FBRE9RZ0FBMEVJQQoJQU5KQ0FBRFVRZ0FBMWtJQUFOaENBQURhUWdBQTNFSUFBTjVD
        QUFEZ1FnQUE0a0pkQUFBQUFBQ0FQd0FBZ0Q4QUFJQS8KCUFBQ0FQd0FBZ0Q4QUFJQS9BQUNBUHdBQWdEOXhQWW8vaGV1UlAvWW9uRC9zVVpnL2o4S1ZQM0U5aWorYW1a
        ay9qOEtWCglQM3NVamorUHdwVS9tcG1aUDdnZXBUL056SXcvQ3RlalAxSzRuaithbVprLzE2T1FQOWVqa0QrNEhxVS9LVnlQUCtGNgoJbEQ4OUNwYy9leFNPUDQvQ2xU
        OUk0Wm8vZXhTdVA2NUhvVDhBQUlBL0tWeVBQMUs0bmo4QUFJQS80WHFVUDF5UG9qL3MKCVVaZy9YSStpUHgrRnF6K2tjSjAvTXpPelAzc1Vyait1UjZFL1NPR2FQM0U5
        aWo5Y2o2SS93L1dJUCt4Um1EL056SXcvCglGSzZIUHgrRml6L3NVWmcvVXJpZVAzc1Vqait1UjZFL0tWeVBQNXFabVQ5Y2o2SS9DdGVqUDJabXBqK2tjSjAvTXpPVAoJ
        UDQvQ3RUOVN1SjQvbXBtWlA1cVp1VCs0SHFVL0FBQ2dQODNNckQrYW1iay9wSENkUDBqaG1qL056S3cvUFFxWFB5bGMKCWp6L0Q5YWcvUFFxWFA2UnduVCthbVprL2NU
        MnFQMGpobWo5U3VKNC9VcmllUDBqaG1qOTdGSzQvNFhxVVAvWW9uRCtrCgljSjAvQUFBQUFBTUFBQUFEQUFBQUFBQ29RUUFBY0VJQUFOaENBd0FBQUFBQWdEOEFBSUEv
        QUFDQVB3QUFBQUFBQUFBQQoJQXdBQUFGMEFBQUFBQUtoQkFBQ3dRUUFBdUVFQUFNQkJBQURJUVFBQTBFRUFBTmhCQUFEZ1FRQUE2RUVBQVBCQkFBRDQKCVFRQUFBRUlB
        QUFSQ0FBQUlRZ0FBREVJQUFCQkNBQUFVUWdBQUdFSUFBQnhDQUFBZ1FnQUFKRUlBQUNoQ0FBQXNRZ0FBCglNRUlBQURSQ0FBQTRRZ0FBUEVJQUFFQkNBQUJFUWdBQVNF
        SUFBRXhDQUFCUVFnQUFWRUlBQUZoQ0FBQmNRZ0FBWUVJQQoJQUdSQ0FBQm9RZ0FBYkVJQUFIQkNBQUIwUWdBQWVFSUFBSHhDQUFDQVFnQUFna0lBQUlSQ0FBQ0dRZ0FB
        aUVJQUFJcEMKCUFBQ01RZ0FBamtJQUFKQkNBQUNTUWdBQWxFSUFBSlpDQUFDWVFnQUFta0lBQUp4Q0FBQ2VRZ0FBb0VJQUFLSkNBQUNrCglRZ0FBcGtJQUFLaENBQUNx
        UWdBQXJFSUFBSzVDQUFDd1FnQUFza0lBQUxSQ0FBQzJRZ0FBdUVJQUFMcENBQUM4UWdBQQoJdmtJQUFNQkNBQURDUWdBQXhFSUFBTVpDQUFESVFnQUF5a0lBQU14Q0FB
        RE9RZ0FBMEVJQUFOSkNBQURVUWdBQTFrSUEKCUFOaENBQURhUWdBQTNFSUFBTjVDQUFEZ1FnQUE0a0pkQUFBQUFBQUFBQUFBQUFBQUFBQUFBQUFBQUFBQUFBQUFBQUFB
        CglBQUFBQUFBQUFBQXhtdVc4U09GSXZSZFZCNzFBR1dFODBFSjR2Vi9ZU1Qyd05rbTkzam5pdWRoVnFyMHV1R3U5T0NFVAoJT3RkamdMd1cyNFM5UkZJRlBhaUpqenlD
        bDdDNjdyeXFQWkxpdGIyMThibzkybXhKUFVNdm9UM2tGcXU3dlFodnZRUi8KCW9MM1gzSzI5MnhXZFBZZURRejI4QlpXOU1qWEdQTmw3c2IxUjRhNjhqSXp5UEhUL3dU
        MWI1amE3Wm1LUHVoQXB1ajNjCglaN005SUM2YVBhVzBFcjNPMzRXOGpjbTJQRkpIcUR4S05MbzljdVJudmJrYWdEMy9OYTI5MUdXZFBZa2RYVHcyamxzOQoJcmx5UXZU
        cnBYYjFnWUtFOGZJZEdQUkZuQ2oyT1dRTTlHL3pXTzhiVXNieFhHSHM5QVJobHZSMTh3and6bWlTOVR6QlMKCXZVbHZPcjMzVGs0OWJOTzJQY20ySjcwVlM2VTlQVjZk
        UFVVdGVyMCtwSGc5bGVYZnZCM2hsN3dsd1l3OWZrclpPV2IzCgl4ejFhV1NFOWxVdk9QQU1QbkwzYW1tdTliTUdTUFNnejhEd2x2N085N2FOZlBVYjhqajJ3K1VDOUFB
        QUFBQU1BQUFBQQoJQUlBL0FBQ0FQd0FBZ0Q4REFBQUFBd0FBQUFBQXFFRUFBSEJDQUFEWVFnTUFBQUFBQUlBL0FBQ0FQd0FBZ0Q4QUFBQUEKCUF3QUFBQU1BQUFBQUFL
        aEJBQUJ3UWdBQTJFSURBQUFBQUFDQVB3QUFnRDhBQUlBL0FBQUFBQU1BQUFBREFBQUFBQUNvCglRUUFBY0VJQUFOaENBd0FBQUFBQWdEOEFBSUEvQUFDQVB3QUFBQUFB
        QUlBL0FBQ0FQd1lBQUFBQUFJQS9tcG1aUHMzTQoJVEQvTnpNdy9tcG1aUGdnQUFBQUFBQUFBQUFBQUFBQUFBQUFBQUFBQUFBQUFBQUFBQUFBQUFBQUFBQUFBQUFNQUFB
        QUQKCUFBQUFBQUNvUVFBQWNFSUFBTmhDQXdBQUFBQUFnRDhBQUlBL0FBQ0FQd0FBQUFBREFBQUFBd0FBQUFBQXFFRUFBSEJDCglBQURZUWdNQUFBQUFBSUEvQUFDQVB3
        QUFnRDhBQUFBQUF3QUFBQU1BQUFBQUFLaEJBQUJ3UWdBQTJFSURBQUFBQUFDQQoJUHdBQWdEOEFBSUEvQUFBQUFBTUFBQUFEQUFBQUFBQ29RUUFBY0VJQUFOaENBd0FB
        QUFBQWdEOEFBSUEvQUFDQVB3QUEKCUFBQUJBQUFBQVFBQUFBQUFjRUlEQUFBQUFRQUFBQUFBQUFBQkFBQUFBQUFBQUFBQUFBQk9JOWc5QXdBQUFCWUFBQUFBCglBQkJC
        QUFDb1FRQUF3RUVBQU9CQkFBRG9RUUFBQUVJQUFBaENBQUFZUWdBQUpFSUFBREJDQUFCQVFnQUFURUlBQUdCQwoJQUFCd1FnQUFnRUlBQUloQ0FBQ1FRZ0FBbUVJQUFL
        QkNBQUNvUWdBQXdFSUFBTmhDRmdBQUFIaDBKRC9wNVk4L0RHR1MKCVAzanlsRDlOZzVRL1RZT1VQMDJEbEQ5Tmc1US82b3FSUDAyRGxEOU5nNVEvNm9xUlAxbXdqai9x
        aXBFL1diQ09QMW13Cglqajlac0k0LzU0UmNQK2VFWEQ5K0pFby8ya010UHpHUzhqNEFBQUFBQVFBQUFBQUFBQUFCQUFBQU16TXpQMlptcGo4QgoJQUFBQUFRQUFBQUVB
        QUFCbVptWS96Y3lNUHdFQUFBQUFBQUFBQUFEd1FnQUFBQUFPQUFBQUFBQUFQODNNekQzTnpFdysKCUFBQUFQd1FBQUFBQ0FBQUFBd0FBQUFRQUFBQUJBQUFBQWdBQUFB
        Y0FBQUFBQUFBQUFBQUFBQTRBQUFBUUFBQUFBQUFBCglBTTNNekQwQUFJQS9BQUFBQUFBQUFMOEFBSEJDQUFBQUFBQUFBQUFBQUFBQUFBQUFBQUFBQUFBQUFBQUFBQUFB
        QUFBQQoJQUFBQUFBQUFBQUFBQUFJQUFBQUFBQUFBQUFBQUFBQUFBQUFPQUFBQUVBQUFBQUFBQUFBQUFBQUFBQUFBQUFBQUFBQUEKCUFBQUFBQUFBQUFBQUFBQUFBQUFB
        QUFBQUFBQUFBQUFBQUFBQUFBQUFBQUFBQUFBQUFBQUFBQUFBQUFBQUFBQUNBQUFBCglBQUFBQUFBQUFBQUFBQUFBRGdBQUFCQUFBQUFBQUFBQUFBQUFBQUFBQUFBQUFB
        QUFBQUFBQUFBQUFBQUFBQUFBQUFBQQoJQUFBQUFBQUFBQUFBQUFBQUFBQUFBQUFBQUFBQUFBQUFBQUFBQUFBQUFBQUFBUUFBQUFFQUFBQUFBSUEvQUFCQXdRQUEKCUFB
        QUNBQUFBQXdBQUFBRUFBQUFGQUFBQUJBQUFBQUVBQUFBREFBQUFBQURBUHdBQW9EOEFBTUEvQUFCaHd4eHVnY0FBCglBQUFBQlFBQUFBQUFBQUFBQUJEQkFBREF3Z0FB
        d01JQUFNRENCUUFBQUFBQUFBQ1B3dlU4QUFBQUFBQUFBQUFBQUFBQQoJQlFBQUFBQUFBQUFBQUFBQUFBQUFBQUFBQUFBQUFBQUFBUUFBQUFBQUFBQUVBQUFBQVFBQUFB
        TUFBQUFBQU1BL0FBQkEKCVB3QUF3RDhBQURSQ0hHNkJ3QUFBQUFBRkFBQUFBQUFRd1FBQUFBQUFBTURDQUFEQXdnQUF3TUlGQUFBQUN0Y2pQYWFiCgl4RG9BQUFBQUFB
        QUFBQUFBQUFBRkFBQUFBQUFBQUFBQUFBQUFBQUFBQUFBQUFBQUFBQUFCQUFBQUFBQUFBQVFBQUFBQQoJQUFBQUF3QUFBSS9DOVQ4OUNsZS9INFZyUHdBQXRFSUFBQUFB
        QUFBQUFBVUFBQUFBQUVEQkFBQkF3UUFBY01JQUFIREMKCUFBQnd3Z1VBQUFBQUFBQUFBQUFBQUFBQUFBQUFBQUFBQUFBQUFBVUFBQUFBQUFBQUFBQUFBQUFBQUFBQUFB
        QUFBQUFBCglBQUVBQUFBQUFBQUFCQUFBQUFBQUFBQURBQUFBTXpNenYxeVB3ajZ1UjJFL0FBQUFBQUFBQUFBQUFBQUFCUUFBQUFBQQoJUU1FQUFFREJBQUJ3d2dBQWNN
        SUFBSERDQlFBQUFBQUFBQUFBQUFBQUFBQUFBQUFBQUFBQUFBQUFCUUFBQUFBQUFBQUEKCUFBQUFBQUFBQUFBQUFBQUFBQUFBQVFBQUFBQUFBQUFFQUFBQUFBQUFBQU1B
        QUFDNEhzVS9QUXBYUDY1SDRUOEFBQUFBCglBQUFBQUFBQUFBQUZBQUFBQUFCQXdRQUFRTUVBQUhEQ0FBQnd3Z0FBY01JRkFBQUFBQUFBQUFBQUFBQUFBQUFBQUFBQQoJ
        QUFBQUFBQUZBQUFBQUFBQUFBQUFBQUFBQUFBQUFBQUFBQUFBQUFBQkFBQUFBQUFBQUFFQUFBQUFBQUFBQVFBQUFBTUEKCUFBQXpNek0vQUFBQUFHWm1wajhBQUpCQkFB
        QUFBQUFBQUFBQUFBQUEKCTwvZGF0YT4KCTxrZXk+bWFudWZhY3R1cmVyPC9rZXk+Cgk8aW50ZWdlcj4xMjk4NDI4NTMyPC9pbnRlZ2VyPgoJPGtleT5uYW1lPC9rZXk+
        Cgk8c3RyaW5nPlVudGl0bGVkPC9zdHJpbmc+Cgk8a2V5PnN1YnR5cGU8L2tleT4KCTxpbnRlZ2VyPjEzNDk3OTMxMzM8L2ludGVnZXI+Cgk8a2V5PnR5cGU8L2tleT4K
        CTxpbnRlZ2VyPjE2MzUwODU2ODU8L2ludGVnZXI+Cgk8a2V5PnZlcnNpb248L2tleT4KCTxpbnRlZ2VyPjA8L2ludGVnZXI+CjwvZGljdD4KPC9wbGlzdD4KAQAAAAAA
        AAAAAA==
      >
      FLOATPOS 0 0 0 0
      FXID {3BBA699B-7A7A-6742-8D6D-006CC7D7AAA7}
      WAK 0 0
      BYPASS 0 0 0
      <VST "VST: ReaEQ (Cockos)" reaeq.vst.dylib 0 "" 1919247729<56535472656571726561657100000000> ""
        cWVlcu5e7f4CAAAAAQAAAAAAAAACAAAAAAAAAAIAAAABAAAAAAAAAAIAAAAAAAAAqAAAAAEAAAAAABAA
        IQAAAAQAAAAAAAAAAQAAAAAn4P3uJlVA/4lNFo363j8AAAAAAAAAQAEIAAAAAQAAAAAAAAAAwHJAAAAAAAAA8D8AAAAAAAAAQAEIAAAAAQAAAEos3gIjQIlA/v//////
        7z8AAAAAAAAAQAEBAAAAAQAAAEF/W4DmvZtA/8x5kMDFzj8Af2q8dJP4PwEBAAAAAQAAAAAAAAAAAPA/AAAAAFQCAABwAQAA
        AAAQAAAA
      >
      FLOATPOS 605 103 596 422
      FXID {98840EB4-8221-4048-886B-D2B5976F62BC}
      WAK 0 0
    >
  >
  <TRACK {BF4A2CC5-54FB-D548-A977-9A9FA0835106}
    NAME "Piano - high [2]"
    PEAKCOL 16576
    BEAT -1
    AUTOMODE 0
    VOLPAN 1 0 -1 -1 1
    MUTESOLO 0 0 0
    IPHASE 0
    PLAYOFFS 0 1
    ISBUS 0 0
    BUSCOMP 0 0 0 0 0
    SHOWINMIX 0 0.6667 0.5 1 0.5 0 -1 0
    FREEMODE 0
    SEL 0
    REC 0 4096 1 0 0 0 0
    VU 2
    TRACKHEIGHT 0 0 0 0 0 0
    INQ 0 0 0 0.5 100 0 0 100
    NCHAN 2
    FX 1
    TRACKID {BF4A2CC5-54FB-D548-A977-9A9FA0835106}
    PERF 0
    MIDIOUT -1
    MAINSEND 1 0
    <FXCHAIN
      WNDRECT 335 203 649 672
      SHOW 0
      LASTSEL 0
      DOCKED 0
      BYPASS 0 0 0
      <VST "VST: ReaControlMIDI (Cockos)" reacontrolMIDI.vst.dylib 0 "" 1919118692<56535472636D64726561636F6E74726F> ""
        ZG1jcu5e7f4AAAAAAAAAAO8AAAABAAAAAAAQAA==
        /////wAAAAAAAAAAAAAAAAkAAAAMAAAAAQAAAP8/AAAAIAAAACAAAAAAAAA+AAAAL1VzZXJzL2FuZHkvTGlicmFyeS9BcHBsaWNhdGlvbiBTdXBwb3J0L1JFQVBFUi9E
        YXRhL0dNLnJlYWJhbmsAAAAAAAAAAAAAAAAAAAAAAAAAAAAAAAAAAAAAAAAAAAAAAAABAAAAAAAAAAAAAAAAAAAAAAAAAAAAAAAAAAAAAAYAAABNYWpvcgANAAAAMTAy
        MDM0MDUwNjA3AAEAAAAAAAAAAAAAAAAKAAAADQAAAAEAAAAAAAAAAAAAAAAAAAA=
        AAAQAAAA
      >
      FLOATPOS 0 0 0 0
      FXID {3B6A16A5-094A-624B-BDD4-F7325D831F30}
      WAK 0 0
    >
    <ITEM
      POSITION 3.9649999999674
      SNAPOFFS 0
      LENGTH 124.0350000000326
      LOOP 1
      ALLTAKES 0
      FADEIN 1 0 0 1 0 0 0
      FADEOUT 1 0 0 1 0 0 0
      MUTE 0 0
      SEL 0
      IGUID {B38C0D23-6D6E-FF40-A43B-481EE75ADC35}
      IID 75
      NAME "07-Piano - high [2]-Recorded MIDI-glued"
      VOLPAN 1 0 1 -1
      SOFFS 0 0
      PLAYRATE 1 1 0 -1 0 0.0025
      CHANMODE 0
      GUID {1995B01E-D959-C549-B057-FA5EC5762145}
      <SOURCE MIDI
        HASDATA 1 960 QN
        CCINTERP 32
        POOLEDEVTS {8D0F4F6D-3C92-544F-BAE6-1C0B912BDCC4}
        E 11531 90 3e 45
        E 208 90 40 43
        E 10 80 3e 00
        E 241 80 40 00
        E 4 90 3e 3b
        E 231 90 40 44
        E 11 80 3e 00
        E 240 80 40 00
        E 6 90 3e 3c
        E 235 90 40 3d
        E 6 80 3e 00
        E 260 90 3e 3e
        E 4 80 40 00
        E 222 90 40 43
        E 7 80 3e 00
        E 253 80 40 00
        E 4 90 3e 3f
        E 238 90 40 3e
        E 1 80 3e 00
        E 246 80 40 00
        E 3 90 3e 3c
        E 233 90 40 45
        E 7 80 3e 00
        E 224 90 3e 42
        E 7 80 40 00
        E 227 90 40 47
        E 9 80 3e 00
        E 225 80 40 00
        E 7 90 3e 3e
        E 213 90 40 46
        E 15 80 3e 00
        E 52 80 40 00
        E 165 90 40 49
        E 238 90 42 3f
        E 8 80 40 00
        E 248 80 42 00
        E 9 90 40 43
        E 237 80 40 00
        E 5 90 42 43
        E 225 80 42 00
        E 10 90 40 41
        E 244 90 42 41
        E 6 80 40 00
        E 238 80 42 00
        E 12 90 40 3d
        E 235 90 42 41
        E 4 80 40 00
        E 237 80 42 00
        E 12 90 40 35
        E 242 80 40 00
        E 1 90 42 45
        E 225 80 42 00
        E 20 90 40 39
        E 208 80 40 00
        E 2 90 42 43
        E 221 80 42 00
        E 12 90 40 3d
        E 242 90 42 46
        E 6 80 40 00
        E 216 80 42 00
        E 17 90 40 3a
        E 238 90 42 43
        E 12 80 40 00
        E 103 80 42 00
        E 108 90 42 43
        E 267 90 43 40
        E 2 80 42 00
        E 215 80 43 00
        E 8 90 42 44
        E 259 90 43 43
        E 1 80 42 00
        E 224 80 43 00
        E 8 90 42 43
        E 234 90 43 41
        E 9 80 42 00
        E 227 80 43 00
        E 12 90 42 3f
        E 231 90 43 3f
        E 3 80 42 00
        E 230 90 42 3f
        E 2 80 43 00
        E 258 90 43 36
        E 3 80 42 00
        E 236 80 43 00
        E 3 90 42 3f
        E 228 90 43 3e
        E 2 80 42 00
        E 228 80 43 00
        E 6 90 42 3f
        E 235 90 43 3c
        E 7 80 42 00
        E 247 90 42 43
        E 1 80 43 00
        E 245 90 43 43
        E 17 80 42 00
        E 238 80 43 00
        E 0 90 42 40
        E 240 90 43 46
        E 12 80 42 00
        E 220 80 43 00
        E 2 90 42 3e
        E 249 90 43 45
        E 12 80 42 00
        E 223 90 42 45
        E 9 80 43 00
        E 229 90 43 44
        E 9 80 42 00
        E 233 90 42 44
        E 9 80 43 00
        E 222 90 43 45
        E 13 80 42 00
        E 215 90 42 48
        E 10 80 43 00
        E 236 90 43 48
        E 23 80 42 00
        E 227 90 42 4b
        E 13 80 43 00
        E 230 90 43 51
        E 19 80 42 00
        E 215 90 42 4a
        E 18 80 43 00
        E 221 90 43 4e
        E 13 80 42 00
        E 236 90 42 4b
        E 11 80 43 00
        E 228 90 43 4d
        E 7 80 42 00
        E 213 80 43 00
        E 31 90 3e 4a
        E 231 90 40 40
        E 13 80 3e 00
        E 232 90 3e 4b
        E 7 80 40 00
        E 235 90 40 4f
        E 18 80 3e 00
        E 229 90 3e 49
        E 13 80 40 00
        E 218 90 40 4b
        E 13 80 3e 00
        E 234 90 3e 46
        E 9 80 40 00
        E 212 90 40 4c
        E 16 80 3e 00
        E 204 90 3e 48
        E 5 80 40 00
        E 244 90 40 47
        E 14 80 3e 00
        E 221 90 3e 49
        E 13 80 40 00
        E 226 90 40 47
        E 9 80 3e 00
        E 225 90 3e 47
        E 7 80 40 00
        E 230 90 40 49
        E 9 80 3e 00
        E 252 90 3e 46
        E 2 80 40 00
        E 232 90 40 4d
        E 16 80 3e 00
        E 158 80 40 00
        E 64 90 40 4d
        E 262 80 40 00
        E 3 90 42 48
        E 244 80 42 00
        E 1 90 40 46
        E 241 90 42 4d
        E 7 80 40 00
        E 236 80 42 00
        E 3 90 40 48
        E 234 90 42 4a
        E 3 80 40 00
        E 250 90 40 48
        E 1 80 42 00
        E 227 90 42 4e
        E 12 80 40 00
        E 229 90 40 45
        E 1 80 42 00
        E 214 90 42 48
        E 9 80 40 00
        E 226 90 40 48
        E 6 80 42 00
        E 235 90 42 4a
        E 14 80 40 00
        E 217 90 40 49
        E 8 80 42 00
        E 248 90 42 4c
        E 10 80 40 00
        E 235 90 40 48
        E 1 80 42 00
        E 228 90 42 4b
        E 20 80 40 00
        E 95 80 42 00
        E 126 90 42 4c
        E 238 90 43 49
        E 14 80 42 00
        E 233 90 42 4b
        E 7 80 43 00
        E 231 90 43 4c
        E 16 80 42 00
        E 230 90 42 4e
        E 8 80 43 00
        E 245 90 43 4b
        E 19 80 42 00
        E 214 90 42 4c
        E 17 80 43 00
        E 214 90 43 4a
        E 26 80 42 00
        E 214 90 42 4d
        E 25 80 43 00
        E 225 90 43 4c
        E 19 80 42 00
        E 204 90 42 4b
        E 24 80 43 00
        E 222 90 43 4d
        E 23 80 42 00
        E 210 90 42 4d
        E 14 80 43 00
        E 224 90 43 4c
        E 11 80 42 00
        E 234 90 42 4e
        E 13 80 43 00
        E 236 90 43 4a
        E 20 80 42 00
        E 217 90 42 4e
        E 16 80 43 00
        E 224 90 43 4e
        E 20 80 42 00
        E 213 90 42 4e
        E 21 80 43 00
        E 221 90 43 52
        E 23 80 42 00
        E 202 90 42 4f
        E 23 80 43 00
        E 221 90 43 4c
        E 23 80 42 00
        E 222 90 42 4e
        E 15 80 43 00
        E 224 90 43 53
        E 29 80 42 00
        E 208 90 42 5a
        E 23 80 43 00
        E 211 90 43 51
        E 28 80 42 00
        E 215 90 42 50
        E 20 80 43 00
        E 214 90 43 4d
        E 24 80 42 00
        E 220 90 42 50
        E 25 80 43 00
        E 237 90 43 50
        E 23 80 42 00
        E 219 90 42 4c
        E 19 80 43 00
        E 230 90 43 4d
        E 18 80 42 00
        E 191 80 43 00
        E 40 90 3e 4e
        E 215 90 40 44
        E 1 80 3e 00
        E 259 80 40 00
        E 2 90 3e 47
        E 164 80 3e 00
        E 39 90 40 43
        E 258 80 40 00
        E 10 90 3e 41
        E 216 80 3e 00
        E 6 90 40 49
        E 228 80 40 00
        E 13 90 3e 49
        E 224 80 3e 00
        E 2 90 40 43
        E 232 80 40 00
        E 16 90 3c 51
        E 224 80 3c 00
        E 6 90 3e 47
        E 253 80 3e 00
        E 9 90 3c 4c
        E 212 80 3c 00
        E 7 90 3e 45
        E 265 80 3e 00
        E 4 90 3c 4c
        E 217 80 3c 00
        E 8 90 3e 45
        E 250 80 3e 00
        E 5 90 3c 47
        E 205 80 3c 00
        E 23 90 3e 40
        E 192 80 3e 00
        E 29 90 3b 4d
        E 221 80 3b 00
        E 14 90 3c 42
        E 269 90 3b 4b
        E 1 80 3c 00
        E 222 80 3b 00
        E 11 90 3c 46
        E 247 80 3c 00
        E 11 90 3b 4c
        E 215 80 3b 00
        E 17 90 3c 43
        E 225 80 3c 00
        E 7 90 3b 49
        E 224 80 3b 00
        E 9 90 3c 47
        E 219 80 3c 00
        E 19 90 39 4f
        E 225 80 39 00
        E 9 90 3b 48
        E 243 80 3b 00
        E 15 90 39 4c
        E 203 80 39 00
        E 17 90 3b 45
        E 251 80 3b 00
        E 3 90 39 4b
        E 209 80 39 00
        E 28 90 3b 44
        E 247 80 3b 00
        E 7 90 39 4a
        E 217 80 39 00
        E 4 90 3b 48
        E 40 80 3b 00
        E 203 90 3e 4d
        E 230 90 40 48
        E 19 80 3e 00
        E 239 90 3e 48
        E 10 80 40 00
        E 215 90 40 47
        E 23 80 3e 00
        E 229 90 3e 47
        E 13 80 40 00
        E 217 90 40 42
        E 13 80 3e 00
        E 236 80 40 00
        E 1 90 3e 45
        E 220 90 40 44
        E 16 80 3e 00
        E 211 90 3e 44
        E 2 80 40 00
        E 204 90 40 44
        E 23 80 3e 00
        E 249 90 3e 40
        E 8 80 40 00
        E 222 90 40 45
        E 13 80 3e 00
        E 235 90 3e 44
        E 10 80 40 00
        E 234 90 40 41
        E 16 80 3e 00
        E 234 90 3e 45
        E 10 80 40 00
        E 231 90 40 3f
        E 13 80 3e 00
        E 203 80 40 00
        E 22 90 3c 50
        E 230 80 3c 00
        E 12 90 3e 3f
        E 252 80 3e 00
        E 3 90 3c 45
        E 208 80 3c 00
        E 11 90 3e 40
        E 240 80 3e 00
        E 3 90 3c 4a
        E 208 80 3c 00
        E 11 90 3e 40
        E 256 90 3c 49
        E 4 80 3e 00
        E 219 80 3c 00
        E 11 90 3e 41
        E 276 80 3e 00
        E 0 90 3c 48
        E 219 80 3c 00
        E 13 90 3e 40
        E 250 80 3e 00
        E 6 90 3c 4a
        E 223 80 3c 00
        E 14 90 3e 3f
        E 212 80 3e 00
        E 17 90 3c 47
        E 225 80 3c 00
        E 26 90 3e 40
        E 223 80 3e 00
        E 15 90 3c 49
        E 203 80 3c 00
        E 18 90 3e 41
        E 226 80 3e 00
        E 22 90 3b 4f
        E 227 80 3b 00
        E 17 90 3c 3c
        E 244 80 3c 00
        E 7 90 3b 4b
        E 216 80 3b 00
        E 24 90 3c 40
        E 235 80 3c 00
        E 3 90 3b 4a
        E 225 80 3b 00
        E 21 90 3c 3e
        E 222 90 3b 48
        E 4 80 3c 00
        E 223 80 3b 00
        E 16 90 3c 42
        E 242 80 3c 00
        E 5 90 3b 49
        E 207 80 3b 00
        E 12 90 3c 40
        E 252 80 3c 00
        E 1 90 3b 4a
        E 217 80 3b 00
        E 20 90 3c 42
        E 237 80 3c 00
        E 5 90 3b 4a
        E 232 80 3b 00
        E 28 90 3c 3b
        E 223 80 3c 00
        E 8 90 3b 47
        E 230 80 3b 00
        E 12 90 3c 45
        E 209 80 3c 00
        E 18 90 39 51
        E 229 80 39 00
        E 18 90 3b 3f
        E 232 80 3b 00
        E 6 90 39 49
        E 219 80 39 00
        E 17 90 3b 42
        E 229 80 3b 00
        E 8 90 39 4a
        E 221 80 39 00
        E 17 90 3b 42
        E 245 80 3b 00
        E 4 90 39 44
        E 208 80 39 00
        E 26 90 3b 42
        E 241 80 3b 00
        E 5 90 39 47
        E 208 80 39 00
        E 30 90 3b 3e
        E 236 80 3b 00
        E 0 90 39 47
        E 215 80 39 00
        E 21 90 3b 42
        E 242 80 3b 00
        E 7 90 39 48
        E 213 80 39 00
        E 33 90 3b 3e
        E 236 80 3b 00
        E 10 90 39 4a
        E 221 80 39 00
        E 11 90 3b 48
        E 37 80 3b 00
        E 200 90 3e 49
        E 259 80 3e 00
        E 12 90 40 40
        E 219 90 3e 45
        E 2 80 40 00
        E 230 90 40 44
        E 9 80 3e 00
        E 230 90 3e 47
        E 13 80 40 00
        E 240 90 40 41
        E 11 80 3e 00
        E 225 90 3e 45
        E 13 80 40 00
        E 231 90 40 41
        E 10 80 3e 00
        E 229 90 3e 45
        E 9 80 40 00
        E 247 90 40 41
        E 4 80 3e 00
        E 218 90 3e 42
        E 11 80 40 00
        E 230 90 40 42
        E 5 80 3e 00
        E 231 80 40 00
        E 1 90 3e 46
        E 245 90 40 45
        E 4 80 3e 00
        E 234 80 40 00
        E 1 90 3e 46
        E 229 90 40 4a
        E 14 80 3e 00
        E 81 80 40 00
        E 149 90 40 4a
        E 214 90 42 44
        E 8 80 40 00
        E 240 80 42 00
        E 2 90 40 42
        E 241 90 42 47
        E 6 80 40 00
        E 243 80 42 00
        E 9 90 40 43
        E 234 90 42 46
        E 11 80 40 00
        E 225 80 42 00
        E 1 90 40 45
        E 247 90 42 45
        E 4 80 40 00
        E 230 80 42 00
        E 1 90 40 43
        E 243 90 42 46
        E 5 80 40 00
        E 236 80 42 00
        E 8 90 40 44
        E 224 90 42 49
        E 5 80 40 00
        E 237 90 40 45
        E 1 80 42 00
        E 235 90 42 4a
        E 9 80 40 00
        E 229 80 42 00
        E 9 90 40 3f
        E 233 90 42 48
        E 12 80 40 00
        E 100 80 42 00
        E 120 90 42 49
        E 245 90 43 46
        E 11 80 42 00
        E 229 90 42 42
        E 1 80 43 00
        E 246 90 43 44
        E 13 80 42 00
        E 225 90 42 49
        E 15 80 43 00
        E 220 90 43 43
        E 18 80 42 00
        E 215 90 42 46
        E 12 80 43 00
        E 243 90 43 44
        E 21 80 42 00
        E 226 90 42 46
        E 12 80 43 00
        E 219 90 43 40
        E 26 80 42 00
        E 223 90 42 43
        E 5 80 43 00
        E 215 90 43 41
        E 22 80 42 00
        E 227 90 42 48
        E 8 80 43 00
        E 234 90 43 40
        E 9 80 42 00
        E 236 90 42 44
        E 3 80 43 00
        E 246 90 43 3f
        E 8 80 42 00
        E 230 90 42 46
        E 5 80 43 00
        E 234 90 43 41
        E 13 80 42 00
        E 220 90 42 44
        E 6 80 43 00
        E 241 90 43 43
        E 15 80 42 00
        E 220 90 42 43
        E 8 80 43 00
        E 255 90 43 45
        E 15 80 42 00
        E 221 90 42 43
        E 3 80 43 00
        E 239 90 43 45
        E 15 80 42 00
        E 212 90 42 49
        E 14 80 43 00
        E 231 90 43 47
        E 9 80 42 00
        E 232 90 42 49
        E 17 80 43 00
        E 231 90 43 4b
        E 28 80 42 00
        E 200 90 42 4c
        E 24 80 43 00
        E 211 90 43 4a
        E 25 80 42 00
        E 217 90 42 4d
        E 14 80 43 00
        E 210 90 43 4b
        E 42 80 42 00
        E 65 80 43 00
        E 142 90 45 50
        E 249 90 47 4a
        E 24 80 45 00
        E 197 90 45 42
        E 25 80 47 00
        E 236 90 47 43
        E 13 80 45 00
        E 208 90 45 42
        E 13 80 47 00
        E 257 90 47 42
        E 6 80 45 00
        E 227 90 45 3d
        E 3 80 47 00
        E 260 80 45 00
        E 1 90 47 40
        E 206 80 47 00
        E 6 90 43 48
        E 220 90 45 39
        E 3 80 43 00
        E 256 80 45 00
        E 0 90 43 45
        E 226 90 45 44
        E 6 80 43 00
        E 235 90 43 46
        E 16 80 45 00
        E 237 80 43 00
        E 1 90 45 40
        E 238 90 43 41
        E 1 80 45 00
        E 237 80 43 00
        E 3 90 45 41
        E 212 80 45 00
        E 14 90 42 46
        E 238 90 43 43
        E 16 80 42 00
        E 238 90 42 45
        E 12 80 43 00
        E 239 90 43 47
        E 10 80 42 00
        E 228 90 42 44
        E 11 80 43 00
        E 223 90 43 45
        E 10 80 42 00
        E 217 90 42 46
        E 11 80 43 00
        E 234 90 43 41
        E 6 80 42 00
        E 218 90 42 49
        E 4 80 43 00
        E 238 90 43 48
        E 15 80 42 00
        E 230 90 42 4b
        E 16 80 43 00
        E 221 90 43 4d
        E 18 80 42 00
        E 220 90 42 4b
        E 16 80 43 00
        E 227 90 43 4f
        E 15 80 42 00
        E 222 90 42 4b
        E 12 80 43 00
        E 231 90 43 55
        E 32 80 42 00
        E 59 80 43 00
        E 143 90 45 55
        E 252 90 47 41
        E 14 80 45 00
        E 239 90 45 43
        E 3 80 47 00
        E 254 90 47 3f
        E 3 80 45 00
        E 231 90 45 44
        E 14 80 47 00
        E 238 90 47 40
        E 7 80 45 00
        E 229 90 45 40
        E 9 80 47 00
        E 237 80 45 00
        E 4 90 47 3d
        E 208 90 43 45
        E 2 80 47 00
        E 234 90 45 43
        E 10 80 43 00
        E 230 90 43 49
        E 17 80 45 00
        E 208 90 45 47
        E 10 80 43 00
        E 232 90 43 4b
        E 26 80 45 00
        E 222 90 45 4a
        E 13 80 43 00
        E 228 90 43 48
        E 17 80 45 00
        E 237 90 45 4b
        E 10 80 43 00
        E 211 80 45 00
        E 5 90 42 48
        E 243 90 43 48
        E 25 80 42 00
        E 215 90 42 4b
        E 13 80 43 00
        E 216 90 43 4b
        E 21 80 42 00
        E 215 90 42 4a
        E 16 80 43 00
        E 228 90 43 45
        E 19 80 42 00
        E 215 90 42 4b
        E 14 80 43 00
        E 226 90 43 4a
        E 13 80 42 00
        E 228 90 42 47
        E 17 80 43 00
        E 240 90 43 47
        E 11 80 42 00
        E 216 90 42 47
        E 12 80 43 00
        E 237 90 43 47
        E 11 80 42 00
        E 221 90 42 48
        E 21 80 43 00
        E 216 90 43 46
        E 13 80 42 00
        E 214 90 42 4b
        E 1 80 43 00
        E 259 90 43 4e
        E 28 80 42 00
        E 27 80 43 00
        E 183 90 45 5b
        E 263 90 47 49
        E 13 80 45 00
        E 222 90 45 45
        E 15 80 47 00
        E 239 90 47 41
        E 3 80 45 00
        E 228 80 47 00
        E 1 90 45 46
        E 239 90 47 45
        E 11 80 45 00
        E 209 90 45 45
        E 10 80 47 00
        E 242 90 47 45
        E 7 80 45 00
        E 109 80 47 00
        E 96 90 47 47
        E 270 80 47 00
        E 5 90 48 42
        E 204 90 47 49
        E 5 80 48 00
        E 253 90 48 4b
        E 6 80 47 00
        E 222 90 47 4b
        E 17 80 48 00
        E 230 90 48 49
        E 4 80 47 00
        E 234 90 47 46
        E 9 80 48 00
        E 242 90 48 45
        E 4 80 47 00
        E 106 80 48 00
        E 122 90 43 4d
        E 233 90 45 3f
        E 5 80 43 00
        E 236 90 43 47
        E 10 80 45 00
        E 236 90 45 43
        E 7 80 43 00
        E 238 90 43 46
        E 12 80 45 00
        E 237 90 45 3d
        E 7 80 43 00
        E 225 90 43 44
        E 6 80 45 00
        E 238 90 45 47
        E 17 80 43 00
        E 87 80 45 00
        E 123 90 45 45
        E 252 90 47 40
        E 13 80 45 00
        E 232 90 45 45
        E 4 80 47 00
        E 237 90 47 41
        E 5 80 45 00
        E 235 90 45 43
        E 11 80 47 00
        E 233 80 45 00
        E 2 90 47 42
        E 226 90 45 45
        E 10 80 47 00
        E 226 90 47 4e
        E 21 80 45 00
        E 39 80 47 00
        E 190 90 3e 4e
        E 222 90 40 36
        E 1 80 3e 00
        E 253 80 40 00
        E 4 90 3e 43
        E 236 90 40 44
        E 8 80 3e 00
        E 233 90 3e 47
        E 9 80 40 00
        E 232 90 40 44
        E 8 80 3e 00
        E 235 90 3e 46
        E 17 80 40 00
        E 214 90 40 49
        E 22 80 3e 00
        E 102 80 40 00
        E 120 90 40 4b
        E 238 80 40 00
        E 5 90 42 40
        E 169 80 42 00
        E 73 90 40 48
        E 211 80 40 00
        E 2 90 42 43
        E 242 80 42 00
        E 8 90 40 49
        E 254 90 42 48
        E 9 80 40 00
        E 230 80 42 00
        E 3 90 40 45
        E 240 90 42 49
        E 14 80 40 00
        E 99 80 42 00
        E 116 90 42 4c
        E 241 90 43 44
        E 12 80 42 00
        E 238 90 42 49
        E 3 80 43 00
        E 243 90 43 44
        E 6 80 42 00
        E 234 90 42 4b
        E 8 80 43 00
        E 250 90 43 43
        E 17 80 42 00
        E 206 90 42 48
        E 8 80 43 00
        E 240 90 43 45
        E 16 80 42 00
        E 232 90 42 49
        E 3 80 43 00
        E 241 90 43 45
        E 7 80 42 00
        E 222 90 42 4a
        E 1 80 43 00
        E 242 90 43 48
        E 12 80 42 00
        E 228 90 42 4c
        E 4 80 43 00
        E 234 90 43 4b
        E 14 80 42 00
        E 230 80 43 00
        E 1 90 42 49
        E 240 90 43 48
        E 15 80 42 00
        E 80 80 43 00
        E 142 90 3e 4e
        E 237 90 40 48
        E 9 80 3e 00
        E 228 90 3e 4a
        E 12 80 40 00
        E 231 90 40 49
        E 8 80 3e 00
        E 220 90 3e 48
        E 5 80 40 00
        E 240 90 40 47
        E 9 80 3e 00
        E 219 90 3e 4c
        E 21 80 40 00
        E 234 90 40 4e
        E 22 80 3e 00
        E 90 80 40 00
        E 120 90 40 4a
        E 238 90 42 44
        E 7 80 40 00
        E 225 90 40 4a
        E 1 80 42 00
        E 243 90 42 4a
        E 5 80 40 00
        E 230 90 40 48
        E 14 80 42 00
        E 230 90 42 4c
        E 11 80 40 00
        E 217 90 40 49
        E 3 80 42 00
        E 242 90 42 4a
        E 25 80 40 00
        E 88 80 42 00
        E 112 90 42 4b
        E 263 90 43 4d
        E 24 80 42 00
        E 217 90 42 49
        E 9 80 43 00
        E 230 90 43 4e
        E 21 80 42 00
        E 222 90 42 4b
        E 6 80 43 00
        E 236 90 43 4b
        E 22 80 42 00
        E 214 90 42 4c
        E 12 80 43 00
        E 221 90 43 49
        E 14 80 42 00
        E 221 90 42 4a
        E 5 80 43 00
        E 234 90 43 45
        E 6 80 42 00
        E 231 90 42 4b
        E 13 80 43 00
        E 234 90 43 4a
        E 9 80 42 00
        E 225 90 42 49
        E 8 80 43 00
        E 248 90 43 46
        E 12 80 42 00
        E 223 90 42 45
        E 11 80 43 00
        E 241 90 43 47
        E 24 80 42 00
        E 102 80 43 00
        E 102 90 3e 4e
        E 237 80 3e 00
        E 6 90 40 44
        E 236 90 3e 46
        E 5 80 40 00
        E 213 80 3e 00
        E 13 90 40 44
        E 240 80 40 00
        E 3 90 3e 46
        E 226 80 3e 00
        E 14 90 40 41
        E 226 80 40 00
        E 19 90 3e 48
        E 218 80 3e 00
        E 13 90 40 44
        E 194 80 40 00
        E 33 90 3c 4e
        E 241 80 3c 00
        E 15 90 3e 40
        E 239 80 3e 00
        E 7 90 3c 4d
        E 229 80 3c 00
        E 2 90 3e 47
        E 234 80 3e 00
        E 10 90 3c 4b
        E 223 80 3c 00
        E 11 90 3e 45
        E 263 90 3c 4b
        E 4 80 3e 00
        E 219 80 3c 00
        E 11 90 3e 46
        E 209 80 3e 00
        E 21 90 3b 4e
        E 237 80 3b 00
        E 14 90 3c 44
        E 248 80 3c 00
        E 0 90 3b 4c
        E 222 80 3b 00
        E 13 90 3c 45
        E 259 80 3c 00
        E 3 90 3b 4a
        E 206 80 3b 00
        E 12 90 3c 46
        E 245 80 3c 00
        E 0 90 3b 4c
        E 229 80 3b 00
        E 13 90 3c 44
        E 222 80 3c 00
        E 7 90 3b 4b
        E 225 80 3b 00
        E 15 90 3c 44
        E 240 80 3c 00
        E 3 90 3b 4b
        E 206 80 3b 00
        E 23 90 3c 45
        E 244 80 3c 00
        E 1 90 3b 4f
        E 209 80 3b 00
        E 25 90 3c 47
        E 234 90 3b 4c
        E 1 80 3c 00
        E 218 80 3b 00
        E 19 90 3c 4e
        E 45 80 3c 00
        E 187 90 3e 4f
        E 240 90 40 44
        E 5 80 3e 00
        E 231 90 3e 4c
        E 7 80 40 00
        E 238 90 40 49
        E 11 80 3e 00
        E 225 90 3e 4a
        E 25 80 40 00
        E 222 90 40 45
        E 12 80 3e 00
        E 223 90 3e 4b
        E 9 80 40 00
        E 218 90 40 4b
        E 26 80 3e 00
        E 77 80 40 00
        E 137 90 40 4d
        E 222 90 42 47
        E 12 80 40 00
        E 239 90 40 48
        E 1 80 42 00
        E 248 90 42 4b
        E 14 80 40 00
        E 225 90 40 49
        E 14 80 42 00
        E 231 90 42 47
        E 17 80 40 00
        E 222 90 40 49
        E 6 80 42 00
        E 230 90 42 4e
        E 22 80 40 00
        E 167 80 42 00
        E 41 90 3c 5b
        E 218 80 3c 00
        E 7 90 3e 44
        E 252 90 3c 4a
        E 4 80 3e 00
        E 210 80 3c 00
        E 7 90 3e 43
        E 256 90 3c 48
        E 7 80 3e 00
        E 216 80 3c 00
        E 10 90 3e 3c
        E 267 90 3c 48
        E 1 80 3e 00
        E 223 80 3c 00
        E 13 90 3e 40
        E 257 90 3c 47
        E 5 80 3e 00
        E 217 80 3c 00
        E 19 90 3e 3d
        E 249 90 3c 48
        E 9 80 3e 00
        E 205 80 3c 00
        E 20 90 3e 40
        E 212 90 3c 48
        E 4 80 3e 00
        E 219 80 3c 00
        E 27 90 3e 3c
        E 235 80 3e 00
        E 4 90 3c 47
        E 216 80 3c 00
        E 19 90 3e 47
        E 35 80 3e 00
        E 202 90 45 4f
        E 269 90 47 3f
        E 7 80 45 00
        E 207 90 45 45
        E 24 80 47 00
        E 226 90 47 45
        E 18 80 45 00
        E 217 90 45 48
        E 29 80 47 00
        E 213 90 47 40
        E 8 80 45 00
        E 237 90 45 43
        E 9 80 47 00
        E 222 90 47 44
        E 12 80 45 00
        E 150 80 47 00
        E 83 90 43 4c
        E 228 90 45 40
        E 9 80 43 00
        E 247 90 43 45
        E 19 80 45 00
        E 241 90 45 3f
        E 6 80 43 00
        E 239 90 43 45
        E 21 80 45 00
        E 198 90 45 43
        E 21 80 43 00
        E 213 90 43 43
        E 11 80 45 00
        E 232 90 45 47
        E 18 80 43 00
        E 28 80 45 00
        E 200 90 48 5c
        E 256 90 4a 41
        E 10 80 48 00
        E 223 90 48 49
        E 18 80 4a 00
        E 243 90 4a 3f
        E 8 80 48 00
        E 224 90 48 41
        E 11 80 4a 00
        E 240 90 4a 3c
        E 10 80 48 00
        E 224 90 48 42
        E 7 80 4a 00
        E 236 90 4a 41
        E 1 80 48 00
        E 228 90 48 43
        E 9 80 4a 00
        E 251 90 4a 44
        E 5 80 48 00
        E 227 90 48 43
        E 12 80 4a 00
        E 228 90 4a 46
        E 1 80 48 00
        E 212 90 48 45
        E 13 80 4a 00
        E 245 90 4a 43
        E 2 80 48 00
        E 234 90 48 45
        E 17 80 4a 00
        E 228 80 48 00
        E 5 90 4a 4a
        E 116 80 4a 00
        E 102 90 45 4e
        E 248 90 47 46
        E 6 80 45 00
        E 233 90 45 43
        E 9 80 47 00
        E 228 80 45 00
        E 1 90 47 3c
        E 218 90 45 44
        E 13 80 47 00
        E 237 90 47 44
        E 3 80 45 00
        E 246 90 45 41
        E 2 80 47 00
        E 229 90 47 47
        E 11 80 45 00
        E 118 80 47 00
        E 114 90 47 3d
        E 250 90 48 43
        E 11 80 47 00
        E 228 90 47 49
        E 22 80 48 00
        E 211 90 48 46
        E 13 80 47 00
        E 230 90 47 47
        E 24 80 48 00
        E 229 90 48 4d
        E 2 80 47 00
        E 223 90 47 48
        E 18 80 48 00
        E 223 90 48 4c
        E 16 80 47 00
        E 106 80 48 00
        E 123 90 48 4b
        E 253 90 4a 45
        E 1 80 48 00
        E 225 90 48 46
        E 3 80 4a 00
        E 242 90 4a 4b
        E 8 80 48 00
        E 229 90 48 48
        E 10 80 4a 00
        E 231 80 48 00
        E 1 90 4a 48
        E 221 90 48 45
        E 12 80 4a 00
        E 228 90 4a 47
        E 3 80 48 00
        E 240 90 48 46
        E 19 80 4a 00
        E 230 90 4a 48
        E 11 80 48 00
        E 229 90 48 49
        E 9 80 4a 00
        E 234 90 4a 4b
        E 10 80 48 00
        E 234 90 48 4c
        E 15 80 4a 00
        E 228 90 4a 4b
        E 15 80 48 00
        E 195 90 48 48
        E 17 80 4a 00
        E 236 90 4a 5b
        E 21 80 48 00
        E 84 80 4a 00
        E 152 90 4a 4e
        E 244 90 4c 47
        E 14 80 4a 00
        E 230 90 4a 4c
        E 11 80 4c 00
        E 217 90 4c 45
        E 8 80 4a 00
        E 228 90 4a 4c
        E 15 80 4c 00
        E 226 90 4c 49
        E 8 80 4a 00
        E 234 90 4a 4b
        E 10 80 4c 00
        E 218 90 4c 4c
        E 18 80 4a 00
        E 98 80 4c 00
        E 130 90 4c 4e
        E 236 90 4e 46
        E 12 80 4c 00
        E 230 90 4c 45
        E 5 80 4e 00
        E 231 90 4e 44
        E 7 80 4c 00
        E 226 90 4c 44
        E 1 80 4e 00
        E 233 90 4e 45
        E 13 80 4c 00
        E 220 90 4c 44
        E 2 80 4e 00
        E 224 90 4e 48
        E 25 80 4c 00
        E 78 80 4e 00
        E 129 90 4e 4c
        E 255 80 4e 00
        E 4 90 4f 42
        E 242 90 4e 48
        E 1 80 4f 00
        E 245 90 4f 45
        E 9 80 4e 00
        E 245 90 4e 4a
        E 6 80 4f 00
        E 229 90 4f 45
        E 19 80 4e 00
        E 228 90 4e 49
        E 14 80 4f 00
        E 239 80 4e 00
        E 0 90 4f 3f
        E 232 90 4e 49
        E 8 80 4f 00
        E 237 90 4f 46
        E 8 80 4e 00
        E 227 90 4e 48
        E 20 80 4f 00
        E 227 90 4f 45
        E 4 80 4e 00
        E 235 90 4e 48
        E 23 80 4f 00
        E 226 90 4f 46
        E 5 80 4e 00
        E 229 90 4e 4a
        E 13 80 4f 00
        E 225 90 4f 4a
        E 1 80 4e 00
        E 134 80 4f 00
        E 101 90 4a 58
        E 247 90 4c 43
        E 1 80 4a 00
        E 247 90 4a 4a
        E 23 80 4c 00
        E 209 90 4c 48
        E 5 80 4a 00
        E 224 90 4a 4c
        E 17 80 4c 00
        E 224 90 4c 49
        E 9 80 4a 00
        E 227 90 4a 4a
        E 7 80 4c 00
        E 238 90 4c 4d
        E 16 80 4a 00
        E 101 80 4c 00
        E 128 90 4c 4d
        E 232 90 4e 41
        E 13 80 4c 00
        E 224 80 4e 00
        E 2 90 4c 49
        E 233 90 4e 47
        E 11 80 4c 00
        E 224 90 4c 44
        E 6 80 4e 00
        E 213 90 4e 4b
        E 19 80 4c 00
        E 208 80 4e 00
        E 10 90 4c 45
        E 246 90 4e 45
        E 20 80 4c 00
        E 98 80 4e 00
        E 140 90 4e 4e
        E 246 90 4f 3e
        E 4 80 4e 00
        E 244 90 4e 4b
        E 6 80 4f 00
        E 233 90 4f 49
        E 14 80 4e 00
        E 225 90 4e 4e
        E 29 80 4f 00
        E 218 90 4f 4b
        E 23 80 4e 00
        E 228 90 4e 4d
        E 16 80 4f 00
        E 226 90 4f 47
        E 14 80 4e 00
        E 220 90 4e 4b
        E 22 80 4f 00
        E 218 90 4f 48
        E 18 80 4e 00
        E 229 90 4e 49
        E 14 80 4f 00
        E 222 90 4f 48
        E 15 80 4e 00
        E 227 90 4e 48
        E 8 80 4f 00
        E 260 90 4f 45
        E 10 80 4e 00
        E 208 90 4e 47
        E 13 80 4f 00
        E 224 90 4f 4f
        E 14 80 4e 00
        E 89 80 4f 00
        E 133 90 4a 5c
        E 15 90 3e 4c
        E 186 80 3e 00
        E 45 90 40 41
        E 5 90 4c 48
        E 5 80 4a 00
        E 188 80 40 00
        E 30 90 4a 59
        E 3 80 4c 00
        E 14 90 3e 3c
        E 190 80 3e 00
        E 29 90 4c 4b
        E 2 80 4a 00
        E 7 90 40 3a
        E 207 80 40 00
        E 17 90 4a 50
        E 17 80 4c 00
        E 14 90 3e 3a
        E 168 80 3e 00
        E 46 90 40 3d
        E 9 90 4c 4b
        E 4 80 4a 00
        E 196 80 40 00
        E 18 90 4a 47
        E 2 80 4c 00
        E 17 90 3e 3b
        E 205 80 3e 00
        E 19 90 4c 4b
        E 12 90 40 3e
        E 7 80 4a 00
        E 38 80 40 00
        E 40 80 4c 00
        E 150 90 4c 50
        E 23 90 40 42
        E 182 80 40 00
        E 50 90 4e 45
        E 1 80 4c 00
        E 1 90 42 3d
        E 190 80 42 00
        E 9 80 4e 00
        E 15 90 4c 48
        E 6 90 40 47
        E 200 80 40 00
        E 39 80 4c 00
        E 1 90 4e 49
        E 7 90 42 40
        E 193 80 42 00
        E 20 80 4e 00
        E 10 90 40 45
        E 6 90 4c 46
        E 190 80 40 00
        E 44 80 4c 00
        E 3 90 42 3e
        E 2 90 4e 42
        E 190 80 42 00
        E 29 80 4e 00
        E 16 90 4c 3f
        E 1 90 40 42
        E 51 80 40 00
        E 83 90 40 0c
        E 67 80 40 00
        E 33 90 42 47
        E 5 90 4e 46
        E 14 80 4c 00
        E 38 80 42 00
        E 47 80 4e 00
        E 145 90 4e 4e
        E 10 90 42 44
        E 43 80 42 00
        E 78 90 42 03
        E 97 80 42 00
        E 40 90 43 3a
        E 1 90 4f 47
        E 4 80 4e 00
        E 187 80 43 00
        E 24 90 42 45
        E 7 80 4f 00
        E 3 90 4e 4a
        E 34 80 42 00
        E 90 90 42 01
        E 90 80 42 00
        E 17 80 4e 00
        E 1 90 4f 49
        E 5 90 43 3f
        E 201 80 43 00
        E 26 80 4f 00
        E 3 90 4e 48
        E 12 90 42 2c
        E 201 80 42 00
        E 30 90 43 37
        E 3 90 4f 48
        E 5 80 4e 00
        E 226 80 43 00
        E 3 90 4e 49
        E 2 80 4f 00
        E 14 90 42 3d
        E 202 80 42 00
        E 24 90 43 3b
        E 1 90 4f 4a
        E 12 80 4e 00
        E 228 90 4e 4d
        E 6 80 43 00
        E 14 80 4f 00
        E 4 90 42 3a
        E 207 80 42 00
        E 12 90 4f 4a
        E 7 90 43 3b
        E 6 80 4e 00
        E 217 90 4e 4b
        E 3 80 43 00
        E 3 80 4f 00
        E 9 90 42 42
        E 213 80 42 00
        E 20 90 43 3e
        E 2 90 4f 4b
        E 8 80 4e 00
        E 238 90 4e 46
        E 3 80 43 00
        E 7 80 4f 00
        E 14 90 42 3b
        E 174 80 42 00
        E 24 90 43 32
        E 46 90 4f 4d
        E 15 80 4e 00
        E 203 90 4e 48
        E 19 80 4f 00
        E 23 80 43 00
        E 3 90 42 42
        E 192 80 42 00
        E 20 90 43 35
        E 10 90 4f 47
        E 9 80 4e 00
        E 32 80 4f 00
        E 9 80 43 00
        E 178 90 4a 47
        E 1 90 3e 41
        E 222 90 4c 49
        E 7 80 4a 00
        E 17 80 3e 00
        E 15 90 40 41
        E 198 90 4a 4f
        E 3 80 40 00
        E 2 80 4c 00
        E 23 90 3e 44
        E 52 80 3e 00
        E 79 90 3e 05
        E 70 80 3e 00
        E 10 90 40 43
        E 1 90 4c 4c
        E 4 80 4a 00
        E 211 80 40 00
        E 16 90 4a 4d
        E 8 80 4c 00
        E 10 90 3e 45
        E 219 80 3e 00
        E 14 90 4c 4a
        E 6 80 4a 00
        E 3 90 40 3f
        E 228 90 4a 4a
        E 2 80 40 00
        E 5 80 4c 00
        E 22 90 3e 3d
        E 220 90 4c 49
        E 7 80 3e 00
        E 5 80 4a 00
        E 4 90 40 42
        E 48 80 40 00
        E 34 80 4c 00
        E 140 90 4c 4e
        E 12 90 40 48
        E 190 80 40 00
        E 42 80 4c 00
        E 1 90 4e 45
        E 11 90 42 42
        E 196 80 42 00
        E 26 80 4e 00
        E 4 90 4c 48
        E 9 90 40 45
        E 48 80 40 00
        E 83 90 40 13
        E 69 80 40 00
        E 24 80 4c 00
        E 5 90 4e 42
        E 7 90 42 42
        E 204 80 42 00
        E 25 90 4c 47
        E 2 80 4e 00
        E 9 90 40 3b
        E 196 80 40 00
        E 31 90 4e 48
        E 4 80 4c 00
        E 2 90 42 3e
        E 179 80 42 00
        E 25 80 4e 00
        E 17 90 40 41
        E 1 90 4c 44
        E 229 80 40 00
        E 24 90 4e 46
        E 5 90 42 46
        E 17 80 4c 00
        E 94 80 4e 00
        E 3 80 42 00
        E 123 90 4e 4d
        E 13 90 42 48
        E 222 80 42 00
        E 18 90 4f 49
        E 6 80 4e 00
        E 11 90 43 3f
        E 216 80 4f 00
        E 1 80 43 00
        E 2 90 4e 4a
        E 13 90 42 40
        E 221 80 42 00
        E 12 90 43 42
        E 6 90 4f 48
        E 10 80 4e 00
        E 213 80 43 00
        E 15 90 4e 4a
        E 1 90 42 40
        E 3 80 4f 00
        E 215 80 42 00
        E 10 90 4f 48
        E 2 90 43 3e
        E 2 80 4e 00
        E 223 80 43 00
        E 3 90 4e 4a
        E 2 80 4f 00
        E 10 90 42 42
        E 228 80 42 00
        E 12 90 43 40
        E 5 90 4f 4a
        E 10 80 4e 00
        E 213 80 43 00
        E 13 90 42 45
        E 2 90 4e 4b
        E 6 80 4f 00
        E 205 80 42 00
        E 16 90 43 3c
        E 6 90 4f 48
        E 2 80 4e 00
        E 201 80 43 00
        E 27 90 42 3e
        E 3 90 4e 4b
        E 3 80 4f 00
        E 210 80 42 00
        E 18 90 43 3f
        E 10 90 4f 48
        E 4 80 4e 00
        E 213 80 43 00
        E 14 90 4e 4a
        E 2 80 4f 00
        E 7 90 42 3f
        E 219 80 42 00
        E 20 90 43 38
        E 9 80 4e 00
        E 1 90 4f 42
        E 222 80 43 00
        E 0 80 4f 00
        E 6 90 4e 44
        E 24 90 42 3f
        E 208 80 42 00
        E 25 90 43 3e
        E 11 90 4f 43
        E 19 80 4e 00
        E 11 80 43 00
        E 12 80 4f 00
        E 180 90 4a 58
        E 2 90 3e 48
        E 200 80 3e 00
        E 35 90 4c 47
        E 5 80 4a 00
        E 1 90 40 41
        E 215 80 40 00
        E 19 90 4a 48
        E 8 80 4c 00
        E 12 90 3e 3a
        E 191 80 3e 00
        E 20 90 4c 45
        E 3 80 4a 00
        E 10 90 40 3b
        E 222 80 40 00
        E 13 90 4a 47
        E 17 80 4c 00
        E 6 90 3e 37
        E 168 80 3e 00
        E 31 90 40 31
        E 21 90 4c 3e
        E 2 80 4a 00
        E 217 80 40 00
        E 10 80 4c 00
        E 5 90 4a 42
        E 22 90 3e 39
        E 184 80 3e 00
        E 19 90 40 46
        E 11 90 4c 48
        E 11 80 4a 00
        E 115 80 4c 00
        E 3 80 40 00
        E 110 90 48 4d
        E 7 90 3c 4c
        E 215 80 3c 00
        E 22 90 4a 49
        E 5 80 48 00
        E 10 90 3e 3a
        E 220 80 3e 00
        E 1 90 48 4b
        E 8 80 4a 00
        E 4 90 3c 49
        E 46 80 3c 00
        E 74 90 3c 09
        E 106 80 3c 00
        E 3 90 4a 4c
        E 7 80 48 00
        E 7 90 3e 3f
        E 220 90 48 4a
        E 4 80 3e 00
        E 6 80 4a 00
        E 8 90 3c 47
        E 205 80 3c 00
        E 18 90 3e 3f
        E 14 90 4a 4c
        E 9 80 48 00
        E 191 80 3e 00
        E 23 90 3c 41
        E 3 90 48 42
        E 11 80 4a 00
        E 207 80 3c 00
        E 25 90 4a 4c
        E 10 90 3e 41
        E 9 80 48 00
        E 73 80 3e 00
        E 34 80 4a 00
        E 114 90 4a 47
        E 9 90 3e 48
        E 190 80 3e 00
        E 42 90 4c 3d
        E 1 80 4a 00
        E 2 90 40 3b
        E 216 80 40 00
        E 3 80 4c 00
        E 6 90 4a 4b
        E 21 90 3e 41
        E 202 80 3e 00
        E 18 90 40 41
        E 3 90 4c 49
        E 2 80 4a 00
        E 224 80 40 00
        E 8 90 4a 4b
        E 6 90 3e 46
        E 2 80 4c 00
        E 63 80 3e 00
        E 79 90 3e 01
        E 77 80 3e 00
        E 19 90 40 3f
        E 6 80 4a 00
        E 1 90 4c 42
        E 229 80 40 00
        E 7 90 4a 49
        E 14 90 3e 3c
        E 10 80 4c 00
        E 187 80 3e 00
        E 31 90 40 3e
        E 19 90 4c 42
        E 9 80 4a 00
        E 117 80 40 00
        E 28 80 4c 00
        E 61 90 48 4a
        E 9 90 3c 46
        E 199 80 3c 00
        E 30 90 4a 47
        E 3 80 48 00
        E 34 90 3e 2e
        E 204 90 48 4a
        E 4 80 3e 00
        E 2 80 4a 00
        E 21 90 3c 43
        E 200 80 3c 00
        E 16 90 4a 4b
        E 2 80 48 00
        E 5 90 3e 39
        E 221 80 3e 00
        E 5 90 48 48
        E 15 80 4a 00
        E 1 90 3c 3e
        E 196 80 3c 00
        E 33 90 4a 4a
        E 1 90 3e 37
        E 2 80 48 00
        E 219 80 3e 00
        E 2 80 4a 00
        E 5 90 48 45
        E 16 90 3c 3c
        E 215 90 4a 4d
        E 15 80 3c 00
        E 3 80 48 00
        E 12 90 3e 3d
        E 47 80 3e 00
        E 15 80 4a 00
        E 157 90 3e 47
        E 8 90 4a 4f
        E 216 80 3e 00
        E 34 80 4a 00
        E 2 90 4c 3f
        E 9 90 40 36
        E 195 80 40 00
        E 29 90 4a 49
        E 5 90 3e 44
        E 13 80 4c 00
        E 196 80 3e 00
        E 26 90 4c 42
        E 5 80 4a 00
        E 1 90 40 33
        E 229 80 40 00
        E 1 90 4a 49
        E 10 90 3e 43
        E 1 80 4c 00
        E 217 80 3e 00
        E 21 80 4a 00
        E 1 90 40 3b
        E 1 90 4c 42
        E 226 80 4c 00
        E 9 90 4a 45
        E 2 80 40 00
        E 29 90 3e 3a
        E 215 90 4c 47
        E 11 80 4a 00
        E 5 80 3e 00
        E 13 90 40 40
        E 50 80 40 00
        E 24 80 4c 00
        E 144 90 4c 4a
        E 2 90 40 47
        E 195 80 40 00
        E 46 80 4c 00
        E 5 90 42 3e
        E 3 90 4e 38
        E 209 80 42 00
        E 23 80 4e 00
        E 6 90 40 44
        E 3 90 4c 45
        E 198 80 40 00
        E 27 80 4c 00
        E 13 90 4e 40
        E 1 90 42 3c
        E 196 80 42 00
        E 33 80 4e 00
        E 7 90 4c 46
        E 2 90 40 41
        E 204 80 40 00
        E 20 80 4c 00
        E 6 90 4e 42
        E 11 90 42 42
        E 162 80 42 00
        E 62 80 4e 00
        E 7 90 4c 4b
        E 3 90 40 46
        E 237 80 40 00
        E 2 90 4e 48
        E 19 90 42 4b
        E 6 80 4c 00
        E 85 80 4e 00
        E 16 80 42 00
        E 113 90 4e 4e
        E 19 90 42 47
        E 212 80 42 00
        E 24 90 4f 48
        E 9 90 43 3e
        E 2 80 4e 00
        E 204 80 43 00
        E 18 90 4e 4b
        E 1 80 4f 00
        E 1 90 42 43
        E 221 80 42 00
        E 19 90 43 44
        E 1 90 4f 4c
        E 18 80 4e 00
        E 190 80 43 00
        E 22 90 42 43
        E 11 90 4e 4b
        E 4 80 4f 00
        E 220 80 42 00
        E 15 90 4f 4b
        E 2 90 43 43
        E 16 80 4e 00
        E 203 80 43 00
        E 9 90 4e 4c
        E 8 90 42 43
        E 11 80 4f 00
        E 224 80 42 00
        E 2 90 4f 4b
        E 6 90 43 3f
        E 9 80 4e 00
        E 220 90 4e 4b
        E 2 80 43 00
        E 4 90 42 45
        E 21 80 4f 00
        E 204 80 42 00
        E 14 90 43 41
        E 3 90 4f 4b
        E 22 80 4e 00
        E 207 80 43 00
        E 10 90 4e 4c
        E 1 90 42 46
        E 18 80 4f 00
        E 212 80 42 00
        E 5 90 43 41
        E 2 90 4f 4c
        E 19 80 4e 00
        E 207 80 43 00
        E 3 90 4e 4e
        E 6 90 42 48
        E 9 80 4f 00
        E 210 80 42 00
        E 13 90 4f 4e
        E 3 90 43 47
        E 15 80 4e 00
        E 200 80 4f 00
        E 16 90 4e 49
        E 8 80 43 00
        E 5 90 42 46
        E 242 80 42 00
        E 4 90 4f 4d
        E 9 90 43 44
        E 30 80 4e 00
        E 13 80 43 00
        E 46 80 4f 00
        E 142 90 51 60
        E 10 90 45 4a
        E 222 80 45 00
        E 9 90 53 45
        E 8 80 51 00
        E 1 90 47 3d
        E 204 80 47 00
        E 21 80 53 00
        E 8 90 45 42
        E 1 90 51 49
        E 214 80 45 00
        E 21 90 53 45
        E 1 80 51 00
        E 1 90 47 40
        E 198 80 47 00
        E 34 90 51 45
        E 3 90 45 3d
        E 1 80 53 00
        E 189 80 45 00
        E 33 90 47 41
        E 24 90 53 48
        E 6 80 51 00
        E 199 80 47 00
        E 2 80 53 00
        E 7 90 51 40
        E 18 90 45 3f
        E 227 80 45 00
        E 5 90 53 47
        E 5 80 51 00
        E 10 90 47 49
        E 94 80 47 00
        E 14 80 53 00
        E 115 90 4f 4d
        E 1 90 43 4f
        E 243 90 51 45
        E 1 80 43 00
        E 12 80 4f 00
        E 8 90 45 3a
        E 204 80 45 00
        E 12 90 4f 46
        E 1 80 51 00
        E 8 90 43 44
        E 220 80 43 00
        E 6 90 45 41
        E 1 90 51 45
        E 11 80 4f 00
        E 231 90 4f 45
        E 7 80 45 00
        E 1 80 51 00
        E 14 90 43 3d
        E 196 80 43 00
        E 21 90 51 4a
        E 7 90 45 3f
        E 3 80 4f 00
        E 220 80 51 00
        E 12 90 4f 3d
        E 1 80 45 00
        E 20 90 43 41
        E 227 90 51 48
        E 5 80 43 00
        E 15 80 4f 00
        E 7 90 45 3f
        E 63 80 45 00
        E 18 80 51 00
        E 117 90 4e 4e
        E 20 90 42 43
        E 50 80 42 00
        E 56 90 42 02
        E 108 80 42 00
        E 24 90 4f 44
        E 6 80 4e 00
        E 2 90 43 35
        E 213 90 4e 4c
        E 5 80 4f 00
        E 7 80 43 00
        E 24 90 42 3d
        E 206 80 42 00
        E 16 90 4f 45
        E 8 90 43 39
        E 2 80 4e 00
        E 218 80 43 00
        E 7 90 4e 49
        E 1 80 4f 00
        E 7 90 42 40
        E 227 80 42 00
        E 12 90 43 38
        E 1 90 4f 49
        E 13 80 4e 00
        E 210 80 43 00
        E 3 90 4e 4b
        E 3 80 4f 00
        E 10 90 42 40
        E 221 80 42 00
        E 4 90 4f 4b
        E 7 90 43 3d
        E 3 80 4e 00
        E 221 80 43 00
        E 13 80 4f 00
        E 0 90 4e 4a
        E 9 90 42 44
        E 229 80 42 00
        E 13 90 43 38
        E 5 90 4f 4d
        E 18 80 4e 00
        E 214 80 43 00
        E 0 90 4e 4a
        E 4 80 4f 00
        E 9 90 42 45
        E 230 90 4f 4b
        E 4 80 42 00
        E 2 90 43 3e
        E 4 80 4e 00
        E 230 80 4f 00
        E 3 90 4e 4a
        E 3 80 43 00
        E 6 90 42 47
        E 220 80 42 00
        E 12 90 4f 48
        E 9 90 43 3d
        E 5 80 4e 00
        E 209 80 4f 00
        E 10 90 4e 47
        E 2 80 43 00
        E 18 90 42 41
        E 226 90 4f 4c
        E 3 80 42 00
        E 10 90 43 40
        E 18 80 4e 00
        E 27 80 43 00
        E 5 80 4f 00
        E 177 90 51 54
        E 2 90 45 47
        E 243 90 53 44
        E 1 80 45 00
        E 6 80 51 00
        E 5 90 47 3a
        E 216 80 47 00
        E 5 90 51 4b
        E 8 80 53 00
        E 11 90 45 44
        E 215 80 45 00
        E 4 90 53 49
        E 8 90 47 42
        E 1 80 51 00
        E 211 80 47 00
        E 15 90 51 48
        E 7 80 53 00
        E 23 90 45 44
        E 193 80 45 00
        E 25 90 47 3c
        E 1 90 53 44
        E 4 80 51 00
        E 224 80 47 00
        E 0 80 53 00
        E 2 90 51 45
        E 38 90 45 42
        E 206 80 45 00
        E 4 90 53 49
        E 10 90 47 41
        E 2 80 51 00
        E 73 80 47 00
        E 45 80 53 00
        E 86 90 4f 4c
        E 14 90 43 45
        E 211 80 43 00
        E 17 90 51 45
        E 3 80 4f 00
        E 30 90 45 3b
        E 197 80 45 00
        E 31 90 4f 47
        E 4 90 43 45
        E 1 80 51 00
        E 208 80 43 00
        E 25 90 45 3c
        E 6 90 51 43
        E 1 80 4f 00
        E 222 80 45 00
        E 4 90 4f 48
        E 5 80 51 00
        E 11 90 43 44
        E 220 90 51 4b
        E 1 80 43 00
        E 7 80 4f 00
        E 3 90 45 3f
        E 222 80 45 00
        E 10 90 4f 45
        E 7 80 51 00
        E 10 90 43 40
        E 226 80 43 00
        E 8 90 51 47
        E 13 90 45 44
        E 3 80 4f 00
        E 64 80 45 00
        E 41 80 51 00
        E 110 90 4e 4c
        E 3 90 42 44
        E 230 80 42 00
        E 11 90 4f 47
        E 8 90 43 40
        E 4 80 4e 00
        E 221 90 4e 4b
        E 7 80 4f 00
        E 3 80 43 00
        E 9 90 42 45
        E 221 80 42 00
        E 2 90 4f 4a
        E 11 90 43 3e
        E 6 80 4e 00
        E 221 90 4e 4b
        E 12 80 43 00
        E 2 80 4f 00
        E 5 90 42 45
        E 227 90 4f 4b
        E 1 80 42 00
        E 14 90 43 3e
        E 2 80 4e 00
        E 219 90 4e 4b
        E 6 80 43 00
        E 5 90 42 43
        E 1 80 4f 00
        E 224 90 4f 4d
        E 2 80 42 00
        E 6 90 43 3f
        E 8 80 4e 00
        E 221 90 4e 4d
        E 4 80 43 00
        E 14 90 42 43
        E 9 80 4f 00
        E 204 80 42 00
        E 20 90 43 3a
        E 4 90 4f 47
        E 23 80 4e 00
        E 213 90 4e 4b
        E 5 80 43 00
        E 6 90 42 43
        E 9 80 4f 00
        E 227 80 42 00
        E 1 90 4f 4a
        E 11 90 43 3e
        E 8 80 4e 00
        E 210 90 4e 4b
        E 10 80 4f 00
        E 12 90 42 48
        E 14 80 43 00
        E 189 80 42 00
        E 11 90 43 40
        E 17 90 4f 4a
        E 22 80 4e 00
        E 200 90 4e 4b
        E 6 80 4f 00
        E 8 80 43 00
        E 9 90 42 43
        E 146 80 42 00
        E 63 90 4f 4b
        E 9 90 42 2b
        E 18 80 4e 00
        E 91 80 4f 00
        E 127 80 42 00
        E 44 90 4a 49
        E 1 90 56 48
        E 65 80 4a 00
        E 40 80 56 00
        E 124 90 4c 4c
        E 1 90 58 51
        E 52 80 4c 00
        E 24 80 58 00
        E 151 90 4a 4c
        E 5 90 56 48
        E 30 80 4a 00
        E 9 80 56 00
        E 180 90 4c 4a
        E 16 90 58 3f
        E 23 80 4c 00
        E 17 80 58 00
        E 188 90 4a 4f
        E 6 90 56 4c
        E 29 80 4a 00
        E 6 80 56 00
        E 200 90 4c 4e
        E 16 90 58 40
        E 25 80 4c 00
        E 13 80 58 00
        E 182 90 4a 4f
        E 2 90 56 4e
        E 29 80 4a 00
        E 4 80 56 00
        E 185 90 4c 4e
        E 52 80 4c 00
        E 206 90 4a 53
        E 4 90 56 51
        E 31 80 4a 00
        E 8 80 56 00
        E 207 90 4c 4f
        E 2 90 58 50
        E 51 80 58 00
        E 18 80 4c 00
        E 171 90 4a 5b
        E 5 90 56 55
        E 34 80 4a 00
        E 5 80 56 00
        E 194 90 4c 4e
        E 5 90 58 4f
        E 41 80 58 00
        E 27 80 4c 00
        E 164 90 56 5d
        E 1 90 4a 5a
        E 47 80 4a 00
        E 22 80 56 00
        E 170 90 58 4b
        E 1 90 4c 48
        E 34 80 58 00
        E 9 80 4c 00
        E 184 90 4a 58
        E 6 90 56 4f
        E 30 80 4a 00
        E 27 80 56 00
        E 178 90 4c 4d
        E 2 90 58 4b
        E 34 80 58 00
        E 9 80 4c 00
        E 192 90 58 61
        E 1 90 4c 53
        E 63 80 4c 00
        E 10 80 58 00
        E 171 90 4e 48
        E 3 90 5a 4a
        E 26 80 5a 00
        E 1 80 4e 00
        E 212 90 4c 59
        E 12 90 58 4d
        E 27 80 4c 00
        E 9 80 58 00
        E 196 90 4e 4e
        E 3 90 5a 4e
        E 25 80 4e 00
        E 1 80 5a 00
        E 212 90 4c 54
        E 7 90 58 53
        E 32 80 4c 00
        E 10 80 58 00
        E 202 90 5a 50
        E 2 90 4e 4e
        E 23 80 5a 00
        E 3 80 4e 00
        E 206 90 4c 58
        E 12 90 58 4d
        E 27 80 4c 00
        E 13 80 58 00
        E 182 90 5a 5a
        E 0 90 4e 4d
        E 24 80 5a 00
        E 6 80 4e 00
        E 208 90 4c 50
        E 7 90 58 4e
        E 29 80 4c 00
        E 10 80 58 00
        E 190 90 5a 52
        E 5 90 4e 4d
        E 21 80 5a 00
        E 10 80 4e 00
        E 201 90 4c 58
        E 6 90 58 52
        E 31 80 4c 00
        E 14 80 58 00
        E 185 90 5a 51
        E 1 90 4e 4e
        E 24 80 5a 00
        E 3 80 4e 00
        E 207 90 4c 5a
        E 5 90 58 4f
        E 54 80 4c 00
        E 19 80 58 00
        E 169 90 5a 50
        E 1 90 4e 4b
        E 23 80 5a 00
        E 5 80 4e 00
        E 195 90 4c 4d
        E 3 90 58 4e
        E 35 80 4c 00
        E 17 80 58 00
        E 191 90 4e 4d
        E 1 90 5a 51
        E 24 80 5a 00
        E 1 80 4e 00
        E 212 90 4e 4e
        E 0 90 5a 56
        E 28 80 4e 00
        E 1 80 5a 00
        E 227 90 4f 42
        E 8 90 5b 44
        E 30 80 4f 00
        E 4 80 5b 00
        E 191 90 4e 51
        E 1 90 5a 5b
        E 28 80 4e 00
        E 0 80 5a 00
        E 214 90 5b 61
        E 1 90 4f 56
        E 47 80 5b 00
        E 11 80 4f 00
        E 181 90 5a 54
        E 4 90 4e 4d
        E 26 80 5a 00
        E 6 80 4e 00
        E 207 90 4f 4e
        E 7 90 5b 4e
        E 34 80 5b 00
        E 3 80 4f 00
        E 202 90 4e 4e
        E 1 90 5a 4f
        E 28 80 5a 00
        E 1 80 4e 00
        E 220 90 4f 4b
        E 1 90 5b 5d
        E 33 80 5b 00
        E 23 80 4f 00
        E 176 90 5a 5e
        E 4 90 4e 54
        E 38 80 4e 00
        E 18 80 5a 00
        E 189 90 4f 53
        E 8 90 5b 54
        E 42 80 5b 00
        E 15 80 4f 00
        E 165 90 5a 54
        E 4 90 4e 4f
        E 32 80 5a 00
        E 1 80 4e 00
        E 200 90 4f 4f
        E 1 90 5b 5b
        E 42 80 5b 00
        E 9 80 4f 00
        E 177 90 5a 54
        E 3 90 4e 50
        E 36 80 4e 00
        E 7 80 5a 00
        E 188 90 4f 51
        E 7 90 5b 4f
        E 37 80 5b 00
        E 9 80 4f 00
        E 179 90 5a 4e
        E 2 90 4e 4c
        E 26 80 5a 00
        E 8 80 4e 00
        E 207 90 4f 54
        E 4 90 5b 50
        E 35 80 5b 00
        E 14 80 4f 00
        E 180 90 5a 59
        E 5 90 4e 4e
        E 38 80 4e 00
        E 14 80 5a 00
        E 188 90 4f 4f
        E 6 90 5b 51
        E 37 80 5b 00
        E 14 80 4f 00
        E 176 90 5a 59
        E 2 90 4e 51
        E 38 80 4e 00
        E 24 80 5a 00
        E 181 90 4f 55
        E 1 90 5b 61
        E 48 80 5b 00
        E 5 80 4f 00
        E 189 90 5a 5b
        E 3 90 4e 50
        E 33 80 4e 00
        E 26 80 5a 00
        E 177 90 4f 53
        E 5 90 5b 58
        E 42 80 5b 00
        E 22 80 4f 00
        E 181 90 4e 4d
        E 3 90 5a 4d
        E 26 80 4e 00
        E 3 80 5a 00
        E 211 90 4f 5c
        E 5 90 5b 5c
        E 36 80 5b 00
        E 22 80 4f 00
        E 181 90 5a 5a
        E 2 90 4e 4d
        E 40 80 4e 00
        E 33 80 5a 00
        E 168 90 4f 4e
        E 3 90 5b 61
        E 35 80 5b 00
        E 38 80 4f 00
        E 161 90 5a 4f
        E 0 90 4e 4c
        E 26 80 5a 00
        E 1 80 4e 00
        E 202 90 4f 55
        E 9 90 5b 50
        E 34 80 5b 00
        E 7 80 4f 00
        E 192 90 5a 4e
        E 3 90 4e 48
        E 24 80 5a 00
        E 6 80 4e 00
        E 210 90 4f 50
        E 2 90 5b 51
        E 36 80 5b 00
        E 13 80 4f 00
        E 191 90 5a 4c
        E 4 90 4e 46
        E 26 80 5a 00
        E 8 80 4e 00
        E 217 90 5b 54
        E 2 90 4f 4d
        E 32 80 5b 00
        E 13 80 4f 00
        e 199 90 66 4c
        e 2 90 5a 4e
        e 10597 80 66 00
        e 1 80 5a 00
        E 959 b0 7b 00
        CCINTERP 32
        CHASE_CC_TAKEOFFS 1
        GUID {73F2F5DE-7AF8-AF40-9F95-1BB7E94C0EA6}
        IGNTEMPO 0 120 4 4
        SRCCOLOR 151
        VELLANE -1 100 0
        VELLANE 64 100 0
        CFGEDITVIEW 220407.901193 0.069702 20 12 0 -1 0 0 0 0.5
        KEYSNAP 0
        TRACKSEL 0
        EVTFILTER 0 -1 -1 -1 -1 0 0 0 0 -1 -1 -1 -1 0 -1 0 -1 -1
        CFGEDIT 1 1 0 1 0 0 1 1 1 1 1 0.125 0 0 1856 1055 0 0 0 0 0 0 0 0 0 0.5 0 0 1 64
      >
    >
  >
  <TRACK {38E6F838-AC20-5D49-9735-3A1AC43E6795}
    NAME "Piano - low"
    PEAKCOL 16576
    BEAT -1
    AUTOMODE 0
    VOLPAN 1 0 -1 -1 1
    MUTESOLO 0 0 0
    IPHASE 0
    PLAYOFFS 0 1
    ISBUS 0 0
    BUSCOMP 0 0 0 0 0
    SHOWINMIX 0 0.6667 0.5 1 0.5 0 -1 0
    FREEMODE 0
    SEL 0
    REC 0 4096 1 0 0 0 0
    VU 2
    TRACKHEIGHT 0 0 0 0 0 0
    INQ 0 0 0 0.5 100 0 0 100
    NCHAN 2
    FX 1
    TRACKID {38E6F838-AC20-5D49-9735-3A1AC43E6795}
    PERF 0
    MIDIOUT -1
    MAINSEND 1 0
    <FXCHAIN
      WNDRECT 32 351 649 672
      SHOW 0
      LASTSEL 0
      DOCKED 0
      BYPASS 0 0 0
      <VST "VST: ReaControlMIDI (Cockos)" reacontrolMIDI.vst.dylib 0 "" 1919118692<56535472636D64726561636F6E74726F> ""
        ZG1jcu5e7f4AAAAAAAAAAO8AAAABAAAAAAAQAA==
        /////wAAAAAAAAAAAAAAAAkAAAAMAAAAAQAAAP8/AAAAIAAAACAAAAAAAAA+AAAAL1VzZXJzL2FuZHkvTGlicmFyeS9BcHBsaWNhdGlvbiBTdXBwb3J0L1JFQVBFUi9E
        YXRhL0dNLnJlYWJhbmsAAAAAAAAAAAAAAAAAAAAAAAAAAAAAAAAAAAAAAAAAAAAAAAABAAAAAAAAAAAAAAAAAAAAAAAAAAAAAAAAAAAAAAYAAABNYWpvcgANAAAAMTAy
        MDM0MDUwNjA3AAEAAAAAAAAAAAAAAAAKAAAADQAAAAEAAAAAAAAAAAAAAAAAAAA=
        AAAQAAAA
      >
      FLOATPOS 0 0 0 0
      FXID {833CA5A8-F796-EE4D-A16C-366C79E54E35}
      WAK 0 0
    >
    <ITEM
      POSITION 3.98157042348479
      SNAPOFFS 0
      LENGTH 124.01842957651522
      LOOP 1
      ALLTAKES 0
      FADEIN 1 0 0 1 0 0 0
      FADEOUT 1 0 0 1 0 0 0
      MUTE 0 0
      SEL 0
      IGUID {A0E5771A-91C4-874A-B96D-AE4E34BDF6D4}
      IID 76
      NAME "07-Piano - pedal-Recorded MIDI-glued"
      VOLPAN 1 0 1 -1
      SOFFS 0 0
      PLAYRATE 1 1 0 -1 0 0.0025
      CHANMODE 0
      GUID {02849649-38DD-334D-B60C-697223AF013F}
      <SOURCE MIDI
        HASDATA 1 960 QN
        CCINTERP 32
        POOLEDEVTS {0CF77BC5-4112-4B4A-A181-652EE6BBEFC8}
        E 36 90 26 46
        E 159 80 26 00
        E 73 90 32 38
        E 219 80 32 00
        E 22 90 26 47
        E 174 80 26 00
        E 73 90 32 42
        E 201 80 32 00
        E 26 90 26 46
        E 175 80 26 00
        E 62 90 32 3b
        E 216 80 32 00
        E 16 90 26 44
        E 193 80 26 00
        E 52 90 32 3d
        E 207 80 32 00
        E 33 90 26 44
        E 179 80 26 00
        E 61 90 32 3b
        E 226 80 32 00
        E 10 90 26 46
        E 179 80 26 00
        E 74 90 32 3d
        E 190 80 32 00
        E 32 90 26 46
        E 167 80 26 00
        E 72 90 32 3f
        E 220 80 32 00
        E 24 90 26 45
        E 179 80 26 00
        E 68 90 32 44
        E 212 80 32 00
        E 20 90 26 45
        E 177 80 26 00
        E 63 90 32 3e
        E 209 80 32 00
        E 26 90 26 43
        E 177 80 26 00
        E 67 90 32 3f
        E 188 80 32 00
        E 39 90 26 45
        E 197 80 26 00
        E 51 90 32 3b
        E 206 80 32 00
        E 23 90 26 47
        E 194 80 26 00
        E 61 90 32 3e
        E 191 80 32 00
        E 34 90 26 44
        E 198 80 26 00
        E 50 90 32 3f
        E 186 80 32 00
        E 35 90 26 42
        E 186 80 26 00
        E 72 90 32 3e
        E 199 80 32 00
        E 34 90 26 45
        E 178 80 26 00
        E 86 90 32 41
        E 193 80 32 00
        E 29 90 26 47
        E 192 80 26 00
        E 68 90 32 3d
        E 189 80 32 00
        E 28 90 26 46
        E 195 80 26 00
        E 62 90 32 3a
        E 188 80 32 00
        E 32 90 26 45
        E 196 80 26 00
        E 57 90 32 41
        E 187 80 32 00
        E 34 90 26 45
        E 200 80 26 00
        E 52 90 32 3f
        E 224 80 32 00
        E 18 90 26 46
        E 175 80 26 00
        E 75 90 32 41
        E 204 80 32 00
        E 17 90 26 44
        E 193 80 26 00
        E 52 90 32 41
        E 225 80 32 00
        E 15 90 26 46
        E 173 80 26 00
        E 78 90 32 42
        E 213 80 32 00
        E 20 90 26 45
        E 191 80 26 00
        E 66 90 32 40
        E 184 80 32 00
        E 43 90 26 41
        E 193 80 26 00
        E 56 90 32 3f
        E 198 80 32 00
        E 27 90 26 45
        E 161 80 26 00
        E 84 90 32 40
        E 209 80 32 00
        E 26 90 26 42
        E 166 80 26 00
        E 73 90 32 3e
        E 208 80 32 00
        E 21 90 26 48
        E 148 80 26 00
        E 97 90 32 3f
        E 233 80 32 00
        E 18 90 26 45
        E 162 80 26 00
        E 66 90 32 41
        E 215 80 32 00
        E 28 90 26 46
        E 171 80 26 00
        E 85 90 32 39
        E 214 80 32 00
        E 12 90 26 43
        E 174 80 26 00
        E 73 90 32 43
        E 196 80 32 00
        E 40 90 26 44
        E 182 80 26 00
        E 67 90 32 3e
        E 198 80 32 00
        E 24 90 26 47
        E 166 80 26 00
        E 91 90 32 3f
        E 181 80 32 00
        E 42 90 26 47
        E 186 80 26 00
        E 56 90 32 3b
        E 178 80 32 00
        E 50 90 26 4b
        E 203 80 26 00
        E 55 90 32 3f
        E 192 80 32 00
        E 29 90 26 4a
        E 187 80 26 00
        E 53 90 32 43
        E 233 80 32 00
        E 10 90 26 46
        E 196 80 26 00
        E 57 90 32 43
        E 211 80 32 00
        E 26 90 26 46
        E 176 80 26 00
        E 63 90 32 41
        E 214 80 32 00
        E 22 90 26 45
        E 186 80 26 00
        E 63 90 32 38
        E 207 80 32 00
        E 29 90 26 44
        E 161 80 26 00
        E 50 90 32 3c
        E 221 80 32 00
        E 38 90 26 44
        E 166 80 26 00
        E 69 90 32 3d
        E 214 80 32 00
        E 28 90 26 45
        E 162 80 26 00
        E 76 90 32 3e
        E 218 80 32 00
        E 25 90 26 45
        E 175 80 26 00
        E 75 90 32 42
        E 205 80 32 00
        E 20 90 26 46
        E 199 80 26 00
        E 47 90 32 3e
        E 202 80 32 00
        E 36 90 26 44
        E 189 80 26 00
        E 57 90 32 3b
        E 207 80 32 00
        E 31 90 26 45
        E 186 80 26 00
        E 56 90 32 3b
        E 228 80 32 00
        E 20 90 26 44
        E 192 80 26 00
        E 68 90 32 41
        E 212 80 32 00
        E 32 90 26 3f
        E 180 80 26 00
        E 64 90 32 40
        E 223 80 32 00
        E 13 90 26 41
        E 206 80 26 00
        E 48 90 32 42
        E 214 80 32 00
        E 8 90 26 46
        E 198 80 26 00
        E 45 90 32 41
        E 227 80 32 00
        E 21 90 26 45
        E 172 80 26 00
        E 65 90 32 40
        E 216 80 32 00
        E 17 90 26 45
        E 192 80 26 00
        E 42 90 32 3f
        E 218 80 32 00
        E 18 90 26 45
        E 178 80 26 00
        E 66 90 32 3e
        E 211 80 32 00
        E 21 90 26 45
        E 180 80 26 00
        E 55 90 32 3e
        E 214 80 32 00
        E 19 90 26 45
        E 184 80 26 00
        E 37 90 32 3d
        E 221 80 32 00
        E 32 90 26 46
        E 201 80 26 00
        E 41 90 32 41
        E 212 80 32 00
        E 17 90 26 43
        E 206 80 26 00
        E 59 90 32 3b
        E 197 80 32 00
        E 16 90 26 46
        E 198 80 26 00
        E 56 90 32 3f
        E 211 80 32 00
        E 20 90 26 46
        E 202 80 26 00
        E 53 90 32 3f
        E 187 80 32 00
        E 32 90 26 43
        E 178 80 26 00
        E 64 90 32 38
        E 186 80 32 00
        E 33 90 26 46
        E 175 80 26 00
        E 86 90 32 3c
        E 157 80 32 00
        E 55 90 26 43
        E 190 80 26 00
        E 83 90 32 39
        E 213 80 32 00
        E 29 90 26 46
        E 168 80 26 00
        E 96 90 32 3d
        E 213 80 32 00
        E 30 90 26 46
        E 180 80 26 00
        E 70 90 32 3c
        E 207 80 32 00
        E 33 90 26 45
        E 190 80 26 00
        E 59 90 32 3f
        E 216 80 32 00
        E 35 90 26 46
        E 159 80 26 00
        E 73 90 32 38
        E 219 80 32 00
        E 22 90 26 47
        E 174 80 26 00
        E 73 90 32 42
        E 201 80 32 00
        E 26 90 26 46
        E 175 80 26 00
        E 62 90 32 3b
        E 216 80 32 00
        E 16 90 26 44
        E 193 80 26 00
        E 52 90 32 3d
        E 207 80 32 00
        E 33 90 26 44
        E 179 80 26 00
        E 61 90 32 3b
        E 226 80 32 00
        E 10 90 26 46
        E 179 80 26 00
        E 74 90 32 3d
        E 190 80 32 00
        E 32 90 26 46
        E 167 80 26 00
        E 72 90 32 3f
        E 220 80 32 00
        E 24 90 26 45
        E 179 80 26 00
        E 68 90 32 44
        E 212 80 32 00
        E 20 90 26 45
        E 177 80 26 00
        E 63 90 32 3e
        E 209 80 32 00
        E 26 90 26 43
        E 177 80 26 00
        E 67 90 32 3f
        E 188 80 32 00
        E 39 90 26 45
        E 197 80 26 00
        E 51 90 32 3b
        E 206 80 32 00
        E 23 90 26 47
        E 194 80 26 00
        E 61 90 32 3e
        E 191 80 32 00
        E 34 90 26 44
        E 198 80 26 00
        E 50 90 32 3f
        E 186 80 32 00
        E 35 90 26 42
        E 186 80 26 00
        E 72 90 32 3e
        E 199 80 32 00
        E 34 90 26 45
        E 178 80 26 00
        E 86 90 32 41
        E 193 80 32 00
        E 29 90 26 47
        E 192 80 26 00
        E 68 90 32 3d
        E 189 80 32 00
        E 28 90 26 46
        E 195 80 26 00
        E 62 90 32 3a
        E 188 80 32 00
        E 32 90 26 45
        E 196 80 26 00
        E 57 90 32 41
        E 187 80 32 00
        E 34 90 26 45
        E 200 80 26 00
        E 52 90 32 3f
        E 224 80 32 00
        E 18 90 26 46
        E 175 80 26 00
        E 75 90 32 41
        E 204 80 32 00
        E 17 90 26 44
        E 193 80 26 00
        E 52 90 32 41
        E 225 80 32 00
        E 15 90 26 46
        E 173 80 26 00
        E 78 90 32 42
        E 213 80 32 00
        E 20 90 26 45
        E 191 80 26 00
        E 66 90 32 40
        E 184 80 32 00
        E 43 90 26 41
        E 193 80 26 00
        E 56 90 32 3f
        E 198 80 32 00
        E 27 90 26 45
        E 161 80 26 00
        E 84 90 32 40
        E 209 80 32 00
        E 26 90 26 42
        E 166 80 26 00
        E 73 90 32 3e
        E 208 80 32 00
        E 21 90 26 48
        E 148 80 26 00
        E 97 90 32 3f
        E 233 80 32 00
        E 18 90 26 45
        E 162 80 26 00
        E 66 90 32 41
        E 215 80 32 00
        E 28 90 26 46
        E 171 80 26 00
        E 85 90 32 39
        E 214 80 32 00
        E 12 90 26 43
        E 174 80 26 00
        E 73 90 32 43
        E 196 80 32 00
        E 40 90 26 44
        E 182 80 26 00
        E 67 90 32 3e
        E 198 80 32 00
        E 24 90 26 47
        E 166 80 26 00
        E 91 90 32 3f
        E 181 80 32 00
        E 42 90 26 47
        E 45 80 26 00
        E 0 90 26 47
        E 133 80 26 00
        E 67 90 32 3c
        E 220 80 32 00
        E 16 90 26 47
        E 157 80 26 00
        E 97 90 32 3f
        E 199 80 32 00
        E 36 90 26 45
        E 177 80 26 00
        E 69 90 32 3c
        E 203 80 32 00
        E 34 90 26 40
        E 170 80 26 00
        E 71 90 32 42
        E 177 80 32 00
        E 47 90 26 43
        E 166 80 26 00
        E 70 90 32 3f
        E 213 80 32 00
        E 22 90 26 44
        E 170 80 26 00
        E 70 90 32 41
        E 203 80 32 00
        E 34 90 26 45
        E 173 80 26 00
        E 76 90 32 40
        E 218 80 32 00
        E 27 90 26 40
        E 191 80 26 00
        E 52 90 32 40
        E 213 80 32 00
        E 17 90 26 46
        E 161 80 26 00
        E 79 90 32 3f
        E 215 80 32 00
        E 23 90 26 46
        E 184 80 26 00
        E 63 90 32 42
        E 202 80 32 00
        E 32 90 26 45
        E 162 80 26 00
        E 76 90 32 3f
        E 217 80 32 00
        E 24 90 26 43
        E 168 80 26 00
        E 59 90 32 42
        E 187 80 32 00
        E 40 90 26 41
        E 181 80 26 00
        E 45 90 32 3f
        E 221 80 32 00
        E 35 90 26 47
        E 152 80 26 00
        E 94 90 32 41
        E 175 80 32 00
        E 47 90 26 42
        E 191 80 26 00
        E 59 90 32 3b
        E 230 80 32 00
        E 21 90 26 46
        E 166 80 26 00
        E 71 90 32 44
        E 218 80 32 00
        E 32 90 26 45
        E 195 80 26 00
        E 62 90 32 44
        E 216 80 32 00
        E 22 90 26 45
        E 189 80 26 00
        E 60 90 32 41
        E 226 80 32 00
        E 22 90 26 46
        E 175 80 26 00
        E 73 90 32 41
        E 222 80 32 00
        E 19 90 26 45
        E 176 80 26 00
        E 60 90 32 42
        E 207 80 32 00
        E 26 90 26 42
        E 174 80 26 00
        E 66 90 32 3e
        E 213 80 32 00
        E 10 90 26 44
        E 197 80 26 00
        E 49 90 32 41
        E 219 80 32 00
        E 15 90 26 4a
        E 153 80 26 00
        E 90 90 32 42
        E 213 80 32 00
        E 20 90 26 49
        E 162 80 26 00
        E 80 90 32 44
        E 231 80 32 00
        E 12 90 26 47
        E 143 80 26 00
        E 94 90 32 41
        E 242 80 32 00
        E 17 90 26 43
        E 176 80 26 00
        E 63 90 32 41
        E 203 80 32 00
        E 31 90 26 44
        E 187 80 26 00
        E 54 90 32 43
        E 233 80 32 00
        E 10 90 26 44
        E 190 80 26 00
        E 52 90 32 43
        E 215 80 32 00
        E 21 90 26 46
        E 192 80 26 00
        E 42 90 32 38
        E 202 80 32 00
        E 35 90 26 47
        E 200 80 26 00
        E 55 90 32 45
        E 176 80 32 00
        E 47 90 26 44
        E 165 80 26 00
        E 69 90 32 41
        E 196 80 32 00
        E 41 90 26 45
        E 197 80 26 00
        E 67 90 32 41
        E 193 80 32 00
        E 40 90 26 47
        E 183 80 26 00
        E 70 90 32 41
        E 212 80 32 00
        E 25 90 26 49
        E 171 80 26 00
        E 77 90 32 46
        E 204 80 32 00
        E 28 90 26 44
        E 203 80 26 00
        E 46 90 32 43
        E 202 80 32 00
        E 32 90 26 40
        E 188 80 26 00
        E 51 90 32 44
        E 216 80 32 00
        E 15 90 26 48
        E 182 80 26 00
        E 80 90 32 41
        E 194 80 32 00
        E 19 90 26 46
        E 201 80 26 00
        E 54 90 32 44
        E 197 80 32 00
        E 29 90 26 46
        E 189 80 26 00
        E 49 90 32 41
        E 224 80 32 00
        E 15 90 26 44
        E 181 80 26 00
        E 59 90 32 44
        E 219 80 32 00
        E 21 90 26 49
        E 198 80 26 00
        E 53 90 32 45
        E 209 80 32 00
        E 19 90 26 46
        E 176 80 26 00
        E 70 90 32 41
        E 209 80 32 00
        E 19 90 26 45
        E 181 80 26 00
        E 49 90 32 44
        E 230 80 32 00
        E 25 90 26 43
        E 158 80 26 00
        E 72 90 32 42
        E 221 80 32 00
        E 26 90 26 48
        E 154 80 26 00
        E 96 90 32 40
        E 217 80 32 00
        E 16 90 26 44
        E 186 80 26 00
        E 66 90 32 42
        E 189 80 32 00
        E 42 90 26 48
        E 174 80 26 00
        E 70 90 32 40
        E 219 80 32 00
        E 13 90 26 42
        E 195 80 26 00
        E 44 90 32 44
        E 225 80 32 00
        E 17 90 26 43
        E 186 80 26 00
        E 62 90 32 44
        E 228 80 32 00
        E 16 90 26 44
        E 181 80 26 00
        E 74 90 32 44
        E 208 80 32 00
        E 21 90 26 45
        E 158 80 26 00
        E 79 90 32 42
        E 237 80 32 00
        E 5 90 26 43
        E 175 80 26 00
        E 65 90 32 46
        E 228 80 32 00
        E 17 90 26 47
        E 182 80 26 00
        E 63 90 32 44
        E 230 80 32 00
        E 14 90 26 44
        E 163 80 26 00
        E 79 90 32 43
        E 227 80 32 00
        E 16 90 26 46
        E 179 80 26 00
        E 39 90 32 45
        E 232 80 32 00
        E 7 90 26 45
        E 165 80 26 00
        E 83 90 32 44
        E 215 80 32 00
        E 29 90 26 46
        E 182 80 26 00
        E 49 90 32 42
        E 227 80 32 00
        E 19 90 26 45
        E 168 80 26 00
        E 78 90 32 41
        E 207 80 32 00
        E 24 90 26 46
        E 192 80 26 00
        E 53 90 32 40
        E 234 80 32 00
        E 10 90 26 44
        E 183 80 26 00
        E 55 90 32 43
        E 225 80 32 00
        E 18 90 26 44
        E 182 80 26 00
        E 62 90 32 42
        E 233 80 32 00
        E 4 90 26 46
        E 155 80 26 00
        E 73 90 32 43
        E 231 80 32 00
        E 22 90 26 46
        E 195 80 26 00
        E 47 90 32 41
        E 227 80 32 00
        E 5 90 26 49
        E 160 80 26 00
        E 85 90 32 42
        E 220 80 32 00
        E 16 90 26 43
        E 182 80 26 00
        E 61 90 32 3e
        E 247 80 32 00
        E 15 90 26 44
        E 179 80 26 00
        E 51 90 32 43
        E 224 80 32 00
        E 17 90 26 45
        E 181 80 26 00
        E 42 90 32 41
        E 248 80 32 00
        E 7 90 26 45
        E 186 80 26 00
        E 43 90 32 44
        E 242 80 32 00
        E 4 90 26 46
        E 165 80 26 00
        E 53 90 32 45
        E 241 80 32 00
        E 8 90 26 46
        E 169 80 26 00
        E 69 90 32 42
        E 227 80 32 00
        E 18 90 26 48
        E 181 80 26 00
        E 42 90 32 42
        E 239 80 32 00
        E 7 90 26 44
        E 184 80 26 00
        E 53 90 32 46
        E 227 80 32 00
        E 16 90 26 48
        E 182 80 26 00
        E 46 90 32 44
        E 236 80 32 00
        E 8 90 26 47
        E 175 80 26 00
        E 58 90 32 42
        E 231 80 32 00
        E 21 90 26 49
        E 160 80 26 00
        E 74 90 32 44
        E 247 80 32 00
        E 5 90 26 45
        E 181 80 26 00
        E 40 90 32 43
        E 231 80 32 00
        E 15 90 26 45
        E 187 80 26 00
        E 49 90 32 42
        E 237 80 32 00
        E 13 90 26 47
        E 186 80 26 00
        E 50 90 32 42
        E 231 80 32 00
        E 13 90 26 47
        E 176 80 26 00
        E 55 90 32 44
        E 234 80 32 00
        E 13 90 26 46
        E 159 80 26 00
        E 66 90 32 42
        E 238 80 32 00
        E 14 90 26 48
        E 192 80 26 00
        E 50 90 32 42
        E 222 80 32 00
        E 10 90 26 46
        E 185 80 26 00
        E 52 90 32 45
        E 233 80 32 00
        E 10 90 26 47
        E 181 80 26 00
        E 52 90 32 40
        E 236 80 32 00
        E 15 90 26 48
        E 190 80 26 00
        E 55 90 32 40
        E 247 80 32 00
        E 7 90 26 47
        E 142 80 26 00
        E 84 90 32 3d
        E 231 80 32 00
        E 5 90 26 48
        E 156 80 26 00
        E 78 90 32 41
        E 223 80 32 00
        E 20 90 26 45
        E 173 80 26 00
        E 58 90 32 3f
        E 240 80 32 00
        E 9 90 26 45
        E 183 80 26 00
        E 61 90 32 3e
        E 210 80 32 00
        E 26 90 26 45
        E 190 80 26 00
        E 46 90 32 42
        E 226 80 32 00
        E 24 90 26 47
        E 167 80 26 00
        E 83 90 32 43
        E 215 80 32 00
        E 21 90 26 46
        E 179 80 26 00
        E 69 90 32 3e
        E 211 80 32 00
        E 21 90 26 46
        E 172 80 26 00
        E 65 90 32 45
        E 234 80 32 00
        E 23 90 26 45
        E 188 80 26 00
        E 60 90 32 43
        E 219 80 32 00
        E 15 90 26 45
        E 200 80 26 00
        E 54 90 32 40
        E 223 80 32 00
        E 13 90 26 46
        E 186 80 26 00
        E 39 90 32 43
        E 235 80 32 00
        E 8 90 26 46
        E 205 80 26 00
        E 53 90 32 3f
        E 211 80 32 00
        E 14 90 26 45
        E 168 80 26 00
        E 54 90 32 40
        E 230 80 32 00
        E 6 90 26 47
        E 177 80 26 00
        E 61 90 32 44
        E 231 80 32 00
        E 24 90 26 47
        E 168 80 26 00
        E 78 90 32 43
        E 224 80 32 00
        E 16 90 26 44
        E 174 80 26 00
        E 65 90 32 45
        E 232 80 32 00
        E 13 90 26 48
        E 146 80 26 00
        E 94 90 32 42
        E 223 80 32 00
        E 13 90 26 46
        E 168 80 26 00
        E 85 90 32 45
        E 220 80 32 00
        E 18 90 26 46
        E 154 80 26 00
        E 80 90 32 44
        E 231 80 32 00
        E 15 90 26 46
        E 168 80 26 00
        E 61 90 32 44
        E 220 80 32 00
        E 21 90 26 43
        E 162 80 26 00
        E 64 90 32 45
        E 237 80 32 00
        E 6 90 26 46
        E 183 80 26 00
        E 64 90 32 44
        E 233 80 32 00
        E 13 90 26 47
        E 185 80 26 00
        E 59 90 32 46
        E 228 80 32 00
        E 6 90 26 48
        E 149 80 26 00
        E 100 90 32 42
        E 205 80 32 00
        E 25 90 26 47
        E 188 80 26 00
        E 64 90 32 3f
        E 225 80 32 00
        E 19 90 26 46
        E 161 80 26 00
        E 70 90 32 45
        E 233 80 32 00
        E 12 90 26 46
        E 164 80 26 00
        E 73 90 32 41
        E 227 80 32 00
        E 27 90 26 45
        E 153 80 26 00
        E 58 90 32 40
        E 231 80 32 00
        E 18 90 26 49
        E 153 80 26 00
        E 72 90 32 42
        E 246 80 32 00
        E 11 90 26 44
        E 174 80 26 00
        E 67 90 32 42
        E 211 80 32 00
        E 25 90 26 45
        E 184 80 26 00
        E 40 90 32 3f
        E 233 80 32 00
        E 9 90 26 46
        E 184 80 26 00
        E 59 90 32 44
        E 229 80 32 00
        E 18 90 26 47
        E 152 80 26 00
        E 73 90 32 42
        E 227 80 32 00
        E 22 90 26 45
        E 174 80 26 00
        E 56 90 32 43
        E 239 80 32 00
        E 23 90 26 48
        E 180 80 26 00
        E 53 90 32 44
        E 238 80 32 00
        E 20 90 26 47
        E 155 80 26 00
        E 87 90 32 43
        E 233 80 32 00
        E 17 90 26 47
        E 163 80 26 00
        E 56 90 32 41
        E 244 80 32 00
        E 6 90 26 40
        E 185 80 26 00
        E 53 90 32 44
        E 221 80 32 00
        E 12 90 26 46
        E 164 80 26 00
        E 69 90 32 43
        E 232 80 32 00
        E 8 90 26 44
        E 190 80 26 00
        E 57 90 32 45
        E 207 80 32 00
        E 21 90 26 44
        E 197 80 26 00
        E 49 90 32 42
        E 234 80 32 00
        E 2 90 26 42
        E 180 80 26 00
        E 46 90 32 44
        E 228 80 32 00
        E 15 90 26 44
        E 176 80 26 00
        E 53 90 32 42
        E 234 80 32 00
        E 11 90 26 43
        E 188 80 26 00
        E 45 90 32 47
        E 232 80 32 00
        E 18 90 26 44
        E 183 80 26 00
        E 43 90 32 45
        E 247 90 26 46
        E 5 80 32 00
        E 189 80 26 00
        E 71 90 32 46
        E 212 80 32 00
        E 15 90 26 46
        E 193 80 26 00
        E 54 90 32 44
        E 215 80 32 00
        E 15 90 26 45
        E 192 80 26 00
        E 42 90 32 43
        E 233 80 32 00
        E 5 90 26 45
        E 201 80 26 00
        E 42 90 32 42
        E 233 80 32 00
        E 5 90 26 43
        E 164 80 26 00
        E 61 90 32 42
        E 222 80 32 00
        E 18 90 26 45
        E 184 80 26 00
        E 49 90 32 45
        E 218 80 32 00
        E 18 90 26 43
        E 163 80 26 00
        E 81 90 32 44
        E 232 80 32 00
        E 17 90 26 48
        E 202 80 26 00
        E 54 90 32 42
        E 239 80 32 00
        E 4 90 26 45
        E 183 80 26 00
        E 65 90 32 43
        E 207 80 32 00
        E 26 90 26 46
        E 203 80 26 00
        E 50 90 32 44
        E 223 80 32 00
        E 16 90 26 47
        E 188 80 26 00
        E 54 90 32 41
        E 218 80 32 00
        E 15 90 26 46
        E 190 80 26 00
        E 50 90 32 43
        E 219 80 32 00
        E 30 90 26 45
        E 182 80 26 00
        E 55 90 32 43
        E 225 80 32 00
        E 15 90 26 46
        E 160 80 26 00
        E 58 90 32 44
        E 232 80 32 00
        E 13 90 26 47
        E 183 80 26 00
        E 59 90 32 42
        E 226 80 32 00
        E 17 90 26 48
        E 197 80 26 00
        E 49 90 32 42
        E 208 80 32 00
        E 18 90 26 47
        E 203 80 26 00
        E 48 90 32 44
        E 218 80 32 00
        E 23 90 26 46
        E 178 80 26 00
        E 59 90 32 44
        E 221 80 32 00
        E 19 90 26 45
        E 188 80 26 00
        E 51 90 32 41
        E 208 80 32 00
        E 21 90 26 45
        E 194 80 26 00
        E 43 90 32 42
        E 202 80 32 00
        E 23 90 26 46
        E 200 80 26 00
        E 39 90 32 3e
        E 225 80 32 00
        E 19 90 26 43
        E 208 80 26 00
        E 43 90 32 44
        E 191 80 32 00
        E 28 90 26 44
        E 193 80 26 00
        E 61 90 32 40
        E 219 80 32 00
        E 19 90 26 47
        E 187 80 26 00
        E 51 90 32 42
        E 237 80 32 00
        E 24 90 26 46
        E 191 80 26 00
        E 55 90 32 46
        E 195 80 32 00
        E 36 90 26 47
        E 203 80 26 00
        E 53 90 32 46
        E 203 80 32 00
        E 18 90 26 47
        E 210 80 26 00
        E 45 90 32 42
        E 218 80 32 00
        E 20 90 26 46
        E 199 80 26 00
        E 59 90 32 3c
        E 225 80 32 00
        E 14 90 26 42
        E 192 80 26 00
        E 37 90 32 45
        E 231 80 32 00
        E 16 90 26 46
        E 189 80 26 00
        E 41 90 32 43
        E 238 80 32 00
        E 18 90 26 47
        E 179 80 26 00
        E 61 90 32 47
        E 216 80 32 00
        E 25 90 26 49
        E 193 80 26 00
        E 35 90 32 42
        E 236 80 32 00
        E 10 90 26 47
        E 155 80 26 00
        E 84 90 32 43
        E 220 80 32 00
        E 11 90 26 49
        E 193 80 26 00
        E 40 90 32 45
        E 237 80 32 00
        E 11 90 26 49
        E 190 80 26 00
        E 54 90 32 43
        E 215 80 32 00
        E 25 90 26 4a
        E 196 80 26 00
        E 38 90 32 45
        E 224 80 32 00
        E 15 90 26 48
        E 183 80 26 00
        E 51 90 32 43
        E 217 80 32 00
        E 17 90 26 49
        E 169 80 26 00
        E 61 90 32 45
        E 229 80 32 00
        E 17 90 26 46
        E 182 80 26 00
        E 47 90 32 43
        E 220 80 32 00
        E 15 90 26 47
        E 195 80 26 00
        E 54 90 32 46
        E 214 80 32 00
        E 17 90 26 48
        E 169 80 26 00
        E 70 90 32 45
        E 216 80 32 00
        E 30 90 26 48
        E 153 80 26 00
        E 71 90 32 3c
        E 237 80 32 00
        E 11 90 26 49
        E 197 80 26 00
        E 50 90 32 45
        E 224 80 32 00
        E 30 90 26 48
        E 173 80 26 00
        E 69 90 32 43
        E 216 80 32 00
        E 21 90 26 47
        E 179 80 26 00
        E 57 90 32 43
        E 228 80 32 00
        E 24 90 26 49
        E 190 80 26 00
        E 59 90 32 46
        E 213 80 32 00
        E 25 90 26 49
        E 175 80 26 00
        E 75 90 32 45
        E 220 80 32 00
        E 24 90 26 49
        E 194 80 26 00
        E 51 90 32 47
        E 227 80 32 00
        E 15 90 26 48
        E 156 80 26 00
        E 75 90 32 46
        E 235 80 32 00
        E 18 90 26 48
        E 172 80 26 00
        E 53 90 32 47
        E 234 80 32 00
        E 18 90 26 45
        E 163 80 26 00
        E 67 90 32 45
        E 218 80 32 00
        E 14 90 26 48
        E 177 80 26 00
        E 52 90 32 44
        E 224 80 32 00
        E 9 90 26 46
        E 195 80 26 00
        E 50 90 32 47
        E 200 80 32 00
        E 26 90 26 47
        E 183 80 26 00
        E 59 90 32 42
        E 219 80 32 00
        E 26 90 26 46
        E 156 80 26 00
        E 75 90 32 44
        E 216 80 32 00
        E 36 90 26 45
        E 170 80 26 00
        E 50 90 32 45
        E 237 80 32 00
        E 14 90 26 44
        E 180 80 26 00
        E 66 90 32 47
        E 219 80 32 00
        E 15 90 26 4a
        E 176 80 26 00
        E 61 90 32 44
        E 236 80 32 00
        E 21 90 26 42
        E 186 80 26 00
        E 50 90 32 45
        E 227 80 32 00
        E 21 90 26 45
        E 183 80 26 00
        E 57 90 32 43
        E 222 80 32 00
        E 16 90 26 46
        E 166 80 26 00
        E 63 90 32 44
        E 226 80 32 00
        E 24 90 26 47
        E 197 80 26 00
        E 49 90 32 43
        E 234 80 32 00
        E 13 90 26 46
        E 197 80 26 00
        E 32 90 32 45
        E 240 80 32 00
        E 16 90 26 46
        E 179 80 26 00
        E 50 90 32 44
        E 230 80 32 00
        E 8 90 26 46
        E 196 80 26 00
        E 56 90 32 44
        E 217 80 32 00
        E 21 90 26 48
        E 186 80 26 00
        E 42 90 32 44
        E 235 80 32 00
        E 19 90 26 46
        E 156 80 26 00
        E 73 90 32 43
        E 232 80 32 00
        E 12 90 26 49
        E 187 80 26 00
        E 45 90 32 46
        E 224 80 32 00
        E 20 90 26 47
        E 188 80 26 00
        E 49 90 32 45
        E 219 80 32 00
        E 25 90 26 45
        E 167 80 26 00
        E 67 90 32 44
        E 236 80 32 00
        E 17 90 26 45
        E 169 80 26 00
        E 68 90 32 45
        E 213 80 32 00
        E 26 90 26 45
        E 184 80 26 00
        E 53 90 32 42
        E 219 80 32 00
        E 16 90 26 46
        E 196 80 26 00
        E 42 90 32 43
        E 216 80 32 00
        E 17 90 26 4a
        E 170 80 26 00
        E 67 90 32 41
        E 215 80 32 00
        E 12 90 26 46
        E 200 80 26 00
        E 49 90 32 44
        E 185 80 32 00
        E 37 90 26 47
        E 203 80 26 00
        E 55 90 32 42
        E 231 80 32 00
        E 14 90 26 45
        E 198 80 26 00
        E 47 90 32 43
        E 217 80 32 00
        E 21 90 26 46
        E 192 80 26 00
        E 55 90 32 41
        E 215 80 32 00
        E 19 90 26 44
        E 160 80 26 00
        E 86 90 32 43
        E 185 80 32 00
        E 56 90 26 49
        E 191 80 26 00
        E 51 90 32 45
        E 201 80 32 00
        E 33 90 26 45
        E 194 80 26 00
        E 36 90 32 47
        E 210 80 32 00
        E 28 90 26 47
        E 190 80 26 00
        E 62 90 32 45
        E 210 80 32 00
        E 15 90 26 47
        E 191 80 26 00
        E 66 90 32 46
        E 188 80 32 00
        E 35 90 26 45
        E 207 80 26 00
        E 47 90 32 44
        E 222 80 32 00
        E 7 90 26 45
        E 200 80 26 00
        E 44 90 32 47
        E 228 80 32 00
        E 22 90 26 47
        E 196 80 26 00
        E 41 90 32 43
        E 247 80 32 00
        E 11 90 26 45
        E 155 80 26 00
        E 73 90 32 45
        E 229 80 32 00
        E 15 90 26 46
        E 176 80 26 00
        E 37 90 32 41
        E 254 80 32 00
        E 10 90 26 45
        E 172 80 26 00
        E 51 90 32 45
        E 219 80 32 00
        E 24 90 26 46
        E 200 80 26 00
        E 44 90 32 45
        E 216 80 32 00
        E 18 90 26 45
        E 200 80 26 00
        E 40 90 32 42
        E 215 80 32 00
        E 17 90 26 47
        E 186 80 26 00
        E 58 90 32 42
        E 206 80 32 00
        E 23 90 26 48
        E 192 80 26 00
        E 49 90 32 44
        E 231 80 32 00
        E 4 90 26 49
        E 200 80 26 00
        E 63 90 32 45
        E 224 80 32 00
        E 16 90 26 49
        E 183 80 26 00
        E 60 90 32 44
        E 237 80 32 00
        E 12 90 26 46
        E 182 80 26 00
        E 53 90 32 44
        E 237 80 32 00
        E 20 90 26 45
        E 148 80 26 00
        E 79 90 32 45
        E 238 80 32 00
        E 18 90 26 46
        E 172 80 26 00
        E 48 90 32 43
        E 247 80 32 00
        E 1 90 26 47
        E 169 80 26 00
        E 44 90 32 45
        E 248 80 32 00
        E 22 90 26 4a
        E 150 80 26 00
        E 76 90 32 44
        E 234 80 32 00
        E 4 90 26 48
        E 214 80 26 00
        E 44 90 32 47
        E 215 80 32 00
        E 13 90 26 48
        E 186 80 26 00
        E 47 90 32 42
        E 235 80 32 00
        E 11 90 26 45
        E 166 80 26 00
        E 67 90 32 3e
        E 218 80 32 00
        E 14 90 26 48
        E 184 80 26 00
        E 46 90 32 42
        E 238 80 32 00
        E 13 90 26 46
        E 184 80 26 00
        E 72 90 32 44
        E 220 80 32 00
        E 17 90 26 49
        E 168 80 26 00
        E 65 90 32 41
        E 255 80 32 00
        E 3 90 26 48
        E 184 80 26 00
        E 45 90 32 45
        E 239 80 32 00
        E 15 90 26 4a
        E 176 80 26 00
        E 66 90 32 41
        E 218 80 32 00
        E 18 90 26 48
        E 167 80 26 00
        E 66 90 32 3f
        E 232 80 32 00
        E 13 90 26 47
        E 166 80 26 00
        E 55 90 32 47
        E 239 80 32 00
        E 10 90 26 46
        E 176 80 26 00
        E 66 90 32 46
        E 226 80 32 00
        E 11 90 26 48
        E 189 80 26 00
        E 54 90 32 40
        E 238 90 26 47
        E 1 80 32 00
        E 195 80 26 00
        E 53 90 32 44
        E 210 80 32 00
        E 23 90 26 46
        E 184 80 26 00
        E 59 90 32 42
        E 234 80 32 00
        E 7 90 26 46
        E 198 80 26 00
        E 44 90 32 47
        E 237 80 32 00
        E 10 90 26 47
        E 190 80 26 00
        E 34 90 32 47
        E 242 80 32 00
        E 4 90 26 45
        E 211 80 26 00
        E 36 90 32 45
        E 226 90 26 49
        E 5 80 32 00
        E 202 80 26 00
        E 32 90 32 43
        E 248 90 26 47
        E 1 80 32 00
        E 178 80 26 00
        E 64 90 32 46
        E 230 80 32 00
        E 16 90 26 48
        E 193 80 26 00
        E 25 90 32 45
        E 258 80 32 00
        E 5 90 26 48
        E 210 80 26 00
        E 37 90 32 43
        E 230 90 26 49
        E 2 80 32 00
        E 181 80 26 00
        E 51 90 32 3e
        E 248 90 26 49
        E 1 80 32 00
        E 208 80 26 00
        E 23 90 32 3f
        E 218 80 32 00
        E 5 90 26 48
        E 200 80 26 00
        E 42 90 32 44
        E 237 80 32 00
        E 1 90 26 48
        E 192 80 26 00
        E 52 90 32 44
        E 221 80 32 00
        E 12 90 26 4a
        E 185 80 26 00
        E 40 90 32 44
        E 236 80 32 00
        E 24 90 26 49
        E 217 80 26 00
        E 32 90 32 47
        E 214 80 32 00
        E 29 90 26 4c
        E 195 80 26 00
        E 43 90 32 42
        E 216 80 32 00
        E 23 90 26 48
        E 196 80 26 00
        E 43 90 32 46
        E 226 80 32 00
        E 19 90 26 49
        E 196 80 26 00
        E 39 90 32 3f
        E 207 80 32 00
        E 27 90 26 49
        E 203 80 26 00
        E 36 90 32 40
        E 197 80 32 00
        E 48 90 26 4c
        E 193 80 26 00
        E 45 90 32 42
        E 230 80 32 00
        E 21 90 26 49
        E 198 80 26 00
        E 40 90 32 42
        E 220 80 32 00
        E 27 90 26 46
        E 184 80 26 00
        E 51 90 32 40
        E 220 80 32 00
        E 22 90 26 48
        E 184 80 26 00
        E 47 90 32 44
        E 227 80 32 00
        E 20 90 26 49
        E 195 80 26 00
        E 48 90 32 44
        E 238 80 32 00
        E 5 90 26 47
        E 200 80 26 00
        E 53 90 32 46
        E 211 80 32 00
        E 21 90 26 49
        E 192 80 26 00
        E 46 90 32 44
        E 233 80 32 00
        E 17 90 26 46
        E 198 80 26 00
        E 46 90 32 46
        E 227 80 32 00
        E 15 90 26 47
        E 204 80 26 00
        E 33 90 32 45
        E 221 80 32 00
        E 15 90 26 46
        E 187 80 26 00
        E 56 90 32 47
        E 211 80 32 00
        E 26 90 26 46
        E 192 80 26 00
        E 45 90 32 43
        E 244 80 32 00
        E 7 90 26 46
        E 191 80 26 00
        E 48 90 32 47
        E 234 80 32 00
        E 11 90 26 49
        E 187 80 26 00
        E 47 90 32 46
        E 231 80 32 00
        E 2 90 26 47
        E 189 80 26 00
        E 56 90 32 46
        E 229 80 32 00
        E 7 90 26 48
        E 193 80 26 00
        E 51 90 32 47
        E 222 80 32 00
        E 15 90 26 49
        E 192 80 26 00
        E 58 90 32 45
        E 225 80 32 00
        E 20 90 26 48
        E 181 80 26 00
        E 56 90 32 48
        E 221 80 32 00
        E 8 90 26 49
        E 205 80 26 00
        E 40 90 32 45
        E 219 80 32 00
        E 12 90 26 49
        E 200 80 26 00
        E 45 90 32 42
        E 229 80 32 00
        E 12 90 26 47
        E 180 80 26 00
        E 54 90 32 44
        E 231 80 32 00
        E 9 90 26 48
        E 190 80 26 00
        E 42 90 32 46
        E 236 80 32 00
        E 4 90 26 48
        E 179 80 26 00
        E 52 90 32 46
        E 233 80 32 00
        E 19 90 26 47
        E 192 80 26 00
        E 36 90 32 44
        E 233 80 32 00
        E 10 90 26 47
        E 194 80 26 00
        E 46 90 32 46
        E 231 80 32 00
        E 9 90 26 44
        E 181 80 26 00
        E 50 90 32 46
        E 232 80 32 00
        E 4 90 26 46
        E 186 80 26 00
        E 43 90 32 43
        E 235 80 32 00
        E 14 90 26 49
        E 184 80 26 00
        E 55 90 32 44
        E 230 80 32 00
        E 9 90 26 48
        E 189 80 26 00
        E 60 90 32 42
        E 229 80 32 00
        E 5 90 26 48
        E 197 80 26 00
        E 51 90 32 46
        E 227 80 32 00
        E 8 90 26 47
        E 199 80 26 00
        E 50 90 32 45
        E 230 80 32 00
        E 6 90 26 48
        E 189 80 26 00
        E 36 90 32 45
        E 223 90 26 46
        E 1 80 32 00
        E 199 80 26 00
        E 50 90 32 45
        E 227 80 32 00
        E 9 90 26 47
        E 208 80 26 00
        E 38 90 32 42
        E 228 80 32 00
        E 8 90 26 47
        E 203 80 26 00
        E 56 90 32 46
        E 225 80 32 00
        E 10 90 26 47
        E 212 80 26 00
        E 33 90 32 45
        E 239 90 26 46
        E 1 80 32 00
        E 197 80 26 00
        E 45 90 32 47
        E 223 80 32 00
        E 7 90 26 45
        E 201 80 26 00
        E 49 90 32 47
        E 235 80 32 00
        E 10 90 26 45
        E 187 80 26 00
        E 62 90 32 44
        E 213 80 32 00
        E 8 90 26 44
        E 201 80 26 00
        E 48 90 32 44
        E 244 80 32 00
        E 13 90 26 46
        E 166 80 26 00
        E 76 90 32 44
        E 234 80 32 00
        E 17 90 26 48
        E 177 80 26 00
        E 53 90 32 43
        E 258 80 32 00
        E 1 90 26 45
        E 172 80 26 00
        E 53 90 32 45
        E 245 80 32 00
        E 3 90 26 47
        E 213 80 26 00
        E 23 90 32 45
        E 256 80 32 00
        E 5 90 26 46
        E 174 80 26 00
        E 42 90 32 46
        E 260 80 32 00
        E 4 90 26 48
        E 188 80 26 00
        E 30 90 32 45
        E 262 80 32 00
        E 2 90 26 47
        E 187 80 26 00
        E 37 90 32 45
        E 236 80 32 00
        E 9 90 26 48
        E 183 80 26 00
        E 47 90 32 47
        E 224 80 32 00
        E 11 90 26 45
        E 197 80 26 00
        E 42 90 32 46
        E 238 80 32 00
        E 4 90 26 48
        E 196 80 26 00
        E 44 90 32 43
        E 233 80 32 00
        E 7 90 26 45
        E 198 80 26 00
        E 41 90 32 47
        E 234 80 32 00
        E 3 90 26 46
        E 189 80 26 00
        E 42 90 32 45
        E 248 80 32 00
        E 8 90 26 45
        E 173 80 26 00
        E 62 90 32 45
        E 234 90 26 46
        E 3 80 32 00
        E 204 80 26 00
        E 27 90 32 47
        E 239 80 32 00
        E 5 90 26 48
        E 164 80 26 00
        E 77 90 32 46
        E 217 80 32 00
        E 14 90 26 48
        E 194 80 26 00
        E 41 90 32 45
        E 239 80 32 00
        E 11 90 26 45
        E 165 80 26 00
        E 61 90 32 46
        E 238 80 32 00
        E 3 90 26 47
        E 185 80 26 00
        E 36 90 32 45
        E 247 80 32 00
        E 2 90 26 47
        E 201 80 26 00
        E 40 90 32 46
        E 239 80 32 00
        E 2 90 26 47
        E 198 80 26 00
        E 42 90 32 44
        E 238 80 32 00
        E 4 90 26 45
        E 203 80 26 00
        E 42 90 32 46
        E 223 80 32 00
        E 14 90 26 46
        E 199 80 26 00
        E 50 90 32 45
        E 223 80 32 00
        E 2 90 26 47
        E 217 80 26 00
        E 32 90 32 48
        E 231 80 32 00
        E 4 90 26 48
        E 220 80 26 00
        E 32 90 32 46
        E 231 80 32 00
        E 1 90 26 46
        E 195 80 26 00
        E 56 90 32 47
        E 229 80 32 00
        E 11 90 26 47
        E 193 80 26 00
        E 48 90 32 46
        E 239 80 32 00
        E 1 90 26 49
        E 199 80 26 00
        E 39 90 32 47
        E 240 80 32 00
        E 5 90 26 49
        E 199 80 26 00
        E 29 90 32 46
        E 229 90 26 49
        E 4 80 32 00
        E 197 80 26 00
        E 51 90 32 47
        E 232 80 32 00
        E 1 90 26 4a
        E 206 80 26 00
        E 41 90 32 47
        E 226 80 32 00
        E 2 90 26 48
        E 198 80 26 00
        E 45 90 32 47
        E 233 80 32 00
        E 5 90 26 48
        E 197 80 26 00
        E 43 90 32 46
        E 232 90 26 48
        E 1 80 32 00
        E 185 80 26 00
        E 59 90 32 48
        E 234 80 32 00
        E 8 90 26 48
        E 211 80 26 00
        E 39 90 32 46
        E 224 80 32 00
        E 12 90 26 47
        E 206 80 26 00
        E 43 90 32 44
        E 236 90 26 48
        E 1 80 32 00
        E 212 80 26 00
        E 33 90 32 44
        E 237 80 32 00
        E 3 90 26 47
        E 194 80 26 00
        E 39 90 32 47
        E 234 80 32 00
        E 2 90 26 49
        E 200 80 26 00
        E 45 90 32 45
        E 231 90 26 46
        E 1 80 32 00
        E 192 80 26 00
        E 48 90 32 46
        E 234 80 32 00
        E 8 90 26 47
        E 202 80 26 00
        E 41 90 32 46
        E 230 80 32 00
        E 9 90 26 46
        E 188 80 26 00
        E 44 90 32 45
        E 224 80 32 00
        E 13 90 26 47
        E 187 80 26 00
        E 63 90 32 43
        E 217 80 32 00
        E 9 90 26 48
        E 181 80 26 00
        E 68 90 32 41
        E 235 80 32 00
        E 6 90 26 49
        E 189 80 26 00
        E 46 90 32 44
        E 225 80 32 00
        E 15 90 26 47
        E 191 80 26 00
        E 55 90 32 45
        E 246 80 32 00
        E 5 90 26 45
        E 182 80 26 00
        E 49 90 32 44
        E 236 80 32 00
        E 3 90 26 46
        E 200 80 26 00
        E 52 90 32 45
        E 223 80 32 00
        E 12 90 26 47
        E 198 80 26 00
        E 48 90 32 47
        E 240 80 32 00
        E 0 90 26 48
        E 192 80 26 00
        E 61 90 32 45
        E 228 80 32 00
        E 11 90 26 47
        E 189 80 26 00
        E 51 90 32 43
        E 229 90 26 45
        E 11 80 32 00
        E 176 80 26 00
        E 67 90 32 45
        E 222 80 32 00
        E 10 90 26 45
        E 210 80 26 00
        E 26 90 32 45
        E 242 80 32 00
        E 3 90 26 45
        E 197 80 26 00
        E 38 90 32 42
        E 240 90 26 47
        E 2 80 32 00
        E 184 80 26 00
        E 36 90 32 46
        E 262 80 32 00
        E 6 90 26 47
        E 203 80 26 00
        E 38 90 32 45
        E 237 80 32 00
        E 3 90 26 45
        E 195 80 26 00
        E 43 90 32 47
        E 224 80 32 00
        E 4 90 26 47
        E 202 80 26 00
        E 31 90 32 44
        E 249 80 32 00
        E 1 90 26 49
        E 179 80 26 00
        E 41 90 32 44
        E 244 90 26 45
        E 2 80 32 00
        E 180 80 26 00
        E 44 90 32 47
        E 242 80 32 00
        E 7 90 26 48
        E 193 80 26 00
        E 43 90 32 45
        E 260 90 26 47
        E 3 80 32 00
        E 190 80 26 00
        E 40 90 32 46
        E 234 80 32 00
        E 8 90 26 48
        E 179 80 26 00
        E 52 90 32 47
        E 234 80 32 00
        E 2 90 26 45
        E 186 80 26 00
        E 55 90 32 45
        E 231 80 32 00
        E 5 90 26 48
        E 181 80 26 00
        E 60 90 32 43
        E 252 90 26 47
        E 2 80 32 00
        E 174 80 26 00
        E 52 90 32 41
        E 250 80 32 00
        E 4 90 26 47
        E 193 80 26 00
        E 36 90 32 43
        E 242 80 32 00
        E 9 90 26 48
        E 186 80 26 00
        E 41 90 32 42
        E 242 80 32 00
        E 11 90 26 48
        E 181 80 26 00
        E 41 90 32 44
        E 251 80 32 00
        E 7 90 26 47
        E 201 80 26 00
        E 42 90 32 45
        E 242 80 32 00
        E 5 90 26 48
        E 205 80 26 00
        E 39 90 32 42
        E 243 80 32 00
        E 4 90 26 46
        E 181 80 26 00
        E 46 90 32 44
        E 240 80 32 00
        E 10 90 26 48
        E 183 80 26 00
        E 51 90 32 44
        E 231 80 32 00
        E 11 90 26 48
        E 210 80 26 00
        E 41 90 32 41
        E 211 80 32 00
        E 11 90 26 48
        E 206 80 26 00
        E 44 90 32 42
        E 229 80 32 00
        E 6 90 26 47
        E 218 80 26 00
        E 40 90 32 43
        E 211 80 32 00
        E 0 90 26 48
        E 204 80 26 00
        E 47 90 32 42
        E 232 80 32 00
        E 5 90 26 46
        E 187 80 26 00
        E 58 90 32 44
        E 226 80 32 00
        E 13 90 26 4e
        E 10585 80 26 00
        E 960 b0 7b 00
        CCINTERP 32
        CHASE_CC_TAKEOFFS 1
        GUID {94FAE40F-6E0E-5440-9A7B-874C0D9BA0F6}
        IGNTEMPO 0 120 4 4
        SRCCOLOR 153
        VELLANE -1 100 0
        VELLANE 64 100 0
        CFGEDITVIEW 227598.258127 0.107139 72 12 0 -1 0 0 0 0.5
        KEYSNAP 0
        TRACKSEL 0
        EVTFILTER 0 -1 -1 -1 -1 0 0 0 0 -1 -1 -1 -1 0 -1 0 -1 -1
        CFGEDIT 1 1 0 1 0 0 1 1 1 1 1 0.125 0 0 1856 1055 0 0 0 0 0 0 0 0 0 0.5 0 0 1 64
      >
    >
  >
  <TRACK {067E1168-7806-B84C-86C2-F31A5E600FC9}
    NAME "Piano - low 8vb"
    PEAKCOL 16576
    BEAT -1
    AUTOMODE 0
    VOLPAN 1 0 -1 -1 1
    MUTESOLO 0 0 0
    IPHASE 0
    PLAYOFFS 0 1
    ISBUS 0 0
    BUSCOMP 0 0 0 0 0
    SHOWINMIX 0 0.6667 0.5 1 0.5 0 -1 0
    FREEMODE 0
    SEL 0
    REC 0 4096 1 0 0 0 0
    VU 2
    TRACKHEIGHT 0 0 0 0 0 0
    INQ 0 0 0 0.5 100 0 0 100
    NCHAN 2
    FX 1
    TRACKID {067E1168-7806-B84C-86C2-F31A5E600FC9}
    PERF 0
    MIDIOUT -1
    MAINSEND 1 0
    <FXCHAIN
      WNDRECT 32 351 649 672
      SHOW 0
      LASTSEL 0
      DOCKED 0
      BYPASS 0 0 0
      <VST "VST: ReaControlMIDI (Cockos)" reacontrolMIDI.vst.dylib 0 "" 1919118692<56535472636D64726561636F6E74726F> ""
        ZG1jcu5e7f4AAAAAAAAAAO8AAAABAAAAAAAQAA==
        /////wAAAAAAAAAAAAAAAAkAAAAMAAAAAQAAAP8/AAAAIAAAACAAAAAAAAA+AAAAL1VzZXJzL2FuZHkvTGlicmFyeS9BcHBsaWNhdGlvbiBTdXBwb3J0L1JFQVBFUi9E
        YXRhL0dNLnJlYWJhbmsAAAAAAAAAAAAAAAAAAAAAAAAAAAAAAAAAAAAAAAAAAAAAAAABAAAAAAAAAAAAAAAAAAAAAAAAAAAAAAAAAAAAAAYAAABNYWpvcgANAAAAMTAy
        MDM0MDUwNjA3AAEAAAAAAAAAAAAAAAAKAAAADQAAAAEAAAAAAAAAAAAAAAAAAAA=
        AAAQAAAA
      >
      FLOATPOS 0 0 0 0
      FXID {F7BC2E10-CD3C-CB40-819C-789D3DCFA1FE}
      WAK 0 0
    >
    <ITEM
      POSITION 92.48052692131662
      SNAPOFFS 0
      LENGTH 35.51947307868338
      LOOP 1
      ALLTAKES 0
      FADEIN 1 0 0 1 0 0 0
      FADEOUT 1 0 0 1 0 0 0
      MUTE 0 0
      SEL 0
      IGUID {069DA26D-4EF5-AF4C-B352-F7FF47000F12}
      IID 77
      NAME "07-Piano - pedal-Recorded MIDI-glued"
      VOLPAN 1 0 1 -1
      SOFFS 0 0
      PLAYRATE 1 1 0 -1 0 0.0025
      CHANMODE 0
      GUID {7D68F4A6-2BE5-E64F-B52A-D2708C0CAE48}
      <SOURCE MIDI
        HASDATA 1 960 QN
        CCINTERP 32
        POOLEDEVTS {6085747B-2FD8-F844-99ED-44ECD49E528C}
        E 1 90 1a 01
        E 196 80 1a 00
        E 39 90 26 01
        E 207 80 26 00
        E 27 90 1a 01
        E 203 80 1a 00
        E 36 90 26 01
        E 197 80 26 00
        E 48 90 1a 02
        E 193 80 1a 00
        E 45 90 26 02
        E 230 80 26 00
        E 21 90 1a 03
        E 198 80 1a 00
        E 40 90 26 03
        E 220 80 26 00
        E 27 90 1a 04
        E 184 80 1a 00
        E 51 90 26 04
        E 220 80 26 00
        E 22 90 1a 04
        E 184 80 1a 00
        E 47 90 26 05
        E 227 80 26 00
        E 20 90 1a 05
        E 195 80 1a 00
        E 48 90 26 06
        E 238 80 26 00
        E 5 90 1a 06
        E 200 80 1a 00
        E 53 90 26 06
        E 211 80 26 00
        E 21 90 1a 06
        E 192 80 1a 00
        E 46 90 26 07
        E 233 80 26 00
        E 17 90 1a 07
        E 198 80 1a 00
        E 46 90 26 08
        E 227 80 26 00
        E 15 90 1a 08
        E 204 80 1a 00
        E 33 90 26 09
        E 221 80 26 00
        E 15 90 1a 09
        E 187 80 1a 00
        E 56 90 26 0a
        E 211 80 26 00
        E 26 90 1a 0a
        E 192 80 1a 00
        E 45 90 26 0b
        E 244 80 26 00
        E 7 90 1a 0b
        E 191 80 1a 00
        E 48 90 26 0c
        E 234 80 26 00
        E 11 90 1a 0d
        E 187 80 1a 00
        E 47 90 26 0d
        E 231 80 26 00
        E 2 90 1a 0e
        E 189 80 1a 00
        E 56 90 26 0f
        E 229 80 26 00
        E 7 90 1a 10
        E 193 80 1a 00
        E 51 90 26 10
        E 222 80 26 00
        E 15 90 1a 10
        E 192 80 1a 00
        E 58 90 26 11
        E 225 80 26 00
        E 20 90 1a 12
        E 181 80 1a 00
        E 56 90 26 13
        E 221 80 26 00
        E 8 90 1a 14
        E 205 80 1a 00
        E 40 90 26 14
        E 219 80 26 00
        E 12 90 1a 16
        E 200 80 1a 00
        E 45 90 26 16
        E 229 80 26 00
        E 12 90 1a 18
        E 180 80 1a 00
        E 54 90 26 18
        E 231 80 26 00
        E 9 90 1a 19
        E 190 80 1a 00
        E 42 90 26 1a
        E 236 80 26 00
        E 4 90 1a 1b
        E 179 80 1a 00
        E 52 90 26 1b
        E 233 80 26 00
        E 19 90 1a 1c
        E 192 80 1a 00
        E 36 90 26 1d
        E 233 80 26 00
        E 10 90 1a 1e
        E 194 80 1a 00
        E 46 90 26 1f
        E 231 80 26 00
        E 9 90 1a 20
        E 181 80 1a 00
        E 50 90 26 20
        E 232 80 26 00
        E 4 90 1a 20
        E 186 80 1a 00
        E 43 90 26 22
        E 235 80 26 00
        E 14 90 1a 23
        E 184 80 1a 00
        E 55 90 26 24
        E 230 80 26 00
        E 9 90 1a 25
        E 189 80 1a 00
        E 60 90 26 25
        E 229 80 26 00
        E 5 90 1a 26
        E 197 80 1a 00
        E 51 90 26 27
        E 227 80 26 00
        E 8 90 1a 27
        E 199 80 1a 00
        E 50 90 26 28
        E 230 80 26 00
        E 6 90 1a 29
        E 189 80 1a 00
        E 36 90 26 29
        E 223 90 1a 2a
        E 1 80 26 00
        E 199 80 1a 00
        E 50 90 26 2a
        E 227 80 26 00
        E 9 90 1a 2a
        E 208 80 1a 00
        E 38 90 26 2b
        E 228 80 26 00
        E 8 90 1a 2c
        E 203 80 1a 00
        E 56 90 26 2d
        E 225 80 26 00
        E 10 90 1a 2d
        E 212 80 1a 00
        E 33 90 26 2d
        E 239 90 1a 2e
        E 1 80 26 00
        E 197 80 1a 00
        E 45 90 26 2f
        E 223 80 26 00
        E 7 90 1a 2f
        E 201 80 1a 00
        E 49 90 26 30
        E 235 80 26 00
        E 10 90 1a 31
        E 187 80 1a 00
        E 62 90 26 32
        E 213 80 26 00
        E 8 90 1a 32
        E 201 80 1a 00
        E 48 90 26 33
        E 244 80 26 00
        E 13 90 1a 34
        E 166 80 1a 00
        E 76 90 26 34
        E 234 80 26 00
        E 17 90 1a 35
        E 177 80 1a 00
        E 53 90 26 36
        E 258 80 26 00
        E 1 90 1a 37
        E 172 80 1a 00
        E 53 90 26 38
        E 245 80 26 00
        E 3 90 1a 39
        E 213 80 1a 00
        E 23 90 26 3a
        E 256 80 26 00
        E 5 90 1a 3b
        E 174 80 1a 00
        E 42 90 26 3c
        E 260 80 26 00
        E 4 90 1a 3d
        E 188 80 1a 00
        E 30 90 26 3e
        E 262 80 26 00
        E 2 90 1a 3f
        E 187 80 1a 00
        E 37 90 26 40
        E 236 80 26 00
        E 9 90 1a 40
        E 183 80 1a 00
        E 47 90 26 42
        E 224 80 26 00
        E 11 90 1a 42
        E 197 80 1a 00
        E 42 90 26 43
        E 238 80 26 00
        E 4 90 1a 43
        E 196 80 1a 00
        E 44 90 26 44
        E 233 80 26 00
        E 7 90 1a 44
        E 198 80 1a 00
        E 41 90 26 45
        E 234 80 26 00
        E 3 90 1a 45
        E 189 80 1a 00
        E 42 90 26 46
        E 248 80 26 00
        E 8 90 1a 46
        E 173 80 1a 00
        E 62 90 26 47
        E 234 90 1a 47
        E 3 80 26 00
        E 204 80 1a 00
        E 27 90 26 47
        E 239 80 26 00
        E 5 90 1a 47
        E 164 80 1a 00
        E 77 90 26 46
        E 217 80 26 00
        E 14 90 1a 46
        E 194 80 1a 00
        E 41 90 26 47
        E 239 80 26 00
        E 11 90 1a 45
        E 165 80 1a 00
        E 61 90 26 46
        E 238 80 26 00
        E 3 90 1a 47
        E 185 80 1a 00
        E 36 90 26 45
        E 247 80 26 00
        E 2 90 1a 47
        E 201 80 1a 00
        E 40 90 26 46
        E 239 80 26 00
        E 2 90 1a 47
        E 198 80 1a 00
        E 42 90 26 44
        E 238 80 26 00
        E 4 90 1a 45
        E 203 80 1a 00
        E 42 90 26 46
        E 223 80 26 00
        E 14 90 1a 46
        E 199 80 1a 00
        E 50 90 26 45
        E 223 80 26 00
        E 2 90 1a 47
        E 217 80 1a 00
        E 32 90 26 48
        E 231 80 26 00
        E 4 90 1a 48
        E 220 80 1a 00
        E 32 90 26 46
        E 231 80 26 00
        E 1 90 1a 46
        E 195 80 1a 00
        E 56 90 26 47
        E 229 80 26 00
        E 11 90 1a 47
        E 193 80 1a 00
        E 48 90 26 46
        E 239 80 26 00
        E 1 90 1a 49
        E 199 80 1a 00
        E 39 90 26 47
        E 240 80 26 00
        E 5 90 1a 49
        E 199 80 1a 00
        E 29 90 26 46
        E 229 90 1a 49
        E 4 80 26 00
        E 197 80 1a 00
        E 51 90 26 47
        E 232 80 26 00
        E 1 90 1a 4a
        E 206 80 1a 00
        E 41 90 26 47
        E 226 80 26 00
        E 2 90 1a 48
        E 198 80 1a 00
        E 45 90 26 47
        E 233 80 26 00
        E 5 90 1a 48
        E 197 80 1a 00
        E 43 90 26 46
        E 232 90 1a 48
        E 1 80 26 00
        E 185 80 1a 00
        E 59 90 26 48
        E 234 80 26 00
        E 8 90 1a 48
        E 211 80 1a 00
        E 39 90 26 46
        E 224 80 26 00
        E 12 90 1a 47
        E 206 80 1a 00
        E 43 90 26 44
        E 236 90 1a 48
        E 1 80 26 00
        E 212 80 1a 00
        E 33 90 26 44
        E 237 80 26 00
        E 3 90 1a 47
        E 194 80 1a 00
        E 39 90 26 47
        E 234 80 26 00
        E 2 90 1a 49
        E 200 80 1a 00
        E 45 90 26 45
        E 231 90 1a 46
        E 1 80 26 00
        E 192 80 1a 00
        E 48 90 26 46
        E 234 80 26 00
        E 8 90 1a 47
        E 202 80 1a 00
        E 41 90 26 46
        E 230 80 26 00
        E 9 90 1a 46
        E 188 80 1a 00
        E 44 90 26 45
        E 224 80 26 00
        E 13 90 1a 47
        E 187 80 1a 00
        E 63 90 26 43
        E 217 80 26 00
        E 9 90 1a 48
        E 181 80 1a 00
        E 68 90 26 41
        E 235 80 26 00
        E 6 90 1a 49
        E 189 80 1a 00
        E 46 90 26 44
        E 225 80 26 00
        E 15 90 1a 47
        E 191 80 1a 00
        E 55 90 26 45
        E 246 80 26 00
        E 5 90 1a 45
        E 182 80 1a 00
        E 49 90 26 44
        E 236 80 26 00
        E 3 90 1a 46
        E 200 80 1a 00
        E 52 90 26 45
        E 223 80 26 00
        E 12 90 1a 47
        E 198 80 1a 00
        E 48 90 26 47
        E 240 80 26 00
        E 0 90 1a 48
        E 192 80 1a 00
        E 61 90 26 45
        E 228 80 26 00
        E 11 90 1a 47
        E 189 80 1a 00
        E 51 90 26 43
        E 229 90 1a 45
        E 11 80 26 00
        E 176 80 1a 00
        E 67 90 26 45
        E 222 80 26 00
        E 10 90 1a 45
        E 210 80 1a 00
        E 26 90 26 45
        E 242 80 26 00
        E 3 90 1a 45
        E 197 80 1a 00
        E 38 90 26 42
        E 240 90 1a 47
        E 2 80 26 00
        E 184 80 1a 00
        E 36 90 26 46
        E 262 80 26 00
        E 6 90 1a 47
        E 203 80 1a 00
        E 38 90 26 45
        E 237 80 26 00
        E 3 90 1a 45
        E 195 80 1a 00
        E 43 90 26 47
        E 224 80 26 00
        E 4 90 1a 47
        E 202 80 1a 00
        E 31 90 26 44
        E 249 80 26 00
        E 1 90 1a 49
        E 179 80 1a 00
        E 41 90 26 44
        E 244 90 1a 45
        E 2 80 26 00
        E 180 80 1a 00
        E 44 90 26 47
        E 242 80 26 00
        E 7 90 1a 48
        E 193 80 1a 00
        E 43 90 26 45
        E 260 90 1a 47
        E 3 80 26 00
        E 190 80 1a 00
        E 40 90 26 46
        E 234 80 26 00
        E 8 90 1a 48
        E 179 80 1a 00
        E 52 90 26 47
        E 234 80 26 00
        E 2 90 1a 45
        E 186 80 1a 00
        E 55 90 26 45
        E 231 80 26 00
        E 5 90 1a 48
        E 181 80 1a 00
        E 60 90 26 43
        E 252 90 1a 47
        E 2 80 26 00
        E 174 80 1a 00
        E 52 90 26 41
        E 250 80 26 00
        E 4 90 1a 47
        E 193 80 1a 00
        E 36 90 26 43
        E 242 80 26 00
        E 9 90 1a 48
        E 186 80 1a 00
        E 41 90 26 42
        E 242 80 26 00
        E 11 90 1a 48
        E 181 80 1a 00
        E 41 90 26 44
        E 251 80 26 00
        E 7 90 1a 47
        E 201 80 1a 00
        E 42 90 26 45
        E 242 80 26 00
        E 5 90 1a 48
        E 205 80 1a 00
        E 39 90 26 42
        E 243 80 26 00
        E 4 90 1a 46
        E 181 80 1a 00
        E 46 90 26 44
        E 240 80 26 00
        E 10 90 1a 48
        E 183 80 1a 00
        E 51 90 26 44
        E 231 80 26 00
        E 11 90 1a 48
        E 210 80 1a 00
        E 41 90 26 41
        E 211 80 26 00
        E 11 90 1a 48
        E 206 80 1a 00
        E 44 90 26 42
        E 229 80 26 00
        E 6 90 1a 47
        E 218 80 1a 00
        E 40 90 26 43
        E 211 80 26 00
        E 0 90 1a 48
        E 204 80 1a 00
        E 47 90 26 42
        E 232 80 26 00
        E 5 90 1a 46
        E 187 80 1a 00
        E 58 90 26 44
        E 226 80 26 00
        E 13 90 1a 49
        E 10585 80 1a 00
        E 960 b0 7b 00
        CCINTERP 32
        CHASE_CC_TAKEOFFS 1
        GUID {E65701EF-FDFB-0F47-A4E4-C41D70A5FFFE}
        IGNTEMPO 0 120 4 4
        SRCCOLOR 155
        VELLANE -1 100 0
        VELLANE 64 100 0
        CFGEDITVIEW 49590.964283 0.051007 69 12 0 -1 0 0 0 0.5
        KEYSNAP 0
        TRACKSEL 0
        EVTFILTER 0 -1 -1 -1 -1 0 0 0 0 -1 -1 -1 -1 0 -1 0 -1 -1
        CFGEDIT 1 1 0 1 0 0 1 1 1 1 1 0.125 0 0 1856 1055 0 0 0 0 0 0 0 0 0 0.5 0 0 1 64
      >
    >
  >
  <TRACK {A56EA646-9A84-1649-BF91-F259C0AD535C}
    NAME "Piano - pedal"
    PEAKCOL 16576
    BEAT -1
    AUTOMODE 0
    VOLPAN 1 0 -1 -1 1
    MUTESOLO 0 0 0
    IPHASE 0
    PLAYOFFS 0 1
    ISBUS 2 -1
    BUSCOMP 0 0 0 0 0
    SHOWINMIX 0 0.6667 0.5 1 0.5 0 -1 0
    FREEMODE 0
    SEL 0
    REC 0 4096 1 0 0 0 0
    VU 2
    TRACKHEIGHT 0 0 0 0 0 0
    INQ 0 0 0 0.5 100 0 0 100
    NCHAN 2
    FX 1
    TRACKID {A56EA646-9A84-1649-BF91-F259C0AD535C}
    PERF 0
    MIDIOUT -1
    MAINSEND 1 0
    <FXCHAIN
      WNDRECT 507 0 641 672
      SHOW 0
      LASTSEL 0
      DOCKED 0
      BYPASS 0 0 0
      <VST "VST: ReaControlMIDI (Cockos)" reacontrolMIDI.vst.dylib 0 "" 1919118692<56535472636D64726561636F6E74726F> ""
        ZG1jcu5e7f4AAAAAAAAAAO8AAAABAAAAAAAQAA==
        /////wAAAAAAAAAAAAAAAAkAAAAMAAAAAQAAAP8/AAAAIAAAACAAAAAAAAA+AAAAL1VzZXJzL2FuZHkvTGlicmFyeS9BcHBsaWNhdGlvbiBTdXBwb3J0L1JFQVBFUi9E
        YXRhL0dNLnJlYWJhbmsAAAAAAAAAAAAAAAAAAAAAAAAAAAAAAAAAAAAAAAAAAAAAAAABAAAAAAAAAAAAAAAAAAAAAAAAAAAAAAAAAAAAAAYAAABNYWpvcgANAAAAMTAy
        MDM0MDUwNjA3AAEAAAAAAAAAAAAAAAAKAAAADQAAAAEAAAAAAAAAAAAAAAAAAAA=
        AAAQAAAA
      >
      FLOATPOS 0 0 0 0
      FXID {F83B75F4-4D8B-9348-925B-4D0B3113213B}
      WAK 0 0
    >
    <ITEM
      POSITION 3.76030179507826
      SNAPOFFS 0
      LENGTH 118.23969820492174
      LOOP 1
      ALLTAKES 0
      FADEIN 1 0 0 1 0 0 0
      FADEOUT 1 0 0 1 0 0 0
      MUTE 0 0
      SEL 0
      IGUID {35503B8E-A8B0-B945-86AC-4E9866225B0D}
      IID 37
      NAME "05-Piano-Recorded MIDI-glued"
      VOLPAN 1 0 1 -1
      SOFFS 0 0
      PLAYRATE 1 1 0 -1 0 0.0025
      CHANMODE 0
      GUID {AB5B623B-B269-2C4B-8143-6E8C69FBA488}
      <SOURCE MIDI
        HASDATA 1 960 QN
        CCINTERP 32
        POOLEDEVTS {893EE41E-5365-5648-BF12-A7640C424466}
        E 35 b0 40 7f
        e 226985 b0 40 00
        E 49440 b0 40 00
        E 84959 b0 40 7f
        E 1 b0 7b 00
        CCINTERP 32
        CHASE_CC_TAKEOFFS 1
        GUID {EC1FD34B-799A-EF4E-8E46-4B90B6289EA4}
        IGNTEMPO 0 120 4 4
        SRCCOLOR 93
        VELLANE -1 668 0
        VELLANE 64 100 0
        CFGEDITVIEW 174435.688667 0.017297 59 11 0 -1 0 0 0 0.5
        KEYSNAP 0
        TRACKSEL 0
        EVTFILTER 0 -1 -1 -1 -1 0 0 0 0 -1 -1 -1 -1 0 -1 0 -1 -1
        CFGEDIT 1 1 0 1 0 0 1 1 1 1 1 0.125 0 0 1856 1055 0 0 0 0 0 0 0 0 0 0.5 0 0 1 64
      >
    >
  >
  <TRACK {024E9F4F-4610-164D-816C-4045E5734774}
    NAME "Synth - high - pad"
    PEAKCOL 16576
    BEAT -1
    AUTOMODE 0
    VOLPAN 0.20663638006368 0 -1 -1 1
    MUTESOLO 0 0 0
    IPHASE 0
    PLAYOFFS 0 1
    ISBUS 0 0
    BUSCOMP 0 0 0 0 0
    SHOWINMIX 1 0.6667 0.5 1 0.5 0 -1 0
    FREEMODE 0
    SEL 0
    REC 0 5088 1 0 0 0 0
    VU 2
    TRACKHEIGHT 0 0 0 0 0 0
    INQ 0 0 0 0.5 100 0 0 100
    NCHAN 6
    FX 1
    TRACKID {024E9F4F-4610-164D-816C-4045E5734774}
    PERF 0
    MIDIOUT -1
    MAINSEND 0 0
    <VOLENV2
      EGUID {AE4362ED-B90C-9440-B181-D09AA87EF247}
      ACT 1 -1
      VIS 1 1 1
      LANEHEIGHT 27 0
      ARM 1
      DEFSHAPE 0 -1 -1
      VOLTYPE 1
      PT 0 0 0
      PT 4 0 0
      PT 12 0.83176377 0
      PT 121.8980907 0.53883035 5 1
      PT 129 0.16829903 5 1
      PT 135 0 5 1 1
    >
    <FXCHAIN
      WNDRECT 653 114 1231 598
      SHOW 0
      LASTSEL 0
      DOCKED 0
      BYPASS 0 0 0
      <VST "VST3i: SubtractiveSynth (CabbageAudio)" SubtractiveSynth.vst3 0 "" 80830264{ABCDEF019182FAEB4361626230303130} ""
        OF/RBO5e7f4AAAAABgAAAAEAAAAAAAAAAgAAAAAAAAAEAAAAAAAAAAgAAAAAAAAAEAAAAAAAAAAgAAAAAAAAAJEiAAABAAAA//8QAA==
        gSIAAAEAAABWQzIhPCIAADw/eG1sIHZlcnNpb249IjEuMCIgZW5jb2Rpbmc9IlVURi04Ij8+IDxDQUJCQUdFX1BSRVNFVFM+PFBSRVNFVDAgUHJlc2V0TmFtZT0iQ0FC
        QkFHRV9QUkVTRVRTIDAiIGluc3RhbmNlTmFtZT0iIiB0cmFja0luZGV4PSIwIiBwbHVnaW5JbmRleD0iMCIgZmlyc3RfdGFiX2J1Z193b3JrYXJvdW5kX3RhYj0iMC4w
        IiBzODhfdGFiPSIwLjAiIG9zYzFfdGFiPSIwLjAiIG9zYzJfdGFiPSIwLjAiIG9zYzNfdGFiPSIxLjAiIG9zYzRfdGFiPSIwLjAiIGZpbHRlcl90YWI9IjAuMCIgYW1w
        bGl0dWRlX3RhYj0iMC4wIiBwb3NpdGlvbl90YWI9IjAuMCIgbG9nX3RhYj0iMC4wIiBTODhfa25vYl8xPSIwLjAiIFM4OF9rbm9iXzI9IjAuMCIgUzg4X2tub2JfMz0i
        MC4wIiBTODhfa25vYl80PSIwLjAiIFM4OF9rbm9iXzU9IjAuMCIgUzg4X2tub2JfNj0iMC4wIiBTODhfa25vYl83PSIwLjAiIFM4OF9rbm9iXzg9IjAuMCIgUzg4X3Bp
        dGNoYmVuZD0iMC4wIiBTODhfbW9kd2hlZWw9IjAuMCIgb3NjMUVuYWJsZWQ9IjEuMCIgb3NjMVdhdmVmb3JtU2F3PSIwLjAiIG9zYzFXYXZlZm9ybVNxdWFyZT0iMC4w
        IiBvc2MxV2F2ZWZvcm1QdWxzZT0iMS4wIiBvc2MxV2F2ZWZvcm1Ob2lzZT0iMC4wIiBvc2MxUHVsc2VXaWR0aD0iMC41IiBvc2MxUHVsc2VXaWR0aEVuYWJsZWQ9IjAu
        MCIgb3NjMVB1bHNlV2lkdGhBZHNyRW5hYmxlZD0iMC4wIiBvc2MxUHVsc2VXaWR0aEF0dGFjaz0iMC4wIiBvc2MxUHVsc2VXaWR0aERlY2F5PSIwLjAiIG9zYzFQdWxz
        ZVdpZHRoU3VzdGFpbj0iMC4wIiBvc2MxUHVsc2VXaWR0aFJlbGVhc2U9IjAuMCIgb3NjMVB1bHNlV2lkdGhMZm9FbmFibGVkPSIwLjAiIG9zYzFQdWxzZVdpZHRoTGZv
        U2hhcGU9IjEuMCIgb3NjMVB1bHNlV2lkdGhMZm9BbXBsaXR1ZGU9IjAuMCIgb3NjMVB1bHNlV2lkdGhMZm9GcmVxdWVuY3k9IjAuMCIgb3NjMVBpdGNoPSIwLjAiIG9z
        YzFQaXRjaEVuYWJsZWQ9IjAuMCIgb3NjMVBpdGNoQWRzckVuYWJsZWQ9IjAuMCIgb3NjMVBpdGNoQXR0YWNrPSIwLjAiIG9zYzFQaXRjaERlY2F5PSIwLjAiIG9zYzFQ
        aXRjaFN1c3RhaW49IjAuMCIgb3NjMVBpdGNoUmVsZWFzZT0iMC4wIiBvc2MxUGl0Y2hMZm9FbmFibGVkPSIwLjAiIG9zYzFQaXRjaExmb1NoYXBlPSIxLjAiIG9zYzFQ
        aXRjaExmb0FtcGxpdHVkZT0iMC4wIiBvc2MxUGl0Y2hMZm9GcmVxdWVuY3k9IjAuMCIgb3NjMUZpbHRlckN1dG9mZkZyZXF1ZW5jeT0iMzgxMS4wIiBvc2MxRmlsdGVy
        Q3V0b2ZmRnJlcXVlbmN5RW5hYmxlZD0iMS4wIiBvc2MxRmlsdGVyQ3V0b2ZmRnJlcXVlbmN5QWRzckVuYWJsZWQ9IjEuMCIgb3NjMUZpbHRlckN1dG9mZkZyZXF1ZW5j
        eUF0dGFjaz0iMS45NjgwMDAwNTQzNTk0MzYiIG9zYzFGaWx0ZXJDdXRvZmZGcmVxdWVuY3lEZWNheT0iMC4zMjYwMDAwMDUwMDY3OTAyIiBvc2MxRmlsdGVyQ3V0b2Zm
        RnJlcXVlbmN5U3VzdGFpbj0iMS4wIiBvc2MxRmlsdGVyQ3V0b2ZmRnJlcXVlbmN5UmVsZWFzZT0iMC4wIiBvc2MxRmlsdGVyQ3V0b2ZmRnJlcXVlbmN5TGZvRW5hYmxl
        ZD0iMC4wIiBvc2MxRmlsdGVyQ3V0b2ZmRnJlcXVlbmN5TGZvU2hhcGU9IjEuMCIgb3NjMUZpbHRlckN1dG9mZkZyZXF1ZW5jeUxmb0FtcGxpdHVkZT0iMC4wIiBvc2Mx
        RmlsdGVyQ3V0b2ZmRnJlcXVlbmN5TGZvRnJlcXVlbmN5PSIwLjAiIG9zYzFGaWx0ZXJSZXNvbmFuY2U9IjAuNTkxMDAwMDIwNTAzOTk3OCIgb3NjMUZpbHRlclJlc29u
        YW5jZUVuYWJsZWQ9IjEuMCIgb3NjMUZpbHRlclJlc29uYW5jZUFkc3JFbmFibGVkPSIxLjAiIG9zYzFGaWx0ZXJSZXNvbmFuY2VBdHRhY2s9IjYuNTgxMDAwMzI4MDYz
        OTY1IiBvc2MxRmlsdGVyUmVzb25hbmNlRGVjYXk9IjAuMCIgb3NjMUZpbHRlclJlc29uYW5jZVN1c3RhaW49IjEuMCIgb3NjMUZpbHRlclJlc29uYW5jZVJlbGVhc2U9
        IjAuMCIgb3NjMUZpbHRlclJlc29uYW5jZUxmb0VuYWJsZWQ9IjAuMCIgb3NjMUZpbHRlclJlc29uYW5jZUxmb1NoYXBlPSIxLjAiIG9zYzFGaWx0ZXJSZXNvbmFuY2VM
        Zm9BbXBsaXR1ZGU9IjAuMCIgb3NjMUZpbHRlclJlc29uYW5jZUxmb0ZyZXF1ZW5jeT0iMC4wIiBvc2MxVm9sdW1lPSIwLjIwMDAwMDAwMjk4MDIzMjIiIG9zYzFWb2x1
        bWVFbmFibGVkPSIxLjAiIG9zYzFWb2x1bWVBZHNyRW5hYmxlZD0iMS4wIiBvc2MxVm9sdW1lQXR0YWNrPSIxLjc1MDk5OTkyNzUyMDc1MiIgb3NjMVZvbHVtZURlY2F5
        PSIwLjAiIG9zYzFWb2x1bWVTdXN0YWluPSIxLjAiIG9zYzFWb2x1bWVSZWxlYXNlPSIwLjAiIG9zYzFWb2x1bWVMZm9FbmFibGVkPSIxLjAiIG9zYzFWb2x1bWVMZm9T
        aGFwZT0iMS4wIiBvc2MxVm9sdW1lTGZvQW1wbGl0dWRlPSIwLjI4NDAwMDAwOTI5ODMyNDYiIG9zYzFWb2x1bWVMZm9GcmVxdWVuY3k9IjEwLjAiIG9zYzJFbmFibGVk
        PSIxLjAiIG9zYzJXYXZlZm9ybVNhdz0iMC4wIiBvc2MyV2F2ZWZvcm1TcXVhcmU9IjEuMCIgb3NjMldhdmVmb3JtUHVsc2U9IjAuMCIgb3NjMldhdmVmb3JtTm9pc2U9
        IjAuMCIgb3NjMlB1bHNlV2lkdGg9IjAuMDA5OTk5OTk5Nzc2NDgyNTgyIiBvc2MyUHVsc2VXaWR0aEVuYWJsZWQ9IjEuMCIgb3NjMlB1bHNlV2lkdGhBZHNyRW5hYmxl
        ZD0iMC4wIiBvc2MyUHVsc2VXaWR0aEF0dGFjaz0iMC4wIiBvc2MyUHVsc2VXaWR0aERlY2F5PSIwLjAiIG9zYzJQdWxzZVdpZHRoU3VzdGFpbj0iMC4wIiBvc2MyUHVs
        c2VXaWR0aFJlbGVhc2U9IjAuMCIgb3NjMlB1bHNlV2lkdGhMZm9FbmFibGVkPSIxLjAiIG9zYzJQdWxzZVdpZHRoTGZvU2hhcGU9IjEuMCIgb3NjMlB1bHNlV2lkdGhM
        Zm9BbXBsaXR1ZGU9IjEuMCIgb3NjMlB1bHNlV2lkdGhMZm9GcmVxdWVuY3k9IjAuMDk5OTk5OTk0MDM5NTM1NTIiIG9zYzJQaXRjaD0iLTAuMDEwMDAyMTM2MjMwNDY4
        NzUiIG9zYzJQaXRjaEVuYWJsZWQ9IjEuMCIgb3NjMlBpdGNoQWRzckVuYWJsZWQ9IjAuMCIgb3NjMlBpdGNoQXR0YWNrPSIwLjAiIG9zYzJQaXRjaERlY2F5PSIwLjAi
        IG9zYzJQaXRjaFN1c3RhaW49IjAuMCIgb3NjMlBpdGNoUmVsZWFzZT0iMC4wIiBvc2MyUGl0Y2hMZm9FbmFibGVkPSIwLjAiIG9zYzJQaXRjaExmb1NoYXBlPSIxLjAi
        IG9zYzJQaXRjaExmb0FtcGxpdHVkZT0iMC4wIiBvc2MyUGl0Y2hMZm9GcmVxdWVuY3k9IjAuMCIgb3NjMkZpbHRlckN1dG9mZkZyZXF1ZW5jeT0iMjAwMDAuMCIgb3Nj
        MkZpbHRlckN1dG9mZkZyZXF1ZW5jeUVuYWJsZWQ9IjAuMCIgb3NjMkZpbHRlckN1dG9mZkZyZXF1ZW5jeUFkc3JFbmFibGVkPSIwLjAiIG9zYzJGaWx0ZXJDdXRvZmZG
        cmVxdWVuY3lBdHRhY2s9IjAuMCIgb3NjMkZpbHRlckN1dG9mZkZyZXF1ZW5jeURlY2F5PSIwLjAiIG9zYzJGaWx0ZXJDdXRvZmZGcmVxdWVuY3lTdXN0YWluPSIwLjAi
        IG9zYzJGaWx0ZXJDdXRvZmZGcmVxdWVuY3lSZWxlYXNlPSIwLjAiIG9zYzJGaWx0ZXJDdXRvZmZGcmVxdWVuY3lMZm9FbmFibGVkPSIwLjAiIG9zYzJGaWx0ZXJDdXRv
        ZmZGcmVxdWVuY3lMZm9TaGFwZT0iMS4wIiBvc2MyRmlsdGVyQ3V0b2ZmRnJlcXVlbmN5TGZvQW1wbGl0dWRlPSIwLjAiIG9zYzJGaWx0ZXJDdXRvZmZGcmVxdWVuY3lM
        Zm9GcmVxdWVuY3k9IjAuMCIgb3NjMkZpbHRlclJlc29uYW5jZT0iMC4wIiBvc2MyRmlsdGVyUmVzb25hbmNlRW5hYmxlZD0iMC4wIiBvc2MyRmlsdGVyUmVzb25hbmNl
        QWRzckVuYWJsZWQ9IjAuMCIgb3NjMkZpbHRlclJlc29uYW5jZUF0dGFjaz0iMC4wIiBvc2MyRmlsdGVyUmVzb25hbmNlRGVjYXk9IjAuMCIgb3NjMkZpbHRlclJlc29u
        YW5jZVN1c3RhaW49IjAuMCIgb3NjMkZpbHRlclJlc29uYW5jZVJlbGVhc2U9IjAuMCIgb3NjMkZpbHRlclJlc29uYW5jZUxmb0VuYWJsZWQ9IjAuMCIgb3NjMkZpbHRl
        clJlc29uYW5jZUxmb1NoYXBlPSIxLjAiIG9zYzJGaWx0ZXJSZXNvbmFuY2VMZm9BbXBsaXR1ZGU9IjAuMCIgb3NjMkZpbHRlclJlc29uYW5jZUxmb0ZyZXF1ZW5jeT0i
        MC4wIiBvc2MyVm9sdW1lPSIwLjQwMDAwMDAwNTk2MDQ2NDUiIG9zYzJWb2x1bWVFbmFibGVkPSIxLjAiIG9zYzJWb2x1bWVBZHNyRW5hYmxlZD0iMC4wIiBvc2MyVm9s
        dW1lQXR0YWNrPSIwLjAiIG9zYzJWb2x1bWVEZWNheT0iMC4wIiBvc2MyVm9sdW1lU3VzdGFpbj0iMC4wIiBvc2MyVm9sdW1lUmVsZWFzZT0iMC4wIiBvc2MyVm9sdW1l
        TGZvRW5hYmxlZD0iMC4wIiBvc2MyVm9sdW1lTGZvU2hhcGU9IjEuMCIgb3NjMlZvbHVtZUxmb0FtcGxpdHVkZT0iMC4wIiBvc2MyVm9sdW1lTGZvRnJlcXVlbmN5PSIw
        LjAiIG9zYzNFbmFibGVkPSIxLjAiIG9zYzNXYXZlZm9ybVNhdz0iMC4wIiBvc2MzV2F2ZWZvcm1TcXVhcmU9IjEuMCIgb3NjM1dhdmVmb3JtUHVsc2U9IjAuMCIgb3Nj
        M1dhdmVmb3JtTm9pc2U9IjAuMCIgb3NjM1B1bHNlV2lkdGg9IjAuNSIgb3NjM1B1bHNlV2lkdGhFbmFibGVkPSIwLjAiIG9zYzNQdWxzZVdpZHRoQWRzckVuYWJsZWQ9
        IjAuMCIgb3NjM1B1bHNlV2lkdGhBdHRhY2s9IjAuMCIgb3NjM1B1bHNlV2lkdGhEZWNheT0iMC4wIiBvc2MzUHVsc2VXaWR0aFN1c3RhaW49IjAuMCIgb3NjM1B1bHNl
        V2lkdGhSZWxlYXNlPSIwLjAiIG9zYzNQdWxzZVdpZHRoTGZvRW5hYmxlZD0iMC4wIiBvc2MzUHVsc2VXaWR0aExmb1NoYXBlPSIxLjAiIG9zYzNQdWxzZVdpZHRoTGZv
        QW1wbGl0dWRlPSIwLjAiIG9zYzNQdWxzZVdpZHRoTGZvRnJlcXVlbmN5PSIwLjA5OTk5OTk5NDAzOTUzNTUyIiBvc2MzUGl0Y2g9IjAuMDA5OTk0NTA2ODM1OTM3NSIg
        b3NjM1BpdGNoRW5hYmxlZD0iMS4wIiBvc2MzUGl0Y2hBZHNyRW5hYmxlZD0iMC4wIiBvc2MzUGl0Y2hBdHRhY2s9IjAuMCIgb3NjM1BpdGNoRGVjYXk9IjAuMCIgb3Nj
        M1BpdGNoU3VzdGFpbj0iMC4wIiBvc2MzUGl0Y2hSZWxlYXNlPSIwLjAiIG9zYzNQaXRjaExmb0VuYWJsZWQ9IjAuMCIgb3NjM1BpdGNoTGZvU2hhcGU9IjEuMCIgb3Nj
        M1BpdGNoTGZvQW1wbGl0dWRlPSIwLjAiIG9zYzNQaXRjaExmb0ZyZXF1ZW5jeT0iMC4wIiBvc2MzRmlsdGVyQ3V0b2ZmRnJlcXVlbmN5PSIyMDAwMC4wIiBvc2MzRmls
        dGVyQ3V0b2ZmRnJlcXVlbmN5RW5hYmxlZD0iMC4wIiBvc2MzRmlsdGVyQ3V0b2ZmRnJlcXVlbmN5QWRzckVuYWJsZWQ9IjAuMCIgb3NjM0ZpbHRlckN1dG9mZkZyZXF1
        ZW5jeUF0dGFjaz0iMC4wIiBvc2MzRmlsdGVyQ3V0b2ZmRnJlcXVlbmN5RGVjYXk9IjAuMCIgb3NjM0ZpbHRlckN1dG9mZkZyZXF1ZW5jeVN1c3RhaW49IjAuMCIgb3Nj
        M0ZpbHRlckN1dG9mZkZyZXF1ZW5jeVJlbGVhc2U9IjAuMCIgb3NjM0ZpbHRlckN1dG9mZkZyZXF1ZW5jeUxmb0VuYWJsZWQ9IjAuMCIgb3NjM0ZpbHRlckN1dG9mZkZy
        ZXF1ZW5jeUxmb1NoYXBlPSIxLjAiIG9zYzNGaWx0ZXJDdXRvZmZGcmVxdWVuY3lMZm9BbXBsaXR1ZGU9IjAuMCIgb3NjM0ZpbHRlckN1dG9mZkZyZXF1ZW5jeUxmb0Zy
        ZXF1ZW5jeT0iMC4wIiBvc2MzRmlsdGVyUmVzb25hbmNlPSIwLjAiIG9zYzNGaWx0ZXJSZXNvbmFuY2VFbmFibGVkPSIwLjAiIG9zYzNGaWx0ZXJSZXNvbmFuY2VBZHNy
        RW5hYmxlZD0iMC4wIiBvc2MzRmlsdGVyUmVzb25hbmNlQXR0YWNrPSIwLjAiIG9zYzNGaWx0ZXJSZXNvbmFuY2VEZWNheT0iMC4wIiBvc2MzRmlsdGVyUmVzb25hbmNl
        U3VzdGFpbj0iMC4wIiBvc2MzRmlsdGVyUmVzb25hbmNlUmVsZWFzZT0iMC4wIiBvc2MzRmlsdGVyUmVzb25hbmNlTGZvRW5hYmxlZD0iMC4wIiBvc2MzRmlsdGVyUmVz
        b25hbmNlTGZvU2hhcGU9IjEuMCIgb3NjM0ZpbHRlclJlc29uYW5jZUxmb0FtcGxpdHVkZT0iMC4wIiBvc2MzRmlsdGVyUmVzb25hbmNlTGZvRnJlcXVlbmN5PSIwLjAi
        IG9zYzNWb2x1bWU9IjAuNDAwMDAwMDA1OTYwNDY0NSIgb3NjM1ZvbHVtZUVuYWJsZWQ9IjEuMCIgb3NjM1ZvbHVtZUFkc3JFbmFibGVkPSIwLjAiIG9zYzNWb2x1bWVB
        dHRhY2s9IjAuMCIgb3NjM1ZvbHVtZURlY2F5PSIwLjAiIG9zYzNWb2x1bWVTdXN0YWluPSIwLjAiIG9zYzNWb2x1bWVSZWxlYXNlPSIwLjAiIG9zYzNWb2x1bWVMZm9F
        bmFibGVkPSIwLjAiIG9zYzNWb2x1bWVMZm9TaGFwZT0iMS4wIiBvc2MzVm9sdW1lTGZvQW1wbGl0dWRlPSIwLjAiIG9zYzNWb2x1bWVMZm9GcmVxdWVuY3k9IjAuMCIg
        b3NjNEVuYWJsZWQ9IjAuMCIgb3NjNFdhdmVmb3JtU2F3PSIxLjAiIG9zYzRXYXZlZm9ybVNxdWFyZT0iMC4wIiBvc2M0V2F2ZWZvcm1QdWxzZT0iMC4wIiBvc2M0V2F2
        ZWZvcm1Ob2lzZT0iMC4wIiBvc2M0UHVsc2VXaWR0aD0iMC41IiBvc2M0UHVsc2VXaWR0aEVuYWJsZWQ9IjAuMCIgb3NjNFB1bHNlV2lkdGhBZHNyRW5hYmxlZD0iMC4w
        IiBvc2M0UHVsc2VXaWR0aEF0dGFjaz0iMC4wIiBvc2M0UHVsc2VXaWR0aERlY2F5PSIwLjAiIG9zYzRQdWxzZVdpZHRoU3VzdGFpbj0iMC4wIiBvc2M0UHVsc2VXaWR0
        aFJlbGVhc2U9IjAuMCIgb3NjNFB1bHNlV2lkdGhMZm9FbmFibGVkPSIwLjAiIG9zYzRQdWxzZVdpZHRoTGZvU2hhcGU9IjEuMCIgb3NjNFB1bHNlV2lkdGhMZm9BbXBs
        aXR1ZGU9IjAuMCIgb3NjNFB1bHNlV2lkdGhMZm9GcmVxdWVuY3k9IjAuMCIgb3NjNFBpdGNoPSIwLjAiIG9zYzRQaXRjaEVuYWJsZWQ9IjAuMCIgb3NjNFBpdGNoQWRz
        ckVuYWJsZWQ9IjAuMCIgb3NjNFBpdGNoQXR0YWNrPSIwLjAiIG9zYzRQaXRjaERlY2F5PSIwLjAiIG9zYzRQaXRjaFN1c3RhaW49IjAuMCIgb3NjNFBpdGNoUmVsZWFz
        ZT0iMC4wIiBvc2M0UGl0Y2hMZm9FbmFibGVkPSIwLjAiIG9zYzRQaXRjaExmb1NoYXBlPSIxLjAiIG9zYzRQaXRjaExmb0FtcGxpdHVkZT0iMC4wIiBvc2M0UGl0Y2hM
        Zm9GcmVxdWVuY3k9IjAuMCIgb3NjNEZpbHRlckN1dG9mZkZyZXF1ZW5jeT0iMjAwMDAuMCIgb3NjNEZpbHRlckN1dG9mZkZyZXF1ZW5jeUVuYWJsZWQ9IjAuMCIgb3Nj
        NEZpbHRlckN1dG9mZkZyZXF1ZW5jeUFkc3JFbmFibGVkPSIwLjAiIG9zYzRGaWx0ZXJDdXRvZmZGcmVxdWVuY3lBdHRhY2s9IjAuMCIgb3NjNEZpbHRlckN1dG9mZkZy
        ZXF1ZW5jeURlY2F5PSIwLjAiIG9zYzRGaWx0ZXJDdXRvZmZGcmVxdWVuY3lTdXN0YWluPSIwLjAiIG9zYzRGaWx0ZXJDdXRvZmZGcmVxdWVuY3lSZWxlYXNlPSIwLjAi
        IG9zYzRGaWx0ZXJDdXRvZmZGcmVxdWVuY3lMZm9FbmFibGVkPSIwLjAiIG9zYzRGaWx0ZXJDdXRvZmZGcmVxdWVuY3lMZm9TaGFwZT0iMS4wIiBvc2M0RmlsdGVyQ3V0
        b2ZmRnJlcXVlbmN5TGZvQW1wbGl0dWRlPSIwLjAiIG9zYzRGaWx0ZXJDdXRvZmZGcmVxdWVuY3lMZm9GcmVxdWVuY3k9IjAuMCIgb3NjNEZpbHRlclJlc29uYW5jZT0i
        MC4wIiBvc2M0RmlsdGVyUmVzb25hbmNlRW5hYmxlZD0iMC4wIiBvc2M0RmlsdGVyUmVzb25hbmNlQWRzckVuYWJsZWQ9IjAuMCIgb3NjNEZpbHRlclJlc29uYW5jZUF0
        dGFjaz0iMC4wIiBvc2M0RmlsdGVyUmVzb25hbmNlRGVjYXk9IjAuMCIgb3NjNEZpbHRlclJlc29uYW5jZVN1c3RhaW49IjAuMCIgb3NjNEZpbHRlclJlc29uYW5jZVJl
        bGVhc2U9IjAuMCIgb3NjNEZpbHRlclJlc29uYW5jZUxmb0VuYWJsZWQ9IjAuMCIgb3NjNEZpbHRlclJlc29uYW5jZUxmb1NoYXBlPSIxLjAiIG9zYzRGaWx0ZXJSZXNv
        bmFuY2VMZm9BbXBsaXR1ZGU9IjAuMCIgb3NjNEZpbHRlclJlc29uYW5jZUxmb0ZyZXF1ZW5jeT0iMC4wIiBvc2M0Vm9sdW1lPSIxLjAiIG9zYzRWb2x1bWVFbmFibGVk
        PSIwLjAiIG9zYzRWb2x1bWVBZHNyRW5hYmxlZD0iMC4wIiBvc2M0Vm9sdW1lQXR0YWNrPSIwLjAiIG9zYzRWb2x1bWVEZWNheT0iMC4wIiBvc2M0Vm9sdW1lU3VzdGFp
        bj0iMC4wIiBvc2M0Vm9sdW1lUmVsZWFzZT0iMC4wIiBvc2M0Vm9sdW1lTGZvRW5hYmxlZD0iMC4wIiBvc2M0Vm9sdW1lTGZvU2hhcGU9IjEuMCIgb3NjNFZvbHVtZUxm
        b0FtcGxpdHVkZT0iMC4wIiBvc2M0Vm9sdW1lTGZvRnJlcXVlbmN5PSIwLjAiIGZpbHRlckVuYWJsZWQ9IjAuMCIgZmlsdGVyQ3V0b2ZmRnJlcXVlbmN5PSIyMDAwMC4w
        IiBmaWx0ZXJDdXRvZmZGcmVxdWVuY3lFbmFibGVkPSIxLjAiIGZpbHRlclJlc29uYW5jZT0iMC4wIiBmaWx0ZXJSZXNvbmFuY2VFbmFibGVkPSIxLjAiIGFtcGxpdHVk
        ZUVuYWJsZWQ9IjAuMCIgYW1wbGl0dWRlQXR0YWNrPSIwLjEwMDAwMDAwMTQ5MDExNjEiIGFtcGxpdHVkZURlY2F5PSIwLjEwMDAwMDAwMTQ5MDExNjEiIGFtcGxpdHVk
        ZVN1c3RhaW49IjAuNSIgYW1wbGl0dWRlUmVsZWFzZT0iMC4xMDAwMDAwMDE0OTAxMTYxIiBwb3NpdGlvbkVuYWJsZWQ9IjEuMCIgcG9zaXRpb25EaXN0YW5jZVR5cGU9
        IjEuMCIgcG9zaXRpb25EaXJlY3Rpb25UeXBlPSIxLjAiIHBvc2l0aW9uWFlaRW5hYmxlZD0iMS4wIiBwb3NpdGlvblg9IjAuMCIgcG9zaXRpb25ZPSIwLjg5OTk5OTk3
        NjE1ODE0MjEiIHBvc2l0aW9uQ2FydGVzaWFuWj0iMC4wIiBwb3NpdGlvblhZX3h5cGFkX2lucHV0WD0iMTUwLjAiIHBvc2l0aW9uWFlfeHlwYWRfaW5wdXRZPSIxNTAu
        MCIgcG9zaXRpb25DYXJ0ZXNpYW5aX3h5cGFkX2lucHV0WD0iMC4wIiBwb3NpdGlvbkNhcnRlc2lhblpfeHlwYWRfaW5wdXRZPSIwLjAiIHBvc2l0aW9uTWF4WFlaPSIx
        MDAuMCIgcG9zaXRpb25NYXhYWVpfdnNsaWRlcj0iMTAwLjAiIHBvc2l0aW9uUlRaRW5hYmxlZD0iMC4wIiBwb3NpdGlvblI9IjAuMCIgcG9zaXRpb25UPSIxNTguMzM3
        OTUxNjYwMTU2MiIgcG9zaXRpb25Qb2xhclo9IjAuMCIgcG9zaXRpb25SVF94eXBhZF9pbnB1dFg9IjE1MC4wIiBwb3NpdGlvblJUX3h5cGFkX2lucHV0WT0iMTUwLjAi
        IHBvc2l0aW9uUG9sYXJaX3h5cGFkX2lucHV0WD0iMC4wIiBwb3NpdGlvblBvbGFyWl94eXBhZF9pbnB1dFk9IjAuMCIgcG9zaXRpb25NYXhSWj0iMTAwLjAiIHBvc2l0
        aW9uTWF4UlpfdnNsaWRlcj0iMTAwLjAiLz48L0NBQkJBR0VfUFJFU0VUUz4AAAAAAAAAAABKVUNFUHJpdmF0ZURhdGEAAQFCeXBhc3MAAQEDAB0AAAAAAAAASlVDRVBy
        aXZhdGVEYXRhAAAAAAAAAAA=
        AAAQAAAA
      >
      FLOATPOS 892 186 1000 570
      FXID {E7CC93C8-78ED-2B4C-8CB7-877A6D4988DC}
      <PARMENV 275:275 0 1 0.5
        EGUID {BC6973E1-769E-9C45-A959-C82C68BFA232}
        ACT 1 -1
        VIS 1 1 1
        LANEHEIGHT 27 0
        ARM 1
        DEFSHAPE 0 -1 -1
        PT 0 0.95 0
        PT 48 0.915 0 0 1
        PT 121.8980907 0.75 0
      >
      WAK 0 0
    >
    <ITEM
      POSITION 0
      SNAPOFFS 0
      LENGTH 145
      LOOP 1
      ALLTAKES 0
      FADEIN 1 0 0 1 0 0 0
      FADEOUT 1 0 0 1 0 0 0
      MUTE 0 0
      SEL 0
      IGUID {2F580619-3463-C74B-ABFB-D33D8EFF7A1B}
      IID 87
      NAME "14-Synth - lead - 1-Recorded MIDI-glued"
      VOLPAN 1 0 1 -1
      SOFFS 0 0
      PLAYRATE 1 1 0 -1 0 0.0025
      CHANMODE 0
      GUID {7D57801B-810F-EB42-BB34-C2B97392C223}
      <SOURCE MIDI
        HASDATA 1 960 QN
        CCINTERP 32
        POOLEDEVTS {20406A56-D5AD-B442-A8F9-372F25CD7A9B}
        e 7556 90 51 30
        e 8 90 5a 20
        e 3 90 4a 40
        e 268905 80 51 33
        e 8 80 5a 40
        e 32 80 4a 22
        E 1888 b0 7b 00
        CCINTERP 32
        CHASE_CC_TAKEOFFS 1
        GUID {A3DEB823-0E16-E643-91B6-F09CD9304F4A}
        IGNTEMPO 0 120 4 4
        SRCCOLOR 169
        VELLANE -1 337 0
        VELLANE 64 100 0
        CFGEDITVIEW 0 0.002795 29 12 0 -1 0 0 0 0.5
        KEYSNAP 0
        TRACKSEL 0
        EVTFILTER 0 -1 -1 -1 -1 0 0 0 0 -1 -1 -1 -1 0 -1 0 -1 -1
        CFGEDIT 1 1 0 1 0 0 1 1 1 1 1 0.125 0 0 1856 1055 0 0 0 0 0 0 0 0 0 0.5 0 0 1 64
      >
    >
  >
  <TRACK {06610B67-7339-FF4E-8347-A1C361E19593}
    NAME "Synth - high"
    PEAKCOL 16576
    BEAT -1
    AUTOMODE 0
    VOLPAN 2.05141348927034 0 -1 -1 1
    MUTESOLO 0 0 0
    IPHASE 0
    PLAYOFFS 0 1
    ISBUS 0 0
    BUSCOMP 0 0 0 0 0
    SHOWINMIX 1 0.6667 0.5 1 0.5 0 -1 0
    FREEMODE 0
    SEL 0
    REC 0 5088 1 0 0 0 0
    VU 2
    TRACKHEIGHT 0 0 0 0 0 0
    INQ 0 0 0 0.5 100 0 0 100
    NCHAN 6
    FX 1
    TRACKID {06610B67-7339-FF4E-8347-A1C361E19593}
    PERF 0
    MIDIOUT -1
    MAINSEND 0 0
    <FXCHAIN
      WNDRECT 689 482 1231 598
      SHOW 0
      LASTSEL 0
      DOCKED 0
      BYPASS 0 0 0
      <VST "VST3i: SubtractiveSynth (CabbageAudio)" SubtractiveSynth.vst3 0 "" 80830264{ABCDEF019182FAEB4361626230303130} ""
        OF/RBO5e7f4AAAAABgAAAAEAAAAAAAAAAgAAAAAAAAAEAAAAAAAAAAgAAAAAAAAAEAAAAAAAAAAgAAAAAAAAAFgjAAABAAAA//8QAA==
        SCMAAAEAAABWQzIhAyMAADw/eG1sIHZlcnNpb249IjEuMCIgZW5jb2Rpbmc9IlVURi04Ij8+IDxDQUJCQUdFX1BSRVNFVFM+PFBSRVNFVDAgUHJlc2V0TmFtZT0iQ0FC
        QkFHRV9QUkVTRVRTIDAiIGluc3RhbmNlTmFtZT0iIiB0cmFja0luZGV4PSIxIiBwbHVnaW5JbmRleD0iMCIgZmlyc3RfdGFiX2J1Z193b3JrYXJvdW5kX3RhYj0iMC4w
        IiBzODhfdGFiPSIwLjAiIG9zYzFfdGFiPSIwLjAiIG9zYzJfdGFiPSIwLjAiIG9zYzNfdGFiPSIwLjAiIG9zYzRfdGFiPSIwLjAiIGZpbHRlcl90YWI9IjEuMCIgYW1w
        bGl0dWRlX3RhYj0iMC4wIiBwb3NpdGlvbl90YWI9IjAuMCIgbG9nX3RhYj0iMC4wIiBTODhfa25vYl8xPSIwLjAiIFM4OF9rbm9iXzI9IjAuMCIgUzg4X2tub2JfMz0i
        MC4wIiBTODhfa25vYl80PSIwLjAiIFM4OF9rbm9iXzU9IjAuMCIgUzg4X2tub2JfNj0iMC4wIiBTODhfa25vYl83PSIwLjAiIFM4OF9rbm9iXzg9IjAuMCIgUzg4X3Bp
        dGNoYmVuZD0iMC4wIiBTODhfbW9kd2hlZWw9IjAuMCIgb3NjMUVuYWJsZWQ9IjEuMCIgb3NjMVdhdmVmb3JtU2F3PSIwLjAiIG9zYzFXYXZlZm9ybVNxdWFyZT0iMS4w
        IiBvc2MxV2F2ZWZvcm1QdWxzZT0iMC4wIiBvc2MxV2F2ZWZvcm1Ob2lzZT0iMC4wIiBvc2MxUHVsc2VXaWR0aD0iMC45OTAwMDAwMDk1MzY3NDMyIiBvc2MxUHVsc2VX
        aWR0aEVuYWJsZWQ9IjEuMCIgb3NjMVB1bHNlV2lkdGhBZHNyRW5hYmxlZD0iMC4wIiBvc2MxUHVsc2VXaWR0aEF0dGFjaz0iMC4wIiBvc2MxUHVsc2VXaWR0aERlY2F5
        PSIwLjAiIG9zYzFQdWxzZVdpZHRoU3VzdGFpbj0iMC4wIiBvc2MxUHVsc2VXaWR0aFJlbGVhc2U9IjAuMCIgb3NjMVB1bHNlV2lkdGhMZm9FbmFibGVkPSIxLjAiIG9z
        YzFQdWxzZVdpZHRoTGZvU2hhcGU9IjEuMCIgb3NjMVB1bHNlV2lkdGhMZm9BbXBsaXR1ZGU9IjEuMCIgb3NjMVB1bHNlV2lkdGhMZm9GcmVxdWVuY3k9IjAuMDk5OTk5
        OTk0MDM5NTM1NTIiIG9zYzFQaXRjaD0iMC4wIiBvc2MxUGl0Y2hFbmFibGVkPSIwLjAiIG9zYzFQaXRjaEFkc3JFbmFibGVkPSIwLjAiIG9zYzFQaXRjaEF0dGFjaz0i
        MC4wIiBvc2MxUGl0Y2hEZWNheT0iMC4wIiBvc2MxUGl0Y2hTdXN0YWluPSIwLjAiIG9zYzFQaXRjaFJlbGVhc2U9IjAuMCIgb3NjMVBpdGNoTGZvRW5hYmxlZD0iMC4w
        IiBvc2MxUGl0Y2hMZm9TaGFwZT0iMS4wIiBvc2MxUGl0Y2hMZm9BbXBsaXR1ZGU9IjAuMCIgb3NjMVBpdGNoTGZvRnJlcXVlbmN5PSIwLjAiIG9zYzFGaWx0ZXJDdXRv
        ZmZGcmVxdWVuY3k9Ijk5NzAuMCIgb3NjMUZpbHRlckN1dG9mZkZyZXF1ZW5jeUVuYWJsZWQ9IjEuMCIgb3NjMUZpbHRlckN1dG9mZkZyZXF1ZW5jeUFkc3JFbmFibGVk
        PSIwLjAiIG9zYzFGaWx0ZXJDdXRvZmZGcmVxdWVuY3lBdHRhY2s9IjAuMCIgb3NjMUZpbHRlckN1dG9mZkZyZXF1ZW5jeURlY2F5PSIwLjAiIG9zYzFGaWx0ZXJDdXRv
        ZmZGcmVxdWVuY3lTdXN0YWluPSIwLjAiIG9zYzFGaWx0ZXJDdXRvZmZGcmVxdWVuY3lSZWxlYXNlPSIwLjAiIG9zYzFGaWx0ZXJDdXRvZmZGcmVxdWVuY3lMZm9FbmFi
        bGVkPSIwLjAiIG9zYzFGaWx0ZXJDdXRvZmZGcmVxdWVuY3lMZm9TaGFwZT0iMS4wIiBvc2MxRmlsdGVyQ3V0b2ZmRnJlcXVlbmN5TGZvQW1wbGl0dWRlPSIwLjAiIG9z
        YzFGaWx0ZXJDdXRvZmZGcmVxdWVuY3lMZm9GcmVxdWVuY3k9IjAuMCIgb3NjMUZpbHRlclJlc29uYW5jZT0iMC4wIiBvc2MxRmlsdGVyUmVzb25hbmNlRW5hYmxlZD0i
        MC4wIiBvc2MxRmlsdGVyUmVzb25hbmNlQWRzckVuYWJsZWQ9IjAuMCIgb3NjMUZpbHRlclJlc29uYW5jZUF0dGFjaz0iMC4wIiBvc2MxRmlsdGVyUmVzb25hbmNlRGVj
        YXk9IjAuMCIgb3NjMUZpbHRlclJlc29uYW5jZVN1c3RhaW49IjAuMCIgb3NjMUZpbHRlclJlc29uYW5jZVJlbGVhc2U9IjAuMCIgb3NjMUZpbHRlclJlc29uYW5jZUxm
        b0VuYWJsZWQ9IjAuMCIgb3NjMUZpbHRlclJlc29uYW5jZUxmb1NoYXBlPSIxLjAiIG9zYzFGaWx0ZXJSZXNvbmFuY2VMZm9BbXBsaXR1ZGU9IjAuMCIgb3NjMUZpbHRl
        clJlc29uYW5jZUxmb0ZyZXF1ZW5jeT0iMC4wIiBvc2MxVm9sdW1lPSIwLjUiIG9zYzFWb2x1bWVFbmFibGVkPSIxLjAiIG9zYzFWb2x1bWVBZHNyRW5hYmxlZD0iMS4w
        IiBvc2MxVm9sdW1lQXR0YWNrPSIwLjAwNTAwMDAwMDM1MzkwMjU3OCIgb3NjMVZvbHVtZURlY2F5PSIwLjc1IiBvc2MxVm9sdW1lU3VzdGFpbj0iMC4wIiBvc2MxVm9s
        dW1lUmVsZWFzZT0iMC4wOTk5OTk5OTQwMzk1MzU1MiIgb3NjMVZvbHVtZUxmb0VuYWJsZWQ9IjAuMCIgb3NjMVZvbHVtZUxmb1NoYXBlPSIxLjAiIG9zYzFWb2x1bWVM
        Zm9BbXBsaXR1ZGU9IjAuMCIgb3NjMVZvbHVtZUxmb0ZyZXF1ZW5jeT0iMC4wIiBvc2MyRW5hYmxlZD0iMS4wIiBvc2MyV2F2ZWZvcm1TYXc9IjAuMCIgb3NjMldhdmVm
        b3JtU3F1YXJlPSIxLjAiIG9zYzJXYXZlZm9ybVB1bHNlPSIwLjAiIG9zYzJXYXZlZm9ybU5vaXNlPSIwLjAiIG9zYzJQdWxzZVdpZHRoPSIwLjk5MDAwMDAwOTUzNjc0
        MzIiIG9zYzJQdWxzZVdpZHRoRW5hYmxlZD0iMS4wIiBvc2MyUHVsc2VXaWR0aEFkc3JFbmFibGVkPSIwLjAiIG9zYzJQdWxzZVdpZHRoQXR0YWNrPSIwLjAiIG9zYzJQ
        dWxzZVdpZHRoRGVjYXk9IjAuMCIgb3NjMlB1bHNlV2lkdGhTdXN0YWluPSIwLjAiIG9zYzJQdWxzZVdpZHRoUmVsZWFzZT0iMC4wIiBvc2MyUHVsc2VXaWR0aExmb0Vu
        YWJsZWQ9IjEuMCIgb3NjMlB1bHNlV2lkdGhMZm9TaGFwZT0iMS4wIiBvc2MyUHVsc2VXaWR0aExmb0FtcGxpdHVkZT0iMS4wIiBvc2MyUHVsc2VXaWR0aExmb0ZyZXF1
        ZW5jeT0iMC4wOTk5OTk5OTQwMzk1MzU1MiIgb3NjMlBpdGNoPSIwLjAiIG9zYzJQaXRjaEVuYWJsZWQ9IjAuMCIgb3NjMlBpdGNoQWRzckVuYWJsZWQ9IjAuMCIgb3Nj
        MlBpdGNoQXR0YWNrPSIwLjAiIG9zYzJQaXRjaERlY2F5PSIwLjAiIG9zYzJQaXRjaFN1c3RhaW49IjAuMCIgb3NjMlBpdGNoUmVsZWFzZT0iMC4wIiBvc2MyUGl0Y2hM
        Zm9FbmFibGVkPSIwLjAiIG9zYzJQaXRjaExmb1NoYXBlPSIxLjAiIG9zYzJQaXRjaExmb0FtcGxpdHVkZT0iMC4wIiBvc2MyUGl0Y2hMZm9GcmVxdWVuY3k9IjAuMCIg
        b3NjMkZpbHRlckN1dG9mZkZyZXF1ZW5jeT0iMjAwMDAuMCIgb3NjMkZpbHRlckN1dG9mZkZyZXF1ZW5jeUVuYWJsZWQ9IjAuMCIgb3NjMkZpbHRlckN1dG9mZkZyZXF1
        ZW5jeUFkc3JFbmFibGVkPSIwLjAiIG9zYzJGaWx0ZXJDdXRvZmZGcmVxdWVuY3lBdHRhY2s9IjAuMCIgb3NjMkZpbHRlckN1dG9mZkZyZXF1ZW5jeURlY2F5PSIwLjAi
        IG9zYzJGaWx0ZXJDdXRvZmZGcmVxdWVuY3lTdXN0YWluPSIwLjAiIG9zYzJGaWx0ZXJDdXRvZmZGcmVxdWVuY3lSZWxlYXNlPSIwLjAiIG9zYzJGaWx0ZXJDdXRvZmZG
        cmVxdWVuY3lMZm9FbmFibGVkPSIwLjAiIG9zYzJGaWx0ZXJDdXRvZmZGcmVxdWVuY3lMZm9TaGFwZT0iMS4wIiBvc2MyRmlsdGVyQ3V0b2ZmRnJlcXVlbmN5TGZvQW1w
        bGl0dWRlPSIwLjAiIG9zYzJGaWx0ZXJDdXRvZmZGcmVxdWVuY3lMZm9GcmVxdWVuY3k9IjAuMCIgb3NjMkZpbHRlclJlc29uYW5jZT0iMC4wIiBvc2MyRmlsdGVyUmVz
        b25hbmNlRW5hYmxlZD0iMC4wIiBvc2MyRmlsdGVyUmVzb25hbmNlQWRzckVuYWJsZWQ9IjAuMCIgb3NjMkZpbHRlclJlc29uYW5jZUF0dGFjaz0iMC4wIiBvc2MyRmls
        dGVyUmVzb25hbmNlRGVjYXk9IjAuMCIgb3NjMkZpbHRlclJlc29uYW5jZVN1c3RhaW49IjAuMCIgb3NjMkZpbHRlclJlc29uYW5jZVJlbGVhc2U9IjAuMCIgb3NjMkZp
        bHRlclJlc29uYW5jZUxmb0VuYWJsZWQ9IjAuMCIgb3NjMkZpbHRlclJlc29uYW5jZUxmb1NoYXBlPSIxLjAiIG9zYzJGaWx0ZXJSZXNvbmFuY2VMZm9BbXBsaXR1ZGU9
        IjAuMCIgb3NjMkZpbHRlclJlc29uYW5jZUxmb0ZyZXF1ZW5jeT0iMC4wIiBvc2MyVm9sdW1lPSIwLjEwMDAwMDAwMTQ5MDExNjEiIG9zYzJWb2x1bWVFbmFibGVkPSIx
        LjAiIG9zYzJWb2x1bWVBZHNyRW5hYmxlZD0iMS4wIiBvc2MyVm9sdW1lQXR0YWNrPSIwLjAwNTAwMDAwMDM1MzkwMjU3OCIgb3NjMlZvbHVtZURlY2F5PSIyLjAiIG9z
        YzJWb2x1bWVTdXN0YWluPSIwLjAiIG9zYzJWb2x1bWVSZWxlYXNlPSIwLjAxMDAwMDAwMDcwNzgwNTE2IiBvc2MyVm9sdW1lTGZvRW5hYmxlZD0iMC4wIiBvc2MyVm9s
        dW1lTGZvU2hhcGU9IjEuMCIgb3NjMlZvbHVtZUxmb0FtcGxpdHVkZT0iMC4wIiBvc2MyVm9sdW1lTGZvRnJlcXVlbmN5PSIwLjAiIG9zYzNFbmFibGVkPSIxLjAiIG9z
        YzNXYXZlZm9ybVNhdz0iMC4wIiBvc2MzV2F2ZWZvcm1TcXVhcmU9IjEuMCIgb3NjM1dhdmVmb3JtUHVsc2U9IjAuMCIgb3NjM1dhdmVmb3JtTm9pc2U9IjAuMCIgb3Nj
        M1B1bHNlV2lkdGg9IjAuOTkwMDAwMDA5NTM2NzQzMiIgb3NjM1B1bHNlV2lkdGhFbmFibGVkPSIxLjAiIG9zYzNQdWxzZVdpZHRoQWRzckVuYWJsZWQ9IjAuMCIgb3Nj
        M1B1bHNlV2lkdGhBdHRhY2s9IjAuMCIgb3NjM1B1bHNlV2lkdGhEZWNheT0iMC4wIiBvc2MzUHVsc2VXaWR0aFN1c3RhaW49IjAuMCIgb3NjM1B1bHNlV2lkdGhSZWxl
        YXNlPSIwLjAiIG9zYzNQdWxzZVdpZHRoTGZvRW5hYmxlZD0iMS4wIiBvc2MzUHVsc2VXaWR0aExmb1NoYXBlPSIxLjAiIG9zYzNQdWxzZVdpZHRoTGZvQW1wbGl0dWRl
        PSIxLjAiIG9zYzNQdWxzZVdpZHRoTGZvRnJlcXVlbmN5PSIwLjA5OTk5OTk5NDAzOTUzNTUyIiBvc2MzUGl0Y2g9IjAuMCIgb3NjM1BpdGNoRW5hYmxlZD0iMC4wIiBv
        c2MzUGl0Y2hBZHNyRW5hYmxlZD0iMC4wIiBvc2MzUGl0Y2hBdHRhY2s9IjAuMCIgb3NjM1BpdGNoRGVjYXk9IjAuMCIgb3NjM1BpdGNoU3VzdGFpbj0iMC4wIiBvc2Mz
        UGl0Y2hSZWxlYXNlPSIwLjAiIG9zYzNQaXRjaExmb0VuYWJsZWQ9IjAuMCIgb3NjM1BpdGNoTGZvU2hhcGU9IjEuMCIgb3NjM1BpdGNoTGZvQW1wbGl0dWRlPSIwLjAi
        IG9zYzNQaXRjaExmb0ZyZXF1ZW5jeT0iMC4wIiBvc2MzRmlsdGVyQ3V0b2ZmRnJlcXVlbmN5PSIyMDAwMC4wIiBvc2MzRmlsdGVyQ3V0b2ZmRnJlcXVlbmN5RW5hYmxl
        ZD0iMC4wIiBvc2MzRmlsdGVyQ3V0b2ZmRnJlcXVlbmN5QWRzckVuYWJsZWQ9IjAuMCIgb3NjM0ZpbHRlckN1dG9mZkZyZXF1ZW5jeUF0dGFjaz0iMC4wIiBvc2MzRmls
        dGVyQ3V0b2ZmRnJlcXVlbmN5RGVjYXk9IjAuMCIgb3NjM0ZpbHRlckN1dG9mZkZyZXF1ZW5jeVN1c3RhaW49IjAuMCIgb3NjM0ZpbHRlckN1dG9mZkZyZXF1ZW5jeVJl
        bGVhc2U9IjAuMCIgb3NjM0ZpbHRlckN1dG9mZkZyZXF1ZW5jeUxmb0VuYWJsZWQ9IjAuMCIgb3NjM0ZpbHRlckN1dG9mZkZyZXF1ZW5jeUxmb1NoYXBlPSIxLjAiIG9z
        YzNGaWx0ZXJDdXRvZmZGcmVxdWVuY3lMZm9BbXBsaXR1ZGU9IjAuMCIgb3NjM0ZpbHRlckN1dG9mZkZyZXF1ZW5jeUxmb0ZyZXF1ZW5jeT0iMC4wIiBvc2MzRmlsdGVy
        UmVzb25hbmNlPSIwLjAiIG9zYzNGaWx0ZXJSZXNvbmFuY2VFbmFibGVkPSIwLjAiIG9zYzNGaWx0ZXJSZXNvbmFuY2VBZHNyRW5hYmxlZD0iMC4wIiBvc2MzRmlsdGVy
        UmVzb25hbmNlQXR0YWNrPSIwLjAiIG9zYzNGaWx0ZXJSZXNvbmFuY2VEZWNheT0iMC4wIiBvc2MzRmlsdGVyUmVzb25hbmNlU3VzdGFpbj0iMC4wIiBvc2MzRmlsdGVy
        UmVzb25hbmNlUmVsZWFzZT0iMC4wIiBvc2MzRmlsdGVyUmVzb25hbmNlTGZvRW5hYmxlZD0iMC4wIiBvc2MzRmlsdGVyUmVzb25hbmNlTGZvU2hhcGU9IjEuMCIgb3Nj
        M0ZpbHRlclJlc29uYW5jZUxmb0FtcGxpdHVkZT0iMC4wIiBvc2MzRmlsdGVyUmVzb25hbmNlTGZvRnJlcXVlbmN5PSIwLjAiIG9zYzNWb2x1bWU9IjAuMTAwMDAwMDAx
        NDkwMTE2MSIgb3NjM1ZvbHVtZUVuYWJsZWQ9IjEuMCIgb3NjM1ZvbHVtZUFkc3JFbmFibGVkPSIxLjAiIG9zYzNWb2x1bWVBdHRhY2s9IjAuMDA1MDAwMDAwMzUzOTAy
        NTc4IiBvc2MzVm9sdW1lRGVjYXk9IjEwLjAiIG9zYzNWb2x1bWVTdXN0YWluPSIwLjAiIG9zYzNWb2x1bWVSZWxlYXNlPSIwLjAxMDAwMDAwMDcwNzgwNTE2IiBvc2Mz
        Vm9sdW1lTGZvRW5hYmxlZD0iMC4wIiBvc2MzVm9sdW1lTGZvU2hhcGU9IjEuMCIgb3NjM1ZvbHVtZUxmb0FtcGxpdHVkZT0iMC4wIiBvc2MzVm9sdW1lTGZvRnJlcXVl
        bmN5PSIwLjAiIG9zYzRFbmFibGVkPSIxLjAiIG9zYzRXYXZlZm9ybVNhdz0iMC4wIiBvc2M0V2F2ZWZvcm1TcXVhcmU9IjEuMCIgb3NjNFdhdmVmb3JtUHVsc2U9IjAu
        MCIgb3NjNFdhdmVmb3JtTm9pc2U9IjAuMCIgb3NjNFB1bHNlV2lkdGg9IjAuOTkwMDAwMDA5NTM2NzQzMiIgb3NjNFB1bHNlV2lkdGhFbmFibGVkPSIxLjAiIG9zYzRQ
        dWxzZVdpZHRoQWRzckVuYWJsZWQ9IjAuMCIgb3NjNFB1bHNlV2lkdGhBdHRhY2s9IjAuMCIgb3NjNFB1bHNlV2lkdGhEZWNheT0iMC4wIiBvc2M0UHVsc2VXaWR0aFN1
        c3RhaW49IjAuMCIgb3NjNFB1bHNlV2lkdGhSZWxlYXNlPSIwLjAiIG9zYzRQdWxzZVdpZHRoTGZvRW5hYmxlZD0iMS4wIiBvc2M0UHVsc2VXaWR0aExmb1NoYXBlPSIx
        LjAiIG9zYzRQdWxzZVdpZHRoTGZvQW1wbGl0dWRlPSIxLjAiIG9zYzRQdWxzZVdpZHRoTGZvRnJlcXVlbmN5PSIwLjA5OTk5OTk5NDAzOTUzNTUyIiBvc2M0UGl0Y2g9
        IjAuMCIgb3NjNFBpdGNoRW5hYmxlZD0iMC4wIiBvc2M0UGl0Y2hBZHNyRW5hYmxlZD0iMC4wIiBvc2M0UGl0Y2hBdHRhY2s9IjAuMCIgb3NjNFBpdGNoRGVjYXk9IjAu
        MCIgb3NjNFBpdGNoU3VzdGFpbj0iMC4wIiBvc2M0UGl0Y2hSZWxlYXNlPSIwLjAiIG9zYzRQaXRjaExmb0VuYWJsZWQ9IjAuMCIgb3NjNFBpdGNoTGZvU2hhcGU9IjEu
        MCIgb3NjNFBpdGNoTGZvQW1wbGl0dWRlPSIwLjAiIG9zYzRQaXRjaExmb0ZyZXF1ZW5jeT0iMC4wIiBvc2M0RmlsdGVyQ3V0b2ZmRnJlcXVlbmN5PSIyMDAwMC4wIiBv
        c2M0RmlsdGVyQ3V0b2ZmRnJlcXVlbmN5RW5hYmxlZD0iMC4wIiBvc2M0RmlsdGVyQ3V0b2ZmRnJlcXVlbmN5QWRzckVuYWJsZWQ9IjAuMCIgb3NjNEZpbHRlckN1dG9m
        ZkZyZXF1ZW5jeUF0dGFjaz0iMC4wIiBvc2M0RmlsdGVyQ3V0b2ZmRnJlcXVlbmN5RGVjYXk9IjAuMCIgb3NjNEZpbHRlckN1dG9mZkZyZXF1ZW5jeVN1c3RhaW49IjAu
        MCIgb3NjNEZpbHRlckN1dG9mZkZyZXF1ZW5jeVJlbGVhc2U9IjAuMCIgb3NjNEZpbHRlckN1dG9mZkZyZXF1ZW5jeUxmb0VuYWJsZWQ9IjAuMCIgb3NjNEZpbHRlckN1
        dG9mZkZyZXF1ZW5jeUxmb1NoYXBlPSIxLjAiIG9zYzRGaWx0ZXJDdXRvZmZGcmVxdWVuY3lMZm9BbXBsaXR1ZGU9IjAuMCIgb3NjNEZpbHRlckN1dG9mZkZyZXF1ZW5j
        eUxmb0ZyZXF1ZW5jeT0iMC4wIiBvc2M0RmlsdGVyUmVzb25hbmNlPSIwLjAiIG9zYzRGaWx0ZXJSZXNvbmFuY2VFbmFibGVkPSIwLjAiIG9zYzRGaWx0ZXJSZXNvbmFu
        Y2VBZHNyRW5hYmxlZD0iMC4wIiBvc2M0RmlsdGVyUmVzb25hbmNlQXR0YWNrPSIwLjAiIG9zYzRGaWx0ZXJSZXNvbmFuY2VEZWNheT0iMC4wIiBvc2M0RmlsdGVyUmVz
        b25hbmNlU3VzdGFpbj0iMC4wIiBvc2M0RmlsdGVyUmVzb25hbmNlUmVsZWFzZT0iMC4wIiBvc2M0RmlsdGVyUmVzb25hbmNlTGZvRW5hYmxlZD0iMC4wIiBvc2M0Rmls
        dGVyUmVzb25hbmNlTGZvU2hhcGU9IjEuMCIgb3NjNEZpbHRlclJlc29uYW5jZUxmb0FtcGxpdHVkZT0iMC4wIiBvc2M0RmlsdGVyUmVzb25hbmNlTGZvRnJlcXVlbmN5
        PSIwLjAiIG9zYzRWb2x1bWU9IjAuMTAwMDAwMDAxNDkwMTE2MSIgb3NjNFZvbHVtZUVuYWJsZWQ9IjEuMCIgb3NjNFZvbHVtZUFkc3JFbmFibGVkPSIxLjAiIG9zYzRW
        b2x1bWVBdHRhY2s9IjAuMDA1MDAwMDAwMzUzOTAyNTc4IiBvc2M0Vm9sdW1lRGVjYXk9IjAuMCIgb3NjNFZvbHVtZVN1c3RhaW49IjAuMTAwMDAwMDAxNDkwMTE2MSIg
        b3NjNFZvbHVtZVJlbGVhc2U9IjAuMDEwMDAwMDAwNzA3ODA1MTYiIG9zYzRWb2x1bWVMZm9FbmFibGVkPSIwLjAiIG9zYzRWb2x1bWVMZm9TaGFwZT0iMS4wIiBvc2M0
        Vm9sdW1lTGZvQW1wbGl0dWRlPSIwLjAiIG9zYzRWb2x1bWVMZm9GcmVxdWVuY3k9IjAuMCIgZmlsdGVyRW5hYmxlZD0iMS4wIiBmaWx0ZXJDdXRvZmZGcmVxdWVuY3k9
        IjkwMDAuMCIgZmlsdGVyQ3V0b2ZmRnJlcXVlbmN5RW5hYmxlZD0iMS4wIiBmaWx0ZXJSZXNvbmFuY2U9IjAuNzEyMDAwMDEyMzk3NzY2MSIgZmlsdGVyUmVzb25hbmNl
        RW5hYmxlZD0iMS4wIiBhbXBsaXR1ZGVFbmFibGVkPSIwLjAiIGFtcGxpdHVkZUF0dGFjaz0iMC4wOTk5OTk5OTQwMzk1MzU1MiIgYW1wbGl0dWRlRGVjYXk9IjAuMTAw
        MDAwMDAxNDkwMTE2MSIgYW1wbGl0dWRlU3VzdGFpbj0iMC41IiBhbXBsaXR1ZGVSZWxlYXNlPSIwLjEwMDAwMDAwMTQ5MDExNjEiIHBvc2l0aW9uRW5hYmxlZD0iMS4w
        IiBwb3NpdGlvbkRpc3RhbmNlVHlwZT0iMS4wIiBwb3NpdGlvbkRpcmVjdGlvblR5cGU9IjEuMCIgcG9zaXRpb25YWVpFbmFibGVkPSIxLjAiIHBvc2l0aW9uWD0iMC4w
        IiBwb3NpdGlvblk9IjAuMCIgcG9zaXRpb25DYXJ0ZXNpYW5aPSIwLjEwMDAwMDAyMzg0MTg1NzkiIHBvc2l0aW9uWFlfeHlwYWRfaW5wdXRYPSIxNTEuNDAxODQwMjA5
        OTYwOSIgcG9zaXRpb25YWV94eXBhZF9pbnB1dFk9IjE4Ni4yMjY2NjkzMTE1MjM0IiBwb3NpdGlvbkNhcnRlc2lhblpfeHlwYWRfaW5wdXRYPSIwLjAiIHBvc2l0aW9u
        Q2FydGVzaWFuWl94eXBhZF9pbnB1dFk9IjAuMCIgcG9zaXRpb25NYXhYWVo9IjEwMC4wIiBwb3NpdGlvbk1heFhZWl92c2xpZGVyPSIxMDAuMCIgcG9zaXRpb25SVFpF
        bmFibGVkPSIxLjAiIHBvc2l0aW9uUj0iMC45MDAwMDAwOTUzNjc0MzE2IiBwb3NpdGlvblQ9IjcuNzczNjM1ODY0MjU3ODEyIiBwb3NpdGlvblBvbGFyWj0iLTAuMDY3
        NjI5ODczNzUyNTkzOTkiIHBvc2l0aW9uUlRfeHlwYWRfaW5wdXRYPSIxNTAuNDAwNTEyNjk1MzEyNSIgcG9zaXRpb25SVF94eXBhZF9pbnB1dFk9IjIxMS4zNjY1OTI0
        MDcyMjY2IiBwb3NpdGlvblBvbGFyWl94eXBhZF9pbnB1dFg9IjAuMCIgcG9zaXRpb25Qb2xhclpfeHlwYWRfaW5wdXRZPSIwLjAiIHBvc2l0aW9uTWF4Ulo9IjEwMC4w
        IiBwb3NpdGlvbk1heFJaX3ZzbGlkZXI9IjEwMC4wIi8+PC9DQUJCQUdFX1BSRVNFVFM+AAAAAAAAAAAASlVDRVByaXZhdGVEYXRhAAEBQnlwYXNzAAEBAwAdAAAAAAAA
        AEpVQ0VQcml2YXRlRGF0YQAAAAAAAAAA
        AAAQAAAA
      >
      FLOATPOS 900 181 1000 570
      FXID {9DCEF1B5-DDA4-3546-A768-BFC162482762}
      <PARMENV 284:284 0 1 0.5
        EGUID {DDF82433-B8B2-5B47-B25B-B69905118F1F}
        ACT 1 -1
        VIS 1 1 1
        LANEHEIGHT 0 0
        ARM 0
        DEFSHAPE 0 -1 -1
        PT 0 0.95000002 0 0 1
        PT 92.5 0.95000002 0 0 1
        PT 122 0.75000002 0 0 1
      >
      <PARMENV 285:285 0 1 0.5
        EGUID {8CD398D5-4B5D-964A-AB0E-625528739058}
        ACT 1 -1
        VIS 1 1 1
        LANEHEIGHT 0 0
        ARM 0
        DEFSHAPE 0 -1 -1
        PT 0 0 0
      >
      <PROGRAMENV 285:285 0
        PARAMBASE 0
        LFO 1
        LFOWT 1 1
        AUDIOCTL 0
        AUDIOCTLWT 1 1
        LFOSHAPE 2
        LFOSYNC 0 0 0
        LFOSPEED 0.012018 0.28
        MODWND 0 810 589 1197 974
      >
      <PARMENV 286:286 0 1 0.5
        EGUID {44BF8079-8CA9-184A-975A-0ED33F088D47}
        ACT 1 -1
        VIS 1 1 1
        LANEHEIGHT 0 0
        ARM 0
        DEFSHAPE 0 -1 -1
        PT 0 0.5 0
      >
      <PROGRAMENV 286:286 0
        PARAMBASE 0
        LFO 1
        LFOWT 0.5 0
        AUDIOCTL 0
        AUDIOCTLWT 1 1
        LFOSHAPE 0
        LFOSYNC 0 0 0
        LFOSPEED 0.012018 0.03
        MODWND 0 1198 589 1585 974
      >
      WAK 0 0
    >
    <ITEM
      POSITION 3.9649999999674
      SNAPOFFS 0
      LENGTH 124.0350000000326
      LOOP 1
      ALLTAKES 0
      FADEIN 1 0 0 1 0 0 0
      FADEOUT 1 0 0 1 0 0 0
      MUTE 0 0
      SEL 0
      IGUID {EE0B298D-7EDE-FE4C-901C-23AA6A557555}
      IID 75
      NAME "07-Piano - high [2]-Recorded MIDI-glued"
      VOLPAN 1 0 1 -1
      SOFFS 0 0
      PLAYRATE 1 1 0 -1 0 0.0025
      CHANMODE 0
      GUID {D11F3BF3-69EE-D84E-BCED-676A2597E865}
      <SOURCE MIDI
        HASDATA 1 960 QN
        CCINTERP 32
        POOLEDEVTS {816CD2A0-096D-A845-ADA9-8A12D96F1C6D}
        E 11531 90 3e 01
        E 208 90 40 05
        E 10 80 3e 00
        E 241 80 40 00
        E 4 90 3e 08
        E 231 90 40 0a
        E 11 80 3e 00
        E 240 80 40 00
        E 6 90 3e 0d
        E 235 90 40 10
        E 6 80 3e 00
        E 260 90 3e 12
        E 4 80 40 00
        E 222 90 40 15
        E 7 80 3e 00
        E 253 80 40 00
        E 4 90 3e 18
        E 238 90 40 1a
        E 1 80 3e 00
        E 246 80 40 00
        E 3 90 3e 1c
        E 233 90 40 1d
        E 7 80 3e 00
        E 224 90 3e 20
        E 7 80 40 00
        E 227 90 40 23
        E 9 80 3e 00
        E 225 80 40 00
        E 7 90 3e 24
        E 213 90 40 26
        E 15 80 3e 00
        E 52 80 40 00
        E 165 90 40 28
        E 238 90 42 2a
        E 8 80 40 00
        E 248 80 42 00
        E 9 90 40 2c
        E 237 80 40 00
        E 5 90 42 2d
        E 225 80 42 00
        E 10 90 40 2e
        E 244 90 42 30
        E 6 80 40 00
        E 238 80 42 00
        E 12 90 40 31
        E 235 90 42 33
        E 4 80 40 00
        E 237 80 42 00
        E 12 90 40 35
        E 242 80 40 00
        E 1 90 42 37
        E 225 80 42 00
        E 20 90 40 38
        E 208 80 40 00
        E 2 90 42 39
        E 221 80 42 00
        E 12 90 40 3a
        E 242 90 42 3c
        E 6 80 40 00
        E 216 80 42 00
        E 17 90 40 3e
        E 238 90 42 41
        E 12 80 40 00
        E 103 80 42 00
        E 108 90 42 45
        E 267 90 43 40
        E 2 80 42 00
        E 215 80 43 00
        E 8 90 42 44
        E 259 90 43 43
        E 1 80 42 00
        E 224 80 43 00
        E 8 90 42 43
        E 234 90 43 41
        E 9 80 42 00
        E 227 80 43 00
        E 12 90 42 3f
        E 231 90 43 3f
        E 3 80 42 00
        E 230 90 42 3f
        E 2 80 43 00
        E 258 90 43 36
        E 3 80 42 00
        E 236 80 43 00
        E 3 90 42 3f
        E 228 90 43 3e
        E 2 80 42 00
        E 228 80 43 00
        E 6 90 42 3f
        E 235 90 43 3c
        E 7 80 42 00
        E 247 90 42 43
        E 1 80 43 00
        E 245 90 43 43
        E 17 80 42 00
        E 238 80 43 00
        E 0 90 42 40
        E 240 90 43 46
        E 12 80 42 00
        E 220 80 43 00
        E 2 90 42 3e
        E 249 90 43 45
        E 12 80 42 00
        E 223 90 42 45
        E 9 80 43 00
        E 229 90 43 44
        E 9 80 42 00
        E 233 90 42 44
        E 9 80 43 00
        E 222 90 43 45
        E 13 80 42 00
        E 215 90 42 48
        E 10 80 43 00
        E 236 90 43 48
        E 23 80 42 00
        E 227 90 42 4b
        E 13 80 43 00
        E 230 90 43 51
        E 19 80 42 00
        E 215 90 42 4a
        E 18 80 43 00
        E 221 90 43 4e
        E 13 80 42 00
        E 236 90 42 4b
        E 11 80 43 00
        E 228 90 43 4d
        E 7 80 42 00
        E 213 80 43 00
        E 31 90 3e 4a
        E 231 90 40 40
        E 13 80 3e 00
        E 232 90 3e 4b
        E 7 80 40 00
        E 235 90 40 4f
        E 18 80 3e 00
        E 229 90 3e 49
        E 13 80 40 00
        E 218 90 40 4b
        E 13 80 3e 00
        E 234 90 3e 46
        E 9 80 40 00
        E 212 90 40 4c
        E 16 80 3e 00
        E 204 90 3e 48
        E 5 80 40 00
        E 244 90 40 47
        E 14 80 3e 00
        E 221 90 3e 49
        E 13 80 40 00
        E 226 90 40 47
        E 9 80 3e 00
        E 225 90 3e 47
        E 7 80 40 00
        E 230 90 40 49
        E 9 80 3e 00
        E 252 90 3e 46
        E 2 80 40 00
        E 232 90 40 4d
        E 16 80 3e 00
        E 158 80 40 00
        E 64 90 40 4d
        E 262 80 40 00
        E 3 90 42 48
        E 244 80 42 00
        E 1 90 40 46
        E 241 90 42 4d
        E 7 80 40 00
        E 236 80 42 00
        E 3 90 40 48
        E 234 90 42 4a
        E 3 80 40 00
        E 250 90 40 48
        E 1 80 42 00
        E 227 90 42 4e
        E 12 80 40 00
        E 229 90 40 45
        E 1 80 42 00
        E 214 90 42 48
        E 9 80 40 00
        E 226 90 40 48
        E 6 80 42 00
        E 235 90 42 4a
        E 14 80 40 00
        E 217 90 40 49
        E 8 80 42 00
        E 248 90 42 4c
        E 10 80 40 00
        E 235 90 40 48
        E 1 80 42 00
        E 228 90 42 4b
        E 20 80 40 00
        E 95 80 42 00
        E 126 90 42 4c
        E 238 90 43 49
        E 14 80 42 00
        E 233 90 42 4b
        E 7 80 43 00
        E 231 90 43 4c
        E 16 80 42 00
        E 230 90 42 4e
        E 8 80 43 00
        E 245 90 43 4b
        E 19 80 42 00
        E 214 90 42 4c
        E 17 80 43 00
        E 214 90 43 4a
        E 26 80 42 00
        E 214 90 42 4d
        E 25 80 43 00
        E 225 90 43 4c
        E 19 80 42 00
        E 204 90 42 4b
        E 24 80 43 00
        E 222 90 43 4d
        E 23 80 42 00
        E 210 90 42 4d
        E 14 80 43 00
        E 224 90 43 4c
        E 11 80 42 00
        E 234 90 42 4e
        E 13 80 43 00
        E 236 90 43 4a
        E 20 80 42 00
        E 217 90 42 4e
        E 16 80 43 00
        E 224 90 43 4e
        E 20 80 42 00
        E 213 90 42 4e
        E 21 80 43 00
        E 221 90 43 52
        E 23 80 42 00
        E 202 90 42 4f
        E 23 80 43 00
        E 221 90 43 4c
        E 23 80 42 00
        E 222 90 42 4e
        E 15 80 43 00
        E 224 90 43 53
        E 29 80 42 00
        E 208 90 42 5a
        E 23 80 43 00
        E 211 90 43 51
        E 28 80 42 00
        E 215 90 42 50
        E 20 80 43 00
        E 214 90 43 4d
        E 24 80 42 00
        E 220 90 42 50
        E 25 80 43 00
        E 237 90 43 50
        E 23 80 42 00
        E 219 90 42 4c
        E 19 80 43 00
        E 230 90 43 4d
        E 18 80 42 00
        E 191 80 43 00
        E 40 90 3e 4e
        E 215 90 40 44
        E 1 80 3e 00
        E 259 80 40 00
        E 2 90 3e 47
        E 164 80 3e 00
        E 39 90 40 43
        E 258 80 40 00
        E 10 90 3e 41
        E 216 80 3e 00
        E 6 90 40 49
        E 228 80 40 00
        E 13 90 3e 49
        E 224 80 3e 00
        E 2 90 40 43
        E 232 80 40 00
        E 16 90 3c 51
        E 224 80 3c 00
        E 6 90 3e 47
        E 253 80 3e 00
        E 9 90 3c 4c
        E 212 80 3c 00
        E 7 90 3e 45
        E 265 80 3e 00
        E 4 90 3c 4c
        E 217 80 3c 00
        E 8 90 3e 45
        E 250 80 3e 00
        E 5 90 3c 47
        E 205 80 3c 00
        E 23 90 3e 40
        E 192 80 3e 00
        E 29 90 3b 4d
        E 221 80 3b 00
        E 14 90 3c 42
        E 269 90 3b 4b
        E 1 80 3c 00
        E 222 80 3b 00
        E 11 90 3c 46
        E 247 80 3c 00
        E 11 90 3b 4c
        E 215 80 3b 00
        E 17 90 3c 43
        E 225 80 3c 00
        E 7 90 3b 49
        E 224 80 3b 00
        E 9 90 3c 47
        E 219 80 3c 00
        E 19 90 39 4f
        E 225 80 39 00
        E 9 90 3b 48
        E 243 80 3b 00
        E 15 90 39 4c
        E 203 80 39 00
        E 17 90 3b 45
        E 251 80 3b 00
        E 3 90 39 4b
        E 209 80 39 00
        E 28 90 3b 44
        E 247 80 3b 00
        E 7 90 39 4a
        E 217 80 39 00
        E 4 90 3b 48
        E 40 80 3b 00
        E 203 90 3e 4d
        E 230 90 40 48
        E 19 80 3e 00
        E 239 90 3e 48
        E 10 80 40 00
        E 215 90 40 47
        E 23 80 3e 00
        E 229 90 3e 47
        E 13 80 40 00
        E 217 90 40 42
        E 13 80 3e 00
        E 236 80 40 00
        E 1 90 3e 45
        E 220 90 40 44
        E 16 80 3e 00
        E 211 90 3e 44
        E 2 80 40 00
        E 204 90 40 44
        E 23 80 3e 00
        E 249 90 3e 40
        E 8 80 40 00
        E 222 90 40 45
        E 13 80 3e 00
        E 235 90 3e 44
        E 10 80 40 00
        E 234 90 40 41
        E 16 80 3e 00
        E 234 90 3e 45
        E 10 80 40 00
        E 231 90 40 3f
        E 13 80 3e 00
        E 203 80 40 00
        E 22 90 3c 50
        E 230 80 3c 00
        E 12 90 3e 3f
        E 252 80 3e 00
        E 3 90 3c 45
        E 208 80 3c 00
        E 11 90 3e 40
        E 240 80 3e 00
        E 3 90 3c 4a
        E 208 80 3c 00
        E 11 90 3e 40
        E 256 90 3c 49
        E 4 80 3e 00
        E 219 80 3c 00
        E 11 90 3e 41
        E 276 80 3e 00
        E 0 90 3c 48
        E 219 80 3c 00
        E 13 90 3e 40
        E 250 80 3e 00
        E 6 90 3c 4a
        E 223 80 3c 00
        E 14 90 3e 3f
        E 212 80 3e 00
        E 17 90 3c 47
        E 225 80 3c 00
        E 26 90 3e 40
        E 223 80 3e 00
        E 15 90 3c 49
        E 203 80 3c 00
        E 18 90 3e 41
        E 226 80 3e 00
        E 22 90 3b 4f
        E 227 80 3b 00
        E 17 90 3c 3c
        E 244 80 3c 00
        E 7 90 3b 4b
        E 216 80 3b 00
        E 24 90 3c 40
        E 235 80 3c 00
        E 3 90 3b 4a
        E 225 80 3b 00
        E 21 90 3c 3e
        E 222 90 3b 48
        E 4 80 3c 00
        E 223 80 3b 00
        E 16 90 3c 42
        E 242 80 3c 00
        E 5 90 3b 49
        E 207 80 3b 00
        E 12 90 3c 40
        E 252 80 3c 00
        E 1 90 3b 4a
        E 217 80 3b 00
        E 20 90 3c 42
        E 237 80 3c 00
        E 5 90 3b 4a
        E 232 80 3b 00
        E 28 90 3c 3b
        E 223 80 3c 00
        E 8 90 3b 47
        E 230 80 3b 00
        E 12 90 3c 45
        E 209 80 3c 00
        E 18 90 39 51
        E 229 80 39 00
        E 18 90 3b 3f
        E 232 80 3b 00
        E 6 90 39 49
        E 219 80 39 00
        E 17 90 3b 42
        E 229 80 3b 00
        E 8 90 39 4a
        E 221 80 39 00
        E 17 90 3b 42
        E 245 80 3b 00
        E 4 90 39 44
        E 208 80 39 00
        E 26 90 3b 42
        E 241 80 3b 00
        E 5 90 39 47
        E 208 80 39 00
        E 30 90 3b 3e
        E 236 80 3b 00
        E 0 90 39 47
        E 215 80 39 00
        E 21 90 3b 42
        E 242 80 3b 00
        E 7 90 39 48
        E 213 80 39 00
        E 33 90 3b 3e
        E 236 80 3b 00
        E 10 90 39 4a
        E 221 80 39 00
        E 11 90 3b 48
        E 37 80 3b 00
        E 200 90 3e 49
        E 259 80 3e 00
        E 12 90 40 40
        E 219 90 3e 45
        E 2 80 40 00
        E 230 90 40 44
        E 9 80 3e 00
        E 230 90 3e 47
        E 13 80 40 00
        E 240 90 40 41
        E 11 80 3e 00
        E 225 90 3e 45
        E 13 80 40 00
        E 231 90 40 41
        E 10 80 3e 00
        E 229 90 3e 45
        E 9 80 40 00
        E 247 90 40 41
        E 4 80 3e 00
        E 218 90 3e 42
        E 11 80 40 00
        E 230 90 40 42
        E 5 80 3e 00
        E 231 80 40 00
        E 1 90 3e 46
        E 245 90 40 45
        E 4 80 3e 00
        E 234 80 40 00
        E 1 90 3e 46
        E 229 90 40 4a
        E 14 80 3e 00
        E 81 80 40 00
        E 149 90 40 4a
        E 214 90 42 44
        E 8 80 40 00
        E 240 80 42 00
        E 2 90 40 42
        E 241 90 42 47
        E 6 80 40 00
        E 243 80 42 00
        E 9 90 40 43
        E 234 90 42 46
        E 11 80 40 00
        E 225 80 42 00
        E 1 90 40 45
        E 247 90 42 45
        E 4 80 40 00
        E 230 80 42 00
        E 1 90 40 43
        E 243 90 42 46
        E 5 80 40 00
        E 236 80 42 00
        E 8 90 40 44
        E 224 90 42 49
        E 5 80 40 00
        E 237 90 40 45
        E 1 80 42 00
        E 235 90 42 4a
        E 9 80 40 00
        E 229 80 42 00
        E 9 90 40 3f
        E 233 90 42 48
        E 12 80 40 00
        E 100 80 42 00
        E 120 90 42 49
        E 245 90 43 46
        E 11 80 42 00
        E 229 90 42 42
        E 1 80 43 00
        E 246 90 43 44
        E 13 80 42 00
        E 225 90 42 49
        E 15 80 43 00
        E 220 90 43 43
        E 18 80 42 00
        E 215 90 42 46
        E 12 80 43 00
        E 243 90 43 44
        E 21 80 42 00
        E 226 90 42 46
        E 12 80 43 00
        E 219 90 43 40
        E 26 80 42 00
        E 223 90 42 43
        E 5 80 43 00
        E 215 90 43 41
        E 22 80 42 00
        E 227 90 42 48
        E 8 80 43 00
        E 234 90 43 40
        E 9 80 42 00
        E 236 90 42 44
        E 3 80 43 00
        E 246 90 43 3f
        E 8 80 42 00
        E 230 90 42 46
        E 5 80 43 00
        E 234 90 43 41
        E 13 80 42 00
        E 220 90 42 44
        E 6 80 43 00
        E 241 90 43 43
        E 15 80 42 00
        E 220 90 42 43
        E 8 80 43 00
        E 255 90 43 45
        E 15 80 42 00
        E 221 90 42 43
        E 3 80 43 00
        E 239 90 43 45
        E 15 80 42 00
        E 212 90 42 49
        E 14 80 43 00
        E 231 90 43 47
        E 9 80 42 00
        E 232 90 42 49
        E 17 80 43 00
        E 231 90 43 4b
        E 28 80 42 00
        E 200 90 42 4c
        E 24 80 43 00
        E 211 90 43 4a
        E 25 80 42 00
        E 217 90 42 4d
        E 14 80 43 00
        E 210 90 43 4b
        E 42 80 42 00
        E 65 80 43 00
        E 142 90 45 50
        E 249 90 47 4a
        E 24 80 45 00
        E 197 90 45 42
        E 25 80 47 00
        E 236 90 47 43
        E 13 80 45 00
        E 208 90 45 42
        E 13 80 47 00
        E 257 90 47 42
        E 6 80 45 00
        E 227 90 45 3d
        E 3 80 47 00
        E 260 80 45 00
        E 1 90 47 40
        E 206 80 47 00
        E 6 90 43 48
        E 220 90 45 39
        E 3 80 43 00
        E 256 80 45 00
        E 0 90 43 45
        E 226 90 45 44
        E 6 80 43 00
        E 235 90 43 46
        E 16 80 45 00
        E 237 80 43 00
        E 1 90 45 40
        E 238 90 43 41
        E 1 80 45 00
        E 237 80 43 00
        E 3 90 45 41
        E 212 80 45 00
        E 14 90 42 46
        E 238 90 43 43
        E 16 80 42 00
        E 238 90 42 45
        E 12 80 43 00
        E 239 90 43 47
        E 10 80 42 00
        E 228 90 42 44
        E 11 80 43 00
        E 223 90 43 45
        E 10 80 42 00
        E 217 90 42 46
        E 11 80 43 00
        E 234 90 43 41
        E 6 80 42 00
        E 218 90 42 49
        E 4 80 43 00
        E 238 90 43 48
        E 15 80 42 00
        E 230 90 42 4b
        E 16 80 43 00
        E 221 90 43 4d
        E 18 80 42 00
        E 220 90 42 4b
        E 16 80 43 00
        E 227 90 43 4f
        E 15 80 42 00
        E 222 90 42 4b
        E 12 80 43 00
        E 231 90 43 55
        E 32 80 42 00
        E 59 80 43 00
        E 143 90 45 55
        E 252 90 47 41
        E 14 80 45 00
        E 239 90 45 43
        E 3 80 47 00
        E 254 90 47 3f
        E 3 80 45 00
        E 231 90 45 44
        E 14 80 47 00
        E 238 90 47 40
        E 7 80 45 00
        E 229 90 45 40
        E 9 80 47 00
        E 237 80 45 00
        E 4 90 47 3d
        E 208 90 43 45
        E 2 80 47 00
        E 234 90 45 43
        E 10 80 43 00
        E 230 90 43 49
        E 17 80 45 00
        E 208 90 45 47
        E 10 80 43 00
        E 232 90 43 4b
        E 26 80 45 00
        E 222 90 45 4a
        E 13 80 43 00
        E 228 90 43 48
        E 17 80 45 00
        E 237 90 45 4b
        E 10 80 43 00
        E 211 80 45 00
        E 5 90 42 48
        E 243 90 43 48
        E 25 80 42 00
        E 215 90 42 4b
        E 13 80 43 00
        E 216 90 43 4b
        E 21 80 42 00
        E 215 90 42 4a
        E 16 80 43 00
        E 228 90 43 45
        E 19 80 42 00
        E 215 90 42 4b
        E 14 80 43 00
        E 226 90 43 4a
        E 13 80 42 00
        E 228 90 42 47
        E 17 80 43 00
        E 240 90 43 47
        E 11 80 42 00
        E 216 90 42 47
        E 12 80 43 00
        E 237 90 43 47
        E 11 80 42 00
        E 221 90 42 48
        E 21 80 43 00
        E 216 90 43 46
        E 13 80 42 00
        E 214 90 42 4b
        E 1 80 43 00
        E 259 90 43 4e
        E 28 80 42 00
        E 27 80 43 00
        E 183 90 45 5b
        E 263 90 47 49
        E 13 80 45 00
        E 222 90 45 45
        E 15 80 47 00
        E 239 90 47 41
        E 3 80 45 00
        E 228 80 47 00
        E 1 90 45 46
        E 239 90 47 45
        E 11 80 45 00
        E 209 90 45 45
        E 10 80 47 00
        E 242 90 47 45
        E 7 80 45 00
        E 109 80 47 00
        E 96 90 47 47
        E 270 80 47 00
        E 5 90 48 42
        E 204 90 47 49
        E 5 80 48 00
        E 253 90 48 4b
        E 6 80 47 00
        E 222 90 47 4b
        E 17 80 48 00
        E 230 90 48 49
        E 4 80 47 00
        E 234 90 47 46
        E 9 80 48 00
        E 242 90 48 45
        E 4 80 47 00
        E 106 80 48 00
        E 122 90 43 4d
        E 233 90 45 3f
        E 5 80 43 00
        E 236 90 43 47
        E 10 80 45 00
        E 236 90 45 43
        E 7 80 43 00
        E 238 90 43 46
        E 12 80 45 00
        E 237 90 45 3d
        E 7 80 43 00
        E 225 90 43 44
        E 6 80 45 00
        E 238 90 45 47
        E 17 80 43 00
        E 87 80 45 00
        E 123 90 45 45
        E 252 90 47 40
        E 13 80 45 00
        E 232 90 45 45
        E 4 80 47 00
        E 237 90 47 41
        E 5 80 45 00
        E 235 90 45 43
        E 11 80 47 00
        E 233 80 45 00
        E 2 90 47 42
        E 226 90 45 45
        E 10 80 47 00
        E 226 90 47 4e
        E 21 80 45 00
        E 39 80 47 00
        E 190 90 3e 4e
        E 222 90 40 36
        E 1 80 3e 00
        E 253 80 40 00
        E 4 90 3e 43
        E 236 90 40 44
        E 8 80 3e 00
        E 233 90 3e 47
        E 9 80 40 00
        E 232 90 40 44
        E 8 80 3e 00
        E 235 90 3e 46
        E 17 80 40 00
        E 214 90 40 49
        E 22 80 3e 00
        E 102 80 40 00
        E 120 90 40 4b
        E 238 80 40 00
        E 5 90 42 40
        E 169 80 42 00
        E 73 90 40 48
        E 211 80 40 00
        E 2 90 42 43
        E 242 80 42 00
        E 8 90 40 49
        E 254 90 42 48
        E 9 80 40 00
        E 230 80 42 00
        E 3 90 40 45
        E 240 90 42 49
        E 14 80 40 00
        E 99 80 42 00
        E 116 90 42 4c
        E 241 90 43 44
        E 12 80 42 00
        E 238 90 42 49
        E 3 80 43 00
        E 243 90 43 44
        E 6 80 42 00
        E 234 90 42 4b
        E 8 80 43 00
        E 250 90 43 43
        E 17 80 42 00
        E 206 90 42 48
        E 8 80 43 00
        E 240 90 43 45
        E 16 80 42 00
        E 232 90 42 49
        E 3 80 43 00
        E 241 90 43 45
        E 7 80 42 00
        E 222 90 42 4a
        E 1 80 43 00
        E 242 90 43 48
        E 12 80 42 00
        E 228 90 42 4c
        E 4 80 43 00
        E 234 90 43 4b
        E 14 80 42 00
        E 230 80 43 00
        E 1 90 42 49
        E 240 90 43 48
        E 15 80 42 00
        E 80 80 43 00
        E 142 90 3e 4e
        E 237 90 40 48
        E 9 80 3e 00
        E 228 90 3e 4a
        E 12 80 40 00
        E 231 90 40 49
        E 8 80 3e 00
        E 220 90 3e 48
        E 5 80 40 00
        E 240 90 40 47
        E 9 80 3e 00
        E 219 90 3e 4c
        E 21 80 40 00
        E 234 90 40 4e
        E 22 80 3e 00
        E 90 80 40 00
        E 120 90 40 4a
        E 238 90 42 44
        E 7 80 40 00
        E 225 90 40 4a
        E 1 80 42 00
        E 243 90 42 4a
        E 5 80 40 00
        E 230 90 40 48
        E 14 80 42 00
        E 230 90 42 4c
        E 11 80 40 00
        E 217 90 40 49
        E 3 80 42 00
        E 242 90 42 4a
        E 25 80 40 00
        E 88 80 42 00
        E 112 90 42 4b
        E 263 90 43 4d
        E 24 80 42 00
        E 217 90 42 49
        E 9 80 43 00
        E 230 90 43 4e
        E 21 80 42 00
        E 222 90 42 4b
        E 6 80 43 00
        E 236 90 43 4b
        E 22 80 42 00
        E 214 90 42 4c
        E 12 80 43 00
        E 221 90 43 49
        E 14 80 42 00
        E 221 90 42 4a
        E 5 80 43 00
        E 234 90 43 45
        E 6 80 42 00
        E 231 90 42 4b
        E 13 80 43 00
        E 234 90 43 4a
        E 9 80 42 00
        E 225 90 42 49
        E 8 80 43 00
        E 248 90 43 46
        E 12 80 42 00
        E 223 90 42 45
        E 11 80 43 00
        E 241 90 43 47
        E 24 80 42 00
        E 102 80 43 00
        E 102 90 3e 4e
        E 237 80 3e 00
        E 6 90 40 44
        E 236 90 3e 46
        E 5 80 40 00
        E 213 80 3e 00
        E 13 90 40 44
        E 240 80 40 00
        E 3 90 3e 46
        E 226 80 3e 00
        E 14 90 40 41
        E 226 80 40 00
        E 19 90 3e 48
        E 218 80 3e 00
        E 13 90 40 44
        E 194 80 40 00
        E 33 90 3c 4e
        E 241 80 3c 00
        E 15 90 3e 40
        E 239 80 3e 00
        E 7 90 3c 4d
        E 229 80 3c 00
        E 2 90 3e 47
        E 234 80 3e 00
        E 10 90 3c 4b
        E 223 80 3c 00
        E 11 90 3e 45
        E 263 90 3c 4b
        E 4 80 3e 00
        E 219 80 3c 00
        E 11 90 3e 46
        E 209 80 3e 00
        E 21 90 3b 4e
        E 237 80 3b 00
        E 14 90 3c 44
        E 248 80 3c 00
        E 0 90 3b 4c
        E 222 80 3b 00
        E 13 90 3c 45
        E 259 80 3c 00
        E 3 90 3b 4a
        E 206 80 3b 00
        E 12 90 3c 46
        E 245 80 3c 00
        E 0 90 3b 4c
        E 229 80 3b 00
        E 13 90 3c 44
        E 222 80 3c 00
        E 7 90 3b 4b
        E 225 80 3b 00
        E 15 90 3c 44
        E 240 80 3c 00
        E 3 90 3b 4b
        E 206 80 3b 00
        E 23 90 3c 45
        E 244 80 3c 00
        E 1 90 3b 4f
        E 209 80 3b 00
        E 25 90 3c 47
        E 234 90 3b 4c
        E 1 80 3c 00
        E 218 80 3b 00
        E 19 90 3c 4e
        E 45 80 3c 00
        E 187 90 3e 4f
        E 240 90 40 44
        E 5 80 3e 00
        E 231 90 3e 4c
        E 7 80 40 00
        E 238 90 40 49
        E 11 80 3e 00
        E 225 90 3e 4a
        E 25 80 40 00
        E 222 90 40 45
        E 12 80 3e 00
        E 223 90 3e 4b
        E 9 80 40 00
        E 218 90 40 4b
        E 26 80 3e 00
        E 77 80 40 00
        E 137 90 40 4d
        E 222 90 42 47
        E 12 80 40 00
        E 239 90 40 48
        E 1 80 42 00
        E 248 90 42 4b
        E 14 80 40 00
        E 225 90 40 49
        E 14 80 42 00
        E 231 90 42 47
        E 17 80 40 00
        E 222 90 40 49
        E 6 80 42 00
        E 230 90 42 4e
        E 22 80 40 00
        E 167 80 42 00
        E 41 90 3c 5b
        E 218 80 3c 00
        E 7 90 3e 44
        E 252 90 3c 4a
        E 4 80 3e 00
        E 210 80 3c 00
        E 7 90 3e 43
        E 256 90 3c 48
        E 7 80 3e 00
        E 216 80 3c 00
        E 10 90 3e 3c
        E 267 90 3c 48
        E 1 80 3e 00
        E 223 80 3c 00
        E 13 90 3e 40
        E 257 90 3c 47
        E 5 80 3e 00
        E 217 80 3c 00
        E 19 90 3e 3d
        E 249 90 3c 48
        E 9 80 3e 00
        E 205 80 3c 00
        E 20 90 3e 40
        E 212 90 3c 48
        E 4 80 3e 00
        E 219 80 3c 00
        E 27 90 3e 3c
        E 235 80 3e 00
        E 4 90 3c 47
        E 216 80 3c 00
        E 19 90 3e 47
        E 35 80 3e 00
        E 202 90 45 4f
        E 269 90 47 3f
        E 7 80 45 00
        E 207 90 45 45
        E 24 80 47 00
        E 226 90 47 45
        E 18 80 45 00
        E 217 90 45 48
        E 29 80 47 00
        E 213 90 47 40
        E 8 80 45 00
        E 237 90 45 43
        E 9 80 47 00
        E 222 90 47 44
        E 12 80 45 00
        E 150 80 47 00
        E 83 90 43 4c
        E 228 90 45 40
        E 9 80 43 00
        E 247 90 43 45
        E 19 80 45 00
        E 241 90 45 3f
        E 6 80 43 00
        E 239 90 43 45
        E 21 80 45 00
        E 198 90 45 43
        E 21 80 43 00
        E 213 90 43 43
        E 11 80 45 00
        E 232 90 45 47
        E 18 80 43 00
        E 28 80 45 00
        E 200 90 48 5c
        E 256 90 4a 41
        E 10 80 48 00
        E 223 90 48 49
        E 18 80 4a 00
        E 243 90 4a 3f
        E 8 80 48 00
        E 224 90 48 41
        E 11 80 4a 00
        E 240 90 4a 3c
        E 10 80 48 00
        E 224 90 48 42
        E 7 80 4a 00
        E 236 90 4a 41
        E 1 80 48 00
        E 228 90 48 43
        E 9 80 4a 00
        E 251 90 4a 44
        E 5 80 48 00
        E 227 90 48 43
        E 12 80 4a 00
        E 228 90 4a 46
        E 1 80 48 00
        E 212 90 48 45
        E 13 80 4a 00
        E 245 90 4a 43
        E 2 80 48 00
        E 234 90 48 45
        E 17 80 4a 00
        E 228 80 48 00
        E 5 90 4a 4a
        E 116 80 4a 00
        E 102 90 45 4e
        E 248 90 47 46
        E 6 80 45 00
        E 233 90 45 43
        E 9 80 47 00
        E 228 80 45 00
        E 1 90 47 3c
        E 218 90 45 44
        E 13 80 47 00
        E 237 90 47 44
        E 3 80 45 00
        E 246 90 45 41
        E 2 80 47 00
        E 229 90 47 47
        E 11 80 45 00
        E 118 80 47 00
        E 114 90 47 3d
        E 250 90 48 43
        E 11 80 47 00
        E 228 90 47 49
        E 22 80 48 00
        E 211 90 48 46
        E 13 80 47 00
        E 230 90 47 47
        E 24 80 48 00
        E 229 90 48 4d
        E 2 80 47 00
        E 223 90 47 48
        E 18 80 48 00
        E 223 90 48 4c
        E 16 80 47 00
        E 106 80 48 00
        E 123 90 48 4b
        E 253 90 4a 45
        E 1 80 48 00
        E 225 90 48 46
        E 3 80 4a 00
        E 242 90 4a 4b
        E 8 80 48 00
        E 229 90 48 48
        E 10 80 4a 00
        E 231 80 48 00
        E 1 90 4a 48
        E 221 90 48 45
        E 12 80 4a 00
        E 228 90 4a 47
        E 3 80 48 00
        E 240 90 48 46
        E 19 80 4a 00
        E 230 90 4a 48
        E 11 80 48 00
        E 229 90 48 49
        E 9 80 4a 00
        E 234 90 4a 4b
        E 10 80 48 00
        E 234 90 48 4c
        E 15 80 4a 00
        E 228 90 4a 4b
        E 15 80 48 00
        E 195 90 48 48
        E 17 80 4a 00
        E 236 90 4a 5b
        E 21 80 48 00
        E 84 80 4a 00
        E 152 90 4a 4e
        E 244 90 4c 47
        E 14 80 4a 00
        E 230 90 4a 4c
        E 11 80 4c 00
        E 217 90 4c 45
        E 8 80 4a 00
        E 228 90 4a 4c
        E 15 80 4c 00
        E 226 90 4c 49
        E 8 80 4a 00
        E 234 90 4a 4b
        E 10 80 4c 00
        E 218 90 4c 4c
        E 18 80 4a 00
        E 98 80 4c 00
        E 130 90 4c 4e
        E 236 90 4e 46
        E 12 80 4c 00
        E 230 90 4c 45
        E 5 80 4e 00
        E 231 90 4e 44
        E 7 80 4c 00
        E 226 90 4c 44
        E 1 80 4e 00
        E 233 90 4e 45
        E 13 80 4c 00
        E 220 90 4c 44
        E 2 80 4e 00
        E 224 90 4e 48
        E 25 80 4c 00
        E 78 80 4e 00
        E 129 90 4e 4c
        E 255 80 4e 00
        E 4 90 4f 42
        E 242 90 4e 48
        E 1 80 4f 00
        E 245 90 4f 45
        E 9 80 4e 00
        E 245 90 4e 4a
        E 6 80 4f 00
        E 229 90 4f 45
        E 19 80 4e 00
        E 228 90 4e 49
        E 14 80 4f 00
        E 239 80 4e 00
        E 0 90 4f 3f
        E 232 90 4e 49
        E 8 80 4f 00
        E 237 90 4f 46
        E 8 80 4e 00
        E 227 90 4e 48
        E 20 80 4f 00
        E 227 90 4f 45
        E 4 80 4e 00
        E 235 90 4e 48
        E 23 80 4f 00
        E 226 90 4f 46
        E 5 80 4e 00
        E 229 90 4e 4a
        E 13 80 4f 00
        E 225 90 4f 4a
        E 1 80 4e 00
        E 134 80 4f 00
        E 101 90 4a 58
        E 247 90 4c 43
        E 1 80 4a 00
        E 247 90 4a 4a
        E 23 80 4c 00
        E 209 90 4c 48
        E 5 80 4a 00
        E 224 90 4a 4c
        E 17 80 4c 00
        E 224 90 4c 49
        E 9 80 4a 00
        E 227 90 4a 4a
        E 7 80 4c 00
        E 238 90 4c 4d
        E 16 80 4a 00
        E 101 80 4c 00
        E 128 90 4c 4d
        E 232 90 4e 41
        E 13 80 4c 00
        E 224 80 4e 00
        E 2 90 4c 49
        E 233 90 4e 47
        E 11 80 4c 00
        E 224 90 4c 44
        E 6 80 4e 00
        E 213 90 4e 4b
        E 19 80 4c 00
        E 208 80 4e 00
        E 10 90 4c 45
        E 246 90 4e 45
        E 20 80 4c 00
        E 98 80 4e 00
        E 140 90 4e 4e
        E 246 90 4f 3e
        E 4 80 4e 00
        E 244 90 4e 4b
        E 6 80 4f 00
        E 233 90 4f 49
        E 14 80 4e 00
        E 225 90 4e 4e
        E 29 80 4f 00
        E 218 90 4f 4b
        E 23 80 4e 00
        E 228 90 4e 4d
        E 16 80 4f 00
        E 226 90 4f 47
        E 14 80 4e 00
        E 220 90 4e 4b
        E 22 80 4f 00
        E 218 90 4f 48
        E 18 80 4e 00
        E 229 90 4e 49
        E 14 80 4f 00
        E 222 90 4f 48
        E 15 80 4e 00
        E 227 90 4e 48
        E 8 80 4f 00
        E 260 90 4f 45
        E 10 80 4e 00
        E 208 90 4e 47
        E 13 80 4f 00
        E 224 90 4f 4f
        E 14 80 4e 00
        E 89 80 4f 00
        E 133 90 4a 5c
        E 251 90 4c 48
        E 5 80 4a 00
        E 218 90 4a 59
        E 3 80 4c 00
        E 233 90 4c 4b
        E 2 80 4a 00
        E 231 90 4a 50
        E 17 80 4c 00
        E 237 90 4c 4b
        E 4 80 4a 00
        E 214 90 4a 47
        E 2 80 4c 00
        E 241 90 4c 4b
        E 19 80 4a 00
        E 78 80 4c 00
        E 150 90 4c 50
        E 255 90 4e 45
        E 1 80 4c 00
        E 200 80 4e 00
        E 15 90 4c 48
        E 245 80 4c 00
        E 1 90 4e 49
        E 220 80 4e 00
        E 16 90 4c 46
        E 234 80 4c 00
        E 5 90 4e 42
        E 219 80 4e 00
        E 16 90 4c 3f
        E 240 90 4e 46
        E 14 80 4c 00
        E 85 80 4e 00
        E 145 90 4e 4e
        E 269 90 4f 47
        E 4 80 4e 00
        E 218 80 4f 00
        E 3 90 4e 4a
        E 231 80 4e 00
        E 1 90 4f 49
        E 232 80 4f 00
        E 3 90 4e 48
        E 246 90 4f 48
        E 5 80 4e 00
        E 229 90 4e 49
        E 2 80 4f 00
        E 241 90 4f 4a
        E 12 80 4e 00
        E 228 90 4e 4d
        E 20 80 4f 00
        E 223 90 4f 4a
        E 13 80 4e 00
        E 217 90 4e 4b
        E 6 80 4f 00
        E 244 90 4f 4b
        E 8 80 4e 00
        E 238 90 4e 46
        E 10 80 4f 00
        E 258 90 4f 4d
        E 15 80 4e 00
        E 203 90 4e 48
        E 19 80 4f 00
        E 248 90 4f 47
        E 9 80 4e 00
        E 32 80 4f 00
        E 187 90 4a 47
        E 223 90 4c 49
        E 7 80 4a 00
        E 230 90 4a 4f
        E 5 80 4c 00
        E 235 90 4c 4c
        E 4 80 4a 00
        E 227 90 4a 4d
        E 8 80 4c 00
        E 243 90 4c 4a
        E 6 80 4a 00
        E 231 90 4a 4a
        E 7 80 4c 00
        E 242 90 4c 49
        E 12 80 4a 00
        E 86 80 4c 00
        E 140 90 4c 4e
        E 244 80 4c 00
        E 1 90 4e 45
        E 233 80 4e 00
        E 4 90 4c 48
        E 233 80 4c 00
        E 5 90 4e 42
        E 236 90 4c 47
        E 2 80 4e 00
        E 236 90 4e 48
        E 4 80 4c 00
        E 206 80 4e 00
        E 18 90 4c 44
        E 253 90 4e 46
        E 22 80 4c 00
        E 94 80 4e 00
        E 126 90 4e 4d
        E 253 90 4f 49
        E 6 80 4e 00
        E 227 80 4f 00
        E 3 90 4e 4a
        E 252 90 4f 48
        E 10 80 4e 00
        E 228 90 4e 4a
        E 4 80 4f 00
        E 225 90 4f 48
        E 4 80 4e 00
        E 226 90 4e 4a
        E 2 80 4f 00
        E 255 90 4f 4a
        E 10 80 4e 00
        E 228 90 4e 4b
        E 6 80 4f 00
        E 227 90 4f 48
        E 2 80 4e 00
        E 231 90 4e 4b
        E 3 80 4f 00
        E 238 90 4f 48
        E 4 80 4e 00
        E 227 90 4e 4a
        E 2 80 4f 00
        E 255 80 4e 00
        E 1 90 4f 42
        E 222 80 4f 00
        E 6 90 4e 44
        E 268 90 4f 43
        E 19 80 4e 00
        E 23 80 4f 00
        E 180 90 4a 58
        E 237 90 4c 47
        E 5 80 4a 00
        E 235 90 4a 48
        E 8 80 4c 00
        E 223 90 4c 45
        E 3 80 4a 00
        E 245 90 4a 47
        E 17 80 4c 00
        E 226 90 4c 3e
        E 2 80 4a 00
        E 227 80 4c 00
        E 5 90 4a 42
        E 236 90 4c 48
        E 11 80 4a 00
        E 115 80 4c 00
        E 113 90 48 4d
        E 244 90 4a 49
        E 5 80 48 00
        E 231 90 48 4b
        E 8 80 4a 00
        E 233 90 4a 4c
        E 7 80 48 00
        E 227 90 48 4a
        E 10 80 4a 00
        E 245 90 4a 4c
        E 9 80 48 00
        E 217 90 48 42
        E 11 80 4a 00
        E 232 90 4a 4c
        E 19 80 48 00
        E 107 80 4a 00
        E 114 90 4a 47
        E 241 90 4c 3d
        E 1 80 4a 00
        E 221 80 4c 00
        E 6 90 4a 4b
        E 244 90 4c 49
        E 2 80 4a 00
        E 232 90 4a 4b
        E 8 80 4c 00
        E 244 80 4a 00
        E 1 90 4c 42
        E 236 90 4a 49
        E 24 80 4c 00
        E 237 90 4c 42
        E 9 80 4a 00
        E 145 80 4c 00
        E 61 90 48 4a
        E 238 90 4a 47
        E 3 80 48 00
        E 238 90 48 4a
        E 6 80 4a 00
        E 237 90 4a 4b
        E 2 80 48 00
        E 231 90 48 48
        E 15 80 4a 00
        E 230 90 4a 4a
        E 3 80 48 00
        E 221 80 4a 00
        E 5 90 48 45
        E 231 90 4a 4d
        E 18 80 48 00
        E 74 80 4a 00
        E 165 90 4a 4f
        E 250 80 4a 00
        E 2 90 4c 3f
        E 233 90 4a 49
        E 18 80 4c 00
        E 222 90 4c 42
        E 5 80 4a 00
        E 231 90 4a 49
        E 11 80 4c 00
        E 238 80 4a 00
        E 2 90 4c 42
        E 226 80 4c 00
        E 9 90 4a 45
        E 246 90 4c 47
        E 11 80 4a 00
        E 92 80 4c 00
        E 144 90 4c 4a
        E 243 80 4c 00
        E 8 90 4e 38
        E 232 80 4e 00
        E 9 90 4c 45
        E 225 80 4c 00
        E 13 90 4e 40
        E 230 80 4e 00
        E 7 90 4c 46
        E 226 80 4c 00
        E 6 90 4e 42
        E 235 80 4e 00
        E 7 90 4c 4b
        E 242 90 4e 48
        E 25 80 4c 00
        E 85 80 4e 00
        E 129 90 4e 4e
        E 255 90 4f 48
        E 11 80 4e 00
        E 222 90 4e 4b
        E 1 80 4f 00
        E 242 90 4f 4c
        E 18 80 4e 00
        E 223 90 4e 4b
        E 4 80 4f 00
        E 235 90 4f 4b
        E 18 80 4e 00
        E 212 90 4e 4c
        E 19 80 4f 00
        E 226 90 4f 4b
        E 15 80 4e 00
        E 220 90 4e 4b
        E 27 80 4f 00
        E 221 90 4f 4b
        E 22 80 4e 00
        E 217 90 4e 4c
        E 19 80 4f 00
        E 219 90 4f 4c
        E 19 80 4e 00
        E 210 90 4e 4e
        E 15 80 4f 00
        E 223 90 4f 4e
        E 18 80 4e 00
        E 200 80 4f 00
        E 16 90 4e 49
        E 259 90 4f 4d
        E 39 80 4e 00
        E 59 80 4f 00
        E 142 90 51 60
        E 241 90 53 45
        E 8 80 51 00
        E 226 80 53 00
        E 9 90 51 49
        E 235 90 53 45
        E 1 80 51 00
        E 233 90 51 45
        E 4 80 53 00
        E 246 90 53 48
        E 6 80 51 00
        E 201 80 53 00
        E 7 90 51 40
        E 250 90 53 47
        E 5 80 51 00
        E 118 80 53 00
        E 115 90 4f 4d
        E 244 90 51 45
        E 13 80 4f 00
        E 224 90 4f 46
        E 1 80 51 00
        E 235 90 51 45
        E 11 80 4f 00
        E 231 90 4f 45
        E 8 80 51 00
        E 231 90 51 4a
        E 10 80 4f 00
        E 220 80 51 00
        E 12 90 4f 3d
        E 248 90 51 48
        E 20 80 4f 00
        E 88 80 51 00
        E 117 90 4e 4e
        E 258 90 4f 44
        E 6 80 4e 00
        E 215 90 4e 4c
        E 5 80 4f 00
        E 253 90 4f 45
        E 10 80 4e 00
        E 225 90 4e 49
        E 1 80 4f 00
        E 247 90 4f 49
        E 13 80 4e 00
        E 213 90 4e 4b
        E 3 80 4f 00
        E 235 90 4f 4b
        E 10 80 4e 00
        E 234 80 4f 00
        E 0 90 4e 4a
        E 256 90 4f 4d
        E 18 80 4e 00
        E 214 90 4e 4a
        E 4 80 4f 00
        E 239 90 4f 4b
        E 10 80 4e 00
        E 230 80 4f 00
        E 3 90 4e 4a
        E 241 90 4f 48
        E 14 80 4e 00
        E 209 80 4f 00
        E 10 90 4e 47
        E 246 90 4f 4c
        E 31 80 4e 00
        E 32 80 4f 00
        E 177 90 51 54
        E 245 90 53 44
        E 7 80 51 00
        E 226 90 51 4b
        E 8 80 53 00
        E 230 90 53 49
        E 9 80 51 00
        E 226 90 51 48
        E 7 80 53 00
        E 242 90 53 44
        E 4 80 51 00
        E 224 80 53 00
        E 2 90 51 45
        E 248 90 53 49
        E 12 80 51 00
        E 118 80 53 00
        E 86 90 4f 4c
        E 242 90 51 45
        E 3 80 4f 00
        E 258 90 4f 47
        E 5 80 51 00
        E 239 90 51 43
        E 1 80 4f 00
        E 226 90 4f 48
        E 5 80 51 00
        E 231 90 51 4b
        E 8 80 4f 00
        E 235 90 4f 45
        E 7 80 51 00
        E 244 90 51 47
        E 16 80 4f 00
        E 105 80 51 00
        E 110 90 4e 4c
        E 244 90 4f 47
        E 12 80 4e 00
        E 221 90 4e 4b
        E 7 80 4f 00
        E 235 90 4f 4a
        E 17 80 4e 00
        E 221 90 4e 4b
        E 14 80 4f 00
        E 232 90 4f 4b
        E 17 80 4e 00
        E 219 90 4e 4b
        E 12 80 4f 00
        E 224 90 4f 4d
        E 16 80 4e 00
        E 221 90 4e 4d
        E 27 80 4f 00
        E 228 90 4f 47
        E 23 80 4e 00
        E 213 90 4e 4b
        E 20 80 4f 00
        E 228 90 4f 4a
        E 19 80 4e 00
        E 210 90 4e 4b
        E 10 80 4f 00
        E 243 90 4f 4a
        E 22 80 4e 00
        E 200 90 4e 4b
        E 6 80 4f 00
        E 226 90 4f 4b
        E 27 80 4e 00
        E 91 80 4f 00
        E 172 90 56 48
        E 230 90 58 51
        E 81 80 56 00
        E 151 90 56 48
        E 50 80 58 00
        E 185 90 58 3f
        E 10 80 56 00
        E 224 90 56 4c
        E 12 80 58 00
        E 229 80 56 00
        E 10 90 58 40
        E 222 90 56 4e
        E 22 80 58 00
        E 217 80 56 00
        e 2 90 58 40
        E 239 90 56 51
        e 5 80 58 00
        E 240 80 56 00
        E 3 90 58 50
        E 245 90 56 55
        E 12 80 58 00
        E 226 90 58 4f
        E 7 80 56 00
        E 225 90 56 5d
        E 15 80 58 00
        E 225 90 58 4b
        E 36 80 56 00
        E 198 90 56 4f
        E 7 80 58 00
        E 230 90 58 4b
        E 26 80 56 00
        E 209 90 58 61
        E 5 80 58 00
        E 243 90 5a 4a
        E 32 80 58 00
        E 200 80 5a 00
        E 19 90 58 4d
        E 235 90 5a 4e
        E 7 80 58 00
        E 225 80 5a 00
        E 13 90 58 53
        E 244 90 5a 50
        E 4 80 58 00
        E 227 80 5a 00
        E 15 90 58 4d
        E 222 90 5a 5a
        E 24 80 58 00
        E 206 80 5a 00
        E 15 90 58 4e
        E 229 90 5a 52
        E 16 80 58 00
        E 216 80 5a 00
        E 11 90 58 52
        E 230 90 5a 51
        E 21 80 58 00
        E 210 80 5a 00
        E 9 90 58 4f
        E 242 90 5a 50
        E 37 80 58 00
        E 190 90 58 4e
        E 3 80 5a 00
        E 241 90 5a 51
        E 14 80 58 00
        E 216 80 5a 00
        E 7 90 5a 56
        E 235 80 5a 00
        E 29 90 5b 44
        E 226 90 5a 5b
        E 14 80 5b 00
        E 220 80 5a 00
        E 8 90 5b 61
        E 240 90 5a 54
        E 14 80 5b 00
        E 222 80 5a 00
        E 14 90 5b 4e
        E 240 80 5b 00
        E 0 90 5a 4f
        E 234 80 5a 00
        E 16 90 5b 5d
        E 232 90 5a 5e
        E 7 80 5b 00
        E 250 90 5b 54
        E 9 80 5a 00
        E 213 90 5a 54
        E 26 80 5b 00
        E 212 90 5b 5b
        E 4 80 5a 00
        E 224 90 5a 54
        E 20 80 5b 00
        E 221 90 5b 4f
        E 11 80 5a 00
        E 214 90 5a 4e
        E 18 80 5b 00
        E 216 80 5a 00
        E 13 90 5b 50
        E 229 90 5a 59
        E 12 80 5b 00
        E 239 90 5b 51
        E 12 80 5a 00
        E 215 90 5a 59
        E 16 80 5b 00
        E 230 90 5b 61
        E 24 80 5a 00
        E 218 90 5a 5b
        E 12 80 5b 00
        E 232 90 5b 58
        E 24 80 5a 00
        E 224 80 5b 00
        E 0 90 5a 4d
        E 235 80 5a 00
        E 10 90 5b 5c
        E 239 90 5a 5a
        E 3 80 5b 00
        E 243 90 5b 61
        E 35 80 5a 00
        E 199 90 5a 4f
        E 7 80 5b 00
        E 225 80 5a 00
        E 6 90 5b 50
        E 233 90 5a 4e
        E 7 80 5b 00
        E 226 80 5a 00
        E 12 90 5b 51
        E 240 90 5a 4c
        E 2 80 5b 00
        E 234 80 5a 00
        E 19 90 5b 54
        E 240 80 5b 00
        E 6 90 66 28
        E 54 80 66 00
        E 11505 b0 7b 00
        CCINTERP 32
        CHASE_CC_TAKEOFFS 1
        GUID {73F2F5DE-7AF8-AF40-9F95-1BB7E94C0EA6}
        IGNTEMPO 0 120 4 4
        SRCCOLOR 151
        VELLANE -1 337 0
        VELLANE 64 100 0
        CFGEDITVIEW 5275.330585 0.060399 27 13 0 -1 0 0 0 0.5
        KEYSNAP 0
        TRACKSEL 0
        EVTFILTER 0 -1 -1 -1 -1 0 0 0 0 -1 -1 -1 -1 0 -1 0 -1 -1
        CFGEDIT 1 1 0 1 0 0 1 1 1 1 1 0.125 0 0 1856 1055 0 0 0 0 0 0 0 0 0 0.5 0 0 1 64
      >
    >
  >
  <TRACK {EAC0CBE9-A817-1940-9C53-9E044623FC37}
    NAME "Synth - high 8vb"
    PEAKCOL 16576
    BEAT -1
    AUTOMODE 0
    VOLPAN 1 0 -1 -1 1
    MUTESOLO 0 0 0
    IPHASE 0
    PLAYOFFS 0 1
    ISBUS 0 0
    BUSCOMP 0 0 0 0 0
    SHOWINMIX 1 0.6667 0.5 1 0.5 0 -1 0
    FREEMODE 0
    SEL 0
    REC 0 5088 1 0 0 0 0
    VU 2
    TRACKHEIGHT 0 0 0 0 0 0
    INQ 0 0 0 0.5 100 0 0 100
    NCHAN 6
    FX 1
    TRACKID {EAC0CBE9-A817-1940-9C53-9E044623FC37}
    PERF 0
    MIDIOUT -1
    MAINSEND 0 0
    <FXCHAIN
      WNDRECT 570 313 1231 598
      SHOW 0
      LASTSEL 0
      DOCKED 0
      BYPASS 0 0 0
      <VST "VST3i: SubtractiveSynth (CabbageAudio)" SubtractiveSynth.vst3 0 "" 80830264{ABCDEF019182FAEB4361626230303130} ""
        OF/RBO5e7f4AAAAABgAAAAEAAAAAAAAAAgAAAAAAAAAEAAAAAAAAAAgAAAAAAAAAEAAAAAAAAAAgAAAAAAAAAEgjAAABAAAA//8QAA==
        OCMAAAEAAABWQzIh8yIAADw/eG1sIHZlcnNpb249IjEuMCIgZW5jb2Rpbmc9IlVURi04Ij8+IDxDQUJCQUdFX1BSRVNFVFM+PFBSRVNFVDAgUHJlc2V0TmFtZT0iQ0FC
        QkFHRV9QUkVTRVRTIDAiIGluc3RhbmNlTmFtZT0iIiB0cmFja0luZGV4PSIyIiBwbHVnaW5JbmRleD0iMCIgZmlyc3RfdGFiX2J1Z193b3JrYXJvdW5kX3RhYj0iMC4w
        IiBzODhfdGFiPSIwLjAiIG9zYzFfdGFiPSIwLjAiIG9zYzJfdGFiPSIwLjAiIG9zYzNfdGFiPSIwLjAiIG9zYzRfdGFiPSIwLjAiIGZpbHRlcl90YWI9IjAuMCIgYW1w
        bGl0dWRlX3RhYj0iMC4wIiBwb3NpdGlvbl90YWI9IjEuMCIgbG9nX3RhYj0iMC4wIiBTODhfa25vYl8xPSIwLjAiIFM4OF9rbm9iXzI9IjAuMCIgUzg4X2tub2JfMz0i
        MC4wIiBTODhfa25vYl80PSIwLjAiIFM4OF9rbm9iXzU9IjAuMCIgUzg4X2tub2JfNj0iMC4wIiBTODhfa25vYl83PSIwLjAiIFM4OF9rbm9iXzg9IjAuMCIgUzg4X3Bp
        dGNoYmVuZD0iMC4wIiBTODhfbW9kd2hlZWw9IjAuMCIgb3NjMUVuYWJsZWQ9IjEuMCIgb3NjMVdhdmVmb3JtU2F3PSIwLjAiIG9zYzFXYXZlZm9ybVNxdWFyZT0iMS4w
        IiBvc2MxV2F2ZWZvcm1QdWxzZT0iMC4wIiBvc2MxV2F2ZWZvcm1Ob2lzZT0iMC4wIiBvc2MxUHVsc2VXaWR0aD0iMC45OTAwMDAwMDk1MzY3NDMyIiBvc2MxUHVsc2VX
        aWR0aEVuYWJsZWQ9IjEuMCIgb3NjMVB1bHNlV2lkdGhBZHNyRW5hYmxlZD0iMC4wIiBvc2MxUHVsc2VXaWR0aEF0dGFjaz0iMC4wIiBvc2MxUHVsc2VXaWR0aERlY2F5
        PSIwLjAiIG9zYzFQdWxzZVdpZHRoU3VzdGFpbj0iMC4wIiBvc2MxUHVsc2VXaWR0aFJlbGVhc2U9IjAuMCIgb3NjMVB1bHNlV2lkdGhMZm9FbmFibGVkPSIxLjAiIG9z
        YzFQdWxzZVdpZHRoTGZvU2hhcGU9IjEuMCIgb3NjMVB1bHNlV2lkdGhMZm9BbXBsaXR1ZGU9IjEuMCIgb3NjMVB1bHNlV2lkdGhMZm9GcmVxdWVuY3k9IjAuMDk5OTk5
        OTk0MDM5NTM1NTIiIG9zYzFQaXRjaD0iMC4wIiBvc2MxUGl0Y2hFbmFibGVkPSIwLjAiIG9zYzFQaXRjaEFkc3JFbmFibGVkPSIwLjAiIG9zYzFQaXRjaEF0dGFjaz0i
        MC4wIiBvc2MxUGl0Y2hEZWNheT0iMC4wIiBvc2MxUGl0Y2hTdXN0YWluPSIwLjAiIG9zYzFQaXRjaFJlbGVhc2U9IjAuMCIgb3NjMVBpdGNoTGZvRW5hYmxlZD0iMC4w
        IiBvc2MxUGl0Y2hMZm9TaGFwZT0iMS4wIiBvc2MxUGl0Y2hMZm9BbXBsaXR1ZGU9IjAuMCIgb3NjMVBpdGNoTGZvRnJlcXVlbmN5PSIwLjAiIG9zYzFGaWx0ZXJDdXRv
        ZmZGcmVxdWVuY3k9Ijk5NzAuMCIgb3NjMUZpbHRlckN1dG9mZkZyZXF1ZW5jeUVuYWJsZWQ9IjEuMCIgb3NjMUZpbHRlckN1dG9mZkZyZXF1ZW5jeUFkc3JFbmFibGVk
        PSIwLjAiIG9zYzFGaWx0ZXJDdXRvZmZGcmVxdWVuY3lBdHRhY2s9IjAuMCIgb3NjMUZpbHRlckN1dG9mZkZyZXF1ZW5jeURlY2F5PSIwLjAiIG9zYzFGaWx0ZXJDdXRv
        ZmZGcmVxdWVuY3lTdXN0YWluPSIwLjAiIG9zYzFGaWx0ZXJDdXRvZmZGcmVxdWVuY3lSZWxlYXNlPSIwLjAiIG9zYzFGaWx0ZXJDdXRvZmZGcmVxdWVuY3lMZm9FbmFi
        bGVkPSIwLjAiIG9zYzFGaWx0ZXJDdXRvZmZGcmVxdWVuY3lMZm9TaGFwZT0iMS4wIiBvc2MxRmlsdGVyQ3V0b2ZmRnJlcXVlbmN5TGZvQW1wbGl0dWRlPSIwLjAiIG9z
        YzFGaWx0ZXJDdXRvZmZGcmVxdWVuY3lMZm9GcmVxdWVuY3k9IjAuMCIgb3NjMUZpbHRlclJlc29uYW5jZT0iMC4wIiBvc2MxRmlsdGVyUmVzb25hbmNlRW5hYmxlZD0i
        MC4wIiBvc2MxRmlsdGVyUmVzb25hbmNlQWRzckVuYWJsZWQ9IjAuMCIgb3NjMUZpbHRlclJlc29uYW5jZUF0dGFjaz0iMC4wIiBvc2MxRmlsdGVyUmVzb25hbmNlRGVj
        YXk9IjAuMCIgb3NjMUZpbHRlclJlc29uYW5jZVN1c3RhaW49IjAuMCIgb3NjMUZpbHRlclJlc29uYW5jZVJlbGVhc2U9IjAuMCIgb3NjMUZpbHRlclJlc29uYW5jZUxm
        b0VuYWJsZWQ9IjAuMCIgb3NjMUZpbHRlclJlc29uYW5jZUxmb1NoYXBlPSIxLjAiIG9zYzFGaWx0ZXJSZXNvbmFuY2VMZm9BbXBsaXR1ZGU9IjAuMCIgb3NjMUZpbHRl
        clJlc29uYW5jZUxmb0ZyZXF1ZW5jeT0iMC4wIiBvc2MxVm9sdW1lPSIwLjUiIG9zYzFWb2x1bWVFbmFibGVkPSIxLjAiIG9zYzFWb2x1bWVBZHNyRW5hYmxlZD0iMS4w
        IiBvc2MxVm9sdW1lQXR0YWNrPSIwLjAwNTAwMDAwMDM1MzkwMjU3OCIgb3NjMVZvbHVtZURlY2F5PSIwLjc1IiBvc2MxVm9sdW1lU3VzdGFpbj0iMC4wIiBvc2MxVm9s
        dW1lUmVsZWFzZT0iMC4wOTk5OTk5OTQwMzk1MzU1MiIgb3NjMVZvbHVtZUxmb0VuYWJsZWQ9IjAuMCIgb3NjMVZvbHVtZUxmb1NoYXBlPSIxLjAiIG9zYzFWb2x1bWVM
        Zm9BbXBsaXR1ZGU9IjAuMCIgb3NjMVZvbHVtZUxmb0ZyZXF1ZW5jeT0iMC4wIiBvc2MyRW5hYmxlZD0iMS4wIiBvc2MyV2F2ZWZvcm1TYXc9IjAuMCIgb3NjMldhdmVm
        b3JtU3F1YXJlPSIxLjAiIG9zYzJXYXZlZm9ybVB1bHNlPSIwLjAiIG9zYzJXYXZlZm9ybU5vaXNlPSIwLjAiIG9zYzJQdWxzZVdpZHRoPSIwLjk5MDAwMDAwOTUzNjc0
        MzIiIG9zYzJQdWxzZVdpZHRoRW5hYmxlZD0iMS4wIiBvc2MyUHVsc2VXaWR0aEFkc3JFbmFibGVkPSIwLjAiIG9zYzJQdWxzZVdpZHRoQXR0YWNrPSIwLjAiIG9zYzJQ
        dWxzZVdpZHRoRGVjYXk9IjAuMCIgb3NjMlB1bHNlV2lkdGhTdXN0YWluPSIwLjAiIG9zYzJQdWxzZVdpZHRoUmVsZWFzZT0iMC4wIiBvc2MyUHVsc2VXaWR0aExmb0Vu
        YWJsZWQ9IjEuMCIgb3NjMlB1bHNlV2lkdGhMZm9TaGFwZT0iMS4wIiBvc2MyUHVsc2VXaWR0aExmb0FtcGxpdHVkZT0iMS4wIiBvc2MyUHVsc2VXaWR0aExmb0ZyZXF1
        ZW5jeT0iMC4wOTk5OTk5OTQwMzk1MzU1MiIgb3NjMlBpdGNoPSIwLjAiIG9zYzJQaXRjaEVuYWJsZWQ9IjAuMCIgb3NjMlBpdGNoQWRzckVuYWJsZWQ9IjAuMCIgb3Nj
        MlBpdGNoQXR0YWNrPSIwLjAiIG9zYzJQaXRjaERlY2F5PSIwLjAiIG9zYzJQaXRjaFN1c3RhaW49IjAuMCIgb3NjMlBpdGNoUmVsZWFzZT0iMC4wIiBvc2MyUGl0Y2hM
        Zm9FbmFibGVkPSIwLjAiIG9zYzJQaXRjaExmb1NoYXBlPSIxLjAiIG9zYzJQaXRjaExmb0FtcGxpdHVkZT0iMC4wIiBvc2MyUGl0Y2hMZm9GcmVxdWVuY3k9IjAuMCIg
        b3NjMkZpbHRlckN1dG9mZkZyZXF1ZW5jeT0iMjAwMDAuMCIgb3NjMkZpbHRlckN1dG9mZkZyZXF1ZW5jeUVuYWJsZWQ9IjAuMCIgb3NjMkZpbHRlckN1dG9mZkZyZXF1
        ZW5jeUFkc3JFbmFibGVkPSIwLjAiIG9zYzJGaWx0ZXJDdXRvZmZGcmVxdWVuY3lBdHRhY2s9IjAuMCIgb3NjMkZpbHRlckN1dG9mZkZyZXF1ZW5jeURlY2F5PSIwLjAi
        IG9zYzJGaWx0ZXJDdXRvZmZGcmVxdWVuY3lTdXN0YWluPSIwLjAiIG9zYzJGaWx0ZXJDdXRvZmZGcmVxdWVuY3lSZWxlYXNlPSIwLjAiIG9zYzJGaWx0ZXJDdXRvZmZG
        cmVxdWVuY3lMZm9FbmFibGVkPSIwLjAiIG9zYzJGaWx0ZXJDdXRvZmZGcmVxdWVuY3lMZm9TaGFwZT0iMS4wIiBvc2MyRmlsdGVyQ3V0b2ZmRnJlcXVlbmN5TGZvQW1w
        bGl0dWRlPSIwLjAiIG9zYzJGaWx0ZXJDdXRvZmZGcmVxdWVuY3lMZm9GcmVxdWVuY3k9IjAuMCIgb3NjMkZpbHRlclJlc29uYW5jZT0iMC4wIiBvc2MyRmlsdGVyUmVz
        b25hbmNlRW5hYmxlZD0iMC4wIiBvc2MyRmlsdGVyUmVzb25hbmNlQWRzckVuYWJsZWQ9IjAuMCIgb3NjMkZpbHRlclJlc29uYW5jZUF0dGFjaz0iMC4wIiBvc2MyRmls
        dGVyUmVzb25hbmNlRGVjYXk9IjAuMCIgb3NjMkZpbHRlclJlc29uYW5jZVN1c3RhaW49IjAuMCIgb3NjMkZpbHRlclJlc29uYW5jZVJlbGVhc2U9IjAuMCIgb3NjMkZp
        bHRlclJlc29uYW5jZUxmb0VuYWJsZWQ9IjAuMCIgb3NjMkZpbHRlclJlc29uYW5jZUxmb1NoYXBlPSIxLjAiIG9zYzJGaWx0ZXJSZXNvbmFuY2VMZm9BbXBsaXR1ZGU9
        IjAuMCIgb3NjMkZpbHRlclJlc29uYW5jZUxmb0ZyZXF1ZW5jeT0iMC4wIiBvc2MyVm9sdW1lPSIwLjEwMDAwMDAwMTQ5MDExNjEiIG9zYzJWb2x1bWVFbmFibGVkPSIx
        LjAiIG9zYzJWb2x1bWVBZHNyRW5hYmxlZD0iMS4wIiBvc2MyVm9sdW1lQXR0YWNrPSIwLjAwNTAwMDAwMDM1MzkwMjU3OCIgb3NjMlZvbHVtZURlY2F5PSIyLjAiIG9z
        YzJWb2x1bWVTdXN0YWluPSIwLjAiIG9zYzJWb2x1bWVSZWxlYXNlPSIwLjAxMDAwMDAwMDcwNzgwNTE2IiBvc2MyVm9sdW1lTGZvRW5hYmxlZD0iMC4wIiBvc2MyVm9s
        dW1lTGZvU2hhcGU9IjEuMCIgb3NjMlZvbHVtZUxmb0FtcGxpdHVkZT0iMC4wIiBvc2MyVm9sdW1lTGZvRnJlcXVlbmN5PSIwLjAiIG9zYzNFbmFibGVkPSIxLjAiIG9z
        YzNXYXZlZm9ybVNhdz0iMC4wIiBvc2MzV2F2ZWZvcm1TcXVhcmU9IjEuMCIgb3NjM1dhdmVmb3JtUHVsc2U9IjAuMCIgb3NjM1dhdmVmb3JtTm9pc2U9IjAuMCIgb3Nj
        M1B1bHNlV2lkdGg9IjAuOTkwMDAwMDA5NTM2NzQzMiIgb3NjM1B1bHNlV2lkdGhFbmFibGVkPSIxLjAiIG9zYzNQdWxzZVdpZHRoQWRzckVuYWJsZWQ9IjAuMCIgb3Nj
        M1B1bHNlV2lkdGhBdHRhY2s9IjAuMCIgb3NjM1B1bHNlV2lkdGhEZWNheT0iMC4wIiBvc2MzUHVsc2VXaWR0aFN1c3RhaW49IjAuMCIgb3NjM1B1bHNlV2lkdGhSZWxl
        YXNlPSIwLjAiIG9zYzNQdWxzZVdpZHRoTGZvRW5hYmxlZD0iMS4wIiBvc2MzUHVsc2VXaWR0aExmb1NoYXBlPSIxLjAiIG9zYzNQdWxzZVdpZHRoTGZvQW1wbGl0dWRl
        PSIxLjAiIG9zYzNQdWxzZVdpZHRoTGZvRnJlcXVlbmN5PSIwLjA5OTk5OTk5NDAzOTUzNTUyIiBvc2MzUGl0Y2g9IjAuMCIgb3NjM1BpdGNoRW5hYmxlZD0iMC4wIiBv
        c2MzUGl0Y2hBZHNyRW5hYmxlZD0iMC4wIiBvc2MzUGl0Y2hBdHRhY2s9IjAuMCIgb3NjM1BpdGNoRGVjYXk9IjAuMCIgb3NjM1BpdGNoU3VzdGFpbj0iMC4wIiBvc2Mz
        UGl0Y2hSZWxlYXNlPSIwLjAiIG9zYzNQaXRjaExmb0VuYWJsZWQ9IjAuMCIgb3NjM1BpdGNoTGZvU2hhcGU9IjEuMCIgb3NjM1BpdGNoTGZvQW1wbGl0dWRlPSIwLjAi
        IG9zYzNQaXRjaExmb0ZyZXF1ZW5jeT0iMC4wIiBvc2MzRmlsdGVyQ3V0b2ZmRnJlcXVlbmN5PSIyMDAwMC4wIiBvc2MzRmlsdGVyQ3V0b2ZmRnJlcXVlbmN5RW5hYmxl
        ZD0iMC4wIiBvc2MzRmlsdGVyQ3V0b2ZmRnJlcXVlbmN5QWRzckVuYWJsZWQ9IjAuMCIgb3NjM0ZpbHRlckN1dG9mZkZyZXF1ZW5jeUF0dGFjaz0iMC4wIiBvc2MzRmls
        dGVyQ3V0b2ZmRnJlcXVlbmN5RGVjYXk9IjAuMCIgb3NjM0ZpbHRlckN1dG9mZkZyZXF1ZW5jeVN1c3RhaW49IjAuMCIgb3NjM0ZpbHRlckN1dG9mZkZyZXF1ZW5jeVJl
        bGVhc2U9IjAuMCIgb3NjM0ZpbHRlckN1dG9mZkZyZXF1ZW5jeUxmb0VuYWJsZWQ9IjAuMCIgb3NjM0ZpbHRlckN1dG9mZkZyZXF1ZW5jeUxmb1NoYXBlPSIxLjAiIG9z
        YzNGaWx0ZXJDdXRvZmZGcmVxdWVuY3lMZm9BbXBsaXR1ZGU9IjAuMCIgb3NjM0ZpbHRlckN1dG9mZkZyZXF1ZW5jeUxmb0ZyZXF1ZW5jeT0iMC4wIiBvc2MzRmlsdGVy
        UmVzb25hbmNlPSIwLjAiIG9zYzNGaWx0ZXJSZXNvbmFuY2VFbmFibGVkPSIwLjAiIG9zYzNGaWx0ZXJSZXNvbmFuY2VBZHNyRW5hYmxlZD0iMC4wIiBvc2MzRmlsdGVy
        UmVzb25hbmNlQXR0YWNrPSIwLjAiIG9zYzNGaWx0ZXJSZXNvbmFuY2VEZWNheT0iMC4wIiBvc2MzRmlsdGVyUmVzb25hbmNlU3VzdGFpbj0iMC4wIiBvc2MzRmlsdGVy
        UmVzb25hbmNlUmVsZWFzZT0iMC4wIiBvc2MzRmlsdGVyUmVzb25hbmNlTGZvRW5hYmxlZD0iMC4wIiBvc2MzRmlsdGVyUmVzb25hbmNlTGZvU2hhcGU9IjEuMCIgb3Nj
        M0ZpbHRlclJlc29uYW5jZUxmb0FtcGxpdHVkZT0iMC4wIiBvc2MzRmlsdGVyUmVzb25hbmNlTGZvRnJlcXVlbmN5PSIwLjAiIG9zYzNWb2x1bWU9IjAuMTAwMDAwMDAx
        NDkwMTE2MSIgb3NjM1ZvbHVtZUVuYWJsZWQ9IjEuMCIgb3NjM1ZvbHVtZUFkc3JFbmFibGVkPSIxLjAiIG9zYzNWb2x1bWVBdHRhY2s9IjAuMDA1MDAwMDAwMzUzOTAy
        NTc4IiBvc2MzVm9sdW1lRGVjYXk9IjEwLjAiIG9zYzNWb2x1bWVTdXN0YWluPSIwLjAiIG9zYzNWb2x1bWVSZWxlYXNlPSIwLjAxMDAwMDAwMDcwNzgwNTE2IiBvc2Mz
        Vm9sdW1lTGZvRW5hYmxlZD0iMC4wIiBvc2MzVm9sdW1lTGZvU2hhcGU9IjEuMCIgb3NjM1ZvbHVtZUxmb0FtcGxpdHVkZT0iMC4wIiBvc2MzVm9sdW1lTGZvRnJlcXVl
        bmN5PSIwLjAiIG9zYzRFbmFibGVkPSIxLjAiIG9zYzRXYXZlZm9ybVNhdz0iMC4wIiBvc2M0V2F2ZWZvcm1TcXVhcmU9IjEuMCIgb3NjNFdhdmVmb3JtUHVsc2U9IjAu
        MCIgb3NjNFdhdmVmb3JtTm9pc2U9IjAuMCIgb3NjNFB1bHNlV2lkdGg9IjAuOTkwMDAwMDA5NTM2NzQzMiIgb3NjNFB1bHNlV2lkdGhFbmFibGVkPSIxLjAiIG9zYzRQ
        dWxzZVdpZHRoQWRzckVuYWJsZWQ9IjAuMCIgb3NjNFB1bHNlV2lkdGhBdHRhY2s9IjAuMCIgb3NjNFB1bHNlV2lkdGhEZWNheT0iMC4wIiBvc2M0UHVsc2VXaWR0aFN1
        c3RhaW49IjAuMCIgb3NjNFB1bHNlV2lkdGhSZWxlYXNlPSIwLjAiIG9zYzRQdWxzZVdpZHRoTGZvRW5hYmxlZD0iMS4wIiBvc2M0UHVsc2VXaWR0aExmb1NoYXBlPSIx
        LjAiIG9zYzRQdWxzZVdpZHRoTGZvQW1wbGl0dWRlPSIxLjAiIG9zYzRQdWxzZVdpZHRoTGZvRnJlcXVlbmN5PSIwLjA5OTk5OTk5NDAzOTUzNTUyIiBvc2M0UGl0Y2g9
        IjAuMCIgb3NjNFBpdGNoRW5hYmxlZD0iMC4wIiBvc2M0UGl0Y2hBZHNyRW5hYmxlZD0iMC4wIiBvc2M0UGl0Y2hBdHRhY2s9IjAuMCIgb3NjNFBpdGNoRGVjYXk9IjAu
        MCIgb3NjNFBpdGNoU3VzdGFpbj0iMC4wIiBvc2M0UGl0Y2hSZWxlYXNlPSIwLjAiIG9zYzRQaXRjaExmb0VuYWJsZWQ9IjAuMCIgb3NjNFBpdGNoTGZvU2hhcGU9IjEu
        MCIgb3NjNFBpdGNoTGZvQW1wbGl0dWRlPSIwLjAiIG9zYzRQaXRjaExmb0ZyZXF1ZW5jeT0iMC4wIiBvc2M0RmlsdGVyQ3V0b2ZmRnJlcXVlbmN5PSIyMDAwMC4wIiBv
        c2M0RmlsdGVyQ3V0b2ZmRnJlcXVlbmN5RW5hYmxlZD0iMC4wIiBvc2M0RmlsdGVyQ3V0b2ZmRnJlcXVlbmN5QWRzckVuYWJsZWQ9IjAuMCIgb3NjNEZpbHRlckN1dG9m
        ZkZyZXF1ZW5jeUF0dGFjaz0iMC4wIiBvc2M0RmlsdGVyQ3V0b2ZmRnJlcXVlbmN5RGVjYXk9IjAuMCIgb3NjNEZpbHRlckN1dG9mZkZyZXF1ZW5jeVN1c3RhaW49IjAu
        MCIgb3NjNEZpbHRlckN1dG9mZkZyZXF1ZW5jeVJlbGVhc2U9IjAuMCIgb3NjNEZpbHRlckN1dG9mZkZyZXF1ZW5jeUxmb0VuYWJsZWQ9IjAuMCIgb3NjNEZpbHRlckN1
        dG9mZkZyZXF1ZW5jeUxmb1NoYXBlPSIxLjAiIG9zYzRGaWx0ZXJDdXRvZmZGcmVxdWVuY3lMZm9BbXBsaXR1ZGU9IjAuMCIgb3NjNEZpbHRlckN1dG9mZkZyZXF1ZW5j
        eUxmb0ZyZXF1ZW5jeT0iMC4wIiBvc2M0RmlsdGVyUmVzb25hbmNlPSIwLjAiIG9zYzRGaWx0ZXJSZXNvbmFuY2VFbmFibGVkPSIwLjAiIG9zYzRGaWx0ZXJSZXNvbmFu
        Y2VBZHNyRW5hYmxlZD0iMC4wIiBvc2M0RmlsdGVyUmVzb25hbmNlQXR0YWNrPSIwLjAiIG9zYzRGaWx0ZXJSZXNvbmFuY2VEZWNheT0iMC4wIiBvc2M0RmlsdGVyUmVz
        b25hbmNlU3VzdGFpbj0iMC4wIiBvc2M0RmlsdGVyUmVzb25hbmNlUmVsZWFzZT0iMC4wIiBvc2M0RmlsdGVyUmVzb25hbmNlTGZvRW5hYmxlZD0iMC4wIiBvc2M0Rmls
        dGVyUmVzb25hbmNlTGZvU2hhcGU9IjEuMCIgb3NjNEZpbHRlclJlc29uYW5jZUxmb0FtcGxpdHVkZT0iMC4wIiBvc2M0RmlsdGVyUmVzb25hbmNlTGZvRnJlcXVlbmN5
        PSIwLjAiIG9zYzRWb2x1bWU9IjAuMTAwMDAwMDAxNDkwMTE2MSIgb3NjNFZvbHVtZUVuYWJsZWQ9IjEuMCIgb3NjNFZvbHVtZUFkc3JFbmFibGVkPSIxLjAiIG9zYzRW
        b2x1bWVBdHRhY2s9IjAuMDA1MDAwMDAwMzUzOTAyNTc4IiBvc2M0Vm9sdW1lRGVjYXk9IjAuMCIgb3NjNFZvbHVtZVN1c3RhaW49IjAuMTAwMDAwMDAxNDkwMTE2MSIg
        b3NjNFZvbHVtZVJlbGVhc2U9IjAuMDEwMDAwMDAwNzA3ODA1MTYiIG9zYzRWb2x1bWVMZm9FbmFibGVkPSIwLjAiIG9zYzRWb2x1bWVMZm9TaGFwZT0iMS4wIiBvc2M0
        Vm9sdW1lTGZvQW1wbGl0dWRlPSIwLjAiIG9zYzRWb2x1bWVMZm9GcmVxdWVuY3k9IjAuMCIgZmlsdGVyRW5hYmxlZD0iMS4wIiBmaWx0ZXJDdXRvZmZGcmVxdWVuY3k9
        IjIwMDAwLjAiIGZpbHRlckN1dG9mZkZyZXF1ZW5jeUVuYWJsZWQ9IjEuMCIgZmlsdGVyUmVzb25hbmNlPSIwLjAiIGZpbHRlclJlc29uYW5jZUVuYWJsZWQ9IjAuMCIg
        YW1wbGl0dWRlRW5hYmxlZD0iMC4wIiBhbXBsaXR1ZGVBdHRhY2s9IjAuMTAwMDAwMDAxNDkwMTE2MSIgYW1wbGl0dWRlRGVjYXk9IjAuMTAwMDAwMDAxNDkwMTE2MSIg
        YW1wbGl0dWRlU3VzdGFpbj0iMC41IiBhbXBsaXR1ZGVSZWxlYXNlPSIwLjEwMDAwMDAwMTQ5MDExNjEiIHBvc2l0aW9uRW5hYmxlZD0iMS4wIiBwb3NpdGlvbkRpc3Rh
        bmNlVHlwZT0iMS4wIiBwb3NpdGlvbkRpcmVjdGlvblR5cGU9IjEuMCIgcG9zaXRpb25YWVpFbmFibGVkPSIxLjAiIHBvc2l0aW9uWD0iMC4wIiBwb3NpdGlvblk9IjAu
        MCIgcG9zaXRpb25DYXJ0ZXNpYW5aPSIwLjA5MDAwMDAzMzM3ODYwMTA3IiBwb3NpdGlvblhZX3h5cGFkX2lucHV0WD0iMTUxLjQwMTg0MDIwOTk2MDkiIHBvc2l0aW9u
        WFlfeHlwYWRfaW5wdXRZPSIxODYuMjI2NjY5MzExNTIzNCIgcG9zaXRpb25DYXJ0ZXNpYW5aX3h5cGFkX2lucHV0WD0iMC4wIiBwb3NpdGlvbkNhcnRlc2lhblpfeHlw
        YWRfaW5wdXRZPSIwLjAiIHBvc2l0aW9uTWF4WFlaPSIxMDAuMCIgcG9zaXRpb25NYXhYWVpfdnNsaWRlcj0iMTAwLjAiIHBvc2l0aW9uUlRaRW5hYmxlZD0iMS4wIiBw
        b3NpdGlvblI9IjAuOTAwMDAwMDk1MzY3NDMxNiIgcG9zaXRpb25UPSI2NC45NzI5MzA5MDgyMDMxMiIgcG9zaXRpb25Qb2xhclo9IjAuNDUzMDU0MDcwNDcyNzE3MyIg
        cG9zaXRpb25SVF94eXBhZF9pbnB1dFg9IjE0LjIxODk1Njk0NzMyNjY2IiBwb3NpdGlvblJUX3h5cGFkX2lucHV0WT0iMTU1LjA1MzEzMTEwMzUxNTYiIHBvc2l0aW9u
        UG9sYXJaX3h5cGFkX2lucHV0WD0iMC4wIiBwb3NpdGlvblBvbGFyWl94eXBhZF9pbnB1dFk9IjAuMCIgcG9zaXRpb25NYXhSWj0iMTAwLjAiIHBvc2l0aW9uTWF4Ulpf
        dnNsaWRlcj0iMTAwLjAiLz48L0NBQkJBR0VfUFJFU0VUUz4AAAAAAAAAAABKVUNFUHJpdmF0ZURhdGEAAQFCeXBhc3MAAQEDAB0AAAAAAAAASlVDRVByaXZhdGVEYXRh
        AAAAAAAAAAA=
        AAAQAAAA
      >
      FLOATPOS 920 510 1000 570
      FXID {313F7B1E-26B6-B74B-991F-E4A6BD6ABEDC}
      <PARMENV 284:284 0 1 0.5
        EGUID {F2F50207-4422-6549-8B72-DCA7ABD8CBFF}
        ACT 1 -1
        VIS 1 1 1
        LANEHEIGHT 0 0
        ARM 0
        DEFSHAPE 0 -1 -1
        PT 0 0.95000005 0
        PT 0 0.95000002 0 0 1
        PT 92.5 0.95000002 0 0 1
        PT 122 0.75000002 0 0 1
      >
      <PARMENV 285:285 0 1 0.5
        EGUID {28DBEF70-A6BB-0D4F-A925-68C3D3EFB6B4}
        ACT 1 -1
        VIS 1 1 1
        LANEHEIGHT 0 0
        ARM 0
        DEFSHAPE 0 -1 -1
        PT 0 1 0
        PT 0 0 0 0 1
      >
      <PROGRAMENV 285:285 0
        PARAMBASE 0
        LFO 1
        LFOWT 1 1
        AUDIOCTL 0
        AUDIOCTLWT 1 1
        LFOSHAPE 3
        LFOSYNC 0 0 0
        LFOSPEED 0.010767 0.5
        MODWND 0 1059 581 1446 966
      >
      <PARMENV 286:286 0 1 0.5
        EGUID {D5DD31E2-B29E-3C4B-B703-7550FF3286DD}
        ACT 1 -1
        VIS 1 1 1
        LANEHEIGHT 0 0
        ARM 0
        DEFSHAPE 0 -1 -1
        PT 0 0.5 0 0 1
      >
      <PROGRAMENV 286:286 0
        PARAMBASE 0
        LFO 1
        LFOWT 0.5 0
        AUDIOCTL 0
        AUDIOCTLWT 1 1
        LFOSHAPE 0
        LFOSYNC 0 0 0
        LFOSPEED 0.010767 0.25
        MODWND 0 1447 581 1834 966
      >
      WAK 0 0
    >
    <ITEM
      POSITION 3.9649999999674
      SNAPOFFS 0
      LENGTH 124.0350000000326
      LOOP 1
      ALLTAKES 0
      FADEIN 1 0 0 1 0 0 0
      FADEOUT 1 0 0 1 0 0 0
      MUTE 0 0
      SEL 1
      IGUID {0B042405-37E8-8D4A-972A-07B213A15672}
      IID 75
      NAME "07-Piano - high [2]-Recorded MIDI-glued"
      VOLPAN 1 0 1 -1
      SOFFS 0 0
      PLAYRATE 1 1 0 -1 0 0.0025
      CHANMODE 0
      GUID {5D9F342E-AC53-C74B-8F0A-736529B87E39}
      <SOURCE MIDI
        HASDATA 1 960 QN
        CCINTERP 32
        POOLEDEVTS {69AC4BAD-1671-2645-BF6D-479E6076C152}
        E 165162 90 3e 04
        E 186 80 3e 00
        E 45 90 40 04
        E 198 80 40 00
        E 47 90 3e 07
        E 190 80 3e 00
        E 38 90 40 0c
        E 207 80 40 00
        E 48 90 3e 0e
        E 168 80 3e 00
        E 46 90 40 10
        E 209 80 40 00
        E 37 90 3e 12
        E 205 80 3e 00
        E 31 90 40 16
        E 45 80 40 00
        E 213 90 40 17
        E 182 80 40 00
        E 52 90 42 1a
        E 190 80 42 00
        E 30 90 40 1c
        E 200 80 40 00
        E 47 90 42 1c
        E 193 80 42 00
        E 30 90 40 1e
        E 196 80 40 00
        E 47 90 42 20
        E 192 80 42 00
        E 46 90 40 21
        E 51 80 40 00
        E 83 90 40 23
        E 67 80 40 00
        E 33 90 42 28
        E 57 80 42 00
        E 202 90 42 2a
        E 43 80 42 00
        E 78 90 42 2a
        E 97 80 42 00
        E 40 90 43 2b
        E 192 80 43 00
        E 24 90 42 31
        E 44 80 42 00
        E 90 90 42 31
        E 90 80 42 00
        E 23 90 43 32
        E 201 80 43 00
        E 41 90 42 36
        E 201 80 42 00
        E 30 90 43 3b
        E 234 80 43 00
        E 19 90 42 3b
        E 202 80 42 00
        E 24 90 43 40
        E 247 80 43 00
        E 18 90 42 40
        E 207 80 42 00
        E 19 90 43 43
        E 226 80 43 00
        E 12 90 42 46
        E 213 80 42 00
        E 20 90 43 49
        E 251 80 43 00
        E 21 90 42 4a
        E 174 80 42 00
        E 24 90 43 4b
        E 306 80 43 00
        E 3 90 42 49
        E 192 80 42 00
        E 20 90 43 4a
        E 60 80 43 00
        E 179 90 3e 41
        E 246 80 3e 00
        E 15 90 40 41
        E 201 80 40 00
        E 25 90 3e 44
        E 52 80 3e 00
        E 79 90 3e 05
        E 70 80 3e 00
        E 10 90 40 43
        E 216 80 40 00
        E 34 90 3e 45
        E 219 80 3e 00
        E 23 90 40 3f
        E 230 80 40 00
        E 27 90 3e 3d
        E 227 80 3e 00
        E 9 90 40 42
        E 48 80 40 00
        E 186 90 40 48
        E 190 80 40 00
        E 54 90 42 42
        E 196 80 42 00
        E 39 90 40 45
        E 48 80 40 00
        E 83 90 40 13
        E 69 80 40 00
        E 36 90 42 42
        E 204 80 42 00
        E 36 90 40 3b
        E 196 80 40 00
        E 37 90 42 3e
        E 179 80 42 00
        E 42 90 40 41
        E 230 80 40 00
        E 29 90 42 46
        E 114 80 42 00
        E 136 90 42 48
        E 222 80 42 00
        E 35 90 43 3f
        E 217 80 43 00
        E 15 90 42 40
        E 221 80 42 00
        E 12 90 43 42
        E 229 80 43 00
        E 16 90 42 40
        E 218 80 42 00
        E 12 90 43 3e
        E 225 80 43 00
        E 15 90 42 42
        E 228 80 42 00
        E 12 90 43 40
        E 228 80 43 00
        E 13 90 42 45
        E 213 80 42 00
        E 16 90 43 3c
        E 209 80 43 00
        E 27 90 42 3e
        E 216 80 42 00
        E 18 90 43 3f
        E 227 80 43 00
        E 23 90 42 3f
        E 219 80 42 00
        E 20 90 43 38
        E 232 80 43 00
        E 30 90 42 3f
        E 208 80 42 00
        E 25 90 43 3e
        E 41 80 43 00
        E 194 90 3e 48
        E 200 80 3e 00
        E 41 90 40 41
        E 215 80 40 00
        E 39 90 3e 3a
        E 191 80 3e 00
        E 33 90 40 3b
        E 222 80 40 00
        E 36 90 3e 37
        E 168 80 3e 00
        E 31 90 40 31
        E 240 80 40 00
        E 37 90 3e 39
        E 184 80 3e 00
        E 19 90 40 46
        E 140 80 40 00
        E 117 90 3c 4c
        E 215 80 3c 00
        E 37 90 3e 3a
        E 220 80 3e 00
        E 13 90 3c 49
        E 46 80 3c 00
        E 74 90 3c 09
        E 106 80 3c 00
        E 17 90 3e 3f
        E 224 80 3e 00
        E 14 90 3c 47
        E 205 80 3c 00
        E 18 90 3e 3f
        E 214 80 3e 00
        E 23 90 3c 41
        E 221 80 3c 00
        E 35 90 3e 41
        E 82 80 3e 00
        E 157 90 3e 48
        E 190 80 3e 00
        E 45 90 40 3b
        E 216 80 40 00
        E 30 90 3e 41
        E 202 80 3e 00
        E 18 90 40 41
        E 229 80 40 00
        E 14 90 3e 46
        E 65 80 3e 00
        E 79 90 3e 01
        E 77 80 3e 00
        E 19 90 40 3f
        E 236 80 40 00
        E 21 90 3e 3c
        E 197 80 3e 00
        E 31 90 40 3e
        E 145 80 40 00
        E 98 90 3c 46
        E 199 80 3c 00
        E 67 90 3e 2e
        E 208 80 3e 00
        E 23 90 3c 43
        E 200 80 3c 00
        E 23 90 3e 39
        E 221 80 3e 00
        E 21 90 3c 3e
        E 196 80 3c 00
        E 34 90 3e 37
        E 221 80 3e 00
        E 23 90 3c 3c
        E 230 80 3c 00
        E 15 90 3e 3d
        E 47 80 3e 00
        E 172 90 3e 47
        E 224 80 3e 00
        E 45 90 40 36
        E 195 80 40 00
        E 34 90 3e 44
        E 209 80 3e 00
        E 32 90 40 33
        E 229 80 40 00
        E 11 90 3e 43
        E 218 80 3e 00
        E 22 90 40 3b
        E 238 80 40 00
        E 29 90 3e 3a
        E 231 80 3e 00
        E 13 90 40 40
        E 50 80 40 00
        E 170 90 40 47
        E 195 80 40 00
        E 51 90 42 3e
        E 212 80 42 00
        E 29 90 40 44
        E 201 80 40 00
        E 41 90 42 3c
        E 196 80 42 00
        E 42 90 40 41
        E 204 80 40 00
        E 37 90 42 42
        E 162 80 42 00
        E 72 90 40 46
        E 237 80 40 00
        E 21 90 42 4b
        E 107 80 42 00
        E 132 90 42 47
        E 212 80 42 00
        E 33 90 43 3e
        E 206 80 43 00
        E 20 90 42 43
        E 221 80 42 00
        E 19 90 43 44
        E 209 80 43 00
        E 22 90 42 43
        E 235 80 42 00
        E 17 90 43 43
        E 219 80 43 00
        E 17 90 42 43
        E 235 80 42 00
        E 8 90 43 3f
        E 231 80 43 00
        E 4 90 42 45
        E 225 80 42 00
        E 14 90 43 41
        E 232 80 43 00
        E 11 90 42 46
        E 230 80 42 00
        E 5 90 43 41
        E 228 80 43 00
        E 9 90 42 48
        E 219 80 42 00
        E 16 90 43 47
        E 239 80 43 00
        E 5 90 42 46
        E 242 80 42 00
        E 13 90 43 44
        E 43 80 43 00
        E 198 90 45 4a
        E 222 80 45 00
        E 18 90 47 3d
        E 204 80 47 00
        E 29 90 45 42
        E 215 80 45 00
        E 23 90 47 40
        E 198 80 47 00
        E 37 90 45 3d
        E 190 80 45 00
        E 33 90 47 41
        E 229 80 47 00
        E 27 90 45 3f
        E 227 80 45 00
        E 20 90 47 49
        E 94 80 47 00
        E 130 90 43 4f
        E 244 80 43 00
        E 20 90 45 3a
        E 204 80 45 00
        E 21 90 43 44
        E 220 80 43 00
        E 6 90 45 41
        E 250 80 45 00
        E 15 90 43 3d
        E 196 80 43 00
        E 28 90 45 3f
        E 236 80 45 00
        E 20 90 43 41
        E 232 80 43 00
        E 22 90 45 3f
        E 63 80 45 00
        E 155 90 42 43
        E 50 80 42 00
        E 56 90 42 02
        E 108 80 42 00
        E 32 90 43 35
        E 225 80 43 00
        E 24 90 42 3d
        E 206 80 42 00
        E 24 90 43 39
        E 220 80 43 00
        E 15 90 42 40
        E 227 80 42 00
        E 12 90 43 38
        E 224 80 43 00
        E 16 90 42 40
        E 221 80 42 00
        E 11 90 43 3d
        E 224 80 43 00
        E 22 90 42 44
        E 229 80 42 00
        E 13 90 43 38
        E 237 80 43 00
        E 13 90 42 45
        E 234 80 42 00
        E 2 90 43 3e
        E 240 80 43 00
        E 6 90 42 47
        E 220 80 42 00
        E 21 90 43 3d
        E 226 80 43 00
        E 18 90 42 41
        E 229 80 42 00
        E 10 90 43 40
        E 45 80 43 00
        E 184 90 45 47
        E 244 80 45 00
        E 11 90 47 3a
        E 216 80 47 00
        E 24 90 45 44
        E 215 80 45 00
        E 12 90 47 42
        E 212 80 47 00
        E 45 90 45 44
        E 193 80 45 00
        E 25 90 47 3c
        E 229 80 47 00
        E 40 90 45 42
        E 206 80 45 00
        E 14 90 47 41
        E 75 80 47 00
        E 145 90 43 45
        E 211 80 43 00
        E 50 90 45 3b
        E 197 80 45 00
        E 35 90 43 45
        E 209 80 43 00
        E 25 90 45 3c
        E 229 80 45 00
        E 20 90 43 44
        E 221 80 43 00
        E 10 90 45 3f
        E 222 80 45 00
        E 27 90 43 40
        E 226 80 43 00
        E 21 90 45 44
        E 67 80 45 00
        E 154 90 42 44
        E 230 80 42 00
        E 19 90 43 40
        E 235 80 43 00
        E 9 90 42 45
        E 221 80 42 00
        E 13 90 43 3e
        E 239 80 43 00
        E 7 90 42 45
        E 228 80 42 00
        E 14 90 43 3e
        E 227 80 43 00
        E 5 90 42 43
        E 227 80 42 00
        E 6 90 43 3f
        E 233 80 43 00
        E 14 90 42 43
        E 213 80 42 00
        E 20 90 43 3a
        E 245 80 43 00
        E 6 90 42 43
        E 236 80 42 00
        E 12 90 43 3e
        E 240 90 42 48
        E 14 80 43 00
        E 189 80 42 00
        E 11 90 43 40
        E 253 80 43 00
        E 9 90 42 43
        E 146 80 42 00
        E 72 90 42 2b
        E 236 80 42 00
        E 44 90 4a 49
        E 66 80 4a 00
        E 164 90 4c 4c
        E 53 80 4c 00
        E 175 90 4a 4c
        E 35 80 4a 00
        E 189 90 4c 4a
        E 39 80 4c 00
        E 205 90 4a 4f
        E 35 80 4a 00
        E 206 90 4c 4e
        E 41 80 4c 00
        E 195 90 4a 4f
        E 31 80 4a 00
        E 189 90 4c 4e
        E 52 80 4c 00
        E 206 90 4a 53
        E 35 80 4a 00
        E 215 90 4c 4f
        E 71 80 4c 00
        E 171 90 4a 5b
        E 39 80 4a 00
        E 199 90 4c 4e
        E 73 80 4c 00
        E 165 90 4a 5a
        E 47 80 4a 00
        E 193 90 4c 48
        E 43 80 4c 00
        E 184 90 4a 58
        E 36 80 4a 00
        E 205 90 4c 4d
        E 45 80 4c 00
        E 193 90 4c 53
        E 63 80 4c 00
        E 181 90 4e 48
        E 30 80 4e 00
        E 212 90 4c 59
        E 39 80 4c 00
        E 205 90 4e 4e
        E 28 80 4e 00
        E 213 90 4c 54
        E 39 80 4c 00
        E 214 90 4e 4e
        E 26 80 4e 00
        E 206 90 4c 58
        E 39 80 4c 00
        E 195 90 4e 4d
        E 30 80 4e 00
        E 208 90 4c 50
        E 36 80 4c 00
        E 205 90 4e 4d
        E 31 80 4e 00
        E 201 90 4c 58
        E 37 80 4c 00
        E 200 90 4e 4e
        E 27 80 4e 00
        E 207 90 4c 5a
        E 59 80 4c 00
        E 189 90 4e 4b
        E 28 80 4e 00
        E 195 90 4c 4d
        E 38 80 4c 00
        E 208 90 4e 4d
        E 26 80 4e 00
        E 212 90 4e 4e
        E 28 80 4e 00
        E 228 90 4f 42
        E 38 80 4f 00
        E 195 90 4e 51
        E 29 80 4e 00
        E 215 90 4f 56
        E 58 80 4f 00
        E 185 90 4e 4d
        E 32 80 4e 00
        E 207 90 4f 4e
        E 44 80 4f 00
        E 202 90 4e 4e
        E 30 80 4e 00
        E 220 90 4f 4b
        E 57 80 4f 00
        E 180 90 4e 54
        E 38 80 4e 00
        E 207 90 4f 53
        E 65 80 4f 00
        E 169 90 4e 4f
        E 33 80 4e 00
        E 200 90 4f 4f
        E 52 80 4f 00
        E 180 90 4e 50
        E 36 80 4e 00
        E 195 90 4f 51
        E 53 80 4f 00
        E 181 90 4e 4c
        E 34 80 4e 00
        E 207 90 4f 54
        E 53 80 4f 00
        E 185 90 4e 4e
        E 38 80 4e 00
        E 202 90 4f 4f
        E 57 80 4f 00
        E 178 90 4e 51
        E 38 80 4e 00
        E 205 90 4f 55
        E 54 80 4f 00
        E 192 90 4e 50
        E 33 80 4e 00
        E 203 90 4f 53
        E 69 80 4f 00
        E 181 90 4e 4d
        E 29 80 4e 00
        E 214 90 4f 5c
        E 63 80 4f 00
        E 183 90 4e 4d
        E 40 80 4e 00
        E 201 90 4f 4e
        E 76 80 4f 00
        E 161 90 4e 4c
        E 27 80 4e 00
        E 202 90 4f 55
        E 50 80 4f 00
        E 195 90 4e 48
        E 30 80 4e 00
        E 210 90 4f 50
        E 51 80 4f 00
        E 195 90 4e 46
        E 34 80 4e 00
        E 219 90 4f 4d
        E 45 80 4f 00
        E 201 90 5a 28
        E 53 80 5a 00
        E 11504 b0 7b 00
        CCINTERP 32
        CHASE_CC_TAKEOFFS 1
        GUID {73F2F5DE-7AF8-AF40-9F95-1BB7E94C0EA6}
        IGNTEMPO 0 120 4 4
        SRCCOLOR 151
        VELLANE -1 100 0
        VELLANE 64 100 0
        CFGEDITVIEW 153214.252445 0.0604 40 14 0 -1 0 0 0 0.5
        KEYSNAP 0
        TRACKSEL 0
        EVTFILTER 0 -1 -1 -1 -1 0 0 0 0 -1 -1 -1 -1 0 -1 0 -1 -1
        CFGEDIT 1 1 0 1 0 0 1 1 1 1 1 0.125 0 0 1856 1055 0 0 0 0 0 0 0 0 0 0.5 0 0 1 64
      >
    >
  >
  <TRACK {096DF974-5768-E64C-A1F1-D4680BD2970A}
    NAME "Synth - low - 1"
    PEAKCOL 16576
    BEAT -1
    AUTOMODE 0
    VOLPAN 0.86872391523433 0 -1 -1 1
    MUTESOLO 0 0 0
    IPHASE 0
    PLAYOFFS 0 1
    ISBUS 0 0
    BUSCOMP 0 0 0 0 0
    SHOWINMIX 1 0.6667 0.5 1 0.5 0 -1 0
    FREEMODE 0
    SEL 0
    REC 0 5088 1 0 0 0 0
    VU 2
    TRACKHEIGHT 0 0 0 0 0 0
    INQ 0 0 0 0.5 100 0 0 100
    NCHAN 6
    FX 1
    TRACKID {096DF974-5768-E64C-A1F1-D4680BD2970A}
    PERF 0
    MIDIOUT -1
    MAINSEND 0 0
    <FXCHAIN
      WNDRECT 570 313 1231 598
      SHOW 0
      LASTSEL 0
      DOCKED 0
      BYPASS 0 0 0
      <VST "VST3i: SubtractiveSynth (CabbageAudio)" SubtractiveSynth.vst3 0 "" 80830264{ABCDEF019182FAEB4361626230303130} ""
        OF/RBO5e7f4AAAAABgAAAAEAAAAAAAAAAgAAAAAAAAAEAAAAAAAAAAgAAAAAAAAAEAAAAAAAAAAgAAAAAAAAADsjAAABAAAA//8QAA==
        KyMAAAEAAABWQzIh5iIAADw/eG1sIHZlcnNpb249IjEuMCIgZW5jb2Rpbmc9IlVURi04Ij8+IDxDQUJCQUdFX1BSRVNFVFM+PFBSRVNFVDAgUHJlc2V0TmFtZT0iQ0FC
        QkFHRV9QUkVTRVRTIDAiIGluc3RhbmNlTmFtZT0iIiB0cmFja0luZGV4PSIzIiBwbHVnaW5JbmRleD0iMCIgZmlyc3RfdGFiX2J1Z193b3JrYXJvdW5kX3RhYj0iMC4w
        IiBzODhfdGFiPSIwLjAiIG9zYzFfdGFiPSIwLjAiIG9zYzJfdGFiPSIwLjAiIG9zYzNfdGFiPSIwLjAiIG9zYzRfdGFiPSIwLjAiIGZpbHRlcl90YWI9IjAuMCIgYW1w
        bGl0dWRlX3RhYj0iMC4wIiBwb3NpdGlvbl90YWI9IjEuMCIgbG9nX3RhYj0iMC4wIiBTODhfa25vYl8xPSIwLjAiIFM4OF9rbm9iXzI9IjAuMCIgUzg4X2tub2JfMz0i
        MC4wIiBTODhfa25vYl80PSIwLjAiIFM4OF9rbm9iXzU9IjAuMCIgUzg4X2tub2JfNj0iMC4wIiBTODhfa25vYl83PSIwLjAiIFM4OF9rbm9iXzg9IjAuMCIgUzg4X3Bp
        dGNoYmVuZD0iMC4wIiBTODhfbW9kd2hlZWw9IjAuMCIgb3NjMUVuYWJsZWQ9IjEuMCIgb3NjMVdhdmVmb3JtU2F3PSIwLjAiIG9zYzFXYXZlZm9ybVNxdWFyZT0iMS4w
        IiBvc2MxV2F2ZWZvcm1QdWxzZT0iMC4wIiBvc2MxV2F2ZWZvcm1Ob2lzZT0iMC4wIiBvc2MxUHVsc2VXaWR0aD0iMC45OTAwMDAwMDk1MzY3NDMyIiBvc2MxUHVsc2VX
        aWR0aEVuYWJsZWQ9IjEuMCIgb3NjMVB1bHNlV2lkdGhBZHNyRW5hYmxlZD0iMC4wIiBvc2MxUHVsc2VXaWR0aEF0dGFjaz0iMC4wIiBvc2MxUHVsc2VXaWR0aERlY2F5
        PSIwLjAiIG9zYzFQdWxzZVdpZHRoU3VzdGFpbj0iMC4wIiBvc2MxUHVsc2VXaWR0aFJlbGVhc2U9IjAuMCIgb3NjMVB1bHNlV2lkdGhMZm9FbmFibGVkPSIxLjAiIG9z
        YzFQdWxzZVdpZHRoTGZvU2hhcGU9IjEuMCIgb3NjMVB1bHNlV2lkdGhMZm9BbXBsaXR1ZGU9IjEuMCIgb3NjMVB1bHNlV2lkdGhMZm9GcmVxdWVuY3k9IjAuMDk5OTk5
        OTk0MDM5NTM1NTIiIG9zYzFQaXRjaD0iMC4wIiBvc2MxUGl0Y2hFbmFibGVkPSIwLjAiIG9zYzFQaXRjaEFkc3JFbmFibGVkPSIwLjAiIG9zYzFQaXRjaEF0dGFjaz0i
        MC4wIiBvc2MxUGl0Y2hEZWNheT0iMC4wIiBvc2MxUGl0Y2hTdXN0YWluPSIwLjAiIG9zYzFQaXRjaFJlbGVhc2U9IjAuMCIgb3NjMVBpdGNoTGZvRW5hYmxlZD0iMC4w
        IiBvc2MxUGl0Y2hMZm9TaGFwZT0iMS4wIiBvc2MxUGl0Y2hMZm9BbXBsaXR1ZGU9IjAuMCIgb3NjMVBpdGNoTGZvRnJlcXVlbmN5PSIwLjAiIG9zYzFGaWx0ZXJDdXRv
        ZmZGcmVxdWVuY3k9Ijk5NzAuMCIgb3NjMUZpbHRlckN1dG9mZkZyZXF1ZW5jeUVuYWJsZWQ9IjEuMCIgb3NjMUZpbHRlckN1dG9mZkZyZXF1ZW5jeUFkc3JFbmFibGVk
        PSIwLjAiIG9zYzFGaWx0ZXJDdXRvZmZGcmVxdWVuY3lBdHRhY2s9IjAuMCIgb3NjMUZpbHRlckN1dG9mZkZyZXF1ZW5jeURlY2F5PSIwLjAiIG9zYzFGaWx0ZXJDdXRv
        ZmZGcmVxdWVuY3lTdXN0YWluPSIwLjAiIG9zYzFGaWx0ZXJDdXRvZmZGcmVxdWVuY3lSZWxlYXNlPSIwLjAiIG9zYzFGaWx0ZXJDdXRvZmZGcmVxdWVuY3lMZm9FbmFi
        bGVkPSIwLjAiIG9zYzFGaWx0ZXJDdXRvZmZGcmVxdWVuY3lMZm9TaGFwZT0iMS4wIiBvc2MxRmlsdGVyQ3V0b2ZmRnJlcXVlbmN5TGZvQW1wbGl0dWRlPSIwLjAiIG9z
        YzFGaWx0ZXJDdXRvZmZGcmVxdWVuY3lMZm9GcmVxdWVuY3k9IjAuMCIgb3NjMUZpbHRlclJlc29uYW5jZT0iMC4wIiBvc2MxRmlsdGVyUmVzb25hbmNlRW5hYmxlZD0i
        MC4wIiBvc2MxRmlsdGVyUmVzb25hbmNlQWRzckVuYWJsZWQ9IjAuMCIgb3NjMUZpbHRlclJlc29uYW5jZUF0dGFjaz0iMC4wIiBvc2MxRmlsdGVyUmVzb25hbmNlRGVj
        YXk9IjAuMCIgb3NjMUZpbHRlclJlc29uYW5jZVN1c3RhaW49IjAuMCIgb3NjMUZpbHRlclJlc29uYW5jZVJlbGVhc2U9IjAuMCIgb3NjMUZpbHRlclJlc29uYW5jZUxm
        b0VuYWJsZWQ9IjAuMCIgb3NjMUZpbHRlclJlc29uYW5jZUxmb1NoYXBlPSIxLjAiIG9zYzFGaWx0ZXJSZXNvbmFuY2VMZm9BbXBsaXR1ZGU9IjAuMCIgb3NjMUZpbHRl
        clJlc29uYW5jZUxmb0ZyZXF1ZW5jeT0iMC4wIiBvc2MxVm9sdW1lPSIxLjAiIG9zYzFWb2x1bWVFbmFibGVkPSIxLjAiIG9zYzFWb2x1bWVBZHNyRW5hYmxlZD0iMS4w
        IiBvc2MxVm9sdW1lQXR0YWNrPSIwLjAwNTAwMDAwMDM1MzkwMjU3OCIgb3NjMVZvbHVtZURlY2F5PSIwLjc1IiBvc2MxVm9sdW1lU3VzdGFpbj0iMC4wIiBvc2MxVm9s
        dW1lUmVsZWFzZT0iMC4wOTk5OTk5OTQwMzk1MzU1MiIgb3NjMVZvbHVtZUxmb0VuYWJsZWQ9IjAuMCIgb3NjMVZvbHVtZUxmb1NoYXBlPSIxLjAiIG9zYzFWb2x1bWVM
        Zm9BbXBsaXR1ZGU9IjAuMCIgb3NjMVZvbHVtZUxmb0ZyZXF1ZW5jeT0iMC4wIiBvc2MyRW5hYmxlZD0iMS4wIiBvc2MyV2F2ZWZvcm1TYXc9IjAuMCIgb3NjMldhdmVm
        b3JtU3F1YXJlPSIxLjAiIG9zYzJXYXZlZm9ybVB1bHNlPSIwLjAiIG9zYzJXYXZlZm9ybU5vaXNlPSIwLjAiIG9zYzJQdWxzZVdpZHRoPSIwLjk5MDAwMDAwOTUzNjc0
        MzIiIG9zYzJQdWxzZVdpZHRoRW5hYmxlZD0iMS4wIiBvc2MyUHVsc2VXaWR0aEFkc3JFbmFibGVkPSIwLjAiIG9zYzJQdWxzZVdpZHRoQXR0YWNrPSIwLjAiIG9zYzJQ
        dWxzZVdpZHRoRGVjYXk9IjAuMCIgb3NjMlB1bHNlV2lkdGhTdXN0YWluPSIwLjAiIG9zYzJQdWxzZVdpZHRoUmVsZWFzZT0iMC4wIiBvc2MyUHVsc2VXaWR0aExmb0Vu
        YWJsZWQ9IjEuMCIgb3NjMlB1bHNlV2lkdGhMZm9TaGFwZT0iMS4wIiBvc2MyUHVsc2VXaWR0aExmb0FtcGxpdHVkZT0iMS4wIiBvc2MyUHVsc2VXaWR0aExmb0ZyZXF1
        ZW5jeT0iMC4wOTk5OTk5OTQwMzk1MzU1MiIgb3NjMlBpdGNoPSIwLjAiIG9zYzJQaXRjaEVuYWJsZWQ9IjAuMCIgb3NjMlBpdGNoQWRzckVuYWJsZWQ9IjAuMCIgb3Nj
        MlBpdGNoQXR0YWNrPSIwLjAiIG9zYzJQaXRjaERlY2F5PSIwLjAiIG9zYzJQaXRjaFN1c3RhaW49IjAuMCIgb3NjMlBpdGNoUmVsZWFzZT0iMC4wIiBvc2MyUGl0Y2hM
        Zm9FbmFibGVkPSIwLjAiIG9zYzJQaXRjaExmb1NoYXBlPSIxLjAiIG9zYzJQaXRjaExmb0FtcGxpdHVkZT0iMC4wIiBvc2MyUGl0Y2hMZm9GcmVxdWVuY3k9IjAuMCIg
        b3NjMkZpbHRlckN1dG9mZkZyZXF1ZW5jeT0iMjAwMDAuMCIgb3NjMkZpbHRlckN1dG9mZkZyZXF1ZW5jeUVuYWJsZWQ9IjAuMCIgb3NjMkZpbHRlckN1dG9mZkZyZXF1
        ZW5jeUFkc3JFbmFibGVkPSIwLjAiIG9zYzJGaWx0ZXJDdXRvZmZGcmVxdWVuY3lBdHRhY2s9IjAuMCIgb3NjMkZpbHRlckN1dG9mZkZyZXF1ZW5jeURlY2F5PSIwLjAi
        IG9zYzJGaWx0ZXJDdXRvZmZGcmVxdWVuY3lTdXN0YWluPSIwLjAiIG9zYzJGaWx0ZXJDdXRvZmZGcmVxdWVuY3lSZWxlYXNlPSIwLjAiIG9zYzJGaWx0ZXJDdXRvZmZG
        cmVxdWVuY3lMZm9FbmFibGVkPSIwLjAiIG9zYzJGaWx0ZXJDdXRvZmZGcmVxdWVuY3lMZm9TaGFwZT0iMS4wIiBvc2MyRmlsdGVyQ3V0b2ZmRnJlcXVlbmN5TGZvQW1w
        bGl0dWRlPSIwLjAiIG9zYzJGaWx0ZXJDdXRvZmZGcmVxdWVuY3lMZm9GcmVxdWVuY3k9IjAuMCIgb3NjMkZpbHRlclJlc29uYW5jZT0iMC4wIiBvc2MyRmlsdGVyUmVz
        b25hbmNlRW5hYmxlZD0iMC4wIiBvc2MyRmlsdGVyUmVzb25hbmNlQWRzckVuYWJsZWQ9IjAuMCIgb3NjMkZpbHRlclJlc29uYW5jZUF0dGFjaz0iMC4wIiBvc2MyRmls
        dGVyUmVzb25hbmNlRGVjYXk9IjAuMCIgb3NjMkZpbHRlclJlc29uYW5jZVN1c3RhaW49IjAuMCIgb3NjMkZpbHRlclJlc29uYW5jZVJlbGVhc2U9IjAuMCIgb3NjMkZp
        bHRlclJlc29uYW5jZUxmb0VuYWJsZWQ9IjAuMCIgb3NjMkZpbHRlclJlc29uYW5jZUxmb1NoYXBlPSIxLjAiIG9zYzJGaWx0ZXJSZXNvbmFuY2VMZm9BbXBsaXR1ZGU9
        IjAuMCIgb3NjMkZpbHRlclJlc29uYW5jZUxmb0ZyZXF1ZW5jeT0iMC4wIiBvc2MyVm9sdW1lPSIwLjIwMDAwMDAwMjk4MDIzMjIiIG9zYzJWb2x1bWVFbmFibGVkPSIx
        LjAiIG9zYzJWb2x1bWVBZHNyRW5hYmxlZD0iMS4wIiBvc2MyVm9sdW1lQXR0YWNrPSIwLjAwNTAwMDAwMDM1MzkwMjU3OCIgb3NjMlZvbHVtZURlY2F5PSIyLjAiIG9z
        YzJWb2x1bWVTdXN0YWluPSIwLjAiIG9zYzJWb2x1bWVSZWxlYXNlPSIwLjAxMDAwMDAwMDcwNzgwNTE2IiBvc2MyVm9sdW1lTGZvRW5hYmxlZD0iMC4wIiBvc2MyVm9s
        dW1lTGZvU2hhcGU9IjEuMCIgb3NjMlZvbHVtZUxmb0FtcGxpdHVkZT0iMC4wIiBvc2MyVm9sdW1lTGZvRnJlcXVlbmN5PSIwLjAiIG9zYzNFbmFibGVkPSIxLjAiIG9z
        YzNXYXZlZm9ybVNhdz0iMC4wIiBvc2MzV2F2ZWZvcm1TcXVhcmU9IjEuMCIgb3NjM1dhdmVmb3JtUHVsc2U9IjAuMCIgb3NjM1dhdmVmb3JtTm9pc2U9IjAuMCIgb3Nj
        M1B1bHNlV2lkdGg9IjAuOTkwMDAwMDA5NTM2NzQzMiIgb3NjM1B1bHNlV2lkdGhFbmFibGVkPSIxLjAiIG9zYzNQdWxzZVdpZHRoQWRzckVuYWJsZWQ9IjAuMCIgb3Nj
        M1B1bHNlV2lkdGhBdHRhY2s9IjAuMCIgb3NjM1B1bHNlV2lkdGhEZWNheT0iMC4wIiBvc2MzUHVsc2VXaWR0aFN1c3RhaW49IjAuMCIgb3NjM1B1bHNlV2lkdGhSZWxl
        YXNlPSIwLjAiIG9zYzNQdWxzZVdpZHRoTGZvRW5hYmxlZD0iMS4wIiBvc2MzUHVsc2VXaWR0aExmb1NoYXBlPSIxLjAiIG9zYzNQdWxzZVdpZHRoTGZvQW1wbGl0dWRl
        PSIxLjAiIG9zYzNQdWxzZVdpZHRoTGZvRnJlcXVlbmN5PSIwLjA5OTk5OTk5NDAzOTUzNTUyIiBvc2MzUGl0Y2g9IjAuMCIgb3NjM1BpdGNoRW5hYmxlZD0iMC4wIiBv
        c2MzUGl0Y2hBZHNyRW5hYmxlZD0iMC4wIiBvc2MzUGl0Y2hBdHRhY2s9IjAuMCIgb3NjM1BpdGNoRGVjYXk9IjAuMCIgb3NjM1BpdGNoU3VzdGFpbj0iMC4wIiBvc2Mz
        UGl0Y2hSZWxlYXNlPSIwLjAiIG9zYzNQaXRjaExmb0VuYWJsZWQ9IjAuMCIgb3NjM1BpdGNoTGZvU2hhcGU9IjEuMCIgb3NjM1BpdGNoTGZvQW1wbGl0dWRlPSIwLjAi
        IG9zYzNQaXRjaExmb0ZyZXF1ZW5jeT0iMC4wIiBvc2MzRmlsdGVyQ3V0b2ZmRnJlcXVlbmN5PSIyMDAwMC4wIiBvc2MzRmlsdGVyQ3V0b2ZmRnJlcXVlbmN5RW5hYmxl
        ZD0iMC4wIiBvc2MzRmlsdGVyQ3V0b2ZmRnJlcXVlbmN5QWRzckVuYWJsZWQ9IjAuMCIgb3NjM0ZpbHRlckN1dG9mZkZyZXF1ZW5jeUF0dGFjaz0iMC4wIiBvc2MzRmls
        dGVyQ3V0b2ZmRnJlcXVlbmN5RGVjYXk9IjAuMCIgb3NjM0ZpbHRlckN1dG9mZkZyZXF1ZW5jeVN1c3RhaW49IjAuMCIgb3NjM0ZpbHRlckN1dG9mZkZyZXF1ZW5jeVJl
        bGVhc2U9IjAuMCIgb3NjM0ZpbHRlckN1dG9mZkZyZXF1ZW5jeUxmb0VuYWJsZWQ9IjAuMCIgb3NjM0ZpbHRlckN1dG9mZkZyZXF1ZW5jeUxmb1NoYXBlPSIxLjAiIG9z
        YzNGaWx0ZXJDdXRvZmZGcmVxdWVuY3lMZm9BbXBsaXR1ZGU9IjAuMCIgb3NjM0ZpbHRlckN1dG9mZkZyZXF1ZW5jeUxmb0ZyZXF1ZW5jeT0iMC4wIiBvc2MzRmlsdGVy
        UmVzb25hbmNlPSIwLjAiIG9zYzNGaWx0ZXJSZXNvbmFuY2VFbmFibGVkPSIwLjAiIG9zYzNGaWx0ZXJSZXNvbmFuY2VBZHNyRW5hYmxlZD0iMC4wIiBvc2MzRmlsdGVy
        UmVzb25hbmNlQXR0YWNrPSIwLjAiIG9zYzNGaWx0ZXJSZXNvbmFuY2VEZWNheT0iMC4wIiBvc2MzRmlsdGVyUmVzb25hbmNlU3VzdGFpbj0iMC4wIiBvc2MzRmlsdGVy
        UmVzb25hbmNlUmVsZWFzZT0iMC4wIiBvc2MzRmlsdGVyUmVzb25hbmNlTGZvRW5hYmxlZD0iMC4wIiBvc2MzRmlsdGVyUmVzb25hbmNlTGZvU2hhcGU9IjEuMCIgb3Nj
        M0ZpbHRlclJlc29uYW5jZUxmb0FtcGxpdHVkZT0iMC4wIiBvc2MzRmlsdGVyUmVzb25hbmNlTGZvRnJlcXVlbmN5PSIwLjAiIG9zYzNWb2x1bWU9IjAuMjAwMDAwMDAy
        OTgwMjMyMiIgb3NjM1ZvbHVtZUVuYWJsZWQ9IjEuMCIgb3NjM1ZvbHVtZUFkc3JFbmFibGVkPSIxLjAiIG9zYzNWb2x1bWVBdHRhY2s9IjAuMDA1MDAwMDAwMzUzOTAy
        NTc4IiBvc2MzVm9sdW1lRGVjYXk9IjEwLjAiIG9zYzNWb2x1bWVTdXN0YWluPSIwLjAiIG9zYzNWb2x1bWVSZWxlYXNlPSIwLjAxMDAwMDAwMDcwNzgwNTE2IiBvc2Mz
        Vm9sdW1lTGZvRW5hYmxlZD0iMC4wIiBvc2MzVm9sdW1lTGZvU2hhcGU9IjEuMCIgb3NjM1ZvbHVtZUxmb0FtcGxpdHVkZT0iMC4wIiBvc2MzVm9sdW1lTGZvRnJlcXVl
        bmN5PSIwLjAiIG9zYzRFbmFibGVkPSIxLjAiIG9zYzRXYXZlZm9ybVNhdz0iMC4wIiBvc2M0V2F2ZWZvcm1TcXVhcmU9IjEuMCIgb3NjNFdhdmVmb3JtUHVsc2U9IjAu
        MCIgb3NjNFdhdmVmb3JtTm9pc2U9IjAuMCIgb3NjNFB1bHNlV2lkdGg9IjAuOTkwMDAwMDA5NTM2NzQzMiIgb3NjNFB1bHNlV2lkdGhFbmFibGVkPSIxLjAiIG9zYzRQ
        dWxzZVdpZHRoQWRzckVuYWJsZWQ9IjAuMCIgb3NjNFB1bHNlV2lkdGhBdHRhY2s9IjAuMCIgb3NjNFB1bHNlV2lkdGhEZWNheT0iMC4wIiBvc2M0UHVsc2VXaWR0aFN1
        c3RhaW49IjAuMCIgb3NjNFB1bHNlV2lkdGhSZWxlYXNlPSIwLjAiIG9zYzRQdWxzZVdpZHRoTGZvRW5hYmxlZD0iMS4wIiBvc2M0UHVsc2VXaWR0aExmb1NoYXBlPSIx
        LjAiIG9zYzRQdWxzZVdpZHRoTGZvQW1wbGl0dWRlPSIxLjAiIG9zYzRQdWxzZVdpZHRoTGZvRnJlcXVlbmN5PSIwLjA5OTk5OTk5NDAzOTUzNTUyIiBvc2M0UGl0Y2g9
        IjAuMCIgb3NjNFBpdGNoRW5hYmxlZD0iMC4wIiBvc2M0UGl0Y2hBZHNyRW5hYmxlZD0iMC4wIiBvc2M0UGl0Y2hBdHRhY2s9IjAuMCIgb3NjNFBpdGNoRGVjYXk9IjAu
        MCIgb3NjNFBpdGNoU3VzdGFpbj0iMC4wIiBvc2M0UGl0Y2hSZWxlYXNlPSIwLjAiIG9zYzRQaXRjaExmb0VuYWJsZWQ9IjAuMCIgb3NjNFBpdGNoTGZvU2hhcGU9IjEu
        MCIgb3NjNFBpdGNoTGZvQW1wbGl0dWRlPSIwLjAiIG9zYzRQaXRjaExmb0ZyZXF1ZW5jeT0iMC4wIiBvc2M0RmlsdGVyQ3V0b2ZmRnJlcXVlbmN5PSIyMDAwMC4wIiBv
        c2M0RmlsdGVyQ3V0b2ZmRnJlcXVlbmN5RW5hYmxlZD0iMC4wIiBvc2M0RmlsdGVyQ3V0b2ZmRnJlcXVlbmN5QWRzckVuYWJsZWQ9IjAuMCIgb3NjNEZpbHRlckN1dG9m
        ZkZyZXF1ZW5jeUF0dGFjaz0iMC4wIiBvc2M0RmlsdGVyQ3V0b2ZmRnJlcXVlbmN5RGVjYXk9IjAuMCIgb3NjNEZpbHRlckN1dG9mZkZyZXF1ZW5jeVN1c3RhaW49IjAu
        MCIgb3NjNEZpbHRlckN1dG9mZkZyZXF1ZW5jeVJlbGVhc2U9IjAuMCIgb3NjNEZpbHRlckN1dG9mZkZyZXF1ZW5jeUxmb0VuYWJsZWQ9IjAuMCIgb3NjNEZpbHRlckN1
        dG9mZkZyZXF1ZW5jeUxmb1NoYXBlPSIxLjAiIG9zYzRGaWx0ZXJDdXRvZmZGcmVxdWVuY3lMZm9BbXBsaXR1ZGU9IjAuMCIgb3NjNEZpbHRlckN1dG9mZkZyZXF1ZW5j
        eUxmb0ZyZXF1ZW5jeT0iMC4wIiBvc2M0RmlsdGVyUmVzb25hbmNlPSIwLjAiIG9zYzRGaWx0ZXJSZXNvbmFuY2VFbmFibGVkPSIwLjAiIG9zYzRGaWx0ZXJSZXNvbmFu
        Y2VBZHNyRW5hYmxlZD0iMC4wIiBvc2M0RmlsdGVyUmVzb25hbmNlQXR0YWNrPSIwLjAiIG9zYzRGaWx0ZXJSZXNvbmFuY2VEZWNheT0iMC4wIiBvc2M0RmlsdGVyUmVz
        b25hbmNlU3VzdGFpbj0iMC4wIiBvc2M0RmlsdGVyUmVzb25hbmNlUmVsZWFzZT0iMC4wIiBvc2M0RmlsdGVyUmVzb25hbmNlTGZvRW5hYmxlZD0iMC4wIiBvc2M0Rmls
        dGVyUmVzb25hbmNlTGZvU2hhcGU9IjEuMCIgb3NjNEZpbHRlclJlc29uYW5jZUxmb0FtcGxpdHVkZT0iMC4wIiBvc2M0RmlsdGVyUmVzb25hbmNlTGZvRnJlcXVlbmN5
        PSIwLjAiIG9zYzRWb2x1bWU9IjAuMjAwMDAwMDAyOTgwMjMyMiIgb3NjNFZvbHVtZUVuYWJsZWQ9IjEuMCIgb3NjNFZvbHVtZUFkc3JFbmFibGVkPSIxLjAiIG9zYzRW
        b2x1bWVBdHRhY2s9IjAuMDA1MDAwMDAwMzUzOTAyNTc4IiBvc2M0Vm9sdW1lRGVjYXk9IjAuMCIgb3NjNFZvbHVtZVN1c3RhaW49IjAuMTAwMDAwMDAxNDkwMTE2MSIg
        b3NjNFZvbHVtZVJlbGVhc2U9IjAuMDEwMDAwMDAwNzA3ODA1MTYiIG9zYzRWb2x1bWVMZm9FbmFibGVkPSIwLjAiIG9zYzRWb2x1bWVMZm9TaGFwZT0iMS4wIiBvc2M0
        Vm9sdW1lTGZvQW1wbGl0dWRlPSIwLjAiIG9zYzRWb2x1bWVMZm9GcmVxdWVuY3k9IjAuMCIgZmlsdGVyRW5hYmxlZD0iMC4wIiBmaWx0ZXJDdXRvZmZGcmVxdWVuY3k9
        IjIwMDAwLjAiIGZpbHRlckN1dG9mZkZyZXF1ZW5jeUVuYWJsZWQ9IjAuMCIgZmlsdGVyUmVzb25hbmNlPSIwLjAiIGZpbHRlclJlc29uYW5jZUVuYWJsZWQ9IjAuMCIg
        YW1wbGl0dWRlRW5hYmxlZD0iMC4wIiBhbXBsaXR1ZGVBdHRhY2s9IjAuMTAwMDAwMDAxNDkwMTE2MSIgYW1wbGl0dWRlRGVjYXk9IjAuMTAwMDAwMDAxNDkwMTE2MSIg
        YW1wbGl0dWRlU3VzdGFpbj0iMC41IiBhbXBsaXR1ZGVSZWxlYXNlPSIwLjEwMDAwMDAwMTQ5MDExNjEiIHBvc2l0aW9uRW5hYmxlZD0iMS4wIiBwb3NpdGlvbkRpc3Rh
        bmNlVHlwZT0iMS4wIiBwb3NpdGlvbkRpcmVjdGlvblR5cGU9IjEuMCIgcG9zaXRpb25YWVpFbmFibGVkPSIxLjAiIHBvc2l0aW9uWD0iMC4wIiBwb3NpdGlvblk9IjAu
        MCIgcG9zaXRpb25DYXJ0ZXNpYW5aPSIwLjA1MDAwMDA3MTUyNTU3MzczIiBwb3NpdGlvblhZX3h5cGFkX2lucHV0WD0iMTUxLjQwMTg0MDIwOTk2MDkiIHBvc2l0aW9u
        WFlfeHlwYWRfaW5wdXRZPSIxODYuMjI2NjY5MzExNTIzNCIgcG9zaXRpb25DYXJ0ZXNpYW5aX3h5cGFkX2lucHV0WD0iMC4wIiBwb3NpdGlvbkNhcnRlc2lhblpfeHlw
        YWRfaW5wdXRZPSIwLjAiIHBvc2l0aW9uTWF4WFlaPSIxMDAuMCIgcG9zaXRpb25NYXhYWVpfdnNsaWRlcj0iMTAwLjAiIHBvc2l0aW9uUlRaRW5hYmxlZD0iMS4wIiBw
        b3NpdGlvblI9IjAuNSIgcG9zaXRpb25UPSIzLjkxMjAzMzA4MTA1NDY4OCIgcG9zaXRpb25Qb2xhclo9Ii0wLjAxMjE0NjY1MTc0NDg0MjUzIiBwb3NpdGlvblJUX3h5
        cGFkX2lucHV0WD0iMTQ2LjM5NTE3MjExOTE0MDYiIHBvc2l0aW9uUlRfeHlwYWRfaW5wdXRZPSIyMDguMzQ5ODIyOTk4MDQ2OSIgcG9zaXRpb25Qb2xhclpfeHlwYWRf
        aW5wdXRYPSIwLjAiIHBvc2l0aW9uUG9sYXJaX3h5cGFkX2lucHV0WT0iMC4wIiBwb3NpdGlvbk1heFJaPSIxMDAuMCIgcG9zaXRpb25NYXhSWl92c2xpZGVyPSIxMDAu
        MCIvPjwvQ0FCQkFHRV9QUkVTRVRTPgAAAAAAAAAAAEpVQ0VQcml2YXRlRGF0YQABAUJ5cGFzcwABAQMAHQAAAAAAAABKVUNFUHJpdmF0ZURhdGEAAAAAAAAAAA==
        AAAQAAAA
      >
      FLOATPOS 919 510 1000 570
      FXID {F26D26BE-257B-B542-89AD-1856A05F818E}
      <PARMENV 285:285 0 1 0.5
        EGUID {A319B71E-7E2A-AD4F-A164-90ACD04DC89A}
        ACT 1 -1
        VIS 1 1 1
        LANEHEIGHT 0 0
        ARM 0
        DEFSHAPE 0 -1 -1
        PT 3.9645 0 0
      >
      <PROGRAMENV 285:285 0
        PARAMBASE 0
        LFO 1
        LFOWT 1 1
        AUDIOCTL 0
        AUDIOCTLWT 1 1
        LFOSHAPE 2
        LFOSYNC 0 0 0
        LFOSPEED 0.002638 0.439
        MODWND 0 531 695 918 1080
      >
      <PARMENV 286:286 0 1 0.5
        EGUID {4304CD6D-EE66-564B-AC55-F8E7D523D066}
        ACT 1 -1
        VIS 1 1 1
        LANEHEIGHT 0 0
        ARM 0
        DEFSHAPE 0 -1 -1
        PT 0 0.5 0
      >
      <PROGRAMENV 286:286 0
        PARAMBASE 0
        LFO 1
        LFOWT 0.5 0
        AUDIOCTL 0
        AUDIOCTLWT 1 1
        LFOSHAPE 0
        LFOSYNC 0 0 0
        LFOSPEED 0.002638 0.196
        MODWND 0 533 345 919 528
      >
      WAK 0 0
    >
    <ITEM
      POSITION 3.98157042348479
      SNAPOFFS 0
      LENGTH 118.51842957651522
      LOOP 1
      ALLTAKES 0
      FADEIN 1 0 0 1 0 0 0
      FADEOUT 1 0 0 1 0 0 0
      MUTE 0 0
      SEL 0
      IGUID {70AFB476-E852-2E4A-9DE8-87CF068905B0}
      IID 44
      NAME "07-Piano - pedal-Recorded MIDI-glued"
      VOLPAN 1 0 1 -1
      SOFFS 0 0
      PLAYRATE 1 1 0 -1 0 0.0025
      CHANMODE 0
      GUID {4F8E8AAD-DACA-CA4E-86F1-D44CBE63161B}
      <SOURCE MIDI
        HASDATA 1 960 QN
        CCINTERP 32
        POOLEDEVTS {17FB890F-D34D-BB4E-A08D-DF0831A99638}
        E 268 90 32 02
        E 219 80 32 00
        E 269 90 32 05
        E 201 80 32 00
        E 263 90 32 07
        E 216 80 32 00
        E 261 90 32 0c
        E 207 80 32 00
        E 273 90 32 0f
        E 226 80 32 00
        E 263 90 32 13
        E 190 80 32 00
        E 271 90 32 15
        E 220 80 32 00
        E 271 90 32 18
        E 212 80 32 00
        E 260 90 32 1b
        E 209 80 32 00
        E 270 90 32 1e
        E 188 80 32 00
        E 287 90 32 21
        E 206 80 32 00
        E 278 90 32 26
        E 191 80 32 00
        E 282 90 32 29
        E 186 80 32 00
        E 293 90 32 2b
        E 199 80 32 00
        E 298 90 32 2f
        E 193 80 32 00
        E 289 90 32 32
        E 189 80 32 00
        E 285 90 32 36
        E 188 80 32 00
        E 285 90 32 38
        E 187 80 32 00
        E 286 90 32 3c
        E 224 80 32 00
        E 268 90 32 3e
        E 204 80 32 00
        E 262 90 32 41
        E 225 80 32 00
        E 266 90 32 42
        E 213 80 32 00
        E 277 90 32 40
        E 184 80 32 00
        E 292 90 32 3f
        E 198 80 32 00
        E 272 90 32 40
        E 209 80 32 00
        E 265 90 32 3e
        E 208 80 32 00
        E 266 90 32 3f
        E 233 80 32 00
        E 246 90 32 41
        E 215 80 32 00
        E 284 90 32 39
        E 214 80 32 00
        E 259 90 32 43
        E 196 80 32 00
        E 289 90 32 3e
        E 198 80 32 00
        E 281 90 32 3f
        E 181 80 32 00
        E 284 90 32 3b
        E 178 80 32 00
        E 308 90 32 3f
        E 192 80 32 00
        E 269 90 32 43
        E 233 80 32 00
        E 263 90 32 43
        E 211 80 32 00
        E 265 90 32 41
        E 214 80 32 00
        E 271 90 32 38
        E 207 80 32 00
        E 240 90 32 3c
        E 221 80 32 00
        E 273 90 32 3d
        E 214 80 32 00
        E 266 90 32 3e
        E 218 80 32 00
        E 275 90 32 42
        E 205 80 32 00
        E 266 90 32 3e
        E 202 80 32 00
        E 282 90 32 3b
        E 207 80 32 00
        E 273 90 32 3b
        E 228 80 32 00
        E 280 90 32 41
        E 212 80 32 00
        E 276 90 32 40
        E 223 80 32 00
        E 267 90 32 42
        E 214 80 32 00
        E 251 90 32 41
        E 227 80 32 00
        E 258 90 32 40
        E 216 80 32 00
        E 251 90 32 3f
        E 218 80 32 00
        E 262 90 32 3e
        E 211 80 32 00
        E 256 90 32 3e
        E 214 80 32 00
        E 240 90 32 3d
        E 221 80 32 00
        E 274 90 32 41
        E 212 80 32 00
        E 282 90 32 3b
        E 197 80 32 00
        E 270 90 32 3f
        E 211 80 32 00
        E 275 90 32 3f
        E 187 80 32 00
        E 274 90 32 38
        E 186 80 32 00
        E 294 90 32 3c
        E 157 80 32 00
        E 328 90 32 39
        E 213 80 32 00
        E 293 90 32 3d
        E 213 80 32 00
        E 280 90 32 3c
        E 207 80 32 00
        E 282 90 32 3f
        E 216 80 32 00
        E 267 90 32 38
        E 219 80 32 00
        E 269 90 32 42
        E 201 80 32 00
        E 263 90 32 3b
        E 216 80 32 00
        E 261 90 32 3d
        E 207 80 32 00
        E 273 90 32 3b
        E 226 80 32 00
        E 263 90 32 3d
        E 190 80 32 00
        E 271 90 32 3f
        E 220 80 32 00
        E 271 90 32 44
        E 212 80 32 00
        E 260 90 32 3e
        E 209 80 32 00
        E 270 90 32 3f
        E 188 80 32 00
        E 287 90 32 3b
        E 206 80 32 00
        E 278 90 32 3e
        E 191 80 32 00
        E 282 90 32 3f
        E 186 80 32 00
        E 293 90 32 3e
        E 199 80 32 00
        E 298 90 32 41
        E 193 80 32 00
        E 289 90 32 3d
        E 189 80 32 00
        E 285 90 32 3a
        E 188 80 32 00
        E 285 90 32 41
        E 187 80 32 00
        E 286 90 32 3f
        E 224 80 32 00
        E 268 90 32 41
        E 204 80 32 00
        E 262 90 32 41
        E 225 80 32 00
        E 266 90 32 42
        E 213 80 32 00
        E 277 90 32 40
        E 184 80 32 00
        E 292 90 32 3f
        E 198 80 32 00
        E 272 90 32 40
        E 209 80 32 00
        E 265 90 32 3e
        E 208 80 32 00
        E 266 90 32 3f
        E 233 80 32 00
        E 246 90 32 41
        E 215 80 32 00
        E 284 90 32 39
        E 214 80 32 00
        E 259 90 32 43
        E 196 80 32 00
        E 289 90 32 3e
        E 198 80 32 00
        E 281 90 32 3f
        E 181 80 32 00
        E 287 90 32 3c
        E 220 80 32 00
        E 270 90 32 3f
        E 199 80 32 00
        E 282 90 32 3c
        E 203 80 32 00
        E 275 90 32 42
        E 177 80 32 00
        E 283 90 32 3f
        E 213 80 32 00
        E 262 90 32 41
        E 203 80 32 00
        E 283 90 32 40
        E 218 80 32 00
        E 270 90 32 40
        E 213 80 32 00
        E 257 90 32 3f
        E 215 80 32 00
        E 270 90 32 42
        E 202 80 32 00
        E 270 90 32 3f
        E 217 80 32 00
        E 251 90 32 42
        E 187 80 32 00
        E 266 90 32 3f
        E 221 80 32 00
        E 281 90 32 41
        E 175 80 32 00
        E 297 90 32 3b
        E 230 80 32 00
        E 258 90 32 44
        E 218 80 32 00
        E 289 90 32 44
        E 216 80 32 00
        E 271 90 32 41
        E 226 80 32 00
        E 270 90 32 41
        E 222 80 32 00
        E 255 90 32 42
        E 207 80 32 00
        E 266 90 32 3e
        E 213 80 32 00
        E 256 90 32 41
        E 219 80 32 00
        E 258 90 32 42
        E 213 80 32 00
        E 262 90 32 44
        E 231 80 32 00
        E 249 90 32 41
        E 242 80 32 00
        E 256 90 32 41
        E 203 80 32 00
        E 272 90 32 43
        E 233 80 32 00
        E 252 90 32 43
        E 215 80 32 00
        E 255 90 32 38
        E 202 80 32 00
        E 290 90 32 45
        E 176 80 32 00
        E 281 90 32 41
        E 196 80 32 00
        E 305 90 32 41
        E 193 80 32 00
        E 293 90 32 41
        E 212 80 32 00
        E 273 90 32 46
        E 204 80 32 00
        E 277 90 32 43
        E 202 80 32 00
        E 271 90 32 44
        E 216 80 32 00
        E 277 90 32 41
        E 194 80 32 00
        E 274 90 32 44
        E 197 80 32 00
        E 267 90 32 41
        E 224 80 32 00
        E 255 90 32 44
        E 219 80 32 00
        E 272 90 32 45
        E 209 80 32 00
        E 265 90 32 41
        E 209 80 32 00
        E 249 90 32 44
        E 230 80 32 00
        E 255 90 32 42
        E 221 80 32 00
        E 276 90 32 40
        E 217 80 32 00
        E 268 90 32 42
        E 189 80 32 00
        E 286 90 32 40
        E 219 80 32 00
        E 252 90 32 44
        E 225 80 32 00
        E 265 90 32 44
        E 228 80 32 00
        E 271 90 32 44
        E 208 80 32 00
        E 258 90 32 42
        E 237 80 32 00
        E 245 90 32 46
        E 228 80 32 00
        E 262 90 32 44
        E 230 80 32 00
        E 256 90 32 43
        E 227 80 32 00
        E 234 90 32 45
        E 232 80 32 00
        E 255 90 32 44
        E 215 80 32 00
        E 260 90 32 42
        E 227 80 32 00
        E 265 90 32 41
        E 207 80 32 00
        E 269 90 32 40
        E 234 80 32 00
        E 248 90 32 43
        E 225 80 32 00
        E 262 90 32 42
        E 233 80 32 00
        E 232 90 32 43
        E 231 80 32 00
        E 264 90 32 41
        E 227 80 32 00
        E 250 90 32 42
        E 220 80 32 00
        E 259 90 32 3e
        E 247 80 32 00
        E 245 90 32 43
        E 224 80 32 00
        E 240 90 32 41
        E 248 80 32 00
        E 236 90 32 44
        E 242 80 32 00
        E 222 90 32 45
        E 241 80 32 00
        E 246 90 32 42
        E 227 80 32 00
        E 241 90 32 42
        E 239 80 32 00
        E 244 90 32 46
        E 227 80 32 00
        E 244 90 32 44
        E 236 80 32 00
        E 241 90 32 42
        E 231 80 32 00
        E 255 90 32 44
        E 247 80 32 00
        E 226 90 32 43
        E 231 80 32 00
        E 251 90 32 42
        E 237 80 32 00
        E 249 90 32 42
        E 231 80 32 00
        E 244 90 32 44
        E 234 80 32 00
        E 238 90 32 42
        E 238 80 32 00
        E 256 90 32 42
        E 222 80 32 00
        E 247 90 32 45
        E 233 80 32 00
        E 243 90 32 40
        E 236 80 32 00
        E 260 90 32 40
        E 247 80 32 00
        E 233 90 32 3d
        E 231 80 32 00
        E 239 90 32 41
        E 223 80 32 00
        E 251 90 32 3f
        E 240 80 32 00
        E 253 90 32 3e
        E 210 80 32 00
        E 262 90 32 42
        E 226 80 32 00
        E 274 90 32 43
        E 215 80 32 00
        E 269 90 32 3e
        E 211 80 32 00
        E 258 90 32 45
        E 234 80 32 00
        E 271 90 32 43
        E 219 80 32 00
        E 269 90 32 40
        E 223 80 32 00
        E 238 90 32 43
        E 235 80 32 00
        E 266 90 32 3f
        E 211 80 32 00
        E 236 90 32 40
        E 230 80 32 00
        E 244 90 32 44
        E 231 80 32 00
        E 270 90 32 43
        E 224 80 32 00
        E 255 90 32 45
        E 232 80 32 00
        E 253 90 32 42
        E 223 80 32 00
        E 266 90 32 45
        E 220 80 32 00
        E 252 90 32 44
        E 231 80 32 00
        E 244 90 32 44
        E 220 80 32 00
        E 247 90 32 45
        E 237 80 32 00
        E 253 90 32 44
        E 233 80 32 00
        E 257 90 32 46
        E 228 80 32 00
        E 255 90 32 42
        E 205 80 32 00
        E 277 90 32 3f
        E 225 80 32 00
        E 250 90 32 45
        E 233 80 32 00
        E 249 90 32 41
        E 227 80 32 00
        E 238 90 32 40
        E 231 80 32 00
        E 243 90 32 42
        E 246 80 32 00
        E 252 90 32 42
        E 211 80 32 00
        E 249 90 32 3f
        E 233 80 32 00
        E 252 90 32 44
        E 229 80 32 00
        E 243 90 32 42
        E 227 80 32 00
        E 252 90 32 43
        E 239 80 32 00
        E 256 90 32 44
        E 238 80 32 00
        E 262 90 32 43
        E 233 80 32 00
        E 236 90 32 41
        E 244 80 32 00
        E 244 90 32 44
        E 221 80 32 00
        E 245 90 32 43
        E 232 80 32 00
        E 255 90 32 45
        E 207 80 32 00
        E 267 90 32 42
        E 234 80 32 00
        E 228 90 32 44
        E 228 80 32 00
        E 244 90 32 42
        E 234 80 32 00
        E 244 90 32 47
        E 232 80 32 00
        E 244 90 32 45
        E 252 80 32 00
        E 260 90 32 46
        E 212 80 32 00
        E 262 90 32 44
        E 215 80 32 00
        E 249 90 32 43
        E 233 80 32 00
        E 248 90 32 42
        E 233 80 32 00
        E 230 90 32 42
        E 222 80 32 00
        E 251 90 32 45
        E 218 80 32 00
        E 262 90 32 44
        E 232 80 32 00
        E 273 90 32 42
        E 239 80 32 00
        E 252 90 32 43
        E 207 80 32 00
        E 279 90 32 44
        E 223 80 32 00
        E 258 90 32 41
        E 218 80 32 00
        E 255 90 32 43
        E 219 80 32 00
        E 267 90 32 43
        E 225 80 32 00
        E 233 90 32 44
        E 232 80 32 00
        E 255 90 32 42
        E 226 80 32 00
        E 263 90 32 42
        E 208 80 32 00
        E 269 90 32 44
        E 218 80 32 00
        E 260 90 32 44
        E 221 80 32 00
        E 258 90 32 41
        E 208 80 32 00
        E 258 90 32 42
        E 202 80 32 00
        E 262 90 32 3e
        E 225 80 32 00
        E 270 90 32 44
        E 191 80 32 00
        E 282 90 32 40
        E 219 80 32 00
        E 257 90 32 42
        E 237 80 32 00
        E 270 90 32 46
        E 195 80 32 00
        E 292 90 32 46
        E 203 80 32 00
        E 273 90 32 42
        E 218 80 32 00
        E 278 90 32 3c
        E 225 80 32 00
        E 243 90 32 45
        E 231 80 32 00
        E 246 90 32 43
        E 238 80 32 00
        E 258 90 32 47
        E 216 80 32 00
        E 253 90 32 42
        E 236 80 32 00
        E 249 90 32 43
        E 220 80 32 00
        E 244 90 32 45
        E 237 80 32 00
        E 255 90 32 43
        E 215 80 32 00
        E 259 90 32 45
        E 224 80 32 00
        E 249 90 32 43
        E 217 80 32 00
        E 247 90 32 45
        E 229 80 32 00
        E 246 90 32 43
        E 220 80 32 00
        E 264 90 32 46
        E 214 80 32 00
        E 256 90 32 45
        E 216 80 32 00
        E 254 90 32 3c
        E 237 80 32 00
        E 258 90 32 45
        E 224 80 32 00
        E 272 90 32 43
        E 216 80 32 00
        E 257 90 32 43
        E 228 80 32 00
        E 273 90 32 46
        E 213 80 32 00
        E 275 90 32 45
        E 220 80 32 00
        E 269 90 32 47
        E 227 80 32 00
        E 246 90 32 46
        E 235 80 32 00
        E 243 90 32 47
        E 234 80 32 00
        E 248 90 32 45
        E 218 80 32 00
        E 243 90 32 44
        E 224 80 32 00
        E 254 90 32 47
        E 200 80 32 00
        E 268 90 32 42
        E 219 80 32 00
        E 257 90 32 44
        E 216 80 32 00
        E 256 90 32 45
        E 237 80 32 00
        E 260 90 32 47
        E 219 80 32 00
        E 252 90 32 44
        E 236 80 32 00
        E 257 90 32 45
        E 227 80 32 00
        E 261 90 32 43
        E 222 80 32 00
        E 245 90 32 44
        E 226 80 32 00
        E 270 90 32 43
        E 234 80 32 00
        E 242 90 32 45
        E 240 80 32 00
        E 245 90 32 44
        E 230 80 32 00
        E 260 90 32 44
        E 217 80 32 00
        E 249 90 32 44
        E 235 80 32 00
        E 248 90 32 43
        E 232 80 32 00
        E 244 90 32 46
        E 224 80 32 00
        E 257 90 32 45
        E 219 80 32 00
        E 259 90 32 44
        E 236 80 32 00
        E 254 90 32 45
        E 213 80 32 00
        E 263 90 32 42
        E 219 80 32 00
        E 254 90 32 43
        E 216 80 32 00
        E 254 90 32 41
        E 215 80 32 00
        E 261 90 32 44
        E 185 80 32 00
        E 295 90 32 42
        E 231 80 32 00
        E 259 90 32 43
        E 217 80 32 00
        E 268 90 32 41
        E 215 80 32 00
        E 265 90 32 43
        E 185 80 32 00
        E 298 90 32 45
        E 201 80 32 00
        E 263 90 32 47
        E 210 80 32 00
        E 280 90 32 45
        E 210 80 32 00
        E 272 90 32 46
        E 188 80 32 00
        E 289 90 32 44
        E 222 80 32 00
        E 251 90 32 47
        E 228 80 32 00
        E 259 90 32 43
        E 247 80 32 00
        E 239 90 32 45
        E 229 80 32 00
        E 228 90 32 41
        E 254 80 32 00
        E 233 90 32 45
        E 219 80 32 00
        E 268 90 32 45
        E 216 80 32 00
        E 258 90 32 42
        E 215 80 32 00
        E 261 90 32 42
        E 206 80 32 00
        E 264 90 32 44
        E 231 80 32 00
        E 267 90 32 45
        E 224 80 32 00
        E 259 90 32 44
        E 237 80 32 00
        E 247 90 32 44
        E 237 80 32 00
        E 247 90 32 45
        E 238 80 32 00
        E 238 90 32 43
        E 247 80 32 00
        E 214 90 32 45
        E 248 80 32 00
        E 248 90 32 44
        E 234 80 32 00
        E 262 90 32 47
        E 215 80 32 00
        E 246 90 32 42
        E 235 80 32 00
        E 244 90 32 3e
        E 218 80 32 00
        E 244 90 32 42
        E 238 80 32 00
        E 269 90 32 44
        E 220 80 32 00
        E 250 90 32 41
        E 255 80 32 00
        E 232 90 32 45
        E 239 80 32 00
        E 257 90 32 41
        E 218 80 32 00
        E 251 90 32 3f
        E 232 80 32 00
        E 234 90 32 47
        E 239 80 32 00
        E 252 90 32 46
        E 226 80 32 00
        E 254 90 32 40
        E 239 80 32 00
        E 248 90 32 44
        E 210 80 32 00
        E 266 90 32 42
        E 234 80 32 00
        E 249 90 32 47
        E 237 80 32 00
        E 234 90 32 47
        E 242 80 32 00
        E 251 90 32 45
        E 231 80 32 00
        E 234 90 32 43
        E 249 80 32 00
        E 242 90 32 46
        E 230 80 32 00
        E 234 90 32 45
        E 258 80 32 00
        E 252 90 32 43
        E 232 80 32 00
        E 232 90 32 3e
        E 249 80 32 00
        E 231 90 32 3f
        E 218 80 32 00
        E 247 90 32 44
        E 237 80 32 00
        E 245 90 32 44
        E 221 80 32 00
        E 237 90 32 44
        E 236 80 32 00
        E 273 90 32 47
        E 214 80 32 00
        E 267 90 32 42
        E 216 80 32 00
        E 262 90 32 46
        E 226 80 32 00
        E 254 90 32 3f
        E 207 80 32 00
        E 266 90 32 40
        E 197 80 32 00
        E 286 90 32 42
        E 230 80 32 00
        E 259 90 32 42
        E 220 80 32 00
        E 262 90 32 40
        E 220 80 32 00
        E 253 90 32 44
        E 227 80 32 00
        E 263 90 32 44
        E 238 80 32 00
        E 258 90 32 46
        E 211 80 32 00
        E 259 90 32 44
        E 233 80 32 00
        E 261 90 32 46
        E 227 80 32 00
        E 252 90 32 45
        E 221 80 32 00
        E 258 90 32 47
        E 211 80 32 00
        E 263 90 32 43
        E 244 80 32 00
        E 246 90 32 47
        E 234 80 32 00
        E 245 90 32 46
        E 231 80 32 00
        E 247 90 32 46
        E 229 80 32 00
        E 251 90 32 47
        E 222 80 32 00
        E 265 90 32 45
        E 225 80 32 00
        E 257 90 32 48
        E 221 80 32 00
        E 253 90 32 45
        E 219 80 32 00
        E 257 90 32 42
        E 229 80 32 00
        E 246 90 32 44
        E 231 80 32 00
        E 241 90 32 46
        E 236 80 32 00
        E 235 90 32 46
        E 233 80 32 00
        E 247 90 32 44
        E 233 80 32 00
        E 250 90 32 46
        E 231 80 32 00
        E 240 90 32 46
        E 232 80 32 00
        E 233 90 32 43
        E 235 80 32 00
        E 253 90 32 44
        E 230 80 32 00
        E 258 90 32 42
        E 229 80 32 00
        E 253 90 32 46
        E 227 80 32 00
        E 257 90 32 45
        E 230 80 32 00
        E 231 90 32 45
        E 224 80 32 00
        E 249 90 32 45
        E 227 80 32 00
        E 255 90 32 42
        E 228 80 32 00
        E 267 90 32 46
        E 225 80 32 00
        E 255 90 32 45
        E 240 80 32 00
        E 242 90 32 47
        E 223 80 32 00
        E 257 90 32 47
        E 235 80 32 00
        E 259 90 32 44
        E 213 80 32 00
        E 257 90 32 44
        E 244 80 32 00
        E 255 90 32 44
        E 234 80 32 00
        E 247 90 32 43
        E 258 80 32 00
        E 226 90 32 45
        E 245 80 32 00
        E 239 90 32 45
        E 256 80 32 00
        E 221 90 32 46
        E 260 80 32 00
        E 222 90 32 45
        E 262 80 32 00
        E 226 90 32 45
        E 236 80 32 00
        E 239 90 32 47
        E 224 80 32 00
        E 250 90 32 46
        E 238 80 32 00
        E 244 90 32 43
        E 233 80 32 00
        E 246 90 32 47
        E 234 80 32 00
        E 234 90 32 45
        E 248 80 32 00
        E 243 90 32 45
        E 237 80 32 00
        E 231 90 32 47
        E 239 80 32 00
        E 246 90 32 46
        E 217 80 32 00
        E 249 90 32 45
        E 239 80 32 00
        E 237 90 32 46
        E 238 80 32 00
        E 224 90 32 45
        E 247 80 32 00
        E 243 90 32 46
        E 239 80 32 00
        E 242 90 32 44
        E 238 80 32 00
        E 249 90 32 46
        E 223 80 32 00
        E 263 90 32 45
        E 223 80 32 00
        E 251 90 32 48
        E 231 80 32 00
        E 256 90 32 46
        E 231 80 32 00
        E 252 90 32 47
        E 229 80 32 00
        E 252 90 32 46
        E 239 80 32 00
        E 239 90 32 47
        E 240 80 32 00
        E 233 90 32 46
        E 233 80 32 00
        E 248 90 32 47
        E 232 80 32 00
        E 248 90 32 47
        E 226 80 32 00
        E 245 90 32 47
        E 233 80 32 00
        E 245 90 32 46
        E 233 80 32 00
        E 244 90 32 48
        E 234 80 32 00
        E 258 90 32 46
        E 224 80 32 00
        E 261 90 32 44
        E 237 80 32 00
        E 245 90 32 44
        E 237 80 32 00
        E 236 90 32 47
        E 234 80 32 00
        E 247 90 32 45
        E 232 80 32 00
        E 240 90 32 46
        E 234 80 32 00
        E 251 90 32 46
        E 230 80 32 00
        E 241 90 32 45
        E 224 80 32 00
        E 263 90 32 43
        E 217 80 32 00
        E 258 90 32 41
        E 235 80 32 00
        E 241 90 32 44
        E 225 80 32 00
        E 261 90 32 45
        E 246 80 32 00
        E 236 90 32 44
        E 236 80 32 00
        E 255 90 32 45
        E 223 80 32 00
        E 258 90 32 47
        E 240 80 32 00
        E 253 90 32 45
        E 228 80 32 00
        E 251 90 32 43
        E 240 80 32 00
        E 243 90 32 45
        E 222 80 32 00
        E 246 90 32 45
        E 242 80 32 00
        E 238 90 32 42
        E 242 80 32 00
        E 220 90 32 46
        E 262 80 32 00
        E 247 90 32 45
        E 237 80 32 00
        E 241 90 32 47
        E 224 80 32 00
        E 237 90 32 44
        E 249 80 32 00
        E 221 90 32 44
        E 246 80 32 00
        E 224 90 32 47
        E 242 80 32 00
        E 243 90 32 45
        E 263 80 32 00
        E 230 90 32 46
        E 234 80 32 00
        E 239 90 32 47
        E 234 80 32 00
        E 243 90 32 45
        E 231 80 32 00
        E 246 90 32 43
        E 254 80 32 00
        E 226 90 32 41
        E 250 80 32 00
        E 233 90 32 43
        E 242 80 32 00
        E 236 90 32 42
        E 242 80 32 00
        E 233 90 32 44
        E 251 80 32 00
        E 250 90 32 45
        E 242 80 32 00
        E 249 90 32 42
        E 243 80 32 00
        E 231 90 32 44
        E 240 80 32 00
        E 244 90 32 44
        E 231 80 32 00
        E 262 90 32 41
        E 211 80 32 00
        E 261 90 32 42
        E 229 80 32 00
        E 264 90 32 43
        E 211 80 32 00
        E 251 90 32 42
        E 232 80 32 00
        E 250 90 32 44
        E 226 80 32 00
        E 998 b0 7b 00
        CCINTERP 32
        CHASE_CC_TAKEOFFS 1
        GUID {A81D1B09-210D-2641-825D-B62C6C72C6E2}
        IGNTEMPO 0 120 4 4
        SRCCOLOR 101
        VELLANE -1 438 0
        VELLANE 64 100 0
        CFGEDITVIEW -1154.702614 0.034276 72 12 0 -1 0 0 0 0.5
        KEYSNAP 0
        TRACKSEL 0
        EVTFILTER 0 -1 -1 -1 -1 0 0 0 0 -1 -1 -1 -1 0 -1 0 -1 -1
        CFGEDIT 1 1 0 1 0 0 1 1 1 1 1 0.125 0 0 1856 1055 0 0 0 0 0 0 0 0 0 0.5 0 0 1 64
      >
    >
  >
  <TRACK {82B51ABE-F1B4-8B46-8A1B-A04190AF2BC9}
    NAME "Synth - low - 2"
    PEAKCOL 16576
    BEAT -1
    AUTOMODE 0
    VOLPAN 0.86872391523433 0 -1 -1 1
    MUTESOLO 0 0 0
    IPHASE 0
    PLAYOFFS 0 1
    ISBUS 0 0
    BUSCOMP 0 0 0 0 0
    SHOWINMIX 1 0.6667 0.5 1 0.5 0 -1 0
    FREEMODE 0
    SEL 0
    REC 0 5088 1 0 0 0 0
    VU 2
    TRACKHEIGHT 0 0 0 0 0 0
    INQ 0 0 0 0.5 100 0 0 100
    NCHAN 6
    FX 1
    TRACKID {82B51ABE-F1B4-8B46-8A1B-A04190AF2BC9}
    PERF 0
    MIDIOUT -1
    MAINSEND 0 0
    <FXCHAIN
      WNDRECT 122 457 1231 598
      SHOW 0
      LASTSEL 0
      DOCKED 0
      BYPASS 0 0 0
      <VST "VST3i: SubtractiveSynth (CabbageAudio)" SubtractiveSynth.vst3 0 "" 80830264{ABCDEF019182FAEB4361626230303130} ""
        OF/RBO5e7f4AAAAABgAAAAEAAAAAAAAAAgAAAAAAAAAEAAAAAAAAAAgAAAAAAAAAEAAAAAAAAAAgAAAAAAAAADkjAAABAAAA//8QAA==
        KSMAAAEAAABWQzIh5CIAADw/eG1sIHZlcnNpb249IjEuMCIgZW5jb2Rpbmc9IlVURi04Ij8+IDxDQUJCQUdFX1BSRVNFVFM+PFBSRVNFVDAgUHJlc2V0TmFtZT0iQ0FC
        QkFHRV9QUkVTRVRTIDAiIGluc3RhbmNlTmFtZT0iIiB0cmFja0luZGV4PSI0IiBwbHVnaW5JbmRleD0iMCIgZmlyc3RfdGFiX2J1Z193b3JrYXJvdW5kX3RhYj0iMC4w
        IiBzODhfdGFiPSIwLjAiIG9zYzFfdGFiPSIwLjAiIG9zYzJfdGFiPSIwLjAiIG9zYzNfdGFiPSIwLjAiIG9zYzRfdGFiPSIwLjAiIGZpbHRlcl90YWI9IjAuMCIgYW1w
        bGl0dWRlX3RhYj0iMC4wIiBwb3NpdGlvbl90YWI9IjEuMCIgbG9nX3RhYj0iMC4wIiBTODhfa25vYl8xPSIwLjAiIFM4OF9rbm9iXzI9IjAuMCIgUzg4X2tub2JfMz0i
        MC4wIiBTODhfa25vYl80PSIwLjAiIFM4OF9rbm9iXzU9IjAuMCIgUzg4X2tub2JfNj0iMC4wIiBTODhfa25vYl83PSIwLjAiIFM4OF9rbm9iXzg9IjAuMCIgUzg4X3Bp
        dGNoYmVuZD0iMC4wIiBTODhfbW9kd2hlZWw9IjAuMCIgb3NjMUVuYWJsZWQ9IjEuMCIgb3NjMVdhdmVmb3JtU2F3PSIwLjAiIG9zYzFXYXZlZm9ybVNxdWFyZT0iMS4w
        IiBvc2MxV2F2ZWZvcm1QdWxzZT0iMC4wIiBvc2MxV2F2ZWZvcm1Ob2lzZT0iMC4wIiBvc2MxUHVsc2VXaWR0aD0iMC45OTAwMDAwMDk1MzY3NDMyIiBvc2MxUHVsc2VX
        aWR0aEVuYWJsZWQ9IjEuMCIgb3NjMVB1bHNlV2lkdGhBZHNyRW5hYmxlZD0iMC4wIiBvc2MxUHVsc2VXaWR0aEF0dGFjaz0iMC4wIiBvc2MxUHVsc2VXaWR0aERlY2F5
        PSIwLjAiIG9zYzFQdWxzZVdpZHRoU3VzdGFpbj0iMC4wIiBvc2MxUHVsc2VXaWR0aFJlbGVhc2U9IjAuMCIgb3NjMVB1bHNlV2lkdGhMZm9FbmFibGVkPSIxLjAiIG9z
        YzFQdWxzZVdpZHRoTGZvU2hhcGU9IjEuMCIgb3NjMVB1bHNlV2lkdGhMZm9BbXBsaXR1ZGU9IjEuMCIgb3NjMVB1bHNlV2lkdGhMZm9GcmVxdWVuY3k9IjAuMDk5OTk5
        OTk0MDM5NTM1NTIiIG9zYzFQaXRjaD0iMC4wIiBvc2MxUGl0Y2hFbmFibGVkPSIwLjAiIG9zYzFQaXRjaEFkc3JFbmFibGVkPSIwLjAiIG9zYzFQaXRjaEF0dGFjaz0i
        MC4wIiBvc2MxUGl0Y2hEZWNheT0iMC4wIiBvc2MxUGl0Y2hTdXN0YWluPSIwLjAiIG9zYzFQaXRjaFJlbGVhc2U9IjAuMCIgb3NjMVBpdGNoTGZvRW5hYmxlZD0iMC4w
        IiBvc2MxUGl0Y2hMZm9TaGFwZT0iMS4wIiBvc2MxUGl0Y2hMZm9BbXBsaXR1ZGU9IjAuMCIgb3NjMVBpdGNoTGZvRnJlcXVlbmN5PSIwLjAiIG9zYzFGaWx0ZXJDdXRv
        ZmZGcmVxdWVuY3k9Ijk5NzAuMCIgb3NjMUZpbHRlckN1dG9mZkZyZXF1ZW5jeUVuYWJsZWQ9IjEuMCIgb3NjMUZpbHRlckN1dG9mZkZyZXF1ZW5jeUFkc3JFbmFibGVk
        PSIwLjAiIG9zYzFGaWx0ZXJDdXRvZmZGcmVxdWVuY3lBdHRhY2s9IjAuMCIgb3NjMUZpbHRlckN1dG9mZkZyZXF1ZW5jeURlY2F5PSIwLjAiIG9zYzFGaWx0ZXJDdXRv
        ZmZGcmVxdWVuY3lTdXN0YWluPSIwLjAiIG9zYzFGaWx0ZXJDdXRvZmZGcmVxdWVuY3lSZWxlYXNlPSIwLjAiIG9zYzFGaWx0ZXJDdXRvZmZGcmVxdWVuY3lMZm9FbmFi
        bGVkPSIwLjAiIG9zYzFGaWx0ZXJDdXRvZmZGcmVxdWVuY3lMZm9TaGFwZT0iMS4wIiBvc2MxRmlsdGVyQ3V0b2ZmRnJlcXVlbmN5TGZvQW1wbGl0dWRlPSIwLjAiIG9z
        YzFGaWx0ZXJDdXRvZmZGcmVxdWVuY3lMZm9GcmVxdWVuY3k9IjAuMCIgb3NjMUZpbHRlclJlc29uYW5jZT0iMC4wIiBvc2MxRmlsdGVyUmVzb25hbmNlRW5hYmxlZD0i
        MC4wIiBvc2MxRmlsdGVyUmVzb25hbmNlQWRzckVuYWJsZWQ9IjAuMCIgb3NjMUZpbHRlclJlc29uYW5jZUF0dGFjaz0iMC4wIiBvc2MxRmlsdGVyUmVzb25hbmNlRGVj
        YXk9IjAuMCIgb3NjMUZpbHRlclJlc29uYW5jZVN1c3RhaW49IjAuMCIgb3NjMUZpbHRlclJlc29uYW5jZVJlbGVhc2U9IjAuMCIgb3NjMUZpbHRlclJlc29uYW5jZUxm
        b0VuYWJsZWQ9IjAuMCIgb3NjMUZpbHRlclJlc29uYW5jZUxmb1NoYXBlPSIxLjAiIG9zYzFGaWx0ZXJSZXNvbmFuY2VMZm9BbXBsaXR1ZGU9IjAuMCIgb3NjMUZpbHRl
        clJlc29uYW5jZUxmb0ZyZXF1ZW5jeT0iMC4wIiBvc2MxVm9sdW1lPSIxLjAiIG9zYzFWb2x1bWVFbmFibGVkPSIxLjAiIG9zYzFWb2x1bWVBZHNyRW5hYmxlZD0iMS4w
        IiBvc2MxVm9sdW1lQXR0YWNrPSIwLjAwNTAwMDAwMDM1MzkwMjU3OCIgb3NjMVZvbHVtZURlY2F5PSIwLjc1IiBvc2MxVm9sdW1lU3VzdGFpbj0iMC4wIiBvc2MxVm9s
        dW1lUmVsZWFzZT0iMC4wOTk5OTk5OTQwMzk1MzU1MiIgb3NjMVZvbHVtZUxmb0VuYWJsZWQ9IjAuMCIgb3NjMVZvbHVtZUxmb1NoYXBlPSIxLjAiIG9zYzFWb2x1bWVM
        Zm9BbXBsaXR1ZGU9IjAuMCIgb3NjMVZvbHVtZUxmb0ZyZXF1ZW5jeT0iMC4wIiBvc2MyRW5hYmxlZD0iMS4wIiBvc2MyV2F2ZWZvcm1TYXc9IjAuMCIgb3NjMldhdmVm
        b3JtU3F1YXJlPSIxLjAiIG9zYzJXYXZlZm9ybVB1bHNlPSIwLjAiIG9zYzJXYXZlZm9ybU5vaXNlPSIwLjAiIG9zYzJQdWxzZVdpZHRoPSIwLjk5MDAwMDAwOTUzNjc0
        MzIiIG9zYzJQdWxzZVdpZHRoRW5hYmxlZD0iMS4wIiBvc2MyUHVsc2VXaWR0aEFkc3JFbmFibGVkPSIwLjAiIG9zYzJQdWxzZVdpZHRoQXR0YWNrPSIwLjAiIG9zYzJQ
        dWxzZVdpZHRoRGVjYXk9IjAuMCIgb3NjMlB1bHNlV2lkdGhTdXN0YWluPSIwLjAiIG9zYzJQdWxzZVdpZHRoUmVsZWFzZT0iMC4wIiBvc2MyUHVsc2VXaWR0aExmb0Vu
        YWJsZWQ9IjEuMCIgb3NjMlB1bHNlV2lkdGhMZm9TaGFwZT0iMS4wIiBvc2MyUHVsc2VXaWR0aExmb0FtcGxpdHVkZT0iMS4wIiBvc2MyUHVsc2VXaWR0aExmb0ZyZXF1
        ZW5jeT0iMC4wOTk5OTk5OTQwMzk1MzU1MiIgb3NjMlBpdGNoPSIwLjAiIG9zYzJQaXRjaEVuYWJsZWQ9IjAuMCIgb3NjMlBpdGNoQWRzckVuYWJsZWQ9IjAuMCIgb3Nj
        MlBpdGNoQXR0YWNrPSIwLjAiIG9zYzJQaXRjaERlY2F5PSIwLjAiIG9zYzJQaXRjaFN1c3RhaW49IjAuMCIgb3NjMlBpdGNoUmVsZWFzZT0iMC4wIiBvc2MyUGl0Y2hM
        Zm9FbmFibGVkPSIwLjAiIG9zYzJQaXRjaExmb1NoYXBlPSIxLjAiIG9zYzJQaXRjaExmb0FtcGxpdHVkZT0iMC4wIiBvc2MyUGl0Y2hMZm9GcmVxdWVuY3k9IjAuMCIg
        b3NjMkZpbHRlckN1dG9mZkZyZXF1ZW5jeT0iMjAwMDAuMCIgb3NjMkZpbHRlckN1dG9mZkZyZXF1ZW5jeUVuYWJsZWQ9IjAuMCIgb3NjMkZpbHRlckN1dG9mZkZyZXF1
        ZW5jeUFkc3JFbmFibGVkPSIwLjAiIG9zYzJGaWx0ZXJDdXRvZmZGcmVxdWVuY3lBdHRhY2s9IjAuMCIgb3NjMkZpbHRlckN1dG9mZkZyZXF1ZW5jeURlY2F5PSIwLjAi
        IG9zYzJGaWx0ZXJDdXRvZmZGcmVxdWVuY3lTdXN0YWluPSIwLjAiIG9zYzJGaWx0ZXJDdXRvZmZGcmVxdWVuY3lSZWxlYXNlPSIwLjAiIG9zYzJGaWx0ZXJDdXRvZmZG
        cmVxdWVuY3lMZm9FbmFibGVkPSIwLjAiIG9zYzJGaWx0ZXJDdXRvZmZGcmVxdWVuY3lMZm9TaGFwZT0iMS4wIiBvc2MyRmlsdGVyQ3V0b2ZmRnJlcXVlbmN5TGZvQW1w
        bGl0dWRlPSIwLjAiIG9zYzJGaWx0ZXJDdXRvZmZGcmVxdWVuY3lMZm9GcmVxdWVuY3k9IjAuMCIgb3NjMkZpbHRlclJlc29uYW5jZT0iMC4wIiBvc2MyRmlsdGVyUmVz
        b25hbmNlRW5hYmxlZD0iMC4wIiBvc2MyRmlsdGVyUmVzb25hbmNlQWRzckVuYWJsZWQ9IjAuMCIgb3NjMkZpbHRlclJlc29uYW5jZUF0dGFjaz0iMC4wIiBvc2MyRmls
        dGVyUmVzb25hbmNlRGVjYXk9IjAuMCIgb3NjMkZpbHRlclJlc29uYW5jZVN1c3RhaW49IjAuMCIgb3NjMkZpbHRlclJlc29uYW5jZVJlbGVhc2U9IjAuMCIgb3NjMkZp
        bHRlclJlc29uYW5jZUxmb0VuYWJsZWQ9IjAuMCIgb3NjMkZpbHRlclJlc29uYW5jZUxmb1NoYXBlPSIxLjAiIG9zYzJGaWx0ZXJSZXNvbmFuY2VMZm9BbXBsaXR1ZGU9
        IjAuMCIgb3NjMkZpbHRlclJlc29uYW5jZUxmb0ZyZXF1ZW5jeT0iMC4wIiBvc2MyVm9sdW1lPSIwLjIwMDAwMDAwMjk4MDIzMjIiIG9zYzJWb2x1bWVFbmFibGVkPSIx
        LjAiIG9zYzJWb2x1bWVBZHNyRW5hYmxlZD0iMS4wIiBvc2MyVm9sdW1lQXR0YWNrPSIwLjAwNTAwMDAwMDM1MzkwMjU3OCIgb3NjMlZvbHVtZURlY2F5PSIyLjAiIG9z
        YzJWb2x1bWVTdXN0YWluPSIwLjAiIG9zYzJWb2x1bWVSZWxlYXNlPSIwLjAxMDAwMDAwMDcwNzgwNTE2IiBvc2MyVm9sdW1lTGZvRW5hYmxlZD0iMC4wIiBvc2MyVm9s
        dW1lTGZvU2hhcGU9IjEuMCIgb3NjMlZvbHVtZUxmb0FtcGxpdHVkZT0iMC4wIiBvc2MyVm9sdW1lTGZvRnJlcXVlbmN5PSIwLjAiIG9zYzNFbmFibGVkPSIxLjAiIG9z
        YzNXYXZlZm9ybVNhdz0iMC4wIiBvc2MzV2F2ZWZvcm1TcXVhcmU9IjEuMCIgb3NjM1dhdmVmb3JtUHVsc2U9IjAuMCIgb3NjM1dhdmVmb3JtTm9pc2U9IjAuMCIgb3Nj
        M1B1bHNlV2lkdGg9IjAuOTkwMDAwMDA5NTM2NzQzMiIgb3NjM1B1bHNlV2lkdGhFbmFibGVkPSIxLjAiIG9zYzNQdWxzZVdpZHRoQWRzckVuYWJsZWQ9IjAuMCIgb3Nj
        M1B1bHNlV2lkdGhBdHRhY2s9IjAuMCIgb3NjM1B1bHNlV2lkdGhEZWNheT0iMC4wIiBvc2MzUHVsc2VXaWR0aFN1c3RhaW49IjAuMCIgb3NjM1B1bHNlV2lkdGhSZWxl
        YXNlPSIwLjAiIG9zYzNQdWxzZVdpZHRoTGZvRW5hYmxlZD0iMS4wIiBvc2MzUHVsc2VXaWR0aExmb1NoYXBlPSIxLjAiIG9zYzNQdWxzZVdpZHRoTGZvQW1wbGl0dWRl
        PSIxLjAiIG9zYzNQdWxzZVdpZHRoTGZvRnJlcXVlbmN5PSIwLjA5OTk5OTk5NDAzOTUzNTUyIiBvc2MzUGl0Y2g9IjAuMCIgb3NjM1BpdGNoRW5hYmxlZD0iMC4wIiBv
        c2MzUGl0Y2hBZHNyRW5hYmxlZD0iMC4wIiBvc2MzUGl0Y2hBdHRhY2s9IjAuMCIgb3NjM1BpdGNoRGVjYXk9IjAuMCIgb3NjM1BpdGNoU3VzdGFpbj0iMC4wIiBvc2Mz
        UGl0Y2hSZWxlYXNlPSIwLjAiIG9zYzNQaXRjaExmb0VuYWJsZWQ9IjAuMCIgb3NjM1BpdGNoTGZvU2hhcGU9IjEuMCIgb3NjM1BpdGNoTGZvQW1wbGl0dWRlPSIwLjAi
        IG9zYzNQaXRjaExmb0ZyZXF1ZW5jeT0iMC4wIiBvc2MzRmlsdGVyQ3V0b2ZmRnJlcXVlbmN5PSIyMDAwMC4wIiBvc2MzRmlsdGVyQ3V0b2ZmRnJlcXVlbmN5RW5hYmxl
        ZD0iMC4wIiBvc2MzRmlsdGVyQ3V0b2ZmRnJlcXVlbmN5QWRzckVuYWJsZWQ9IjAuMCIgb3NjM0ZpbHRlckN1dG9mZkZyZXF1ZW5jeUF0dGFjaz0iMC4wIiBvc2MzRmls
        dGVyQ3V0b2ZmRnJlcXVlbmN5RGVjYXk9IjAuMCIgb3NjM0ZpbHRlckN1dG9mZkZyZXF1ZW5jeVN1c3RhaW49IjAuMCIgb3NjM0ZpbHRlckN1dG9mZkZyZXF1ZW5jeVJl
        bGVhc2U9IjAuMCIgb3NjM0ZpbHRlckN1dG9mZkZyZXF1ZW5jeUxmb0VuYWJsZWQ9IjAuMCIgb3NjM0ZpbHRlckN1dG9mZkZyZXF1ZW5jeUxmb1NoYXBlPSIxLjAiIG9z
        YzNGaWx0ZXJDdXRvZmZGcmVxdWVuY3lMZm9BbXBsaXR1ZGU9IjAuMCIgb3NjM0ZpbHRlckN1dG9mZkZyZXF1ZW5jeUxmb0ZyZXF1ZW5jeT0iMC4wIiBvc2MzRmlsdGVy
        UmVzb25hbmNlPSIwLjAiIG9zYzNGaWx0ZXJSZXNvbmFuY2VFbmFibGVkPSIwLjAiIG9zYzNGaWx0ZXJSZXNvbmFuY2VBZHNyRW5hYmxlZD0iMC4wIiBvc2MzRmlsdGVy
        UmVzb25hbmNlQXR0YWNrPSIwLjAiIG9zYzNGaWx0ZXJSZXNvbmFuY2VEZWNheT0iMC4wIiBvc2MzRmlsdGVyUmVzb25hbmNlU3VzdGFpbj0iMC4wIiBvc2MzRmlsdGVy
        UmVzb25hbmNlUmVsZWFzZT0iMC4wIiBvc2MzRmlsdGVyUmVzb25hbmNlTGZvRW5hYmxlZD0iMC4wIiBvc2MzRmlsdGVyUmVzb25hbmNlTGZvU2hhcGU9IjEuMCIgb3Nj
        M0ZpbHRlclJlc29uYW5jZUxmb0FtcGxpdHVkZT0iMC4wIiBvc2MzRmlsdGVyUmVzb25hbmNlTGZvRnJlcXVlbmN5PSIwLjAiIG9zYzNWb2x1bWU9IjAuMjAwMDAwMDAy
        OTgwMjMyMiIgb3NjM1ZvbHVtZUVuYWJsZWQ9IjEuMCIgb3NjM1ZvbHVtZUFkc3JFbmFibGVkPSIxLjAiIG9zYzNWb2x1bWVBdHRhY2s9IjAuMDA1MDAwMDAwMzUzOTAy
        NTc4IiBvc2MzVm9sdW1lRGVjYXk9IjEwLjAiIG9zYzNWb2x1bWVTdXN0YWluPSIwLjAiIG9zYzNWb2x1bWVSZWxlYXNlPSIwLjAxMDAwMDAwMDcwNzgwNTE2IiBvc2Mz
        Vm9sdW1lTGZvRW5hYmxlZD0iMC4wIiBvc2MzVm9sdW1lTGZvU2hhcGU9IjEuMCIgb3NjM1ZvbHVtZUxmb0FtcGxpdHVkZT0iMC4wIiBvc2MzVm9sdW1lTGZvRnJlcXVl
        bmN5PSIwLjAiIG9zYzRFbmFibGVkPSIxLjAiIG9zYzRXYXZlZm9ybVNhdz0iMC4wIiBvc2M0V2F2ZWZvcm1TcXVhcmU9IjEuMCIgb3NjNFdhdmVmb3JtUHVsc2U9IjAu
        MCIgb3NjNFdhdmVmb3JtTm9pc2U9IjAuMCIgb3NjNFB1bHNlV2lkdGg9IjAuOTkwMDAwMDA5NTM2NzQzMiIgb3NjNFB1bHNlV2lkdGhFbmFibGVkPSIxLjAiIG9zYzRQ
        dWxzZVdpZHRoQWRzckVuYWJsZWQ9IjAuMCIgb3NjNFB1bHNlV2lkdGhBdHRhY2s9IjAuMCIgb3NjNFB1bHNlV2lkdGhEZWNheT0iMC4wIiBvc2M0UHVsc2VXaWR0aFN1
        c3RhaW49IjAuMCIgb3NjNFB1bHNlV2lkdGhSZWxlYXNlPSIwLjAiIG9zYzRQdWxzZVdpZHRoTGZvRW5hYmxlZD0iMS4wIiBvc2M0UHVsc2VXaWR0aExmb1NoYXBlPSIx
        LjAiIG9zYzRQdWxzZVdpZHRoTGZvQW1wbGl0dWRlPSIxLjAiIG9zYzRQdWxzZVdpZHRoTGZvRnJlcXVlbmN5PSIwLjA5OTk5OTk5NDAzOTUzNTUyIiBvc2M0UGl0Y2g9
        IjAuMCIgb3NjNFBpdGNoRW5hYmxlZD0iMC4wIiBvc2M0UGl0Y2hBZHNyRW5hYmxlZD0iMC4wIiBvc2M0UGl0Y2hBdHRhY2s9IjAuMCIgb3NjNFBpdGNoRGVjYXk9IjAu
        MCIgb3NjNFBpdGNoU3VzdGFpbj0iMC4wIiBvc2M0UGl0Y2hSZWxlYXNlPSIwLjAiIG9zYzRQaXRjaExmb0VuYWJsZWQ9IjAuMCIgb3NjNFBpdGNoTGZvU2hhcGU9IjEu
        MCIgb3NjNFBpdGNoTGZvQW1wbGl0dWRlPSIwLjAiIG9zYzRQaXRjaExmb0ZyZXF1ZW5jeT0iMC4wIiBvc2M0RmlsdGVyQ3V0b2ZmRnJlcXVlbmN5PSIyMDAwMC4wIiBv
        c2M0RmlsdGVyQ3V0b2ZmRnJlcXVlbmN5RW5hYmxlZD0iMC4wIiBvc2M0RmlsdGVyQ3V0b2ZmRnJlcXVlbmN5QWRzckVuYWJsZWQ9IjAuMCIgb3NjNEZpbHRlckN1dG9m
        ZkZyZXF1ZW5jeUF0dGFjaz0iMC4wIiBvc2M0RmlsdGVyQ3V0b2ZmRnJlcXVlbmN5RGVjYXk9IjAuMCIgb3NjNEZpbHRlckN1dG9mZkZyZXF1ZW5jeVN1c3RhaW49IjAu
        MCIgb3NjNEZpbHRlckN1dG9mZkZyZXF1ZW5jeVJlbGVhc2U9IjAuMCIgb3NjNEZpbHRlckN1dG9mZkZyZXF1ZW5jeUxmb0VuYWJsZWQ9IjAuMCIgb3NjNEZpbHRlckN1
        dG9mZkZyZXF1ZW5jeUxmb1NoYXBlPSIxLjAiIG9zYzRGaWx0ZXJDdXRvZmZGcmVxdWVuY3lMZm9BbXBsaXR1ZGU9IjAuMCIgb3NjNEZpbHRlckN1dG9mZkZyZXF1ZW5j
        eUxmb0ZyZXF1ZW5jeT0iMC4wIiBvc2M0RmlsdGVyUmVzb25hbmNlPSIwLjAiIG9zYzRGaWx0ZXJSZXNvbmFuY2VFbmFibGVkPSIwLjAiIG9zYzRGaWx0ZXJSZXNvbmFu
        Y2VBZHNyRW5hYmxlZD0iMC4wIiBvc2M0RmlsdGVyUmVzb25hbmNlQXR0YWNrPSIwLjAiIG9zYzRGaWx0ZXJSZXNvbmFuY2VEZWNheT0iMC4wIiBvc2M0RmlsdGVyUmVz
        b25hbmNlU3VzdGFpbj0iMC4wIiBvc2M0RmlsdGVyUmVzb25hbmNlUmVsZWFzZT0iMC4wIiBvc2M0RmlsdGVyUmVzb25hbmNlTGZvRW5hYmxlZD0iMC4wIiBvc2M0Rmls
        dGVyUmVzb25hbmNlTGZvU2hhcGU9IjEuMCIgb3NjNEZpbHRlclJlc29uYW5jZUxmb0FtcGxpdHVkZT0iMC4wIiBvc2M0RmlsdGVyUmVzb25hbmNlTGZvRnJlcXVlbmN5
        PSIwLjAiIG9zYzRWb2x1bWU9IjAuMjAwMDAwMDAyOTgwMjMyMiIgb3NjNFZvbHVtZUVuYWJsZWQ9IjEuMCIgb3NjNFZvbHVtZUFkc3JFbmFibGVkPSIxLjAiIG9zYzRW
        b2x1bWVBdHRhY2s9IjAuMDA1MDAwMDAwMzUzOTAyNTc4IiBvc2M0Vm9sdW1lRGVjYXk9IjAuMCIgb3NjNFZvbHVtZVN1c3RhaW49IjAuMTAwMDAwMDAxNDkwMTE2MSIg
        b3NjNFZvbHVtZVJlbGVhc2U9IjAuMDEwMDAwMDAwNzA3ODA1MTYiIG9zYzRWb2x1bWVMZm9FbmFibGVkPSIwLjAiIG9zYzRWb2x1bWVMZm9TaGFwZT0iMS4wIiBvc2M0
        Vm9sdW1lTGZvQW1wbGl0dWRlPSIwLjAiIG9zYzRWb2x1bWVMZm9GcmVxdWVuY3k9IjAuMCIgZmlsdGVyRW5hYmxlZD0iMC4wIiBmaWx0ZXJDdXRvZmZGcmVxdWVuY3k9
        IjIwMDAwLjAiIGZpbHRlckN1dG9mZkZyZXF1ZW5jeUVuYWJsZWQ9IjAuMCIgZmlsdGVyUmVzb25hbmNlPSIwLjAiIGZpbHRlclJlc29uYW5jZUVuYWJsZWQ9IjAuMCIg
        YW1wbGl0dWRlRW5hYmxlZD0iMC4wIiBhbXBsaXR1ZGVBdHRhY2s9IjAuMTAwMDAwMDAxNDkwMTE2MSIgYW1wbGl0dWRlRGVjYXk9IjAuMTAwMDAwMDAxNDkwMTE2MSIg
        YW1wbGl0dWRlU3VzdGFpbj0iMC41IiBhbXBsaXR1ZGVSZWxlYXNlPSIwLjEwMDAwMDAwMTQ5MDExNjEiIHBvc2l0aW9uRW5hYmxlZD0iMS4wIiBwb3NpdGlvbkRpc3Rh
        bmNlVHlwZT0iMS4wIiBwb3NpdGlvbkRpcmVjdGlvblR5cGU9IjEuMCIgcG9zaXRpb25YWVpFbmFibGVkPSIxLjAiIHBvc2l0aW9uWD0iMC4wIiBwb3NpdGlvblk9IjAu
        MjAwMDAwMDQ3NjgzNzE1OCIgcG9zaXRpb25DYXJ0ZXNpYW5aPSIwLjAiIHBvc2l0aW9uWFlfeHlwYWRfaW5wdXRYPSIxNTEuNDAxODQwMjA5OTYwOSIgcG9zaXRpb25Y
        WV94eXBhZF9pbnB1dFk9IjE4Ni4yMjY2NjkzMTE1MjM0IiBwb3NpdGlvbkNhcnRlc2lhblpfeHlwYWRfaW5wdXRYPSIwLjAiIHBvc2l0aW9uQ2FydGVzaWFuWl94eXBh
        ZF9pbnB1dFk9IjAuMCIgcG9zaXRpb25NYXhYWVo9IjEwMC4wIiBwb3NpdGlvbk1heFhZWl92c2xpZGVyPSIxMDAuMCIgcG9zaXRpb25SVFpFbmFibGVkPSIxLjAiIHBv
        c2l0aW9uUj0iMC41IiBwb3NpdGlvblQ9IjcxLjU3OTk4NjU3MjI2NTYyIiBwb3NpdGlvblBvbGFyWj0iLTAuNDcxMzIwNjg4NzI0NTE3OCIgcG9zaXRpb25SVF94eXBh
        ZF9pbnB1dFg9IjE0Ni4zOTUxNzIxMTkxNDA2IiBwb3NpdGlvblJUX3h5cGFkX2lucHV0WT0iMjA4LjM0OTgyMjk5ODA0NjkiIHBvc2l0aW9uUG9sYXJaX3h5cGFkX2lu
        cHV0WD0iMC4wIiBwb3NpdGlvblBvbGFyWl94eXBhZF9pbnB1dFk9IjAuMCIgcG9zaXRpb25NYXhSWj0iMTAwLjAiIHBvc2l0aW9uTWF4UlpfdnNsaWRlcj0iMTAwLjAi
        Lz48L0NBQkJBR0VfUFJFU0VUUz4AAAAAAAAAAABKVUNFUHJpdmF0ZURhdGEAAQFCeXBhc3MAAQEDAB0AAAAAAAAASlVDRVByaXZhdGVEYXRhAAAAAAAAAAA=
        AAAQAAAA
      >
      FLOATPOS 920 0 1000 570
      FXID {B75B4CE6-4A70-3E49-B952-1709777D1D85}
      <PARMENV 285:285 0 1 0.5
        EGUID {A319B71E-7E2A-AD4F-A164-90ACD04DC89A}
        ACT 1 -1
        VIS 1 1 1
        LANEHEIGHT 0 0
        ARM 0
        DEFSHAPE 0 -1 -1
        PT 0 0 0
      >
      <PROGRAMENV 285:285 0
        PARAMBASE 0
        LFO 1
        LFOWT 1 1
        AUDIOCTL 0
        AUDIOCTLWT 1 1
        LFOSHAPE 3
        LFOSYNC 0 0 0
        LFOSPEED 0.001387 0.667
        MODWND 0 531 184 918 569
      >
      <PARMENV 286:286 0 1 0.5
        EGUID {4BA3A4E9-740F-854F-A9D5-4B3FC18C1783}
        ACT 1 -1
        VIS 1 1 1
        LANEHEIGHT 0 0
        ARM 0
        DEFSHAPE 0 -1 -1
        PT 0 0.5 0
      >
      <PROGRAMENV 286:286 0
        PARAMBASE 0
        LFO 1
        LFOWT 0.5 0
        AUDIOCTL 0
        AUDIOCTLWT 1 1
        LFOSHAPE 0
        LFOSYNC 0 0 0
        LFOSPEED 0.001387 0.914
        MODWND 0 532 77 919 462
      >
      WAK 0 0
    >
    <ITEM
      POSITION 3.98157042348479
      SNAPOFFS 0
      LENGTH 118.51842957651522
      LOOP 1
      ALLTAKES 0
      FADEIN 1 0 0 1 0 0 0
      FADEOUT 1 0 0 1 0 0 0
      MUTE 0 0
      SEL 0
      IGUID {DC80A914-7383-BA4B-9B8F-8DE65D9DD9D5}
      IID 44
      NAME "07-Piano - pedal-Recorded MIDI-glued"
      VOLPAN 1 0 1 -1
      SOFFS 0 0
      PLAYRATE 1 1 0 -1 0 0.0025
      CHANMODE 0
      GUID {DC8484DF-29FC-3A48-A7AC-09CD244A3956}
      <SOURCE MIDI
        HASDATA 1 960 QN
        CCINTERP 32
        POOLEDEVTS {D9B6E605-DBD9-6F4C-8FE7-3B1F2B9F37B3}
        E 36 90 26 01
        E 159 80 26 00
        E 314 90 26 02
        E 174 80 26 00
        E 300 90 26 06
        E 175 80 26 00
        E 294 90 26 08
        E 193 80 26 00
        E 292 90 26 0b
        E 179 80 26 00
        E 297 90 26 0e
        E 179 80 26 00
        E 296 90 26 11
        E 167 80 26 00
        E 316 90 26 13
        E 179 80 26 00
        E 300 90 26 17
        E 177 80 26 00
        E 298 90 26 19
        E 177 80 26 00
        E 294 90 26 1d
        E 197 80 26 00
        E 280 90 26 1e
        E 194 80 26 00
        E 286 90 26 21
        E 198 80 26 00
        E 271 90 26 25
        E 186 80 26 00
        E 305 90 26 28
        E 178 80 26 00
        e 308 90 26 2a
        e 192 80 26 00
        E 285 90 26 2d
        E 195 80 26 00
        E 282 90 26 31
        E 196 80 26 00
        E 278 90 26 34
        E 200 80 26 00
        E 294 90 26 38
        E 175 80 26 00
        E 296 90 26 3a
        E 193 80 26 00
        E 292 90 26 3d
        E 173 80 26 00
        E 311 90 26 40
        E 191 80 26 00
        E 293 90 26 42
        E 193 80 26 00
        E 281 90 26 45
        E 161 80 26 00
        E 319 90 26 42
        E 166 80 26 00
        E 302 90 26 48
        E 148 80 26 00
        E 348 90 26 45
        E 162 80 26 00
        E 309 90 26 46
        E 171 80 26 00
        E 311 90 26 43
        E 174 80 26 00
        E 309 90 26 44
        E 182 80 26 00
        E 289 90 26 47
        E 166 80 26 00
        E 314 90 26 47
        E 186 80 26 00
        E 284 90 26 4b
        E 203 80 26 00
        E 276 90 26 4a
        E 187 80 26 00
        E 296 90 26 46
        E 196 80 26 00
        E 294 90 26 46
        E 176 80 26 00
        E 299 90 26 45
        E 186 80 26 00
        E 299 90 26 44
        E 161 80 26 00
        E 309 90 26 44
        E 166 80 26 00
        E 311 90 26 45
        E 162 80 26 00
        E 319 90 26 45
        E 175 80 26 00
        E 300 90 26 46
        E 199 80 26 00
        E 285 90 26 44
        E 189 80 26 00
        E 295 90 26 45
        E 186 80 26 00
        E 304 90 26 44
        E 192 80 26 00
        E 312 90 26 3f
        E 180 80 26 00
        E 300 90 26 41
        E 206 80 26 00
        E 270 90 26 46
        E 198 80 26 00
        E 293 90 26 45
        E 172 80 26 00
        E 298 90 26 45
        E 192 80 26 00
        E 278 90 26 45
        E 178 80 26 00
        E 298 90 26 45
        E 180 80 26 00
        E 288 90 26 45
        E 184 80 26 00
        E 290 90 26 46
        E 201 80 26 00
        E 270 90 26 43
        E 206 80 26 00
        E 272 90 26 46
        E 198 80 26 00
        E 287 90 26 46
        E 202 80 26 00
        E 272 90 26 43
        E 178 80 26 00
        E 283 90 26 46
        E 175 80 26 00
        E 298 90 26 43
        E 190 80 26 00
        E 325 90 26 46
        E 168 80 26 00
        E 339 90 26 46
        E 180 80 26 00
        E 310 90 26 45
        E 190 80 26 00
        E 310 90 26 46
        E 159 80 26 00
        E 314 90 26 47
        E 174 80 26 00
        E 300 90 26 46
        E 175 80 26 00
        E 294 90 26 44
        E 193 80 26 00
        E 292 90 26 44
        E 179 80 26 00
        E 297 90 26 46
        E 179 80 26 00
        E 296 90 26 46
        E 167 80 26 00
        E 316 90 26 45
        E 179 80 26 00
        E 300 90 26 45
        E 177 80 26 00
        E 298 90 26 43
        E 177 80 26 00
        E 294 90 26 45
        E 197 80 26 00
        E 280 90 26 47
        E 194 80 26 00
        E 286 90 26 44
        E 198 80 26 00
        E 271 90 26 42
        E 186 80 26 00
        E 305 90 26 45
        E 178 80 26 00
        E 308 90 26 47
        E 192 80 26 00
        E 285 90 26 46
        E 195 80 26 00
        E 282 90 26 45
        E 196 80 26 00
        E 278 90 26 45
        E 200 80 26 00
        E 294 90 26 46
        E 175 80 26 00
        E 296 90 26 44
        E 193 80 26 00
        E 292 90 26 46
        E 173 80 26 00
        E 311 90 26 45
        E 191 80 26 00
        E 293 90 26 41
        E 193 80 26 00
        E 281 90 26 45
        E 161 80 26 00
        E 319 90 26 42
        E 166 80 26 00
        E 302 90 26 48
        E 148 80 26 00
        E 348 90 26 45
        E 162 80 26 00
        E 309 90 26 46
        E 171 80 26 00
        E 311 90 26 43
        E 174 80 26 00
        E 309 90 26 44
        E 182 80 26 00
        E 289 90 26 47
        E 166 80 26 00
        E 314 90 26 47
        E 45 80 26 00
        E 0 90 26 47
        E 133 80 26 00
        E 303 90 26 47
        E 157 80 26 00
        E 332 90 26 45
        E 177 80 26 00
        E 306 90 26 40
        E 170 80 26 00
        E 295 90 26 43
        E 166 80 26 00
        E 305 90 26 44
        E 170 80 26 00
        E 307 90 26 45
        E 173 80 26 00
        E 321 90 26 40
        E 191 80 26 00
        E 282 90 26 46
        E 161 80 26 00
        E 317 90 26 46
        E 184 80 26 00
        E 297 90 26 45
        E 162 80 26 00
        E 317 90 26 43
        E 168 80 26 00
        E 286 90 26 41
        E 181 80 26 00
        E 301 90 26 47
        E 152 80 26 00
        E 316 90 26 42
        E 191 80 26 00
        E 310 90 26 46
        E 166 80 26 00
        E 321 90 26 45
        E 195 80 26 00
        E 300 90 26 45
        E 189 80 26 00
        E 308 90 26 46
        E 175 80 26 00
        E 314 90 26 45
        E 176 80 26 00
        E 293 90 26 42
        E 174 80 26 00
        E 289 90 26 44
        E 197 80 26 00
        E 283 90 26 4a
        E 153 80 26 00
        E 323 90 26 49
        E 162 80 26 00
        E 323 90 26 47
        E 143 80 26 00
        E 353 90 26 43
        E 176 80 26 00
        E 297 90 26 44
        E 187 80 26 00
        E 297 90 26 44
        E 190 80 26 00
        E 288 90 26 46
        E 192 80 26 00
        E 279 90 26 47
        E 200 80 26 00
        E 278 90 26 44
        E 165 80 26 00
        E 306 90 26 45
        E 197 80 26 00
        E 300 90 26 47
        E 183 80 26 00
        E 307 90 26 49
        E 171 80 26 00
        E 309 90 26 44
        E 203 80 26 00
        E 280 90 26 40
        E 188 80 26 00
        E 282 90 26 48
        E 182 80 26 00
        E 293 90 26 46
        E 201 80 26 00
        E 280 90 26 46
        E 189 80 26 00
        E 288 90 26 44
        E 181 80 26 00
        E 299 90 26 49
        E 198 80 26 00
        E 281 90 26 46
        E 176 80 26 00
        E 298 90 26 45
        E 181 80 26 00
        E 304 90 26 43
        E 158 80 26 00
        E 319 90 26 48
        E 154 80 26 00
        E 329 90 26 44
        E 186 80 26 00
        E 297 90 26 48
        E 174 80 26 00
        E 302 90 26 42
        E 195 80 26 00
        E 286 90 26 43
        E 186 80 26 00
        E 306 90 26 44
        E 181 80 26 00
        E 303 90 26 45
        E 158 80 26 00
        E 321 90 26 43
        E 175 80 26 00
        E 310 90 26 47
        E 182 80 26 00
        E 307 90 26 44
        E 163 80 26 00
        E 322 90 26 46
        E 179 80 26 00
        E 278 90 26 45
        E 165 80 26 00
        E 327 90 26 46
        E 182 80 26 00
        E 295 90 26 45
        E 168 80 26 00
        E 309 90 26 46
        E 192 80 26 00
        E 297 90 26 44
        E 183 80 26 00
        E 298 90 26 44
        E 182 80 26 00
        E 299 90 26 46
        E 155 80 26 00
        E 326 90 26 46
        E 195 80 26 00
        E 279 90 26 49
        E 160 80 26 00
        E 321 90 26 43
        E 182 80 26 00
        E 323 90 26 44
        E 179 80 26 00
        E 292 90 26 45
        E 181 80 26 00
        E 297 90 26 45
        E 186 80 26 00
        E 289 90 26 46
        E 165 80 26 00
        E 302 90 26 46
        E 169 80 26 00
        E 314 90 26 48
        E 181 80 26 00
        E 288 90 26 44
        E 184 80 26 00
        E 296 90 26 48
        E 182 80 26 00
        E 290 90 26 47
        E 175 80 26 00
        E 310 90 26 49
        E 160 80 26 00
        E 326 90 26 45
        E 181 80 26 00
        E 286 90 26 45
        E 187 80 26 00
        E 299 90 26 47
        E 186 80 26 00
        E 294 90 26 47
        E 176 80 26 00
        E 302 90 26 46
        E 159 80 26 00
        E 318 90 26 48
        E 192 80 26 00
        E 282 90 26 46
        E 185 80 26 00
        E 295 90 26 47
        E 181 80 26 00
        E 303 90 26 48
        E 190 80 26 00
        E 309 90 26 47
        E 142 80 26 00
        E 320 90 26 48
        E 156 80 26 00
        E 321 90 26 45
        E 173 80 26 00
        E 307 90 26 45
        E 183 80 26 00
        E 297 90 26 45
        E 190 80 26 00
        E 296 90 26 47
        E 167 80 26 00
        E 319 90 26 46
        E 179 80 26 00
        E 301 90 26 46
        E 172 80 26 00
        E 322 90 26 45
        E 188 80 26 00
        E 294 90 26 45
        E 200 80 26 00
        E 290 90 26 46
        E 186 80 26 00
        E 282 90 26 46
        E 205 80 26 00
        E 278 90 26 45
        E 168 80 26 00
        E 290 90 26 47
        E 177 80 26 00
        E 316 90 26 47
        E 168 80 26 00
        E 318 90 26 44
        E 174 80 26 00
        E 310 90 26 48
        E 146 80 26 00
        E 330 90 26 46
        E 168 80 26 00
        E 323 90 26 46
        E 154 80 26 00
        E 326 90 26 46
        E 168 80 26 00
        E 302 90 26 43
        E 162 80 26 00
        E 307 90 26 46
        E 183 80 26 00
        E 310 90 26 47
        E 185 80 26 00
        E 293 90 26 48
        E 149 80 26 00
        E 330 90 26 47
        E 188 80 26 00
        E 308 90 26 46
        E 161 80 26 00
        E 315 90 26 46
        E 164 80 26 00
        E 327 90 26 45
        E 153 80 26 00
        E 307 90 26 49
        E 153 80 26 00
        E 329 90 26 44
        E 174 80 26 00
        E 303 90 26 45
        E 184 80 26 00
        E 282 90 26 46
        E 184 80 26 00
        E 306 90 26 47
        E 152 80 26 00
        E 322 90 26 45
        E 174 80 26 00
        E 318 90 26 48
        E 180 80 26 00
        E 311 90 26 47
        E 155 80 26 00
        E 337 90 26 47
        E 163 80 26 00
        E 306 90 26 40
        E 185 80 26 00
        E 286 90 26 46
        E 164 80 26 00
        E 309 90 26 44
        E 190 80 26 00
        E 285 90 26 44
        E 197 80 26 00
        E 285 90 26 42
        E 180 80 26 00
        E 289 90 26 44
        E 176 80 26 00
        E 298 90 26 43
        E 188 80 26 00
        E 295 90 26 44
        E 183 80 26 00
        E 290 90 26 46
        E 194 80 26 00
        E 298 90 26 46
        E 193 80 26 00
        E 284 90 26 45
        E 192 80 26 00
        E 280 90 26 45
        E 201 80 26 00
        E 280 90 26 43
        E 164 80 26 00
        E 301 90 26 45
        E 184 80 26 00
        E 285 90 26 43
        E 163 80 26 00
        E 330 90 26 48
        E 202 80 26 00
        E 297 90 26 45
        E 183 80 26 00
        E 298 90 26 46
        E 203 80 26 00
        E 289 90 26 47
        E 188 80 26 00
        E 287 90 26 46
        E 190 80 26 00
        E 299 90 26 45
        E 182 80 26 00
        E 295 90 26 46
        E 160 80 26 00
        E 303 90 26 47
        E 183 80 26 00
        E 302 90 26 48
        E 197 80 26 00
        E 275 90 26 47
        E 203 80 26 00
        E 289 90 26 46
        E 178 80 26 00
        E 299 90 26 45
        E 188 80 26 00
        E 280 90 26 45
        E 194 80 26 00
        E 268 90 26 46
        E 200 80 26 00
        E 283 90 26 43
        E 208 80 26 00
        E 262 90 26 44
        E 193 80 26 00
        E 299 90 26 47
        E 187 80 26 00
        E 312 90 26 46
        E 191 80 26 00
        E 286 90 26 47
        E 203 80 26 00
        E 274 90 26 47
        E 210 80 26 00
        E 283 90 26 46
        E 199 80 26 00
        E 298 90 26 42
        E 192 80 26 00
        E 284 90 26 46
        E 189 80 26 00
        E 297 90 26 47
        E 179 80 26 00
        E 302 90 26 49
        E 193 80 26 00
        E 281 90 26 47
        E 155 80 26 00
        E 315 90 26 49
        E 193 80 26 00
        E 288 90 26 49
        E 190 80 26 00
        E 294 90 26 4a
        E 196 80 26 00
        E 277 90 26 48
        E 183 80 26 00
        E 285 90 26 49
        E 169 80 26 00
        E 307 90 26 46
        E 182 80 26 00
        E 282 90 26 47
        E 195 80 26 00
        E 285 90 26 48
        E 169 80 26 00
        E 316 90 26 48
        E 153 80 26 00
        E 319 90 26 49
        E 197 80 26 00
        E 304 90 26 48
        E 173 80 26 00
        E 306 90 26 47
        E 179 80 26 00
        E 309 90 26 49
        E 190 80 26 00
        E 297 90 26 49
        E 175 80 26 00
        E 319 90 26 49
        E 194 80 26 00
        E 293 90 26 48
        E 156 80 26 00
        E 328 90 26 48
        E 172 80 26 00
        E 305 90 26 45
        E 163 80 26 00
        E 299 90 26 48
        E 177 80 26 00
        E 285 90 26 46
        E 195 80 26 00
        E 276 90 26 47
        E 183 80 26 00
        E 304 90 26 46
        E 156 80 26 00
        E 327 90 26 45
        E 170 80 26 00
        E 301 90 26 44
        E 180 80 26 00
        E 300 90 26 4a
        E 176 80 26 00
        E 318 90 26 42
        E 186 80 26 00
        E 298 90 26 45
        E 183 80 26 00
        E 295 90 26 46
        E 166 80 26 00
        E 313 90 26 47
        E 197 80 26 00
        E 296 90 26 46
        E 197 80 26 00
        E 288 90 26 46
        E 179 80 26 00
        E 288 90 26 46
        E 196 80 26 00
        E 294 90 26 48
        E 186 80 26 00
        E 296 90 26 46
        E 156 80 26 00
        E 317 90 26 49
        E 187 80 26 00
        E 289 90 26 47
        E 188 80 26 00
        E 293 90 26 45
        E 167 80 26 00
        E 320 90 26 45
        E 169 80 26 00
        E 307 90 26 45
        E 184 80 26 00
        E 288 90 26 46
        E 196 80 26 00
        E 275 90 26 4a
        E 170 80 26 00
        E 294 90 26 46
        E 200 80 26 00
        E 271 90 26 47
        E 203 80 26 00
        E 300 90 26 45
        E 198 80 26 00
        E 285 90 26 46
        E 192 80 26 00
        E 289 90 26 44
        E 160 80 26 00
        E 327 90 26 49
        E 191 80 26 00
        E 285 90 26 45
        E 194 80 26 00
        E 274 90 26 47
        E 190 80 26 00
        E 287 90 26 47
        E 191 80 26 00
        E 289 90 26 45
        E 207 80 26 00
        E 276 90 26 45
        E 200 80 26 00
        E 294 90 26 47
        E 196 80 26 00
        E 299 90 26 45
        E 155 80 26 00
        E 317 90 26 46
        E 176 80 26 00
        E 301 90 26 45
        E 172 80 26 00
        E 294 90 26 46
        E 200 80 26 00
        E 278 90 26 45
        E 200 80 26 00
        E 272 90 26 47
        E 186 80 26 00
        E 287 90 26 48
        E 192 80 26 00
        E 284 90 26 49
        E 200 80 26 00
        E 303 90 26 49
        E 183 80 26 00
        E 309 90 26 46
        E 182 80 26 00
        E 310 90 26 45
        E 148 80 26 00
        E 335 90 26 46
        E 172 80 26 00
        E 296 90 26 47
        E 169 80 26 00
        E 314 90 26 4a
        E 150 80 26 00
        E 314 90 26 48
        E 214 80 26 00
        E 272 90 26 48
        E 186 80 26 00
        E 293 90 26 45
        E 166 80 26 00
        E 299 90 26 48
        E 184 80 26 00
        E 297 90 26 46
        E 184 80 26 00
        E 309 90 26 49
        E 168 80 26 00
        E 323 90 26 48
        E 184 80 26 00
        E 299 90 26 4a
        E 176 80 26 00
        E 302 90 26 48
        E 167 80 26 00
        E 311 90 26 47
        E 166 80 26 00
        E 304 90 26 46
        E 176 80 26 00
        E 303 90 26 48
        E 189 80 26 00
        E 292 90 26 47
        E 196 80 26 00
        E 286 90 26 46
        E 184 80 26 00
        E 300 90 26 46
        E 198 80 26 00
        E 291 90 26 47
        E 190 80 26 00
        E 280 90 26 45
        E 211 80 26 00
        E 262 90 26 49
        E 207 80 26 00
        E 280 90 26 47
        E 179 80 26 00
        E 310 90 26 48
        E 193 80 26 00
        E 288 90 26 48
        E 210 80 26 00
        E 267 90 26 49
        E 183 80 26 00
        E 299 90 26 49
        E 209 80 26 00
        E 246 90 26 48
        E 200 80 26 00
        E 280 90 26 48
        E 192 80 26 00
        E 285 90 26 4a
        E 185 80 26 00
        E 300 90 26 49
        E 217 80 26 00
        E 275 90 26 4c
        E 195 80 26 00
        E 282 90 26 48
        E 196 80 26 00
        E 288 90 26 49
        E 196 80 26 00
        E 273 90 26 49
        E 203 80 26 00
        E 281 90 26 4c
        E 193 80 26 00
        E 296 90 26 49
        E 198 80 26 00
        E 287 90 26 46
        E 184 80 26 00
        E 293 90 26 48
        E 184 80 26 00
        E 294 90 26 49
        E 195 80 26 00
        E 291 90 26 47
        E 200 80 26 00
        E 285 90 26 49
        E 192 80 26 00
        E 296 90 26 46
        E 198 80 26 00
        E 288 90 26 47
        E 204 80 26 00
        E 269 90 26 46
        E 187 80 26 00
        E 293 90 26 46
        E 192 80 26 00
        E 296 90 26 46
        E 191 80 26 00
        E 293 90 26 49
        E 187 80 26 00
        E 280 90 26 47
        E 189 80 26 00
        E 292 90 26 48
        E 193 80 26 00
        E 288 90 26 49
        E 192 80 26 00
        E 303 90 26 48
        E 181 80 26 00
        E 285 90 26 49
        E 205 80 26 00
        E 271 90 26 49
        E 200 80 26 00
        E 286 90 26 47
        E 180 80 26 00
        E 294 90 26 48
        E 190 80 26 00
        E 282 90 26 48
        E 179 80 26 00
        E 304 90 26 47
        E 192 80 26 00
        E 279 90 26 47
        E 194 80 26 00
        E 286 90 26 44
        E 181 80 26 00
        E 286 90 26 46
        E 186 80 26 00
        E 292 90 26 49
        E 184 80 26 00
        E 294 90 26 48
        E 189 80 26 00
        E 294 90 26 48
        E 197 80 26 00
        E 286 90 26 47
        E 199 80 26 00
        E 286 90 26 48
        E 189 80 26 00
        E 259 90 26 46
        E 200 80 26 00
        E 286 90 26 47
        E 208 80 26 00
        E 274 90 26 47
        E 203 80 26 00
        E 291 90 26 47
        E 212 80 26 00
        E 272 90 26 46
        E 198 80 26 00
        E 275 90 26 45
        E 201 80 26 00
        E 294 90 26 45
        E 187 80 26 00
        E 283 90 26 44
        E 201 80 26 00
        E 305 90 26 46
        E 166 80 26 00
        E 327 90 26 48
        E 177 80 26 00
        E 312 90 26 45
        E 172 80 26 00
        E 301 90 26 47
        E 213 80 26 00
        E 284 90 26 46
        E 174 80 26 00
        E 306 90 26 48
        E 188 80 26 00
        E 294 90 26 47
        E 187 80 26 00
        E 282 90 26 48
        E 183 80 26 00
        E 282 90 26 45
        E 197 80 26 00
        E 284 90 26 48
        E 196 80 26 00
        E 284 90 26 45
        E 198 80 26 00
        E 278 90 26 46
        E 189 80 26 00
        E 298 90 26 45
        E 173 80 26 00
        E 296 90 26 46
        E 207 80 26 00
        E 271 90 26 48
        E 164 80 26 00
        E 308 90 26 48
        E 194 80 26 00
        E 291 90 26 45
        E 165 80 26 00
        E 302 90 26 47
        E 185 80 26 00
        E 285 90 26 47
        E 201 80 26 00
        E 281 90 26 47
        E 198 80 26 00
        E 284 90 26 45
        E 203 80 26 00
        E 279 90 26 46
        E 199 80 26 00
        E 275 90 26 47
        E 217 80 26 00
        E 267 90 26 48
        E 220 80 26 00
        E 264 90 26 46
        E 195 80 26 00
        E 296 90 26 47
        E 193 80 26 00
        E 288 90 26 49
        E 199 80 26 00
        E 284 90 26 49
        E 199 80 26 00
        E 258 90 26 49
        E 201 80 26 00
        E 284 90 26 4a
        E 206 80 26 00
        E 269 90 26 48
        E 198 80 26 00
        E 283 90 26 48
        E 197 80 26 00
        E 275 90 26 48
        E 186 80 26 00
        E 301 90 26 48
        E 211 80 26 00
        E 275 90 26 47
        E 206 80 26 00
        E 279 90 26 48
        E 213 80 26 00
        E 273 90 26 47
        E 194 80 26 00
        E 275 90 26 49
        E 200 80 26 00
        E 276 90 26 46
        E 193 80 26 00
        E 290 90 26 47
        E 202 80 26 00
        E 280 90 26 46
        E 188 80 26 00
        E 281 90 26 47
        E 187 80 26 00
        E 289 90 26 48
        E 181 80 26 00
        E 309 90 26 49
        E 189 80 26 00
        E 286 90 26 47
        E 191 80 26 00
        E 306 90 26 45
        E 182 80 26 00
        E 288 90 26 46
        E 200 80 26 00
        E 287 90 26 47
        E 198 80 26 00
        E 288 90 26 48
        E 192 80 26 00
        E 300 90 26 47
        E 189 80 26 00
        E 280 90 26 45
        E 187 80 26 00
        E 299 90 26 45
        E 210 80 26 00
        E 271 90 26 45
        E 197 80 26 00
        E 278 90 26 47
        E 186 80 26 00
        E 304 90 26 47
        E 203 80 26 00
        E 278 90 26 45
        E 195 80 26 00
        E 271 90 26 47
        E 202 80 26 00
        E 281 90 26 49
        E 179 80 26 00
        E 285 90 26 45
        E 182 80 26 00
        E 293 90 26 48
        E 193 80 26 00
        E 303 90 26 47
        E 193 80 26 00
        E 282 90 26 48
        E 179 80 26 00
        E 288 90 26 45
        E 186 80 26 00
        E 291 90 26 48
        E 181 80 26 00
        E 312 90 26 47
        E 176 80 26 00
        E 306 90 26 47
        E 193 80 26 00
        E 287 90 26 48
        E 186 80 26 00
        E 294 90 26 48
        E 181 80 26 00
        E 299 90 26 47
        E 201 80 26 00
        E 289 90 26 48
        E 205 80 26 00
        E 286 90 26 46
        E 181 80 26 00
        E 296 90 26 48
        E 183 80 26 00
        E 293 90 26 48
        E 210 80 26 00
        E 263 90 26 48
        E 206 80 26 00
        E 279 90 26 47
        E 218 80 26 00
        E 251 90 26 48
        E 204 80 26 00
        E 284 90 26 46
        E 187 80 26 00
        E 297 90 26 4e
        E 93 80 26 00
        E 892 b0 7b 00
        CCINTERP 32
        CHASE_CC_TAKEOFFS 1
        GUID {A81D1B09-210D-2641-825D-B62C6C72C6E2}
        IGNTEMPO 0 120 4 4
        SRCCOLOR 101
        VELLANE -1 476 0
        VELLANE 64 100 0
        CFGEDITVIEW -1034.569867 0.038534 72 12 0 -1 0 0 0 0.5
        KEYSNAP 0
        TRACKSEL 0
        EVTFILTER 0 -1 -1 -1 -1 0 0 0 0 -1 -1 -1 -1 0 -1 0 -1 -1
        CFGEDIT 1 1 0 1 0 0 1 1 1 1 1 0.125 0 0 1856 1055 0 0 0 0 0 0 0 0 0 0.5 0 0 1 64
      >
    >
  >
  <TRACK {2FDFA1B1-0380-6B47-AF27-BCD8678A810B}
    NAME "Synth - low 8vb - 1"
    PEAKCOL 16576
    BEAT -1
    AUTOMODE 0
    VOLPAN 0.62218279116455 0 -1 -1 1
    MUTESOLO 0 0 0
    IPHASE 0
    PLAYOFFS 0 1
    ISBUS 0 0
    BUSCOMP 0 0 0 0 0
    SHOWINMIX 1 0.6667 0.5 1 0.5 0 -1 0
    FREEMODE 0
    SEL 0
    REC 0 5088 1 0 0 0 0
    VU 2
    TRACKHEIGHT 0 0 0 0 0 0
    INQ 0 0 0 0.5 100 0 0 100
    NCHAN 6
    FX 1
    TRACKID {2FDFA1B1-0380-6B47-AF27-BCD8678A810B}
    PERF 0
    MIDIOUT -1
    MAINSEND 0 0
    <FXCHAIN
      WNDRECT 616 457 1239 598
      SHOW 0
      LASTSEL 0
      DOCKED 0
      BYPASS 0 0 0
      <VST "VST3i: SubtractiveSynth (CabbageAudio)" SubtractiveSynth.vst3 0 "" 80830264{ABCDEF019182FAEB4361626230303130} ""
        OF/RBO5e7f4AAAAABgAAAAEAAAAAAAAAAgAAAAAAAAAEAAAAAAAAAAgAAAAAAAAAEAAAAAAAAAAgAAAAAAAAAAMjAAABAAAA//8QAA==
        8yIAAAEAAABWQzIhriIAADw/eG1sIHZlcnNpb249IjEuMCIgZW5jb2Rpbmc9IlVURi04Ij8+IDxDQUJCQUdFX1BSRVNFVFM+PFBSRVNFVDAgUHJlc2V0TmFtZT0iQ0FC
        QkFHRV9QUkVTRVRTIDAiIGluc3RhbmNlTmFtZT0iIiB0cmFja0luZGV4PSI1IiBwbHVnaW5JbmRleD0iMCIgZmlyc3RfdGFiX2J1Z193b3JrYXJvdW5kX3RhYj0iMC4w
        IiBzODhfdGFiPSIwLjAiIG9zYzFfdGFiPSIwLjAiIG9zYzJfdGFiPSIwLjAiIG9zYzNfdGFiPSIwLjAiIG9zYzRfdGFiPSIwLjAiIGZpbHRlcl90YWI9IjEuMCIgYW1w
        bGl0dWRlX3RhYj0iMC4wIiBwb3NpdGlvbl90YWI9IjAuMCIgbG9nX3RhYj0iMC4wIiBTODhfa25vYl8xPSIwLjAiIFM4OF9rbm9iXzI9IjAuMCIgUzg4X2tub2JfMz0i
        MC4wIiBTODhfa25vYl80PSIwLjAiIFM4OF9rbm9iXzU9IjAuMCIgUzg4X2tub2JfNj0iMC4wIiBTODhfa25vYl83PSIwLjAiIFM4OF9rbm9iXzg9IjAuMCIgUzg4X3Bp
        dGNoYmVuZD0iMC4wIiBTODhfbW9kd2hlZWw9IjAuMCIgb3NjMUVuYWJsZWQ9IjEuMCIgb3NjMVdhdmVmb3JtU2F3PSIwLjAiIG9zYzFXYXZlZm9ybVNxdWFyZT0iMS4w
        IiBvc2MxV2F2ZWZvcm1QdWxzZT0iMC4wIiBvc2MxV2F2ZWZvcm1Ob2lzZT0iMC4wIiBvc2MxUHVsc2VXaWR0aD0iMC45OTAwMDAwMDk1MzY3NDMyIiBvc2MxUHVsc2VX
        aWR0aEVuYWJsZWQ9IjEuMCIgb3NjMVB1bHNlV2lkdGhBZHNyRW5hYmxlZD0iMC4wIiBvc2MxUHVsc2VXaWR0aEF0dGFjaz0iMC4wIiBvc2MxUHVsc2VXaWR0aERlY2F5
        PSIwLjAiIG9zYzFQdWxzZVdpZHRoU3VzdGFpbj0iMC4wIiBvc2MxUHVsc2VXaWR0aFJlbGVhc2U9IjAuMCIgb3NjMVB1bHNlV2lkdGhMZm9FbmFibGVkPSIxLjAiIG9z
        YzFQdWxzZVdpZHRoTGZvU2hhcGU9IjEuMCIgb3NjMVB1bHNlV2lkdGhMZm9BbXBsaXR1ZGU9IjEuMCIgb3NjMVB1bHNlV2lkdGhMZm9GcmVxdWVuY3k9IjAuMDk5OTk5
        OTk0MDM5NTM1NTIiIG9zYzFQaXRjaD0iMC4wIiBvc2MxUGl0Y2hFbmFibGVkPSIwLjAiIG9zYzFQaXRjaEFkc3JFbmFibGVkPSIwLjAiIG9zYzFQaXRjaEF0dGFjaz0i
        MC4wIiBvc2MxUGl0Y2hEZWNheT0iMC4wIiBvc2MxUGl0Y2hTdXN0YWluPSIwLjAiIG9zYzFQaXRjaFJlbGVhc2U9IjAuMCIgb3NjMVBpdGNoTGZvRW5hYmxlZD0iMC4w
        IiBvc2MxUGl0Y2hMZm9TaGFwZT0iMS4wIiBvc2MxUGl0Y2hMZm9BbXBsaXR1ZGU9IjAuMCIgb3NjMVBpdGNoTGZvRnJlcXVlbmN5PSIwLjAiIG9zYzFGaWx0ZXJDdXRv
        ZmZGcmVxdWVuY3k9IjY1NTUuMDAwNDg4MjgxMjUiIG9zYzFGaWx0ZXJDdXRvZmZGcmVxdWVuY3lFbmFibGVkPSIxLjAiIG9zYzFGaWx0ZXJDdXRvZmZGcmVxdWVuY3lB
        ZHNyRW5hYmxlZD0iMC4wIiBvc2MxRmlsdGVyQ3V0b2ZmRnJlcXVlbmN5QXR0YWNrPSIwLjAiIG9zYzFGaWx0ZXJDdXRvZmZGcmVxdWVuY3lEZWNheT0iMC4wIiBvc2Mx
        RmlsdGVyQ3V0b2ZmRnJlcXVlbmN5U3VzdGFpbj0iMC4wIiBvc2MxRmlsdGVyQ3V0b2ZmRnJlcXVlbmN5UmVsZWFzZT0iMC4wIiBvc2MxRmlsdGVyQ3V0b2ZmRnJlcXVl
        bmN5TGZvRW5hYmxlZD0iMC4wIiBvc2MxRmlsdGVyQ3V0b2ZmRnJlcXVlbmN5TGZvU2hhcGU9IjEuMCIgb3NjMUZpbHRlckN1dG9mZkZyZXF1ZW5jeUxmb0FtcGxpdHVk
        ZT0iMC4wIiBvc2MxRmlsdGVyQ3V0b2ZmRnJlcXVlbmN5TGZvRnJlcXVlbmN5PSIwLjAiIG9zYzFGaWx0ZXJSZXNvbmFuY2U9IjAuMCIgb3NjMUZpbHRlclJlc29uYW5j
        ZUVuYWJsZWQ9IjAuMCIgb3NjMUZpbHRlclJlc29uYW5jZUFkc3JFbmFibGVkPSIwLjAiIG9zYzFGaWx0ZXJSZXNvbmFuY2VBdHRhY2s9IjAuMCIgb3NjMUZpbHRlclJl
        c29uYW5jZURlY2F5PSIwLjAiIG9zYzFGaWx0ZXJSZXNvbmFuY2VTdXN0YWluPSIwLjAiIG9zYzFGaWx0ZXJSZXNvbmFuY2VSZWxlYXNlPSIwLjAiIG9zYzFGaWx0ZXJS
        ZXNvbmFuY2VMZm9FbmFibGVkPSIwLjAiIG9zYzFGaWx0ZXJSZXNvbmFuY2VMZm9TaGFwZT0iMS4wIiBvc2MxRmlsdGVyUmVzb25hbmNlTGZvQW1wbGl0dWRlPSIwLjAi
        IG9zYzFGaWx0ZXJSZXNvbmFuY2VMZm9GcmVxdWVuY3k9IjAuMCIgb3NjMVZvbHVtZT0iMS4wIiBvc2MxVm9sdW1lRW5hYmxlZD0iMS4wIiBvc2MxVm9sdW1lQWRzckVu
        YWJsZWQ9IjEuMCIgb3NjMVZvbHVtZUF0dGFjaz0iMC4wMDUwMDAwMDAzNTM5MDI1NzgiIG9zYzFWb2x1bWVEZWNheT0iMC43NSIgb3NjMVZvbHVtZVN1c3RhaW49IjAu
        MCIgb3NjMVZvbHVtZVJlbGVhc2U9IjAuMDk5OTk5OTk0MDM5NTM1NTIiIG9zYzFWb2x1bWVMZm9FbmFibGVkPSIwLjAiIG9zYzFWb2x1bWVMZm9TaGFwZT0iMS4wIiBv
        c2MxVm9sdW1lTGZvQW1wbGl0dWRlPSIwLjAiIG9zYzFWb2x1bWVMZm9GcmVxdWVuY3k9IjAuMCIgb3NjMkVuYWJsZWQ9IjEuMCIgb3NjMldhdmVmb3JtU2F3PSIwLjAi
        IG9zYzJXYXZlZm9ybVNxdWFyZT0iMS4wIiBvc2MyV2F2ZWZvcm1QdWxzZT0iMC4wIiBvc2MyV2F2ZWZvcm1Ob2lzZT0iMC4wIiBvc2MyUHVsc2VXaWR0aD0iMC45OTAw
        MDAwMDk1MzY3NDMyIiBvc2MyUHVsc2VXaWR0aEVuYWJsZWQ9IjEuMCIgb3NjMlB1bHNlV2lkdGhBZHNyRW5hYmxlZD0iMC4wIiBvc2MyUHVsc2VXaWR0aEF0dGFjaz0i
        MC4wIiBvc2MyUHVsc2VXaWR0aERlY2F5PSIwLjAiIG9zYzJQdWxzZVdpZHRoU3VzdGFpbj0iMC4wIiBvc2MyUHVsc2VXaWR0aFJlbGVhc2U9IjAuMCIgb3NjMlB1bHNl
        V2lkdGhMZm9FbmFibGVkPSIxLjAiIG9zYzJQdWxzZVdpZHRoTGZvU2hhcGU9IjEuMCIgb3NjMlB1bHNlV2lkdGhMZm9BbXBsaXR1ZGU9IjEuMCIgb3NjMlB1bHNlV2lk
        dGhMZm9GcmVxdWVuY3k9IjAuMDk5OTk5OTk0MDM5NTM1NTIiIG9zYzJQaXRjaD0iMC4wIiBvc2MyUGl0Y2hFbmFibGVkPSIwLjAiIG9zYzJQaXRjaEFkc3JFbmFibGVk
        PSIwLjAiIG9zYzJQaXRjaEF0dGFjaz0iMC4wIiBvc2MyUGl0Y2hEZWNheT0iMC4wIiBvc2MyUGl0Y2hTdXN0YWluPSIwLjAiIG9zYzJQaXRjaFJlbGVhc2U9IjAuMCIg
        b3NjMlBpdGNoTGZvRW5hYmxlZD0iMC4wIiBvc2MyUGl0Y2hMZm9TaGFwZT0iMS4wIiBvc2MyUGl0Y2hMZm9BbXBsaXR1ZGU9IjAuMCIgb3NjMlBpdGNoTGZvRnJlcXVl
        bmN5PSIwLjAiIG9zYzJGaWx0ZXJDdXRvZmZGcmVxdWVuY3k9IjIwMDAwLjAiIG9zYzJGaWx0ZXJDdXRvZmZGcmVxdWVuY3lFbmFibGVkPSIwLjAiIG9zYzJGaWx0ZXJD
        dXRvZmZGcmVxdWVuY3lBZHNyRW5hYmxlZD0iMC4wIiBvc2MyRmlsdGVyQ3V0b2ZmRnJlcXVlbmN5QXR0YWNrPSIwLjAiIG9zYzJGaWx0ZXJDdXRvZmZGcmVxdWVuY3lE
        ZWNheT0iMC4wIiBvc2MyRmlsdGVyQ3V0b2ZmRnJlcXVlbmN5U3VzdGFpbj0iMC4wIiBvc2MyRmlsdGVyQ3V0b2ZmRnJlcXVlbmN5UmVsZWFzZT0iMC4wIiBvc2MyRmls
        dGVyQ3V0b2ZmRnJlcXVlbmN5TGZvRW5hYmxlZD0iMC4wIiBvc2MyRmlsdGVyQ3V0b2ZmRnJlcXVlbmN5TGZvU2hhcGU9IjEuMCIgb3NjMkZpbHRlckN1dG9mZkZyZXF1
        ZW5jeUxmb0FtcGxpdHVkZT0iMC4wIiBvc2MyRmlsdGVyQ3V0b2ZmRnJlcXVlbmN5TGZvRnJlcXVlbmN5PSIwLjAiIG9zYzJGaWx0ZXJSZXNvbmFuY2U9IjAuMCIgb3Nj
        MkZpbHRlclJlc29uYW5jZUVuYWJsZWQ9IjAuMCIgb3NjMkZpbHRlclJlc29uYW5jZUFkc3JFbmFibGVkPSIwLjAiIG9zYzJGaWx0ZXJSZXNvbmFuY2VBdHRhY2s9IjAu
        MCIgb3NjMkZpbHRlclJlc29uYW5jZURlY2F5PSIwLjAiIG9zYzJGaWx0ZXJSZXNvbmFuY2VTdXN0YWluPSIwLjAiIG9zYzJGaWx0ZXJSZXNvbmFuY2VSZWxlYXNlPSIw
        LjAiIG9zYzJGaWx0ZXJSZXNvbmFuY2VMZm9FbmFibGVkPSIwLjAiIG9zYzJGaWx0ZXJSZXNvbmFuY2VMZm9TaGFwZT0iMS4wIiBvc2MyRmlsdGVyUmVzb25hbmNlTGZv
        QW1wbGl0dWRlPSIwLjAiIG9zYzJGaWx0ZXJSZXNvbmFuY2VMZm9GcmVxdWVuY3k9IjAuMCIgb3NjMlZvbHVtZT0iMC4yMDAwMDAwMDI5ODAyMzIyIiBvc2MyVm9sdW1l
        RW5hYmxlZD0iMS4wIiBvc2MyVm9sdW1lQWRzckVuYWJsZWQ9IjEuMCIgb3NjMlZvbHVtZUF0dGFjaz0iMC4wMDUwMDAwMDAzNTM5MDI1NzgiIG9zYzJWb2x1bWVEZWNh
        eT0iMi4wIiBvc2MyVm9sdW1lU3VzdGFpbj0iMC4wIiBvc2MyVm9sdW1lUmVsZWFzZT0iMC4wMTAwMDAwMDA3MDc4MDUxNiIgb3NjMlZvbHVtZUxmb0VuYWJsZWQ9IjAu
        MCIgb3NjMlZvbHVtZUxmb1NoYXBlPSIxLjAiIG9zYzJWb2x1bWVMZm9BbXBsaXR1ZGU9IjAuMCIgb3NjMlZvbHVtZUxmb0ZyZXF1ZW5jeT0iMC4wIiBvc2MzRW5hYmxl
        ZD0iMS4wIiBvc2MzV2F2ZWZvcm1TYXc9IjAuMCIgb3NjM1dhdmVmb3JtU3F1YXJlPSIxLjAiIG9zYzNXYXZlZm9ybVB1bHNlPSIwLjAiIG9zYzNXYXZlZm9ybU5vaXNl
        PSIwLjAiIG9zYzNQdWxzZVdpZHRoPSIwLjk5MDAwMDAwOTUzNjc0MzIiIG9zYzNQdWxzZVdpZHRoRW5hYmxlZD0iMS4wIiBvc2MzUHVsc2VXaWR0aEFkc3JFbmFibGVk
        PSIwLjAiIG9zYzNQdWxzZVdpZHRoQXR0YWNrPSIwLjAiIG9zYzNQdWxzZVdpZHRoRGVjYXk9IjAuMCIgb3NjM1B1bHNlV2lkdGhTdXN0YWluPSIwLjAiIG9zYzNQdWxz
        ZVdpZHRoUmVsZWFzZT0iMC4wIiBvc2MzUHVsc2VXaWR0aExmb0VuYWJsZWQ9IjEuMCIgb3NjM1B1bHNlV2lkdGhMZm9TaGFwZT0iMS4wIiBvc2MzUHVsc2VXaWR0aExm
        b0FtcGxpdHVkZT0iMS4wIiBvc2MzUHVsc2VXaWR0aExmb0ZyZXF1ZW5jeT0iMC4wOTk5OTk5OTQwMzk1MzU1MiIgb3NjM1BpdGNoPSIwLjAiIG9zYzNQaXRjaEVuYWJs
        ZWQ9IjAuMCIgb3NjM1BpdGNoQWRzckVuYWJsZWQ9IjAuMCIgb3NjM1BpdGNoQXR0YWNrPSIwLjAiIG9zYzNQaXRjaERlY2F5PSIwLjAiIG9zYzNQaXRjaFN1c3RhaW49
        IjAuMCIgb3NjM1BpdGNoUmVsZWFzZT0iMC4wIiBvc2MzUGl0Y2hMZm9FbmFibGVkPSIwLjAiIG9zYzNQaXRjaExmb1NoYXBlPSIxLjAiIG9zYzNQaXRjaExmb0FtcGxp
        dHVkZT0iMC4wIiBvc2MzUGl0Y2hMZm9GcmVxdWVuY3k9IjAuMCIgb3NjM0ZpbHRlckN1dG9mZkZyZXF1ZW5jeT0iMjAwMDAuMCIgb3NjM0ZpbHRlckN1dG9mZkZyZXF1
        ZW5jeUVuYWJsZWQ9IjAuMCIgb3NjM0ZpbHRlckN1dG9mZkZyZXF1ZW5jeUFkc3JFbmFibGVkPSIwLjAiIG9zYzNGaWx0ZXJDdXRvZmZGcmVxdWVuY3lBdHRhY2s9IjAu
        MCIgb3NjM0ZpbHRlckN1dG9mZkZyZXF1ZW5jeURlY2F5PSIwLjAiIG9zYzNGaWx0ZXJDdXRvZmZGcmVxdWVuY3lTdXN0YWluPSIwLjAiIG9zYzNGaWx0ZXJDdXRvZmZG
        cmVxdWVuY3lSZWxlYXNlPSIwLjAiIG9zYzNGaWx0ZXJDdXRvZmZGcmVxdWVuY3lMZm9FbmFibGVkPSIwLjAiIG9zYzNGaWx0ZXJDdXRvZmZGcmVxdWVuY3lMZm9TaGFw
        ZT0iMS4wIiBvc2MzRmlsdGVyQ3V0b2ZmRnJlcXVlbmN5TGZvQW1wbGl0dWRlPSIwLjAiIG9zYzNGaWx0ZXJDdXRvZmZGcmVxdWVuY3lMZm9GcmVxdWVuY3k9IjAuMCIg
        b3NjM0ZpbHRlclJlc29uYW5jZT0iMC4wIiBvc2MzRmlsdGVyUmVzb25hbmNlRW5hYmxlZD0iMC4wIiBvc2MzRmlsdGVyUmVzb25hbmNlQWRzckVuYWJsZWQ9IjAuMCIg
        b3NjM0ZpbHRlclJlc29uYW5jZUF0dGFjaz0iMC4wIiBvc2MzRmlsdGVyUmVzb25hbmNlRGVjYXk9IjAuMCIgb3NjM0ZpbHRlclJlc29uYW5jZVN1c3RhaW49IjAuMCIg
        b3NjM0ZpbHRlclJlc29uYW5jZVJlbGVhc2U9IjAuMCIgb3NjM0ZpbHRlclJlc29uYW5jZUxmb0VuYWJsZWQ9IjAuMCIgb3NjM0ZpbHRlclJlc29uYW5jZUxmb1NoYXBl
        PSIxLjAiIG9zYzNGaWx0ZXJSZXNvbmFuY2VMZm9BbXBsaXR1ZGU9IjAuMCIgb3NjM0ZpbHRlclJlc29uYW5jZUxmb0ZyZXF1ZW5jeT0iMC4wIiBvc2MzVm9sdW1lPSIw
        LjIwMDAwMDAwMjk4MDIzMjIiIG9zYzNWb2x1bWVFbmFibGVkPSIxLjAiIG9zYzNWb2x1bWVBZHNyRW5hYmxlZD0iMS4wIiBvc2MzVm9sdW1lQXR0YWNrPSIwLjAwNTAw
        MDAwMDM1MzkwMjU3OCIgb3NjM1ZvbHVtZURlY2F5PSIxMC4wIiBvc2MzVm9sdW1lU3VzdGFpbj0iMC4wIiBvc2MzVm9sdW1lUmVsZWFzZT0iMC4wMTAwMDAwMDA3MDc4
        MDUxNiIgb3NjM1ZvbHVtZUxmb0VuYWJsZWQ9IjAuMCIgb3NjM1ZvbHVtZUxmb1NoYXBlPSIxLjAiIG9zYzNWb2x1bWVMZm9BbXBsaXR1ZGU9IjAuMCIgb3NjM1ZvbHVt
        ZUxmb0ZyZXF1ZW5jeT0iMC4wIiBvc2M0RW5hYmxlZD0iMS4wIiBvc2M0V2F2ZWZvcm1TYXc9IjAuMCIgb3NjNFdhdmVmb3JtU3F1YXJlPSIxLjAiIG9zYzRXYXZlZm9y
        bVB1bHNlPSIwLjAiIG9zYzRXYXZlZm9ybU5vaXNlPSIwLjAiIG9zYzRQdWxzZVdpZHRoPSIwLjk5MDAwMDAwOTUzNjc0MzIiIG9zYzRQdWxzZVdpZHRoRW5hYmxlZD0i
        MS4wIiBvc2M0UHVsc2VXaWR0aEFkc3JFbmFibGVkPSIwLjAiIG9zYzRQdWxzZVdpZHRoQXR0YWNrPSIwLjAiIG9zYzRQdWxzZVdpZHRoRGVjYXk9IjAuMCIgb3NjNFB1
        bHNlV2lkdGhTdXN0YWluPSIwLjAiIG9zYzRQdWxzZVdpZHRoUmVsZWFzZT0iMC4wIiBvc2M0UHVsc2VXaWR0aExmb0VuYWJsZWQ9IjEuMCIgb3NjNFB1bHNlV2lkdGhM
        Zm9TaGFwZT0iMS4wIiBvc2M0UHVsc2VXaWR0aExmb0FtcGxpdHVkZT0iMS4wIiBvc2M0UHVsc2VXaWR0aExmb0ZyZXF1ZW5jeT0iMC4wOTk5OTk5OTQwMzk1MzU1MiIg
        b3NjNFBpdGNoPSIwLjAiIG9zYzRQaXRjaEVuYWJsZWQ9IjAuMCIgb3NjNFBpdGNoQWRzckVuYWJsZWQ9IjAuMCIgb3NjNFBpdGNoQXR0YWNrPSIwLjAiIG9zYzRQaXRj
        aERlY2F5PSIwLjAiIG9zYzRQaXRjaFN1c3RhaW49IjAuMCIgb3NjNFBpdGNoUmVsZWFzZT0iMC4wIiBvc2M0UGl0Y2hMZm9FbmFibGVkPSIwLjAiIG9zYzRQaXRjaExm
        b1NoYXBlPSIxLjAiIG9zYzRQaXRjaExmb0FtcGxpdHVkZT0iMC4wIiBvc2M0UGl0Y2hMZm9GcmVxdWVuY3k9IjAuMCIgb3NjNEZpbHRlckN1dG9mZkZyZXF1ZW5jeT0i
        MjAwMDAuMCIgb3NjNEZpbHRlckN1dG9mZkZyZXF1ZW5jeUVuYWJsZWQ9IjAuMCIgb3NjNEZpbHRlckN1dG9mZkZyZXF1ZW5jeUFkc3JFbmFibGVkPSIwLjAiIG9zYzRG
        aWx0ZXJDdXRvZmZGcmVxdWVuY3lBdHRhY2s9IjAuMCIgb3NjNEZpbHRlckN1dG9mZkZyZXF1ZW5jeURlY2F5PSIwLjAiIG9zYzRGaWx0ZXJDdXRvZmZGcmVxdWVuY3lT
        dXN0YWluPSIwLjAiIG9zYzRGaWx0ZXJDdXRvZmZGcmVxdWVuY3lSZWxlYXNlPSIwLjAiIG9zYzRGaWx0ZXJDdXRvZmZGcmVxdWVuY3lMZm9FbmFibGVkPSIwLjAiIG9z
        YzRGaWx0ZXJDdXRvZmZGcmVxdWVuY3lMZm9TaGFwZT0iMS4wIiBvc2M0RmlsdGVyQ3V0b2ZmRnJlcXVlbmN5TGZvQW1wbGl0dWRlPSIwLjAiIG9zYzRGaWx0ZXJDdXRv
        ZmZGcmVxdWVuY3lMZm9GcmVxdWVuY3k9IjAuMCIgb3NjNEZpbHRlclJlc29uYW5jZT0iMC4wIiBvc2M0RmlsdGVyUmVzb25hbmNlRW5hYmxlZD0iMC4wIiBvc2M0Rmls
        dGVyUmVzb25hbmNlQWRzckVuYWJsZWQ9IjAuMCIgb3NjNEZpbHRlclJlc29uYW5jZUF0dGFjaz0iMC4wIiBvc2M0RmlsdGVyUmVzb25hbmNlRGVjYXk9IjAuMCIgb3Nj
        NEZpbHRlclJlc29uYW5jZVN1c3RhaW49IjAuMCIgb3NjNEZpbHRlclJlc29uYW5jZVJlbGVhc2U9IjAuMCIgb3NjNEZpbHRlclJlc29uYW5jZUxmb0VuYWJsZWQ9IjAu
        MCIgb3NjNEZpbHRlclJlc29uYW5jZUxmb1NoYXBlPSIxLjAiIG9zYzRGaWx0ZXJSZXNvbmFuY2VMZm9BbXBsaXR1ZGU9IjAuMCIgb3NjNEZpbHRlclJlc29uYW5jZUxm
        b0ZyZXF1ZW5jeT0iMC4wIiBvc2M0Vm9sdW1lPSIwLjIwMDAwMDAwMjk4MDIzMjIiIG9zYzRWb2x1bWVFbmFibGVkPSIxLjAiIG9zYzRWb2x1bWVBZHNyRW5hYmxlZD0i
        MS4wIiBvc2M0Vm9sdW1lQXR0YWNrPSIwLjAwNTAwMDAwMDM1MzkwMjU3OCIgb3NjNFZvbHVtZURlY2F5PSIwLjAiIG9zYzRWb2x1bWVTdXN0YWluPSIwLjEwMDAwMDAw
        MTQ5MDExNjEiIG9zYzRWb2x1bWVSZWxlYXNlPSIwLjAxMDAwMDAwMDcwNzgwNTE2IiBvc2M0Vm9sdW1lTGZvRW5hYmxlZD0iMC4wIiBvc2M0Vm9sdW1lTGZvU2hhcGU9
        IjEuMCIgb3NjNFZvbHVtZUxmb0FtcGxpdHVkZT0iMC4wIiBvc2M0Vm9sdW1lTGZvRnJlcXVlbmN5PSIwLjAiIGZpbHRlckVuYWJsZWQ9IjAuMCIgZmlsdGVyQ3V0b2Zm
        RnJlcXVlbmN5PSIyMDAwMC4wIiBmaWx0ZXJDdXRvZmZGcmVxdWVuY3lFbmFibGVkPSIwLjAiIGZpbHRlclJlc29uYW5jZT0iMC4wIiBmaWx0ZXJSZXNvbmFuY2VFbmFi
        bGVkPSIwLjAiIGFtcGxpdHVkZUVuYWJsZWQ9IjAuMCIgYW1wbGl0dWRlQXR0YWNrPSIwLjEwMDAwMDAwMTQ5MDExNjEiIGFtcGxpdHVkZURlY2F5PSIwLjEwMDAwMDAw
        MTQ5MDExNjEiIGFtcGxpdHVkZVN1c3RhaW49IjAuNSIgYW1wbGl0dWRlUmVsZWFzZT0iMC4xMDAwMDAwMDE0OTAxMTYxIiBwb3NpdGlvbkVuYWJsZWQ9IjEuMCIgcG9z
        aXRpb25EaXN0YW5jZVR5cGU9IjEuMCIgcG9zaXRpb25EaXJlY3Rpb25UeXBlPSIxLjAiIHBvc2l0aW9uWFlaRW5hYmxlZD0iMS4wIiBwb3NpdGlvblg9IjAuMCIgcG9z
        aXRpb25ZPSIwLjEwMDAwMDAyMzg0MTg1NzkiIHBvc2l0aW9uQ2FydGVzaWFuWj0iMC4wIiBwb3NpdGlvblhZX3h5cGFkX2lucHV0WD0iMTUwLjAiIHBvc2l0aW9uWFlf
        eHlwYWRfaW5wdXRZPSIxMDEuMjYyMDU0NDQzMzU5NCIgcG9zaXRpb25DYXJ0ZXNpYW5aX3h5cGFkX2lucHV0WD0iMC4wIiBwb3NpdGlvbkNhcnRlc2lhblpfeHlwYWRf
        aW5wdXRZPSIwLjAiIHBvc2l0aW9uTWF4WFlaPSIxMDAuMCIgcG9zaXRpb25NYXhYWVpfdnNsaWRlcj0iMTAwLjAiIHBvc2l0aW9uUlRaRW5hYmxlZD0iMS4wIiBwb3Np
        dGlvblI9IjAuNSIgcG9zaXRpb25UPSItOTAuMCIgcG9zaXRpb25Qb2xhclo9IjAuNSIgcG9zaXRpb25SVF94eXBhZF9pbnB1dFg9IjE1MC4wIiBwb3NpdGlvblJUX3h5
        cGFkX2lucHV0WT0iMTUwLjAiIHBvc2l0aW9uUG9sYXJaX3h5cGFkX2lucHV0WD0iMC4wIiBwb3NpdGlvblBvbGFyWl94eXBhZF9pbnB1dFk9IjAuMCIgcG9zaXRpb25N
        YXhSWj0iMTAwLjAiIHBvc2l0aW9uTWF4UlpfdnNsaWRlcj0iMTAwLjAiLz48L0NBQkJBR0VfUFJFU0VUUz4AAAAAAAAAAABKVUNFUHJpdmF0ZURhdGEAAQFCeXBhc3MA
        AQEDAB0AAAAAAAAASlVDRVByaXZhdGVEYXRhAAAAAAAAAAA=
        AAAQAAAA
      >
      FLOATPOS 925 487 1000 570
      FXID {98129D50-BBFE-0447-A374-587B391A40EE}
      <PARMENV 285:285 0 1 0.5
        EGUID {DE539964-0D7D-A348-8963-91443B1F2118}
        ACT 1 -1
        VIS 1 1 1
        LANEHEIGHT 0 0
        ARM 1
        DEFSHAPE 0 -1 -1
        PT 0 0.25 0
        PT 92.48052692 0.25 0
        PT 121.8980907 0.5 0
      >
      <PARMENV 286:286 0 1 0.5
        EGUID {305AE4B5-3D06-C542-9D92-AA451883F026}
        ACT 1 -1
        VIS 1 1 1
        LANEHEIGHT 0 0
        ARM 1
        DEFSHAPE 0 -1 -1
        PT 0 0.75 0
        PT 92.48052692 0.75 0
        PT 121.8980907 0.5 0
      >
      WAK 0 0
    >
    <ITEM
      POSITION 92.48052692131662
      SNAPOFFS 0
      LENGTH 30.01947307868338
      LOOP 1
      ALLTAKES 0
      FADEIN 1 0 0 1 0 0 0
      FADEOUT 1 0 0 1 0 0 0
      MUTE 0 0
      SEL 0
      IGUID {FD0334BD-4343-A942-B015-362D41536E43}
      IID 32
      NAME "07-Piano - pedal-Recorded MIDI"
      VOLPAN 1 0 1 -1
      SOFFS 92.48052692131662 184.96105384263325
      PLAYRATE 1 1 0 -1 0 0.0025
      CHANMODE 0
      GUID {C7575415-4BBC-154F-BEA0-46DACC14F870}
      RECPASS 11
      <SOURCE MIDI
        HASDATA 1 960 QN
        CCINTERP 32
        POOLEDEVTS {DBD6D77A-D4CF-084C-8ACC-69835C5CBA67}
        E 7645 90 26 47
        E 185 80 26 00
        E 40 90 32 3e
        E 149 80 32 00
        E 71 90 26 44
        E 146 80 26 00
        E 72 90 32 3c
        E 171 80 32 00
        E 58 90 26 46
        E 146 80 26 00
        E 98 90 32 30
        E 172 80 32 00
        E 71 90 26 44
        E 175 80 26 00
        E 85 90 32 37
        E 205 80 32 00
        E 44 90 26 4a
        E 186 80 26 00
        E 79 90 32 3f
        E 223 80 32 00
        E 26 90 26 47
        E 171 80 26 00
        E 85 90 32 39
        E 218 80 32 00
        E 25 90 26 48
        E 172 80 26 00
        E 65 90 32 3e
        E 207 80 32 00
        E 36 90 26 47
        E 172 80 26 00
        E 74 90 32 3d
        E 216 80 32 00
        E 14 90 26 48
        E 182 80 26 00
        E 47 90 32 3f
        E 217 80 32 00
        E 31 90 26 44
        E 180 80 26 00
        E 75 90 32 3c
        E 216 80 32 00
        E 22 90 26 47
        E 172 80 26 00
        E 57 90 32 3b
        E 223 80 32 00
        E 19 90 26 48
        E 190 80 26 00
        E 62 90 32 3c
        E 200 80 32 00
        E 21 90 26 48
        E 187 80 26 00
        E 57 90 32 3e
        E 212 80 32 00
        E 38 90 26 47
        E 173 80 26 00
        E 61 90 32 3f
        E 223 80 32 00
        E 23 90 26 47
        E 174 80 26 00
        E 52 90 32 3a
        E 222 80 32 00
        E 19 90 26 48
        E 195 80 26 00
        E 41 90 32 3f
        E 192 80 32 00
        E 36 90 26 47
        E 173 80 26 00
        E 66 90 32 3a
        E 210 80 32 00
        E 35 90 26 47
        E 166 80 26 00
        E 84 90 32 38
        E 185 80 32 00
        E 41 90 26 49
        E 145 80 26 00
        E 100 90 32 37
        E 178 80 32 00
        E 44 90 26 47
        E 172 80 26 00
        E 85 90 32 3b
        E 163 80 32 00
        E 65 90 26 44
        E 171 80 26 00
        E 68 90 32 38
        E 200 80 32 00
        E 48 90 26 44
        E 178 80 26 00
        E 77 90 32 3a
        E 194 80 32 00
        E 43 90 26 47
        E 171 80 26 00
        E 75 90 32 39
        E 165 80 32 00
        E 62 90 26 45
        E 167 80 26 00
        E 74 90 32 3c
        E 198 80 32 00
        E 43 90 26 49
        E 181 80 26 00
        E 56 90 32 41
        E 206 80 32 00
        E 38 90 26 49
        E 174 80 26 00
        E 73 90 32 3f
        E 204 80 32 00
        E 26 90 26 45
        E 169 80 26 00
        E 62 90 32 3a
        E 208 80 32 00
        E 39 90 26 48
        E 179 80 26 00
        E 65 90 32 39
        E 212 80 32 00
        E 30 90 26 48
        E 173 80 26 00
        E 55 90 32 38
        E 225 80 32 00
        E 25 90 26 44
        E 172 80 26 00
        E 66 90 32 39
        E 219 80 32 00
        E 19 90 26 47
        E 166 80 26 00
        E 64 90 32 3b
        E 215 80 32 00
        E 27 90 26 48
        E 164 80 26 00
        E 81 90 32 3b
        E 209 80 32 00
        E 28 90 26 4a
        E 184 80 26 00
        E 56 90 32 3b
        E 178 80 32 00
        E 50 90 26 4b
        E 203 80 26 00
        E 55 90 32 3f
        E 192 80 32 00
        E 29 90 26 4a
        E 187 80 26 00
        E 53 90 32 43
        E 233 80 32 00
        E 10 90 26 46
        E 196 80 26 00
        E 57 90 32 43
        E 211 80 32 00
        E 26 90 26 46
        E 176 80 26 00
        E 63 90 32 41
        E 214 80 32 00
        E 22 90 26 45
        E 186 80 26 00
        E 63 90 32 38
        E 207 80 32 00
        E 29 90 26 44
        E 161 80 26 00
        E 50 90 32 3c
        E 221 80 32 00
        E 38 90 26 44
        E 166 80 26 00
        E 69 90 32 3d
        E 214 80 32 00
        E 28 90 26 45
        E 162 80 26 00
        E 76 90 32 3e
        E 218 80 32 00
        E 25 90 26 45
        E 175 80 26 00
        E 75 90 32 42
        E 205 80 32 00
        E 20 90 26 46
        E 199 80 26 00
        E 47 90 32 3e
        E 202 80 32 00
        E 36 90 26 44
        E 189 80 26 00
        E 57 90 32 3b
        E 207 80 32 00
        E 31 90 26 45
        E 186 80 26 00
        E 56 90 32 3b
        E 228 80 32 00
        E 20 90 26 44
        E 192 80 26 00
        E 68 90 32 41
        E 212 80 32 00
        E 32 90 26 3f
        E 180 80 26 00
        E 64 90 32 40
        E 223 80 32 00
        E 13 90 26 41
        E 206 80 26 00
        E 48 90 32 42
        E 214 80 32 00
        E 8 90 26 46
        E 198 80 26 00
        E 45 90 32 41
        E 227 80 32 00
        E 21 90 26 45
        E 172 80 26 00
        E 65 90 32 40
        E 216 80 32 00
        E 17 90 26 45
        E 192 80 26 00
        E 42 90 32 3f
        E 218 80 32 00
        E 18 90 26 45
        E 178 80 26 00
        E 66 90 32 3e
        E 211 80 32 00
        E 21 90 26 45
        E 180 80 26 00
        E 55 90 32 3e
        E 214 80 32 00
        E 19 90 26 45
        E 184 80 26 00
        E 37 90 32 3d
        E 221 80 32 00
        E 32 90 26 46
        E 201 80 26 00
        E 41 90 32 41
        E 212 80 32 00
        E 17 90 26 43
        E 206 80 26 00
        E 59 90 32 3b
        E 197 80 32 00
        E 16 90 26 46
        E 198 80 26 00
        E 56 90 32 3f
        E 211 80 32 00
        E 20 90 26 46
        E 202 80 26 00
        E 53 90 32 3f
        E 187 80 32 00
        E 32 90 26 43
        E 178 80 26 00
        E 64 90 32 38
        E 186 80 32 00
        E 33 90 26 46
        E 175 80 26 00
        E 86 90 32 3c
        E 157 80 32 00
        E 55 90 26 43
        E 190 80 26 00
        E 83 90 32 39
        E 213 80 32 00
        E 29 90 26 46
        E 168 80 26 00
        E 96 90 32 3d
        E 213 80 32 00
        E 30 90 26 46
        E 180 80 26 00
        E 70 90 32 3c
        E 207 80 32 00
        E 33 90 26 45
        E 190 80 26 00
        E 59 90 32 3f
        E 216 80 32 00
        E 35 90 26 46
        E 159 80 26 00
        E 73 90 32 38
        E 219 80 32 00
        E 22 90 26 47
        E 174 80 26 00
        E 73 90 32 42
        E 201 80 32 00
        E 26 90 26 46
        E 175 80 26 00
        E 62 90 32 3b
        E 216 80 32 00
        E 16 90 26 44
        E 193 80 26 00
        E 52 90 32 3d
        E 207 80 32 00
        E 33 90 26 44
        E 179 80 26 00
        E 61 90 32 3b
        E 226 80 32 00
        E 10 90 26 46
        E 179 80 26 00
        E 74 90 32 3d
        E 190 80 32 00
        E 32 90 26 46
        E 167 80 26 00
        E 72 90 32 3f
        E 220 80 32 00
        E 24 90 26 45
        E 179 80 26 00
        E 68 90 32 44
        E 212 80 32 00
        E 20 90 26 45
        E 177 80 26 00
        E 63 90 32 3e
        E 209 80 32 00
        E 26 90 26 43
        E 177 80 26 00
        E 67 90 32 3f
        E 188 80 32 00
        E 39 90 26 45
        E 197 80 26 00
        E 51 90 32 3b
        E 206 80 32 00
        E 23 90 26 47
        E 194 80 26 00
        E 61 90 32 3e
        E 191 80 32 00
        E 34 90 26 44
        E 198 80 26 00
        E 50 90 32 3f
        E 186 80 32 00
        E 35 90 26 42
        E 186 80 26 00
        E 72 90 32 3e
        E 199 80 32 00
        E 34 90 26 45
        E 178 80 26 00
        E 86 90 32 41
        E 193 80 32 00
        E 29 90 26 47
        E 192 80 26 00
        E 68 90 32 3d
        E 189 80 32 00
        E 28 90 26 46
        E 195 80 26 00
        E 62 90 32 3a
        E 188 80 32 00
        E 32 90 26 45
        E 196 80 26 00
        E 57 90 32 41
        E 187 80 32 00
        E 34 90 26 45
        E 200 80 26 00
        E 52 90 32 3f
        E 224 80 32 00
        E 18 90 26 46
        E 175 80 26 00
        E 75 90 32 41
        E 204 80 32 00
        E 17 90 26 44
        E 193 80 26 00
        E 52 90 32 41
        E 225 80 32 00
        E 15 90 26 46
        E 173 80 26 00
        E 78 90 32 42
        E 213 80 32 00
        E 20 90 26 45
        E 191 80 26 00
        E 66 90 32 40
        E 184 80 32 00
        E 43 90 26 41
        E 193 80 26 00
        E 56 90 32 3f
        E 198 80 32 00
        E 27 90 26 45
        E 161 80 26 00
        E 84 90 32 40
        E 209 80 32 00
        E 26 90 26 42
        E 166 80 26 00
        E 73 90 32 3e
        E 208 80 32 00
        E 21 90 26 48
        E 148 80 26 00
        E 97 90 32 3f
        E 233 80 32 00
        E 18 90 26 45
        E 162 80 26 00
        E 66 90 32 41
        E 215 80 32 00
        E 28 90 26 46
        E 171 80 26 00
        E 85 90 32 39
        E 214 80 32 00
        E 12 90 26 43
        E 174 80 26 00
        E 73 90 32 43
        E 196 80 32 00
        E 40 90 26 44
        E 182 80 26 00
        E 67 90 32 3e
        E 198 80 32 00
        E 24 90 26 47
        E 166 80 26 00
        E 91 90 32 3f
        E 181 80 32 00
        E 42 90 26 47
        E 178 80 26 00
        E 67 90 32 3c
        E 220 80 32 00
        E 16 90 26 47
        E 157 80 26 00
        E 97 90 32 3f
        E 199 80 32 00
        E 36 90 26 45
        E 177 80 26 00
        E 69 90 32 3c
        E 203 80 32 00
        E 34 90 26 40
        E 170 80 26 00
        E 71 90 32 42
        E 177 80 32 00
        E 47 90 26 43
        E 166 80 26 00
        E 70 90 32 3f
        E 213 80 32 00
        E 22 90 26 44
        E 170 80 26 00
        E 70 90 32 41
        E 203 80 32 00
        E 34 90 26 45
        E 173 80 26 00
        E 76 90 32 40
        E 218 80 32 00
        E 27 90 26 40
        E 191 80 26 00
        E 52 90 32 40
        E 213 80 32 00
        E 17 90 26 46
        E 161 80 26 00
        E 79 90 32 3f
        E 215 80 32 00
        E 23 90 26 46
        E 184 80 26 00
        E 63 90 32 42
        E 202 80 32 00
        E 32 90 26 45
        E 162 80 26 00
        E 76 90 32 3f
        E 217 80 32 00
        E 24 90 26 43
        E 168 80 26 00
        E 59 90 32 42
        E 187 80 32 00
        E 40 90 26 41
        E 181 80 26 00
        E 45 90 32 3f
        E 221 80 32 00
        E 35 90 26 47
        E 152 80 26 00
        E 94 90 32 41
        E 175 80 32 00
        E 47 90 26 42
        E 191 80 26 00
        E 59 90 32 3b
        E 230 80 32 00
        E 21 90 26 46
        E 166 80 26 00
        E 71 90 32 44
        E 218 80 32 00
        E 32 90 26 45
        E 195 80 26 00
        E 62 90 32 44
        E 216 80 32 00
        E 22 90 26 45
        E 189 80 26 00
        E 60 90 32 41
        E 226 80 32 00
        E 22 90 26 46
        E 175 80 26 00
        E 73 90 32 41
        E 222 80 32 00
        E 19 90 26 45
        E 176 80 26 00
        E 60 90 32 42
        E 207 80 32 00
        E 26 90 26 42
        E 174 80 26 00
        E 66 90 32 3e
        E 213 80 32 00
        E 10 90 26 44
        E 197 80 26 00
        E 49 90 32 41
        E 219 80 32 00
        E 15 90 26 4a
        E 153 80 26 00
        E 90 90 32 42
        E 213 80 32 00
        E 20 90 26 49
        E 162 80 26 00
        E 80 90 32 44
        E 231 80 32 00
        E 12 90 26 47
        E 143 80 26 00
        E 94 90 32 41
        E 242 80 32 00
        E 17 90 26 43
        E 176 80 26 00
        E 63 90 32 41
        E 203 80 32 00
        E 31 90 26 44
        E 187 80 26 00
        E 54 90 32 43
        E 233 80 32 00
        E 10 90 26 44
        E 190 80 26 00
        E 52 90 32 43
        E 215 80 32 00
        E 21 90 26 46
        E 192 80 26 00
        E 42 90 32 38
        E 202 80 32 00
        E 35 90 26 47
        E 200 80 26 00
        E 55 90 32 45
        E 176 80 32 00
        E 47 90 26 44
        E 165 80 26 00
        E 69 90 32 41
        E 196 80 32 00
        E 41 90 26 45
        E 197 80 26 00
        E 67 90 32 41
        E 193 80 32 00
        E 40 90 26 47
        E 183 80 26 00
        E 70 90 32 41
        E 212 80 32 00
        E 25 90 26 49
        E 171 80 26 00
        E 77 90 32 46
        E 204 80 32 00
        E 28 90 26 44
        E 203 80 26 00
        E 46 90 32 43
        E 202 80 32 00
        E 32 90 26 40
        E 188 80 26 00
        E 51 90 32 44
        E 216 80 32 00
        E 15 90 26 48
        E 182 80 26 00
        E 80 90 32 41
        E 194 80 32 00
        E 19 90 26 46
        E 201 80 26 00
        E 54 90 32 44
        E 197 80 32 00
        E 29 90 26 46
        E 189 80 26 00
        E 49 90 32 41
        E 224 80 32 00
        E 15 90 26 44
        E 181 80 26 00
        E 59 90 32 44
        E 219 80 32 00
        E 21 90 26 49
        E 198 80 26 00
        E 53 90 32 45
        E 209 80 32 00
        E 19 90 26 46
        E 176 80 26 00
        E 70 90 32 41
        E 209 80 32 00
        E 19 90 26 45
        E 181 80 26 00
        E 49 90 32 44
        E 230 80 32 00
        E 25 90 26 43
        E 158 80 26 00
        E 72 90 32 42
        E 221 80 32 00
        E 26 90 26 48
        E 154 80 26 00
        E 96 90 32 40
        E 217 80 32 00
        E 16 90 26 44
        E 186 80 26 00
        E 66 90 32 42
        E 189 80 32 00
        E 42 90 26 48
        E 174 80 26 00
        E 70 90 32 40
        E 219 80 32 00
        E 13 90 26 42
        E 195 80 26 00
        E 44 90 32 44
        E 225 80 32 00
        E 17 90 26 43
        E 186 80 26 00
        E 62 90 32 44
        E 228 80 32 00
        E 16 90 26 44
        E 181 80 26 00
        E 74 90 32 44
        E 208 80 32 00
        E 21 90 26 45
        E 158 80 26 00
        E 79 90 32 42
        E 237 80 32 00
        E 5 90 26 43
        E 175 80 26 00
        E 65 90 32 46
        E 228 80 32 00
        E 17 90 26 47
        E 182 80 26 00
        E 63 90 32 44
        E 230 80 32 00
        E 14 90 26 44
        E 163 80 26 00
        E 79 90 32 43
        E 227 80 32 00
        E 16 90 26 46
        E 179 80 26 00
        E 39 90 32 45
        E 232 80 32 00
        E 7 90 26 45
        E 165 80 26 00
        E 83 90 32 44
        E 215 80 32 00
        E 29 90 26 46
        E 182 80 26 00
        E 49 90 32 42
        E 227 80 32 00
        E 19 90 26 45
        E 168 80 26 00
        E 78 90 32 41
        E 207 80 32 00
        E 24 90 26 46
        E 192 80 26 00
        E 53 90 32 40
        E 234 80 32 00
        E 10 90 26 44
        E 183 80 26 00
        E 55 90 32 43
        E 225 80 32 00
        E 18 90 26 44
        E 182 80 26 00
        E 62 90 32 42
        E 233 80 32 00
        E 4 90 26 46
        E 155 80 26 00
        E 73 90 32 43
        E 231 80 32 00
        E 22 90 26 46
        E 195 80 26 00
        E 47 90 32 41
        E 227 80 32 00
        E 5 90 26 49
        E 160 80 26 00
        E 85 90 32 42
        E 220 80 32 00
        E 16 90 26 43
        E 182 80 26 00
        E 61 90 32 3e
        E 247 80 32 00
        E 15 90 26 44
        E 179 80 26 00
        E 51 90 32 43
        E 224 80 32 00
        E 17 90 26 45
        E 181 80 26 00
        E 42 90 32 41
        E 248 80 32 00
        E 7 90 26 45
        E 186 80 26 00
        E 43 90 32 44
        E 242 80 32 00
        E 4 90 26 46
        E 165 80 26 00
        E 53 90 32 45
        E 241 80 32 00
        E 8 90 26 46
        E 169 80 26 00
        E 69 90 32 42
        E 227 80 32 00
        E 18 90 26 48
        E 181 80 26 00
        E 42 90 32 42
        E 239 80 32 00
        E 7 90 26 44
        E 184 80 26 00
        E 53 90 32 46
        E 227 80 32 00
        E 16 90 26 48
        E 182 80 26 00
        E 46 90 32 44
        E 236 80 32 00
        E 8 90 26 47
        E 175 80 26 00
        E 58 90 32 42
        E 231 80 32 00
        E 21 90 26 49
        E 160 80 26 00
        E 74 90 32 44
        E 247 80 32 00
        E 5 90 26 45
        E 181 80 26 00
        E 40 90 32 43
        E 231 80 32 00
        E 15 90 26 45
        E 187 80 26 00
        E 49 90 32 42
        E 237 80 32 00
        E 13 90 26 47
        E 186 80 26 00
        E 50 90 32 42
        E 231 80 32 00
        E 13 90 26 47
        E 176 80 26 00
        E 55 90 32 44
        E 234 80 32 00
        E 13 90 26 46
        E 159 80 26 00
        E 66 90 32 42
        E 238 80 32 00
        E 14 90 26 48
        E 192 80 26 00
        E 50 90 32 42
        E 222 80 32 00
        E 10 90 26 46
        E 185 80 26 00
        E 52 90 32 45
        E 233 80 32 00
        E 10 90 26 47
        E 181 80 26 00
        E 52 90 32 40
        E 236 80 32 00
        E 15 90 26 48
        E 190 80 26 00
        E 55 90 32 40
        E 247 80 32 00
        E 7 90 26 47
        E 142 80 26 00
        E 84 90 32 3d
        E 231 80 32 00
        E 5 90 26 48
        E 156 80 26 00
        E 78 90 32 41
        E 223 80 32 00
        E 20 90 26 45
        E 173 80 26 00
        E 58 90 32 3f
        E 240 80 32 00
        E 9 90 26 45
        E 183 80 26 00
        E 61 90 32 3e
        E 210 80 32 00
        E 26 90 26 45
        E 190 80 26 00
        E 46 90 32 42
        E 226 80 32 00
        E 24 90 26 47
        E 167 80 26 00
        E 83 90 32 43
        E 215 80 32 00
        E 21 90 26 46
        E 179 80 26 00
        E 69 90 32 3e
        E 211 80 32 00
        E 21 90 26 46
        E 172 80 26 00
        E 65 90 32 45
        E 234 80 32 00
        E 23 90 26 45
        E 188 80 26 00
        E 60 90 32 43
        E 219 80 32 00
        E 15 90 26 45
        E 200 80 26 00
        E 54 90 32 40
        E 223 80 32 00
        E 13 90 26 46
        E 186 80 26 00
        E 39 90 32 43
        E 235 80 32 00
        E 8 90 26 46
        E 205 80 26 00
        E 53 90 32 3f
        E 211 80 32 00
        E 14 90 26 45
        E 168 80 26 00
        E 54 90 32 40
        E 230 80 32 00
        E 6 90 26 47
        E 177 80 26 00
        E 61 90 32 44
        E 231 80 32 00
        E 24 90 26 47
        E 168 80 26 00
        E 78 90 32 43
        E 224 80 32 00
        E 16 90 26 44
        E 174 80 26 00
        E 65 90 32 45
        E 232 80 32 00
        E 13 90 26 48
        E 146 80 26 00
        E 94 90 32 42
        E 223 80 32 00
        E 13 90 26 46
        E 168 80 26 00
        E 85 90 32 45
        E 220 80 32 00
        E 18 90 26 46
        E 154 80 26 00
        E 80 90 32 44
        E 231 80 32 00
        E 15 90 26 46
        E 168 80 26 00
        E 61 90 32 44
        E 220 80 32 00
        E 21 90 26 43
        E 162 80 26 00
        E 64 90 32 45
        E 237 80 32 00
        E 6 90 26 46
        E 183 80 26 00
        E 64 90 32 44
        E 233 80 32 00
        E 13 90 26 47
        E 185 80 26 00
        E 59 90 32 46
        E 228 80 32 00
        E 6 90 26 48
        E 149 80 26 00
        E 100 90 32 42
        E 205 80 32 00
        E 25 90 26 47
        E 188 80 26 00
        E 64 90 32 3f
        E 225 80 32 00
        E 19 90 26 46
        E 161 80 26 00
        E 70 90 32 45
        E 233 80 32 00
        E 12 90 26 46
        E 164 80 26 00
        E 73 90 32 41
        E 227 80 32 00
        E 27 90 26 45
        E 153 80 26 00
        E 58 90 32 40
        E 231 80 32 00
        E 18 90 26 49
        E 153 80 26 00
        E 72 90 32 42
        E 246 80 32 00
        E 11 90 26 44
        E 174 80 26 00
        E 67 90 32 42
        E 211 80 32 00
        E 25 90 26 45
        E 184 80 26 00
        E 40 90 32 3f
        E 233 80 32 00
        E 9 90 26 46
        E 184 80 26 00
        E 59 90 32 44
        E 229 80 32 00
        E 18 90 26 47
        E 152 80 26 00
        E 73 90 32 42
        E 227 80 32 00
        E 22 90 26 45
        E 174 80 26 00
        E 56 90 32 43
        E 239 80 32 00
        E 23 90 26 48
        E 180 80 26 00
        E 53 90 32 44
        E 238 80 32 00
        E 20 90 26 47
        E 155 80 26 00
        E 87 90 32 43
        E 233 80 32 00
        E 17 90 26 47
        E 163 80 26 00
        E 56 90 32 41
        E 244 80 32 00
        E 6 90 26 40
        E 185 80 26 00
        E 53 90 32 44
        E 221 80 32 00
        E 12 90 26 46
        E 164 80 26 00
        E 69 90 32 43
        E 232 80 32 00
        E 8 90 26 44
        E 190 80 26 00
        E 57 90 32 45
        E 207 80 32 00
        E 21 90 26 44
        E 197 80 26 00
        E 49 90 32 42
        E 234 80 32 00
        E 2 90 26 42
        E 180 80 26 00
        E 46 90 32 44
        E 228 80 32 00
        E 15 90 26 44
        E 176 80 26 00
        E 53 90 32 42
        E 234 80 32 00
        E 11 90 26 43
        E 188 80 26 00
        E 45 90 32 47
        E 232 80 32 00
        E 18 90 26 44
        E 183 80 26 00
        E 43 90 32 45
        E 247 90 26 46
        E 5 80 32 00
        E 189 80 26 00
        E 71 90 32 46
        E 212 80 32 00
        E 15 90 26 46
        E 193 80 26 00
        E 54 90 32 44
        E 215 80 32 00
        E 15 90 26 45
        E 192 80 26 00
        E 42 90 32 43
        E 233 80 32 00
        E 5 90 26 45
        E 201 80 26 00
        E 42 90 32 42
        E 233 80 32 00
        E 5 90 26 43
        E 164 80 26 00
        E 61 90 32 42
        E 222 80 32 00
        E 18 90 26 45
        E 184 80 26 00
        E 49 90 32 45
        E 218 80 32 00
        E 18 90 26 43
        E 163 80 26 00
        E 81 90 32 44
        E 232 80 32 00
        E 17 90 26 48
        E 202 80 26 00
        E 54 90 32 42
        E 239 80 32 00
        E 4 90 26 45
        E 183 80 26 00
        E 65 90 32 43
        E 207 80 32 00
        E 26 90 26 46
        E 203 80 26 00
        E 50 90 32 44
        E 223 80 32 00
        E 16 90 26 47
        E 188 80 26 00
        E 54 90 32 41
        E 218 80 32 00
        E 15 90 26 46
        E 190 80 26 00
        E 50 90 32 43
        E 219 80 32 00
        E 30 90 26 45
        E 182 80 26 00
        E 55 90 32 43
        E 225 80 32 00
        E 15 90 26 46
        E 160 80 26 00
        E 58 90 32 44
        E 232 80 32 00
        E 13 90 26 47
        E 183 80 26 00
        E 59 90 32 42
        E 226 80 32 00
        E 17 90 26 48
        E 197 80 26 00
        E 49 90 32 42
        E 208 80 32 00
        E 18 90 26 47
        E 203 80 26 00
        E 48 90 32 44
        E 218 80 32 00
        E 23 90 26 46
        E 178 80 26 00
        E 59 90 32 44
        E 221 80 32 00
        E 19 90 26 45
        E 188 80 26 00
        E 51 90 32 41
        E 208 80 32 00
        E 21 90 26 45
        E 194 80 26 00
        E 43 90 32 42
        E 202 80 32 00
        E 23 90 26 46
        E 200 80 26 00
        E 39 90 32 3e
        E 225 80 32 00
        E 19 90 26 43
        E 208 80 26 00
        E 43 90 32 44
        E 191 80 32 00
        E 28 90 26 44
        E 193 80 26 00
        E 61 90 32 40
        E 219 80 32 00
        E 19 90 26 47
        E 187 80 26 00
        E 51 90 32 42
        E 237 80 32 00
        E 24 90 26 46
        E 191 80 26 00
        E 55 90 32 46
        E 195 80 32 00
        E 36 90 26 47
        E 203 80 26 00
        E 53 90 32 46
        E 203 80 32 00
        E 18 90 26 47
        E 210 80 26 00
        E 45 90 32 42
        E 218 80 32 00
        E 20 90 26 46
        E 199 80 26 00
        E 59 90 32 3c
        E 225 80 32 00
        E 14 90 26 42
        E 192 80 26 00
        E 37 90 32 45
        E 231 80 32 00
        E 16 90 26 46
        E 189 80 26 00
        E 41 90 32 43
        E 238 80 32 00
        E 18 90 26 47
        E 179 80 26 00
        E 61 90 32 47
        E 216 80 32 00
        E 25 90 26 49
        E 193 80 26 00
        E 35 90 32 42
        E 236 80 32 00
        E 10 90 26 47
        E 155 80 26 00
        E 84 90 32 43
        E 220 80 32 00
        E 11 90 26 49
        E 193 80 26 00
        E 40 90 32 45
        E 237 80 32 00
        E 11 90 26 49
        E 190 80 26 00
        E 54 90 32 43
        E 215 80 32 00
        E 25 90 26 4a
        E 196 80 26 00
        E 38 90 32 45
        E 224 80 32 00
        E 15 90 26 48
        E 183 80 26 00
        E 51 90 32 43
        E 217 80 32 00
        E 17 90 26 49
        E 169 80 26 00
        E 61 90 32 45
        E 229 80 32 00
        E 17 90 26 46
        E 182 80 26 00
        E 47 90 32 43
        E 220 80 32 00
        E 15 90 26 47
        E 195 80 26 00
        E 54 90 32 46
        E 214 80 32 00
        E 17 90 26 48
        E 169 80 26 00
        E 70 90 32 45
        E 216 80 32 00
        E 30 90 26 48
        E 153 80 26 00
        E 71 90 32 3c
        E 237 80 32 00
        E 11 90 26 49
        E 197 80 26 00
        E 50 90 32 45
        E 224 80 32 00
        E 30 90 26 48
        E 173 80 26 00
        E 69 90 32 43
        E 216 80 32 00
        E 21 90 26 47
        E 179 80 26 00
        E 57 90 32 43
        E 228 80 32 00
        E 24 90 26 49
        E 190 80 26 00
        E 59 90 32 46
        E 213 80 32 00
        E 25 90 26 49
        E 175 80 26 00
        E 75 90 32 45
        E 220 80 32 00
        E 24 90 26 49
        E 194 80 26 00
        E 51 90 32 47
        E 227 80 32 00
        E 15 90 26 48
        E 156 80 26 00
        E 75 90 32 46
        E 235 80 32 00
        E 18 90 26 48
        E 172 80 26 00
        E 53 90 32 47
        E 234 80 32 00
        E 18 90 26 45
        E 163 80 26 00
        E 67 90 32 45
        E 218 80 32 00
        E 14 90 26 48
        E 177 80 26 00
        E 52 90 32 44
        E 224 80 32 00
        E 9 90 26 46
        E 195 80 26 00
        E 50 90 32 47
        E 200 80 32 00
        E 26 90 26 47
        E 183 80 26 00
        E 59 90 32 42
        E 219 80 32 00
        E 26 90 26 46
        E 156 80 26 00
        E 75 90 32 44
        E 216 80 32 00
        E 36 90 26 45
        E 170 80 26 00
        E 50 90 32 45
        E 237 80 32 00
        E 14 90 26 44
        E 180 80 26 00
        E 66 90 32 47
        E 219 80 32 00
        E 15 90 26 4a
        E 176 80 26 00
        E 61 90 32 44
        E 236 80 32 00
        E 21 90 26 42
        E 186 80 26 00
        E 50 90 32 45
        E 227 80 32 00
        E 21 90 26 45
        E 183 80 26 00
        E 57 90 32 43
        E 222 80 32 00
        E 16 90 26 46
        E 166 80 26 00
        E 63 90 32 44
        E 226 80 32 00
        E 24 90 26 47
        E 197 80 26 00
        E 49 90 32 43
        E 234 80 32 00
        E 13 90 26 46
        E 197 80 26 00
        E 32 90 32 45
        E 240 80 32 00
        E 16 90 26 46
        E 179 80 26 00
        E 50 90 32 44
        E 230 80 32 00
        E 8 90 26 46
        E 196 80 26 00
        E 56 90 32 44
        E 217 80 32 00
        E 21 90 26 48
        E 186 80 26 00
        E 42 90 32 44
        E 235 80 32 00
        E 19 90 26 46
        E 156 80 26 00
        E 73 90 32 43
        E 232 80 32 00
        E 12 90 26 49
        E 187 80 26 00
        E 45 90 32 46
        E 224 80 32 00
        E 20 90 26 47
        E 188 80 26 00
        E 49 90 32 45
        E 219 80 32 00
        E 25 90 26 45
        E 167 80 26 00
        E 67 90 32 44
        E 236 80 32 00
        E 17 90 26 45
        E 169 80 26 00
        E 68 90 32 45
        E 213 80 32 00
        E 26 90 26 45
        E 184 80 26 00
        E 53 90 32 42
        E 219 80 32 00
        E 16 90 26 46
        E 196 80 26 00
        E 42 90 32 43
        E 216 80 32 00
        E 17 90 26 4a
        E 170 80 26 00
        E 67 90 32 41
        E 215 80 32 00
        E 12 90 26 46
        E 200 80 26 00
        E 49 90 32 44
        E 185 80 32 00
        E 37 90 26 47
        E 203 80 26 00
        E 55 90 32 42
        E 231 80 32 00
        E 14 90 26 45
        E 198 80 26 00
        E 47 90 32 43
        E 217 80 32 00
        E 21 90 26 46
        E 192 80 26 00
        E 55 90 32 41
        E 215 80 32 00
        E 19 90 26 44
        E 160 80 26 00
        E 86 90 32 43
        E 185 80 32 00
        E 56 90 26 49
        E 191 80 26 00
        E 51 90 32 45
        E 201 80 32 00
        E 33 90 26 45
        E 194 80 26 00
        E 36 90 32 47
        E 210 80 32 00
        E 28 90 26 47
        E 190 80 26 00
        E 62 90 32 45
        E 210 80 32 00
        E 15 90 26 47
        E 191 80 26 00
        E 66 90 32 46
        E 188 80 32 00
        E 35 90 26 45
        E 207 80 26 00
        E 47 90 32 44
        E 222 80 32 00
        E 7 90 26 45
        E 200 80 26 00
        E 44 90 32 47
        E 228 80 32 00
        E 22 90 26 47
        E 196 80 26 00
        E 41 90 32 43
        E 247 80 32 00
        E 11 90 26 45
        E 155 80 26 00
        E 73 90 32 45
        E 229 80 32 00
        E 15 90 26 46
        E 176 80 26 00
        E 37 90 32 41
        E 254 80 32 00
        E 10 90 26 45
        E 172 80 26 00
        E 51 90 32 45
        E 219 80 32 00
        E 24 90 26 46
        E 200 80 26 00
        E 44 90 32 45
        E 216 80 32 00
        E 18 90 26 45
        E 200 80 26 00
        E 40 90 32 42
        E 215 80 32 00
        E 17 90 26 47
        E 186 80 26 00
        E 58 90 32 42
        E 206 80 32 00
        E 23 90 26 48
        E 192 80 26 00
        E 49 90 32 44
        E 231 80 32 00
        E 4 90 26 49
        E 200 80 26 00
        E 63 90 32 45
        E 224 80 32 00
        E 16 90 26 49
        E 183 80 26 00
        E 60 90 32 44
        E 237 80 32 00
        E 12 90 26 46
        E 182 80 26 00
        E 53 90 32 44
        E 237 80 32 00
        E 20 90 26 45
        E 148 80 26 00
        E 79 90 32 45
        E 238 80 32 00
        E 18 90 26 46
        E 172 80 26 00
        E 48 90 32 43
        E 247 80 32 00
        E 1 90 26 47
        E 169 80 26 00
        E 44 90 32 45
        E 248 80 32 00
        E 22 90 26 4a
        E 150 80 26 00
        E 76 90 32 44
        E 234 80 32 00
        E 4 90 26 48
        E 214 80 26 00
        E 44 90 32 47
        E 215 80 32 00
        E 13 90 26 48
        E 186 80 26 00
        E 47 90 32 42
        E 235 80 32 00
        E 11 90 26 45
        E 166 80 26 00
        E 67 90 32 3e
        E 218 80 32 00
        E 14 90 26 48
        E 184 80 26 00
        E 46 90 32 42
        E 238 80 32 00
        E 13 90 26 46
        E 184 80 26 00
        E 72 90 32 44
        E 220 80 32 00
        E 17 90 26 49
        E 168 80 26 00
        E 65 90 32 41
        E 255 80 32 00
        E 3 90 26 48
        E 184 80 26 00
        E 45 90 32 45
        E 239 80 32 00
        E 15 90 26 4a
        E 176 80 26 00
        E 66 90 32 41
        E 218 80 32 00
        E 18 90 26 48
        E 167 80 26 00
        E 66 90 32 3f
        E 232 80 32 00
        E 13 90 26 47
        E 166 80 26 00
        E 55 90 32 47
        E 239 80 32 00
        E 10 90 26 46
        E 176 80 26 00
        E 66 90 32 46
        E 226 80 32 00
        E 11 90 26 48
        E 189 80 26 00
        E 54 90 32 40
        E 238 90 26 47
        E 1 80 32 00
        E 195 80 26 00
        E 53 90 32 44
        E 210 80 32 00
        E 23 90 26 46
        E 184 80 26 00
        E 59 90 32 42
        E 234 80 32 00
        E 7 90 26 46
        E 198 80 26 00
        E 44 90 32 47
        E 237 80 32 00
        E 10 90 26 47
        E 190 80 26 00
        E 34 90 32 47
        E 242 80 32 00
        E 4 90 26 45
        E 211 80 26 00
        E 36 90 32 45
        E 226 90 26 49
        E 5 80 32 00
        E 202 80 26 00
        E 32 90 32 43
        E 248 90 26 47
        E 1 80 32 00
        E 178 80 26 00
        E 64 90 32 46
        E 230 80 32 00
        E 16 90 26 48
        E 193 80 26 00
        E 25 90 32 45
        E 258 80 32 00
        E 5 90 26 48
        E 210 80 26 00
        E 37 90 32 43
        E 230 90 26 49
        E 2 80 32 00
        E 181 80 26 00
        E 51 90 32 3e
        E 248 90 26 49
        E 1 80 32 00
        E 208 80 26 00
        E 23 90 32 3f
        E 218 80 32 00
        E 5 90 26 48
        E 200 80 26 00
        E 42 90 32 44
        E 237 80 32 00
        E 1 90 26 48
        E 192 80 26 00
        E 52 90 32 44
        E 221 80 32 00
        E 12 90 26 4a
        E 185 80 26 00
        E 40 90 32 44
        E 236 80 32 00
        E 24 90 26 49
        E 217 80 26 00
        E 32 90 32 47
        E 214 80 32 00
        E 29 90 26 4c
        E 195 80 26 00
        E 43 90 32 42
        E 216 80 32 00
        E 23 90 26 48
        E 196 80 26 00
        E 43 90 32 46
        E 226 80 32 00
        E 254 90 26 01
        E 207 80 26 00
        E 266 90 26 01
        E 197 80 26 00
        E 286 90 26 02
        E 230 80 26 00
        E 259 90 26 03
        E 220 80 26 00
        E 262 90 26 04
        E 220 80 26 00
        E 253 90 26 05
        E 227 80 26 00
        E 263 90 26 06
        E 238 80 26 00
        E 258 90 26 06
        E 211 80 26 00
        E 259 90 26 07
        E 233 80 26 00
        E 261 90 26 08
        E 227 80 26 00
        E 252 90 26 09
        E 221 80 26 00
        E 258 90 26 0a
        E 211 80 26 00
        E 263 90 26 0b
        E 244 80 26 00
        E 246 90 26 0c
        E 234 80 26 00
        E 245 90 26 0d
        E 231 80 26 00
        E 247 90 26 0f
        E 229 80 26 00
        E 251 90 26 10
        E 222 80 26 00
        E 265 90 26 11
        E 225 80 26 00
        E 257 90 26 13
        E 221 80 26 00
        E 253 90 26 14
        E 219 80 26 00
        E 257 90 26 16
        E 229 80 26 00
        E 246 90 26 18
        E 231 80 26 00
        E 241 90 26 1a
        E 236 80 26 00
        E 235 90 26 1b
        E 233 80 26 00
        E 247 90 26 1d
        E 233 80 26 00
        E 250 90 26 1f
        E 231 80 26 00
        E 240 90 26 20
        E 232 80 26 00
        E 233 90 26 22
        E 235 80 26 00
        E 253 90 26 24
        E 230 80 26 00
        E 258 90 26 25
        E 229 80 26 00
        E 253 90 26 27
        E 227 80 26 00
        E 257 90 26 28
        E 230 80 26 00
        E 231 90 26 29
        E 224 80 26 00
        E 249 90 26 2a
        E 227 80 26 00
        E 255 90 26 2b
        E 228 80 26 00
        E 267 90 26 2d
        E 225 80 26 00
        E 255 90 26 2d
        E 240 80 26 00
        E 242 90 26 2f
        E 223 80 26 00
        E 257 90 26 30
        E 235 80 26 00
        E 259 90 26 32
        E 213 80 26 00
        E 257 90 26 33
        E 244 80 26 00
        E 255 90 26 34
        E 234 80 26 00
        E 247 90 26 36
        E 258 80 26 00
        E 226 90 26 38
        E 245 80 26 00
        E 239 90 26 3a
        E 256 80 26 00
        E 221 90 26 3c
        E 260 80 26 00
        E 222 90 26 3e
        E 262 80 26 00
        E 226 90 26 40
        E 236 80 26 00
        E 239 90 26 42
        E 224 80 26 00
        E 250 90 26 43
        E 238 80 26 00
        E 244 90 26 44
        E 233 80 26 00
        E 246 90 26 45
        E 234 80 26 00
        E 234 90 26 46
        E 248 80 26 00
        E 243 90 26 47
        E 237 80 26 00
        E 231 90 26 47
        E 239 80 26 00
        E 246 90 26 46
        E 217 80 26 00
        E 249 90 26 47
        E 239 80 26 00
        E 237 90 26 46
        E 238 80 26 00
        E 224 90 26 45
        E 247 80 26 00
        E 243 90 26 46
        E 239 80 26 00
        E 242 90 26 44
        E 238 80 26 00
        E 249 90 26 46
        E 223 80 26 00
        E 263 90 26 45
        E 223 80 26 00
        E 251 90 26 48
        E 231 80 26 00
        E 256 90 26 46
        E 231 80 26 00
        E 252 90 26 47
        E 229 80 26 00
        E 252 90 26 46
        E 239 80 26 00
        E 239 90 26 47
        E 240 80 26 00
        E 233 90 26 46
        E 233 80 26 00
        E 248 90 26 47
        E 232 80 26 00
        E 248 90 26 47
        E 226 80 26 00
        E 245 90 26 47
        E 233 80 26 00
        E 245 90 26 46
        E 233 80 26 00
        E 244 90 26 48
        E 234 80 26 00
        E 258 90 26 46
        E 224 80 26 00
        E 261 90 26 44
        E 237 80 26 00
        E 245 90 26 44
        E 237 80 26 00
        E 236 90 26 47
        E 234 80 26 00
        E 247 90 26 45
        E 232 80 26 00
        E 240 90 26 46
        E 234 80 26 00
        E 251 90 26 46
        E 230 80 26 00
        E 241 90 26 45
        E 224 80 26 00
        E 263 90 26 43
        E 217 80 26 00
        E 258 90 26 41
        E 235 80 26 00
        E 241 90 26 44
        E 225 80 26 00
        E 261 90 26 45
        E 246 80 26 00
        E 236 90 26 44
        E 236 80 26 00
        E 255 90 26 45
        E 223 80 26 00
        E 258 90 26 47
        E 240 80 26 00
        E 253 90 26 45
        E 228 80 26 00
        E 251 90 26 43
        E 240 80 26 00
        E 243 90 26 45
        E 222 80 26 00
        E 246 90 26 45
        E 242 80 26 00
        E 238 90 26 42
        E 242 80 26 00
        E 220 90 26 46
        E 262 80 26 00
        E 247 90 26 45
        E 237 80 26 00
        E 241 90 26 47
        E 224 80 26 00
        E 237 90 26 44
        E 249 80 26 00
        E 221 90 26 44
        E 246 80 26 00
        E 224 90 26 47
        E 242 80 26 00
        E 243 90 26 45
        E 263 80 26 00
        E 230 90 26 46
        E 234 80 26 00
        E 239 90 26 47
        E 234 80 26 00
        E 243 90 26 45
        E 231 80 26 00
        E 246 90 26 43
        E 254 80 26 00
        E 226 90 26 41
        E 250 80 26 00
        E 233 90 26 43
        E 242 80 26 00
        E 236 90 26 42
        E 242 80 26 00
        E 233 90 26 44
        E 251 80 26 00
        E 250 90 26 45
        E 242 80 26 00
        E 249 90 26 42
        E 243 80 26 00
        E 231 90 26 44
        E 240 80 26 00
        E 244 90 26 44
        E 231 80 26 00
        E 262 90 26 41
        E 211 80 26 00
        E 261 90 26 42
        E 229 80 26 00
        E 264 90 26 43
        E 211 80 26 00
        E 251 90 26 42
        E 232 80 26 00
        E 250 90 26 44
        E 226 80 26 00
        E 8340 b0 7b 00
        CCINTERP 32
        CHASE_CC_TAKEOFFS 1
        GUID {AED6C8B0-0AE5-BD42-BEE3-274DF4214C4D}
        IGNTEMPO 0 120 4 4
        SRCCOLOR 86
        VELLANE -1 200 0
        VELLANE 64 100 0
        CFGEDITVIEW 175833.49004 0.027678 70 11 0 -1 0 0 0 0.5
        KEYSNAP 0
        TRACKSEL 0
        EVTFILTER 0 -1 -1 -1 -1 0 0 0 0 -1 -1 -1 -1 0 -1 0 -1 -1
        CFGEDIT 1 1 0 1 0 0 1 1 1 1 1 0.125 0 0 1856 1055 0 0 0 0 0 0 0 0 0 0.5 0 0 1 64
      >
    >
  >
  <TRACK {DB356EE0-C468-1742-9E77-CF04FF9FAD79}
    NAME "Synth - low 8vb - 2"
    PEAKCOL 16576
    BEAT -1
    AUTOMODE 0
    VOLPAN 0.62218279116455 0 -1 -1 1
    MUTESOLO 0 0 0
    IPHASE 0
    PLAYOFFS 0 1
    ISBUS 0 0
    BUSCOMP 0 0 0 0 0
    SHOWINMIX 1 0.6667 0.5 1 0.5 0 -1 0
    FREEMODE 0
    SEL 0
    REC 0 5088 1 0 0 0 0
    VU 2
    TRACKHEIGHT 0 0 0 0 0 0
    INQ 0 0 0 0.5 100 0 0 100
    NCHAN 6
    FX 1
    TRACKID {DB356EE0-C468-1742-9E77-CF04FF9FAD79}
    PERF 0
    MIDIOUT -1
    MAINSEND 0 0
    <FXCHAIN
      WNDRECT 616 0 1239 598
      SHOW 0
      LASTSEL 0
      DOCKED 0
      BYPASS 0 0 0
      <VST "VST3i: SubtractiveSynth (CabbageAudio)" SubtractiveSynth.vst3 0 "" 80830264{ABCDEF019182FAEB4361626230303130} ""
        OF/RBO5e7f4AAAAABgAAAAEAAAAAAAAAAgAAAAAAAAAEAAAAAAAAAAgAAAAAAAAAEAAAAAAAAAAgAAAAAAAAAAIjAAABAAAA//8QAA==
        8iIAAAEAAABWQzIhrSIAADw/eG1sIHZlcnNpb249IjEuMCIgZW5jb2Rpbmc9IlVURi04Ij8+IDxDQUJCQUdFX1BSRVNFVFM+PFBSRVNFVDAgUHJlc2V0TmFtZT0iQ0FC
        QkFHRV9QUkVTRVRTIDAiIGluc3RhbmNlTmFtZT0iIiB0cmFja0luZGV4PSI2IiBwbHVnaW5JbmRleD0iMCIgZmlyc3RfdGFiX2J1Z193b3JrYXJvdW5kX3RhYj0iMC4w
        IiBzODhfdGFiPSIwLjAiIG9zYzFfdGFiPSIwLjAiIG9zYzJfdGFiPSIwLjAiIG9zYzNfdGFiPSIwLjAiIG9zYzRfdGFiPSIwLjAiIGZpbHRlcl90YWI9IjAuMCIgYW1w
        bGl0dWRlX3RhYj0iMC4wIiBwb3NpdGlvbl90YWI9IjEuMCIgbG9nX3RhYj0iMC4wIiBTODhfa25vYl8xPSIwLjAiIFM4OF9rbm9iXzI9IjAuMCIgUzg4X2tub2JfMz0i
        MC4wIiBTODhfa25vYl80PSIwLjAiIFM4OF9rbm9iXzU9IjAuMCIgUzg4X2tub2JfNj0iMC4wIiBTODhfa25vYl83PSIwLjAiIFM4OF9rbm9iXzg9IjAuMCIgUzg4X3Bp
        dGNoYmVuZD0iMC4wIiBTODhfbW9kd2hlZWw9IjAuMCIgb3NjMUVuYWJsZWQ9IjEuMCIgb3NjMVdhdmVmb3JtU2F3PSIwLjAiIG9zYzFXYXZlZm9ybVNxdWFyZT0iMS4w
        IiBvc2MxV2F2ZWZvcm1QdWxzZT0iMC4wIiBvc2MxV2F2ZWZvcm1Ob2lzZT0iMC4wIiBvc2MxUHVsc2VXaWR0aD0iMC45OTAwMDAwMDk1MzY3NDMyIiBvc2MxUHVsc2VX
        aWR0aEVuYWJsZWQ9IjEuMCIgb3NjMVB1bHNlV2lkdGhBZHNyRW5hYmxlZD0iMC4wIiBvc2MxUHVsc2VXaWR0aEF0dGFjaz0iMC4wIiBvc2MxUHVsc2VXaWR0aERlY2F5
        PSIwLjAiIG9zYzFQdWxzZVdpZHRoU3VzdGFpbj0iMC4wIiBvc2MxUHVsc2VXaWR0aFJlbGVhc2U9IjAuMCIgb3NjMVB1bHNlV2lkdGhMZm9FbmFibGVkPSIxLjAiIG9z
        YzFQdWxzZVdpZHRoTGZvU2hhcGU9IjEuMCIgb3NjMVB1bHNlV2lkdGhMZm9BbXBsaXR1ZGU9IjEuMCIgb3NjMVB1bHNlV2lkdGhMZm9GcmVxdWVuY3k9IjAuMDk5OTk5
        OTk0MDM5NTM1NTIiIG9zYzFQaXRjaD0iMC4wIiBvc2MxUGl0Y2hFbmFibGVkPSIwLjAiIG9zYzFQaXRjaEFkc3JFbmFibGVkPSIwLjAiIG9zYzFQaXRjaEF0dGFjaz0i
        MC4wIiBvc2MxUGl0Y2hEZWNheT0iMC4wIiBvc2MxUGl0Y2hTdXN0YWluPSIwLjAiIG9zYzFQaXRjaFJlbGVhc2U9IjAuMCIgb3NjMVBpdGNoTGZvRW5hYmxlZD0iMC4w
        IiBvc2MxUGl0Y2hMZm9TaGFwZT0iMS4wIiBvc2MxUGl0Y2hMZm9BbXBsaXR1ZGU9IjAuMCIgb3NjMVBpdGNoTGZvRnJlcXVlbmN5PSIwLjAiIG9zYzFGaWx0ZXJDdXRv
        ZmZGcmVxdWVuY3k9IjY1NTUuMDAwNDg4MjgxMjUiIG9zYzFGaWx0ZXJDdXRvZmZGcmVxdWVuY3lFbmFibGVkPSIxLjAiIG9zYzFGaWx0ZXJDdXRvZmZGcmVxdWVuY3lB
        ZHNyRW5hYmxlZD0iMC4wIiBvc2MxRmlsdGVyQ3V0b2ZmRnJlcXVlbmN5QXR0YWNrPSIwLjAiIG9zYzFGaWx0ZXJDdXRvZmZGcmVxdWVuY3lEZWNheT0iMC4wIiBvc2Mx
        RmlsdGVyQ3V0b2ZmRnJlcXVlbmN5U3VzdGFpbj0iMC4wIiBvc2MxRmlsdGVyQ3V0b2ZmRnJlcXVlbmN5UmVsZWFzZT0iMC4wIiBvc2MxRmlsdGVyQ3V0b2ZmRnJlcXVl
        bmN5TGZvRW5hYmxlZD0iMC4wIiBvc2MxRmlsdGVyQ3V0b2ZmRnJlcXVlbmN5TGZvU2hhcGU9IjEuMCIgb3NjMUZpbHRlckN1dG9mZkZyZXF1ZW5jeUxmb0FtcGxpdHVk
        ZT0iMC4wIiBvc2MxRmlsdGVyQ3V0b2ZmRnJlcXVlbmN5TGZvRnJlcXVlbmN5PSIwLjAiIG9zYzFGaWx0ZXJSZXNvbmFuY2U9IjAuMCIgb3NjMUZpbHRlclJlc29uYW5j
        ZUVuYWJsZWQ9IjAuMCIgb3NjMUZpbHRlclJlc29uYW5jZUFkc3JFbmFibGVkPSIwLjAiIG9zYzFGaWx0ZXJSZXNvbmFuY2VBdHRhY2s9IjAuMCIgb3NjMUZpbHRlclJl
        c29uYW5jZURlY2F5PSIwLjAiIG9zYzFGaWx0ZXJSZXNvbmFuY2VTdXN0YWluPSIwLjAiIG9zYzFGaWx0ZXJSZXNvbmFuY2VSZWxlYXNlPSIwLjAiIG9zYzFGaWx0ZXJS
        ZXNvbmFuY2VMZm9FbmFibGVkPSIwLjAiIG9zYzFGaWx0ZXJSZXNvbmFuY2VMZm9TaGFwZT0iMS4wIiBvc2MxRmlsdGVyUmVzb25hbmNlTGZvQW1wbGl0dWRlPSIwLjAi
        IG9zYzFGaWx0ZXJSZXNvbmFuY2VMZm9GcmVxdWVuY3k9IjAuMCIgb3NjMVZvbHVtZT0iMS4wIiBvc2MxVm9sdW1lRW5hYmxlZD0iMS4wIiBvc2MxVm9sdW1lQWRzckVu
        YWJsZWQ9IjEuMCIgb3NjMVZvbHVtZUF0dGFjaz0iMC4wMDUwMDAwMDAzNTM5MDI1NzgiIG9zYzFWb2x1bWVEZWNheT0iMC43NSIgb3NjMVZvbHVtZVN1c3RhaW49IjAu
        MCIgb3NjMVZvbHVtZVJlbGVhc2U9IjAuMDk5OTk5OTk0MDM5NTM1NTIiIG9zYzFWb2x1bWVMZm9FbmFibGVkPSIwLjAiIG9zYzFWb2x1bWVMZm9TaGFwZT0iMS4wIiBv
        c2MxVm9sdW1lTGZvQW1wbGl0dWRlPSIwLjAiIG9zYzFWb2x1bWVMZm9GcmVxdWVuY3k9IjAuMCIgb3NjMkVuYWJsZWQ9IjEuMCIgb3NjMldhdmVmb3JtU2F3PSIwLjAi
        IG9zYzJXYXZlZm9ybVNxdWFyZT0iMS4wIiBvc2MyV2F2ZWZvcm1QdWxzZT0iMC4wIiBvc2MyV2F2ZWZvcm1Ob2lzZT0iMC4wIiBvc2MyUHVsc2VXaWR0aD0iMC45OTAw
        MDAwMDk1MzY3NDMyIiBvc2MyUHVsc2VXaWR0aEVuYWJsZWQ9IjEuMCIgb3NjMlB1bHNlV2lkdGhBZHNyRW5hYmxlZD0iMC4wIiBvc2MyUHVsc2VXaWR0aEF0dGFjaz0i
        MC4wIiBvc2MyUHVsc2VXaWR0aERlY2F5PSIwLjAiIG9zYzJQdWxzZVdpZHRoU3VzdGFpbj0iMC4wIiBvc2MyUHVsc2VXaWR0aFJlbGVhc2U9IjAuMCIgb3NjMlB1bHNl
        V2lkdGhMZm9FbmFibGVkPSIxLjAiIG9zYzJQdWxzZVdpZHRoTGZvU2hhcGU9IjEuMCIgb3NjMlB1bHNlV2lkdGhMZm9BbXBsaXR1ZGU9IjEuMCIgb3NjMlB1bHNlV2lk
        dGhMZm9GcmVxdWVuY3k9IjAuMDk5OTk5OTk0MDM5NTM1NTIiIG9zYzJQaXRjaD0iMC4wIiBvc2MyUGl0Y2hFbmFibGVkPSIwLjAiIG9zYzJQaXRjaEFkc3JFbmFibGVk
        PSIwLjAiIG9zYzJQaXRjaEF0dGFjaz0iMC4wIiBvc2MyUGl0Y2hEZWNheT0iMC4wIiBvc2MyUGl0Y2hTdXN0YWluPSIwLjAiIG9zYzJQaXRjaFJlbGVhc2U9IjAuMCIg
        b3NjMlBpdGNoTGZvRW5hYmxlZD0iMC4wIiBvc2MyUGl0Y2hMZm9TaGFwZT0iMS4wIiBvc2MyUGl0Y2hMZm9BbXBsaXR1ZGU9IjAuMCIgb3NjMlBpdGNoTGZvRnJlcXVl
        bmN5PSIwLjAiIG9zYzJGaWx0ZXJDdXRvZmZGcmVxdWVuY3k9IjIwMDAwLjAiIG9zYzJGaWx0ZXJDdXRvZmZGcmVxdWVuY3lFbmFibGVkPSIwLjAiIG9zYzJGaWx0ZXJD
        dXRvZmZGcmVxdWVuY3lBZHNyRW5hYmxlZD0iMC4wIiBvc2MyRmlsdGVyQ3V0b2ZmRnJlcXVlbmN5QXR0YWNrPSIwLjAiIG9zYzJGaWx0ZXJDdXRvZmZGcmVxdWVuY3lE
        ZWNheT0iMC4wIiBvc2MyRmlsdGVyQ3V0b2ZmRnJlcXVlbmN5U3VzdGFpbj0iMC4wIiBvc2MyRmlsdGVyQ3V0b2ZmRnJlcXVlbmN5UmVsZWFzZT0iMC4wIiBvc2MyRmls
        dGVyQ3V0b2ZmRnJlcXVlbmN5TGZvRW5hYmxlZD0iMC4wIiBvc2MyRmlsdGVyQ3V0b2ZmRnJlcXVlbmN5TGZvU2hhcGU9IjEuMCIgb3NjMkZpbHRlckN1dG9mZkZyZXF1
        ZW5jeUxmb0FtcGxpdHVkZT0iMC4wIiBvc2MyRmlsdGVyQ3V0b2ZmRnJlcXVlbmN5TGZvRnJlcXVlbmN5PSIwLjAiIG9zYzJGaWx0ZXJSZXNvbmFuY2U9IjAuMCIgb3Nj
        MkZpbHRlclJlc29uYW5jZUVuYWJsZWQ9IjAuMCIgb3NjMkZpbHRlclJlc29uYW5jZUFkc3JFbmFibGVkPSIwLjAiIG9zYzJGaWx0ZXJSZXNvbmFuY2VBdHRhY2s9IjAu
        MCIgb3NjMkZpbHRlclJlc29uYW5jZURlY2F5PSIwLjAiIG9zYzJGaWx0ZXJSZXNvbmFuY2VTdXN0YWluPSIwLjAiIG9zYzJGaWx0ZXJSZXNvbmFuY2VSZWxlYXNlPSIw
        LjAiIG9zYzJGaWx0ZXJSZXNvbmFuY2VMZm9FbmFibGVkPSIwLjAiIG9zYzJGaWx0ZXJSZXNvbmFuY2VMZm9TaGFwZT0iMS4wIiBvc2MyRmlsdGVyUmVzb25hbmNlTGZv
        QW1wbGl0dWRlPSIwLjAiIG9zYzJGaWx0ZXJSZXNvbmFuY2VMZm9GcmVxdWVuY3k9IjAuMCIgb3NjMlZvbHVtZT0iMC4yMDAwMDAwMDI5ODAyMzIyIiBvc2MyVm9sdW1l
        RW5hYmxlZD0iMS4wIiBvc2MyVm9sdW1lQWRzckVuYWJsZWQ9IjEuMCIgb3NjMlZvbHVtZUF0dGFjaz0iMC4wMDUwMDAwMDAzNTM5MDI1NzgiIG9zYzJWb2x1bWVEZWNh
        eT0iMi4wIiBvc2MyVm9sdW1lU3VzdGFpbj0iMC4wIiBvc2MyVm9sdW1lUmVsZWFzZT0iMC4wMTAwMDAwMDA3MDc4MDUxNiIgb3NjMlZvbHVtZUxmb0VuYWJsZWQ9IjAu
        MCIgb3NjMlZvbHVtZUxmb1NoYXBlPSIxLjAiIG9zYzJWb2x1bWVMZm9BbXBsaXR1ZGU9IjAuMCIgb3NjMlZvbHVtZUxmb0ZyZXF1ZW5jeT0iMC4wIiBvc2MzRW5hYmxl
        ZD0iMS4wIiBvc2MzV2F2ZWZvcm1TYXc9IjAuMCIgb3NjM1dhdmVmb3JtU3F1YXJlPSIxLjAiIG9zYzNXYXZlZm9ybVB1bHNlPSIwLjAiIG9zYzNXYXZlZm9ybU5vaXNl
        PSIwLjAiIG9zYzNQdWxzZVdpZHRoPSIwLjk5MDAwMDAwOTUzNjc0MzIiIG9zYzNQdWxzZVdpZHRoRW5hYmxlZD0iMS4wIiBvc2MzUHVsc2VXaWR0aEFkc3JFbmFibGVk
        PSIwLjAiIG9zYzNQdWxzZVdpZHRoQXR0YWNrPSIwLjAiIG9zYzNQdWxzZVdpZHRoRGVjYXk9IjAuMCIgb3NjM1B1bHNlV2lkdGhTdXN0YWluPSIwLjAiIG9zYzNQdWxz
        ZVdpZHRoUmVsZWFzZT0iMC4wIiBvc2MzUHVsc2VXaWR0aExmb0VuYWJsZWQ9IjEuMCIgb3NjM1B1bHNlV2lkdGhMZm9TaGFwZT0iMS4wIiBvc2MzUHVsc2VXaWR0aExm
        b0FtcGxpdHVkZT0iMS4wIiBvc2MzUHVsc2VXaWR0aExmb0ZyZXF1ZW5jeT0iMC4wOTk5OTk5OTQwMzk1MzU1MiIgb3NjM1BpdGNoPSIwLjAiIG9zYzNQaXRjaEVuYWJs
        ZWQ9IjAuMCIgb3NjM1BpdGNoQWRzckVuYWJsZWQ9IjAuMCIgb3NjM1BpdGNoQXR0YWNrPSIwLjAiIG9zYzNQaXRjaERlY2F5PSIwLjAiIG9zYzNQaXRjaFN1c3RhaW49
        IjAuMCIgb3NjM1BpdGNoUmVsZWFzZT0iMC4wIiBvc2MzUGl0Y2hMZm9FbmFibGVkPSIwLjAiIG9zYzNQaXRjaExmb1NoYXBlPSIxLjAiIG9zYzNQaXRjaExmb0FtcGxp
        dHVkZT0iMC4wIiBvc2MzUGl0Y2hMZm9GcmVxdWVuY3k9IjAuMCIgb3NjM0ZpbHRlckN1dG9mZkZyZXF1ZW5jeT0iMjAwMDAuMCIgb3NjM0ZpbHRlckN1dG9mZkZyZXF1
        ZW5jeUVuYWJsZWQ9IjAuMCIgb3NjM0ZpbHRlckN1dG9mZkZyZXF1ZW5jeUFkc3JFbmFibGVkPSIwLjAiIG9zYzNGaWx0ZXJDdXRvZmZGcmVxdWVuY3lBdHRhY2s9IjAu
        MCIgb3NjM0ZpbHRlckN1dG9mZkZyZXF1ZW5jeURlY2F5PSIwLjAiIG9zYzNGaWx0ZXJDdXRvZmZGcmVxdWVuY3lTdXN0YWluPSIwLjAiIG9zYzNGaWx0ZXJDdXRvZmZG
        cmVxdWVuY3lSZWxlYXNlPSIwLjAiIG9zYzNGaWx0ZXJDdXRvZmZGcmVxdWVuY3lMZm9FbmFibGVkPSIwLjAiIG9zYzNGaWx0ZXJDdXRvZmZGcmVxdWVuY3lMZm9TaGFw
        ZT0iMS4wIiBvc2MzRmlsdGVyQ3V0b2ZmRnJlcXVlbmN5TGZvQW1wbGl0dWRlPSIwLjAiIG9zYzNGaWx0ZXJDdXRvZmZGcmVxdWVuY3lMZm9GcmVxdWVuY3k9IjAuMCIg
        b3NjM0ZpbHRlclJlc29uYW5jZT0iMC4wIiBvc2MzRmlsdGVyUmVzb25hbmNlRW5hYmxlZD0iMC4wIiBvc2MzRmlsdGVyUmVzb25hbmNlQWRzckVuYWJsZWQ9IjAuMCIg
        b3NjM0ZpbHRlclJlc29uYW5jZUF0dGFjaz0iMC4wIiBvc2MzRmlsdGVyUmVzb25hbmNlRGVjYXk9IjAuMCIgb3NjM0ZpbHRlclJlc29uYW5jZVN1c3RhaW49IjAuMCIg
        b3NjM0ZpbHRlclJlc29uYW5jZVJlbGVhc2U9IjAuMCIgb3NjM0ZpbHRlclJlc29uYW5jZUxmb0VuYWJsZWQ9IjAuMCIgb3NjM0ZpbHRlclJlc29uYW5jZUxmb1NoYXBl
        PSIxLjAiIG9zYzNGaWx0ZXJSZXNvbmFuY2VMZm9BbXBsaXR1ZGU9IjAuMCIgb3NjM0ZpbHRlclJlc29uYW5jZUxmb0ZyZXF1ZW5jeT0iMC4wIiBvc2MzVm9sdW1lPSIw
        LjIwMDAwMDAwMjk4MDIzMjIiIG9zYzNWb2x1bWVFbmFibGVkPSIxLjAiIG9zYzNWb2x1bWVBZHNyRW5hYmxlZD0iMS4wIiBvc2MzVm9sdW1lQXR0YWNrPSIwLjAwNTAw
        MDAwMDM1MzkwMjU3OCIgb3NjM1ZvbHVtZURlY2F5PSIxMC4wIiBvc2MzVm9sdW1lU3VzdGFpbj0iMC4wIiBvc2MzVm9sdW1lUmVsZWFzZT0iMC4wMTAwMDAwMDA3MDc4
        MDUxNiIgb3NjM1ZvbHVtZUxmb0VuYWJsZWQ9IjAuMCIgb3NjM1ZvbHVtZUxmb1NoYXBlPSIxLjAiIG9zYzNWb2x1bWVMZm9BbXBsaXR1ZGU9IjAuMCIgb3NjM1ZvbHVt
        ZUxmb0ZyZXF1ZW5jeT0iMC4wIiBvc2M0RW5hYmxlZD0iMS4wIiBvc2M0V2F2ZWZvcm1TYXc9IjAuMCIgb3NjNFdhdmVmb3JtU3F1YXJlPSIxLjAiIG9zYzRXYXZlZm9y
        bVB1bHNlPSIwLjAiIG9zYzRXYXZlZm9ybU5vaXNlPSIwLjAiIG9zYzRQdWxzZVdpZHRoPSIwLjk5MDAwMDAwOTUzNjc0MzIiIG9zYzRQdWxzZVdpZHRoRW5hYmxlZD0i
        MS4wIiBvc2M0UHVsc2VXaWR0aEFkc3JFbmFibGVkPSIwLjAiIG9zYzRQdWxzZVdpZHRoQXR0YWNrPSIwLjAiIG9zYzRQdWxzZVdpZHRoRGVjYXk9IjAuMCIgb3NjNFB1
        bHNlV2lkdGhTdXN0YWluPSIwLjAiIG9zYzRQdWxzZVdpZHRoUmVsZWFzZT0iMC4wIiBvc2M0UHVsc2VXaWR0aExmb0VuYWJsZWQ9IjEuMCIgb3NjNFB1bHNlV2lkdGhM
        Zm9TaGFwZT0iMS4wIiBvc2M0UHVsc2VXaWR0aExmb0FtcGxpdHVkZT0iMS4wIiBvc2M0UHVsc2VXaWR0aExmb0ZyZXF1ZW5jeT0iMC4wOTk5OTk5OTQwMzk1MzU1MiIg
        b3NjNFBpdGNoPSIwLjAiIG9zYzRQaXRjaEVuYWJsZWQ9IjAuMCIgb3NjNFBpdGNoQWRzckVuYWJsZWQ9IjAuMCIgb3NjNFBpdGNoQXR0YWNrPSIwLjAiIG9zYzRQaXRj
        aERlY2F5PSIwLjAiIG9zYzRQaXRjaFN1c3RhaW49IjAuMCIgb3NjNFBpdGNoUmVsZWFzZT0iMC4wIiBvc2M0UGl0Y2hMZm9FbmFibGVkPSIwLjAiIG9zYzRQaXRjaExm
        b1NoYXBlPSIxLjAiIG9zYzRQaXRjaExmb0FtcGxpdHVkZT0iMC4wIiBvc2M0UGl0Y2hMZm9GcmVxdWVuY3k9IjAuMCIgb3NjNEZpbHRlckN1dG9mZkZyZXF1ZW5jeT0i
        MjAwMDAuMCIgb3NjNEZpbHRlckN1dG9mZkZyZXF1ZW5jeUVuYWJsZWQ9IjAuMCIgb3NjNEZpbHRlckN1dG9mZkZyZXF1ZW5jeUFkc3JFbmFibGVkPSIwLjAiIG9zYzRG
        aWx0ZXJDdXRvZmZGcmVxdWVuY3lBdHRhY2s9IjAuMCIgb3NjNEZpbHRlckN1dG9mZkZyZXF1ZW5jeURlY2F5PSIwLjAiIG9zYzRGaWx0ZXJDdXRvZmZGcmVxdWVuY3lT
        dXN0YWluPSIwLjAiIG9zYzRGaWx0ZXJDdXRvZmZGcmVxdWVuY3lSZWxlYXNlPSIwLjAiIG9zYzRGaWx0ZXJDdXRvZmZGcmVxdWVuY3lMZm9FbmFibGVkPSIwLjAiIG9z
        YzRGaWx0ZXJDdXRvZmZGcmVxdWVuY3lMZm9TaGFwZT0iMS4wIiBvc2M0RmlsdGVyQ3V0b2ZmRnJlcXVlbmN5TGZvQW1wbGl0dWRlPSIwLjAiIG9zYzRGaWx0ZXJDdXRv
        ZmZGcmVxdWVuY3lMZm9GcmVxdWVuY3k9IjAuMCIgb3NjNEZpbHRlclJlc29uYW5jZT0iMC4wIiBvc2M0RmlsdGVyUmVzb25hbmNlRW5hYmxlZD0iMC4wIiBvc2M0Rmls
        dGVyUmVzb25hbmNlQWRzckVuYWJsZWQ9IjAuMCIgb3NjNEZpbHRlclJlc29uYW5jZUF0dGFjaz0iMC4wIiBvc2M0RmlsdGVyUmVzb25hbmNlRGVjYXk9IjAuMCIgb3Nj
        NEZpbHRlclJlc29uYW5jZVN1c3RhaW49IjAuMCIgb3NjNEZpbHRlclJlc29uYW5jZVJlbGVhc2U9IjAuMCIgb3NjNEZpbHRlclJlc29uYW5jZUxmb0VuYWJsZWQ9IjAu
        MCIgb3NjNEZpbHRlclJlc29uYW5jZUxmb1NoYXBlPSIxLjAiIG9zYzRGaWx0ZXJSZXNvbmFuY2VMZm9BbXBsaXR1ZGU9IjAuMCIgb3NjNEZpbHRlclJlc29uYW5jZUxm
        b0ZyZXF1ZW5jeT0iMC4wIiBvc2M0Vm9sdW1lPSIwLjIwMDAwMDAwMjk4MDIzMjIiIG9zYzRWb2x1bWVFbmFibGVkPSIxLjAiIG9zYzRWb2x1bWVBZHNyRW5hYmxlZD0i
        MS4wIiBvc2M0Vm9sdW1lQXR0YWNrPSIwLjAwNTAwMDAwMDM1MzkwMjU3OCIgb3NjNFZvbHVtZURlY2F5PSIwLjAiIG9zYzRWb2x1bWVTdXN0YWluPSIwLjEwMDAwMDAw
        MTQ5MDExNjEiIG9zYzRWb2x1bWVSZWxlYXNlPSIwLjAxMDAwMDAwMDcwNzgwNTE2IiBvc2M0Vm9sdW1lTGZvRW5hYmxlZD0iMC4wIiBvc2M0Vm9sdW1lTGZvU2hhcGU9
        IjEuMCIgb3NjNFZvbHVtZUxmb0FtcGxpdHVkZT0iMC4wIiBvc2M0Vm9sdW1lTGZvRnJlcXVlbmN5PSIwLjAiIGZpbHRlckVuYWJsZWQ9IjAuMCIgZmlsdGVyQ3V0b2Zm
        RnJlcXVlbmN5PSIyMDAwMC4wIiBmaWx0ZXJDdXRvZmZGcmVxdWVuY3lFbmFibGVkPSIwLjAiIGZpbHRlclJlc29uYW5jZT0iMC4wIiBmaWx0ZXJSZXNvbmFuY2VFbmFi
        bGVkPSIwLjAiIGFtcGxpdHVkZUVuYWJsZWQ9IjAuMCIgYW1wbGl0dWRlQXR0YWNrPSIwLjEwMDAwMDAwMTQ5MDExNjEiIGFtcGxpdHVkZURlY2F5PSIwLjEwMDAwMDAw
        MTQ5MDExNjEiIGFtcGxpdHVkZVN1c3RhaW49IjAuNSIgYW1wbGl0dWRlUmVsZWFzZT0iMC4xMDAwMDAwMDE0OTAxMTYxIiBwb3NpdGlvbkVuYWJsZWQ9IjEuMCIgcG9z
        aXRpb25EaXN0YW5jZVR5cGU9IjEuMCIgcG9zaXRpb25EaXJlY3Rpb25UeXBlPSIxLjAiIHBvc2l0aW9uWFlaRW5hYmxlZD0iMS4wIiBwb3NpdGlvblg9IjAuMCIgcG9z
        aXRpb25ZPSIwLjEwMDAwMDAyMzg0MTg1NzkiIHBvc2l0aW9uQ2FydGVzaWFuWj0iMC4wIiBwb3NpdGlvblhZX3h5cGFkX2lucHV0WD0iMTUwLjAiIHBvc2l0aW9uWFlf
        eHlwYWRfaW5wdXRZPSIxMDEuMjYyMDU0NDQzMzU5NCIgcG9zaXRpb25DYXJ0ZXNpYW5aX3h5cGFkX2lucHV0WD0iMC4wIiBwb3NpdGlvbkNhcnRlc2lhblpfeHlwYWRf
        aW5wdXRZPSIwLjAiIHBvc2l0aW9uTWF4WFlaPSIxMDAuMCIgcG9zaXRpb25NYXhYWVpfdnNsaWRlcj0iMTAwLjAiIHBvc2l0aW9uUlRaRW5hYmxlZD0iMS4wIiBwb3Np
        dGlvblI9IjAuNSIgcG9zaXRpb25UPSI5MC4wIiBwb3NpdGlvblBvbGFyWj0iMC41IiBwb3NpdGlvblJUX3h5cGFkX2lucHV0WD0iMTUwLjAiIHBvc2l0aW9uUlRfeHlw
        YWRfaW5wdXRZPSIxNTAuMCIgcG9zaXRpb25Qb2xhclpfeHlwYWRfaW5wdXRYPSIwLjAiIHBvc2l0aW9uUG9sYXJaX3h5cGFkX2lucHV0WT0iMC4wIiBwb3NpdGlvbk1h
        eFJaPSIxMDAuMCIgcG9zaXRpb25NYXhSWl92c2xpZGVyPSIxMDAuMCIvPjwvQ0FCQkFHRV9QUkVTRVRTPgAAAAAAAAAAAEpVQ0VQcml2YXRlRGF0YQABAUJ5cGFzcwAB
        AQMAHQAAAAAAAABKVUNFUHJpdmF0ZURhdGEAAAAAAAAAAA==
        AAAQAAAA
      >
      FLOATPOS 920 0 1000 570
      FXID {3E8EFDF6-6FD1-C04D-B82B-96C4EE6EF7E1}
      <PARMENV 285:285 0 1 0.5
        EGUID {F531DD5C-CA11-CD45-BF50-A36DD7C41028}
        ACT 1 -1
        VIS 1 1 1
        LANEHEIGHT 0 0
        ARM 1
        DEFSHAPE 0 -1 -1
        PT 0 0.75 0
        PT 92.48052692 0.75 0
        PT 121.8980907 0.5 0
      >
      <PARMENV 286:286 0 1 0.5
        EGUID {A385C85B-251C-D247-9D0E-2DB86DC0765F}
        ACT 1 -1
        VIS 1 1 1
        LANEHEIGHT 0 0
        ARM 1
        DEFSHAPE 0 -1 -1
        PT 0 0.75 0
        PT 92.48052692 0.75 0
        PT 121.8980907 0.5 0
      >
      WAK 0 0
    >
    <ITEM
      POSITION 92.48052692131662
      SNAPOFFS 0
      LENGTH 30.01947307868338
      LOOP 1
      ALLTAKES 0
      FADEIN 1 0 0 1 0 0 0
      FADEOUT 1 0 0 1 0 0 0
      MUTE 0 0
      SEL 0
      IGUID {6E52D342-E021-4E4C-AD02-03B89E11DE54}
      IID 32
      NAME "07-Piano - pedal-Recorded MIDI"
      VOLPAN 1 0 1 -1
      SOFFS 92.48052692131662 184.96105384263325
      PLAYRATE 1 1 0 -1 0 0.0025
      CHANMODE 0
      GUID {AC9BA1B2-78BD-1442-91AA-2BA1BFEF6D52}
      RECPASS 11
      <SOURCE MIDI
        HASDATA 1 960 QN
        CCINTERP 32
        POOLEDEVTS {9E798078-FC56-A840-821D-D5AACD7D92A6}
        E 7645 90 26 47
        E 185 80 26 00
        E 40 90 32 3e
        E 149 80 32 00
        E 71 90 26 44
        E 146 80 26 00
        E 72 90 32 3c
        E 171 80 32 00
        E 58 90 26 46
        E 146 80 26 00
        E 98 90 32 30
        E 172 80 32 00
        E 71 90 26 44
        E 175 80 26 00
        E 85 90 32 37
        E 205 80 32 00
        E 44 90 26 4a
        E 186 80 26 00
        E 79 90 32 3f
        E 223 80 32 00
        E 26 90 26 47
        E 171 80 26 00
        E 85 90 32 39
        E 218 80 32 00
        E 25 90 26 48
        E 172 80 26 00
        E 65 90 32 3e
        E 207 80 32 00
        E 36 90 26 47
        E 172 80 26 00
        E 74 90 32 3d
        E 216 80 32 00
        E 14 90 26 48
        E 182 80 26 00
        E 47 90 32 3f
        E 217 80 32 00
        E 31 90 26 44
        E 180 80 26 00
        E 75 90 32 3c
        E 216 80 32 00
        E 22 90 26 47
        E 172 80 26 00
        E 57 90 32 3b
        E 223 80 32 00
        E 19 90 26 48
        E 190 80 26 00
        E 62 90 32 3c
        E 200 80 32 00
        E 21 90 26 48
        E 187 80 26 00
        E 57 90 32 3e
        E 212 80 32 00
        E 38 90 26 47
        E 173 80 26 00
        E 61 90 32 3f
        E 223 80 32 00
        E 23 90 26 47
        E 174 80 26 00
        E 52 90 32 3a
        E 222 80 32 00
        E 19 90 26 48
        E 195 80 26 00
        E 41 90 32 3f
        E 192 80 32 00
        E 36 90 26 47
        E 173 80 26 00
        E 66 90 32 3a
        E 210 80 32 00
        E 35 90 26 47
        E 166 80 26 00
        E 84 90 32 38
        E 185 80 32 00
        E 41 90 26 49
        E 145 80 26 00
        E 100 90 32 37
        E 178 80 32 00
        E 44 90 26 47
        E 172 80 26 00
        E 85 90 32 3b
        E 163 80 32 00
        E 65 90 26 44
        E 171 80 26 00
        E 68 90 32 38
        E 200 80 32 00
        E 48 90 26 44
        E 178 80 26 00
        E 77 90 32 3a
        E 194 80 32 00
        E 43 90 26 47
        E 171 80 26 00
        E 75 90 32 39
        E 165 80 32 00
        E 62 90 26 45
        E 167 80 26 00
        E 74 90 32 3c
        E 198 80 32 00
        E 43 90 26 49
        E 181 80 26 00
        E 56 90 32 41
        E 206 80 32 00
        E 38 90 26 49
        E 174 80 26 00
        E 73 90 32 3f
        E 204 80 32 00
        E 26 90 26 45
        E 169 80 26 00
        E 62 90 32 3a
        E 208 80 32 00
        E 39 90 26 48
        E 179 80 26 00
        E 65 90 32 39
        E 212 80 32 00
        E 30 90 26 48
        E 173 80 26 00
        E 55 90 32 38
        E 225 80 32 00
        E 25 90 26 44
        E 172 80 26 00
        E 66 90 32 39
        E 219 80 32 00
        E 19 90 26 47
        E 166 80 26 00
        E 64 90 32 3b
        E 215 80 32 00
        E 27 90 26 48
        E 164 80 26 00
        E 81 90 32 3b
        E 209 80 32 00
        E 28 90 26 4a
        E 184 80 26 00
        E 56 90 32 3b
        E 178 80 32 00
        E 50 90 26 4b
        E 203 80 26 00
        E 55 90 32 3f
        E 192 80 32 00
        E 29 90 26 4a
        E 187 80 26 00
        E 53 90 32 43
        E 233 80 32 00
        E 10 90 26 46
        E 196 80 26 00
        E 57 90 32 43
        E 211 80 32 00
        E 26 90 26 46
        E 176 80 26 00
        E 63 90 32 41
        E 214 80 32 00
        E 22 90 26 45
        E 186 80 26 00
        E 63 90 32 38
        E 207 80 32 00
        E 29 90 26 44
        E 161 80 26 00
        E 50 90 32 3c
        E 221 80 32 00
        E 38 90 26 44
        E 166 80 26 00
        E 69 90 32 3d
        E 214 80 32 00
        E 28 90 26 45
        E 162 80 26 00
        E 76 90 32 3e
        E 218 80 32 00
        E 25 90 26 45
        E 175 80 26 00
        E 75 90 32 42
        E 205 80 32 00
        E 20 90 26 46
        E 199 80 26 00
        E 47 90 32 3e
        E 202 80 32 00
        E 36 90 26 44
        E 189 80 26 00
        E 57 90 32 3b
        E 207 80 32 00
        E 31 90 26 45
        E 186 80 26 00
        E 56 90 32 3b
        E 228 80 32 00
        E 20 90 26 44
        E 192 80 26 00
        E 68 90 32 41
        E 212 80 32 00
        E 32 90 26 3f
        E 180 80 26 00
        E 64 90 32 40
        E 223 80 32 00
        E 13 90 26 41
        E 206 80 26 00
        E 48 90 32 42
        E 214 80 32 00
        E 8 90 26 46
        E 198 80 26 00
        E 45 90 32 41
        E 227 80 32 00
        E 21 90 26 45
        E 172 80 26 00
        E 65 90 32 40
        E 216 80 32 00
        E 17 90 26 45
        E 192 80 26 00
        E 42 90 32 3f
        E 218 80 32 00
        E 18 90 26 45
        E 178 80 26 00
        E 66 90 32 3e
        E 211 80 32 00
        E 21 90 26 45
        E 180 80 26 00
        E 55 90 32 3e
        E 214 80 32 00
        E 19 90 26 45
        E 184 80 26 00
        E 37 90 32 3d
        E 221 80 32 00
        E 32 90 26 46
        E 201 80 26 00
        E 41 90 32 41
        E 212 80 32 00
        E 17 90 26 43
        E 206 80 26 00
        E 59 90 32 3b
        E 197 80 32 00
        E 16 90 26 46
        E 198 80 26 00
        E 56 90 32 3f
        E 211 80 32 00
        E 20 90 26 46
        E 202 80 26 00
        E 53 90 32 3f
        E 187 80 32 00
        E 32 90 26 43
        E 178 80 26 00
        E 64 90 32 38
        E 186 80 32 00
        E 33 90 26 46
        E 175 80 26 00
        E 86 90 32 3c
        E 157 80 32 00
        E 55 90 26 43
        E 190 80 26 00
        E 83 90 32 39
        E 213 80 32 00
        E 29 90 26 46
        E 168 80 26 00
        E 96 90 32 3d
        E 213 80 32 00
        E 30 90 26 46
        E 180 80 26 00
        E 70 90 32 3c
        E 207 80 32 00
        E 33 90 26 45
        E 190 80 26 00
        E 59 90 32 3f
        E 216 80 32 00
        E 35 90 26 46
        E 159 80 26 00
        E 73 90 32 38
        E 219 80 32 00
        E 22 90 26 47
        E 174 80 26 00
        E 73 90 32 42
        E 201 80 32 00
        E 26 90 26 46
        E 175 80 26 00
        E 62 90 32 3b
        E 216 80 32 00
        E 16 90 26 44
        E 193 80 26 00
        E 52 90 32 3d
        E 207 80 32 00
        E 33 90 26 44
        E 179 80 26 00
        E 61 90 32 3b
        E 226 80 32 00
        E 10 90 26 46
        E 179 80 26 00
        E 74 90 32 3d
        E 190 80 32 00
        E 32 90 26 46
        E 167 80 26 00
        E 72 90 32 3f
        E 220 80 32 00
        E 24 90 26 45
        E 179 80 26 00
        E 68 90 32 44
        E 212 80 32 00
        E 20 90 26 45
        E 177 80 26 00
        E 63 90 32 3e
        E 209 80 32 00
        E 26 90 26 43
        E 177 80 26 00
        E 67 90 32 3f
        E 188 80 32 00
        E 39 90 26 45
        E 197 80 26 00
        E 51 90 32 3b
        E 206 80 32 00
        E 23 90 26 47
        E 194 80 26 00
        E 61 90 32 3e
        E 191 80 32 00
        E 34 90 26 44
        E 198 80 26 00
        E 50 90 32 3f
        E 186 80 32 00
        E 35 90 26 42
        E 186 80 26 00
        E 72 90 32 3e
        E 199 80 32 00
        E 34 90 26 45
        E 178 80 26 00
        E 86 90 32 41
        E 193 80 32 00
        E 29 90 26 47
        E 192 80 26 00
        E 68 90 32 3d
        E 189 80 32 00
        E 28 90 26 46
        E 195 80 26 00
        E 62 90 32 3a
        E 188 80 32 00
        E 32 90 26 45
        E 196 80 26 00
        E 57 90 32 41
        E 187 80 32 00
        E 34 90 26 45
        E 200 80 26 00
        E 52 90 32 3f
        E 224 80 32 00
        E 18 90 26 46
        E 175 80 26 00
        E 75 90 32 41
        E 204 80 32 00
        E 17 90 26 44
        E 193 80 26 00
        E 52 90 32 41
        E 225 80 32 00
        E 15 90 26 46
        E 173 80 26 00
        E 78 90 32 42
        E 213 80 32 00
        E 20 90 26 45
        E 191 80 26 00
        E 66 90 32 40
        E 184 80 32 00
        E 43 90 26 41
        E 193 80 26 00
        E 56 90 32 3f
        E 198 80 32 00
        E 27 90 26 45
        E 161 80 26 00
        E 84 90 32 40
        E 209 80 32 00
        E 26 90 26 42
        E 166 80 26 00
        E 73 90 32 3e
        E 208 80 32 00
        E 21 90 26 48
        E 148 80 26 00
        E 97 90 32 3f
        E 233 80 32 00
        E 18 90 26 45
        E 162 80 26 00
        E 66 90 32 41
        E 215 80 32 00
        E 28 90 26 46
        E 171 80 26 00
        E 85 90 32 39
        E 214 80 32 00
        E 12 90 26 43
        E 174 80 26 00
        E 73 90 32 43
        E 196 80 32 00
        E 40 90 26 44
        E 182 80 26 00
        E 67 90 32 3e
        E 198 80 32 00
        E 24 90 26 47
        E 166 80 26 00
        E 91 90 32 3f
        E 181 80 32 00
        E 42 90 26 47
        E 178 80 26 00
        E 67 90 32 3c
        E 220 80 32 00
        E 16 90 26 47
        E 157 80 26 00
        E 97 90 32 3f
        E 199 80 32 00
        E 36 90 26 45
        E 177 80 26 00
        E 69 90 32 3c
        E 203 80 32 00
        E 34 90 26 40
        E 170 80 26 00
        E 71 90 32 42
        E 177 80 32 00
        E 47 90 26 43
        E 166 80 26 00
        E 70 90 32 3f
        E 213 80 32 00
        E 22 90 26 44
        E 170 80 26 00
        E 70 90 32 41
        E 203 80 32 00
        E 34 90 26 45
        E 173 80 26 00
        E 76 90 32 40
        E 218 80 32 00
        E 27 90 26 40
        E 191 80 26 00
        E 52 90 32 40
        E 213 80 32 00
        E 17 90 26 46
        E 161 80 26 00
        E 79 90 32 3f
        E 215 80 32 00
        E 23 90 26 46
        E 184 80 26 00
        E 63 90 32 42
        E 202 80 32 00
        E 32 90 26 45
        E 162 80 26 00
        E 76 90 32 3f
        E 217 80 32 00
        E 24 90 26 43
        E 168 80 26 00
        E 59 90 32 42
        E 187 80 32 00
        E 40 90 26 41
        E 181 80 26 00
        E 45 90 32 3f
        E 221 80 32 00
        E 35 90 26 47
        E 152 80 26 00
        E 94 90 32 41
        E 175 80 32 00
        E 47 90 26 42
        E 191 80 26 00
        E 59 90 32 3b
        E 230 80 32 00
        E 21 90 26 46
        E 166 80 26 00
        E 71 90 32 44
        E 218 80 32 00
        E 32 90 26 45
        E 195 80 26 00
        E 62 90 32 44
        E 216 80 32 00
        E 22 90 26 45
        E 189 80 26 00
        E 60 90 32 41
        E 226 80 32 00
        E 22 90 26 46
        E 175 80 26 00
        E 73 90 32 41
        E 222 80 32 00
        E 19 90 26 45
        E 176 80 26 00
        E 60 90 32 42
        E 207 80 32 00
        E 26 90 26 42
        E 174 80 26 00
        E 66 90 32 3e
        E 213 80 32 00
        E 10 90 26 44
        E 197 80 26 00
        E 49 90 32 41
        E 219 80 32 00
        E 15 90 26 4a
        E 153 80 26 00
        E 90 90 32 42
        E 213 80 32 00
        E 20 90 26 49
        E 162 80 26 00
        E 80 90 32 44
        E 231 80 32 00
        E 12 90 26 47
        E 143 80 26 00
        E 94 90 32 41
        E 242 80 32 00
        E 17 90 26 43
        E 176 80 26 00
        E 63 90 32 41
        E 203 80 32 00
        E 31 90 26 44
        E 187 80 26 00
        E 54 90 32 43
        E 233 80 32 00
        E 10 90 26 44
        E 190 80 26 00
        E 52 90 32 43
        E 215 80 32 00
        E 21 90 26 46
        E 192 80 26 00
        E 42 90 32 38
        E 202 80 32 00
        E 35 90 26 47
        E 200 80 26 00
        E 55 90 32 45
        E 176 80 32 00
        E 47 90 26 44
        E 165 80 26 00
        E 69 90 32 41
        E 196 80 32 00
        E 41 90 26 45
        E 197 80 26 00
        E 67 90 32 41
        E 193 80 32 00
        E 40 90 26 47
        E 183 80 26 00
        E 70 90 32 41
        E 212 80 32 00
        E 25 90 26 49
        E 171 80 26 00
        E 77 90 32 46
        E 204 80 32 00
        E 28 90 26 44
        E 203 80 26 00
        E 46 90 32 43
        E 202 80 32 00
        E 32 90 26 40
        E 188 80 26 00
        E 51 90 32 44
        E 216 80 32 00
        E 15 90 26 48
        E 182 80 26 00
        E 80 90 32 41
        E 194 80 32 00
        E 19 90 26 46
        E 201 80 26 00
        E 54 90 32 44
        E 197 80 32 00
        E 29 90 26 46
        E 189 80 26 00
        E 49 90 32 41
        E 224 80 32 00
        E 15 90 26 44
        E 181 80 26 00
        E 59 90 32 44
        E 219 80 32 00
        E 21 90 26 49
        E 198 80 26 00
        E 53 90 32 45
        E 209 80 32 00
        E 19 90 26 46
        E 176 80 26 00
        E 70 90 32 41
        E 209 80 32 00
        E 19 90 26 45
        E 181 80 26 00
        E 49 90 32 44
        E 230 80 32 00
        E 25 90 26 43
        E 158 80 26 00
        E 72 90 32 42
        E 221 80 32 00
        E 26 90 26 48
        E 154 80 26 00
        E 96 90 32 40
        E 217 80 32 00
        E 16 90 26 44
        E 186 80 26 00
        E 66 90 32 42
        E 189 80 32 00
        E 42 90 26 48
        E 174 80 26 00
        E 70 90 32 40
        E 219 80 32 00
        E 13 90 26 42
        E 195 80 26 00
        E 44 90 32 44
        E 225 80 32 00
        E 17 90 26 43
        E 186 80 26 00
        E 62 90 32 44
        E 228 80 32 00
        E 16 90 26 44
        E 181 80 26 00
        E 74 90 32 44
        E 208 80 32 00
        E 21 90 26 45
        E 158 80 26 00
        E 79 90 32 42
        E 237 80 32 00
        E 5 90 26 43
        E 175 80 26 00
        E 65 90 32 46
        E 228 80 32 00
        E 17 90 26 47
        E 182 80 26 00
        E 63 90 32 44
        E 230 80 32 00
        E 14 90 26 44
        E 163 80 26 00
        E 79 90 32 43
        E 227 80 32 00
        E 16 90 26 46
        E 179 80 26 00
        E 39 90 32 45
        E 232 80 32 00
        E 7 90 26 45
        E 165 80 26 00
        E 83 90 32 44
        E 215 80 32 00
        E 29 90 26 46
        E 182 80 26 00
        E 49 90 32 42
        E 227 80 32 00
        E 19 90 26 45
        E 168 80 26 00
        E 78 90 32 41
        E 207 80 32 00
        E 24 90 26 46
        E 192 80 26 00
        E 53 90 32 40
        E 234 80 32 00
        E 10 90 26 44
        E 183 80 26 00
        E 55 90 32 43
        E 225 80 32 00
        E 18 90 26 44
        E 182 80 26 00
        E 62 90 32 42
        E 233 80 32 00
        E 4 90 26 46
        E 155 80 26 00
        E 73 90 32 43
        E 231 80 32 00
        E 22 90 26 46
        E 195 80 26 00
        E 47 90 32 41
        E 227 80 32 00
        E 5 90 26 49
        E 160 80 26 00
        E 85 90 32 42
        E 220 80 32 00
        E 16 90 26 43
        E 182 80 26 00
        E 61 90 32 3e
        E 247 80 32 00
        E 15 90 26 44
        E 179 80 26 00
        E 51 90 32 43
        E 224 80 32 00
        E 17 90 26 45
        E 181 80 26 00
        E 42 90 32 41
        E 248 80 32 00
        E 7 90 26 45
        E 186 80 26 00
        E 43 90 32 44
        E 242 80 32 00
        E 4 90 26 46
        E 165 80 26 00
        E 53 90 32 45
        E 241 80 32 00
        E 8 90 26 46
        E 169 80 26 00
        E 69 90 32 42
        E 227 80 32 00
        E 18 90 26 48
        E 181 80 26 00
        E 42 90 32 42
        E 239 80 32 00
        E 7 90 26 44
        E 184 80 26 00
        E 53 90 32 46
        E 227 80 32 00
        E 16 90 26 48
        E 182 80 26 00
        E 46 90 32 44
        E 236 80 32 00
        E 8 90 26 47
        E 175 80 26 00
        E 58 90 32 42
        E 231 80 32 00
        E 21 90 26 49
        E 160 80 26 00
        E 74 90 32 44
        E 247 80 32 00
        E 5 90 26 45
        E 181 80 26 00
        E 40 90 32 43
        E 231 80 32 00
        E 15 90 26 45
        E 187 80 26 00
        E 49 90 32 42
        E 237 80 32 00
        E 13 90 26 47
        E 186 80 26 00
        E 50 90 32 42
        E 231 80 32 00
        E 13 90 26 47
        E 176 80 26 00
        E 55 90 32 44
        E 234 80 32 00
        E 13 90 26 46
        E 159 80 26 00
        E 66 90 32 42
        E 238 80 32 00
        E 14 90 26 48
        E 192 80 26 00
        E 50 90 32 42
        E 222 80 32 00
        E 10 90 26 46
        E 185 80 26 00
        E 52 90 32 45
        E 233 80 32 00
        E 10 90 26 47
        E 181 80 26 00
        E 52 90 32 40
        E 236 80 32 00
        E 15 90 26 48
        E 190 80 26 00
        E 55 90 32 40
        E 247 80 32 00
        E 7 90 26 47
        E 142 80 26 00
        E 84 90 32 3d
        E 231 80 32 00
        E 5 90 26 48
        E 156 80 26 00
        E 78 90 32 41
        E 223 80 32 00
        E 20 90 26 45
        E 173 80 26 00
        E 58 90 32 3f
        E 240 80 32 00
        E 9 90 26 45
        E 183 80 26 00
        E 61 90 32 3e
        E 210 80 32 00
        E 26 90 26 45
        E 190 80 26 00
        E 46 90 32 42
        E 226 80 32 00
        E 24 90 26 47
        E 167 80 26 00
        E 83 90 32 43
        E 215 80 32 00
        E 21 90 26 46
        E 179 80 26 00
        E 69 90 32 3e
        E 211 80 32 00
        E 21 90 26 46
        E 172 80 26 00
        E 65 90 32 45
        E 234 80 32 00
        E 23 90 26 45
        E 188 80 26 00
        E 60 90 32 43
        E 219 80 32 00
        E 15 90 26 45
        E 200 80 26 00
        E 54 90 32 40
        E 223 80 32 00
        E 13 90 26 46
        E 186 80 26 00
        E 39 90 32 43
        E 235 80 32 00
        E 8 90 26 46
        E 205 80 26 00
        E 53 90 32 3f
        E 211 80 32 00
        E 14 90 26 45
        E 168 80 26 00
        E 54 90 32 40
        E 230 80 32 00
        E 6 90 26 47
        E 177 80 26 00
        E 61 90 32 44
        E 231 80 32 00
        E 24 90 26 47
        E 168 80 26 00
        E 78 90 32 43
        E 224 80 32 00
        E 16 90 26 44
        E 174 80 26 00
        E 65 90 32 45
        E 232 80 32 00
        E 13 90 26 48
        E 146 80 26 00
        E 94 90 32 42
        E 223 80 32 00
        E 13 90 26 46
        E 168 80 26 00
        E 85 90 32 45
        E 220 80 32 00
        E 18 90 26 46
        E 154 80 26 00
        E 80 90 32 44
        E 231 80 32 00
        E 15 90 26 46
        E 168 80 26 00
        E 61 90 32 44
        E 220 80 32 00
        E 21 90 26 43
        E 162 80 26 00
        E 64 90 32 45
        E 237 80 32 00
        E 6 90 26 46
        E 183 80 26 00
        E 64 90 32 44
        E 233 80 32 00
        E 13 90 26 47
        E 185 80 26 00
        E 59 90 32 46
        E 228 80 32 00
        E 6 90 26 48
        E 149 80 26 00
        E 100 90 32 42
        E 205 80 32 00
        E 25 90 26 47
        E 188 80 26 00
        E 64 90 32 3f
        E 225 80 32 00
        E 19 90 26 46
        E 161 80 26 00
        E 70 90 32 45
        E 233 80 32 00
        E 12 90 26 46
        E 164 80 26 00
        E 73 90 32 41
        E 227 80 32 00
        E 27 90 26 45
        E 153 80 26 00
        E 58 90 32 40
        E 231 80 32 00
        E 18 90 26 49
        E 153 80 26 00
        E 72 90 32 42
        E 246 80 32 00
        E 11 90 26 44
        E 174 80 26 00
        E 67 90 32 42
        E 211 80 32 00
        E 25 90 26 45
        E 184 80 26 00
        E 40 90 32 3f
        E 233 80 32 00
        E 9 90 26 46
        E 184 80 26 00
        E 59 90 32 44
        E 229 80 32 00
        E 18 90 26 47
        E 152 80 26 00
        E 73 90 32 42
        E 227 80 32 00
        E 22 90 26 45
        E 174 80 26 00
        E 56 90 32 43
        E 239 80 32 00
        E 23 90 26 48
        E 180 80 26 00
        E 53 90 32 44
        E 238 80 32 00
        E 20 90 26 47
        E 155 80 26 00
        E 87 90 32 43
        E 233 80 32 00
        E 17 90 26 47
        E 163 80 26 00
        E 56 90 32 41
        E 244 80 32 00
        E 6 90 26 40
        E 185 80 26 00
        E 53 90 32 44
        E 221 80 32 00
        E 12 90 26 46
        E 164 80 26 00
        E 69 90 32 43
        E 232 80 32 00
        E 8 90 26 44
        E 190 80 26 00
        E 57 90 32 45
        E 207 80 32 00
        E 21 90 26 44
        E 197 80 26 00
        E 49 90 32 42
        E 234 80 32 00
        E 2 90 26 42
        E 180 80 26 00
        E 46 90 32 44
        E 228 80 32 00
        E 15 90 26 44
        E 176 80 26 00
        E 53 90 32 42
        E 234 80 32 00
        E 11 90 26 43
        E 188 80 26 00
        E 45 90 32 47
        E 232 80 32 00
        E 18 90 26 44
        E 183 80 26 00
        E 43 90 32 45
        E 247 90 26 46
        E 5 80 32 00
        E 189 80 26 00
        E 71 90 32 46
        E 212 80 32 00
        E 15 90 26 46
        E 193 80 26 00
        E 54 90 32 44
        E 215 80 32 00
        E 15 90 26 45
        E 192 80 26 00
        E 42 90 32 43
        E 233 80 32 00
        E 5 90 26 45
        E 201 80 26 00
        E 42 90 32 42
        E 233 80 32 00
        E 5 90 26 43
        E 164 80 26 00
        E 61 90 32 42
        E 222 80 32 00
        E 18 90 26 45
        E 184 80 26 00
        E 49 90 32 45
        E 218 80 32 00
        E 18 90 26 43
        E 163 80 26 00
        E 81 90 32 44
        E 232 80 32 00
        E 17 90 26 48
        E 202 80 26 00
        E 54 90 32 42
        E 239 80 32 00
        E 4 90 26 45
        E 183 80 26 00
        E 65 90 32 43
        E 207 80 32 00
        E 26 90 26 46
        E 203 80 26 00
        E 50 90 32 44
        E 223 80 32 00
        E 16 90 26 47
        E 188 80 26 00
        E 54 90 32 41
        E 218 80 32 00
        E 15 90 26 46
        E 190 80 26 00
        E 50 90 32 43
        E 219 80 32 00
        E 30 90 26 45
        E 182 80 26 00
        E 55 90 32 43
        E 225 80 32 00
        E 15 90 26 46
        E 160 80 26 00
        E 58 90 32 44
        E 232 80 32 00
        E 13 90 26 47
        E 183 80 26 00
        E 59 90 32 42
        E 226 80 32 00
        E 17 90 26 48
        E 197 80 26 00
        E 49 90 32 42
        E 208 80 32 00
        E 18 90 26 47
        E 203 80 26 00
        E 48 90 32 44
        E 218 80 32 00
        E 23 90 26 46
        E 178 80 26 00
        E 59 90 32 44
        E 221 80 32 00
        E 19 90 26 45
        E 188 80 26 00
        E 51 90 32 41
        E 208 80 32 00
        E 21 90 26 45
        E 194 80 26 00
        E 43 90 32 42
        E 202 80 32 00
        E 23 90 26 46
        E 200 80 26 00
        E 39 90 32 3e
        E 225 80 32 00
        E 19 90 26 43
        E 208 80 26 00
        E 43 90 32 44
        E 191 80 32 00
        E 28 90 26 44
        E 193 80 26 00
        E 61 90 32 40
        E 219 80 32 00
        E 19 90 26 47
        E 187 80 26 00
        E 51 90 32 42
        E 237 80 32 00
        E 24 90 26 46
        E 191 80 26 00
        E 55 90 32 46
        E 195 80 32 00
        E 36 90 26 47
        E 203 80 26 00
        E 53 90 32 46
        E 203 80 32 00
        E 18 90 26 47
        E 210 80 26 00
        E 45 90 32 42
        E 218 80 32 00
        E 20 90 26 46
        E 199 80 26 00
        E 59 90 32 3c
        E 225 80 32 00
        E 14 90 26 42
        E 192 80 26 00
        E 37 90 32 45
        E 231 80 32 00
        E 16 90 26 46
        E 189 80 26 00
        E 41 90 32 43
        E 238 80 32 00
        E 18 90 26 47
        E 179 80 26 00
        E 61 90 32 47
        E 216 80 32 00
        E 25 90 26 49
        E 193 80 26 00
        E 35 90 32 42
        E 236 80 32 00
        E 10 90 26 47
        E 155 80 26 00
        E 84 90 32 43
        E 220 80 32 00
        E 11 90 26 49
        E 193 80 26 00
        E 40 90 32 45
        E 237 80 32 00
        E 11 90 26 49
        E 190 80 26 00
        E 54 90 32 43
        E 215 80 32 00
        E 25 90 26 4a
        E 196 80 26 00
        E 38 90 32 45
        E 224 80 32 00
        E 15 90 26 48
        E 183 80 26 00
        E 51 90 32 43
        E 217 80 32 00
        E 17 90 26 49
        E 169 80 26 00
        E 61 90 32 45
        E 229 80 32 00
        E 17 90 26 46
        E 182 80 26 00
        E 47 90 32 43
        E 220 80 32 00
        E 15 90 26 47
        E 195 80 26 00
        E 54 90 32 46
        E 214 80 32 00
        E 17 90 26 48
        E 169 80 26 00
        E 70 90 32 45
        E 216 80 32 00
        E 30 90 26 48
        E 153 80 26 00
        E 71 90 32 3c
        E 237 80 32 00
        E 11 90 26 49
        E 197 80 26 00
        E 50 90 32 45
        E 224 80 32 00
        E 30 90 26 48
        E 173 80 26 00
        E 69 90 32 43
        E 216 80 32 00
        E 21 90 26 47
        E 179 80 26 00
        E 57 90 32 43
        E 228 80 32 00
        E 24 90 26 49
        E 190 80 26 00
        E 59 90 32 46
        E 213 80 32 00
        E 25 90 26 49
        E 175 80 26 00
        E 75 90 32 45
        E 220 80 32 00
        E 24 90 26 49
        E 194 80 26 00
        E 51 90 32 47
        E 227 80 32 00
        E 15 90 26 48
        E 156 80 26 00
        E 75 90 32 46
        E 235 80 32 00
        E 18 90 26 48
        E 172 80 26 00
        E 53 90 32 47
        E 234 80 32 00
        E 18 90 26 45
        E 163 80 26 00
        E 67 90 32 45
        E 218 80 32 00
        E 14 90 26 48
        E 177 80 26 00
        E 52 90 32 44
        E 224 80 32 00
        E 9 90 26 46
        E 195 80 26 00
        E 50 90 32 47
        E 200 80 32 00
        E 26 90 26 47
        E 183 80 26 00
        E 59 90 32 42
        E 219 80 32 00
        E 26 90 26 46
        E 156 80 26 00
        E 75 90 32 44
        E 216 80 32 00
        E 36 90 26 45
        E 170 80 26 00
        E 50 90 32 45
        E 237 80 32 00
        E 14 90 26 44
        E 180 80 26 00
        E 66 90 32 47
        E 219 80 32 00
        E 15 90 26 4a
        E 176 80 26 00
        E 61 90 32 44
        E 236 80 32 00
        E 21 90 26 42
        E 186 80 26 00
        E 50 90 32 45
        E 227 80 32 00
        E 21 90 26 45
        E 183 80 26 00
        E 57 90 32 43
        E 222 80 32 00
        E 16 90 26 46
        E 166 80 26 00
        E 63 90 32 44
        E 226 80 32 00
        E 24 90 26 47
        E 197 80 26 00
        E 49 90 32 43
        E 234 80 32 00
        E 13 90 26 46
        E 197 80 26 00
        E 32 90 32 45
        E 240 80 32 00
        E 16 90 26 46
        E 179 80 26 00
        E 50 90 32 44
        E 230 80 32 00
        E 8 90 26 46
        E 196 80 26 00
        E 56 90 32 44
        E 217 80 32 00
        E 21 90 26 48
        E 186 80 26 00
        E 42 90 32 44
        E 235 80 32 00
        E 19 90 26 46
        E 156 80 26 00
        E 73 90 32 43
        E 232 80 32 00
        E 12 90 26 49
        E 187 80 26 00
        E 45 90 32 46
        E 224 80 32 00
        E 20 90 26 47
        E 188 80 26 00
        E 49 90 32 45
        E 219 80 32 00
        E 25 90 26 45
        E 167 80 26 00
        E 67 90 32 44
        E 236 80 32 00
        E 17 90 26 45
        E 169 80 26 00
        E 68 90 32 45
        E 213 80 32 00
        E 26 90 26 45
        E 184 80 26 00
        E 53 90 32 42
        E 219 80 32 00
        E 16 90 26 46
        E 196 80 26 00
        E 42 90 32 43
        E 216 80 32 00
        E 17 90 26 4a
        E 170 80 26 00
        E 67 90 32 41
        E 215 80 32 00
        E 12 90 26 46
        E 200 80 26 00
        E 49 90 32 44
        E 185 80 32 00
        E 37 90 26 47
        E 203 80 26 00
        E 55 90 32 42
        E 231 80 32 00
        E 14 90 26 45
        E 198 80 26 00
        E 47 90 32 43
        E 217 80 32 00
        E 21 90 26 46
        E 192 80 26 00
        E 55 90 32 41
        E 215 80 32 00
        E 19 90 26 44
        E 160 80 26 00
        E 86 90 32 43
        E 185 80 32 00
        E 56 90 26 49
        E 191 80 26 00
        E 51 90 32 45
        E 201 80 32 00
        E 33 90 26 45
        E 194 80 26 00
        E 36 90 32 47
        E 210 80 32 00
        E 28 90 26 47
        E 190 80 26 00
        E 62 90 32 45
        E 210 80 32 00
        E 15 90 26 47
        E 191 80 26 00
        E 66 90 32 46
        E 188 80 32 00
        E 35 90 26 45
        E 207 80 26 00
        E 47 90 32 44
        E 222 80 32 00
        E 7 90 26 45
        E 200 80 26 00
        E 44 90 32 47
        E 228 80 32 00
        E 22 90 26 47
        E 196 80 26 00
        E 41 90 32 43
        E 247 80 32 00
        E 11 90 26 45
        E 155 80 26 00
        E 73 90 32 45
        E 229 80 32 00
        E 15 90 26 46
        E 176 80 26 00
        E 37 90 32 41
        E 254 80 32 00
        E 10 90 26 45
        E 172 80 26 00
        E 51 90 32 45
        E 219 80 32 00
        E 24 90 26 46
        E 200 80 26 00
        E 44 90 32 45
        E 216 80 32 00
        E 18 90 26 45
        E 200 80 26 00
        E 40 90 32 42
        E 215 80 32 00
        E 17 90 26 47
        E 186 80 26 00
        E 58 90 32 42
        E 206 80 32 00
        E 23 90 26 48
        E 192 80 26 00
        E 49 90 32 44
        E 231 80 32 00
        E 4 90 26 49
        E 200 80 26 00
        E 63 90 32 45
        E 224 80 32 00
        E 16 90 26 49
        E 183 80 26 00
        E 60 90 32 44
        E 237 80 32 00
        E 12 90 26 46
        E 182 80 26 00
        E 53 90 32 44
        E 237 80 32 00
        E 20 90 26 45
        E 148 80 26 00
        E 79 90 32 45
        E 238 80 32 00
        E 18 90 26 46
        E 172 80 26 00
        E 48 90 32 43
        E 247 80 32 00
        E 1 90 26 47
        E 169 80 26 00
        E 44 90 32 45
        E 248 80 32 00
        E 22 90 26 4a
        E 150 80 26 00
        E 76 90 32 44
        E 234 80 32 00
        E 4 90 26 48
        E 214 80 26 00
        E 44 90 32 47
        E 215 80 32 00
        E 13 90 26 48
        E 186 80 26 00
        E 47 90 32 42
        E 235 80 32 00
        E 11 90 26 45
        E 166 80 26 00
        E 67 90 32 3e
        E 218 80 32 00
        E 14 90 26 48
        E 184 80 26 00
        E 46 90 32 42
        E 238 80 32 00
        E 13 90 26 46
        E 184 80 26 00
        E 72 90 32 44
        E 220 80 32 00
        E 17 90 26 49
        E 168 80 26 00
        E 65 90 32 41
        E 255 80 32 00
        E 3 90 26 48
        E 184 80 26 00
        E 45 90 32 45
        E 239 80 32 00
        E 15 90 26 4a
        E 176 80 26 00
        E 66 90 32 41
        E 218 80 32 00
        E 18 90 26 48
        E 167 80 26 00
        E 66 90 32 3f
        E 232 80 32 00
        E 13 90 26 47
        E 166 80 26 00
        E 55 90 32 47
        E 239 80 32 00
        E 10 90 26 46
        E 176 80 26 00
        E 66 90 32 46
        E 226 80 32 00
        E 11 90 26 48
        E 189 80 26 00
        E 54 90 32 40
        E 238 90 26 47
        E 1 80 32 00
        E 195 80 26 00
        E 53 90 32 44
        E 210 80 32 00
        E 23 90 26 46
        E 184 80 26 00
        E 59 90 32 42
        E 234 80 32 00
        E 7 90 26 46
        E 198 80 26 00
        E 44 90 32 47
        E 237 80 32 00
        E 10 90 26 47
        E 190 80 26 00
        E 34 90 32 47
        E 242 80 32 00
        E 4 90 26 45
        E 211 80 26 00
        E 36 90 32 45
        E 226 90 26 49
        E 5 80 32 00
        E 202 80 26 00
        E 32 90 32 43
        E 248 90 26 47
        E 1 80 32 00
        E 178 80 26 00
        E 64 90 32 46
        E 230 80 32 00
        E 16 90 26 48
        E 193 80 26 00
        E 25 90 32 45
        E 258 80 32 00
        E 5 90 26 48
        E 210 80 26 00
        E 37 90 32 43
        E 230 90 26 49
        E 2 80 32 00
        E 181 80 26 00
        E 51 90 32 3e
        E 248 90 26 49
        E 1 80 32 00
        E 208 80 26 00
        E 23 90 32 3f
        E 218 80 32 00
        E 5 90 26 48
        E 200 80 26 00
        E 42 90 32 44
        E 237 80 32 00
        E 1 90 26 48
        E 192 80 26 00
        E 52 90 32 44
        E 221 80 32 00
        E 12 90 26 4a
        E 185 80 26 00
        E 40 90 32 44
        E 236 80 32 00
        E 24 90 26 49
        E 217 80 26 00
        E 32 90 32 47
        E 214 80 32 00
        E 29 90 26 4c
        E 195 80 26 00
        E 43 90 32 42
        E 216 80 32 00
        E 23 90 26 48
        E 196 80 26 00
        E 43 90 32 46
        E 226 80 32 00
        E 19 90 1a 01
        E 196 80 1a 00
        E 273 90 1a 01
        E 203 80 1a 00
        E 281 90 1a 02
        E 193 80 1a 00
        E 296 90 1a 03
        E 198 80 1a 00
        E 287 90 1a 04
        E 184 80 1a 00
        E 293 90 1a 04
        E 184 80 1a 00
        E 294 90 1a 05
        E 195 80 1a 00
        E 291 90 1a 06
        E 200 80 1a 00
        E 285 90 1a 06
        E 192 80 1a 00
        E 296 90 1a 07
        E 198 80 1a 00
        E 288 90 1a 08
        E 204 80 1a 00
        E 269 90 1a 09
        E 187 80 1a 00
        E 293 90 1a 0a
        E 192 80 1a 00
        E 296 90 1a 0b
        E 191 80 1a 00
        E 293 90 1a 0d
        E 187 80 1a 00
        E 280 90 1a 0e
        E 189 80 1a 00
        E 292 90 1a 10
        E 193 80 1a 00
        E 288 90 1a 10
        E 192 80 1a 00
        E 303 90 1a 12
        E 181 80 1a 00
        E 285 90 1a 14
        E 205 80 1a 00
        E 271 90 1a 16
        E 200 80 1a 00
        E 286 90 1a 18
        E 180 80 1a 00
        E 294 90 1a 19
        E 190 80 1a 00
        E 282 90 1a 1b
        E 179 80 1a 00
        E 304 90 1a 1c
        E 192 80 1a 00
        E 279 90 1a 1e
        E 194 80 1a 00
        E 286 90 1a 20
        E 181 80 1a 00
        E 286 90 1a 20
        E 186 80 1a 00
        E 292 90 1a 23
        E 184 80 1a 00
        E 294 90 1a 25
        E 189 80 1a 00
        E 294 90 1a 26
        E 197 80 1a 00
        E 286 90 1a 27
        E 199 80 1a 00
        E 286 90 1a 29
        E 189 80 1a 00
        E 259 90 1a 2a
        E 200 80 1a 00
        E 286 90 1a 2a
        E 208 80 1a 00
        E 274 90 1a 2c
        E 203 80 1a 00
        E 291 90 1a 2d
        E 212 80 1a 00
        E 272 90 1a 2e
        E 198 80 1a 00
        E 275 90 1a 2f
        E 201 80 1a 00
        E 294 90 1a 31
        E 187 80 1a 00
        E 283 90 1a 32
        E 201 80 1a 00
        E 305 90 1a 34
        E 166 80 1a 00
        E 327 90 1a 35
        E 177 80 1a 00
        E 312 90 1a 37
        E 172 80 1a 00
        E 301 90 1a 39
        E 213 80 1a 00
        E 284 90 1a 3b
        E 174 80 1a 00
        E 306 90 1a 3d
        E 188 80 1a 00
        E 294 90 1a 3f
        E 187 80 1a 00
        E 282 90 1a 40
        E 183 80 1a 00
        E 282 90 1a 42
        E 197 80 1a 00
        E 284 90 1a 43
        E 196 80 1a 00
        E 284 90 1a 44
        E 198 80 1a 00
        E 278 90 1a 45
        E 189 80 1a 00
        E 298 90 1a 46
        E 173 80 1a 00
        E 296 90 1a 47
        E 207 80 1a 00
        E 271 90 1a 47
        E 164 80 1a 00
        E 308 90 1a 46
        E 194 80 1a 00
        E 291 90 1a 45
        E 165 80 1a 00
        E 302 90 1a 47
        E 185 80 1a 00
        E 285 90 1a 47
        E 201 80 1a 00
        E 281 90 1a 47
        E 198 80 1a 00
        E 284 90 1a 45
        E 203 80 1a 00
        E 279 90 1a 46
        E 199 80 1a 00
        E 275 90 1a 47
        E 217 80 1a 00
        E 267 90 1a 48
        E 220 80 1a 00
        E 264 90 1a 46
        E 195 80 1a 00
        E 296 90 1a 47
        E 193 80 1a 00
        E 288 90 1a 49
        E 199 80 1a 00
        E 284 90 1a 49
        E 199 80 1a 00
        E 258 90 1a 49
        E 201 80 1a 00
        E 284 90 1a 4a
        E 206 80 1a 00
        E 269 90 1a 48
        E 198 80 1a 00
        E 283 90 1a 48
        E 197 80 1a 00
        E 275 90 1a 48
        E 186 80 1a 00
        E 301 90 1a 48
        E 211 80 1a 00
        E 275 90 1a 47
        E 206 80 1a 00
        E 279 90 1a 48
        E 213 80 1a 00
        E 273 90 1a 47
        E 194 80 1a 00
        E 275 90 1a 49
        E 200 80 1a 00
        E 276 90 1a 46
        E 193 80 1a 00
        E 290 90 1a 47
        E 202 80 1a 00
        E 280 90 1a 46
        E 188 80 1a 00
        E 281 90 1a 47
        E 187 80 1a 00
        E 289 90 1a 48
        E 181 80 1a 00
        E 309 90 1a 49
        E 189 80 1a 00
        E 286 90 1a 47
        E 191 80 1a 00
        E 306 90 1a 45
        E 182 80 1a 00
        E 288 90 1a 46
        E 200 80 1a 00
        E 287 90 1a 47
        E 198 80 1a 00
        E 288 90 1a 48
        E 192 80 1a 00
        E 300 90 1a 47
        E 189 80 1a 00
        E 280 90 1a 45
        E 187 80 1a 00
        E 299 90 1a 45
        E 210 80 1a 00
        E 271 90 1a 45
        E 197 80 1a 00
        E 278 90 1a 47
        E 186 80 1a 00
        E 304 90 1a 47
        E 203 80 1a 00
        E 278 90 1a 45
        E 195 80 1a 00
        E 271 90 1a 47
        E 202 80 1a 00
        E 281 90 1a 49
        E 179 80 1a 00
        E 285 90 1a 45
        E 182 80 1a 00
        E 293 90 1a 48
        E 193 80 1a 00
        E 303 90 1a 47
        E 193 80 1a 00
        E 282 90 1a 48
        E 179 80 1a 00
        E 288 90 1a 45
        E 186 80 1a 00
        E 291 90 1a 48
        E 181 80 1a 00
        E 312 90 1a 47
        E 176 80 1a 00
        E 306 90 1a 47
        E 193 80 1a 00
        E 287 90 1a 48
        E 186 80 1a 00
        E 294 90 1a 48
        E 181 80 1a 00
        E 299 90 1a 47
        E 201 80 1a 00
        E 289 90 1a 48
        E 205 80 1a 00
        E 286 90 1a 46
        E 181 80 1a 00
        E 296 90 1a 48
        E 183 80 1a 00
        E 293 90 1a 48
        E 210 80 1a 00
        E 263 90 1a 48
        E 206 80 1a 00
        E 279 90 1a 47
        E 218 80 1a 00
        E 251 90 1a 48
        E 204 80 1a 00
        E 284 90 1a 46
        E 187 80 1a 00
        E 297 90 1a 49
        E 93 80 1a 00
        E 8234 b0 7b 00
        CCINTERP 32
        CHASE_CC_TAKEOFFS 1
        GUID {AED6C8B0-0AE5-BD42-BEE3-274DF4214C4D}
        IGNTEMPO 0 120 4 4
        SRCCOLOR 86
        VELLANE -1 200 0
        VELLANE 64 100 0
        CFGEDITVIEW -1728.50996 0.027678 70 11 0 -1 0 0 0 0.5
        KEYSNAP 0
        TRACKSEL 0
        EVTFILTER 0 -1 -1 -1 -1 0 0 0 0 -1 -1 -1 -1 0 -1 0 -1 -1
        CFGEDIT 1 1 0 1 0 0 1 1 1 1 1 0.125 0 0 1856 1055 0 0 0 0 0 0 0 0 0 0.5 0 0 1 64
      >
    >
  >
  <TRACK {287E23CA-2C08-A949-BE0F-DF9C5A810CA0}
    NAME Aux
    PEAKCOL 16576
    BEAT -1
    AUTOMODE 0
    VOLPAN 1 0 -1 -1 1
    MUTESOLO 0 0 0
    IPHASE 0
    PLAYOFFS 0 1
    ISBUS 0 0
    BUSCOMP 0 0 0 0 0
    SHOWINMIX 1 0.6667 0.5 0 0.5 0 0 0
    FREEMODE 0
    SEL 0
    REC 0 0 0 0 0 0 0
    VU 2
    TRACKHEIGHT 0 0 0 0 0 0
    INQ 0 0 0 0.5 100 0 0 100
    NCHAN 6
    FX 1
    TRACKID {287E23CA-2C08-A949-BE0F-DF9C5A810CA0}
    PERF 0
    AUXRECV 8 0 1 0 0 0 0 0 4 -1:U 4177951 -1 ''
    AUXRECV 13 0 1 0 0 0 0 2048 0 -1:U 4177951 -1 ''
    AUXRECV 13 0 0.81373363031596 0 0 0 0 4 4 -1:U 4177951 -1 ''
    AUXRECV 14 0 1 0 0 0 0 2048 0 -1:U 4177951 -1 ''
    AUXRECV 14 0 0.50118723362727 0 0 0 0 4 4 -1:U 4177951 -1 ''
    AUXRECV 15 0 1 0 0 0 0 2048 0 -1:U 4177951 -1 ''
    AUXRECV 15 0 0.50118723362727 0 0 0 0 4 4 -1:U 4177951 -1 ''
    AUXRECV 16 0 1 0 0 0 0 2048 0 -1:U 4177951 -1 ''
    AUXRECV 16 0 0.50118723362727 0 0 0 0 4 4 -1:U 4177951 -1 ''
    AUXRECV 17 0 1 0 0 0 0 2048 0 -1:U 4177951 -1 ''
    AUXRECV 17 0 0.50118723362727 0 0 0 0 4 4 -1:U 4177951 -1 ''
    AUXRECV 18 0 1 0 0 0 0 2048 0 -1:U 4177951 -1 ''
    AUXRECV 18 0 0.50118723362727 0 0 0 0 4 4 -1:U 4177951 -1 ''
    AUXRECV 19 0 1 0 0 0 0 2048 0 -1:U 4177951 -1 ''
    AUXRECV 19 0 0.50118723362727 0 0 0 0 4 4 -1:U 4177951 -1 ''
    MIDIOUT -1
    MAINSEND 0 0
    <FXCHAIN
      WNDRECT 279 167 1105 598
      SHOW 0
      LASTSEL 1
      DOCKED 0
      BYPASS 0 0 0
      <VST "VST3: TestBusHead      (CabbageAudio)" BusHead.vst3 0 "" 131310216{ABCDEF019182FAEB4361626230303033} ""
        iKLTB+5e7f4GAAAAAQAAAAAAAAACAAAAAAAAAAQAAAAAAAAACAAAAAAAAAAQAAAAAAAAACAAAAAAAAAABgAAAAEAAAAAAAAAAgAAAAAAAAAEAAAAAAAAAAgAAAAAAAAA
        EAAAAAAAAAAgAAAAAAAAAPcAAAABAAAA//8QAA==
        5wAAAAEAAABWQzIhogAAADw/eG1sIHZlcnNpb249IjEuMCIgZW5jb2Rpbmc9IlVURi04Ij8+IDxDQUJCQUdFX1BSRVNFVFM+PFBSRVNFVDAgUHJlc2V0TmFtZT0iQ0FC
        QkFHRV9QUkVTRVRTIDAiIGluc3RhbmNlTmFtZT0iIiB0cmFja0luZGV4PSI3IiBwbHVnaW5JbmRleD0iMCIvPjwvQ0FCQkFHRV9QUkVTRVRTPgAAAAAAAAAAAEpVQ0VQ
        cml2YXRlRGF0YQABAUJ5cGFzcwABAQMAHQAAAAAAAABKVUNFUHJpdmF0ZURhdGEAAAAAAAAAAA==
        AAAQAAAA
      >
      FLOATPOS 443 123 960 694
      FXID {725BCA2D-6086-3047-B70E-CE846AC51112}
      WAK 0 0
      BYPASS 0 0 0
      <VST "VST3: Reverb           (CabbageAudio    ) (6ch)" Reverb.vst3 0 "" 205275414{ABCDEF019182FAEB4361626230313030} ""
        FkE8DO5e7f4GAAAAAQAAAAAAAAACAAAAAAAAAAQAAAAAAAAACAAAAAAAAAAQAAAAAAAAACAAAAAAAAAABgAAAAEAAAAAAAAAAgAAAAAAAAAEAAAAAAAAAAgAAAAAAAAA
        EAAAAAAAAAAgAAAAAAAAAMkBAAABAAAA//8QAA==
        uQEAAAEAAABWQzIhdAEAADw/eG1sIHZlcnNpb249IjEuMCIgZW5jb2Rpbmc9IlVURi04Ij8+IDxDQUJCQUdFX1BSRVNFVFM+PFBSRVNFVDAgUHJlc2V0TmFtZT0iQ0FC
        QkFHRV9QUkVTRVRTIDAiIGluc3RhbmNlTmFtZT0iIiB0cmFja0luZGV4PSI3IiBwbHVnaW5JbmRleD0iMSIgZmlyc3RfdGFiX2J1Z193b3JrYXJvdW5kX3RhYj0iMC4w
        IiByZXZlcmJfdGFiPSIxLjAiIGxvZ190YWI9IjAuMCIgZW5hYmxlZD0iMS4wIiBzaXplPSIwLjk3OTk5OTk1OTQ2ODg0MTYiIGN1dG9mZkZyZXF1ZW5jeT0iMjAwMDAu
        MCIgdmFyaWF0aW9uRGVwdGg9IjAuMTAwMDAwMDAxNDkwMTE2MSIgZHJ5V2V0PSIxLjAiIHZvbHVtZT0iMC4wMjcwMDAwMDA3MDAzNTQ1OCIvPjwvQ0FCQkFHRV9QUkVT
        RVRTPgAAAAAAAAAAAEpVQ0VQcml2YXRlRGF0YQABAUJ5cGFzcwABAQMAHQAAAAAAAABKVUNFUHJpdmF0ZURhdGEAAAAAAAAAAA==
        AEZhY3RvcnkgUHJlc2V0cwAQAAAA
      >
      PRESETNAME "Factory Presets"
      FLOATPOS 0 0 0 0
      FXID {BF55984E-0ECB-ED41-BA8E-94C38227F2E3}
      WAK 0 0
    >
  >
  <TRACK {63E5B392-0533-4446-AD46-E347E98D1B2B}
    NAME Master
    PEAKCOL 16576
    BEAT -1
    AUTOMODE 0
    VOLPAN 1 0 -1 -1 1
    MUTESOLO 0 0 0
    IPHASE 0
    PLAYOFFS 0 1
    ISBUS 0 0
    BUSCOMP 0 0 0 0 0
    SHOWINMIX 1 0.6667 0.5 0 0.5 0 0 0
    FREEMODE 0
    SEL 0
    REC 0 0 0 0 0 0 0
    VU 2
    TRACKHEIGHT 0 0 0 0 0 0
    INQ 0 0 0 0.5 100 0 0 100
    NCHAN 6
    FX 1
    TRACKID {63E5B392-0533-4446-AD46-E347E98D1B2B}
    PERF 0
    AUXRECV 20 0 1 0 0 0 0 2048 0 -1:U 4177951 -1 ''
    AUXRECV 20 0 1 0 0 0 0 4 4 -1:U 4177951 -1 ''
    MIDIOUT -1
    MAINSEND 0 0
    <FXCHAIN
      WNDRECT 241 153 1199 722
      SHOW 0
      LASTSEL 0
      DOCKED 0
      BYPASS 0 0 0
      <VST "VST3: TestMasterHead   (CabbageAudio)" MasterHead.vst3 0 "" 248753549{ABCDEF019182FAEB4361626230303034} ""
        ja3TDu5e7f4GAAAAAQAAAAAAAAACAAAAAAAAAAQAAAAAAAAACAAAAAAAAAAQAAAAAAAAACAAAAAAAAAABgAAAAEAAAAAAAAAAgAAAAAAAAAEAAAAAAAAAAgAAAAAAAAA
        EAAAAAAAAAAgAAAAAAAAAPcAAAABAAAA//8QAA==
        5wAAAAEAAABWQzIhogAAADw/eG1sIHZlcnNpb249IjEuMCIgZW5jb2Rpbmc9IlVURi04Ij8+IDxDQUJCQUdFX1BSRVNFVFM+PFBSRVNFVDAgUHJlc2V0TmFtZT0iQ0FC
        QkFHRV9QUkVTRVRTIDAiIGluc3RhbmNlTmFtZT0iIiB0cmFja0luZGV4PSI4IiBwbHVnaW5JbmRleD0iMCIvPjwvQ0FCQkFHRV9QUkVTRVRTPgAAAAAAAAAAAEpVQ0VQ
        cml2YXRlRGF0YQABAUJ5cGFzcwABAQMAHQAAAAAAAABKVUNFUHJpdmF0ZURhdGEAAAAAAAAAAA==
        AEZhY3RvcnkgUHJlc2V0cwAQAAAA
      >
      PRESETNAME "Factory Presets"
      FLOATPOS 373 113 960 694
      FXID {4C3E75DF-4C21-974B-BD05-2B8DAA36578E}
      WAK 0 0
    >
  >
  <TRACK {ED3BBFC5-F01A-7943-A293-98C96281065A}
    NAME "Output Routing"
    PEAKCOL 16576
    BEAT -1
    AUTOMODE 0
    VOLPAN 1 0 -1 -1 1
    MUTESOLO 0 0 0
    IPHASE 0
    PLAYOFFS 0 1
    ISBUS 0 0
    BUSCOMP 0 0 0 0 0
    SHOWINMIX 1 0.6667 0.5 0 0.5 0 -1 0
    FREEMODE 0
    SEL 0
    REC 0 0 1 0 0 0 0
    VU 2
    TRACKHEIGHT 0 0 0 0 0 0
    INQ 0 0 0 0.5 100 0 0 100
    NCHAN 6
    FX 1
    TRACKID {ED3BBFC5-F01A-7943-A293-98C96281065A}
    PERF 0
    AUXRECV 21 0 1 0 0 0 0 2048 0 -1:U 4177951 -1 ''
    AUXRECV 21 0 1 0 0 0 0 4 0 -1:U 4177951 -1 ''
    MIDIOUT -1
    MAINSEND 1 0
  >
>
