<?xml version="1.0" encoding="UTF-8" standalone="no"?>
<!-- Created with Inkscape (http://www.inkscape.org/) -->

<svg
   width="2048"
   height="1761"
   viewBox="0 0 541.86665 465.93127"
   version="1.1"
   id="svg5"
   sodipodi:docname="a+a.svg"
   inkscape:version="1.1.1 (c3084ef, 2021-09-22)"
   xmlns:inkscape="http://www.inkscape.org/namespaces/inkscape"
   xmlns:sodipodi="http://sodipodi.sourceforge.net/DTD/sodipodi-0.dtd"
   xmlns="http://www.w3.org/2000/svg"
   xmlns:svg="http://www.w3.org/2000/svg">
  <sodipodi:namedview
     id="namedview7"
     pagecolor="#000000"
     bordercolor="#666666"
     borderopacity="1.0"
     inkscape:pageshadow="2"
     inkscape:pageopacity="0"
     inkscape:pagecheckerboard="0"
     inkscape:document-units="mm"
     showgrid="false"
     width="100mm"
     units="px"
     inkscape:zoom="0.4453043"
     inkscape:cx="1024.0188"
     inkscape:cy="880.2969"
     inkscape:window-width="1728"
     inkscape:window-height="968"
     inkscape:window-x="0"
     inkscape:window-y="38"
     inkscape:window-maximized="1"
     inkscape:current-layer="g49098"
     showborder="true"
     inkscape:showpageshadow="false">
    <inkscape:grid
       type="xygrid"
       id="grid9"
       empspacing="64"
       spacingx="4.2333334"
       spacingy="4.2333334" />
  </sodipodi:namedview>
  <defs
     id="defs2" />
  <g
     inkscape:label="Layer 1"
     inkscape:groupmode="layer"
     id="layer1"
     style="display:inline">
    <g
       id="g49098"
       transform="matrix(1.3483052,0,0,1.3287443,201.46071,175.18221)">
      <g
         aria-label="A
n
d
y"
         id="text1474"
         style="font-size:33.8666px;line-height:1;text-align:center;text-anchor:middle;fill:#ffffff;stroke-width:1.05833">
        <path
           d="m 64.375386,-68.636398 h -6.564961 l -1.703252,-4.977464 h -9.128107 l -1.703252,4.977464 h -6.399597 l 9.095034,-24.622738 h 7.3091 z m -9.806101,-9.491909 -3.026166,-8.830451 -3.026166,8.830451 z"
           style="font-weight:bold;-inkscape-font-specification:'sans-serif, Bold'"
           id="path2084" />
        <path
           d="m 61.035028,-34.769798 h -5.986186 v -9.210789 q 0,-1.124477 -0.115755,-2.232418 -0.115755,-1.124477 -0.396875,-1.653643 -0.330728,-0.611847 -0.975649,-0.892967 -0.628384,-0.281119 -1.769397,-0.281119 -0.810285,0 -1.653643,0.264583 -0.826821,0.264583 -1.80247,0.843358 v 13.162995 h -5.953114 v -18.570406 h 5.953114 v 2.050516 q 1.587497,-1.240232 3.042702,-1.901689 1.471742,-0.661457 3.257676,-0.661457 3.009629,0 4.696345,1.752861 1.703252,1.752862 1.703252,5.242047 z"
           style="font-weight:bold;-inkscape-font-specification:'sans-serif, Bold'"
           id="path2086" />
        <path
           d="M 60.671226,-0.90319824 H 54.718113 V -2.8379601 q -1.537888,1.2567684 -2.877338,1.85207973 -1.339451,0.59531133 -3.092312,0.59531133 -3.389967,0 -5.423947,-2.61275526 -2.033981,-2.6127553 -2.033981,-7.0445177 0,-2.364709 0.677994,-4.183715 0.69453,-1.835544 1.885152,-3.141921 1.124477,-1.240232 2.728511,-1.918226 1.604033,-0.69453 3.208066,-0.69453 1.670179,0 2.72851,0.363802 1.074868,0.347265 2.199345,0.892967 v -7.904412 h 5.953113 z M 54.718113,-6.0294902 v -9.1115708 q -0.628384,-0.264583 -1.322914,-0.380338 -0.69453,-0.115755 -1.273305,-0.115755 -2.348172,0 -3.522259,1.471742 -1.174086,1.455206 -1.174086,4.051425 0,2.7285098 0.942576,3.9687418 0.942577,1.2236955 3.026166,1.2236955 0.810285,0 1.719789,-0.2976557 0.909503,-0.3141921 1.604033,-0.8102848 z"
           style="font-weight:bold;-inkscape-font-specification:'sans-serif, Bold'"
           id="path2088" />
        <path
           d="m 51.824238,26.398441 4.233325,-12.005445 h 6.118478 L 51.857311,39.776409 H 45.408105 L 48.351589,32.83111 41.125171,14.392996 h 6.250769 z"
           style="font-weight:bold;-inkscape-font-specification:'sans-serif, Bold'"
           id="path2090" />
      </g>
      <g
         aria-label="AMANDA"
         id="text16506"
         style="font-weight:bold;font-size:33.8666px;line-height:1.25;-inkscape-font-specification:'sans-serif Bold';text-align:center;letter-spacing:31.75px;text-anchor:middle;fill:#ffffff;stroke-width:1.05833">
        <path
           d="m -87.659062,209.37608 h -6.564961 l -1.703252,-4.97746 h -9.128105 l -1.70325,4.97746 h -6.3996 l 9.09503,-24.62273 h 7.309104 z m -9.8061,-9.49191 -3.026168,-8.83045 -3.02616,8.83045 z"
           id="path3045" />
        <path
           d="m -26.523834,209.37608 h -6.316915 v -16.48681 l -4.564053,10.69906 h -4.382153 l -4.564054,-10.69906 v 16.48681 h -5.986186 v -24.62273 h 7.375246 l 5.539703,12.35271 5.523166,-12.35271 h 7.375246 z"
           id="path3047" />
        <path
           d="m 34.247593,209.37608 h -6.564961 l -1.703252,-4.97746 h -9.128107 l -1.703252,4.97746 H 8.7484241 l 9.0950339,-24.62273 h 7.3091 z m -9.806101,-9.49191 -3.026166,-8.83045 -3.026166,8.83045 z"
           id="path3049" />
        <path
           d="M 91.959788,209.37608 H 85.84131 L 75.390289,192.47586 v 16.90022 h -5.820822 v -24.62273 h 7.59022 l 8.979279,14.10557 v -14.10557 h 5.820822 z"
           id="path3051" />
        <path
           d="m 153.29345,197.08952 q 0,3.43958 -1.57096,6.16809 -1.57096,2.71197 -3.96874,4.16718 -1.80248,1.0914 -3.95221,1.52135 -2.14974,0.42994 -5.09322,0.42994 h -8.68162 v -24.62273 h 8.92967 q 3.00963,0 5.19243,0.51262 2.18281,0.4961 3.67109,1.42214 2.54661,1.55442 4.00182,4.20025 1.47174,2.62929 1.47174,6.20116 z m -6.56496,-0.0496 q 0,-2.43085 -0.89297,-4.15064 -0.87643,-1.73633 -2.79466,-2.71198 -0.97565,-0.47955 -2.0009,-0.64492 -1.00873,-0.1819 -3.05924,-0.1819 h -1.60404 v 15.41195 h 1.60404 q 2.26549,0 3.32382,-0.19844 1.05833,-0.21497 2.06705,-0.76067 1.73633,-0.99219 2.54661,-2.64583 0.81029,-1.67018 0.81029,-4.11757 z"
           id="path3053" />
        <path
           d="m 212.64276,209.37608 h -6.56496 l -1.70326,-4.97746 h -9.1281 l -1.70325,4.97746 h -6.3996 l 9.09503,-24.62273 h 7.3091 z m -9.8061,-9.49191 -3.02617,-8.83045 -3.02617,8.83045 z"
           id="path3055" />
      </g>
      <path
         style="fill:#ff0000;stroke:#ff0000;stroke-width:0;stroke-linecap:butt;stroke-linejoin:miter;stroke-miterlimit:4;stroke-dasharray:none;stroke-opacity:1"
         d="M 125.14972,91.482093 H -23.01695 v 5.291668 c -0.09372,47.632209 74.083332,79.374999 74.083332,79.374999 0,0 74.179668,-31.74279 74.083338,-79.374999 z"
         id="path38158"
         sodipodi:nodetypes="cccccc" />
      <circle
         style="opacity:1;fill:#ff0000;fill-opacity:1;stroke:#ff0000;stroke-width:0;stroke-linejoin:round;stroke-miterlimit:4;stroke-dasharray:none;stroke-opacity:1"
         id="path39452"
         cx="14.024723"
         cy="91.385887"
         r="37.041668" />
      <circle
         style="display:inline;fill:#ff0000;fill-opacity:1;stroke:#ff0000;stroke-width:0;stroke-linejoin:round;stroke-miterlimit:4;stroke-dasharray:none;stroke-opacity:1"
         id="path39452-1"
         cx="88.108055"
         cy="91.610405"
         r="37.041668" />
      <path
         style="fill:none;stroke:#808080;stroke-width:1.05833px;stroke-linecap:butt;stroke-linejoin:miter;stroke-opacity:1"
         d="m 51.525892,-130.70269 200.029918,348.97816 -400.06139,0.003 z"
         id="path48072"
         sodipodi:nodetypes="cccc" />
    </g>
  </g>
</svg>
