<?xml version="1.0" encoding="UTF-8" standalone="no"?>
<svg
   width="640"
   height="160"
   viewBox="0 0 169.33333 42.333332"
   version="1.1"
   id="svg8"
   inkscape:version="1.1.1 (c3084ef, 2021-09-22)"
   sodipodi:docname="docEdub.inkscape.svg"
   inkscape:export-filename="_.exports/docEdub.png"
   inkscape:export-xdpi="648"
   inkscape:export-ydpi="648"
   xmlns:inkscape="http://www.inkscape.org/namespaces/inkscape"
   xmlns:sodipodi="http://sodipodi.sourceforge.net/DTD/sodipodi-0.dtd"
   xmlns:xlink="http://www.w3.org/1999/xlink"
   xmlns="http://www.w3.org/2000/svg"
   xmlns:svg="http://www.w3.org/2000/svg"
   xmlns:rdf="http://www.w3.org/1999/02/22-rdf-syntax-ns#"
   xmlns:cc="http://creativecommons.org/ns#"
   xmlns:dc="http://purl.org/dc/elements/1.1/">
  <defs
     id="defs2">
    <linearGradient
       inkscape:collect="always"
       id="linearGradient1142">
      <stop
         style="stop-color:#b5b5c9;stop-opacity:0.50196081"
         offset="0"
         id="stop1134" />
      <stop
         style="stop-color:#ffffff;stop-opacity:1"
         offset="0.38666669"
         id="stop989" />
      <stop
         style="stop-color:#ffffff;stop-opacity:1"
         offset="0.60000002"
         id="stop999" />
      <stop
         style="stop-color:#b6b6c8;stop-opacity:0.5"
         offset="1"
         id="stop1140" />
    </linearGradient>
    <linearGradient
       inkscape:collect="always"
       id="linearGradient1130">
      <stop
         style="stop-color:#ffffff;stop-opacity:0"
         offset="0"
         id="stop1122" />
      <stop
         style="stop-color:#ffffff;stop-opacity:0.77016127"
         offset="0.37333351"
         id="stop1124" />
      <stop
         style="stop-color:#ffffff;stop-opacity:1"
         offset="0.61250001"
         id="stop1126" />
      <stop
         style="stop-color:#ffffff;stop-opacity:0;"
         offset="1"
         id="stop1128" />
    </linearGradient>
    <linearGradient
       inkscape:collect="always"
       id="linearGradient1042-3">
      <stop
         style="stop-color:#ffffff;stop-opacity:0"
         offset="0"
         id="stop1055" />
      <stop
         style="stop-color:#ffffff;stop-opacity:0.77016127"
         offset="0.3875002"
         id="stop1064" />
      <stop
         style="stop-color:#ffffff;stop-opacity:1"
         offset="0.49999994"
         id="stop1062" />
      <stop
         style="stop-color:#ffffff;stop-opacity:0;"
         offset="1"
         id="stop1057" />
    </linearGradient>
    <rect
       x="42.333332"
       y="29.633332"
       width="63.499998"
       height="12.7"
       id="rect102" />
    <rect
       x="21.166666"
       y="4.2333332"
       width="192.14721"
       height="57.191179"
       id="rect80" />
    <linearGradient
       inkscape:collect="always"
       xlink:href="#linearGradient1042-3"
       id="linearGradient1060"
       gradientUnits="userSpaceOnUse"
       x1="-3.0883715e-08"
       y1="21.166666"
       x2="169.33333"
       y2="21.166666"
       gradientTransform="matrix(1.1250001,0,0,1,-10.583333,0)" />
    <linearGradient
       inkscape:collect="always"
       xlink:href="#linearGradient1130"
       id="linearGradient1120"
       x1="6.0281854"
       y1="25.421286"
       x2="156.73276"
       y2="25.421286"
       gradientUnits="userSpaceOnUse" />
    <linearGradient
       inkscape:collect="always"
       xlink:href="#linearGradient1142"
       id="linearGradient1144"
       gradientUnits="userSpaceOnUse"
       x1="0"
       y1="21.166666"
       x2="169.33333"
       y2="21.166666"
       gradientTransform="matrix(0.84999994,0,0,0.60000003,12.699999,8.4666665)" />
  </defs>
  <sodipodi:namedview
     id="base"
     pagecolor="#808080"
     bordercolor="#666666"
     borderopacity="1.0"
     inkscape:pageopacity="0"
     inkscape:pageshadow="2"
     inkscape:zoom="1.5984164"
     inkscape:cx="320.94266"
     inkscape:cy="111.98584"
     inkscape:document-units="px"
     inkscape:current-layer="layer1"
     inkscape:document-rotation="0"
     showgrid="true"
     units="px"
     inkscape:window-width="1728"
     inkscape:window-height="968"
     inkscape:window-x="0"
     inkscape:window-y="38"
     inkscape:window-maximized="1"
     showguides="true"
     inkscape:snap-bbox="true"
     inkscape:bbox-paths="true"
     inkscape:bbox-nodes="true"
     inkscape:snap-bbox-edge-midpoints="true"
     inkscape:snap-bbox-midpoints="true"
     showborder="false"
     inkscape:showpageshadow="false"
     inkscape:pagecheckerboard="false">
    <sodipodi:guide
       position="0,42.333332"
       orientation="0,640"
       id="guide28" />
    <sodipodi:guide
       position="169.33333,42.333332"
       orientation="160,0"
       id="guide30" />
    <sodipodi:guide
       position="169.33333,0"
       orientation="0,-640"
       id="guide32" />
    <sodipodi:guide
       position="0,0"
       orientation="-160,0"
       id="guide34" />
    <sodipodi:guide
       position="0,42.333332"
       orientation="0,640"
       id="guide36" />
    <sodipodi:guide
       position="169.33333,42.333332"
       orientation="160,0"
       id="guide38" />
    <sodipodi:guide
       position="169.33333,0"
       orientation="0,-640"
       id="guide40" />
    <sodipodi:guide
       position="0,0"
       orientation="-160,0"
       id="guide42" />
    <sodipodi:guide
       position="0,42.333332"
       orientation="0,640"
       id="guide44" />
    <sodipodi:guide
       position="169.33333,42.333332"
       orientation="160,0"
       id="guide46" />
    <sodipodi:guide
       position="169.33333,0"
       orientation="0,-640"
       id="guide48" />
    <sodipodi:guide
       position="0,0"
       orientation="-160,0"
       id="guide50" />
    <sodipodi:guide
       position="0,42.333332"
       orientation="0,640"
       id="guide52" />
    <sodipodi:guide
       position="169.33333,42.333332"
       orientation="160,0"
       id="guide54" />
    <sodipodi:guide
       position="169.33333,0"
       orientation="0,-640"
       id="guide56" />
    <sodipodi:guide
       position="0,0"
       orientation="-160,0"
       id="guide58" />
    <sodipodi:guide
       position="0,42.333332"
       orientation="0,640"
       id="guide60" />
    <sodipodi:guide
       position="169.33333,42.333332"
       orientation="160,0"
       id="guide62" />
    <sodipodi:guide
       position="169.33333,0"
       orientation="0,-640"
       id="guide64" />
    <sodipodi:guide
       position="0,0"
       orientation="-160,0"
       id="guide66" />
    <sodipodi:guide
       position="0,42.333332"
       orientation="0,640"
       id="guide68" />
    <sodipodi:guide
       position="169.33333,42.333332"
       orientation="160,0"
       id="guide70" />
    <sodipodi:guide
       position="169.33333,0"
       orientation="0,-640"
       id="guide72" />
    <sodipodi:guide
       position="0,53.270816"
       orientation="-160,0"
       id="guide74" />
    <inkscape:grid
       type="xygrid"
       id="grid76"
       empcolor="#404040"
       empopacity="0.25098039"
       color="#bfbfbf"
       opacity="0.12941176"
       dotted="false"
       spacingx="2.1166666"
       spacingy="2.1166666" />
    <sodipodi:guide
       position="0,42.333332"
       orientation="0,640"
       id="guide910" />
    <sodipodi:guide
       position="169.33333,42.333332"
       orientation="160,0"
       id="guide912" />
    <sodipodi:guide
       position="169.33333,0"
       orientation="0,-640"
       id="guide914" />
    <sodipodi:guide
       position="0,0"
       orientation="-160,0"
       id="guide916" />
  </sodipodi:namedview>
  <metadata
     id="metadata5">
    <rdf:RDF>
      <cc:Work
         rdf:about="">
        <dc:format>image/svg+xml</dc:format>
        <dc:type
           rdf:resource="http://purl.org/dc/dcmitype/StillImage" />
        <dc:title />
      </cc:Work>
    </rdf:RDF>
  </metadata>
  <g
     inkscape:label="Layer 1"
     inkscape:groupmode="layer"
     id="layer1">
    <rect
       style="fill:url(#linearGradient1144);fill-opacity:1;stroke:none;stroke-width:0.37786;stroke-linejoin:round;stroke-miterlimit:4;stroke-dasharray:none;stroke-opacity:1"
       id="rect1034"
       width="143.93333"
       height="25.4"
       x="12.7"
       y="8.4666662"
       ry="12.7"
       rx="6.3500028"
       inkscape:export-filename="/Users/andy/-/images/docEdub.png"
       inkscape:export-xdpi="123.6"
       inkscape:export-ydpi="123.6" />
    <text
       xml:space="preserve"
       id="text100"
       style="fill:black;fill-opacity:1;line-height:1.25;stroke:none;font-family:sans-serif;font-style:normal;font-weight:normal;font-size:10.58333306px;white-space:pre;shape-inside:url(#rect102);stroke-linejoin:round"
       inkscape:export-filename="/Users/andy/-/images/docEdub.png"
       inkscape:export-xdpi="123.6"
       inkscape:export-ydpi="123.6" />
    <text
       xml:space="preserve"
       style="font-style:normal;font-weight:normal;font-size:10.58329999999999949px;line-height:1.25;font-family:sans-serif;fill:#000000;fill-opacity:1;stroke:none;stroke-width:0.264583;stroke-linejoin:round;"
       x="48.683334"
       y="50.799999"
       id="text203"
       inkscape:export-filename="/Users/andy/-/images/docEdub.png"
       inkscape:export-xdpi="123.6"
       inkscape:export-ydpi="123.6"><tspan
         sodipodi:role="line"
         id="tspan201"
         x="48.683334"
         y="50.799999"
         style="stroke-width:0.264583;stroke-linejoin:round;" /></text>
    <text
       xml:space="preserve"
       style="font-style:normal;font-weight:normal;font-size:10.5833px;line-height:1.25;font-family:sans-serif;fill:#000000;fill-opacity:1;stroke:none;stroke-width:0.264583"
       x="222.25"
       y="0"
       id="text1148"
       inkscape:export-filename="/Users/andy/-/images/docEdub.png"
       inkscape:export-xdpi="123.6"
       inkscape:export-ydpi="123.6"><tspan
         sodipodi:role="line"
         id="tspan1146"
         x="222.25"
         y="0"
         style="stroke-width:0.264583" /></text>
    <g
       aria-label="doc"
       transform="scale(1.048966,0.95331975)"
       id="text108-4-5-7"
       style="font-size:23.0085px;line-height:1.25;fill:#0044aa;stroke-width:1.6733;stroke-linejoin:round">
      <path
         d="M 26.905653,30.716223 V 29.22067 h -0.04602 q -0.552204,0.874323 -1.587586,1.357502 -1.012374,0.46017 -2.162799,0.46017 -1.288476,0 -2.30085,-0.506187 -1.012374,-0.506187 -1.725637,-1.334493 -0.690255,-0.851315 -1.058391,-1.955723 -0.368136,-1.104408 -0.368136,-2.30085 0,-1.196441 0.368136,-2.277841 0.391144,-1.104408 1.081399,-1.932714 0.713264,-0.828306 1.702629,-1.311484 1.012374,-0.483179 2.254833,-0.483179 1.265467,0 2.13979,0.483179 0.874323,0.483178 1.357502,1.058391 h 0.04602 v -7.155644 h 3.773394 v 17.394426 z m -0.138051,-5.752125 q 0,-0.552204 -0.207076,-1.081399 -0.184068,-0.529196 -0.552204,-0.943349 -0.345128,-0.414153 -0.851315,-0.667246 -0.506187,-0.253094 -1.150425,-0.253094 -0.667246,0 -1.173433,0.253094 -0.506187,0.253093 -0.851314,0.667246 -0.345128,0.391145 -0.529196,0.92034 -0.161059,0.529195 -0.161059,1.081399 0,0.552204 0.161059,1.104408 0.184068,0.529196 0.529196,0.943349 0.345127,0.414153 0.851314,0.667246 0.506187,0.253094 1.173433,0.253094 0.644238,0 1.150425,-0.253094 0.506187,-0.253093 0.851315,-0.667246 0.368136,-0.414153 0.552204,-0.943349 0.207076,-0.529195 0.207076,-1.081399 z"
         style="font-weight:bold;font-family:'Avenir Next';-inkscape-font-specification:'Avenir Next Bold';text-align:center;text-anchor:middle"
         id="path3281" />
      <path
         d="m 45.524203,24.941089 q 0,1.403519 -0.506187,2.553944 -0.506187,1.127416 -1.38051,1.932714 -0.874323,0.782289 -2.024748,1.21945 -1.150425,0.437162 -2.461909,0.437162 -1.288476,0 -2.46191,-0.437162 -1.150425,-0.437161 -2.024748,-1.21945 -0.851314,-0.805298 -1.357501,-1.932714 -0.506187,-1.150425 -0.506187,-2.553944 0,-1.403518 0.506187,-2.530934 0.506187,-1.127417 1.357501,-1.909706 0.874323,-0.782289 2.024748,-1.196442 1.173434,-0.414153 2.46191,-0.414153 1.311484,0 2.461909,0.414153 1.150425,0.414153 2.024748,1.196442 0.874323,0.782289 1.38051,1.909706 0.506187,1.127416 0.506187,2.530934 z m -3.635343,0 q 0,-0.552204 -0.184068,-1.081399 -0.184068,-0.529195 -0.529195,-0.92034 -0.345128,-0.414153 -0.851315,-0.667246 -0.506187,-0.253094 -1.173433,-0.253094 -0.667247,0 -1.173434,0.253094 -0.506187,0.253093 -0.851314,0.667246 -0.322119,0.391145 -0.506187,0.92034 -0.16106,0.529195 -0.16106,1.081399 0,0.552204 0.16106,1.0814 0.184068,0.529195 0.529195,0.966357 0.345128,0.414153 0.851315,0.667246 0.506187,0.253094 1.173433,0.253094 0.667247,0 1.173434,-0.253094 0.506187,-0.253093 0.851314,-0.667246 0.345128,-0.437162 0.506187,-0.966357 0.184068,-0.529196 0.184068,-1.0814 z"
         style="font-weight:bold;font-family:'Avenir Next';-inkscape-font-specification:'Avenir Next Bold';text-align:center;text-anchor:middle"
         id="path3283" />
      <path
         d="m 55.827697,22.962359 q -0.322119,-0.414153 -0.874323,-0.667247 -0.552204,-0.253093 -1.127417,-0.253093 -0.598221,0 -1.081399,0.253093 -0.483179,0.230085 -0.828306,0.644238 -0.345128,0.391145 -0.552204,0.92034 -0.184068,0.529195 -0.184068,1.127416 0,0.598221 0.184068,1.127417 0.184068,0.529195 0.529195,0.943348 0.368136,0.391145 0.851315,0.62123 0.506187,0.230085 1.127416,0.230085 0.575213,0 1.127417,-0.207077 0.575212,-0.230085 0.92034,-0.644238 l 2.093773,2.553944 q -0.713263,0.690255 -1.84068,1.081399 -1.127416,0.391145 -2.392884,0.391145 -1.357501,0 -2.530935,-0.414153 -1.173433,-0.414153 -2.047756,-1.196442 -0.851314,-0.805298 -1.357501,-1.932714 -0.483179,-1.127417 -0.483179,-2.553944 0,-1.403518 0.483179,-2.530934 0.506187,-1.127417 1.357501,-1.909706 0.874323,-0.805297 2.047756,-1.21945 1.173434,-0.437162 2.507927,-0.437162 0.621229,0 1.21945,0.115043 0.62123,0.115042 1.173434,0.322119 0.575212,0.184068 1.035382,0.483178 0.483179,0.276102 0.828306,0.62123 z"
         style="font-weight:bold;font-family:'Avenir Next';-inkscape-font-specification:'Avenir Next Bold';text-align:center;text-anchor:middle"
         id="path3285" />
    </g>
    <g
       aria-label="dub"
       transform="scale(1.0196597,0.98071936)"
       id="text108-4-5-3"
       style="font-size:22.4237px;line-height:1.25;fill:#0044aa;stroke-width:1.63077;stroke-linejoin:round">
      <path
         d="m 114.88298,29.901983 v -1.45754 h -0.0448 q -0.53817,0.8521 -1.54723,1.322998 -0.98665,0.448474 -2.10783,0.448474 -1.25573,0 -2.24237,-0.493321 -0.98664,-0.493322 -1.68178,-1.300575 -0.67271,-0.829677 -1.03149,-1.906014 -0.35878,-1.076338 -0.35878,-2.242371 0,-1.166032 0.35878,-2.219946 0.3812,-1.076337 1.05391,-1.883591 0.69514,-0.807253 1.65936,-1.278151 0.98664,-0.470897 2.19752,-0.470897 1.2333,0 2.0854,0.470897 0.85211,0.470898 1.323,1.031491 h 0.0448 v -6.973771 h 3.67749 v 16.952317 z m -0.13454,-5.605925 q 0,-0.538169 -0.20182,-1.053914 -0.17939,-0.515745 -0.53817,-0.919371 -0.33635,-0.403627 -0.82967,-0.650288 -0.49332,-0.24666 -1.12119,-0.24666 -0.65029,0 -1.14361,0.24666 -0.49332,0.246661 -0.82967,0.650288 -0.33636,0.381202 -0.51575,0.896948 -0.15696,0.515745 -0.15696,1.053913 0,0.538169 0.15696,1.076338 0.17939,0.515745 0.51575,0.919372 0.33635,0.403626 0.82967,0.650287 0.49332,0.246661 1.14361,0.246661 0.62787,0 1.12119,-0.246661 0.49332,-0.246661 0.82967,-0.650287 0.35878,-0.403627 0.53817,-0.919372 0.20182,-0.515745 0.20182,-1.053914 z"
         style="font-weight:bold;font-family:'Avenir Next';-inkscape-font-specification:'Avenir Next Bold';text-align:center;text-anchor:middle"
         id="path3306" />
      <path
         d="m 128.54357,29.901983 v -1.547235 h -0.0448 q -0.20181,0.381203 -0.53817,0.717558 -0.31393,0.336356 -0.76241,0.583017 -0.42605,0.24666 -0.96421,0.403626 -0.51575,0.156966 -1.09877,0.156966 -1.12118,0 -1.90601,-0.403627 -0.76241,-0.403626 -1.25573,-1.03149 -0.47089,-0.650287 -0.69513,-1.45754 -0.20182,-0.829677 -0.20182,-1.681778 v -6.9065 h 3.69992 v 6.0544 q 0,0.470897 0.0673,0.896948 0.0673,0.42605 0.24666,0.762405 0.20181,0.336356 0.51574,0.538169 0.31393,0.17939 0.82968,0.17939 0.96422,0 1.45754,-0.717559 0.51574,-0.717558 0.51574,-1.681777 V 18.73498 h 3.67749 v 11.167003 z"
         style="font-weight:bold;font-family:'Avenir Next';-inkscape-font-specification:'Avenir Next Bold';text-align:center;text-anchor:middle"
         id="path3308" />
      <path
         d="m 147.38578,24.273634 q 0,1.166033 -0.35878,2.242371 -0.35878,1.076337 -1.05391,1.906014 -0.67271,0.807253 -1.65935,1.300575 -0.98665,0.493321 -2.24237,0.493321 -1.12119,0 -2.13026,-0.448474 -0.98664,-0.470898 -1.52481,-1.322998 h -0.0448 v 1.45754 h -3.38597 V 12.949666 h 3.67748 v 6.973771 h 0.0448 q 0.4709,-0.560593 1.323,-1.031491 0.8521,-0.470897 2.0854,-0.470897 1.21088,0 2.1751,0.470897 0.98664,0.470898 1.65936,1.278151 0.69513,0.807254 1.05391,1.883591 0.3812,1.053914 0.3812,2.219946 z m -3.54294,0 q 0,-0.538168 -0.17939,-1.053913 -0.15697,-0.515746 -0.49332,-0.896948 -0.33636,-0.403627 -0.82968,-0.650288 -0.49332,-0.24666 -1.14361,-0.24666 -0.62786,0 -1.12118,0.24666 -0.49333,0.246661 -0.8521,0.650288 -0.33636,0.403626 -0.53817,0.919371 -0.17939,0.515745 -0.17939,1.053914 0,0.538169 0.17939,1.053914 0.20181,0.515745 0.53817,0.919372 0.35877,0.403626 0.8521,0.650287 0.49332,0.246661 1.12118,0.246661 0.65029,0 1.14361,-0.246661 0.49332,-0.246661 0.82968,-0.650287 0.33635,-0.403627 0.49332,-0.919372 0.17939,-0.538169 0.17939,-1.076338 z"
         style="font-weight:bold;font-family:'Avenir Next';-inkscape-font-specification:'Avenir Next Bold';text-align:center;text-anchor:middle"
         id="path3310" />
    </g>
    <circle
       style="fill:#0044aa;fill-opacity:1;stroke:none;stroke-width:0.428625;stroke-linejoin:round;stroke-miterlimit:4;stroke-dasharray:none;stroke-opacity:1"
       id="path1033"
       cx="84.666664"
       cy="21.166666"
       r="21.166666"
       inkscape:export-filename="/Users/andy/-/images/docEdub.png"
       inkscape:export-xdpi="123.6"
       inkscape:export-ydpi="123.6" />
    <text
       xml:space="preserve"
       style="font-style:normal;font-weight:normal;font-size:34.7942px;line-height:1.25;font-family:sans-serif;fill:#ffffff;fill-opacity:1;stroke:none;stroke-width:2.53043;stroke-linejoin:round;stroke-opacity:1"
       x="72.681221"
       y="36.951454"
       id="text108-4-5-3-9"
       transform="scale(1.1638256,0.85923525)"
       inkscape:export-filename="/Users/andy/-/images/docEdub.png"
       inkscape:export-xdpi="123.6"
       inkscape:export-ydpi="123.6"><tspan
         sodipodi:role="line"
         id="tspan106-3-8-8-4"
         x="72.681221"
         y="36.951454"
         style="font-style:normal;font-variant:normal;font-weight:bold;font-stretch:normal;font-size:34.7942px;font-family:'Avenir Next';-inkscape-font-specification:'Avenir Next Bold';text-align:center;text-anchor:middle;fill:#ffffff;fill-opacity:1;stroke:none;stroke-width:2.53043;stroke-linejoin:round;stroke-opacity:1">E</tspan></text>
    <text
       xml:space="preserve"
       style="font-style:normal;font-weight:normal;font-size:10.5833px;line-height:1.25;font-family:sans-serif;fill:#000000;fill-opacity:1;stroke:none;stroke-width:0.264583"
       x="120.65"
       y="50.799999"
       id="text1027"
       inkscape:export-filename="/Users/andy/-/images/docEdub.png"
       inkscape:export-xdpi="123.6"
       inkscape:export-ydpi="123.6"><tspan
         sodipodi:role="line"
         id="tspan1025"
         x="120.65"
         y="50.799999"
         style="stroke-width:0.264583" /></text>
    <text
       xml:space="preserve"
       style="font-style:normal;font-weight:normal;font-size:10.5833px;line-height:1.25;font-family:sans-serif;fill:#000000;fill-opacity:1;stroke:none;stroke-width:0.264583"
       x="105.83333"
       y="-4.2333331"
       id="text1031"
       inkscape:export-filename="/Users/andy/-/images/docEdub.png"
       inkscape:export-xdpi="123.6"
       inkscape:export-ydpi="123.6"><tspan
         sodipodi:role="line"
         id="tspan1029"
         x="105.83333"
         y="-4.2333331"
         style="stroke-width:0.264583" /></text>
    <text
       xml:space="preserve"
       style="font-style:normal;font-weight:normal;font-size:10.5833px;line-height:1.25;font-family:sans-serif;fill:#000000;fill-opacity:1;stroke:none;stroke-width:0.264583"
       x="44.450001"
       y="4.2333331"
       id="text912"
       inkscape:export-filename="/Users/andy/-/images/docEdub.png"
       inkscape:export-xdpi="123.6"
       inkscape:export-ydpi="123.6"><tspan
         sodipodi:role="line"
         id="tspan910"
         x="44.450001"
         y="4.2333331"
         style="stroke-width:0.264583" /></text>
    <g
       aria-label="dub"
       transform="scale(-0.98508406,-1.0151418)"
       id="text108-4-5-3-3"
       style="font-size:8.12376px;line-height:1.25;fill:#b7b7c8;fill-opacity:0.513725;stroke-width:0.590803;stroke-linejoin:round">
      <path
         d="m -90.203426,-31.911419 v -0.528044 h -0.01625 q -0.19497,0.308703 -0.560539,0.479302 -0.357446,0.162475 -0.763634,0.162475 -0.45493,0 -0.812376,-0.178723 -0.357445,-0.178723 -0.609282,-0.471178 -0.243713,-0.300579 -0.373693,-0.69052 -0.12998,-0.38994 -0.12998,-0.812376 0,-0.422435 0.12998,-0.804252 0.138104,-0.38994 0.381817,-0.682396 0.251836,-0.292455 0.601158,-0.463054 0.357446,-0.170599 0.796129,-0.170599 0.446806,0 0.755509,0.170599 0.308703,0.170599 0.479302,0.373693 h 0.01625 v -2.52649 h 1.332296 v 6.141563 z m -0.04874,-2.03094 q 0,-0.19497 -0.07311,-0.381817 -0.06499,-0.186846 -0.19497,-0.333074 -0.121857,-0.146228 -0.300579,-0.235589 -0.178723,-0.08936 -0.406188,-0.08936 -0.235589,0 -0.414312,0.08936 -0.178723,0.08936 -0.300579,0.235589 -0.121857,0.138104 -0.186847,0.324951 -0.05687,0.186846 -0.05687,0.381816 0,0.194971 0.05687,0.389941 0.06499,0.186846 0.186847,0.333074 0.121856,0.146228 0.300579,0.235589 0.178723,0.08936 0.414312,0.08936 0.227465,0 0.406188,-0.08936 0.178722,-0.08936 0.300579,-0.235589 0.12998,-0.146228 0.19497,-0.333074 0.07311,-0.186847 0.07311,-0.381817 z"
         style="font-weight:bold;font-family:'Avenir Next';-inkscape-font-specification:'Avenir Next Bold';text-align:center;text-anchor:middle"
         id="path3381" />
      <path
         d="m -85.254406,-31.911419 v -0.560539 h -0.01625 q -0.07311,0.138104 -0.19497,0.25996 -0.113733,0.121856 -0.276208,0.211218 -0.154351,0.08936 -0.349322,0.146227 -0.186846,0.05687 -0.398064,0.05687 -0.406188,0 -0.690519,-0.146228 -0.276208,-0.146228 -0.454931,-0.373693 -0.170599,-0.235589 -0.251837,-0.528044 -0.07311,-0.300579 -0.07311,-0.609282 v -2.502119 h 1.34042 v 2.193416 q 0,0.170599 0.02437,0.32495 0.02437,0.154352 0.08936,0.276208 0.07311,0.121856 0.186846,0.19497 0.113733,0.06499 0.300579,0.06499 0.349322,0 0.528045,-0.25996 0.186846,-0.25996 0.186846,-0.609282 v -2.185292 h 1.332297 v 4.045633 z"
         style="font-weight:bold;font-family:'Avenir Next';-inkscape-font-specification:'Avenir Next Bold';text-align:center;text-anchor:middle"
         id="path3383" />
      <path
         d="m -78.428163,-33.950483 q 0,0.422436 -0.12998,0.812376 -0.12998,0.389941 -0.381817,0.69052 -0.243713,0.292455 -0.601158,0.471178 -0.357446,0.178723 -0.812376,0.178723 -0.406188,0 -0.771757,-0.162475 -0.357446,-0.170599 -0.552416,-0.479302 h -0.01625 v 0.528044 h -1.226687 v -6.141563 h 1.332296 v 2.52649 h 0.01625 q 0.170599,-0.203094 0.479302,-0.373693 0.308702,-0.170599 0.755509,-0.170599 0.438683,0 0.788005,0.170599 0.357446,0.170599 0.601158,0.463054 0.251837,0.292456 0.381817,0.682396 0.138104,0.381817 0.138104,0.804252 z m -1.283554,0 q 0,-0.19497 -0.06499,-0.381816 -0.05687,-0.186847 -0.178723,-0.324951 -0.121856,-0.146228 -0.300579,-0.235589 -0.178723,-0.08936 -0.414312,-0.08936 -0.227465,0 -0.406188,0.08936 -0.178723,0.08936 -0.308703,0.235589 -0.121856,0.146228 -0.19497,0.333074 -0.06499,0.186847 -0.06499,0.381817 0,0.19497 0.06499,0.381817 0.07311,0.186846 0.19497,0.333074 0.12998,0.146228 0.308703,0.235589 0.178723,0.08936 0.406188,0.08936 0.235589,0 0.414312,-0.08936 0.178723,-0.08936 0.300579,-0.235589 0.121856,-0.146228 0.178723,-0.333074 0.06499,-0.19497 0.06499,-0.389941 z"
         style="font-weight:bold;font-family:'Avenir Next';-inkscape-font-specification:'Avenir Next Bold';text-align:center;text-anchor:middle"
         id="path3385" />
    </g>
    <g
       aria-label="dub"
       transform="scale(0.98508406,1.0151418)"
       id="text108-4-5-3-8"
       style="font-size:8.12376px;line-height:1.25;fill:#b7b7c8;fill-opacity:0.513725;stroke-width:0.590803;stroke-linejoin:round">
      <path
         d="M 81.693912,9.7904663 V 9.2624219 h -0.01625 q -0.19497,0.3087029 -0.56054,0.4793018 -0.357445,0.1624753 -0.763633,0.1624753 -0.454931,0 -0.812376,-0.1787228 Q 79.18367,9.5467535 78.931834,9.2542981 78.688121,8.953719 78.558141,8.5637785 q -0.12998,-0.3899405 -0.12998,-0.812376 0,-0.4224355 0.12998,-0.8042523 0.138104,-0.3899405 0.381817,-0.6823958 0.251836,-0.2924554 0.601158,-0.4630544 0.357445,-0.1705989 0.796128,-0.1705989 0.446807,0 0.75551,0.1705989 0.308703,0.170599 0.479302,0.373693 h 0.01625 V 3.6489036 H 82.9206 v 6.1415627 z m -0.04874,-2.03094 q 0,-0.1949703 -0.07311,-0.3818168 -0.06499,-0.1868465 -0.19497,-0.3330741 -0.121857,-0.1462277 -0.300579,-0.2355891 -0.178723,-0.089361 -0.406188,-0.089361 -0.235589,0 -0.414312,0.089361 -0.178723,0.089361 -0.300579,0.2355891 -0.121857,0.1381039 -0.186847,0.3249504 -0.05687,0.1868464 -0.05687,0.3818167 0,0.1949702 0.05687,0.3899405 0.06499,0.1868465 0.186847,0.3330742 0.121856,0.1462276 0.300579,0.235589 0.178723,0.089361 0.414312,0.089361 0.227465,0 0.406188,-0.089361 0.178722,-0.089361 0.300579,-0.235589 0.12998,-0.1462277 0.19497,-0.3330742 0.07311,-0.1868465 0.07311,-0.3818167 z"
         style="font-weight:bold;font-family:'Avenir Next';-inkscape-font-specification:'Avenir Next Bold';text-align:center;text-anchor:middle"
         id="path3331" />
      <path
         d="M 86.642933,9.7904663 V 9.2299269 h -0.01625 q -0.07311,0.1381039 -0.19497,0.2599603 -0.113733,0.1218564 -0.276208,0.2112177 -0.154351,0.089361 -0.349322,0.1462277 -0.186846,0.056866 -0.398064,0.056866 -0.406188,0 -0.69052,-0.1462277 -0.276207,-0.1462277 -0.45493,-0.373693 -0.170599,-0.235589 -0.251837,-0.5280444 -0.07311,-0.3005791 -0.07311,-0.609282 V 5.7448337 h 1.34042 V 7.938249 q 0,0.1705989 0.02437,0.3249504 0.02437,0.1543514 0.08936,0.2762078 0.07311,0.1218564 0.186846,0.1949703 0.113733,0.06499 0.300579,0.06499 0.349322,0 0.528045,-0.2599604 0.186846,-0.2599603 0.186846,-0.609282 V 5.7448337 h 1.332297 v 4.0456326 z"
         style="font-weight:bold;font-family:'Avenir Next';-inkscape-font-specification:'Avenir Next Bold';text-align:center;text-anchor:middle"
         id="path3333" />
      <path
         d="m 93.469176,7.7514025 q 0,0.4224355 -0.12998,0.812376 -0.12998,0.3899405 -0.381817,0.6905196 -0.243713,0.2924554 -0.601158,0.4711781 -0.357446,0.1787228 -0.812376,0.1787228 -0.406188,0 -0.771758,-0.1624753 -0.357445,-0.1705989 -0.552415,-0.4793018 h -0.01625 V 9.7904663 H 88.976736 V 3.6489036 h 1.332297 V 6.175393 h 0.01625 Q 90.49588,5.972299 90.804582,5.8017 q 0.308703,-0.1705989 0.75551,-0.1705989 0.438683,0 0.788005,0.1705989 0.357445,0.170599 0.601158,0.4630544 0.251837,0.2924553 0.381817,0.6823958 0.138104,0.3818168 0.138104,0.8042523 z m -1.283554,0 q 0,-0.1949703 -0.06499,-0.3818167 -0.05687,-0.1868465 -0.178723,-0.3249504 -0.121856,-0.1462277 -0.300579,-0.2355891 -0.178723,-0.089361 -0.414312,-0.089361 -0.227465,0 -0.406188,0.089361 -0.178723,0.089361 -0.308703,0.2355891 -0.121856,0.1462276 -0.19497,0.3330741 -0.06499,0.1868465 -0.06499,0.3818168 0,0.1949702 0.06499,0.3818167 0.07311,0.1868465 0.19497,0.3330742 0.12998,0.1462276 0.308703,0.235589 0.178723,0.089361 0.406188,0.089361 0.235589,0 0.414312,-0.089361 0.178723,-0.089361 0.300579,-0.235589 0.121856,-0.1462277 0.178723,-0.3330742 0.06499,-0.1949703 0.06499,-0.3899405 z"
         style="font-weight:bold;font-family:'Avenir Next';-inkscape-font-specification:'Avenir Next Bold';text-align:center;text-anchor:middle"
         id="path3335" />
    </g>
    <g
       aria-label="doc"
       transform="matrix(0,-0.98508406,1.0151418,0,0,0)"
       id="text108-4-5-3-8-5"
       style="font-size:8.12376px;line-height:1.25;fill:#b7b7c8;fill-opacity:0.513725;stroke-width:0.590803;stroke-linejoin:round">
      <path
         d="m -25.883196,73.377731 v -0.528044 h -0.01625 q -0.19497,0.308703 -0.56054,0.479302 -0.357445,0.162475 -0.763633,0.162475 -0.454931,0 -0.812376,-0.178723 -0.357446,-0.178722 -0.609282,-0.471178 -0.243713,-0.300579 -0.373693,-0.690519 -0.12998,-0.389941 -0.12998,-0.812376 0,-0.422436 0.12998,-0.804253 0.138104,-0.38994 0.381817,-0.682396 0.251836,-0.292455 0.601158,-0.463054 0.357445,-0.170599 0.796128,-0.170599 0.446807,0 0.75551,0.170599 0.308703,0.170599 0.479302,0.373693 h 0.01625 v -2.526489 h 1.332296 v 6.141562 z m -0.04874,-2.03094 q 0,-0.19497 -0.07311,-0.381816 -0.06499,-0.186847 -0.19497,-0.333075 -0.121857,-0.146227 -0.300579,-0.235589 -0.178723,-0.08936 -0.406188,-0.08936 -0.235589,0 -0.414312,0.08936 -0.178723,0.08936 -0.300579,0.235589 -0.121857,0.138104 -0.186847,0.324951 -0.05687,0.186846 -0.05687,0.381817 0,0.19497 0.05687,0.38994 0.06499,0.186846 0.186847,0.333074 0.121856,0.146228 0.300579,0.235589 0.178723,0.08936 0.414312,0.08936 0.227465,0 0.406188,-0.08936 0.178722,-0.08936 0.300579,-0.235589 0.12998,-0.146228 0.19497,-0.333074 0.07311,-0.186846 0.07311,-0.381817 z"
         style="font-weight:bold;font-family:'Avenir Next';-inkscape-font-specification:'Avenir Next Bold';text-align:center;text-anchor:middle"
         id="path3406" />
      <path
         d="m -19.309423,71.338668 q 0,0.495549 -0.178723,0.901737 -0.178723,0.398064 -0.487426,0.682396 -0.308703,0.276208 -0.714891,0.430559 -0.406188,0.154351 -0.869242,0.154351 -0.45493,0 -0.869242,-0.154351 -0.406188,-0.154351 -0.714891,-0.430559 -0.300579,-0.284332 -0.479302,-0.682396 -0.178723,-0.406188 -0.178723,-0.901737 0,-0.49555 0.178723,-0.893614 0.178723,-0.398064 0.479302,-0.674272 0.308703,-0.276208 0.714891,-0.422436 0.414312,-0.146227 0.869242,-0.146227 0.463054,0 0.869242,0.146227 0.406188,0.146228 0.714891,0.422436 0.308703,0.276208 0.487426,0.674272 0.178723,0.398064 0.178723,0.893614 z m -1.283554,0 q 0,-0.194971 -0.06499,-0.381817 -0.06499,-0.186847 -0.186847,-0.324951 -0.121856,-0.146227 -0.300579,-0.235589 -0.178723,-0.08936 -0.414312,-0.08936 -0.235589,0 -0.414312,0.08936 -0.178722,0.08936 -0.300579,0.235589 -0.113732,0.138104 -0.178723,0.324951 -0.05687,0.186846 -0.05687,0.381817 0,0.19497 0.05687,0.381816 0.06499,0.186847 0.186847,0.341198 0.121856,0.146228 0.300579,0.235589 0.178723,0.08936 0.414312,0.08936 0.235589,0 0.414312,-0.08936 0.178722,-0.08936 0.300579,-0.235589 0.121856,-0.154351 0.178723,-0.341198 0.06499,-0.186846 0.06499,-0.381816 z"
         style="font-weight:bold;font-family:'Avenir Next';-inkscape-font-specification:'Avenir Next Bold';text-align:center;text-anchor:middle"
         id="path3408" />
      <path
         d="m -15.671502,70.640024 q -0.113732,-0.146228 -0.308703,-0.235589 -0.19497,-0.08936 -0.398064,-0.08936 -0.211218,0 -0.381817,0.08936 -0.170599,0.08124 -0.292455,0.227465 -0.121856,0.138104 -0.19497,0.324951 -0.06499,0.186846 -0.06499,0.398064 0,0.211218 0.06499,0.398064 0.06499,0.186847 0.186846,0.333074 0.12998,0.138104 0.300579,0.219342 0.178723,0.08124 0.398065,0.08124 0.203094,0 0.398064,-0.07311 0.203094,-0.08124 0.32495,-0.227466 l 0.739262,0.901738 q -0.251836,0.243713 -0.6499,0.381817 -0.398065,0.138103 -0.844871,0.138103 -0.479302,0 -0.893614,-0.146227 -0.414312,-0.146228 -0.723015,-0.422436 -0.300579,-0.284331 -0.479302,-0.682396 -0.170599,-0.398064 -0.170599,-0.901737 0,-0.495549 0.170599,-0.893614 0.178723,-0.398064 0.479302,-0.674272 0.308703,-0.284331 0.723015,-0.430559 0.414312,-0.154351 0.88549,-0.154351 0.219341,0 0.430559,0.04062 0.219342,0.04062 0.414312,0.113733 0.203094,0.06499 0.365569,0.170599 0.170599,0.09749 0.292455,0.219342 z"
         style="font-weight:bold;font-family:'Avenir Next';-inkscape-font-specification:'Avenir Next Bold';text-align:center;text-anchor:middle"
         id="path3410" />
    </g>
    <g
       aria-label="dub"
       transform="matrix(0,0.98508406,-1.0151418,0,0,0)"
       id="text108-4-5-3-4"
       style="font-size:8.12376px;line-height:1.25;fill:#b7b7c8;fill-opacity:0.513725;stroke-width:0.590803;stroke-linejoin:round">
      <path
         d="m 17.231279,-94.156624 v -0.528044 h -0.01625 q -0.194971,0.308703 -0.56054,0.479302 -0.357445,0.162475 -0.763633,0.162475 -0.454931,0 -0.812376,-0.178723 -0.357446,-0.178723 -0.609282,-0.471178 -0.243713,-0.300579 -0.373693,-0.69052 -0.12998,-0.38994 -0.12998,-0.812376 0,-0.422435 0.12998,-0.804252 0.138104,-0.38994 0.381817,-0.682396 0.251836,-0.292455 0.601158,-0.463054 0.357445,-0.170599 0.796128,-0.170599 0.446807,0 0.75551,0.170599 0.308703,0.170599 0.479302,0.373693 h 0.01625 v -2.526493 h 1.332297 v 6.141566 z m -0.04874,-2.03094 q 0,-0.19497 -0.07311,-0.381817 -0.06499,-0.186846 -0.19497,-0.333074 -0.121857,-0.146227 -0.30058,-0.235589 -0.178722,-0.08936 -0.406188,-0.08936 -0.235589,0 -0.414311,0.08936 -0.178723,0.08936 -0.300579,0.235589 -0.121857,0.138104 -0.186847,0.324951 -0.05687,0.186846 -0.05687,0.381816 0,0.194971 0.05687,0.389941 0.06499,0.186846 0.186847,0.333074 0.121856,0.146228 0.300579,0.235589 0.178722,0.08936 0.414311,0.08936 0.227466,0 0.406188,-0.08936 0.178723,-0.08936 0.30058,-0.235589 0.12998,-0.146228 0.19497,-0.333074 0.07311,-0.186847 0.07311,-0.381817 z"
         style="font-weight:bold;font-family:'Avenir Next';-inkscape-font-specification:'Avenir Next Bold';text-align:center;text-anchor:middle"
         id="path3356" />
      <path
         d="m 22.1803,-94.156624 v -0.560539 h -0.01625 q -0.07311,0.138104 -0.19497,0.25996 -0.113733,0.121856 -0.276208,0.211218 -0.154352,0.08936 -0.349322,0.146227 -0.186846,0.05687 -0.398064,0.05687 -0.406188,0 -0.69052,-0.146228 -0.276207,-0.146228 -0.45493,-0.373693 -0.170599,-0.235589 -0.251837,-0.528044 -0.07311,-0.300579 -0.07311,-0.609282 v -2.502118 h 1.340421 v 2.193415 q 0,0.170599 0.02437,0.32495 0.02437,0.154352 0.08936,0.276208 0.07311,0.121856 0.186847,0.19497 0.113733,0.06499 0.300579,0.06499 0.349322,0 0.528044,-0.25996 0.186847,-0.25996 0.186847,-0.609282 v -2.185291 h 1.332297 v 4.045632 z"
         style="font-weight:bold;font-family:'Avenir Next';-inkscape-font-specification:'Avenir Next Bold';text-align:center;text-anchor:middle"
         id="path3358" />
      <path
         d="m 29.006543,-96.195688 q 0,0.422436 -0.12998,0.812376 -0.129981,0.389941 -0.381817,0.69052 -0.243713,0.292455 -0.601158,0.471178 -0.357446,0.178723 -0.812376,0.178723 -0.406188,0 -0.771758,-0.162475 -0.357445,-0.170599 -0.552415,-0.479302 h -0.01625 v 0.528044 h -1.226688 v -6.141566 H 25.8464 v 2.526493 h 0.01625 q 0.170599,-0.203094 0.479302,-0.373693 0.308703,-0.170599 0.75551,-0.170599 0.438683,0 0.788005,0.170599 0.357445,0.170599 0.601158,0.463054 0.251837,0.292456 0.381817,0.682396 0.138104,0.381817 0.138104,0.804252 z m -1.283554,0 q 0,-0.19497 -0.06499,-0.381816 -0.05687,-0.186847 -0.178723,-0.324951 -0.121857,-0.146227 -0.300579,-0.235589 -0.178723,-0.08936 -0.414312,-0.08936 -0.227465,0 -0.406188,0.08936 -0.178723,0.08936 -0.308703,0.235589 -0.121856,0.146228 -0.19497,0.333074 -0.06499,0.186847 -0.06499,0.381817 0,0.19497 0.06499,0.381817 0.07311,0.186846 0.19497,0.333074 0.12998,0.146228 0.308703,0.235589 0.178723,0.08936 0.406188,0.08936 0.235589,0 0.414312,-0.08936 0.178722,-0.08936 0.300579,-0.235589 0.121856,-0.146228 0.178723,-0.333074 0.06499,-0.19497 0.06499,-0.389941 z"
         style="font-weight:bold;font-family:'Avenir Next';-inkscape-font-specification:'Avenir Next Bold';text-align:center;text-anchor:middle"
         id="path3360" />
    </g>
  </g>
</svg>
