<?xml version="1.0" encoding="UTF-8" standalone="no"?>
<svg
   width="160"
   height="160"
   viewBox="0 0 42.333332 42.333332"
   version="1.1"
   id="svg8"
   inkscape:version="1.1.1 (c3084ef, 2021-09-22)"
   sodipodi:docname="E.inkscape.svg"
   inkscape:export-filename="_.exports/E.png"
   inkscape:export-xdpi="648"
   inkscape:export-ydpi="648"
   xmlns:inkscape="http://www.inkscape.org/namespaces/inkscape"
   xmlns:sodipodi="http://sodipodi.sourceforge.net/DTD/sodipodi-0.dtd"
   xmlns:xlink="http://www.w3.org/1999/xlink"
   xmlns="http://www.w3.org/2000/svg"
   xmlns:svg="http://www.w3.org/2000/svg"
   xmlns:rdf="http://www.w3.org/1999/02/22-rdf-syntax-ns#"
   xmlns:cc="http://creativecommons.org/ns#"
   xmlns:dc="http://purl.org/dc/elements/1.1/">
  <defs
     id="defs2">
    <linearGradient
       inkscape:collect="always"
       id="linearGradient1130">
      <stop
         style="stop-color:#ffffff;stop-opacity:0"
         offset="0"
         id="stop1122" />
      <stop
         style="stop-color:#ffffff;stop-opacity:0.77016127"
         offset="0.37333351"
         id="stop1124" />
      <stop
         style="stop-color:#ffffff;stop-opacity:1"
         offset="0.61250001"
         id="stop1126" />
      <stop
         style="stop-color:#ffffff;stop-opacity:0;"
         offset="1"
         id="stop1128" />
    </linearGradient>
    <linearGradient
       inkscape:collect="always"
       id="linearGradient1042-3">
      <stop
         style="stop-color:#ffffff;stop-opacity:0"
         offset="0"
         id="stop1055" />
      <stop
         style="stop-color:#ffffff;stop-opacity:0.77016127"
         offset="0.3875002"
         id="stop1064" />
      <stop
         style="stop-color:#ffffff;stop-opacity:1"
         offset="0.49999994"
         id="stop1062" />
      <stop
         style="stop-color:#ffffff;stop-opacity:0;"
         offset="1"
         id="stop1057" />
    </linearGradient>
    <rect
       x="42.333332"
       y="29.633331"
       width="63.499996"
       height="12.7"
       id="rect102" />
    <rect
       x="21.166666"
       y="4.2333331"
       width="192.14722"
       height="57.191177"
       id="rect80" />
    <linearGradient
       inkscape:collect="always"
       xlink:href="#linearGradient1042-3"
       id="linearGradient1060"
       gradientUnits="userSpaceOnUse"
       x1="-3.0883715e-08"
       y1="21.166666"
       x2="169.33333"
       y2="21.166666"
       gradientTransform="matrix(1.1250001,0,0,1,-10.583333,0)" />
    <linearGradient
       inkscape:collect="always"
       xlink:href="#linearGradient1130"
       id="linearGradient1120"
       x1="6.0281854"
       y1="25.421286"
       x2="156.73276"
       y2="25.421286"
       gradientUnits="userSpaceOnUse" />
  </defs>
  <sodipodi:namedview
     id="base"
     pagecolor="#808080"
     bordercolor="#666666"
     borderopacity="1.0"
     inkscape:pageopacity="0"
     inkscape:pageshadow="2"
     inkscape:zoom="3.6849736"
     inkscape:cx="78.697985"
     inkscape:cy="72.456421"
     inkscape:document-units="px"
     inkscape:current-layer="layer1"
     inkscape:document-rotation="0"
     showgrid="true"
     units="px"
     inkscape:window-width="1728"
     inkscape:window-height="968"
     inkscape:window-x="0"
     inkscape:window-y="38"
     inkscape:window-maximized="1"
     showguides="true"
     inkscape:snap-bbox="true"
     inkscape:bbox-paths="true"
     inkscape:bbox-nodes="true"
     inkscape:snap-bbox-edge-midpoints="true"
     inkscape:snap-bbox-midpoints="true"
     showborder="false"
     inkscape:showpageshadow="false"
     inkscape:pagecheckerboard="false">
    <inkscape:grid
       type="xygrid"
       id="grid76"
       empcolor="#404040"
       empopacity="0.25098039"
       color="#bfbfbf"
       opacity="0.12941176"
       dotted="false"
       spacingx="2.1166666"
       spacingy="2.1166666" />
    <sodipodi:guide
       position="0,42.333332"
       orientation="0,160"
       id="guide1553" />
    <sodipodi:guide
       position="42.333332,42.333332"
       orientation="160,0"
       id="guide1555" />
    <sodipodi:guide
       position="42.333332,0"
       orientation="0,-160"
       id="guide1557" />
    <sodipodi:guide
       position="0,0"
       orientation="-160,0"
       id="guide1559" />
    <sodipodi:guide
       position="0,42.333332"
       orientation="0,160"
       id="guide1561" />
    <sodipodi:guide
       position="42.333332,42.333332"
       orientation="160,0"
       id="guide1563" />
    <sodipodi:guide
       position="42.333332,0"
       orientation="0,-160"
       id="guide1565" />
    <sodipodi:guide
       position="0,0"
       orientation="-160,0"
       id="guide1567" />
  </sodipodi:namedview>
  <metadata
     id="metadata5">
    <rdf:RDF>
      <cc:Work
         rdf:about="">
        <dc:format>image/svg+xml</dc:format>
        <dc:type
           rdf:resource="http://purl.org/dc/dcmitype/StillImage" />
        <dc:title />
      </cc:Work>
    </rdf:RDF>
  </metadata>
  <g
     inkscape:label="Layer 1"
     inkscape:groupmode="layer"
     id="layer1">
    <text
       xml:space="preserve"
       id="text100"
       style="font-style:normal;font-weight:normal;font-size:10.5833px;line-height:1.25;font-family:sans-serif;white-space:pre;shape-inside:url(#rect102);fill:#000000;fill-opacity:1;stroke:none;stroke-linejoin:round" />
    <text
       xml:space="preserve"
       style="font-style:normal;font-weight:normal;font-size:10.5833px;line-height:1.25;font-family:sans-serif;fill:#000000;fill-opacity:1;stroke:none;stroke-width:0.264583;stroke-linejoin:round"
       x="48.683334"
       y="50.799999"
       id="text203"><tspan
         sodipodi:role="line"
         id="tspan201"
         x="48.683334"
         y="50.799999"
         style="stroke-width:0.264583;stroke-linejoin:round" /></text>
    <text
       xml:space="preserve"
       style="font-style:normal;font-weight:normal;font-size:10.5833px;line-height:1.25;font-family:sans-serif;fill:#000000;fill-opacity:1;stroke:none;stroke-width:0.264583"
       x="222.25"
       y="0"
       id="text1148"><tspan
         sodipodi:role="line"
         id="tspan1146"
         x="222.25"
         y="0"
         style="stroke-width:0.264583" /></text>
    <circle
       style="fill:#0044aa;fill-opacity:1;stroke:none;stroke-width:0.428625;stroke-linejoin:round;stroke-miterlimit:4;stroke-dasharray:none;stroke-opacity:1"
       id="path1033"
       cx="21.166666"
       cy="21.166666"
       r="21.166666" />
    <g
       aria-label="E"
       transform="scale(1.1638256,0.85923526)"
       id="text108-4-5-3-9"
       style="font-size:34.7942px;line-height:1.25;fill:#ffffff;stroke-width:2.53043;stroke-linejoin:round">
      <path
         d="M 10.092375,36.951454 V 12.31716 h 16.56204 v 5.045159 H 15.833418 v 4.627629 h 10.229495 v 4.766805 H 15.833418 v 5.114748 H 27.28071 v 5.079953 z"
         style="font-weight:bold;font-family:'Avenir Next';-inkscape-font-specification:'Avenir Next Bold';text-align:center;text-anchor:middle"
         id="path565" />
    </g>
    <text
       xml:space="preserve"
       style="font-style:normal;font-weight:normal;font-size:10.5833px;line-height:1.25;font-family:sans-serif;fill:#000000;fill-opacity:1;stroke:none;stroke-width:0.264583"
       x="120.65"
       y="50.799999"
       id="text1027"><tspan
         sodipodi:role="line"
         id="tspan1025"
         x="120.65"
         y="50.799999"
         style="stroke-width:0.264583" /></text>
    <text
       xml:space="preserve"
       style="font-style:normal;font-weight:normal;font-size:10.5833px;line-height:1.25;font-family:sans-serif;fill:#000000;fill-opacity:1;stroke:none;stroke-width:0.264583"
       x="105.83333"
       y="-4.2333331"
       id="text1031"><tspan
         sodipodi:role="line"
         id="tspan1029"
         x="105.83333"
         y="-4.2333331"
         style="stroke-width:0.264583" /></text>
    <text
       xml:space="preserve"
       style="font-style:normal;font-weight:normal;font-size:10.5833px;line-height:1.25;font-family:sans-serif;fill:#000000;fill-opacity:1;stroke:none;stroke-width:0.264583"
       x="44.450001"
       y="4.2333331"
       id="text912"><tspan
         sodipodi:role="line"
         id="tspan910"
         x="44.450001"
         y="4.2333331"
         style="stroke-width:0.264583" /></text>
    <g
       aria-label="dub"
       transform="scale(-0.98508406,-1.0151418)"
       id="text108-4-5-3"
       style="font-size:8.12376px;line-height:1.25;fill:#b7b7c8;fill-opacity:0.513725;stroke-width:0.590803;stroke-linejoin:round">
      <path
         d="m -25.741917,-31.911419 v -0.528044 h -0.01625 q -0.194971,0.308703 -0.56054,0.479302 -0.357445,0.162475 -0.763633,0.162475 -0.454931,0 -0.812376,-0.178723 -0.357446,-0.178723 -0.609282,-0.471178 -0.243713,-0.300579 -0.373693,-0.69052 -0.12998,-0.38994 -0.12998,-0.812376 0,-0.422435 0.12998,-0.804252 0.138104,-0.38994 0.381817,-0.682396 0.251836,-0.292455 0.601158,-0.463054 0.357445,-0.170599 0.796128,-0.170599 0.446807,0 0.75551,0.170599 0.308703,0.170599 0.479302,0.373693 h 0.01625 v -2.52649 h 1.332297 v 6.141563 z m -0.04874,-2.03094 q 0,-0.19497 -0.07311,-0.381817 -0.06499,-0.186846 -0.19497,-0.333074 -0.121857,-0.146228 -0.30058,-0.235589 -0.178722,-0.08936 -0.406188,-0.08936 -0.235589,0 -0.414311,0.08936 -0.178723,0.08936 -0.300579,0.235589 -0.121857,0.138104 -0.186847,0.324951 -0.05687,0.186846 -0.05687,0.381816 0,0.194971 0.05687,0.389941 0.06499,0.186846 0.186847,0.333074 0.121856,0.146228 0.300579,0.235589 0.178722,0.08936 0.414311,0.08936 0.227466,0 0.406188,-0.08936 0.178723,-0.08936 0.30058,-0.235589 0.12998,-0.146228 0.19497,-0.333074 0.07311,-0.186847 0.07311,-0.381817 z"
         style="font-weight:bold;font-family:'Avenir Next';-inkscape-font-specification:'Avenir Next Bold';text-align:center;text-anchor:middle"
         id="path686" />
      <path
         d="m -20.792897,-31.911419 v -0.560539 h -0.01625 q -0.07311,0.138104 -0.19497,0.25996 -0.113733,0.121856 -0.276208,0.211218 -0.154352,0.08936 -0.349322,0.146227 -0.186846,0.05687 -0.398064,0.05687 -0.406188,0 -0.69052,-0.146228 -0.276208,-0.146228 -0.45493,-0.373693 -0.170599,-0.235589 -0.251837,-0.528044 -0.07311,-0.300579 -0.07311,-0.609282 v -2.502119 h 1.340421 v 2.193416 q 0,0.170599 0.02437,0.32495 0.02437,0.154352 0.08936,0.276208 0.07311,0.121856 0.186847,0.19497 0.113733,0.06499 0.300579,0.06499 0.349322,0 0.528044,-0.25996 0.186847,-0.25996 0.186847,-0.609282 v -2.185292 h 1.332297 v 4.045633 z"
         style="font-weight:bold;font-family:'Avenir Next';-inkscape-font-specification:'Avenir Next Bold';text-align:center;text-anchor:middle"
         id="path688" />
      <path
         d="m -13.966653,-33.950483 q 0,0.422436 -0.12998,0.812376 -0.129981,0.389941 -0.381817,0.69052 -0.243713,0.292455 -0.601158,0.471178 -0.357446,0.178723 -0.812377,0.178723 -0.406188,0 -0.771757,-0.162475 -0.357445,-0.170599 -0.552415,-0.479302 h -0.01625 v 0.528044 h -1.226688 v -6.141563 h 1.332297 v 2.52649 h 0.01625 q 0.170599,-0.203094 0.479302,-0.373693 0.308703,-0.170599 0.75551,-0.170599 0.438683,0 0.788005,0.170599 0.357445,0.170599 0.601158,0.463054 0.251837,0.292456 0.381817,0.682396 0.138104,0.381817 0.138104,0.804252 z m -1.283554,0 q 0,-0.19497 -0.06499,-0.381816 -0.05687,-0.186847 -0.178722,-0.324951 -0.121857,-0.146228 -0.300579,-0.235589 -0.178723,-0.08936 -0.414312,-0.08936 -0.227465,0 -0.406188,0.08936 -0.178723,0.08936 -0.308703,0.235589 -0.121856,0.146228 -0.19497,0.333074 -0.06499,0.186847 -0.06499,0.381817 0,0.19497 0.06499,0.381817 0.07311,0.186846 0.19497,0.333074 0.12998,0.146228 0.308703,0.235589 0.178723,0.08936 0.406188,0.08936 0.235589,0 0.414312,-0.08936 0.178722,-0.08936 0.300579,-0.235589 0.121856,-0.146228 0.178722,-0.333074 0.06499,-0.19497 0.06499,-0.389941 z"
         style="font-weight:bold;font-family:'Avenir Next';-inkscape-font-specification:'Avenir Next Bold';text-align:center;text-anchor:middle"
         id="path690" />
    </g>
    <g
       aria-label="dub"
       transform="scale(0.98508406,1.0151418)"
       id="text108-4-5-3-8"
       style="font-size:8.12376px;line-height:1.25;fill:#b7b7c8;fill-opacity:0.513725;stroke-width:0.590803;stroke-linejoin:round">
      <path
         d="M 17.232403,9.790472 V 9.2624276 h -0.01625 q -0.19497,0.3087029 -0.560539,0.4793019 -0.357446,0.1624752 -0.763634,0.1624752 -0.45493,0 -0.812376,-0.1787228 -0.357445,-0.1787227 -0.609282,-0.471178 -0.243713,-0.3005792 -0.373693,-0.6905197 -0.12998,-0.3899405 -0.12998,-0.812376 0,-0.4224355 0.12998,-0.8042522 0.138104,-0.3899405 0.381817,-0.6823959 0.251837,-0.2924554 0.601158,-0.4630543 0.357446,-0.170599 0.796129,-0.170599 0.446807,0 0.755509,0.170599 0.308703,0.1705989 0.479302,0.3736929 h 0.01625 V 3.6489093 H 18.45909 V 9.790472 Z m -0.04874,-2.03094 q 0,-0.1949703 -0.07311,-0.3818168 -0.06499,-0.1868464 -0.19497,-0.3330741 -0.121856,-0.1462277 -0.300579,-0.2355891 -0.178723,-0.089361 -0.406188,-0.089361 -0.235589,0 -0.414312,0.089361 -0.178723,0.089361 -0.300579,0.2355891 -0.121856,0.1381039 -0.186846,0.3249504 -0.05687,0.1868465 -0.05687,0.3818167 0,0.1949703 0.05687,0.3899405 0.06499,0.1868465 0.186846,0.3330742 0.121856,0.1462277 0.300579,0.235589 0.178723,0.089361 0.414312,0.089361 0.227465,0 0.406188,-0.089361 0.178723,-0.089361 0.300579,-0.235589 0.12998,-0.1462277 0.19497,-0.3330742 0.07311,-0.1868465 0.07311,-0.3818167 z"
         style="font-weight:bold;font-family:'Avenir Next';-inkscape-font-specification:'Avenir Next Bold';text-align:center;text-anchor:middle"
         id="path636" />
      <path
         d="M 22.181423,9.790472 V 9.2299326 h -0.01625 q -0.07311,0.1381039 -0.19497,0.2599603 -0.113732,0.1218564 -0.276208,0.2112178 -0.154351,0.089361 -0.349321,0.1462277 -0.186847,0.056866 -0.398065,0.056866 -0.406188,0 -0.690519,-0.1462277 Q 19.979884,9.6117493 19.801161,9.384284 19.630562,9.148695 19.549325,8.8562396 19.476211,8.5556605 19.476211,8.2469576 V 5.7448394 h 1.34042 v 2.1934153 q 0,0.170599 0.02437,0.3249504 0.02437,0.1543515 0.08936,0.2762079 0.07311,0.1218564 0.186846,0.1949702 0.113733,0.06499 0.300579,0.06499 0.349322,0 0.528045,-0.2599603 Q 22.13268,8.2794526 22.13268,7.9301309 V 5.7448394 h 1.332297 V 9.790472 Z"
         style="font-weight:bold;font-family:'Avenir Next';-inkscape-font-specification:'Avenir Next Bold';text-align:center;text-anchor:middle"
         id="path638" />
      <path
         d="m 29.007666,7.7514082 q 0,0.4224355 -0.12998,0.812376 -0.12998,0.3899405 -0.381817,0.6905197 -0.243713,0.2924553 -0.601158,0.471178 -0.357445,0.1787228 -0.812376,0.1787228 -0.406188,0 -0.771757,-0.1624752 -0.357446,-0.170599 -0.552416,-0.4793019 h -0.01625 V 9.790472 H 24.515227 V 3.6489093 h 1.332296 v 2.5264894 h 0.01625 q 0.170599,-0.203094 0.479302,-0.3736929 0.308703,-0.170599 0.755509,-0.170599 0.438684,0 0.788005,0.170599 0.357446,0.1705989 0.601158,0.4630543 0.251837,0.2924554 0.381817,0.6823959 0.138104,0.3818167 0.138104,0.8042522 z m -1.283554,0 q 0,-0.1949702 -0.06499,-0.3818167 Q 27.602256,7.182745 27.480399,7.0446411 27.358543,6.8984134 27.17982,6.809052 q -0.178723,-0.089361 -0.414312,-0.089361 -0.227465,0 -0.406188,0.089361 -0.178722,0.089361 -0.308703,0.2355891 -0.121856,0.1462277 -0.19497,0.3330741 -0.06499,0.1868465 -0.06499,0.3818168 0,0.1949702 0.06499,0.3818167 0.07311,0.1868465 0.19497,0.3330742 0.129981,0.1462277 0.308703,0.235589 0.178723,0.089361 0.406188,0.089361 0.235589,0 0.414312,-0.089361 0.178723,-0.089361 0.300579,-0.235589 0.121857,-0.1462277 0.178723,-0.3330742 0.06499,-0.1949702 0.06499,-0.3899405 z"
         style="font-weight:bold;font-family:'Avenir Next';-inkscape-font-specification:'Avenir Next Bold';text-align:center;text-anchor:middle"
         id="path640" />
    </g>
    <g
       aria-label="doc"
       transform="matrix(0,-0.98508406,1.0151418,0,0,0)"
       id="text108-4-5-3-8-5"
       style="font-size:8.12376px;line-height:1.25;fill:#b7b7c8;fill-opacity:0.513725;stroke-width:0.590803;stroke-linejoin:round">
      <path
         d="m -25.883198,10.824877 v -0.528045 h -0.01625 q -0.19497,0.308703 -0.560539,0.479302 -0.357446,0.162475 -0.763634,0.162475 -0.454931,0 -0.812376,-0.178722 -0.357445,-0.178723 -0.609282,-0.471178 -0.243713,-0.3005795 -0.373693,-0.69052 -0.12998,-0.3899405 -0.12998,-0.812376 0,-0.4224356 0.12998,-0.8042523 0.138104,-0.3899405 0.381817,-0.6823959 0.251836,-0.2924553 0.601158,-0.4630543 0.357445,-0.1705989 0.796129,-0.1705989 0.446806,0 0.755509,0.1705989 0.308703,0.170599 0.479302,0.373693 h 0.01625 V 4.6833141 h 1.332296 v 6.1415629 z m -0.04874,-2.0309403 q 0,-0.1949702 -0.07311,-0.3818167 -0.06499,-0.1868465 -0.19497,-0.3330742 -0.121857,-0.1462277 -0.300579,-0.235589 -0.178723,-0.089361 -0.406188,-0.089361 -0.235589,0 -0.414312,0.089361 -0.178723,0.089361 -0.300579,0.235589 -0.121857,0.138104 -0.186847,0.3249504 -0.05687,0.1868465 -0.05687,0.3818168 0,0.1949702 0.05687,0.3899405 0.06499,0.1868464 0.186847,0.3330741 0.121856,0.1462277 0.300579,0.2355891 0.178723,0.089361 0.414312,0.089361 0.227465,0 0.406188,-0.089361 0.178722,-0.089361 0.300579,-0.2355891 0.12998,-0.1462277 0.19497,-0.3330741 0.07311,-0.1868465 0.07311,-0.3818168 z"
         style="font-weight:bold;font-family:'Avenir Next';-inkscape-font-specification:'Avenir Next Bold';text-align:center;text-anchor:middle"
         id="path711" />
      <path
         d="m -19.309425,8.785813 q 0,0.4955493 -0.178723,0.9017374 -0.178723,0.3980646 -0.487426,0.6823956 -0.308702,0.276208 -0.71489,0.43056 -0.406188,0.154351 -0.869243,0.154351 -0.45493,0 -0.869242,-0.154351 -0.406188,-0.154352 -0.714891,-0.43056 -0.300579,-0.284331 -0.479302,-0.6823956 -0.178723,-0.4061881 -0.178723,-0.9017374 0,-0.4955494 0.178723,-0.8936137 0.178723,-0.3980642 0.479302,-0.6742721 0.308703,-0.2762078 0.714891,-0.4224355 0.414312,-0.1462277 0.869242,-0.1462277 0.463055,0 0.869243,0.1462277 0.406188,0.1462277 0.71489,0.4224355 0.308703,0.2762079 0.487426,0.6742721 0.178723,0.3980643 0.178723,0.8936137 z m -1.283554,0 q 0,-0.1949703 -0.06499,-0.3818168 -0.06499,-0.1868464 -0.186847,-0.3249504 -0.121856,-0.1462277 -0.300579,-0.235589 -0.178723,-0.089361 -0.414312,-0.089361 -0.235589,0 -0.414312,0.089361 -0.178722,0.089361 -0.300579,0.235589 -0.113732,0.138104 -0.178722,0.3249504 -0.05687,0.1868465 -0.05687,0.3818168 0,0.1949702 0.05687,0.3818167 0.06499,0.1868465 0.186846,0.3411979 0.121856,0.1462277 0.300579,0.2355891 0.178723,0.089361 0.414312,0.089361 0.235589,0 0.414312,-0.089361 0.178722,-0.089361 0.300579,-0.2355891 0.121856,-0.1543514 0.178723,-0.3411979 0.06499,-0.1868465 0.06499,-0.3818167 z"
         style="font-weight:bold;font-family:'Avenir Next';-inkscape-font-specification:'Avenir Next Bold';text-align:center;text-anchor:middle"
         id="path713" />
      <path
         d="m -15.671504,8.0871696 q -0.113732,-0.1462277 -0.308703,-0.2355891 -0.19497,-0.089361 -0.398064,-0.089361 -0.211218,0 -0.381817,0.089361 -0.170599,0.081238 -0.292455,0.2274653 -0.121856,0.138104 -0.19497,0.3249504 -0.06499,0.1868465 -0.06499,0.3980643 0,0.2112178 0.06499,0.3980642 0.06499,0.1868465 0.186846,0.3330742 0.12998,0.1381039 0.300579,0.2193415 0.178723,0.081238 0.398065,0.081238 0.203094,0 0.398064,-0.073114 0.203094,-0.081238 0.32495,-0.2274653 l 0.739263,0.9017371 q -0.251837,0.243713 -0.649901,0.381817 -0.398065,0.138104 -0.844871,0.138104 -0.479302,0 -0.893614,-0.146228 -0.414312,-0.146227 -0.723015,-0.422435 -0.300579,-0.284332 -0.479301,-0.6823961 -0.170599,-0.3980643 -0.170599,-0.9017374 0,-0.4955494 0.170599,-0.8936136 0.178722,-0.3980643 0.479301,-0.6742721 0.308703,-0.2843316 0.723015,-0.4305593 0.414312,-0.1543515 0.88549,-0.1543515 0.219341,0 0.430559,0.040619 0.219342,0.040619 0.414312,0.1137327 0.203094,0.06499 0.365569,0.1705989 0.170599,0.097485 0.292456,0.2193416 z"
         style="font-weight:bold;font-family:'Avenir Next';-inkscape-font-specification:'Avenir Next Bold';text-align:center;text-anchor:middle"
         id="path715" />
    </g>
    <g
       aria-label="dub"
       transform="matrix(0,0.98508406,-1.0151418,0,0,0)"
       id="text108-4-5-3-4"
       style="font-size:8.12376px;line-height:1.25;fill:#b7b7c8;fill-opacity:0.513725;stroke-width:0.590803;stroke-linejoin:round">
      <path
         d="m 17.231281,-31.603762 v -0.528044 h -0.01625 q -0.194971,0.308703 -0.56054,0.479302 -0.357445,0.162475 -0.763633,0.162475 -0.454931,0 -0.812376,-0.178723 -0.357446,-0.178722 -0.609282,-0.471178 -0.243713,-0.300579 -0.373693,-0.690519 -0.12998,-0.389941 -0.12998,-0.812376 0,-0.422436 0.12998,-0.804253 0.138104,-0.38994 0.381816,-0.682396 0.251837,-0.292455 0.601159,-0.463054 0.357445,-0.170599 0.796128,-0.170599 0.446807,0 0.75551,0.170599 0.308703,0.170599 0.479302,0.373693 h 0.01625 v -2.526489 h 1.332297 v 6.141562 z m -0.04874,-2.03094 q 0,-0.19497 -0.07311,-0.381816 -0.06499,-0.186847 -0.19497,-0.333075 -0.121857,-0.146227 -0.30058,-0.235589 -0.178722,-0.08936 -0.406188,-0.08936 -0.235589,0 -0.414311,0.08936 -0.178723,0.08936 -0.30058,0.235589 -0.121856,0.138104 -0.186846,0.324951 -0.05687,0.186846 -0.05687,0.381817 0,0.19497 0.05687,0.38994 0.06499,0.186846 0.186846,0.333074 0.121857,0.146228 0.30058,0.235589 0.178722,0.08936 0.414311,0.08936 0.227466,0 0.406188,-0.08936 0.178723,-0.08936 0.30058,-0.235589 0.12998,-0.146228 0.19497,-0.333074 0.07311,-0.186846 0.07311,-0.381817 z"
         style="font-weight:bold;font-family:'Avenir Next';-inkscape-font-specification:'Avenir Next Bold';text-align:center;text-anchor:middle"
         id="path661" />
      <path
         d="m 22.180301,-31.603762 v -0.560539 h -0.01625 q -0.07311,0.138104 -0.19497,0.25996 -0.113733,0.121857 -0.276208,0.211218 -0.154352,0.08936 -0.349322,0.146228 -0.186846,0.05687 -0.398064,0.05687 -0.406188,0 -0.69052,-0.146228 -0.276208,-0.146227 -0.45493,-0.373693 -0.170599,-0.235589 -0.251837,-0.528044 -0.07311,-0.300579 -0.07311,-0.609282 v -2.502118 h 1.340421 v 2.193415 q 0,0.170599 0.02437,0.32495 0.02437,0.154352 0.08936,0.276208 0.07311,0.121857 0.186847,0.19497 0.113732,0.06499 0.300579,0.06499 0.349322,0 0.528044,-0.259961 0.186847,-0.25996 0.186847,-0.609282 v -2.185291 h 1.332297 v 4.045632 z"
         style="font-weight:bold;font-family:'Avenir Next';-inkscape-font-specification:'Avenir Next Bold';text-align:center;text-anchor:middle"
         id="path663" />
      <path
         d="m 29.006545,-33.642825 q 0,0.422435 -0.129981,0.812376 -0.12998,0.38994 -0.381816,0.690519 -0.243713,0.292456 -0.601159,0.471178 -0.357445,0.178723 -0.812376,0.178723 -0.406188,0 -0.771757,-0.162475 -0.357445,-0.170599 -0.552415,-0.479302 h -0.01625 v 0.528044 h -1.226688 v -6.141562 h 1.332297 v 2.526489 h 0.01625 q 0.170599,-0.203094 0.479302,-0.373693 0.308703,-0.170599 0.75551,-0.170599 0.438683,0 0.788005,0.170599 0.357445,0.170599 0.601158,0.463054 0.251837,0.292456 0.381817,0.682396 0.138104,0.381817 0.138104,0.804253 z m -1.283555,0 q 0,-0.194971 -0.06499,-0.381817 -0.05687,-0.186847 -0.178722,-0.324951 -0.121857,-0.146227 -0.300579,-0.235589 -0.178723,-0.08936 -0.414312,-0.08936 -0.227466,0 -0.406188,0.08936 -0.178723,0.08936 -0.308703,0.235589 -0.121857,0.146228 -0.19497,0.333075 -0.06499,0.186846 -0.06499,0.381816 0,0.194971 0.06499,0.381817 0.07311,0.186846 0.19497,0.333074 0.12998,0.146228 0.308703,0.235589 0.178722,0.08936 0.406188,0.08936 0.235589,0 0.414312,-0.08936 0.178722,-0.08936 0.300579,-0.235589 0.121856,-0.146228 0.178722,-0.333074 0.06499,-0.19497 0.06499,-0.38994 z"
         style="font-weight:bold;font-family:'Avenir Next';-inkscape-font-specification:'Avenir Next Bold';text-align:center;text-anchor:middle"
         id="path665" />
    </g>
  </g>
</svg>
