<REAPER_PROJECT 0.1 "6.23/OSX64-clang" 1636372817
  RIPPLE 0
  GROUPOVERRIDE 0 0 0
  AUTOXFADE 1
  ENVATTACH 1
  POOLEDENVATTACH 0
  MIXERUIFLAGS 11 52
  PEAKGAIN 1.61051
  FEEDBACK 0
  PANLAW 1
  PROJOFFS 0 0 0
  MAXPROJLEN 0 600
  GRID 3199 8 1 8 1 0 0 0
  TIMEMODE 1 5 -1 30 0 0 -1
  VIDEO_CONFIG 0 0 256
  PANMODE 3
  CURSOR 0
  ZOOM 1.98828897689222 0 0
  VZOOMEX 0 0
  USE_REC_CFG 0
  RECMODE 1
  SMPTESYNC 0 30 100 40 1000 300 0 0 1 0 0
  LOOP 1
  LOOPGRAN 0 4
  RECORD_PATH "" ""
  <RECORD_CFG
  >
  <APPLYFX_CFG
  >
  RENDER_FILE ""
  RENDER_PATTERN ""
  RENDER_FMT 0 2 0
  RENDER_1X 0
  RENDER_RANGE 1 0 0 18 1000
  RENDER_RESAMPLE 3 0 1
  RENDER_ADDTOPROJ 0
  RENDER_STEMS 0
  RENDER_DITHER 0
  TIMELOCKMODE 1
  TEMPOENVLOCKMODE 1
  ITEMMIX 0
  DEFPITCHMODE 589824 0
  TAKELANE 1
  SAMPLERATE 44100 0 0
  <RENDER_CFG
  >
  LOCK 1
  <METRONOME 5 2
    VOL 1 1
    FREQ 800 1600 1
    BEATLEN 4
    SAMPLES "" ""
    PATTERN 2863311530 2863311529
  >
  GLOBAL_AUTO -1
  TEMPO 120 4 4
  PLAYRATE 1 0 0.25 4
  SELECTION 0 0
  SELECTION2 0 0
  MASTERAUTOMODE 0
  MASTERTRACKHEIGHT 56 0
  MASTERPEAKCOL 16576
  MASTERMUTESOLO 0
  MASTERTRACKVIEW 0 0.6667 0.5 0.5 0 0 0 0 0 0 -1 -1 0
  MASTERHWOUT 0 0 1 0 0 0 0 -1
  MASTER_NCH 2 2
  MASTER_VOLUME 1 0 -1 -1 1
  MASTER_FX 1
  MASTER_SEL 0
  <MASTERFXLIST
    WNDRECT 471 71 1199 716
    SHOW 0
    LASTSEL 0
    DOCKED 0
  >
  <MASTERPLAYSPEEDENV
    EGUID {8F2A3379-5F42-6F46-BE2D-3C6A785FD8AC}
    ACT 0 -1
    VIS 0 1 1
    LANEHEIGHT 0 0
    ARM 0
    DEFSHAPE 0 -1 -1
  >
  <TEMPOENVEX
    EGUID {456A793D-3BEC-0F45-84D3-A4E11143861C}
    ACT 0 -1
    VIS 1 0 1
    LANEHEIGHT 0 0
    ARM 0
    DEFSHAPE 1 -1 -1
    PT 0.000000000000 150.0000000000 1 262148 1 1
  >
  <PROJBAY
  >
  <TRACK {DB356EE0-C468-1742-9E77-CF04FF9FAD79}
    NAME "Bass line"
    PEAKCOL 16576
    BEAT -1
    AUTOMODE 0
    VOLPAN 1 0 -1 -1 1
    MUTESOLO 0 0 0
    IPHASE 0
    PLAYOFFS 0 1
    ISBUS 0 0
    BUSCOMP 0 0 0 0 0
    SHOWINMIX 1 0.6667 0.5 1 0.5 0 -1 0
    FREEMODE 0
    SEL 0
    REC 0 5088 1 0 0 0 0
    VU 2
    TRACKHEIGHT 0 0 0 0 0 0
    INQ 0 0 0 0.5 100 0 0 100
    NCHAN 6
    FX 1
    TRACKID {DB356EE0-C468-1742-9E77-CF04FF9FAD79}
    PERF 0
    MIDIOUT -1
    MAINSEND 0 0
    <FXCHAIN
      WNDRECT 279 179 1231 598
      SHOW 0
      LASTSEL 0
      DOCKED 0
      BYPASS 0 0 0
      <VST "VST3i: Triangle3MonoSyn (CabbageAudio    ) (6 out)" Triangle3MonoSynth.vst3 0 "" 97607883{ABCDEF019182FAEB4361626230303131} ""
        y2DRBe5e7f4AAAAABgAAAAEAAAAAAAAAAgAAAAAAAAAEAAAAAAAAAAgAAAAAAAAAEAAAAAAAAAAgAAAAAAAAABMCAAABAAAA//8QAA==
        AwIAAAEAAABWQzIhvgEAADw/eG1sIHZlcnNpb249IjEuMCIgZW5jb2Rpbmc9IlVURi04Ij8+IDxDQUJCQUdFX1BSRVNFVFM+PFBSRVNFVDAgUHJlc2V0TmFtZT0iQ0FC
        QkFHRV9QUkVTRVRTIDAiIGluc3RhbmNlTmFtZT0iIiB0cmFja0luZGV4PSIxIiBwbHVnaW5JbmRleD0iMCIgcGx1Z2luVXVpZD0iMzY5ZDYyZDJjZmFlNGIxZThjMjU4
        MzdhNmNiNjBlMmMiIGZpcnN0X3RhYl9idWdfd29ya2Fyb3VuZF90YWI9IjAuMCIgczg4X3RhYj0iMC4wIiBsb2dfdGFiPSIxLjAiIFM4OF9rbm9iXzE9IjAuMCIgUzg4
        X2tub2JfMj0iMC4wIiBTODhfa25vYl8zPSIwLjAiIFM4OF9rbm9iXzQ9IjAuMCIgUzg4X2tub2JfNT0iMC4wIiBTODhfa25vYl82PSIwLjAiIFM4OF9rbm9iXzc9IjAu
        MCIgUzg4X2tub2JfOD0iMC4wIiBTODhfcGl0Y2hiZW5kPSIwLjAiIFM4OF9tb2R3aGVlbD0iMC4wIi8+PC9DQUJCQUdFX1BSRVNFVFM+AAAAAAAAAAAASlVDRVByaXZh
        dGVEYXRhAAEBQnlwYXNzAAEBAwAdAAAAAAAAAEpVQ0VQcml2YXRlRGF0YQAAAAAAAAAA
        AAAQAAAA
      >
      FLOATPOS 0 0 0 0
      FXID {B6205301-600E-9445-8B1D-DE38F423C8AC}
      WAK 0 0
    >
    <ITEM
      POSITION 3.2
      SNAPOFFS 0
      LENGTH 2035.2
      LOOP 1
      ALLTAKES 0
      FADEIN 1 0 0 1 0 0 0
      FADEOUT 1 0 0 1 0 0 0
      MUTE 0 0
      SEL 0
      IGUID {812607FC-4F0E-8445-87EB-CDDA5B7682E7}
      IID 17
      NAME "01-Bass line-Recorded MIDI-glued"
      VOLPAN 1 0 1 -1
      SOFFS 0 0
      PLAYRATE 1 1 0 -1 0 0.0025
      CHANMODE 0
      GUID {DFC465B8-6B64-6148-BD4C-E94D08B76C90}
      <SOURCE MIDI
        HASDATA 1 960 QN
        CCINTERP 32
        POOLEDEVTS {4EC2C2CE-D766-DA48-956A-536A6A4E06E7}
        E 0 90 24 55
        E 153 80 24 00
        E 271 90 24 50
        E 936 80 24 00
        E 24 90 27 5c
        E 412 80 27 00
        E 504 90 27 6b
        E 977 90 29 63
        E 38 80 27 00
        E 400 80 29 00
        E 452 90 29 68
        E 971 90 2b 4e
        E 33 80 29 00
        E 445 90 29 51
        E 65 80 2b 00
        E 357 80 29 00
        E 2 90 27 4c
        E 442 80 27 00
        E 45 90 24 4e
        E 492 90 22 4d
        E 38 80 24 00
        E 520 90 24 5e
        E 25 80 22 00
        E 211 80 24 00
        E 208 90 24 4d
        E 1036 90 27 5e
        E 52 80 24 00
        E 386 80 27 00
        E 484 90 27 64
        E 914 90 29 60
        E 50 80 27 00
        E 433 80 29 00
        E 496 90 29 65
        E 947 90 2b 4e
        E 22 80 29 00
        E 458 90 29 4f
        E 52 80 2b 00
        E 407 80 29 00
        E 17 90 27 4b
        E 444 80 27 00
        E 31 90 24 54
        E 481 90 22 4d
        E 29 80 24 00
        E 476 90 24 63
        E 1 80 22 00
        E 229 80 24 00
        E 272 90 24 46
        E 996 90 27 59
        E 62 80 24 00
        E 387 80 27 00
        E 471 90 27 55
        E 932 90 29 5c
        E 26 80 27 00
        E 474 80 29 00
        E 432 90 29 65
        E 907 90 2b 4d
        E 33 80 29 00
        E 499 90 29 55
        E 29 80 2b 00
        E 426 80 29 00
        E 17 90 27 4e
        E 419 80 27 00
        E 49 90 24 50
        E 453 90 22 4b
        E 34 80 24 00
        E 526 80 22 00
        E 3 90 24 5a
        E 227 80 24 00
        E 219 90 24 47
        E 1099 80 24 00
        E 21 90 27 4c
        E 468 80 27 00
        E 496 90 27 59
        E 921 90 29 5c
        E 63 80 27 00
        E 361 80 29 00
        E 491 90 29 60
        E 913 90 2b 49
        E 2 80 29 00
        E 530 90 29 53
        E 28 80 2b 00
        E 395 80 29 00
        E 26 90 27 48
        E 407 80 27 00
        E 47 90 24 4f
        E 460 90 22 4b
        E 24 80 24 00
        E 523 90 24 5e
        E 6 80 22 00
        E 202 80 24 00
        E 207 90 24 59
        E 1003 90 27 62
        E 63 80 24 00
        E 368 80 27 00
        E 518 90 27 59
        E 973 90 29 67
        E 53 80 27 00
        E 336 80 29 00
        E 560 90 29 55
        E 942 90 2b 4b
        E 24 80 29 00
        E 466 90 29 4e
        E 31 80 2b 00
        E 426 80 29 00
        E 13 90 27 49
        E 423 80 27 00
        E 38 90 24 58
        E 460 90 22 49
        E 12 80 24 00
        E 515 90 24 61
        E 27 80 22 00
        E 177 80 24 00
        E 200 90 24 4d
        E 979 90 27 4e
        E 77 80 24 00
        E 316 80 27 00
        E 529 90 27 5b
        E 993 90 29 61
        E 35 80 27 00
        E 428 80 29 00
        E 513 90 29 61
        E 1007 90 2b 4d
        E 17 80 29 00
        E 470 90 29 4f
        E 6 80 2b 00
        E 441 80 29 00
        E 18 90 27 47
        E 426 80 27 00
        E 53 90 24 59
        E 486 90 22 48
        E 21 80 24 00
        E 494 90 24 56
        E 32 80 22 00
        E 177 80 24 00
        E 230 90 24 4b
        E 1014 90 27 62
        E 71 80 24 00
        E 309 80 27 00
        E 478 90 27 4c
        E 1011 90 29 63
        E 65 80 27 00
        E 418 80 29 00
        E 504 90 29 63
        E 958 90 2b 4c
        E 25 80 29 00
        E 465 90 29 4c
        E 8 80 2b 00
        E 415 80 29 00
        E 11 90 27 49
        E 436 80 27 00
        E 45 90 24 4e
        E 467 90 22 48
        E 47 80 24 00
        E 477 90 24 63
        E 10 80 22 00
        E 223 80 24 00
        E 193 90 24 4b
        E 1020 90 27 64
        E 93 80 24 00
        E 348 80 27 00
        E 537 90 27 5d
        E 957 90 29 61
        E 51 80 27 00
        E 427 80 29 00
        E 502 90 29 62
        E 925 90 2b 4d
        E 41 80 29 00
        E 450 90 29 53
        E 36 80 2b 00
        E 395 80 29 00
        E 14 90 27 4e
        E 439 80 27 00
        E 29 90 24 55
        E 450 90 22 49
        E 22 80 24 00
        E 532 80 22 00
        E 3 90 24 56
        E 160 80 24 00
        E 235 90 24 50
        E 974 90 27 5c
        E 75 80 24 00
        E 324 80 27 00
        E 517 90 27 60
        E 1018 90 29 62
        E 84 80 27 00
        E 339 80 29 00
        E 531 90 29 5a
        E 1000 90 2b 4c
        E 11 80 29 00
        E 457 80 2b 00
        E 9 90 29 44
        E 423 80 29 00
        E 21 90 27 48
        E 447 80 27 00
        E 40 90 24 50
        E 482 90 22 4b
        E 19 80 24 00
        E 505 90 24 59
        E 15 80 22 00
        E 215 80 24 00
        E 265 90 24 48
        E 995 90 27 60
        E 74 80 24 00
        E 366 80 27 00
        E 521 90 27 68
        E 944 90 29 64
        E 49 80 27 00
        E 411 80 29 00
        E 493 90 29 64
        E 916 90 2b 49
        E 30 80 29 00
        E 455 90 29 4f
        E 25 80 2b 00
        E 429 80 29 00
        E 8 90 27 48
        E 444 80 27 00
        E 41 90 24 53
        E 501 90 22 48
        E 23 80 24 00
        E 473 90 24 59
        E 8 80 22 00
        E 205 80 24 00
        E 236 90 24 49
        E 1014 90 27 5c
        E 79 80 24 00
        E 291 80 27 00
        E 527 90 27 56
        E 914 90 29 58
        E 35 80 27 00
        E 449 80 29 00
        E 464 90 29 62
        E 971 90 2b 4a
        E 15 80 29 00
        E 487 90 29 4e
        E 16 80 2b 00
        E 450 80 29 00
        E 22 90 27 4a
        E 430 80 27 00
        E 39 90 24 50
        E 498 90 22 46
        E 30 80 24 00
        E 475 80 22 00
        E 9 90 24 58
        E 230 80 24 00
        E 206 90 24 4b
        E 998 90 27 68
        E 61 80 24 00
        E 378 80 27 00
        E 488 90 27 5d
        E 987 90 29 67
        E 40 80 27 00
        E 387 80 29 00
        E 465 90 29 62
        E 1029 90 2b 4e
        E 27 80 29 00
        E 456 90 29 50
        E 16 80 2b 00
        E 437 80 29 00
        E 12 90 27 4e
        E 439 80 27 00
        E 40 90 24 56
        E 466 90 22 4a
        E 20 80 24 00
        E 509 90 24 52
        E 32 80 22 00
        E 63 80 24 00
        E 0 b0 7b 00
        CCINTERP 32
        CHASE_CC_TAKEOFFS 1
        GUID {0D0EBE20-E4C0-E64C-9EA1-AFD1C6987746}
        IGNTEMPO 0 120 4 4
        SRCCOLOR 30
        VELLANE -1 100 0
        VELLANE 64 100 0
      >
    >
  >
  <TRACK {162F4BD4-8C12-7E49-BCCA-D572636B698D}
    NAME Noodles
    PEAKCOL 16576
    BEAT -1
    AUTOMODE 0
    VOLPAN 0.1271249718755 0 -1 -1 1
    MUTESOLO 1 0 0
    IPHASE 0
    PLAYOFFS 0 1
    ISBUS 0 0
    BUSCOMP 0 0 0 0 0
    SHOWINMIX 1 0.6667 0.5 1 0.5 0 -1 0
    FREEMODE 0
    SEL 0
    REC 0 5088 1 0 0 0 0
    VU 2
    TRACKHEIGHT 25 0 0 0 0 0
    INQ 0 0 0 0.5 100 0 0 100
    NCHAN 6
    FX 1
    TRACKID {162F4BD4-8C12-7E49-BCCA-D572636B698D}
    PERF 0
    MIDIOUT -1
    MAINSEND 0 0
    <FXCHAIN
      WNDRECT 279 179 1231 598
      SHOW 0
      LASTSEL 0
      DOCKED 0
      BYPASS 0 0 0
      <VST "VST3i: Triangle3MonoSyn (CabbageAudio    ) (6 out)" Triangle3MonoSynth.vst3 0 "" 97607883{ABCDEF019182FAEB4361626230303131} ""
        y2DRBe5e7f4AAAAABgAAAAEAAAAAAAAAAgAAAAAAAAAEAAAAAAAAAAgAAAAAAAAAEAAAAAAAAAAgAAAAAAAAABMCAAABAAAA//8QAA==
        AwIAAAEAAABWQzIhvgEAADw/eG1sIHZlcnNpb249IjEuMCIgZW5jb2Rpbmc9IlVURi04Ij8+IDxDQUJCQUdFX1BSRVNFVFM+PFBSRVNFVDAgUHJlc2V0TmFtZT0iQ0FC
        QkFHRV9QUkVTRVRTIDAiIGluc3RhbmNlTmFtZT0iIiB0cmFja0luZGV4PSIwIiBwbHVnaW5JbmRleD0iMCIgcGx1Z2luVXVpZD0iMzY5ZDYyZDJjZmFlNGIxZThjMjU4
        MzdhNmNiNjBlMmMiIGZpcnN0X3RhYl9idWdfd29ya2Fyb3VuZF90YWI9IjAuMCIgczg4X3RhYj0iMC4wIiBsb2dfdGFiPSIxLjAiIFM4OF9rbm9iXzE9IjAuMCIgUzg4
        X2tub2JfMj0iMC4wIiBTODhfa25vYl8zPSIwLjAiIFM4OF9rbm9iXzQ9IjAuMCIgUzg4X2tub2JfNT0iMC4wIiBTODhfa25vYl82PSIwLjAiIFM4OF9rbm9iXzc9IjAu
        MCIgUzg4X2tub2JfOD0iMC4wIiBTODhfcGl0Y2hiZW5kPSIwLjAiIFM4OF9tb2R3aGVlbD0iMC4wIi8+PC9DQUJCQUdFX1BSRVNFVFM+AAAAAAAAAAAASlVDRVByaXZh
        dGVEYXRhAAEBQnlwYXNzAAEBAwAdAAAAAAAAAEpVQ0VQcml2YXRlRGF0YQAAAAAAAAAA
        AAAQAAAA
      >
      FLOATPOS 0 0 0 0
      FXID {CC66981C-29D4-C844-A4DC-2D176EF709A0}
      WAK 0 0
    >
    <ITEM
      POSITION 0
      SNAPOFFS 0
      LENGTH 86.38610416666667
      LOOP 1
      ALLTAKES 0
      FADEIN 1 0 0 1 0 0 0
      FADEOUT 1 0 0 1 0 0 0
      MUTE 0 0
      SEL 0
      IGUID {4704FE2E-A337-AD43-8635-7FAD72AFFE90}
      IID 14
      NAME "02-Noodles-Recorded MIDI"
      VOLPAN 1 0 1 -1
      SOFFS 0 0
      PLAYRATE 1 1 0 -1 0 0.0025
      CHANMODE 0
      GUID {044E6C31-E131-044D-8C6B-874A1B439AE3}
      RECPASS 3
      <SOURCE MIDI
        HASDATA 1 960 QN
        CCINTERP 32
        POOLEDEVTS {663FD017-2E06-434B-BD14-4BC6B50990C8}
        E 38218 90 3f 4e
        E 2914 80 3f 00
        E 5 90 3e 47
        E 2367 80 3e 00
        E 478 90 37 4c
        E 1987 90 3c 4b
        E 22 80 37 00
        E 7632 80 3c 00
        E 26 90 48 50
        E 2783 90 4a 60
        E 77 80 48 00
        E 2612 80 4a 00
        E 237 90 4a 48
        E 488 90 4b 42
        E 78 80 4a 00
        E 463 90 4a 49
        E 46 80 4b 00
        E 351 80 4a 00
        E 58 90 48 4a
        E 443 90 46 48
        E 55 80 48 00
        E 1422 90 48 4e
        E 27 80 46 00
        E 1334 90 43 4b
        E 53 80 48 00
        E 4004 80 43 00
        E 815 90 4f 59
        E 413 80 4f 00
        E 63 90 43 3f
        E 357 80 43 00
        E 496 90 4f 4c
        E 547 90 43 4a
        E 208 80 4f 00
        E 791 90 48 4c
        E 3953 80 43 00
        E 38 80 48 00
        E 834 90 4f 4f
        E 503 80 4f 00
        E 54 90 43 45
        E 400 80 43 00
        E 413 90 4f 4d
        E 594 90 43 49
        E 31 80 4f 00
        E 893 90 50 50
        E 1531 80 50 00
        E 12 90 4f 50
        E 2275 80 43 00
        E 99 80 4f 00
        E 807 90 4f 4e
        E 501 80 4f 00
        E 9 90 43 4b
        E 671 80 43 00
        E 128 90 4f 4c
        E 584 90 43 44
        E 973 90 48 5d
        E 106 80 4f 00
        E 159 80 43 00
        E 1256 90 4a 4f
        E 159 80 48 00
        E 1724 80 4a 00
        E 370 90 48 4d
        E 547 90 43 44
        E 26 80 48 00
        E 444 90 4f 5c
        E 27 d0 01 00
        E 24 d0 00 00
        E 67 80 43 00
        E 1299 90 48 4c
        E 1332 80 4f 00
        E 115 90 4b 59
        E 140 80 48 00
        E 1357 90 4a 67
        E 64 80 4b 00
        E 1376 90 48 4d
        E 80 80 4a 00
        E 898 90 43 4c
        E 4 80 48 00
        E 984 90 46 5b
        E 16 80 43 00
        E 1411 90 48 50
        E 9 80 46 00
        E 11781 80 48 00
        E 2088 90 48 4e
        E 479 90 4a 45
        E 69 80 48 00
        E 488 90 48 3c
        E 27 80 4a 00
        E 391 80 48 00
        E 21 90 43 3f
        E 102 80 43 00
        E 365 90 48 4c
        E 1424 80 48 00
        E 12 90 43 4d
        E 1437 90 46 46
        E 39 80 43 00
        E 1374 90 48 47
        E 36 80 46 00
        E 1469 90 43 42
        E 174 80 48 00
        E 698 80 43 00
        E 30 90 41 4b
        E 1017 80 41 00
        E 9 90 3f 4b
        E 1440 90 41 4a
        E 52 80 3f 00
        E 1271 80 41 00
        E 59 90 3c 49
        E 1743 b0 40 7f
        E 943 80 3c 00
        E 1079 90 43 4c
        E 167 b0 40 00
        E 329 90 48 4b
        E 26 80 43 00
        E 515 90 4a 51
        E 78 80 48 00
        E 1343 90 4b 4b
        E 45 80 4a 00
        E 1378 90 48 47
        E 85 80 4b 00
        E 4393 80 48 00
        E 248 90 54 6a
        E 1464 90 4f 45
        E 3535 80 4f 00
        E 908 90 4f 4b
        E 623 90 50 3a
        E 10 80 54 00
        E 79 80 4f 00
        E 804 90 52 44
        E 25 80 50 00
        E 497 90 50 46
        E 54 80 52 00
        E 1258 80 50 00
        E 9 90 4f 4a
        E 3740 80 4f 00
        E 435 90 48 49
        E 444 90 4b 48
        E 47 80 48 00
        E 477 90 4d 47
        E 52 80 4b 00
        E 412 80 4d 00
        E 13 90 4f 4e
        E 557 90 4d 4c
        E 54 80 4f 00
        E 1567 90 4b 40
        E 88 80 4d 00
        E 1177 80 4b 00
        E 38 90 48 4a
        E 1529 90 46 4b
        E 60 80 48 00
        E 1322 90 43 43
        E 43 80 46 00
        E 420 90 46 44
        E 112 80 43 00
        E 360 90 48 48
        E 87 80 46 00
        E 402 80 48 00
        E 18 90 4b 49
        E 462 90 48 4a
        E 57 80 4b 00
        E 6836 80 48 00
        E 739 90 43 50
        E 527 90 4f 54
        E 533 80 43 00
        E 5 80 4f 00
        E 244 90 43 3c
        E 622 90 4f 4d
        E 624 80 4f 00
        E 336 90 4d 53
        E 538 90 4f 5e
        E 125 80 4d 00
        E 625 80 4f 00
        E 21 80 43 00
        E 114 90 4d 69
        E 617 80 4d 00
        E 107 90 43 4b
        E 524 90 4f 5d
        E 877 80 4f 00
        E 196 90 4d 6b
        E 20 d0 08 00
        E 24 d0 00 00
        E 264 80 43 00
        E 288 80 4d 00
        E 493 90 4d 65
        E 495 90 43 56
        E 20 d0 04 00
        E 24 d0 00 00
        E 164 90 4f 53
        E 10 80 4d 00
        E 636 80 43 00
        E 114 80 4f 00
        E 50 90 4d 63
        E 434 90 4f 49
        E 75 80 4d 00
        E 1655 80 4f 00
        E 694 90 4f 4e
        E 905 90 50 45
        E 43 80 4f 00
        E 514 90 4f 4a
        E 80 80 50 00
        E 321 80 4f 00
        E 39 90 4d 40
        E 412 90 4f 4a
        E 8 80 4d 00
        E 420 80 4f 00
        E 32 90 4d 45
        E 438 80 4d 00
        E 28 90 4b 49
        E 75 80 4b 00
        E 435 90 48 41
        E 440 80 48 00
        E 6 90 4d 48
        E 507 90 4b 43
        E 25 80 4d 00
        E 421 80 4b 00
        E 36 90 48 48
        E 865 80 48 00
        E 16 90 46 3d
        E 593 80 46 00
        E 99 90 41 39
        E 6 90 43 3d
        E 150 80 41 00
        E 811 90 48 55
        E 69 80 43 00
        E 842 90 46 48
        E 119 80 48 00
        E 736 80 46 00
        E 42 90 43 4b
        E 452 80 43 00
        E 14 90 42 47
        E 487 90 43 42
        E 60 80 42 00
        E 454 90 42 4b
        E 70 80 43 00
        E 299 80 42 00
        E 52 90 41 46
        E 281 80 41 00
        E 266 90 3f 51
        E 865 80 3f 00
        E 7 90 3c 4b
        E 702 80 3c 00
        E 942 90 48 4c
        E 738 90 4b 46
        E 457 90 4d 46
        E 3 80 48 00
        E 103 80 4b 00
        E 360 90 4e 4c
        E 15 80 4d 00
        E 339 90 4d 37
        E 25 80 4e 00
        E 544 90 4b 45
        E 45 80 4d 00
        E 412 80 4b 00
        E 108 90 48 50
        E 636 80 48 00
        E 403 90 46 49
        E 46 90 43 4b
        E 38 80 46 00
        E 86 90 48 4e
        E 2552 80 43 00
        E 364 80 48 00
        E 2769 b0 7b 00
        CCINTERP 32
        CHASE_CC_TAKEOFFS 1
        GUID {C9EF1445-7373-3C45-8566-5F8E150FFD15}
        IGNTEMPO 0 120 4 4
        SRCCOLOR 26
        VELLANE -1 100 0
        VELLANE 64 100 0
      >
    >
  >
  <TRACK {BFD0C2B0-0289-B941-9269-E3B0EC2ED7A7}
    NAME Noodles
    PEAKCOL 16576
    BEAT -1
    AUTOMODE 0
    VOLPAN 0.16578262018909 0 -1 -1 1
    MUTESOLO 0 0 0
    IPHASE 0
    PLAYOFFS 0 1
    ISBUS 0 0
    BUSCOMP 0 0 0 0 0
    SHOWINMIX 1 0.6667 0.5 1 0.5 0 -1 0
    FREEMODE 0
    SEL 0
    REC 0 5088 1 0 0 0 0
    VU 2
    TRACKHEIGHT 25 0 0 0 0 0
    INQ 0 0 0 0.5 100 0 0 100
    NCHAN 6
    FX 1
    TRACKID {BFD0C2B0-0289-B941-9269-E3B0EC2ED7A7}
    PERF 0
    MIDIOUT -1
    MAINSEND 0 0
    <FXCHAIN
      WNDRECT 279 179 1231 598
      SHOW 0
      LASTSEL 0
      DOCKED 0
      BYPASS 0 0 0
      <VST "VST3i: Triangle3MonoSyn (CabbageAudio    ) (6 out)" Triangle3MonoSynth.vst3 0 "" 97607883{ABCDEF019182FAEB4361626230303131} ""
        y2DRBe5e7f4AAAAABgAAAAEAAAAAAAAAAgAAAAAAAAAEAAAAAAAAAAgAAAAAAAAAEAAAAAAAAAAgAAAAAAAAABMCAAABAAAA//8QAA==
        AwIAAAEAAABWQzIhvgEAADw/eG1sIHZlcnNpb249IjEuMCIgZW5jb2Rpbmc9IlVURi04Ij8+IDxDQUJCQUdFX1BSRVNFVFM+PFBSRVNFVDAgUHJlc2V0TmFtZT0iQ0FC
        QkFHRV9QUkVTRVRTIDAiIGluc3RhbmNlTmFtZT0iIiB0cmFja0luZGV4PSIwIiBwbHVnaW5JbmRleD0iMCIgcGx1Z2luVXVpZD0iMzY5ZDYyZDJjZmFlNGIxZThjMjU4
        MzdhNmNiNjBlMmMiIGZpcnN0X3RhYl9idWdfd29ya2Fyb3VuZF90YWI9IjAuMCIgczg4X3RhYj0iMC4wIiBsb2dfdGFiPSIxLjAiIFM4OF9rbm9iXzE9IjAuMCIgUzg4
        X2tub2JfMj0iMC4wIiBTODhfa25vYl8zPSIwLjAiIFM4OF9rbm9iXzQ9IjAuMCIgUzg4X2tub2JfNT0iMC4wIiBTODhfa25vYl82PSIwLjAiIFM4OF9rbm9iXzc9IjAu
        MCIgUzg4X2tub2JfOD0iMC4wIiBTODhfcGl0Y2hiZW5kPSIwLjAiIFM4OF9tb2R3aGVlbD0iMC4wIi8+PC9DQUJCQUdFX1BSRVNFVFM+AAAAAAAAAAAASlVDRVByaXZh
        dGVEYXRhAAEBQnlwYXNzAAEBAwAdAAAAAAAAAEpVQ0VQcml2YXRlRGF0YQAAAAAAAAAA
        AAAQAAAA
      >
      FLOATPOS 0 0 0 0
      FXID {0C3AE8DE-3EA7-1E4E-8D0E-67915936056B}
      WAK 0 0
    >
    <ITEM
      POSITION 0
      SNAPOFFS 0
      LENGTH 493.6074375
      LOOP 1
      ALLTAKES 0
      FADEIN 1 0 0 1 0 0 0
      FADEOUT 1 0 0 1 0 0 0
      MUTE 0 0
      SEL 0
      IGUID {C8ABD899-5A1C-0C4C-8092-442A7A46EA91}
      IID 18
      NAME "03-Noodles-Recorded MIDI"
      VOLPAN 1 0 1 -1
      SOFFS 0 0
      PLAYRATE 1 1 0 -1 0 0.0025
      CHANMODE 0
      GUID {3C025CC7-FBAD-AC4A-B973-546F02695B3E}
      RECPASS 4
      <SOURCE MIDI
        HASDATA 1 960 QN
        CCINTERP 32
        POOLEDEVTS {985E836E-C334-A945-89A5-36D436058CB7}
        E 22857 90 43 5c
        E 2870 90 4f 5e
        E 2042 b0 40 7f
        E 937 90 4d 4d
        E 23 80 4f 00
        E 161 b0 40 00
        E 721 90 4b 4e
        E 40 80 4d 00
        E 350 b0 40 7f
        E 583 90 48 50
        E 66 80 4b 00
        E 52 b0 40 00
        E 2653 80 43 00
        E 110 80 48 00
        E 4814 90 43 50
        E 2826 90 50 58
        E 227 b0 40 7f
        E 1302 80 50 00
        E 13 90 4f 51
        E 140 b0 40 00
        E 1283 90 48 4d
        E 186 b0 40 7f
        E 674 80 4f 00
        E 18 90 4b 52
        E 184 b0 40 00
        E 28 80 48 00
        E 791 90 4d 5a
        E 73 80 4b 00
        E 1352 90 4f 5b
        E 16 80 4d 00
        E 2885 80 43 00
        E 183 80 4f 00
        E 3134 90 4b 5c
        E 1326 80 4b 00
        E 12 90 43 4e
        E 1015 b0 40 7f
        E 478 90 48 4e
        E 220 b0 40 00
        E 1978 80 48 00
        E 54 80 43 00
        E 642 90 48 4f
        E 424 90 4a 4a
        E 48 80 48 00
        E 516 90 48 42
        E 68 80 4a 00
        E 442 80 48 00
        E 18 90 43 45
        E 438 90 48 4e
        E 27 d0 04 00
        E 23 d0 00 00
        E 1428 90 4b 4b
        E 166 80 48 00
        E 1237 90 4a 61
        E 42 80 4b 00
        E 2009 80 43 00
        E 66 80 4a 00
        E 2736 90 48 4c
        E 1391 90 4f 56
        E 30 80 48 00
        E 1332 90 43 4e
        E 1433 80 43 00
        E 109 90 43 43
        E 649 b0 40 7f
        E 626 80 43 00
        E 203 90 43 4b
        E 45 b0 40 00
        E 1308 80 43 00
        E 116 80 4f 00
        E 452 90 43 4d
        E 1410 90 48 52
        E 101 80 43 00
        E 3251 80 48 00
        E 2882 90 4f 5c
        E 1343 90 43 4a
        E 1022 80 43 00
        E 535 90 43 4c
        E 4033 80 43 00
        E 86 b0 40 7f
        E 77 80 4f 00
        E 348 b0 40 00
        E 182 90 43 4b
        E 1471 90 48 50
        E 1388 90 4a 5b
        E 30 80 48 00
        E 1453 90 4b 4d
        E 27 80 4a 00
        E 1371 90 48 4a
        E 41 80 4b 00
        E 1101 80 43 00
        E 45 80 48 00
        E 772 90 48 60
        E 1446 90 43 4d
        E 80 80 48 00
        E 957 b0 40 7f
        E 404 90 4a 54
        E 29 b0 40 00
        E 1463 90 4b 59
        E 6 80 4a 00
        E 1407 90 48 55
        E 29 80 4b 00
        E 1159 80 48 00
        E 3 80 43 00
        E 709 90 48 5e
        E 1328 90 43 4e
        E 53 80 48 00
        E 1462 90 4a 4e
        E 1520 90 4b 4f
        E 10 80 4a 00
        E 1421 90 48 58
        E 1 80 4b 00
        E 683 b0 40 7f
        E 294 80 43 00
        E 249 80 48 00
        E 239 b0 40 00
        E 394 90 4f 6d
        E 462 90 3c 54
        E 362 80 4f 00
        E 355 80 3c 00
        E 168 90 4f 63
        E 510 90 3c 63
        E 83 d0 04 00
        E 24 d0 00 00
        E 283 80 4f 00
        E 554 80 3c 00
        E 76 90 48 63
        E 95 d0 02 00
        E 24 d0 00 00
        E 477 90 3c 70
        E 27 d0 0c 00
        E 24 d0 00 00
        E 597 80 3c 00
        E 114 80 48 00
        E 129 90 4a 79
        E 120 d0 06 00
        E 24 d0 00 00
        E 361 90 3e 62
        E 23 d0 0a 00
        E 24 d0 00 00
        E 767 80 4a 00
        E 62 90 4b 73
        E 109 80 3e 00
        E 397 90 40 48
        E 336 80 4b 00
        E 74 90 4a 6f
        E 79 d0 08 00
        E 24 d0 00 00
        E 43 80 40 00
        E 386 90 3c 68
        E 27 d0 05 00
        E 24 d0 00 00
        E 367 80 4a 00
        E 64 90 48 6a
        E 25 d0 0a 00
        E 24 d0 00 00
        E 940 80 48 00
        E 2 80 3c 00
        E 333 90 43 4c
        E 1540 90 4f 64
        E 1488 90 4d 56
        E 38 80 4f 00
        E 978 b0 40 7f
        E 482 90 4b 4e
        E 43 80 4d 00
        E 202 b0 40 00
        E 816 90 4a 36
        E 138 80 4b 00
        E 55 80 43 00
        E 661 90 48 67
        E 31 80 4a 00
        E 2533 80 48 00
        E 1663 90 48 4a
        E 452 90 4b 48
        E 442 90 4d 48
        E 298 80 4b 00
        E 113 90 4f 4e
        E 8 80 4d 00
        E 561 80 48 00
        E 10 90 4d 49
        E 137 80 4f 00
        E 379 90 4b 4b
        E 59 80 4d 00
        E 415 90 48 47
        E 8 80 4b 00
        E 469 90 4b 4f
        E 64 80 48 00
        E 1416 90 4a 58
        E 34 80 4b 00
        E 1449 80 4a 00
        E 3 90 48 58
        E 1314 b0 40 7f
        E 446 80 48 00
        E 2328 b0 40 00
        E 653 90 41 5d
        E 437 b0 40 7f
        E 36 90 43 4a
        E 53 80 41 00
        E 307 b0 40 00
        E 110 90 48 53
        E 98 80 43 00
        E 346 90 41 4d
        E 166 80 48 00
        E 272 90 43 42
        E 471 90 48 60
        E 18 80 41 00
        E 5 d0 07 00
        E 24 d0 00 00
        E 15 80 43 00
        E 460 90 41 5e
        E 139 80 48 00
        E 306 90 43 41
        E 488 80 41 00
        E 45 90 48 5d
        E 56 80 43 00
        E 435 90 41 51
        E 162 80 48 00
        E 280 90 43 40
        E 426 80 41 00
        E 119 90 48 4e
        E 53 80 43 00
        E 433 90 41 50
        E 48 80 48 00
        E 427 90 43 41
        E 370 80 41 00
        E 170 90 48 65
        E 51 80 43 00
        E 366 80 48 00
        E 614 90 48 63
        E 462 90 4a 46
        E 414 80 48 00
        E 74 90 4f 62
        E 76 80 4a 00
        E 368 90 48 56
        E 130 80 4f 00
        E 322 90 4a 42
        E 518 80 48 00
        E 18 90 4f 59
        E 69 80 4a 00
        E 402 90 48 4a
        E 240 80 4f 00
        E 201 90 4a 4d
        E 467 90 4d 52
        E 17 80 4a 00
        E 190 80 48 00
        E 278 90 48 35
        E 227 80 4d 00
        E 244 90 4a 46
        E 505 90 4d 5c
        E 16 80 48 00
        E 47 80 4a 00
        E 434 80 4d 00
        E 1852 90 43 65
        E 397 80 43 00
        E 35 90 41 4b
        E 93 90 43 25
        E 309 80 43 00
        E 7 80 41 00
        E 110 90 48 5e
        E 497 90 41 4a
        E 330 80 48 00
        E 168 90 43 43
        E 59 80 41 00
        E 472 90 48 61
        E 155 80 43 00
        E 346 90 41 4f
        E 234 80 48 00
        E 270 90 43 43
        E 437 90 48 63
        E 84 80 43 00
        E 3 80 41 00
        E 265 b0 40 7f
        E 141 90 41 4d
        E 407 80 48 00
        E 83 90 43 4e
        E 31 80 41 00
        E 335 b0 40 00
        E 160 90 4f 6b
        E 8 80 43 00
        E 11 d0 08 00
        E 24 d0 00 00
        E 827 90 4d 5e
        E 61 80 4f 00
        E 993 90 4b 4e
        E 224 80 4d 00
        E 714 90 48 50
        E 40 80 4b 00
        E 438 90 4a 4d
        E 33 80 48 00
        E 457 90 4b 45
        E 34 80 4a 00
        E 463 90 4a 4b
        E 61 80 4b 00
        E 336 80 4a 00
        E 74 90 48 49
        E 381 80 48 00
        E 40 90 46 45
        E 493 80 46 00
        E 3 90 43 3f
        E 444 90 48 5b
        E 6 80 43 00
        E 22 d0 06 00
        E 24 d0 00 00
        E 2342 80 48 00
        E 1402 90 4f 6a
        E 494 90 43 42
        E 191 80 4f 00
        E 307 90 48 43
        E 18 80 43 00
        E 405 90 4f 5d
        E 79 80 48 00
        E 161 90 4b 4d
        E 19 80 4f 00
        E 1519 80 4b 00
        E 626 90 4f 68
        E 561 90 43 36
        E 73 90 45 25
        E 84 80 4f 00
        E 50 80 45 00
        E 251 90 48 41
        E 297 80 43 00
        E 117 90 4a 6d
        E 76 80 48 00
        E 876 90 4b 56
        E 35 80 4a 00
        E 789 80 4b 00
        E 646 90 4f 4e
        E 445 90 43 49
        E 203 80 4f 00
        E 308 90 48 47
        E 443 80 43 00
        E 24 90 4a 65
        E 132 80 48 00
        E 858 90 4b 55
        E 16 80 4a 00
        E 923 90 4d 6b
        E 7 80 4b 00
        E 939 80 4d 00
        E 12 90 4b 39
        E 836 80 4b 00
        E 8 90 4a 4b
        E 496 80 4a 00
        E 2 90 48 45
        E 460 90 4a 4b
        E 19 80 48 00
        E 513 90 48 4d
        E 33 80 4a 00
        E 394 80 48 00
        E 73 90 43 44
        E 464 90 46 4d
        E 59 80 43 00
        E 1427 80 46 00
        E 26 90 48 59
        E 1429 80 48 00
        E 30 90 43 4e
        E 1082 80 43 00
        E 377 90 4e 50
        E 63 90 48 4a
        E 82 90 4f 48
        E 8 80 4e 00
        E 517 80 48 00
        E 188 90 4d 49
        E 94 80 4f 00
        E 446 90 4b 43
        E 98 80 4d 00
        E 474 90 48 47
        E 35 80 4b 00
        E 632 90 4b 47
        E 52 80 48 00
        E 608 90 4d 53
        E 2 80 4b 00
        E 1415 80 4d 00
        E 18 90 48 4d
        E 2542 80 48 00
        E 359 90 43 4b
        E 507 90 46 45
        E 84 80 43 00
        E 392 80 46 00
        E 28 90 48 4b
        E 501 90 46 46
        E 63 80 48 00
        E 387 80 46 00
        E 13 90 43 4f
        E 446 90 42 43
        E 62 80 43 00
        E 87 80 42 00
        E 302 90 41 01
        E 544 80 41 00
        E 16 90 3f 4f
        E 1409 90 3c 5c
        E 2 80 3f 00
        E 20 d0 05 00
        E 24 d0 00 00
        E 370 80 3c 00
        E 611 90 43 4e
        E 60 90 41 24
        E 60 90 48 4a
        E 66 80 41 00
        E 1587 90 46 4a
        E 58 80 48 00
        E 1451 90 48 4d
        E 116 80 46 00
        E 244 80 43 00
        E 167 90 4b 4c
        E 7 80 48 00
        E 383 90 48 42
        E 76 80 4b 00
        E 419 90 46 42
        E 34 80 48 00
        E 399 80 46 00
        E 71 90 48 3f
        E 4 90 4a 50
        E 306 80 48 00
        E 1037 90 48 59
        E 42 80 4a 00
        E 1529 80 48 00
        E 18 90 43 4f
        E 2292 90 48 51
        E 80 80 43 00
        E 877 90 4a 4b
        E 72 80 48 00
        E 508 90 48 47
        E 73 80 4a 00
        E 379 80 48 00
        E 21 90 43 3e
        E 442 90 48 49
        E 57 80 43 00
        E 420 90 4a 42
        E 106 80 48 00
        E 378 90 48 35
        E 52 80 4a 00
        E 403 90 43 46
        E 15 80 48 00
        E 456 90 48 49
        E 145 80 43 00
        E 379 90 4a 46
        E 87 80 48 00
        E 417 90 48 45
        E 22 80 4a 00
        E 402 90 43 52
        E 7 80 48 00
        E 854 90 48 4a
        E 56 80 43 00
        E 932 90 43 4b
        E 65 80 48 00
        E 399 80 43 00
        E 3 90 4f 5d
        E 943 80 4f 00
        E 77 90 43 46
        E 577 90 4f 54
        E 692 80 43 00
        E 279 90 43 49
        E 9 80 4f 00
        E 495 90 4f 5b
        E 706 80 43 00
        E 246 80 4f 00
        E 8 90 43 49
        E 566 90 4f 64
        E 80 d0 09 00
        E 25 d0 00 00
        E 295 80 43 00
        E 426 90 43 56
        E 155 80 4f 00
        E 361 90 4d 55
        E 543 80 43 00
        E 351 90 43 4f
        E 60 80 4d 00
        E 420 90 4d 58
        E 248 80 43 00
        E 661 90 43 4d
        E 274 80 4d 00
        E 181 90 4b 59
        E 443 80 43 00
        E 497 90 43 4e
        E 124 80 4b 00
        E 521 90 4a 3f
        E 391 80 43 00
        E 463 90 43 4c
        E 444 80 4a 00
        E 55 90 48 5a
        E 134 80 43 00
        E 808 80 48 00
        E 8 90 43 4d
        E 564 90 46 5c
        E 21 d0 0c 00
        E 24 d0 00 00
        E 41 80 43 00
        E 273 90 47 2e
        E 393 80 47 00
        E 44 80 46 00
        E 94 90 43 4e
        E 518 90 48 4a
        E 78 80 43 00
        E 464 90 43 45
        E 130 80 48 00
        E 314 90 46 44
        E 107 80 43 00
        E 399 90 48 4a
        E 46 80 46 00
        E 421 90 43 46
        E 117 80 48 00
        E 366 90 46 42
        E 78 80 43 00
        E 351 90 48 62
        E 41 80 46 00
        E 976 80 48 00
        E 354 90 48 32
        E 148 90 43 25
        E 140 80 43 00
        E 696 90 43 43
        E 129 80 48 00
        E 312 90 48 45
        E 75 80 43 00
        E 553 80 48 00
        E 823 90 48 54
        E 240 80 48 00
        E 17 90 43 49
        E 162 90 48 4d
        E 101 80 43 00
        E 357 90 43 47
        E 48 80 48 00
        E 488 90 48 54
        E 73 80 43 00
        E 479 90 43 4e
        E 130 80 48 00
        E 715 80 43 00
        E 574 90 48 60
        E 523 90 43 47
        E 858 90 4f 4f
        E 214 80 48 00
        E 532 80 43 00
        E 212 80 4f 00
        E 5310 90 30 5d
        E 1447 90 48 55
        E 802 80 48 00
        E 585 90 48 5a
        E 20 d0 07 00
        E 24 d0 00 00
        E 1050 80 48 00
        E 346 90 4a 6d
        E 20 d0 0a 00
        E 24 d0 00 00
        E 888 80 4a 00
        E 497 90 4a 69
        E 79 d0 07 00
        E 24 d0 00 00
        E 904 80 4a 00
        E 528 90 4b 5a
        E 1112 80 4b 00
        E 382 90 4b 69
        E 1063 80 4b 00
        E 330 90 4d 68
        E 930 80 4d 00
        E 552 90 4d 76
        E 79 d0 09 00
        E 24 d0 00 00
        E 1034 80 4d 00
        E 232 90 4f 68
        E 78 d0 0a 00
        E 24 d0 00 00
        E 24 d0 07 00
        E 24 d0 00 00
        E 1115 80 4f 00
        E 264 80 30 00
        E 49 90 48 7b
        E 84 d0 0e 00
        E 24 d0 00 00
        E 24 d0 07 00
        E 24 d0 00 00
        E 888 80 48 00
        E 19 90 3c 4d
        E 802 90 48 6c
        E 19 d0 09 00
        E 24 d0 00 00
        E 950 80 48 00
        E 417 90 48 6a
        E 26 d0 09 00
        E 23 d0 00 00
        E 864 80 48 00
        E 451 90 4a 76
        E 29 d0 02 00
        E 24 d0 00 00
        E 24 d0 13 00
        E 24 d0 00 00
        E 869 80 4a 00
        E 421 90 4a 7c
        E 78 d0 18 00
        E 24 d0 00 00
        E 24 d0 0d 00
        E 24 d0 00 00
        E 797 80 4a 00
        E 425 90 4b 6c
        E 1151 80 4b 00
        E 529 90 4b 68
        E 1043 80 4b 00
        E 326 90 4d 69
        E 25 d0 01 00
        E 24 d0 00 00
        E 897 80 4d 00
        E 549 90 4d 79
        E 18 d0 01 00
        E 25 d0 00 00
        E 847 80 4d 00
        E 515 90 4f 71
        E 77 d0 11 00
        E 24 d0 00 00
        E 24 d0 08 00
        E 24 d0 00 00
        E 430 80 3c 00
        E 863 80 4f 00
        E 496 90 4a 55
        E 931 90 54 73
        E 16 d0 0e 00
        E 2 80 4a 00
        E 22 d0 00 00
        E 48 d0 07 00
        E 24 d0 01 00
        E 49 d0 00 00
        E 661 80 54 00
        E 131 90 48 60
        E 495 90 54 76
        E 32 d0 06 00
        E 24 d0 08 00
        E 24 d0 20 00
        E 24 d0 08 00
        E 25 d0 0f 00
        E 24 d0 09 00
        E 71 d0 0a 00
        E 192 d0 0b 00
        E 187 80 54 00
        E 693 90 56 78
        E 80 d0 38 00
        E 24 d0 0b 00
        E 24 d0 30 00
        E 24 d0 13 00
        E 25 d0 14 00
        E 23 d0 0b 00
        E 805 80 56 00
        E 180 d0 0a 00
        E 238 90 56 71
        E 25 d0 2f 00
        E 24 d0 0a 00
        E 24 d0 28 00
        E 24 d0 0a 00
        E 24 d0 25 00
        E 24 d0 19 00
        E 25 d0 1e 00
        E 23 d0 0f 00
        E 24 d0 0e 00
        E 24 d0 0a 00
        E 121 d0 09 00
        E 576 d0 08 00
        E 39 80 56 00
        E 534 90 57 6a
        E 2 d0 0d 00
        E 1174 80 57 00
        E 123 d0 08 00
        E 222 90 57 6f
        E 41 d0 0e 00
        E 1099 80 57 00
        E 29 d0 08 00
        E 276 90 59 78
        E 12 d0 09 00
        E 24 d0 08 00
        E 1094 80 59 00
        E 379 90 59 72
        E 15 d0 13 00
        E 25 d0 08 00
        E 72 d0 07 00
        E 24 d0 08 00
        E 48 d0 07 00
        E 624 d0 08 00
        E 428 80 59 00
        E 52 d0 07 00
        E 120 90 5b 72
        E 23 d0 0f 00
        E 25 d0 07 00
        E 71 d0 04 00
        E 9 80 5b 00
        E 16 d0 06 00
        E 96 d0 07 00
        E 158 90 59 11
        E 179 80 59 00
        E 311 d0 06 00
        E 72 d0 00 00
        E 42 90 54 6d
        E 6 d0 04 00
        E 24 d0 00 00
        E 47 d0 05 00
        E 24 d0 00 00
        E 438 80 54 00
        E 284 90 52 59
        E 824 80 52 00
        E 108 90 4f 4c
        E 844 90 54 63
        E 22 d0 08 00
        E 0 80 4f 00
        E 25 d0 00 00
        E 1573 80 54 00
        E 4808 80 48 00
        E 1380 90 43 4f
        E 989 90 4f 53
        E 419 80 4f 00
        E 488 90 4f 60
        E 939 80 4f 00
        E 616 90 52 65
        E 20 d0 04 00
        E 24 d0 00 00
        E 906 80 52 00
        E 35 90 51 55
        E 920 80 51 00
        E 8 90 4f 59
        E 1211 80 4f 00
        E 2169 90 4f 58
        E 457 80 4f 00
        E 415 90 4f 68
        E 1094 80 4f 00
        E 392 90 52 5e
        E 950 80 52 00
        E 17 90 54 6b
        E 18 d0 05 00
        E 24 d0 00 00
        E 862 90 4f 52
        E 16 80 54 00
        E 1180 80 4f 00
        E 2256 90 4f 53
        E 549 80 4f 00
        E 362 90 4f 6b
        E 1086 80 4f 00
        E 431 90 52 67
        E 1011 90 51 64
        E 6 80 52 00
        E 971 80 51 00
        E 15 90 4f 62
        E 698 80 4f 00
        E 173 90 4f 55
        E 486 90 51 4b
        E 50 80 4f 00
        E 367 80 51 00
        E 102 90 4f 48
        E 735 80 4f 00
        E 167 90 4f 45
        E 496 90 52 4b
        E 62 80 4f 00
        E 413 80 52 00
        E 2 90 4f 4b
        E 427 90 51 4f
        E 54 80 4f 00
        E 455 90 4f 42
        E 95 80 51 00
        E 338 90 54 6d
        E 12 80 4f 00
        E 439 90 4f 45
        E 54 80 54 00
        E 391 90 56 70
        E 4 80 4f 00
        E 19 d0 1c 00
        E 24 d0 00 00
        E 473 90 4f 3e
        E 118 80 56 00
        E 313 90 54 60
        E 70 80 4f 00
        E 456 90 4f 48
        E 50 80 54 00
        E 377 90 52 4f
        E 56 80 4f 00
        E 490 80 52 00
        E 14 90 4f 4a
        E 455 90 51 54
        E 12 80 4f 00
        E 455 80 51 00
        E 38 90 4f 4b
        E 295 80 4f 00
        E 66 90 4d 4f
        E 1431 90 4f 6d
        E 63 80 4d 00
        E 1434 80 4f 00
        E 4 90 4b 60
        E 1477 90 47 4c
        E 6 90 48 4a
        E 35 80 4b 00
        E 242 80 47 00
        E 1083 80 48 00
        E 110 90 4a 4e
        E 448 90 48 47
        E 2 80 4a 00
        E 478 90 4b 48
        E 7 80 48 00
        E 464 80 4b 00
        E 11 90 4d 4e
        E 451 90 4b 58
        E 25 80 4d 00
        E 1384 90 4a 69
        E 5 80 4b 00
        E 1428 90 48 58
        E 11 80 4a 00
        E 1418 90 4f 5c
        E 2674 80 48 00
        E 9 80 4f 00
        E 817 90 4f 5a
        E 422 90 51 41
        E 48 80 4f 00
        E 438 80 51 00
        E 35 90 4f 49
        E 411 90 52 58
        E 110 80 4f 00
        E 404 90 4f 4c
        E 31 80 52 00
        E 945 80 43 00
        E 2 90 4d 5c
        E 58 80 4f 00
        E 452 90 4f 4f
        E 28 80 4d 00
        E 924 80 4f 00
        E 34 90 4c 60
        E 879 90 4b 67
        E 15 80 4c 00
        E 587 80 4b 00
        E 247 90 4d 62
        E 476 80 4d 00
        E 79 90 48 3c
        E 2 90 4a 42
        E 243 80 48 00
        E 126 80 4a 00
        E 625 90 47 4b
        E 2 90 48 4e
        E 276 80 47 00
        E 1216 90 4b 68
        E 54 80 48 00
        E 738 80 4b 00
        E 234 90 48 69
        E 890 90 4a 74
        E 6 80 48 00
        E 21 d0 07 00
        E 24 d0 00 00
        E 927 90 4b 47
        E 67 80 4a 00
        E 461 90 4a 4a
        E 155 80 4b 00
        E 209 80 4a 00
        E 9 90 48 47
        E 446 90 4b 4c
        E 25 80 48 00
        E 530 90 48 52
        E 23 80 4b 00
        E 360 90 4a 45
        E 52 80 48 00
        E 558 90 4b 4b
        E 74 80 4a 00
        E 739 90 48 55
        E 9 80 4b 00
        E 528 90 4a 4e
        E 23 80 48 00
        E 427 90 4b 5b
        E 104 80 4a 00
        E 821 80 4b 00
        E 14 90 48 63
        E 478 90 4a 63
        E 114 80 48 00
        E 333 90 4b 5a
        E 140 80 4a 00
        E 888 80 4b 00
        E 35 90 48 62
        E 463 80 48 00
        E 6 90 4a 5a
        E 464 90 4b 58
        E 62 80 4a 00
        E 886 80 4b 00
        E 15 90 48 5d
        E 415 80 48 00
        E 13 90 4a 53
        E 521 90 4b 4e
        E 85 80 4a 00
        E 907 80 4b 00
        E 6 90 48 56
        E 451 90 4a 5e
        E 99 80 48 00
        E 374 90 4b 64
        E 136 80 4a 00
        E 824 90 48 60
        E 28 d0 0d 00
        E 24 d0 00 00
        E 19 80 4b 00
        E 393 90 4a 63
        E 364 90 4b 58
        E 121 80 4a 00
        E 794 80 48 00
        E 156 90 48 6b
        E 25 d0 0f 00
        E 24 d0 00 00
        E 42 80 4b 00
        E 329 90 4a 55
        E 534 90 4b 62
        E 159 80 4a 00
        E 657 80 48 00
        E 164 90 48 69
        E 172 80 4b 00
        E 352 90 4a 56
        E 511 90 4b 56
        E 163 80 4a 00
        E 639 80 48 00
        E 238 80 4b 00
        E 9 90 48 4d
        E 460 90 4a 4f
        E 535 90 4b 4f
        E 149 80 4a 00
        E 540 80 48 00
        E 197 90 48 54
        E 24 80 4b 00
        E 474 90 4a 4d
        E 461 90 4b 52
        E 209 80 4a 00
        E 600 80 48 00
        E 169 90 48 64
        E 17 80 4b 00
        E 68 d0 07 00
        E 24 d0 00 00
        E 380 90 4a 4e
        E 476 90 4b 59
        E 136 80 4a 00
        E 599 80 48 00
        E 143 90 48 71
        E 18 d0 2f 00
        E 0 80 4b 00
        E 24 d0 00 00
        E 48 d0 09 00
        E 24 d0 00 00
        E 458 90 4a 51
        E 447 90 4b 4b
        E 141 80 4a 00
        E 734 80 4b 00
        E 603 90 4a 5d
        E 408 90 4b 4c
        E 164 80 4a 00
        E 733 80 4b 00
        E 570 90 4a 5c
        E 538 90 4b 50
        E 176 80 4a 00
        E 632 80 4b 00
        E 552 90 4a 53
        E 467 90 4b 52
        E 211 80 4a 00
        E 607 80 4b 00
        E 562 90 4a 53
        E 534 90 4b 4c
        E 200 80 4a 00
        E 617 80 4b 00
        E 560 90 4a 59
        E 503 90 4b 55
        E 94 80 4a 00
        E 775 80 4b 00
        E 601 90 4a 58
        E 490 90 4b 55
        E 151 80 4a 00
        E 672 80 4b 00
        E 563 90 4a 58
        E 456 90 4b 55
        E 120 80 4a 00
        E 658 80 48 00
        E 214 80 4b 00
        E 55 90 48 40
        E 525 90 4a 4b
        E 456 90 4b 5c
        E 118 80 48 00
        E 20 80 4a 00
        E 184 80 4b 00
        E 686 90 4d 5a
        E 511 90 4f 4c
        E 477 90 50 4e
        E 106 80 4f 00
        E 662 80 4d 00
        E 197 90 4d 4e
        E 10 80 50 00
        E 499 90 4f 4b
        E 467 90 51 5d
        E 517 80 4f 00
        E 129 80 4d 00
        E 205 80 51 00
        E 157 90 4f 45
        E 9 90 51 49
        E 80 80 51 00
        E 394 90 51 4f
        E 138 80 4f 00
        E 337 90 4f 23
        E 6 90 52 56
        E 176 80 51 00
        E 119 80 4f 00
        E 636 90 4f 4e
        E 62 80 52 00
        E 395 90 51 43
        E 506 80 4f 00
        E 18 90 52 4d
        E 165 80 51 00
        E 370 80 52 00
        E 467 90 51 39
        E 36 90 53 36
        E 119 80 53 00
        E 88 80 51 00
        E 216 90 52 4a
        E 388 90 54 4e
        E 42 80 52 00
        E 837 90 51 48
        E 46 80 54 00
        E 415 90 52 45
        E 445 90 54 5c
        E 68 80 52 00
        E 597 80 51 00
        E 361 80 54 00
        E 5 90 4f 48
        E 443 90 52 48
        E 493 90 54 68
        E 19 d0 0e 00
        E 24 d0 00 00
        E 131 80 52 00
        E 534 80 4f 00
        E 233 90 4f 43
        E 175 80 54 00
        E 341 90 52 46
        E 479 90 54 61
        E 19 80 52 00
        E 678 80 4f 00
        E 239 80 54 00
        E 17 90 4f 4a
        E 459 90 52 48
        E 477 90 54 60
        E 75 80 52 00
        E 633 80 4f 00
        E 254 90 4f 49
        E 32 80 54 00
        E 448 90 52 47
        E 498 90 54 5d
        E 29 80 52 00
        E 425 80 4f 00
        E 169 80 54 00
        E 368 90 48 59
        E 459 90 4b 46
        E 528 90 4d 67
        E 2 80 48 00
        E 93 80 4b 00
        E 838 90 48 4e
        E 5 80 4d 00
        E 455 90 4b 4a
        E 508 90 4d 64
        E 2 80 48 00
        E 84 80 4b 00
        E 476 80 4d 00
        E 356 90 43 58
        E 430 90 46 47
        E 532 90 48 68
        E 23 80 46 00
        E 683 80 43 00
        E 248 90 43 44
        E 381 80 48 00
        E 104 90 46 4d
        E 471 90 48 65
        E 26 d0 0d 00
        E 23 d0 00 00
        E 143 80 46 00
        E 334 80 43 00
        E 152 80 48 00
        E 303 90 47 3e
        E 14 90 48 49
        E 408 80 47 00
        E 58 90 4b 4d
        E 485 90 4d 6b
        E 109 80 4b 00
        E 661 80 48 00
        E 228 90 48 48
        E 44 80 4d 00
        E 401 90 4b 4d
        E 472 90 4d 67
        E 133 80 4b 00
        E 307 80 48 00
        E 112 80 4d 00
        E 374 90 4f 4b
        E 517 90 50 4b
        E 142 80 4f 00
        E 414 90 4f 4a
        E 48 80 50 00
        E 351 90 4d 4b
        E 59 80 4f 00
        E 482 90 4f 2d
        E 391 80 4d 00
        E 36 90 51 49
        E 209 80 4f 00
        E 202 90 4d 49
        E 28 80 51 00
        E 425 90 4f 4b
        E 156 80 4d 00
        E 404 90 4d 46
        E 99 80 4f 00
        E 376 90 4f 42
        E 8 80 4d 00
        E 462 90 51 4e
        E 91 80 4f 00
        E 581 80 51 00
        E 293 90 50 4c
        E 727 80 50 00
        E 217 90 4f 64
        E 913 80 4f 00
        E 31 90 4d 4d
        E 437 90 4f 46
        E 59 80 4d 00
        E 425 90 50 3d
        E 105 80 4f 00
        E 180 80 50 00
        E 78 90 4d 4b
        E 340 80 4d 00
        E 96 90 4b 4b
        E 490 90 48 4d
        E 25 80 4b 00
        E 540 80 48 00
        E 11 90 4d 4c
        E 523 90 4b 56
        E 36 80 4d 00
        E 1425 80 4b 00
        E 74 90 48 5e
        E 561 80 48 00
        E 344 90 43 52
        E 513 90 47 4d
        E 119 80 43 00
        E 392 90 48 55
        E 100 80 47 00
        E 837 80 48 00
        E 6 90 43 4d
        E 532 90 46 4d
        E 379 80 43 00
        E 68 90 48 64
        E 26 d0 0e 00
        E 24 d0 00 00
        E 3 80 46 00
        E 885 80 48 00
        E 25 90 43 50
        E 467 90 44 47
        E 294 80 43 00
        E 217 90 46 4a
        E 93 80 44 00
        E 900 90 48 52
        E 8 80 46 00
        E 490 90 43 47
        E 9 80 48 00
        E 456 90 44 4c
        E 32 80 43 00
        E 434 80 44 00
        E 25 90 43 50
        E 427 80 43 00
        E 24 90 41 47
        E 27 90 43 2a
        E 122 80 41 00
        E 217 80 43 00
        E 112 90 41 4b
        E 456 90 42 4d
        E 21 80 41 00
        E 431 90 43 52
        E 31 80 42 00
        E 870 80 43 00
        E 22 90 41 48
        E 368 80 41 00
        E 538 90 3f 4e
        E 479 90 3c 4d
        E 50 80 3f 00
        E 447 90 3f 4f
        E 86 80 3c 00
        E 354 90 41 4f
        E 68 80 3f 00
        E 150 80 41 00
        E 646 90 48 47
        E 674 90 4d 40
        E 410 90 4e 59
        E 71 80 4d 00
        E 158 80 4e 00
        E 30 90 4f 47
        E 565 90 4d 4b
        E 101 80 4f 00
        E 19 80 48 00
        E 410 90 4b 45
        E 39 80 4d 00
        E 511 90 48 4d
        E 23 80 4b 00
        E 443 90 4b 5a
        E 145 80 48 00
        E 1336 80 4b 00
        E 31 90 48 5a
        E 879 80 48 00
        E 2001 90 4d 63
        E 13 90 48 55
        E 893 80 48 00
        E 18 90 4b 4b
        E 49 80 4d 00
        E 383 80 4b 00
        E 128 90 48 4b
        E 499 90 46 4a
        E 45 80 48 00
        E 470 90 43 4b
        E 64 80 46 00
        E 367 90 48 4d
        E 130 80 43 00
        E 343 90 46 55
        E 37 80 48 00
        E 1303 80 46 00
        E 40 90 43 4f
        E 830 80 43 00
        E 573 90 4b 4d
        E 1455 90 48 4f
        E 13 80 4b 00
        E 1457 90 4a 54
        E 173 80 48 00
        E 365 80 4a 00
        E 12 90 4b 4d
        E 498 90 4a 4c
        E 19 80 4b 00
        E 469 90 48 4e
        E 40 80 4a 00
        E 434 90 4a 64
        E 11 80 48 00
        E 507 90 48 47
        E 40 80 4a 00
        E 1379 80 48 00
        E 2334 90 43 4c
        E 427 90 46 4e
        E 449 80 43 00
        E 10 90 48 4a
        E 36 80 46 00
        E 422 90 46 44
        E 147 80 48 00
        E 418 90 43 44
        E 42 80 46 00
        E 491 90 46 36
        E 226 80 43 00
        E 140 80 46 00
        E 564 90 48 56
        E 1 90 43 50
        E 2175 80 43 00
        E 128 80 48 00
        E 1021 90 48 5b
        E 8 90 43 4b
        E 1892 80 43 00
        E 298 80 48 00
        E 254 90 43 4a
        E 1873 90 46 5d
        E 1368 90 48 61
        E 25 d0 0b 00
        E 25 d0 00 00
        E 31 80 46 00
        E 524 80 43 00
        E 114 80 48 00
        E 751 90 43 61
        E 1233 80 43 00
        E 180 90 46 4f
        E 1000 80 46 00
        E 13 90 43 45
        E 479 90 46 4d
        E 454 90 48 47
        E 89 80 46 00
        E 354 80 43 00
        E 32 80 48 00
        E 4 90 4b 4b
        E 468 90 43 3c
        E 168 80 4b 00
        E 366 90 48 5d
        E 28 d0 07 00
        E 23 d0 00 00
        E 1402 90 46 50
        E 17 80 48 00
        E 1094 80 46 00
        E 1882 80 43 00
        E 2225 90 48 5d
        E 40 90 43 46
        E 368 80 48 00
        E 18 80 43 00
        E 1156 90 48 5c
        E 4 90 43 4a
        E 282 80 43 00
        E 11 80 48 00
        E 1104 90 48 69
        E 48 90 43 4a
        E 4462 80 43 00
        E 135 80 48 00
        E 1076 90 4d 5a
        E 3 90 48 4d
        E 2044 80 48 00
        E 5 80 4d 00
        E 5609 90 48 48
        E 523 90 54 4e
        E 499 80 54 00
        E 860 90 4f 50
        E 810 80 4f 00
        E 1641 80 48 00
        E 3423 90 48 48
        E 455 90 54 65
        E 29 d0 08 00
        E 24 d0 00 00
        E 395 80 54 00
        E 895 90 52 68
        E 1004 80 52 00
        E 453 90 50 56
        E 1001 80 50 00
        E 451 90 4f 63
        E 25 d0 0a 00
        E 24 d0 00 00
        E 1053 80 4f 00
        E 320 90 4d 65
        E 1066 80 4d 00
        E 15 80 48 00
        E 297 90 48 46
        E 441 d0 02 00
        E 24 d0 00 00
        E 144 d0 02 00
        E 24 d0 04 00
        E 23 90 54 72
        E 1 d0 05 00
        E 24 d0 10 00
        E 24 d0 06 00
        E 24 d0 05 00
        E 24 d0 00 00
        E 250 80 54 00
        E 955 90 52 63
        E 19 d0 03 00
        E 24 d0 00 00
        E 924 80 52 00
        E 469 90 50 60
        E 23 d0 1a 00
        E 24 d0 00 00
        E 995 80 50 00
        E 409 90 4f 71
        E 1078 80 4f 00
        E 414 90 4d 69
        E 1131 80 48 00
        E 324 90 48 58
        E 17 d0 04 00
        E 24 d0 00 00
        E 48 d0 07 00
        E 24 d0 00 00
        E 4 80 4d 00
        E 20 d0 07 00
        E 48 d0 06 00
        E 24 d0 07 00
        E 72 d0 06 00
        E 48 d0 07 00
        E 144 d0 06 00
        E 24 d0 00 00
        E 72 d0 06 00
        E 15 90 54 77
        E 9 d0 07 00
        E 48 d0 08 00
        E 24 d0 12 00
        E 24 d0 07 00
        E 72 d0 06 00
        E 120 d0 07 00
        E 723 80 54 00
        E 285 d0 06 00
        E 39 90 52 69
        E 9 d0 0a 00
        E 120 d0 0b 00
        E 120 d0 0a 00
        E 96 d0 09 00
        E 72 d0 07 00
        E 72 d0 04 00
        E 25 d0 03 00
        E 71 d0 02 00
        E 72 d0 00 00
        E 362 80 52 00
        E 440 90 50 60
        E 62 d0 07 00
        E 24 d0 00 00
        E 48 d0 09 00
        E 48 d0 05 00
        E 24 d0 09 00
        E 48 d0 08 00
        E 24 d0 09 00
        E 24 d0 0a 00
        E 24 d0 09 00
        E 24 d0 08 00
        E 24 d0 09 00
        E 48 d0 08 00
        E 48 d0 09 00
        E 48 d0 08 00
        E 24 d0 09 00
        E 72 d0 08 00
        E 120 d0 07 00
        E 24 d0 04 00
        E 24 d0 03 00
        E 24 d0 00 00
        E 304 80 50 00
        E 294 90 4f 6c
        E 26 d0 0a 00
        E 24 d0 03 00
        E 24 d0 0a 00
        E 24 d0 01 00
        E 24 d0 00 00
        E 24 d0 06 00
        E 24 d0 05 00
        E 24 d0 01 00
        E 24 d0 05 00
        E 24 d0 06 00
        E 96 d0 05 00
        E 24 d0 01 00
        E 24 d0 00 00
        E 798 80 4f 00
        E 306 d0 05 00
        E 21 90 4d 5d
        E 3 d0 06 00
        E 24 d0 00 00
        E 24 d0 06 00
        E 48 d0 00 00
        E 25 d0 06 00
        E 23 d0 07 00
        E 24 d0 06 00
        E 24 d0 05 00
        E 24 d0 06 00
        E 96 d0 07 00
        E 48 d0 06 00
        E 24 d0 07 00
        E 120 d0 06 00
        E 144 d0 05 00
        E 24 d0 00 00
        E 370 80 48 00
        E 278 90 48 4b
        E 24 d0 09 00
        E 24 d0 00 00
        E 199 80 4d 00
        E 400 90 54 73
        E 25 d0 17 00
        E 24 d0 00 00
        E 24 d0 0a 00
        E 24 d0 00 00
        E 752 80 54 00
        E 477 90 52 5d
        E 949 80 52 00
        E 506 90 50 52
        E 1093 80 50 00
        E 351 90 4f 60
        E 24 d0 08 00
        E 24 d0 00 00
        E 1162 80 4f 00
        E 306 90 4d 64
        E 917 80 48 00
        E 429 90 48 5b
        E 27 80 4d 00
        E 570 90 54 70
        E 21 d0 15 00
        E 24 d0 00 00
        E 521 80 48 00
        E 363 90 4b 54
        E 228 80 54 00
        E 210 90 52 68
        E 22 d0 01 00
        E 24 d0 00 00
        E 639 80 52 00
        E 667 90 4f 72
        E 1192 80 4f 00
        E 240 90 50 64
        E 22 d0 19 00
        E 24 d0 00 00
        E 1213 80 50 00
        E 253 90 4f 77
        E 22 d0 11 00
        E 25 d0 00 00
        E 975 80 4b 00
        E 387 90 48 61
        E 29 d0 06 00
        E 24 d0 00 00
        E 8 80 4f 00
        E 521 90 54 74
        E 24 d0 15 00
        E 23 d0 00 00
        E 24 d0 06 00
        E 24 d0 00 00
        E 599 80 48 00
        E 338 90 4b 5d
        E 148 80 54 00
        E 267 90 52 67
        E 931 80 52 00
        E 1621 90 50 4e
        E 22 90 4d 2f
        E 124 80 4d 00
        E 2018 90 4f 52
        E 19 80 50 00
        E 703 80 4b 00
        E 115 80 4f 00
        E 215 90 47 46
        E 193 90 48 01
        E 109 80 47 00
        E 89 80 48 00
        E 412 90 54 4e
        E 657 80 54 00
        E 2156 90 48 4d
        E 559 90 54 64
        E 26 80 48 00
        E 918 90 4b 4e
        E 141 80 54 00
        E 344 90 52 58
        E 180 80 4b 00
        E 802 90 4b 54
        E 22 80 52 00
        E 556 90 50 4d
        E 1200 80 50 00
        E 4 80 4b 00
        E 2972 90 48 4d
        E 658 80 48 00
        E 3222 90 48 4f
        E 499 90 54 5a
        E 18 80 48 00
        E 855 80 54 00
        E 3 90 4a 4d
        E 570 90 52 4f
        E 884 80 4a 00
        E 55 80 52 00
        E 5 90 4b 4e
        E 573 90 50 50
        E 157 80 4b 00
        E 579 90 4b 41
        E 55 80 50 00
        E 612 90 4f 50
        E 188 80 4b 00
        E 1803 80 4f 00
        E 833 90 48 62
        E 502 90 54 64
        E 38 80 48 00
        E 851 90 4a 52
        E 16 80 54 00
        E 576 90 52 56
        E 78 80 4a 00
        E 822 90 4b 54
        E 16 80 52 00
        E 515 90 4f 4d
        E 130 80 4b 00
        E 782 90 4d 5d
        E 25 80 4f 00
        E 464 90 4f 4f
        E 19 80 4d 00
        E 2039 80 4f 00
        E 779 90 48 5d
        E 494 80 48 00
        E 5 90 54 67
        E 917 90 4a 4d
        E 127 80 54 00
        E 466 90 52 54
        E 32 80 4a 00
        E 874 80 52 00
        E 6 90 4b 4f
        E 496 90 52 48
        E 7 80 4b 00
        E 1129 80 52 00
        E 3142 90 48 44
        E 535 80 48 00
        E 19 90 54 4f
        E 881 90 4a 47
        E 83 80 54 00
        E 825 80 4a 00
        E 1566 90 48 4a
        E 530 90 54 4e
        E 574 80 48 00
        E 356 90 4a 49
        E 458 80 54 00
        E 97 90 52 4b
        E 2334 80 4a 00
        E 59 90 4b 45
        E 69 80 52 00
        E 934 90 50 46
        E 3667 80 50 00
        E 34 90 4d 48
        E 164 80 4b 00
        E 568 90 4f 54
        E 120 80 4d 00
        E 3510 90 48 47
        E 77 80 4f 00
        E 1079 80 48 00
        E 20 90 54 4e
        E 1923 90 4a 47
        E 196 80 54 00
        E 766 90 52 4b
        E 156 80 4a 00
        E 2792 90 4b 48
        E 101 80 52 00
        E 1438 90 50 48
        E 1358 80 4b 00
        E 2550 90 4e 3f
        E 304 80 50 00
        E 1398 90 4f 4e
        E 151 80 4e 00
        E 6100 80 4f 00
        E 696 90 48 4e
        E 473 90 54 63
        E 25 d0 05 00
        E 24 d0 00 00
        E 646 80 48 00
        E 291 90 4a 56
        E 245 80 54 00
        E 269 90 52 4f
        E 118 80 4a 00
        E 816 90 4b 4f
        E 46 80 52 00
        E 632 90 4f 3e
        E 12 90 50 31
        E 102 80 4f 00
        E 5 80 50 00
        E 498 90 50 27
        E 154 80 50 00
        E 404 90 50 4b
        E 574 80 4b 00
        E 4188 90 4d 4a
        E 73 80 50 00
        E 524 90 4e 49
        E 1457 80 4e 00
        E 34 80 4d 00
        E 2365 90 4d 45
        E 544 90 4f 5e
        E 7631 80 4d 00
        E 4 80 4f 00
        E 896 90 48 4e
        E 456 80 48 00
        E 15 90 54 5a
        E 2625 80 54 00
        E 622 90 48 44
        E 508 80 48 00
        E 23 90 54 4b
        E 959 80 54 00
        E 8 90 4a 42
        E 579 90 52 48
        E 5 80 4a 00
        E 1360 80 52 00
        E 4151 90 48 37
        E 1009 90 54 49
        E 4 80 48 00
        E 1185 90 4a 3e
        E 74 80 54 00
        E 926 80 4a 00
        E 2 90 52 46
        E 1591 80 52 00
        E 23 90 4b 46
        E 1383 90 50 3d
        E 195 80 4b 00
        E 2710 90 4d 01
        E 248 80 50 00
        E 1973 90 4f 4a
        E 170 80 4d 00
        E 1433 90 50 44
        E 62 80 4f 00
        E 487 90 4f 44
        E 84 80 50 00
        E 681 90 4b 42
        E 147 80 4f 00
        E 1175 80 4b 00
        E 527 90 4f 43
        E 538 80 4f 00
        E 9 90 50 45
        E 428 90 4f 48
        E 12 80 50 00
        E 750 90 4d 38
        E 228 80 4f 00
        E 744 80 4d 00
        E 339 90 4b 4e
        E 669 90 4a 4b
        E 28 80 4b 00
        E 1721 80 4a 00
        E 5489 90 48 41
        E 394 80 48 00
        E 78 90 54 4b
        E 773 80 54 00
        E 95 90 4a 3b
        E 529 80 4a 00
        E 13 90 52 44
        E 864 80 52 00
        E 89 90 4b 45
        E 533 90 50 47
        E 61 80 4b 00
        E 778 80 50 00
        E 51 90 4d 45
        E 516 90 4f 46
        E 37 80 4d 00
        E 457 90 4d 41
        E 23 80 4f 00
        E 381 80 4d 00
        E 21 90 4f 45
        E 962 80 4f 00
        E 8718 90 48 44
        E 486 80 48 00
        E 50 90 54 4d
        E 790 80 54 00
        E 64 90 4a 43
        E 510 90 52 49
        E 44 80 4a 00
        E 889 80 52 00
        E 61 90 4b 41
        E 509 90 50 4a
        E 53 80 4b 00
        E 779 80 50 00
        E 9 90 4d 43
        E 522 90 4f 43
        E 267 80 4d 00
        E 135 80 4f 00
        E 11 90 50 45
        E 495 80 50 00
        E 12 90 4f 49
        E 525 90 4d 44
        E 88 80 4f 00
        E 207 80 4d 00
        E 209 90 4b 4f
        E 431 80 4b 00
        E 23 90 4a 4d
        E 510 80 4a 00
        E 23 90 48 5b
        E 477 80 48 00
        E 3 90 54 4f
        E 903 90 48 40
        E 375 80 48 00
        E 252 80 54 00
        E 5629 90 48 46
        E 398 80 48 00
        E 48 90 54 50
        E 893 90 4a 40
        E 25 80 54 00
        E 544 80 4a 00
        E 7 90 52 49
        E 921 90 4b 41
        E 8 80 52 00
        E 616 90 50 48
        E 180 80 4b 00
        E 714 90 4d 42
        E 33 80 50 00
        E 478 90 4f 4b
        E 49 80 4d 00
        E 816 80 4f 00
        E 65 90 4f 2e
        E 486 90 50 46
        E 36 80 4f 00
        E 419 90 4f 48
        E 42 80 50 00
        E 374 90 4d 48
        E 42 80 4f 00
        E 194 80 4d 00
        E 255 90 48 49
        E 534 90 54 51
        E 31 80 48 00
        E 864 80 54 00
        E 2 90 4a 45
        E 509 90 52 4b
        E 11 80 4a 00
        E 966 90 4b 47
        E 35 80 52 00
        E 517 80 4b 00
        E 9 90 4d 50
        E 1234 80 4d 00
        E 3034 90 48 4c
        E 410 80 48 00
        E 60 90 54 54
        E 827 80 54 00
        E 51 90 4a 44
        E 558 90 52 48
        E 4 80 4a 00
        E 952 90 4b 3c
        E 15 80 52 00
        E 599 90 4f 44
        E 37 80 4b 00
        E 937 80 4f 00
        E 25 90 4d 33
        E 206 80 4d 00
        E 2955 90 48 3f
        E 391 80 48 00
        E 61 90 54 4e
        E 885 90 4a 41
        E 27 80 54 00
        E 521 90 52 48
        E 37 80 4a 00
        E 999 90 4b 3e
        E 94 80 52 00
        E 558 80 4b 00
        E 14 90 50 23
        E 842 80 50 00
        E 206 90 50 31
        E 764 80 50 00
        E 2300 90 48 46
        E 462 80 48 00
        E 43 90 54 4a
        E 987 90 4a 49
        E 408 80 54 00
        E 181 90 52 43
        E 12 80 4a 00
        E 1044 90 4b 41
        E 97 80 52 00
        E 970 90 50 38
        E 43 80 4b 00
        E 1184 80 50 00
        E 29 90 4d 48
        E 660 90 4f 49
        E 43 80 4d 00
        E 640 90 50 45
        E 85 80 4f 00
        E 452 90 4f 44
        E 86 80 50 00
        E 468 90 4d 48
        E 11 80 4f 00
        E 597 90 4b 46
        E 58 80 4d 00
        E 668 80 4b 00
        E 10 90 48 22
        E 783 80 48 00
        E 322 90 4a 4f
        E 1735 80 4a 00
        E 10907 90 48 44
        E 483 80 48 00
        E 28 90 54 48
        E 911 90 4a 3d
        E 40 80 54 00
        E 487 90 52 43
        E 29 80 4a 00
        E 927 90 4b 35
        E 44 80 52 00
        E 484 90 50 41
        E 70 80 4b 00
        E 840 90 4d 44
        E 59 80 50 00
        E 415 80 4d 00
        E 8 90 4f 45
        E 442 90 50 41
        E 71 80 4f 00
        E 484 90 4f 45
        E 54 80 50 00
        E 361 80 4f 00
        E 23 90 4d 4a
        E 435 80 4d 00
        E 26 90 4b 49
        E 733 80 4b 00
        E 82 90 4a 41
        E 349 90 48 4d
        E 47 80 4a 00
        E 381 80 48 00
        E 14 90 54 4d
        E 936 90 4a 44
        E 400 80 54 00
        E 115 90 52 4e
        E 5 80 4a 00
        E 1296 90 4b 46
        E 14 80 52 00
        E 170 90 50 3a
        E 45 80 4b 00
        E 37 80 50 00
        E 68 90 51 3f
        E 293 80 51 00
        E 1251 90 4d 48
        E 371 80 4d 00
        E 20 90 4f 44
        E 393 90 50 3b
        E 38 80 4f 00
        E 463 90 4f 38
        E 15 80 50 00
        E 337 80 4f 00
        E 62 90 4d 44
        E 523 80 4d 00
        E 11 90 4b 48
        E 566 90 4a 45
        E 53 80 4b 00
        E 303 80 4a 00
        E 248 90 48 4f
        E 510 90 54 4d
        E 11 80 48 00
        E 668 80 54 00
        E 5563 90 48 48
        E 451 80 48 00
        E 34 90 54 4e
        E 860 80 54 00
        E 10 90 4a 42
        E 543 90 52 45
        E 22 80 4a 00
        E 939 90 4b 3f
        E 56 80 52 00
        E 477 90 50 42
        E 64 80 4b 00
        E 782 90 4d 45
        E 120 80 50 00
        E 363 90 4f 47
        E 67 80 4d 00
        E 394 90 50 45
        E 79 80 4f 00
        E 462 90 4f 41
        E 108 80 50 00
        E 298 80 4f 00
        E 23 90 4d 49
        E 373 80 4d 00
        E 68 90 4b 48
        E 521 90 4a 47
        E 61 80 4b 00
        E 435 80 4a 00
        E 30 90 48 4e
        E 425 90 54 51
        E 16 80 48 00
        E 860 90 4a 41
        E 152 80 54 00
        E 378 90 52 4c
        E 24 80 4a 00
        E 992 80 52 00
        E 12 90 4b 47
        E 537 90 50 4b
        E 54 80 4b 00
        E 834 90 4d 4a
        E 77 80 50 00
        E 391 90 4f 4c
        E 19 80 4d 00
        E 492 90 50 42
        E 78 80 4f 00
        E 449 90 4f 44
        E 87 80 50 00
        E 333 80 4f 00
        E 14 90 4d 4a
        E 457 80 4d 00
        E 27 90 4b 48
        E 529 90 4a 4a
        E 77 80 4b 00
        E 378 80 4a 00
        E 20 90 48 5c
        E 458 90 54 56
        E 14 80 48 00
        E 841 90 4a 45
        E 486 80 4a 00
        E 65 90 52 49
        E 9 80 54 00
        E 1032 80 52 00
        E 110 90 4b 4e
        E 392 90 50 44
        E 24 80 4b 00
        E 916 90 4d 4e
        E 187 80 50 00
        E 260 90 4f 4a
        E 15 80 4d 00
        E 470 90 50 43
        E 73 80 4f 00
        E 444 90 4f 45
        E 74 80 50 00
        E 354 80 4f 00
        E 14 90 4d 4b
        E 433 80 4d 00
        E 12 90 4b 48
        E 487 90 4a 47
        E 70 80 4b 00
        E 332 80 4a 00
        E 57 90 48 4e
        E 439 80 48 00
        E 32 90 54 5d
        E 879 90 4a 3f
        E 208 80 54 00
        E 369 90 52 4c
        E 12 80 4a 00
        E 965 90 4b 44
        E 463 80 52 00
        E 38 80 4b 00
        E 34 90 50 45
        E 934 90 4d 48
        E 117 80 50 00
        E 370 90 4f 46
        E 88 80 4d 00
        E 433 90 50 49
        E 93 80 4f 00
        E 420 90 4f 45
        E 169 80 50 00
        E 244 90 4d 4c
        E 6 80 4f 00
        E 418 80 4d 00
        E 7 90 4b 4a
        E 516 90 4a 4a
        E 80 80 4b 00
        E 324 80 4a 00
        E 40 90 48 5a
        E 516 90 54 56
        E 3 80 48 00
        E 880 90 4a 47
        E 64 80 54 00
        E 423 80 4a 00
        E 20 90 52 4b
        E 966 90 4b 48
        E 72 80 52 00
        E 452 90 50 47
        E 33 80 4b 00
        E 882 90 4d 4b
        E 139 80 50 00
        E 349 90 4f 4c
        E 27 80 4d 00
        E 461 90 50 46
        E 76 80 4f 00
        E 427 90 4f 41
        E 159 80 50 00
        E 249 80 4f 00
        E 13 90 4d 4b
        E 431 80 4d 00
        E 39 90 4b 4a
        E 493 90 4a 48
        E 67 80 4b 00
        E 343 80 4a 00
        E 44 90 48 51
        E 473 80 48 00
        E 19 90 54 5a
        E 25 d0 07 00
        E 24 d0 00 00
        E 911 90 4a 4a
        E 68 80 54 00
        E 421 80 4a 00
        E 3 90 52 4d
        E 968 90 4b 3a
        E 23 80 52 00
        E 484 80 4b 00
        E 5 90 50 41
        E 1112 90 4d 4a
        E 83 80 50 00
        E 354 90 4f 44
        E 25 80 4d 00
        E 413 90 50 45
        E 49 80 4f 00
        E 452 90 4f 3a
        E 50 80 50 00
        E 329 80 4f 00
        E 52 90 4d 41
        E 289 80 4d 00
        E 127 90 4b 46
        E 553 90 4a 2b
        E 5 80 4b 00
        E 416 80 4a 00
        E 71 90 48 4b
        E 396 80 48 00
        E 7246 90 48 4c
        E 396 80 48 00
        E 50 90 54 58
        E 864 80 54 00
        E 3 90 4a 47
        E 510 90 52 4c
        E 6 80 4a 00
        E 988 90 4b 46
        E 10 80 52 00
        E 539 90 50 43
        E 35 80 4b 00
        E 864 90 4d 49
        E 104 80 50 00
        E 390 90 4f 4b
        E 30 80 4d 00
        E 468 90 50 48
        E 73 80 4f 00
        E 430 90 4f 3e
        E 162 80 50 00
        E 192 80 4f 00
        E 3 90 4d 4a
        E 456 80 4d 00
        E 41 90 4b 4a
        E 509 90 4a 43
        E 93 80 4b 00
        E 402 80 4a 00
        E 17 90 48 4e
        E 462 80 48 00
        E 56 90 54 52
        E 889 80 54 00
        E 2 90 48 45
        E 376 80 48 00
        E 95 90 52 43
        E 969 90 4a 3d
        E 328 80 4a 00
        E 238 90 50 3f
        E 3 80 52 00
        E 867 90 4d 48
        E 33 80 50 00
        E 476 90 4f 47
        E 2 80 4d 00
        E 473 90 50 47
        E 61 80 4f 00
        E 458 90 4f 3c
        E 41 80 50 00
        E 355 80 4f 00
        E 42 90 4d 46
        E 346 80 4d 00
        E 96 90 4b 49
        E 488 90 4a 42
        E 56 80 4b 00
        E 458 80 4a 00
        E 6 90 48 4e
        E 403 80 48 00
        E 130 90 54 4a
        E 858 80 54 00
        E 4 90 48 36
        E 399 80 48 00
        E 105 90 52 46
        E 1047 90 4a 37
        E 150 80 4a 00
        E 247 90 50 31
        E 12 80 52 00
        E 883 90 4d 45
        E 55 80 50 00
        E 407 80 4d 00
        E 27 90 4f 43
        E 514 90 50 45
        E 57 80 4f 00
        E 501 90 4f 39
        E 32 80 50 00
        E 329 80 4f 00
        E 35 90 4d 48
        E 407 80 4d 00
        E 64 90 4b 49
        E 525 90 4a 40
        E 58 80 4b 00
        E 451 90 48 51
        E 5 80 4a 00
        E 468 80 48 00
        E 24 90 54 4e
        E 985 90 4a 4a
        E 256 80 54 00
        E 183 90 52 4a
        E 17 80 4a 00
        E 844 90 4b 45
        E 80 80 52 00
        E 532 90 50 47
        E 6 80 4b 00
        E 895 90 4d 4a
        E 54 80 50 00
        E 419 80 4d 00
        E 31 90 4f 4a
        E 474 90 50 48
        E 55 80 4f 00
        E 450 90 4f 3b
        E 69 80 50 00
        E 303 80 4f 00
        E 22 90 4d 4a
        E 366 80 4d 00
        E 126 90 4b 47
        E 492 90 4a 3e
        E 18 80 4b 00
        E 236 80 4a 00
        E 306 90 4b 4e
        E 464 90 57 54
        E 2 80 4b 00
        E 977 90 4d 46
        E 324 80 57 00
        E 146 80 4d 00
        E 46 90 55 45
        E 908 80 55 00
        E 4826 90 48 4b
        E 446 80 48 00
        E 65 90 54 55
        E 884 90 4a 48
        E 13 80 54 00
        E 465 80 4a 00
        E 21 90 52 4b
        E 1259 90 4b 37
        E 138 80 4b 00
        E 151 90 50 45
        E 23 80 52 00
        E 817 90 4d 4a
        E 180 80 50 00
        E 310 90 4f 4a
        E 12 80 4d 00
        E 463 90 50 4b
        E 71 80 4f 00
        E 438 90 4f 3c
        E 62 80 50 00
        E 332 80 4f 00
        E 27 90 4d 4a
        E 390 80 4d 00
        E 108 90 4b 46
        E 538 90 4a 3e
        E 75 80 4b 00
        E 425 90 48 55
        E 42 80 4a 00
        E 381 80 48 00
        E 16 90 54 5b
        E 946 90 48 4a
        E 407 80 54 00
        E 17 80 48 00
        E 103 90 52 48
        E 1007 90 4a 1b
        E 255 80 4a 00
        E 210 90 50 48
        E 113 80 52 00
        E 827 90 4b 48
        E 9 80 50 00
        E 424 80 4b 00
        E 40 90 4d 47
        E 444 80 4d 00
        E 26 90 50 45
        E 572 90 4f 43
        E 148 80 50 00
        E 296 80 4f 00
        E 21 90 4d 4b
        E 378 80 4d 00
        E 49 90 4b 45
        E 502 90 4a 44
        E 56 80 4b 00
        E 335 80 4a 00
        E 39 90 48 52
        E 395 80 48 00
        E 48 90 54 4c
        E 891 90 4a 47
        E 65 80 54 00
        E 384 80 4a 00
        E 64 90 52 45
        E 917 90 4b 48
        E 139 80 52 00
        E 418 80 4b 00
        E 44 90 50 45
        E 904 90 4d 4d
        E 77 80 50 00
        E 419 90 4f 48
        E 8 80 4d 00
        E 473 90 50 48
        E 55 80 4f 00
        E 448 90 4f 3a
        E 100 80 50 00
        E 258 80 4f 00
        E 33 90 4d 48
        E 415 80 4d 00
        E 43 90 4b 46
        E 498 90 4a 42
        E 160 80 4b 00
        E 291 80 4a 00
        E 29 90 48 4f
        E 432 80 48 00
        E 29 90 54 48
        E 914 90 4a 47
        E 150 80 54 00
        E 362 80 4a 00
        E 28 90 52 49
        E 866 90 4b 3d
        E 121 80 52 00
        E 483 80 4b 00
        E 40 90 50 43
        E 881 90 4d 4a
        E 55 80 50 00
        E 455 90 50 46
        E 55 80 4d 00
        E 481 90 4f 3f
        E 68 80 50 00
        E 409 80 4f 00
        E 11 90 4d 4a
        E 396 80 4d 00
        E 27 90 4b 47
        E 450 90 4a 47
        E 211 80 4b 00
        E 726 90 48 46
        E 10 80 4a 00
        E 579 80 48 00
        E 40 90 54 4d
        E 832 90 48 45
        E 97 80 54 00
        E 347 80 48 00
        E 27 90 52 51
        E 1043 90 49 3f
        E 56 80 52 00
        E 268 80 49 00
        E 86 90 50 45
        E 1046 90 4d 48
        E 28 80 50 00
        E 425 90 4f 46
        E 9 80 4d 00
        E 456 90 50 47
        E 51 80 4f 00
        E 495 90 4f 3e
        E 54 80 50 00
        E 303 80 4f 00
        E 41 90 4d 48
        E 424 80 4d 00
        E 44 90 4b 47
        E 481 90 4a 43
        E 132 80 4b 00
        E 381 80 4a 00
        E 9 90 48 50
        E 380 80 48 00
        E 37 90 54 4d
        E 847 90 48 41
        E 233 80 54 00
        E 224 80 48 00
        E 79 90 52 4b
        E 1032 90 4b 41
        E 146 80 52 00
        E 241 80 4b 00
        E 72 90 50 40
        E 955 90 4d 49
        E 36 80 50 00
        E 452 90 4f 49
        E 20 80 4d 00
        E 489 90 50 4a
        E 56 80 4f 00
        E 437 90 4f 3b
        E 76 80 50 00
        E 291 80 4f 00
        E 30 90 4d 4a
        E 385 80 4d 00
        E 84 90 4b 48
        E 507 90 4a 41
        E 40 80 4b 00
        E 362 80 4a 00
        E 60 90 48 4b
        E 412 80 48 00
        E 82 90 54 4c
        E 932 90 4a 42
        E 41 80 54 00
        E 434 80 4a 00
        E 64 90 52 46
        E 926 90 4b 48
        E 359 80 52 00
        E 126 80 4b 00
        E 30 90 50 44
        E 983 90 4d 49
        E 53 80 50 00
        E 369 90 4f 44
        E 10 80 4d 00
        E 458 90 50 48
        E 54 80 4f 00
        E 468 90 4f 3c
        E 69 80 50 00
        E 370 80 4f 00
        E 18 90 4d 47
        E 413 80 4d 00
        E 51 90 4b 45
        E 535 90 4a 3f
        E 39 80 4b 00
        E 411 80 4a 00
        E 44 90 48 4b
        E 396 80 48 00
        E 74 90 54 4b
        E 843 80 54 00
        E 16 90 4a 41
        E 440 80 4a 00
        E 96 90 52 42
        E 994 90 4b 45
        E 150 80 52 00
        E 291 80 4b 00
        E 77 90 50 42
        E 904 90 4d 48
        E 109 80 50 00
        E 368 80 4d 00
        E 3 90 4f 43
        E 539 90 50 45
        E 54 80 4f 00
        E 469 90 4f 35
        E 107 80 50 00
        E 246 80 4f 00
        E 11 90 4d 4b
        E 401 80 4d 00
        E 84 90 4b 45
        E 527 90 4a 47
        E 43 80 4b 00
        E 357 80 4a 00
        E 65 90 48 4b
        E 420 80 48 00
        E 75 90 54 4b
        E 921 90 4a 44
        E 9 80 54 00
        E 454 80 4a 00
        E 77 90 52 44
        E 936 90 4b 42
        E 128 80 52 00
        E 276 80 4b 00
        E 40 90 50 42
        E 986 90 4d 4a
        E 50 80 50 00
        E 396 90 4f 44
        E 12 80 4d 00
        E 496 90 50 42
        E 61 80 4f 00
        E 443 90 4f 39
        E 84 80 50 00
        E 278 80 4f 00
        E 18 90 4d 48
        E 396 80 4d 00
        E 78 90 4b 45
        E 525 90 4a 3e
        E 112 80 4b 00
        E 333 80 4a 00
        E 41 90 48 48
        E 409 80 48 00
        E 76 90 54 43
        E 841 90 4a 3d
        E 94 80 54 00
        E 404 80 4a 00
        E 66 90 52 45
        E 1031 90 4b 42
        E 131 80 52 00
        E 306 80 4b 00
        E 15 90 50 3a
        E 999 80 50 00
        E 20 90 4d 49
        E 485 80 4d 00
        E 8 90 4f 42
        E 502 90 50 42
        E 54 80 4f 00
        E 435 90 4f 3e
        E 93 80 50 00
        E 324 80 4f 00
        E 2 90 4d 47
        E 431 80 4d 00
        E 37 90 4b 48
        E 497 90 4a 41
        E 84 80 4b 00
        E 356 80 4a 00
        E 26 90 48 4a
        E 381 80 48 00
        E 85 90 54 4b
        E 874 90 4a 43
        E 28 80 54 00
        E 474 80 4a 00
        E 32 90 52 48
        E 990 90 4b 49
        E 103 80 52 00
        E 361 90 50 3f
        E 15 80 4b 00
        E 960 90 4d 4b
        E 84 80 50 00
        E 417 90 4f 47
        E 34 80 4d 00
        E 433 90 50 43
        E 66 80 4f 00
        E 455 90 4f 3c
        E 97 80 50 00
        E 318 80 4f 00
        E 25 90 4d 46
        E 424 80 4d 00
        E 33 90 4b 47
        E 526 90 4a 41
        E 133 80 4b 00
        E 320 80 4a 00
        E 25 90 48 4d
        E 433 80 48 00
        E 47 90 54 48
        E 815 90 4a 43
        E 48 80 54 00
        E 471 80 4a 00
        E 44 90 52 48
        E 1003 90 4b 45
        E 259 80 52 00
        E 180 80 4b 00
        E 27 90 50 3e
        E 949 90 4d 4b
        E 60 80 50 00
        E 453 90 4f 45
        E 17 80 4d 00
        E 481 90 50 43
        E 67 80 4f 00
        E 434 90 4f 3f
        E 97 80 50 00
        E 237 80 4f 00
        E 28 90 4d 4a
        E 386 80 4d 00
        E 69 90 4b 48
        E 518 90 4a 3f
        E 46 80 4b 00
        E 381 80 4a 00
        E 65 90 48 49
        E 466 80 48 00
        E 66 90 54 4b
        E 891 80 54 00
        E 26 90 4a 44
        E 517 80 4a 00
        E 25 90 52 48
        E 974 90 4b 46
        E 102 80 52 00
        E 346 80 4b 00
        E 28 90 50 42
        E 958 90 4d 4a
        E 81 80 50 00
        E 400 90 4f 43
        E 17 80 4d 00
        E 466 90 50 45
        E 52 80 4f 00
        E 429 90 4f 40
        E 65 80 50 00
        E 363 80 4f 00
        E 8 90 4d 49
        E 428 80 4d 00
        E 47 90 4b 4a
        E 503 90 4a 41
        E 80 80 4b 00
        E 357 80 4a 00
        E 15 90 48 4a
        E 473 80 48 00
        E 42 90 54 4e
        E 928 80 54 00
        E 7 90 4a 47
        E 544 80 4a 00
        E 13 90 52 48
        E 944 90 4b 47
        E 100 80 52 00
        E 362 90 50 42
        E 35 80 4b 00
        E 886 90 4d 4c
        E 72 80 50 00
        E 411 90 4f 47
        E 29 80 4d 00
        E 433 90 50 48
        E 115 80 4f 00
        E 395 90 4f 46
        E 147 80 50 00
        E 354 90 4d 48
        E 15 80 4f 00
        E 449 90 4b 4b
        E 32 80 4d 00
        E 489 90 4a 48
        E 53 80 4b 00
        E 346 80 4a 00
        E 111 90 48 4e
        E 459 80 48 00
        E 42 90 54 5b
        E 878 90 4a 4b
        E 66 80 54 00
        E 442 90 52 4d
        E 26 80 4a 00
        E 896 90 4b 49
        E 160 80 52 00
        E 346 90 50 48
        E 49 80 4b 00
        E 855 90 4d 4e
        E 72 80 50 00
        E 431 90 4f 48
        E 53 80 4d 00
        E 443 90 50 4b
        E 94 80 4f 00
        E 406 90 4f 48
        E 104 80 50 00
        E 352 90 4d 4b
        E 39 80 4f 00
        E 425 90 4b 4c
        E 43 80 4d 00
        E 439 90 4a 4b
        E 361 80 4b 00
        E 128 90 48 4f
        E 62 80 4a 00
        E 390 90 54 51
        E 521 80 48 00
        E 432 90 4a 4e
        E 236 80 54 00
        E 225 90 52 48
        E 65 80 4a 00
        E 942 90 4b 47
        E 500 80 52 00
        E 39 90 50 49
        E 132 80 4b 00
        E 818 90 4d 51
        E 185 80 50 00
        E 270 90 4f 4b
        E 404 80 4d 00
        E 59 90 50 4f
        E 147 80 4f 00
        E 391 90 4f 49
        E 235 80 50 00
        E 218 90 4d 4e
        E 84 80 4f 00
        E 392 90 4b 4d
        E 71 80 4d 00
        E 388 90 4a 4d
        E 191 80 4b 00
        E 269 90 48 53
        E 25 80 4a 00
        E 459 90 54 52
        E 133 80 48 00
        E 280 90 48 28
        E 136 80 48 00
        E 438 90 4a 4a
        E 452 90 52 4f
        E 27 80 54 00
        E 31 80 4a 00
        E 910 90 4b 49
        E 483 90 50 4c
        E 39 80 52 00
        E 14 80 4b 00
        E 841 90 4d 4e
        E 133 80 50 00
        E 380 90 4f 4c
        E 128 80 4d 00
        E 337 90 50 4a
        E 136 80 4f 00
        E 397 90 4f 48
        E 178 80 50 00
        E 246 90 4d 4c
        E 52 80 4f 00
        E 418 90 4b 4e
        E 67 80 4d 00
        E 405 90 4a 4b
        E 234 80 4b 00
        E 280 90 48 4d
        E 15 80 4a 00
        E 437 90 54 5b
        E 67 80 48 00
        E 829 90 4a 4a
        E 327 80 54 00
        E 244 90 52 4e
        E 47 80 4a 00
        E 916 90 4b 4b
        E 176 80 52 00
        E 364 90 50 4b
        E 66 80 4b 00
        E 888 90 4d 4d
        E 159 80 50 00
        E 353 90 4f 4b
        E 126 80 4d 00
        E 354 90 50 4a
        E 115 80 4f 00
        E 386 90 4f 46
        E 127 80 50 00
        E 313 90 4d 4a
        E 16 80 4f 00
        E 434 90 4b 4b
        E 2 80 4d 00
        E 507 90 4a 46
        E 128 80 4b 00
        E 349 90 48 51
        E 16 80 4a 00
        E 430 90 54 35
        E 25 80 48 00
        E 11 90 53 44
        E 102 80 53 00
        E 769 90 4a 49
        E 478 80 54 00
        E 96 90 52 4e
        E 85 80 4a 00
        E 879 90 4b 4a
        E 189 80 52 00
        E 267 90 50 4c
        E 91 80 4b 00
        E 829 90 4d 4e
        E 165 80 50 00
        E 327 90 4f 49
        E 82 80 4d 00
        E 395 90 50 4d
        E 111 80 4f 00
        E 426 90 4f 45
        E 152 80 50 00
        E 340 90 4d 4d
        E 19 80 4f 00
        E 432 90 4b 4e
        E 16 80 4d 00
        E 453 90 4a 49
        E 160 80 4b 00
        E 285 80 4a 00
        E 2 90 48 55
        E 483 90 54 53
        E 47 80 48 00
        E 861 90 4a 46
        E 301 80 54 00
        E 232 90 52 4d
        E 37 80 4a 00
        E 899 90 4b 4a
        E 144 80 52 00
        E 364 90 50 47
        E 37 80 4b 00
        E 886 90 4d 48
        E 32 80 50 00
        E 460 90 4f 49
        E 30 80 4d 00
        E 469 90 50 46
        E 47 80 4f 00
        E 410 90 4f 42
        E 153 80 50 00
        E 257 80 4f 00
        E 30 90 4d 49
        E 388 80 4d 00
        E 56 90 4b 48
        E 519 90 4a 48
        E 75 80 4b 00
        E 468 80 4a 00
        E 38 90 48 4a
        E 507 90 54 4e
        E 20 80 48 00
        E 893 90 4a 48
        E 14 80 54 00
        E 440 80 4a 00
        E 37 90 52 4b
        E 996 90 4b 4c
        E 199 80 52 00
        E 242 90 50 48
        E 50 80 4b 00
        E 882 90 4d 48
        E 80 80 50 00
        E 421 90 4f 49
        E 32 80 4d 00
        E 455 90 50 45
        E 52 80 4f 00
        E 482 90 4f 3b
        E 83 80 50 00
        E 345 80 4f 00
        E 20 90 4d 46
        E 412 80 4d 00
        E 24 90 4b 48
        E 526 90 4a 49
        E 54 80 4b 00
        E 415 80 4a 00
        E 26 90 48 4f
        E 395 80 48 00
        E 56 90 54 4d
        E 802 90 4a 45
        E 244 80 54 00
        E 275 80 4a 00
        E 30 90 52 45
        E 876 80 52 00
        E 222 90 4b 47
        E 412 90 50 3f
        E 13 80 4b 00
        E 925 90 4d 4c
        E 68 80 50 00
        E 400 90 4f 49
        E 39 80 4d 00
        E 483 90 50 43
        E 32 80 4f 00
        E 467 90 4f 3b
        E 52 80 50 00
        E 362 90 4d 48
        E 2 80 4f 00
        E 435 80 4d 00
        E 8 90 4b 49
        E 524 90 4a 43
        E 77 80 4b 00
        E 370 80 4a 00
        E 11 90 48 4a
        E 390 80 48 00
        E 37 90 54 4c
        E 999 90 4a 45
        E 53 80 54 00
        E 431 80 4a 00
        E 22 90 52 4d
        E 1047 90 4d 49
        E 148 80 52 00
        E 296 90 50 4c
        E 46 80 4d 00
        E 881 90 4d 43
        E 87 80 50 00
        E 387 90 4f 49
        E 15 80 4d 00
        E 465 90 50 4b
        E 60 80 4f 00
        E 427 90 4f 42
        E 84 80 50 00
        E 306 80 4f 00
        E 19 90 4d 48
        E 449 80 4d 00
        E 11 90 4b 4b
        E 521 90 4a 44
        E 68 80 4b 00
        E 355 80 4a 00
        E 76 90 48 4b
        E 452 80 48 00
        E 38 90 54 4e
        E 934 90 4a 44
        E 52 80 54 00
        E 457 80 4a 00
        E 32 90 52 4a
        E 978 90 4b 48
        E 78 80 52 00
        E 402 90 50 47
        E 31 80 4b 00
        E 964 90 4d 4a
        E 58 80 50 00
        E 425 90 4f 44
        E 43 80 4d 00
        E 446 90 50 48
        E 69 80 4f 00
        E 464 90 4f 3f
        E 59 80 50 00
        E 360 80 4f 00
        E 17 90 4d 48
        E 446 80 4d 00
        E 8 90 4b 47
        E 519 90 4a 46
        E 21 80 4b 00
        E 442 80 4a 00
        E 37 90 48 4f
        E 907 80 48 00
        E 6700 90 3c 52
        E 452 80 3c 00
        E 39 90 48 4f
        E 943 90 3e 42
        E 4 80 48 00
        E 519 90 46 4b
        E 9 80 3e 00
        E 979 90 3f 48
        E 102 80 46 00
        E 364 90 44 4c
        E 23 80 3f 00
        E 914 90 41 4d
        E 55 80 44 00
        E 412 90 43 4a
        E 30 80 41 00
        E 495 90 44 4d
        E 54 80 43 00
        E 427 90 43 44
        E 92 80 44 00
        E 321 80 43 00
        E 30 90 41 4b
        E 406 80 41 00
        E 32 90 3f 4a
        E 511 90 3e 46
        E 40 80 3f 00
        E 429 80 3e 00
        E 35 90 3c 4f
        E 449 80 3c 00
        E 11 90 48 4f
        E 898 90 3e 47
        E 22 80 48 00
        E 488 90 46 49
        E 44 80 3e 00
        E 919 90 3f 4d
        E 136 80 46 00
        E 359 90 44 4e
        E 68 80 3f 00
        E 860 90 41 56
        E 151 80 44 00
        E 351 90 43 4c
        E 125 80 41 00
        E 380 90 44 50
        E 107 80 43 00
        E 392 90 43 48
        E 136 80 44 00
        E 295 90 41 4b
        E 7 80 43 00
        E 454 90 3f 4e
        E 41 80 41 00
        E 460 90 3e 4b
        E 90 80 3f 00
        E 371 90 3c 54
        E 2 80 3e 00
        E 20 d0 04 00
        E 24 d0 00 00
        E 450 90 48 4b
        E 716 80 3c 00
        E 337 90 3e 48
        E 362 80 48 00
        E 80 90 46 4e
        E 93 80 3e 00
        E 901 90 3f 4d
        E 208 80 46 00
        E 253 90 44 4e
        E 86 80 3f 00
        E 830 90 41 51
        E 172 80 44 00
        E 330 90 43 4b
        E 156 80 41 00
        E 322 90 44 5a
        E 92 80 43 00
        E 411 90 43 49
        E 180 80 44 00
        E 223 90 41 4c
        E 2 80 43 00
        E 462 90 3f 4c
        E 18 80 41 00
        E 486 90 3e 4a
        E 88 80 3f 00
        E 361 80 3e 00
        E 22 90 3c 59
        E 459 90 48 4e
        E 39 80 3c 00
        E 835 90 3e 48
        E 49 80 48 00
        E 486 90 46 50
        E 72 80 3e 00
        E 967 90 3f 4b
        E 81 80 46 00
        E 399 90 44 4b
        E 59 80 3f 00
        E 873 90 41 50
        E 129 80 44 00
        E 343 90 43 4a
        E 66 80 41 00
        E 448 90 44 4d
        E 79 80 43 00
        E 405 90 43 3f
        E 151 80 44 00
        E 239 90 41 4d
        E 31 80 43 00
        E 442 90 3f 4d
        E 39 80 41 00
        E 478 90 3e 4b
        E 86 80 3f 00
        E 410 80 3e 00
        E 3 90 3c 5c
        E 27 d0 05 00
        E 24 d0 00 00
        E 412 90 48 4e
        E 48 80 3c 00
        E 910 90 3e 48
        E 178 80 48 00
        E 340 80 3e 00
        E 2 90 46 4c
        E 972 90 3f 49
        E 206 80 46 00
        E 241 90 44 46
        E 54 80 3f 00
        E 866 90 41 4e
        E 149 80 44 00
        E 338 90 43 4b
        E 82 80 41 00
        E 460 90 44 4c
        E 74 80 43 00
        E 455 90 43 4a
        E 145 80 44 00
        E 276 90 41 4e
        E 6 80 43 00
        E 460 90 3f 4e
        E 37 80 41 00
        E 462 90 3e 47
        E 144 80 3f 00
        E 331 80 3e 00
        E 5 90 3c 59
        E 28 d0 05 00
        E 23 d0 00 00
        E 384 80 3c 00
        E 17 90 48 4b
        E 884 90 3e 45
        E 214 80 48 00
        E 329 80 3e 00
        E 6 90 46 47
        E 958 90 3f 49
        E 133 80 46 00
        E 379 90 44 49
        E 58 80 3f 00
        E 868 90 41 4b
        E 166 80 44 00
        E 347 90 43 4b
        E 142 80 41 00
        E 348 90 44 4c
        E 104 80 43 00
        E 410 90 43 44
        E 190 80 44 00
        E 229 90 41 4b
        E 18 80 43 00
        E 482 90 3f 4c
        E 3 80 41 00
        E 466 90 3e 47
        E 128 80 3f 00
        E 342 80 3e 00
        E 2 90 3c 50
        E 26 d0 03 00
        E 24 d0 00 00
        E 370 90 48 4e
        E 6 80 3c 00
        E 852 90 3e 39
        E 221 80 48 00
        E 369 90 46 46
        E 49 80 3e 00
        E 974 90 3f 46
        E 135 80 46 00
        E 373 90 44 47
        E 33 80 3f 00
        E 850 90 41 4d
        E 138 80 44 00
        E 350 90 43 4a
        E 42 80 41 00
        E 490 90 44 47
        E 30 80 43 00
        E 461 90 43 46
        E 239 80 44 00
        E 169 90 41 4b
        E 32 80 43 00
        E 459 90 3f 4e
        E 8 80 41 00
        E 495 90 3e 48
        E 156 80 3f 00
        E 352 90 3c 56
        E 17 80 3e 00
        E 10 d0 05 00
        E 24 d0 00 00
        E 330 80 3c 00
        E 21 90 48 52
        E 863 90 3e 42
        E 70 80 48 00
        E 480 90 46 4b
        E 18 80 3e 00
        E 1028 90 3f 48
        E 100 80 46 00
        E 359 90 44 4c
        E 12 80 3f 00
        E 888 90 41 4e
        E 148 80 44 00
        E 357 90 43 4a
        E 29 80 41 00
        E 466 90 44 4c
        E 56 80 43 00
        E 448 90 43 46
        E 30 80 44 00
        E 398 80 43 00
        E 12 90 41 49
        E 447 80 41 00
        E 16 90 3f 4b
        E 475 90 3e 4b
        E 5 80 3f 00
        E 492 80 3e 00
        E 21 90 3c 63
        E 940 80 3c 00
        E 1186 b0 7b 00
        CCINTERP 32
        CHASE_CC_TAKEOFFS 1
        GUID {B5EA5E1F-CF86-7A4E-94FD-945F1E49DE11}
        IGNTEMPO 0 120 4 4
        SRCCOLOR 33
        VELLANE -1 100 0
        VELLANE 64 100 0
      >
    >
  >
  <TRACK {BEEE43C9-5D5B-F645-BC91-ED9130A54E94}
    NAME Keys
    PEAKCOL 16576
    BEAT -1
    AUTOMODE 0
    VOLPAN 0.47543563359423 0 -1 -1 1
    MUTESOLO 0 0 0
    IPHASE 0
    PLAYOFFS 0 1
    ISBUS 0 0
    BUSCOMP 0 0 0 0 0
    SHOWINMIX 1 0.6667 0.5 1 0.5 0 -1 0
    FREEMODE 0
    SEL 0
    REC 0 5088 1 0 0 0 0
    VU 2
    TRACKHEIGHT 25 0 0 0 0 0
    INQ 0 0 0 0.5 100 0 0 100
    NCHAN 6
    FX 1
    TRACKID {BEEE43C9-5D5B-F645-BC91-ED9130A54E94}
    PERF 0
    MIDIOUT -1
    MAINSEND 0 0
    <FXCHAIN
      WNDRECT 620 241 1231 598
      SHOW 1
      LASTSEL 0
      DOCKED 0
      BYPASS 0 0 0
      <VST "VST3i: Triangle1Synth   (CabbageAudio    ) (6 out)" Triangle1Synth.vst3 0 "" 97607883{ABCDEF019182FAEB4361626230303131} ""
        y2DRBe5e7f4AAAAABgAAAAEAAAAAAAAAAgAAAAAAAAAEAAAAAAAAAAgAAAAAAAAAEAAAAAAAAAAgAAAAAAAAAPIBAAABAAAA//8QAA==
        4gEAAAEAAABWQzIhnQEAADw/eG1sIHZlcnNpb249IjEuMCIgZW5jb2Rpbmc9IlVURi04Ij8+IDxDQUJCQUdFX1BSRVNFVFM+PFBSRVNFVDAgUHJlc2V0TmFtZT0iQ0FC
        QkFHRV9QUkVTRVRTIDAiIGluc3RhbmNlTmFtZT0iIiB0cmFja0luZGV4PSIiIHBsdWdpbkluZGV4PSIwIiBwbHVnaW5VdWlkPSIiIGZpcnN0X3RhYl9idWdfd29ya2Fy
        b3VuZF90YWI9IjAuMCIgczg4X3RhYj0iMC4wIiBsb2dfdGFiPSIxLjAiIFM4OF9rbm9iXzE9IjAuMCIgUzg4X2tub2JfMj0iMC4wIiBTODhfa25vYl8zPSIwLjAiIFM4
        OF9rbm9iXzQ9IjAuMCIgUzg4X2tub2JfNT0iMC4wIiBTODhfa25vYl82PSIwLjAiIFM4OF9rbm9iXzc9IjAuMCIgUzg4X2tub2JfOD0iMC4wIiBTODhfcGl0Y2hiZW5k
        PSIwLjAiIFM4OF9tb2R3aGVlbD0iMC4wIi8+PC9DQUJCQUdFX1BSRVNFVFM+AAAAAAAAAAAASlVDRVByaXZhdGVEYXRhAAEBQnlwYXNzAAEBAwAdAAAAAAAAAEpVQ0VQ
        cml2YXRlRGF0YQAAAAAAAAAA
        AAAQAAAA
      >
      FLOATPOS 0 0 0 0
      FXID {52B6C089-BA26-5349-9ABF-F129B2A4A62B}
      WAK 0 0
    >
    <ITEM
      POSITION 0
      SNAPOFFS 0
      LENGTH 156.78610416666666
      LOOP 1
      ALLTAKES 0
      FADEIN 1 0 0 1 0 0 0
      FADEOUT 1 0 0 1 0 0 0
      MUTE 0 0
      SEL 1
      IGUID {4588E003-97F4-564B-8A6F-B60A6CF28F19}
      IID 20
      NAME "04-Keys-Recorded MIDI"
      VOLPAN 1 0 1 -1
      SOFFS 0 0
      PLAYRATE 1 1 0 -1 0 0.0025
      CHANMODE 0
      GUID {4DC48DC9-6D9A-7D4F-8B9F-3D1F361F4670}
      RECPASS 5
      <SOURCE MIDI
        HASDATA 1 960 QN
        CCINTERP 32
        POOLEDEVTS {7253B0F8-345E-6D48-89DA-BBBDF2BDED72}
        E 34956 90 48 48
        E 11 90 4f 47
        E 168 80 48 00
        E 35 80 4f 00
        E 1164 90 4f 4f
        E 29 90 48 4b
        E 128 80 48 00
        E 72 80 4f 00
        E 13834 90 48 53
        E 14 90 4f 4d
        E 163 80 48 00
        E 22 80 4f 00
        E 1161 90 4f 56
        E 16 90 48 4e
        E 152 80 48 00
        E 66 80 4f 00
        E 13617 90 4f 50
        E 10 90 48 4d
        E 209 80 48 00
        E 24 80 4f 00
        E 1201 90 4f 5a
        E 18 90 48 4c
        E 170 80 48 00
        E 41 80 4f 00
        E 13644 90 48 50
        E 11 90 4f 59
        E 219 80 48 00
        E 81 80 4f 00
        E 1149 90 4f 58
        E 13 90 48 4e
        E 186 80 4f 00
        E 17 80 48 00
        E 13775 90 4f 4b
        E 12 90 56 55
        E 152 80 4f 00
        E 107 80 56 00
        E 1187 90 56 60
        E 33 90 4f 49
        E 117 80 4f 00
        E 97 80 56 00
        E 694 90 54 58
        E 10 90 4d 4a
        E 203 80 4d 00
        E 36 80 54 00
        E 12661 90 48 4e
        E 3 90 4f 51
        E 219 80 48 00
        E 3 80 4f 00
        E 1226 90 48 55
        E 5 90 4f 51
        E 252 80 48 00
        E 5 80 4f 00
        E 6001 90 48 48
        E 5 90 4f 47
        E 116 80 48 00
        E 137 80 4f 00
        E 1246 90 4f 4c
        E 2 90 48 4c
        E 153 80 48 00
        E 86 80 4f 00
        E 5938 90 48 4d
        E 7 90 4f 56
        E 169 80 48 00
        E 84 80 4f 00
        E 1247 90 48 4c
        E 5 90 4f 4b
        E 194 80 48 00
        E 65 80 4f 00
        E 5826 90 48 48
        E 9 90 4f 4b
        E 200 80 48 00
        E 87 80 4f 00
        E 1184 90 4f 4b
        E 18 90 48 49
        E 169 80 48 00
        E 77 80 4f 00
        E 5982 90 48 4d
        E 7 90 4f 4f
        E 227 80 48 00
        E 45 80 4f 00
        E 1174 90 4f 4f
        E 15 90 48 4c
        E 211 80 48 00
        E 14 80 4f 00
        E 5933 90 4f 4c
        E 12 90 48 48
        E 133 80 48 00
        E 106 80 4f 00
        E 1228 90 4f 4d
        E 11 90 48 4b
        E 186 80 48 00
        E 66 80 4f 00
        E 5925 90 4f 4d
        E 14 90 48 49
        E 167 80 48 00
        E 82 80 4f 00
        E 1264 90 4f 4f
        E 27 90 48 4a
        E 116 80 48 00
        E 84 80 4f 00
        E 6063 90 4f 54
        E 7 90 48 4e
        E 146 80 48 00
        E 76 80 4f 00
        E 1202 90 48 4f
        E 1 90 4f 4e
        E 222 80 48 00
        E 10 80 4f 00
        E 5946 90 4f 4f
        E 10 90 48 4d
        E 128 80 48 00
        E 112 80 4f 00
        E 1207 90 4f 5d
        E 20 90 48 52
        E 185 80 4f 00
        E 14 80 48 00
        E 5997 90 4f 4e
        E 17 90 48 4b
        E 147 80 48 00
        E 69 80 4f 00
        E 1257 90 4f 54
        E 18 90 48 4b
        E 135 80 48 00
        E 86 80 4f 00
        E 5885 90 4f 55
        E 18 90 48 4a
        E 139 80 48 00
        E 104 80 4f 00
        E 1239 90 4f 58
        E 33 90 48 4b
        E 213 80 4f 00
        E 5 80 48 00
        E 5912 90 54 53
        E 22 90 48 42
        E 6 90 4f 3e
        E 64 80 54 00
        E 18 80 48 00
        E 12 80 4f 00
        E 1378 90 54 65
        E 30 90 48 4d
        E 10 90 4f 52
        E 79 80 4f 00
        E 3 80 48 00
        E 25 80 54 00
        E 5965 90 56 5c
        E 18 90 48 4c
        E 14 90 4f 4b
        E 125 80 4f 00
        E 6 80 48 00
        E 60 80 56 00
        E 1274 90 56 67
        E 7 90 48 51
        E 25 90 4f 4d
        E 108 80 4f 00
        E 58 80 48 00
        E 36 80 56 00
        E 812 90 54 63
        E 40 90 48 46
        E 2 90 4f 4c
        E 78 80 48 00
        E 16 80 4f 00
        E 56 80 54 00
        E 5068 90 54 55
        E 21 90 48 4d
        E 47 90 4f 40
        E 49 80 48 00
        E 44 80 4f 00
        E 75 80 54 00
        E 1252 90 48 5d
        E 3 90 54 61
        E 9 90 4f 5c
        E 81 80 48 00
        E 53 80 4f 00
        E 49 80 54 00
        E 6088 90 54 60
        E 14 90 48 4e
        E 27 90 4f 48
        E 13 90 4d 45
        E 50 80 48 00
        E 23 80 4f 00
        E 9 80 4d 00
        E 109 80 54 00
        E 1165 90 54 6c
        E 8 90 48 64
        E 24 90 4f 4e
        E 23 90 4d 49
        E 53 80 48 00
        E 5 80 4f 00
        E 20 80 4d 00
        E 102 80 54 00
        E 5909 90 54 5d
        E 18 90 48 4d
        E 23 90 4f 4a
        E 19 90 4d 47
        E 72 80 4f 00
        E 11 80 4d 00
        E 26 80 48 00
        E 30 80 54 00
        E 1288 90 54 6a
        E 10 90 48 55
        E 21 90 4f 4f
        E 4 90 4d 4e
        E 82 80 4d 00
        E 8 80 4f 00
        E 63 80 48 00
        E 3 80 54 00
        E 6003 90 48 49
        E 4 90 56 4e
        E 18 90 4f 46
        E 13 90 4d 43
        E 90 80 4d 00
        E 5 80 4f 00
        E 41 80 48 00
        E 28 80 56 00
        E 1295 90 56 60
        E 15 90 48 4b
        E 3 90 4f 4c
        E 24 90 4d 4a
        E 83 80 4d 00
        E 42 80 48 00
        E 6 80 56 00
        E 58 80 4f 00
        E 720 90 54 63
        E 18 90 4f 4a
        E 8 90 48 49
        E 27 90 4d 49
        E 80 80 48 00
        E 3 80 4d 00
        E 44 80 4f 00
        E 51 80 54 00
        E 5011 90 54 5d
        E 24 90 48 4a
        E 13 90 4f 48
        E 14 90 4d 47
        E 67 80 48 00
        E 16 80 4d 00
        E 5 80 4f 00
        E 93 80 54 00
        E 1239 90 54 68
        E 14 90 4f 5b
        E 6 90 48 4d
        E 19 90 4d 4c
        E 73 80 48 00
        E 3 80 4d 00
        E 17 80 4f 00
        E 103 80 54 00
        E 6047 90 54 6b
        E 5 90 48 56
        E 3 90 4f 58
        E 13 90 4d 4e
        E 78 80 4d 00
        E 3 80 48 00
        E 14 80 4f 00
        E 103 80 54 00
        E 1160 90 54 6d
        E 16 90 48 5a
        E 10 90 4f 5d
        E 15 90 4d 4f
        E 71 80 48 00
        E 4 80 4d 00
        E 22 80 4f 00
        E 45 80 54 00
        E 6056 90 48 4c
        E 11 90 4f 4f
        E 14 90 4d 4c
        E 81 80 4d 00
        E 37 80 48 00
        E 83 80 4f 00
        E 1204 90 4f 54
        E 11 90 48 4c
        E 3 90 4d 4d
        E 107 80 4d 00
        E 90 80 48 00
        E 35 80 4f 00
        E 6058 90 50 4b
        E 4 90 4d 4c
        E 28 90 48 3f
        E 58 80 4d 00
        E 2 80 50 00
        E 40 80 48 00
        E 1282 90 50 4e
        E 9 90 48 4e
        E 14 90 4d 4c
        E 171 80 48 00
        E 36 80 50 00
        E 57 80 4d 00
        E 742 90 4d 4d
        E 2 90 4f 53
        E 16 90 48 45
        E 85 80 4d 00
        E 19 80 48 00
        E 69 80 4f 00
        E 5065 90 4f 53
        E 20 90 4d 4b
        E 3 90 48 40
        E 83 80 4d 00
        E 15 80 4f 00
        E 19 80 48 00
        E 1317 90 48 58
        E 12 90 4d 58
        E 2 90 4f 55
        E 113 80 4d 00
        E 65 80 4f 00
        E 10 80 48 00
        E 6006 90 48 4a
        E 36 90 4f 44
        E 11 90 4d 3c
        E 56 80 48 00
        E 22 80 4f 00
        E 17 80 4d 00
        E 1315 90 48 4c
        E 3 90 4f 51
        E 2 90 4d 50
        E 130 80 4d 00
        E 68 80 48 00
        E 31 80 4f 00
        E 1696 90 4f 50
        E 7 90 4d 50
        E 3 90 48 4c
        E 163 80 4d 00
        E 53 80 48 00
        E 15 80 4f 00
        E 1207 90 48 4e
        E 4 90 4f 50
        E 6 90 4d 4e
        E 97 80 4d 00
        E 82 80 48 00
        E 52 80 4f 00
        E 2673 90 48 4e
        E 2 90 4d 55
        E 5 90 4f 54
        E 99 80 4d 00
        E 22 80 48 00
        E 57 80 4f 00
        E 1314 90 4f 60
        E 2 90 48 4f
        E 4 90 4d 59
        E 134 80 4d 00
        E 5 80 48 00
        E 82 80 4f 00
        E 738 90 4f 4c
        E 12 90 48 3d
        E 18 90 4d 3d
        E 63 80 4f 00
        E 24 80 48 00
        E 9 80 4d 00
        E 829 90 4f 65
        E 13 90 48 54
        E 4 90 4d 5b
        E 217 80 4d 00
        E 16 80 48 00
        E 3 80 4f 00
        E 1067 90 48 4c
        E 2 90 4f 54
        E 15 90 4d 4b
        E 81 80 4d 00
        E 14 80 48 00
        E 8 80 4f 00
        E 2656 90 48 50
        E 2 90 4f 56
        E 12 90 4d 52
        E 190 80 4d 00
        E 58 80 48 00
        E 4 80 4f 00
        E 1249 90 4f 58
        E 8 90 48 4c
        E 2 90 4d 51
        E 159 80 4d 00
        E 10 80 48 00
        E 77 80 4f 00
        E 1703 90 48 4e
        E 12 90 4d 4f
        E 2 90 4f 50
        E 184 80 4d 00
        E 32 80 48 00
        E 72 80 4f 00
        E 1092 90 48 4f
        E 2 90 4f 58
        E 5 90 4d 54
        E 187 80 48 00
        E 8 80 4d 00
        E 62 80 4f 00
        E 2575 90 48 4f
        E 3 90 4f 5d
        E 10 90 4d 52
        E 199 80 48 00
        E 27 80 4d 00
        E 100 80 4f 00
        E 1114 90 50 58
        E 16 90 48 4e
        E 70 90 4d 33
        E 56 80 48 00
        E 58 80 4d 00
        E 130 80 50 00
        E 719 90 48 48
        E 3 90 4f 52
        E 3 90 4d 4d
        E 98 80 4d 00
        E 8 80 48 00
        E 118 80 4f 00
        E 730 90 4f 6a
        E 3 90 48 51
        E 7 90 4d 60
        E 205 80 48 00
        E 29 80 4f 00
        E 2 80 4d 00
        E 1095 90 4f 60
        E 2 90 48 4e
        E 3 90 4d 55
        E 158 80 48 00
        E 40 80 4d 00
        E 62 80 4f 00
        E 1100 90 48 51
        E 12 90 4f 5a
        E 5 90 4d 53
        E 113 80 4d 00
        E 119 80 48 00
        E 43 80 4f 00
        E 1222 90 48 4c
        E 4 90 4f 61
        E 3 90 4d 53
        E 132 80 48 00
        E 48 80 4d 00
        E 55 80 4f 00
        E 1229 90 4d 4c
        E 3 90 50 4d
        E 5 90 48 47
        E 96 80 4d 00
        E 13 80 48 00
        E 164 80 50 00
        E 732 90 48 41
        E 2 90 4f 4f
        E 7 90 4d 4a
        E 95 80 4d 00
        E 23 80 48 00
        E 31 80 4f 00
        E 822 90 48 50
        E 8 90 4f 65
        E 5 90 4d 5e
        E 132 80 4d 00
        E 71 80 48 00
        E 23 80 4f 00
        E 1134 90 4f 5d
        E 8 90 4d 55
        E 3 90 48 4d
        E 150 80 48 00
        E 9 80 4d 00
        E 102 80 4f 00
        E 2632 90 48 4e
        E 7 90 4f 55
        E 2 90 4d 4f
        E 146 80 4d 00
        E 26 80 48 00
        E 80 80 4f 00
        E 1148 90 48 53
        E 7 90 50 4f
        E 24 90 4d 4e
        E 260 80 4d 00
        E 113 80 48 00
        E 399 80 50 00
        E 168 90 4d 4d
        E 2 90 48 47
        E 17 90 4f 4d
        E 132 80 48 00
        E 77 80 4d 00
        E 58 80 4f 00
        E 704 90 48 50
        E 7 90 4f 68
        E 5 90 4d 64
        E 212 80 4f 00
        E 7 80 4d 00
        E 12 80 48 00
        E 1180 90 4f 54
        E 2 90 48 4d
        E 7 90 4d 4f
        E 93 80 4d 00
        E 30 80 48 00
        E 120 80 4f 00
        E 2652 90 4f 5b
        E 2 90 48 4d
        E 6 90 4d 58
        E 253 80 4d 00
        E 35 80 48 00
        E 50 80 4f 00
        E 1071 90 48 4e
        E 6 90 50 4d
        E 13 90 4d 4d
        E 240 80 4d 00
        E 34 80 48 00
        E 106 80 50 00
        E 623 90 4d 50
        E 3 90 50 48
        E 9 90 48 48
        E 105 80 48 00
        E 91 80 4d 00
        E 72 80 50 00
        E 671 90 48 50
        E 8 90 4d 64
        E 5 90 4f 65
        E 239 80 4d 00
        E 5 80 48 00
        E 16 80 4f 00
        E 1178 90 4f 4f
        E 3 90 4d 4e
        E 7 90 48 48
        E 93 80 4d 00
        E 14 80 48 00
        E 117 80 4f 00
        E 2575 90 48 4b
        E 2 90 4f 4e
        E 15 90 4d 4b
        E 137 80 4d 00
        E 143 80 4f 00
        E 2 80 48 00
        E 1104 90 50 4b
        E 10 90 48 48
        E 19 90 4d 4b
        E 276 80 48 00
        E 67 80 4d 00
        E 186 80 50 00
        E 409 90 4d 4d
        E 16 90 48 42
        E 3 90 4f 4f
        E 111 80 48 00
        E 139 80 4d 00
        E 39 80 4f 00
        E 707 90 48 46
        E 9 90 4f 4e
        E 2 90 4d 4d
        E 107 80 4d 00
        E 6 80 48 00
        E 48 80 4f 00
        E 1227 90 48 4b
        E 5 90 4f 59
        E 6 90 4d 53
        E 240 80 4d 00
        E 16 80 4f 00
        E 12 80 48 00
        E 1164 90 4f 51
        E 6 90 4d 50
        E 2 90 48 49
        E 173 80 48 00
        E 127 80 4d 00
        E 34 80 4f 00
        E 1128 90 48 4c
        E 18 90 4f 52
        E 7 90 4d 4f
        E 242 80 48 00
        E 3 80 4d 00
        E 13 80 4f 00
        E 1124 90 48 4e
        E 3 90 50 4c
        E 35 90 4d 47
        E 88 80 4d 00
        E 117 80 48 00
        E 249 80 50 00
        E 465 90 50 4b
        E 7 90 4d 4d
        E 16 90 48 47
        E 126 80 48 00
        E 117 80 4d 00
        E 154 80 50 00
        E 558 90 4f 50
        E 7 90 48 48
        E 7 90 4d 4c
        E 102 80 4d 00
        E 10 80 48 00
        E 134 80 4f 00
        E 1120 90 4f 53
        E 6 90 48 4c
        E 3 90 4d 52
        E 269 80 4f 00
        E 14 80 4d 00
        E 60 80 48 00
        E 1047 90 4f 4e
        E 2 90 48 4b
        E 3 90 4d 50
        E 340 80 4d 00
        E 80 80 48 00
        E 5 80 4f 00
        E 1046 90 48 4a
        E 6 90 4f 52
        E 6 90 4d 4f
        E 258 80 48 00
        E 19 80 4f 00
        E 15 80 4d 00
        E 1137 90 48 48
        E 4 90 50 4e
        E 17 90 4d 49
        E 102 80 4d 00
        E 272 90 4d 04
        E 520 80 50 00
        E 162 90 4f 47
        E 147 80 48 00
        E 628 80 4d 00
        E 13 80 4f 00
        E 165 90 48 45
        E 6 90 4f 4d
        E 22 90 4d 4d
        E 273 80 4f 00
        E 2 80 4d 00
        E 66 80 48 00
        E 1043 90 4f 4b
        E 30 90 4d 44
        E 2 90 48 36
        E 101 80 4d 00
        E 66 80 48 00
        E 39 80 4f 00
        E 1133 90 4f 4d
        E 21 90 4d 4a
        E 5 90 48 3f
        E 80 80 4d 00
        E 13 80 4f 00
        E 46 80 48 00
        E 20181 b0 7b 00
        CCINTERP 32
        CHASE_CC_TAKEOFFS 1
        GUID {95BFB9F6-BDE2-4F44-96F4-4DE5F2354494}
        IGNTEMPO 0 120 4 4
        SRCCOLOR 37
        VELLANE -1 100 0
        VELLANE 64 100 0
      >
    >
  >
  <TRACK {287E23CA-2C08-A949-BE0F-DF9C5A810CA0}
    NAME Aux
    PEAKCOL 16576
    BEAT -1
    AUTOMODE 0
    VOLPAN 1 0 -1 -1 1
    MUTESOLO 0 0 0
    IPHASE 0
    PLAYOFFS 0 1
    ISBUS 0 0
    BUSCOMP 0 0 0 0 0
    SHOWINMIX 1 0.6667 0.5 0 0.5 0 0 0
    FREEMODE 0
    SEL 0
    REC 0 0 0 0 0 0 0
    VU 2
    TRACKHEIGHT 0 0 0 0 0 0
    INQ 0 0 0 0.5 100 0 0 100
    NCHAN 6
    FX 1
    TRACKID {287E23CA-2C08-A949-BE0F-DF9C5A810CA0}
    PERF 0
    AUXRECV 0 0 1 0 0 0 0 2048 0 -1:U 4177951 -1 ''
    AUXRECV 0 0 0 0 0 0 0 4 4 -1:U 4177951 -1 ''
    AUXRECV 1 0 1 0 0 0 0 2048 0 -1:U 4177951 -1 ''
    AUXRECV 1 0 0.62218279116715 0 0 0 0 4 4 -1:U 4177951 -1 ''
    AUXRECV 2 0 1 0 0 0 0 2048 0 -1:U 4177951 -1 ''
    AUXRECV 2 0 0.56085967562082 0 0 0 0 4 4 -1:U 4177951 -1 ''
    AUXRECV 3 0 1 0 0 0 0 2048 0 -1:U 4177951 -1 ''
    AUXRECV 3 0 0.29129205255772 0 0 0 0 4 4 -1:U 4177951 -1 ''
    MIDIOUT -1
    MAINSEND 0 0
    <FXCHAIN
      WNDRECT 327 65 1065 722
      SHOW 0
      LASTSEL 0
      DOCKED 0
      BYPASS 0 0 0
      <VST "VST3: BusHead          (CabbageAudio    ) (6ch)" BusHead.vst3 0 "" 131310216{ABCDEF019182FAEB4361626230303033} ""
        iKLTB+5e7f4GAAAAAQAAAAAAAAACAAAAAAAAAAQAAAAAAAAACAAAAAAAAAAQAAAAAAAAACAAAAAAAAAABgAAAAEAAAAAAAAAAgAAAAAAAAAEAAAAAAAAAAgAAAAAAAAA
        EAAAAAAAAAAgAAAAAAAAACYBAAABAAAA//8QAA==
        FgEAAAEAAABWQzIh0QAAADw/eG1sIHZlcnNpb249IjEuMCIgZW5jb2Rpbmc9IlVURi04Ij8+IDxDQUJCQUdFX1BSRVNFVFM+PFBSRVNFVDAgUHJlc2V0TmFtZT0iQ0FC
        QkFHRV9QUkVTRVRTIDAiIGluc3RhbmNlTmFtZT0iMiIgdHJhY2tJbmRleD0iMiIgcGx1Z2luSW5kZXg9IjAiIHBsdWdpblV1aWQ9IjRjM2M2MzdiYjk2NDQ1MzRiNDA2
        YWU2M2NmZDI3ZDlkIi8+PC9DQUJCQUdFX1BSRVNFVFM+AAAAAAAAAAAASlVDRVByaXZhdGVEYXRhAAEBQnlwYXNzAAEBAwAdAAAAAAAAAEpVQ0VQcml2YXRlRGF0YQAA
        AAAAAAAA
        AEZhY3RvcnkgUHJlc2V0cwAQAAAA
      >
      PRESETNAME "Factory Presets"
      FLOATPOS 451 87 960 694
      FXID {2818DC07-E9BA-D443-8A07-CADA1467F447}
      WAK 1 0
      BYPASS 0 0 0
      <VST "VST3: Reverb           (CabbageAudio    ) (6ch)" Reverb.vst3 0 "" 205275414{ABCDEF019182FAEB4361626230313030} ""
        FkE8DO5e7f4GAAAAAQAAAAAAAAACAAAAAAAAAAQAAAAAAAAACAAAAAAAAAAQAAAAAAAAACAAAAAAAAAABgAAAAEAAAAAAAAAAgAAAAAAAAAEAAAAAAAAAAgAAAAAAAAA
        EAAAAAAAAAAgAAAAAAAAAOQBAAABAAAA//8QAA==
        1AEAAAEAAABWQzIhjwEAADw/eG1sIHZlcnNpb249IjEuMCIgZW5jb2Rpbmc9IlVURi04Ij8+IDxDQUJCQUdFX1BSRVNFVFM+PFBSRVNFVDAgUHJlc2V0TmFtZT0iQ0FC
        QkFHRV9QUkVTRVRTIDAiIGluc3RhbmNlTmFtZT0iIiB0cmFja0luZGV4PSIiIHBsdWdpbkluZGV4PSIiIHBsdWdpblV1aWQ9IjhkMjcxYWExNmM0MDRlMTg5ZmE1OTg1
        Y2U3NDg0NzY3IiBmaXJzdF90YWJfYnVnX3dvcmthcm91bmRfdGFiPSIwLjAiIHJldmVyYl90YWI9IjEuMCIgbG9nX3RhYj0iMC4wIiBlbmFibGVkPSIxLjAiIHNpemU9
        IjAuOTQ5OTk5OTg4MDc5MDcxIiBjdXRvZmZGcmVxdWVuY3k9IjIwMDAwLjAiIHZhcmlhdGlvbkRlcHRoPSIwLjEwMDAwMDAwMTQ5MDExNjEiIGRyeVdldD0iMS4wIiB2
        b2x1bWU9IjEuMCIvPjwvQ0FCQkFHRV9QUkVTRVRTPgAAAAAAAAAAAEpVQ0VQcml2YXRlRGF0YQABAUJ5cGFzcwABAQMAHQAAAAAAAABKVUNFUHJpdmF0ZURhdGEAAAAA
        AAAAAA==
        AAAQAAAA
      >
      FLOATPOS 440 64 1000 570
      FXID {BCD799E2-BD8C-1740-8E41-AFBFB9305844}
      WAK 0 0
    >
  >
  <TRACK {63E5B392-0533-4446-AD46-E347E98D1B2B}
    NAME Master
    PEAKCOL 16576
    BEAT -1
    AUTOMODE 0
    VOLPAN 1 0 -1 -1 1
    MUTESOLO 0 0 0
    IPHASE 0
    PLAYOFFS 0 1
    ISBUS 0 0
    BUSCOMP 0 0 0 0 0
    SHOWINMIX 1 0.6667 0.5 0 0.5 0 0 0
    FREEMODE 0
    SEL 0
    REC 0 0 0 0 0 0 0
    VU 2
    TRACKHEIGHT 0 0 0 0 0 0
    INQ 0 0 0 0.5 100 0 0 100
    NCHAN 6
    FX 1
    TRACKID {63E5B392-0533-4446-AD46-E347E98D1B2B}
    PERF 0
    AUXRECV 4 0 1 0 0 0 0 2048 0 -1:U 4177951 -1 ''
    AUXRECV 4 0 1 0 0 0 0 4 4 -1:U 4177951 -1 ''
    MIDIOUT -1
    MAINSEND 0 0
    <FXCHAIN
      WNDRECT 241 153 1065 722
      SHOW 0
      LASTSEL 0
      DOCKED 0
      BYPASS 0 0 0
      <VST "VST3: MasterHead       (CabbageAudio    ) (6ch)" MasterHead.vst3 0 "" 248753549{ABCDEF019182FAEB4361626230303034} ""
        ja3TDu5e7f4GAAAAAQAAAAAAAAACAAAAAAAAAAQAAAAAAAAACAAAAAAAAAAQAAAAAAAAACAAAAAAAAAABgAAAAEAAAAAAAAAAgAAAAAAAAAEAAAAAAAAAAgAAAAAAAAA
        EAAAAAAAAAAgAAAAAAAAACUBAAABAAAA//8QAA==
        FQEAAAEAAABWQzIh0AAAADw/eG1sIHZlcnNpb249IjEuMCIgZW5jb2Rpbmc9IlVURi04Ij8+IDxDQUJCQUdFX1BSRVNFVFM+PFBSRVNFVDAgUHJlc2V0TmFtZT0iQ0FC
        QkFHRV9QUkVTRVRTIDAiIGluc3RhbmNlTmFtZT0iIiB0cmFja0luZGV4PSIzIiBwbHVnaW5JbmRleD0iMCIgcGx1Z2luVXVpZD0iZDI1NTEwNzQ0YTc2NGY2ZWI1MTVk
        NzlkODQ5ZDVmMGQiLz48L0NBQkJBR0VfUFJFU0VUUz4AAAAAAAAAAABKVUNFUHJpdmF0ZURhdGEAAQFCeXBhc3MAAQEDAB0AAAAAAAAASlVDRVByaXZhdGVEYXRhAAAA
        AAAAAAA=
        AEZhY3RvcnkgUHJlc2V0cwAQAAAA
      >
      PRESETNAME "Factory Presets"
      FLOATPOS 443 110 960 694
      FXID {C76EC94D-35FB-B742-82EA-931E33EDE5A9}
      WAK 0 0
    >
  >
  <TRACK {ED3BBFC5-F01A-7943-A293-98C96281065A}
    NAME "Output Routing"
    PEAKCOL 16576
    BEAT -1
    AUTOMODE 0
    VOLPAN 1 0 -1 -1 1
    MUTESOLO 0 0 0
    IPHASE 0
    PLAYOFFS 0 1
    ISBUS 0 0
    BUSCOMP 0 0 0 0 0
    SHOWINMIX 1 0.6667 0.5 0 0.5 0 -1 0
    FREEMODE 0
    SEL 0
    REC 0 0 1 0 0 0 0
    VU 2
    TRACKHEIGHT 0 0 0 0 0 0
    INQ 0 0 0 0.5 100 0 0 100
    NCHAN 6
    FX 1
    TRACKID {ED3BBFC5-F01A-7943-A293-98C96281065A}
    PERF 0
    AUXRECV 5 0 1 0 0 0 0 2048 0 -1:U 4177951 -1 ''
    AUXRECV 5 0 1 0 0 0 0 4 0 -1:U 4177951 -1 ''
    MIDIOUT -1
    MAINSEND 1 0
  >
>
